<svg width="24" height="24" viewBox="0 0 24 24" fill="none" xmlns="http://www.w3.org/2000/svg">
<path fill-rule="evenodd" clip-rule="evenodd" d="M11.4527 5.78247V5.24775C11.4527 5.11092 11.5636 5 11.7004 5C11.8373 5 11.9482 5.11092 11.9482 5.24775V5.78264C11.9482 5.91948 11.8373 6.03039 11.7004 6.03039C11.5636 6.03039 11.4527 5.9193 11.4527 5.78247ZM12.9731 6.35623C13.0121 6.37887 13.0546 6.38958 13.0968 6.38958C13.1823 6.38958 13.2657 6.34518 13.3115 6.26553L13.5788 5.80251C13.6472 5.68416 13.6066 5.53247 13.4881 5.46406C13.3694 5.39547 13.2182 5.43607 13.1496 5.55476L12.8824 6.01778C12.8139 6.13647 12.8545 6.28816 12.9731 6.35623ZM14.127 7.39941C14.169 7.39941 14.2118 7.3887 14.2507 7.36607L14.7137 7.09862C14.8324 7.03021 14.8728 6.87851 14.8044 6.76C14.736 6.64165 14.5843 6.6007 14.466 6.66929L14.0029 6.93674C13.8844 7.00515 13.8438 7.15685 13.9122 7.27536C13.958 7.35484 14.0411 7.39924 14.127 7.39941ZM14.2659 8.54055C14.2659 8.67738 14.3768 8.7883 14.5136 8.7883H15.0484C15.1852 8.7883 15.2961 8.67738 15.2961 8.54055C15.2961 8.40372 15.1852 8.2928 15.0484 8.2928H14.5136C14.3768 8.2928 14.2659 8.40372 14.2659 8.54055ZM8.40764 8.84324H8.94253C9.07937 8.84324 9.19028 8.73232 9.19028 8.59549C9.19028 8.45866 9.07937 8.34774 8.94253 8.34774H8.40764C8.27081 8.34774 8.15989 8.45866 8.15989 8.59549C8.15989 8.7325 8.27064 8.84341 8.40764 8.84324ZM8.71465 7.14613L9.17784 7.41358C9.21689 7.43604 9.25939 7.44692 9.30155 7.44692C9.38707 7.44692 9.47051 7.40252 9.5163 7.32288C9.58471 7.20436 9.54429 7.05284 9.4256 6.98442L8.96257 6.71698C8.84388 6.64839 8.69254 6.68916 8.62412 6.80768C8.55553 6.9262 8.5963 7.07789 8.71465 7.14613ZM10.0968 6.29317C10.1426 6.37265 10.226 6.41722 10.3116 6.41722C10.3535 6.41722 10.3962 6.40651 10.4353 6.38388C10.5538 6.31563 10.5944 6.16412 10.526 6.04542L10.2587 5.58223C10.1903 5.46388 10.0388 5.42294 9.92023 5.49153C9.80171 5.55977 9.76111 5.71129 9.82953 5.82998L10.0968 6.29317ZM13.1989 15.1165L17.7285 13.3909L17.0357 12.2103L12.1579 13.9144L13.1989 15.1165ZM16.8982 14.2378L13.213 15.6415C13.1158 15.6787 13.0057 15.651 12.9375 15.5722L11.9757 14.4615V19.7702L16.8984 18.0506H16.8982V14.2378ZM13.1545 11.0025C13.128 11.2015 13.0188 11.3746 12.8621 11.4856C12.8874 11.5502 12.9024 11.6198 12.9024 11.6934V11.8278C12.9024 12.0821 12.7348 12.2959 12.5054 12.3707C12.5121 12.4059 12.5163 12.442 12.5163 12.4792V12.6136C12.5163 12.9299 12.259 13.1872 11.9428 13.1872H11.4584C11.1422 13.1872 10.885 12.9299 10.885 12.6137V12.4793C10.885 12.4422 10.8891 12.4061 10.8959 12.3708C10.6664 12.296 10.4988 12.0821 10.4988 11.828V11.6938C10.4988 11.6203 10.5139 11.5505 10.5391 11.4859C10.3862 11.3776 10.2784 11.21 10.2488 11.0168L7.1212 11.9325L11.7315 13.5389L16.3344 11.9311L13.1545 11.0025ZM10.5256 15.5719C10.4575 15.6505 10.3475 15.6781 10.25 15.6412L6.56489 14.2374V18.0504L11.48 19.7676V14.4698L10.5256 15.5719ZM11.3055 13.9149L6.42063 12.2129L5.72852 13.3922L6.39903 13.644C6.40318 13.6453 6.40715 13.6469 6.41078 13.6485L10.2649 15.1166L11.3055 13.9149ZM12.6655 10.9096C12.6655 10.1376 12.8932 9.82889 13.0942 9.5566C13.2643 9.32579 13.3989 9.14369 13.3989 8.63005C13.3989 7.69364 12.637 6.93155 11.7004 6.93155C10.7639 6.93155 10.002 7.69347 10.0021 8.63005C10.0021 9.14351 10.1367 9.32579 10.3069 9.5566C10.4733 9.78189 10.6574 10.0331 10.7162 10.5505C10.7281 10.5697 10.7388 10.5899 10.7454 10.6127C10.7625 10.6713 10.7561 10.7306 10.7331 10.7822C10.7345 10.8232 10.7354 10.8655 10.7354 10.9096C10.7354 11.0255 10.8297 11.1198 10.9454 11.1198H11.0719H12.3283H12.4549C12.5712 11.1198 12.6655 11.0255 12.6655 10.9096ZM12.4067 11.8275V11.6932C12.4067 11.6511 12.3711 11.6153 12.3288 11.6153H11.0724C11.0301 11.6153 10.9945 11.6511 10.9945 11.6932V11.8275C10.9945 11.8698 11.0301 11.9054 11.0724 11.9054H11.4584H11.9428H12.3288C12.371 11.9056 12.4067 11.8698 12.4067 11.8275ZM11.4582 12.4012C11.4159 12.4012 11.3803 12.437 11.3803 12.4792V12.6136C11.3803 12.6557 11.4159 12.6915 11.4582 12.6915H11.9427C11.985 12.6915 12.0206 12.6557 12.0206 12.6136V12.4792C12.0206 12.4368 11.9848 12.4012 11.9427 12.4012H11.4582Z" fill="#D6A80F"/>
</svg>
