<svg width="24" height="24" viewBox="0 0 24 24" fill="none" xmlns="http://www.w3.org/2000/svg">
<path d="M15.7742 18.9411H17.552C17.799 18.9411 18 18.7422 18 18.496V12.4236C18 12.1782 17.7998 11.9785 17.552 11.9785H15.7742C15.5272 11.9785 15.3262 12.1775 15.3262 12.4236V18.496C15.3262 18.7414 15.5264 18.9411 15.7742 18.9411ZM16.2222 12.8687H17.1048V18.0508H16.2222V12.8687ZM12.2178 8.37928V18.4961C12.2178 18.7414 12.418 18.9411 12.6657 18.9411H14.4436C14.6905 18.9411 14.8915 18.7422 14.8915 18.4961L14.8908 8.37928C14.8908 8.13391 14.6905 7.93421 14.4428 7.93421H12.665C12.418 7.93421 12.217 8.13314 12.217 8.37928H12.2178ZM13.1129 8.82436H13.9956V18.0508H13.1129V8.82436ZM9.55648 13.7311C9.30951 13.7311 9.10852 13.93 9.10852 14.1761V18.4961C9.10852 18.7415 9.30874 18.9412 9.55648 18.9412H11.3343C11.5813 18.9412 11.7823 18.7423 11.7823 18.4961V14.1761C11.7823 13.9308 11.5821 13.7311 11.3343 13.7311H9.55648ZM10.8871 18.051H10.0044V14.6206H10.8871V18.051ZM6.44797 15.3C6.201 15.3 6 15.499 6 15.7451V18.4961C6 18.7415 6.20022 18.9412 6.44797 18.9412H8.22581C8.47278 18.9412 8.67377 18.7423 8.67377 18.4961V15.7451C8.67377 15.4997 8.47355 15.3 8.22581 15.3H6.44797ZM7.77862 18.051H6.89593V16.1902H7.77862V18.051ZM9.6663 6.42114L10.7274 5.15945C10.8123 5.05805 10.9385 5 11.071 5C11.2034 5 11.3296 5.05883 11.4145 5.15945L12.4756 6.42114C12.6346 6.60923 12.6088 6.89021 12.4195 7.04735C12.2294 7.20525 11.9474 7.17971 11.7893 6.99162L11.5197 6.67116V8.37947C11.5197 11.245 9.69199 13.8303 6.97063 14.8134C6.91999 14.8319 6.86857 14.8404 6.81794 14.8404C6.63485 14.8404 6.46347 14.7282 6.39723 14.5478C6.31232 14.3172 6.43229 14.0618 6.66524 13.9774C9.03361 13.1221 10.6246 10.8719 10.6246 8.37952V6.67121L10.355 6.99166C10.1961 7.17975 9.91405 7.20529 9.72472 7.04739C9.5354 6.88949 9.5097 6.60929 9.66862 6.42119L9.6663 6.42114Z" fill="#C9AF03"/>
<rect x="6.70557" y="15.9395" width="1.23529" height="2.29412" fill="#C9AF03"/>
<rect x="9.70557" y="14.3516" width="1.23529" height="3.70588" fill="#C9AF03"/>
<rect x="12.8823" y="8.70508" width="1.23529" height="9.35294" fill="#C9AF03"/>
<rect x="16.2349" y="12.5879" width="1.23529" height="5.64706" fill="#C9AF03"/>
</svg>
