<svg width="24" height="24" viewBox="0 0 24 24" fill="none" xmlns="http://www.w3.org/2000/svg">
<path d="M15.4341 9.26331H9.79454V8.29686C9.79454 7.09011 10.7828 6.10735 11.9979 6.10735C12.5747 6.10735 13.1214 6.32996 13.5369 6.73312C13.7488 6.93945 14.0891 6.93402 14.2969 6.72362C14.5047 6.51322 14.4992 6.17524 14.2874 5.96889C13.6696 5.36891 12.8563 5.03906 11.9979 5.03906C10.1909 5.03906 8.72019 6.49962 8.72019 8.29548V9.26194H8.563C7.52695 9.26194 6.68359 10.0981 6.68359 11.127L6.68496 16.4618C6.68496 17.4907 7.52832 18.3282 8.56437 18.3282H15.4342C16.4702 18.3282 17.3136 17.4907 17.3136 16.4618V11.1284C17.3136 10.0995 16.4701 9.26331 15.4341 9.26331ZM11.9978 14.9942C11.3336 14.9942 10.7923 14.4567 10.7923 13.797C10.7923 13.1373 11.3336 12.5984 11.9978 12.5984C12.6648 12.5984 13.2047 13.1387 13.2047 13.797C13.2061 14.4567 12.6648 14.9942 11.9978 14.9942Z" fill="#F44336"/>
</svg>
