<svg width="24" height="24" viewBox="0 0 24 24" fill="none" xmlns="http://www.w3.org/2000/svg">
<path d="M10.7334 9.63129H9.65569V7.47578C9.65569 6.51321 10.169 5.62341 11.0029 5.14247C11.8368 4.66084 12.8634 4.66084 13.6973 5.14247C14.5312 5.62343 15.0445 6.51324 15.0445 7.47578V9.63129H10.7334ZM12.3501 13.9423C13.0648 13.9423 13.7498 13.6587 14.255 13.1529C14.7609 12.6477 15.0445 11.9626 15.0445 11.2479V10.709H9.65571V11.2479C9.65571 11.9626 9.93929 12.6477 10.4452 13.1529C10.9504 13.6587 11.6354 13.9423 12.3501 13.9423ZM17.2 11.2479C17.2 10.9502 16.9589 10.7091 16.6611 10.7091C16.3634 10.7091 16.1222 10.9502 16.1222 11.2479C16.1222 12.5958 15.4035 13.8406 14.2361 14.5148C13.0687 15.1884 11.6314 15.1884 10.4639 14.5148C9.29658 13.8406 8.57776 12.5957 8.57776 11.2479C8.57776 10.9502 8.33662 10.7091 8.03888 10.7091C7.74114 10.7091 7.5 10.9502 7.5 11.2479C7.50202 12.4402 7.94188 13.59 8.7374 14.4784C9.53226 15.3669 10.6262 15.9321 11.811 16.0661V18.7922H10.1944C9.89662 18.7922 9.65548 19.0334 9.65548 19.3311C9.65548 19.6289 9.89662 19.87 10.1944 19.87H14.5054C14.8031 19.87 15.0443 19.6289 15.0443 19.3311C15.0443 19.0334 14.8031 18.7922 14.5054 18.7922H12.8888V16.0661C14.0736 15.9321 15.1676 15.3669 15.9624 14.4784C16.7579 13.59 17.198 12.4402 17.2 11.2479Z" fill="#730FD6"/>
</svg>
