<svg width="24" height="24" viewBox="0 0 24 24" fill="none" xmlns="http://www.w3.org/2000/svg">
<path d="M17.7074 20.0268C18.0975 19.6359 18.0975 19.0045 17.7074 18.6136L15.0063 15.9074L13.5957 17.3206L16.2968 20.0268C16.687 20.4177 17.3272 20.4177 17.7074 20.0268ZM8.71363 8.29988H11.0046V13.9028L6.29262 18.6136C5.90246 19.0045 5.90246 19.6359 6.29262 20.0268C6.68278 20.4177 7.31305 20.4177 7.70321 20.0268L12.4152 15.316C12.7953 14.9351 13.0054 14.434 13.0054 13.9028V8.29988H15.2964C15.7466 8.29988 15.9667 7.75864 15.6465 7.44792L12.3551 4.15035C12.1551 3.94988 11.8449 3.94988 11.6449 4.15035L8.35348 7.44792C8.04335 7.75864 8.26344 8.29988 8.71363 8.29988Z" fill="#8FA715"/>
</svg>
