<svg width="24" height="24" viewBox="0 0 24 24" fill="none" xmlns="http://www.w3.org/2000/svg">
<path d="M8.24022 11.2578C7.846 11.5265 7.36898 11.6819 6.85871 11.6819C6.34506 11.6819 5.86805 11.5258 5.4772 11.2578C4.85431 11.4763 4.36032 11.9934 4.18187 12.659L3.77746 14.1599C3.64175 14.6736 4.02581 15.1771 4.55914 15.1771H8.29663L8.68408 13.7257C8.81979 13.2222 9.0946 12.7784 9.46238 12.4405C9.24389 11.8841 8.79333 11.4532 8.23963 11.2578H8.24022Z" fill="#FF8E25"/>
<path d="M6.85662 11.0192C7.85205 11.0192 8.65952 10.2124 8.65952 9.21697C8.65952 8.22154 7.85274 7.41406 6.85662 7.41406C5.86119 7.41406 5.05371 8.22085 5.05371 9.21697C5.05371 10.2124 5.86049 11.0192 6.85662 11.0192Z" fill="#FF8E25"/>
<path d="M20.2246 14.1599L19.8236 12.659C19.6445 11.9961 19.1511 11.4797 18.5282 11.2578C18.134 11.5265 17.657 11.6819 17.1467 11.6819C16.6365 11.6819 16.1595 11.5258 15.7652 11.2578C15.2122 11.4532 14.7617 11.8807 14.5425 12.4405C14.9069 12.7784 15.1851 13.2222 15.318 13.7257L15.7089 15.1771H19.4429C19.9762 15.1771 20.361 14.6736 20.2253 14.1599H20.2246Z" fill="#FF8E25"/>
<path d="M15.3428 9.21697C15.3428 10.2124 16.1496 11.0192 17.1457 11.0192C18.1411 11.0192 18.9486 10.2124 18.9486 9.21697C18.9486 8.22154 18.1418 7.41406 17.1457 7.41406C16.1503 7.41406 15.3428 8.22085 15.3428 9.21697Z" fill="#FF8E25"/>
<path d="M14.6778 13.8953C14.4986 13.229 14.0053 12.7126 13.3824 12.4941C12.9882 12.7628 12.5112 12.9182 12.0009 12.9182C11.4906 12.9182 11.0136 12.7628 10.6194 12.4941C9.99651 12.7126 9.50252 13.2297 9.32407 13.8953L8.92305 15.3963C8.78395 15.9099 9.1714 16.4134 9.70134 16.4134H14.3006C14.8305 16.4134 15.2187 15.9099 15.0789 15.3963L14.6778 13.8953Z" fill="#FF8E25"/>
<path d="M10.1982 10.4526C10.1982 11.448 11.005 12.2555 12.0011 12.2555C12.9966 12.2555 13.8041 11.4487 13.8041 10.4526C13.8041 9.45717 12.9973 8.65039 12.0011 8.65039C11.0057 8.65039 10.1982 9.45717 10.1982 10.4526Z" fill="#FF8E25"/>
</svg>
