<svg width="24" height="24" viewBox="0 0 24 24" fill="none" xmlns="http://www.w3.org/2000/svg">
<path fill-rule="evenodd" clip-rule="evenodd" d="M6.62715 12.3477C6.62715 15.4881 9.17349 18.0339 12.3139 18.0339C12.8804 18.0339 13.4269 17.951 13.9441 17.7965L13.1989 15.5217C12.9174 15.6004 12.6207 15.6421 12.3139 15.6421C10.4945 15.6421 9.019 14.1677 9.019 12.3478H6.62671L6.62715 12.3477ZM9.00653 11.6866C9.00653 10.2063 10.2065 9.00698 11.6868 9.00698V6C8.54573 6 6 8.54634 6 11.6868L9.00653 11.6866ZM8.5799 11.4163H8.16267L6.59133 9.84494C6.62835 9.74387 6.66714 9.64397 6.70945 9.54641L8.58001 11.417L8.5799 11.4163ZM7.0573 11.4163H6.64007L6.30452 11.0801C6.31804 10.9573 6.33566 10.8363 6.35741 10.7164L7.0573 11.4163ZM7.09021 8.8212C7.1431 8.73599 7.19893 8.65255 7.25652 8.57027L9.04886 10.3632C9.00126 10.4572 8.95953 10.5542 8.92192 10.6535L7.08957 8.82056L7.09021 8.8212ZM7.75427 7.96265C7.82185 7.89095 7.89119 7.82102 7.96229 7.75345L9.70709 9.49824C9.63481 9.56465 9.56488 9.63399 9.49906 9.70744L7.75427 7.96265ZM8.57052 7.25629C8.65279 7.1987 8.73566 7.14287 8.82145 7.08998L10.6538 8.92293C10.5551 8.95995 10.4575 9.00226 10.3641 9.04986L8.57052 7.25629ZM9.54662 6.70977C9.64475 6.66805 9.74465 6.62809 9.84515 6.59224L11.4165 8.16298V8.58021L9.54592 6.70965L9.54662 6.70977ZM10.7166 6.35717C10.8365 6.33543 10.9576 6.31839 11.0804 6.30428L11.4165 6.64043V7.05707L10.7166 6.35717ZM14.2232 17.7054C16.4246 16.9209 18 14.8188 18 12.3478C18 9.2068 15.4537 6.66106 12.3138 6.66106V9.05335C14.1333 9.05335 15.6082 10.5289 15.6082 12.3483C15.6082 13.7575 14.7226 14.9597 13.4779 15.4305L14.2232 17.7054Z" fill="#4B2CFF"/>
</svg>
