<svg width="24" height="24" viewBox="0 0 24 24" fill="none" xmlns="http://www.w3.org/2000/svg">
<path d="M16.37 14.7982C16.1085 14.9704 15.6639 15.2329 15.0717 15.4431C14.5847 14.8673 14.1326 14.162 12.442 14.1128C10.8397 14.0664 8.91518 14.508 8.08027 14.7143C7.8587 14.7691 7.77184 15.0326 7.91249 15.2117C8.58361 16.0704 10.4983 18.027 12.8112 18.0003C14.945 17.9549 15.0348 17.2058 15.019 16.8273C13.6043 17.0913 12.0365 16.6946 10.4455 15.7669C11.053 16.0284 12.643 16.4434 13.999 16.3166C15.4133 16.21 16.4842 15.645 16.8074 15.4905C17.0763 15.3637 17.1128 15.0291 16.9046 14.8406C16.757 14.7044 16.5379 14.6881 16.3706 14.7977L16.37 14.7982Z" fill="#4CAF50"/>
<path d="M10.124 10.9892C10.9654 9.62473 11.5452 7.73724 11.7836 6.91117C11.8468 6.69206 11.6622 6.4853 11.4367 6.51688C10.3575 6.66887 7.70607 7.34887 6.572 9.36473C5.54459 11.2355 6.1486 11.6875 6.48417 11.8631C6.96284 10.5061 8.09045 9.34691 9.68927 8.43254C9.15879 8.82781 8.00404 9.99738 7.43606 11.235C6.82119 12.5131 6.77529 13.7231 6.74717 14.0804C6.72299 14.3769 6.99391 14.5758 7.26137 14.4894C7.45333 14.4302 7.5767 14.2481 7.56585 14.0483C7.54759 13.7354 7.54216 13.2192 7.65616 12.6014C8.39834 12.4677 9.23528 12.4287 10.1235 10.9892H10.124Z" fill="#4CAF50"/>
<path d="M17.1704 8.27979C16.0641 6.45445 15.3708 6.75146 15.0505 6.95485C15.9861 8.04789 16.4269 9.60385 16.4189 11.446C16.3419 10.7892 15.9062 9.20465 15.1181 8.09383C14.3187 6.92233 13.2938 6.27734 12.9987 6.07458C12.7544 5.90533 12.4465 6.04053 12.3873 6.31539C12.3428 6.5113 12.4386 6.70919 12.6172 6.79949C12.8975 6.94013 13.3471 7.19377 13.8252 7.60139C13.5701 8.31101 13.1852 9.05519 13.9876 10.5445C14.7485 11.9553 16.0933 13.4012 16.6894 14.0211C16.8473 14.1854 17.1192 14.1291 17.2041 13.9174C17.6117 12.9068 18.3495 10.2707 17.1701 8.2805L17.1704 8.27979Z" fill="#4CAF50"/>
</svg>
