<svg width="24" height="24" viewBox="0 0 24 24" fill="none" xmlns="http://www.w3.org/2000/svg">
<mask id="mask0_4407_31477" style="mask-type:luminance" maskUnits="userSpaceOnUse" x="3" y="3" width="17" height="18">
<path d="M3.86328 3.18359H19.685V20.8136H3.86328V3.18359Z" fill="white"/>
</mask>
<g mask="url(#mask0_4407_31477)">
<path d="M-54.9344 35.4041L-50.0872 37.8636C-49.9146 37.9503 -49.8452 38.1608 -49.9327 38.3334C-49.9674 38.4028 -50.0226 38.4556 -50.0872 38.4879L-51.8459 39.3802L-50.2591 40.1851C-50.0872 40.2726 -50.0178 40.4831 -50.1046 40.6549C-50.1392 40.7243 -50.1944 40.7771 -50.2591 40.8094L-52.0169 41.7017L-50.4309 42.5058C-50.2583 42.5933 -50.1889 42.8038 -50.2764 42.9756C-50.3111 43.045 -50.3663 43.0978 -50.4309 43.1301L-55.2781 45.5904C-55.3813 45.6424 -55.498 45.6384 -55.5934 45.5904L-60.4413 43.1301C-60.6132 43.0434 -60.6826 42.8329 -60.5958 42.6611C-60.5612 42.5917 -60.506 42.5381 -60.4413 42.5058L-58.6827 41.6142L-60.2695 40.8094C-60.4413 40.7227 -60.5107 40.5122 -60.424 40.3396C-60.3893 40.2702 -60.3341 40.2174 -60.2695 40.1851L-58.51 39.2927L-60.0969 38.4879C-60.2695 38.4012 -60.3389 38.1899 -60.2514 38.0181C-60.2167 37.9487 -60.1615 37.8959 -60.0969 37.8636L-55.2497 35.4041C-55.1464 35.3521 -55.0298 35.356 -54.9344 35.4041ZM-21.2186 31.752C-20.8158 31.752 -20.4516 31.9152 -20.1868 32.18C-19.9211 32.4457 -19.7571 32.8107 -19.7571 33.2127C-19.7571 33.6155 -19.9211 33.9805 -20.1852 34.2454L-20.2065 34.2658L-19.0564 36.2586H-16.753L-16.7459 36.231C-16.6489 35.8708 -16.4148 35.5468 -16.0656 35.3458C-15.7148 35.1432 -15.3167 35.1022 -14.9573 35.1984C-14.597 35.2953 -14.273 35.5303 -14.0712 35.8787C-13.8702 36.2295 -13.8285 36.6276 -13.9246 36.987C-14.02 37.3441 -14.2525 37.6657 -14.5978 37.8683L-14.6065 37.873C-14.9557 38.0748 -15.3538 38.1158 -15.7132 38.0197L-15.7424 38.0118L-16.8933 40.0054L-15.7416 41.9997L-15.7132 41.9918C-15.3538 41.8957 -14.9557 41.9366 -14.6065 42.1385C-14.2565 42.3403 -14.0216 42.6642 -13.9246 43.0245C-13.8285 43.3847 -13.8694 43.7836 -14.0712 44.1328L-14.0854 44.1549C-14.288 44.4915 -14.6057 44.7185 -14.9573 44.8123C-15.3088 44.9069 -15.6959 44.8699 -16.038 44.6815L-16.09 44.6523C-16.4251 44.4497 -16.6513 44.132 -16.7459 43.7797L-16.753 43.7513L-19.0548 43.7521L-20.2065 45.7456L-20.1852 45.7661C-19.9211 46.031 -19.7571 46.396 -19.7571 46.7988C-19.7571 47.2008 -19.9211 47.5658 -20.186 47.8307C-20.4516 48.0955 -20.8158 48.2595 -21.2186 48.2595C-21.6207 48.2595 -21.9848 48.0955 -22.2497 47.8314C-22.5154 47.5658 -22.6793 47.2008 -22.6793 46.7988C-22.6793 46.396 -22.5154 46.031 -22.2513 45.7661L-22.23 45.7456L-23.3809 43.7529H-25.6835L-25.6906 43.7797C-25.7875 44.1407 -26.0216 44.4647 -26.3709 44.6665L-26.3803 44.6712C-26.7272 44.8683 -27.1213 44.9085 -27.4792 44.8123C-27.8386 44.7161 -28.1626 44.482 -28.3652 44.132C-28.567 43.7836 -28.608 43.3847 -28.5118 43.0245C-28.4149 42.665 -28.18 42.3403 -27.83 42.1385C-27.4808 41.9366 -27.0835 41.8957 -26.7232 41.9918L-26.6948 41.9997L-25.5432 40.0054L-26.6948 38.0118L-26.7232 38.0197C-27.0724 38.1127 -27.4571 38.0772 -27.7984 37.8904C-27.8205 37.8809 -27.8426 37.8683 -27.8623 37.8541C-28.195 37.6507 -28.418 37.3354 -28.5118 36.987C-28.6049 36.6378 -28.5686 36.2531 -28.3826 35.9118C-28.3731 35.8897 -28.3605 35.8684 -28.3455 35.8479C-28.1429 35.5153 -27.8276 35.2922 -27.4792 35.1984C-27.13 35.1054 -26.7453 35.1416 -26.404 35.3277C-26.3811 35.3379 -26.3598 35.3497 -26.3393 35.3647C-26.0075 35.5681 -25.7836 35.8826 -25.6906 36.2318L-25.6843 36.2586H-23.3801L-22.23 34.2658L-22.2513 34.2454C-22.5154 33.9805 -22.6793 33.6155 -22.6793 33.2127C-22.6793 32.8107 -22.5154 32.4457 -22.2513 32.1808C-21.9848 31.9152 -21.6207 31.752 -21.2186 31.752ZM-18.6512 36.9602L-17.2961 39.3077L-16.347 37.6634L-16.3683 37.6421C-16.4046 37.6058 -16.44 37.5664 -16.4731 37.5238L-16.4763 37.5207L-16.4834 37.5112L-16.485 37.5096L-16.4873 37.5065L-16.4905 37.5018L-16.4944 37.497L-16.4976 37.4923L-16.5015 37.4876L-16.5047 37.4828L-16.507 37.4797L-16.5086 37.4773L-16.5126 37.4726L-16.5157 37.4679L-16.5181 37.4647L-16.5189 37.4631L-16.5228 37.4576C-16.5496 37.4206 -16.5756 37.3804 -16.5993 37.3394C-16.6166 37.3086 -16.6332 37.2771 -16.6481 37.2456L-16.6513 37.24L-16.656 37.229L-16.6592 37.2235L-16.6615 37.218L-16.6663 37.2069L-16.6686 37.2022L-16.6742 37.1912L-16.6749 37.1888L-16.6765 37.1857L-16.6789 37.1793L-16.6813 37.1746L-16.682 37.1723L-16.6836 37.1683L-16.686 37.1636L-16.6883 37.1581L-16.6899 37.1518C-16.712 37.0974 -16.7301 37.0414 -16.7459 36.9862L-16.753 36.9602H-18.6512ZM-25.1403 39.3077L-23.7853 36.9602H-25.6835L-25.6906 36.9862C-25.7118 37.0666 -25.7418 37.1462 -25.7789 37.2259L-25.7804 37.229L-25.7828 37.2345L-25.793 37.2566L-25.7946 37.2582L-25.7962 37.2621L-25.7994 37.2676L-25.8049 37.2787L-25.8072 37.2842L-25.8104 37.2889L-25.8112 37.2905L-25.8135 37.2944L-25.8159 37.3L-25.8191 37.3055L-25.8206 37.3086C-25.8301 37.3299 -25.8419 37.3512 -25.8569 37.3709L-25.8593 37.3756L-25.8632 37.3811L-25.8664 37.3867C-25.9263 37.4828 -25.9941 37.568 -26.0682 37.6421L-26.0894 37.6626L-25.1403 39.3077ZM-20.8119 45.3956L-19.8636 43.7529H-22.5729L-21.6246 45.3956C-21.5536 45.3751 -21.4795 45.3594 -21.4047 45.3499L-21.3448 45.3436L-21.3384 45.3428H-21.3329L-21.3306 45.342H-21.3211L-21.3148 45.3413H-21.3085L-21.303 45.3405L-21.2967 45.3397H-21.2785L-21.2746 45.3389H-21.2604L-21.2557 45.3381H-21.1808L-21.1761 45.3389H-21.1619L-21.1579 45.3397H-21.1398L-21.1335 45.3405L-21.128 45.3413H-21.1217L-21.1154 45.342H-21.1059L-21.1035 45.3428H-21.098L-21.0917 45.3436L-21.0326 45.3499C-20.9577 45.3602 -20.8836 45.3751 -20.8119 45.3956ZM-19.5427 36.8128C-19.5561 36.7947 -19.5672 36.775 -19.5766 36.7537L-20.8111 34.6158L-20.8678 34.6308V38.5872C-20.6053 38.6519 -20.3704 38.7882 -20.1852 38.9735C-19.9211 39.2376 -19.7571 39.6025 -19.7571 40.0054C-19.7571 40.1465 -19.7776 40.282 -19.8147 40.4105L-16.3888 42.3899L-16.347 42.3481L-17.5949 40.1874L-17.5988 40.1796L-18.5794 38.4816L-19.5427 36.8128ZM-16.0853 36.734C-16.0814 36.7568 -16.0766 36.7813 -16.0695 36.8057C-16.0554 36.8562 -16.0372 36.9058 -16.0144 36.9523L-16.0128 36.9547L-16.0057 36.9689L-15.9836 37.0051C-15.9679 37.0319 -15.9497 37.0572 -15.9316 37.0808L-15.9277 37.0855L-15.9253 37.0887L-15.9237 37.0911L-15.9213 37.0934L-15.919 37.0966L-15.915 37.1005L-15.9135 37.1029L-15.9087 37.1076L-15.9048 37.1123L-15.9032 37.1147L-15.8945 37.1234L-15.8922 37.1257L-15.8898 37.1281L-15.8882 37.1305L-15.8772 37.1423L-15.8748 37.1447L-15.8725 37.1462L-15.8559 37.1628L-15.8536 37.1644L-15.8441 37.1738L-15.8425 37.1746L-15.8346 37.1825L-15.8323 37.1841L-15.8291 37.1872L-15.8275 37.188L-15.8228 37.1927L-15.8181 37.1967L-15.8149 37.1983C-15.7322 37.2661 -15.6336 37.3141 -15.5319 37.3433C-15.3514 37.3914 -15.1536 37.3741 -14.9778 37.281L-14.9321 37.2542C-14.7641 37.1494 -14.6498 36.9862 -14.6018 36.8057C-14.5529 36.6252 -14.5702 36.4273 -14.664 36.2515L-14.6869 36.2129C-14.7917 36.0403 -14.9565 35.9244 -15.1386 35.8755C-15.3191 35.8267 -15.517 35.844 -15.692 35.937L-15.7314 35.9607C-15.904 36.0663 -16.0199 36.2303 -16.0688 36.4123C-16.0932 36.5022 -16.1011 36.5968 -16.0916 36.6906L-16.0908 36.6969L-16.09 36.7001V36.7032L-16.0893 36.7056V36.7087L-16.0885 36.7119V36.715L-16.0877 36.7174L-16.0869 36.7214V36.7261L-16.0861 36.7277V36.7308L-16.0853 36.734ZM-26.6334 37.2085C-26.6097 37.1896 -26.5868 37.1691 -26.564 37.1462C-26.5309 37.1139 -26.5017 37.0784 -26.4757 37.0414L-26.4741 37.0398L-26.4718 37.0367L-26.4686 37.0319L-26.467 37.0288L-26.4647 37.0264L-26.4631 37.0241L-26.4584 37.0162L-26.4568 37.0138L-26.4552 37.0107L-26.4536 37.0083L-26.452 37.0059L-26.4505 37.0036L-26.4481 36.9988L-26.4442 36.9933L-26.4426 36.9902L-26.441 36.9878L-26.4394 36.9846L-26.4379 36.9823L-26.4339 36.9744L-26.4323 36.9712L-26.4308 36.9689C-26.404 36.9176 -26.3827 36.8625 -26.3669 36.8057C-26.3606 36.7805 -26.3551 36.7553 -26.3504 36.73V36.7269L-26.3496 36.7245V36.7221L-26.3488 36.7166L-26.348 36.7143V36.7111L-26.3472 36.7064L-26.3464 36.7032V36.7001L-26.3456 36.6977V36.6906L-26.3448 36.6875L-26.6334 37.2085ZM-26.3417 36.626V36.5897C-26.3425 36.529 -26.3519 36.4707 -26.3677 36.4123C-26.4174 36.2239 -26.5396 36.0553 -26.7201 35.9512L-26.728 35.9465C-26.9077 35.8456 -27.1118 35.8251 -27.2979 35.8755C-27.4863 35.9252 -27.6558 36.0474 -27.7598 36.2279L-27.7622 36.2318C-27.8647 36.4123 -27.8852 36.6189 -27.8347 36.8057C-27.7843 36.9941 -27.6629 37.1636 -27.4823 37.2676L-27.4784 37.27C-27.2979 37.3725 -27.0921 37.393 -26.9045 37.3433C-26.817 37.3197 -26.7327 37.281 -26.6578 37.2274L-26.6554 37.2251L-26.6507 37.2219L-26.6475 37.2203L-26.6452 37.218L-26.6428 37.2164L-26.6404 37.2148L-26.6381 37.2125L-26.6357 37.2109L-26.6334 37.2085L-26.3417 36.626ZM-21.2186 47.5579C-21.0082 47.5579 -20.8182 47.4728 -20.6802 47.3364C-20.5439 47.1992 -20.4587 47.0093 -20.4587 46.7988C-20.4587 46.5891 -20.5439 46.3991 -20.681 46.262C-20.7969 46.1461 -20.9506 46.0673 -21.1217 46.0452H-21.1256L-21.1406 46.0436L-21.15 46.0428L-21.1595 46.042L-21.1698 46.0413L-21.1729 46.0405H-21.1887L-21.1918 46.0397H-21.2439L-21.2478 46.0405H-21.2636L-21.2667 46.0413H-21.2762L-21.2856 46.042L-21.2951 46.0436L-21.3109 46.0452H-21.3148C-21.4859 46.0673 -21.6388 46.1453 -21.7554 46.262C-21.8926 46.3991 -21.9777 46.5891 -21.9777 46.7988C-21.9777 47.0093 -21.8926 47.1992 -21.7562 47.3364C-21.6183 47.4728 -21.4283 47.5579 -21.2186 47.5579ZM-21.5686 38.5872V34.6308L-21.6254 34.6158L-22.8764 36.7828L-24.8376 40.1796L-24.8392 40.1819L-24.84 40.1843L-26.0894 42.3481L-26.0477 42.3899L-22.6218 40.4121C-22.6588 40.2828 -22.6793 40.1465 -22.6793 40.0054C-22.6793 39.6025 -22.5154 39.2376 -22.2513 38.9735C-22.066 38.7882 -21.8311 38.6519 -21.5686 38.5872ZM-15.8134 42.8109C-15.8331 42.8274 -15.8536 42.8455 -15.8725 42.8645C-15.9032 42.8952 -15.9308 42.9283 -15.956 42.9622L-15.9592 42.9669L-15.9608 42.9701L-15.9631 42.9725L-15.9663 42.9772L-15.9679 42.9803L-15.9694 42.9827L-15.975 42.9898L-15.9797 42.9977L-15.9813 43.0008L-15.9844 43.0056L-15.986 43.0079L-15.9876 43.0111L-15.9939 43.0221L-16.001 43.0347L-16.0025 43.0371L-16.0033 43.0387L-16.0041 43.0402L-16.0057 43.0426L-16.0073 43.0458L-16.0088 43.0481L-16.0096 43.0513L-16.0112 43.0536L-16.0128 43.0568L-16.0144 43.0592L-16.0152 43.0623L-16.0167 43.0631V43.0647L-16.0199 43.0702L-16.0207 43.0718L-16.0222 43.0757L-16.0246 43.0805L-16.0262 43.0844L-16.0286 43.0891C-16.0459 43.127 -16.0593 43.1664 -16.0695 43.2058C-16.0759 43.2286 -16.0806 43.2515 -16.0845 43.2744L-16.0861 43.2807V43.2838L-16.0869 43.287L-16.0877 43.2933L-16.0885 43.2964V43.2988L-16.0893 43.302V43.3051L-16.09 43.3075V43.3114L-16.0908 43.3146V43.3177L-16.0916 43.3209V43.324C-16.1003 43.4163 -16.0932 43.5101 -16.0688 43.5991C-16.0191 43.7852 -15.8993 43.9531 -15.7203 44.0579L-15.7148 44.0611C-15.5343 44.1651 -15.3262 44.1864 -15.1386 44.136C-14.9557 44.0871 -14.7902 43.9704 -14.6861 43.7986L-14.6766 43.782C-14.5726 43.6015 -14.5513 43.3934 -14.6018 43.2058C-14.6522 43.0174 -14.7736 42.8479 -14.9541 42.7439C-15.1354 42.639 -15.3435 42.6177 -15.5319 42.6682C-15.6265 42.6942 -15.7164 42.7368 -15.7952 42.7967L-15.8007 42.8006L-15.8031 42.803L-15.8055 42.8046L-15.8078 42.8069L-15.8094 42.8077L-15.8134 42.8109ZM-26.3417 43.4115V43.3918C-26.3417 43.354 -26.3448 43.3162 -26.3512 43.2783L-26.3519 43.2759V43.2728L-26.3535 43.2641L-26.3543 43.2625V43.2602L-26.3551 43.257L-26.3559 43.2555V43.2515L-26.3575 43.2468L-26.3582 43.2436V43.2413L-26.359 43.2381L-26.3598 43.2357L-26.3606 43.2326V43.2302L-26.3614 43.2287L-26.3638 43.2192L-26.3646 43.2168L-26.3653 43.2113L-26.3669 43.2058L-26.3677 43.2026L-26.3693 43.1971L-26.3701 43.194L-26.3716 43.1908L-26.3756 43.1766L-26.3772 43.1727L-26.378 43.1695V43.168L-26.3787 43.1664L-26.3795 43.1632L-26.3803 43.1609L-26.3819 43.1577L-26.3835 43.1514L-26.385 43.149L-26.3866 43.1427L-26.3874 43.1396L-26.389 43.1372L-26.3898 43.1341L-26.3914 43.1309L-26.3921 43.1278L-26.3937 43.1254L-26.3945 43.1222L-26.3961 43.1191L-26.404 43.0994C-26.4126 43.0789 -26.4221 43.0592 -26.4331 43.0402L-26.4426 43.0229L-26.4473 43.015L-26.4513 43.0071L-26.4552 43.0008L-26.4568 42.9977L-26.4584 42.9953L-26.4599 42.993L-26.4615 42.9898L-26.4631 42.9874L-26.467 42.9827V42.9811L-26.4686 42.9796C-26.4962 42.9394 -26.5285 42.9007 -26.564 42.8645C-26.5821 42.8471 -26.6002 42.8306 -26.6184 42.8148L-26.6215 42.8124L-26.6247 42.8093L-26.6263 42.8085L-26.6286 42.8069L-26.6318 42.8038L-26.6334 42.803L-26.6357 42.8006L-26.6381 42.799L-26.6404 42.7975L-26.6428 42.7951C-26.7216 42.736 -26.8107 42.6934 -26.9045 42.6682C-27.0929 42.6177 -27.301 42.639 -27.4823 42.7439C-27.6629 42.8479 -27.7843 43.0174 -27.8347 43.2058C-27.8852 43.3934 -27.8639 43.6007 -27.7598 43.782C-27.6558 43.9633 -27.4863 44.0855 -27.2979 44.136C-27.1158 44.1848 -26.9156 44.1659 -26.739 44.0705L-26.7019 44.0493C-26.5309 43.9436 -26.4158 43.7804 -26.3677 43.5991C-26.3512 43.5392 -26.3433 43.4777 -26.3417 43.4155V43.4115ZM-25.6984 42.9961L-25.6906 43.0245L-25.6835 43.0513H-16.753L-16.7459 43.0245L-16.738 42.9961L-20.1655 41.0167L-20.1852 41.0372C-20.4516 41.3029 -20.8158 41.466 -21.2186 41.466C-21.6207 41.466 -21.9848 41.3029 -22.2497 41.0388L-22.2702 41.0167L-25.6984 42.9961ZM-20.681 39.4685C-20.8182 39.3314 -21.0089 39.2462 -21.2186 39.2462C-21.4275 39.2462 -21.6183 39.3314 -21.7554 39.4685C-21.8926 39.6057 -21.9777 39.7965 -21.9777 40.0054C-21.9777 40.2158 -21.8926 40.4058 -21.7562 40.5438C-21.6183 40.6801 -21.4283 40.7653 -21.2186 40.7653C-21.0082 40.7653 -20.8182 40.6801 -20.6802 40.5438C-20.5439 40.4058 -20.4587 40.2158 -20.4587 40.0054C-20.4587 39.7965 -20.5439 39.6057 -20.681 39.4685ZM-20.6802 32.6751C-20.8182 32.5379 -21.0082 32.4536 -21.2186 32.4536C-21.4283 32.4536 -21.6183 32.5379 -21.7562 32.6751C-21.8926 32.8123 -21.9777 33.0022 -21.9777 33.2127C-21.9777 33.4224 -21.8926 33.6124 -21.7554 33.7495C-21.6396 33.8654 -21.4859 33.9442 -21.3148 33.9655L-21.3109 33.9663L-21.2959 33.9679L-21.2864 33.9687L-21.277 33.9695L-21.273 33.9702H-21.2667L-21.2636 33.971H-21.2407L-21.2375 33.9718H-21.1989L-21.1958 33.971H-21.1729L-21.1698 33.9702H-21.1634L-21.1603 33.9695L-21.1508 33.9687L-21.1414 33.9679L-21.1256 33.9663H-21.1225C-20.9506 33.945 -20.7977 33.8654 -20.681 33.7495C-20.5439 33.6124 -20.4587 33.4224 -20.4587 33.2127C-20.4587 33.0022 -20.5439 32.8123 -20.6802 32.6751ZM-53.67 4.79502L-49.9895 6.91944C-49.7695 6.6735 -49.4857 6.50402 -49.1783 6.42204C-48.7653 6.31168 -48.3088 6.35897 -47.9084 6.58994C-47.5056 6.8217 -47.2368 7.19377 -47.1256 7.60762C-47.0153 8.02147 -47.0626 8.47867 -47.2943 8.87991L-47.299 8.88779C-47.5308 9.28351 -47.9005 9.54995 -48.3112 9.66031C-48.3396 9.66819 -48.3672 9.6745 -48.3955 9.68081L-48.394 13.9297C-48.0724 13.9975 -47.7838 14.1591 -47.56 14.3837C-47.2565 14.6864 -47.0681 15.1058 -47.0681 15.5685C-47.0681 16.0304 -47.2565 16.4498 -47.56 16.7533C-47.8627 17.0576 -48.2828 17.2452 -48.7448 17.2452C-49.2067 17.2452 -49.6253 17.0576 -49.9288 16.7541L-49.9311 16.7525C-49.9524 16.7304 -49.9737 16.7084 -49.9942 16.6855C-51.2216 17.3611 -52.4544 18.1076 -53.6708 18.8147C-53.5675 19.1284 -53.5628 19.4595 -53.6447 19.7661C-53.7559 20.18 -54.0255 20.552 -54.4259 20.7838L-54.448 20.7956C-54.8437 21.0163 -55.2915 21.0605 -55.6974 20.9517C-56.1042 20.8421 -56.47 20.5804 -56.7017 20.1926L-56.7285 20.1477C-56.9484 19.7519 -56.9918 19.3042 -56.883 18.899C-56.8759 18.8706 -56.8673 18.843 -56.8586 18.8147L-60.5383 16.6902C-60.7582 16.9362 -61.0428 17.1057 -61.3494 17.1876C-61.7625 17.2988 -62.2189 17.2515 -62.6202 17.0197C-63.0222 16.788 -63.291 16.4159 -63.4021 16.0021C-63.5125 15.589 -63.4652 15.1318 -63.2342 14.7306L-63.2295 14.7227C-62.9977 14.3262 -62.6273 14.0597 -62.2166 13.9494C-62.189 13.9423 -62.1606 13.9352 -62.1322 13.9297L-62.1338 9.68081C-62.4546 9.61223 -62.7423 9.45063 -62.967 9.22676L-62.9686 9.22439C-63.2721 8.9209 -63.4597 8.50232 -63.4597 8.04117C-63.4597 7.57845 -63.2713 7.15908 -62.9678 6.85559L-62.9473 6.83667C-62.6454 6.54422 -62.2347 6.36449 -61.783 6.36449C-61.3203 6.36449 -60.9009 6.55289 -60.5974 6.85559C-60.5753 6.87767 -60.5541 6.90053 -60.5328 6.92417C-59.3054 6.24861 -58.0733 5.50211 -56.857 4.79502C-56.9603 4.48128 -56.965 4.15099 -56.883 3.84434C-56.7719 3.42971 -56.5023 3.05763 -56.1026 2.82667L-56.0798 2.81484C-55.684 2.59333 -55.2363 2.54998 -54.8303 2.65876C-54.4236 2.76755 -54.0578 3.02926 -53.826 3.41709L-53.8 3.46203C-53.5793 3.85774 -53.536 4.30549 -53.6447 4.71146C-53.6526 4.73905 -53.6605 4.76743 -53.67 4.79502ZM-59.6128 9.69736C-59.78 9.60119 -59.8375 9.38757 -59.7421 9.22045C-59.646 9.05333 -59.4323 8.99579 -59.2652 9.09196L-56.5094 10.6827C-56.4897 10.6614 -56.47 10.6402 -56.4495 10.6197C-56.224 10.3958 -55.9363 10.2342 -55.6147 10.1656V6.98408C-55.6147 6.79016 -55.4578 6.6333 -55.2639 6.6333C-55.07 6.6333 -54.9131 6.79016 -54.9131 6.98408V10.1656C-54.7491 10.2011 -54.593 10.261 -54.4496 10.3406L-54.4267 10.3532C-54.2746 10.4415 -54.1366 10.5527 -54.0192 10.6835L-51.2625 9.09196C-51.0954 8.99579 -50.8818 9.05333 -50.7864 9.22045C-50.6902 9.38757 -50.7478 9.60119 -50.9149 9.69736L-53.6692 11.2873C-53.6605 11.3149 -53.6518 11.3425 -53.6447 11.3709C-53.6077 11.512 -53.5872 11.6578 -53.5872 11.8052C-53.5872 11.9858 -53.6164 12.1592 -53.6692 12.3224L-50.9149 13.9131C-50.7478 14.0085 -50.6902 14.2221 -50.7864 14.3892C-50.8818 14.5564 -51.0954 14.6139 -51.2625 14.5185L-54.0192 12.927L-54.0594 12.9695L-54.0783 12.99C-54.303 13.2147 -54.5915 13.3763 -54.9131 13.4449V16.6256C-54.9131 16.8195 -55.07 16.9764 -55.2639 16.9764C-55.4578 16.9764 -55.6147 16.8195 -55.6147 16.6256V13.4449C-55.9355 13.3763 -56.2224 13.2147 -56.4471 12.9908L-56.4495 12.9892C-56.47 12.9687 -56.4889 12.9482 -56.5086 12.927L-59.2652 14.5185C-59.4323 14.6139 -59.646 14.5564 -59.7421 14.3892C-59.8375 14.2221 -59.78 14.0085 -59.6128 13.9131L-56.8586 12.3224C-56.9122 12.1592 -56.9406 11.9858 -56.9406 11.8052C-56.9406 11.6247 -56.9122 11.4505 -56.8586 11.2873L-59.6128 9.69736ZM-54.418 11.3173C-54.504 11.1683 -54.6285 11.0445 -54.7775 10.9586L-54.7933 10.9492C-54.9312 10.8727 -55.092 10.8301 -55.2639 10.8301C-55.5343 10.8301 -55.7786 10.9389 -55.9536 11.1139C-56.1302 11.2913 -56.239 11.5356 -56.239 11.8052C-56.239 12.0756 -56.1302 12.3192 -55.9552 12.495C-55.7786 12.6716 -55.5343 12.7803 -55.2639 12.7803C-54.9943 12.7803 -54.7507 12.6708 -54.5741 12.495L-54.5584 12.48C-54.392 12.3058 -54.2888 12.0677 -54.2888 11.8052C-54.2888 11.7154 -54.2998 11.6302 -54.3211 11.5514C-54.3439 11.4678 -54.3771 11.389 -54.418 11.3173ZM-49.6915 7.80311L-49.6946 7.81415L-49.697 7.82518V7.82676L-49.7002 7.83701L-49.7025 7.84883L-49.7049 7.86066L-49.7065 7.87248L-49.7088 7.88431L-49.7104 7.89613L-49.712 7.90795L-49.7136 7.91978L-49.7151 7.9316L-49.7159 7.94343L-49.7175 7.95525L-49.7183 7.96708L-49.7191 7.9789L-49.7199 7.99072L-49.7207 8.00255V8.07349L-49.7167 8.13262L-49.7151 8.14365L-49.7144 8.15548L-49.7128 8.1673L-49.7112 8.17912L-49.7088 8.19016L-49.7073 8.20198L-49.7057 8.21381L-49.7033 8.22563L-49.7009 8.23667L-49.6986 8.24849L-49.6962 8.25953L-49.6931 8.27135L-49.6907 8.28239L-49.6875 8.29421L-49.6781 8.32732L-49.6749 8.33757L-49.6741 8.33915L-49.671 8.34861V8.35018L-49.6671 8.35964V8.36122L-49.6639 8.36989L-49.6631 8.37225L-49.66 8.38092L-49.6592 8.38329L-49.656 8.39196L-49.6544 8.39433L-49.6513 8.40221L-49.6505 8.40536L-49.6473 8.41324L-49.6458 8.41561L-49.6426 8.42349L-49.6418 8.42665L-49.6387 8.43374L-49.6371 8.43768L-49.6339 8.44478L-49.6324 8.44793L-49.6292 8.45502L-49.6269 8.45896L-49.6237 8.46527L-49.6221 8.46921L-49.6166 8.48025L-49.6135 8.48577L-49.6111 8.4905L-49.6087 8.49602L-49.6056 8.50074L-49.6032 8.50626L-49.6 8.51099L-49.5977 8.51651L-49.5914 8.52597L-49.589 8.53149L-49.5859 8.53622L-49.5827 8.54174L-49.5803 8.54646L-49.5764 8.55198L-49.574 8.55592L-49.5701 8.56223L-49.5677 8.56538L-49.5638 8.57248L-49.5614 8.57563L-49.5575 8.58194L-49.5551 8.58509L-49.5512 8.59219L-49.5488 8.59455L-49.5425 8.60401L-49.537 8.6111L-49.5307 8.62056L-49.5283 8.62293L-49.522 8.63239L-49.5157 8.63948L-49.5149 8.64185L-49.5086 8.64894L-49.5078 8.65052L-49.5007 8.6584L-49.4999 8.65998L-49.4936 8.66786L-49.4857 8.67653L-49.4779 8.68599L-49.47 8.69466L-49.4621 8.70333L-49.4455 8.72068L-49.4377 8.72935L-49.4195 8.74669L-49.4116 8.75378L-49.403 8.76167L-49.4022 8.76324L-49.3943 8.76955L-49.3927 8.77113L-49.3856 8.77743L-49.3841 8.77901L-49.377 8.78532L-49.3746 8.78689L-49.3675 8.7932L-49.3651 8.79477L-49.358 8.80029L-49.3557 8.80266L-49.3486 8.80818L-49.3462 8.81054L-49.3391 8.81527L-49.3297 8.82236L-49.3265 8.82552L-49.3202 8.83025L-49.3163 8.83261L-49.3107 8.83655L-49.306 8.83971L-49.3005 8.84365L-49.2958 8.8468L-49.2903 8.85074L-49.2855 8.8539L-49.28 8.85705L-49.2753 8.86099L-49.2698 8.86414L-49.265 8.8673L-49.254 8.8736L-49.2493 8.87676L-49.2437 8.8807L-49.2327 8.887L-49.2288 8.88858C-49.1555 8.93115 -49.0774 8.96268 -48.9978 8.98396C-48.9655 8.99263 -48.9339 8.99973 -48.9016 9.00525H-48.8977L-48.8859 9.00761H-48.8819L-48.878 9.0084H-48.8756L-48.874 9.00919L-48.8701 9.00998H-48.8646L-48.8622 9.01077L-48.8543 9.01155H-48.8528L-48.8504 9.01234H-48.8464C-48.7266 9.02417 -48.6068 9.01392 -48.4925 8.98396C-48.2568 8.9209 -48.0448 8.76955 -47.9092 8.54568L-47.8903 8.51178C-47.7641 8.28318 -47.7397 8.02383 -47.8028 7.78892C-47.8674 7.54771 -48.0243 7.33014 -48.2576 7.19534C-48.4894 7.06134 -48.7558 7.03375 -48.9978 7.09838C-49.239 7.16302 -49.4558 7.32068 -49.5906 7.55323C-49.6371 7.63363 -49.6702 7.71719 -49.6915 7.80311ZM-49.0687 14.6478L-49.0719 14.6486L-49.0908 14.6557L-49.0932 14.6573L-49.1019 14.6604L-49.1042 14.6612L-49.1129 14.6643L-49.1153 14.6651L-49.1239 14.6691L-49.1255 14.6699L-49.146 14.6785L-49.1775 14.6935L-49.1878 14.699L-49.198 14.7045L-49.2177 14.7148L-49.2201 14.7164L-49.2303 14.7219L-49.2374 14.7266L-49.2406 14.7282L-49.2477 14.7321L-49.2501 14.7345L-49.2571 14.7384L-49.2603 14.74L-49.2666 14.744L-49.2705 14.7463L-49.2769 14.7503L-49.28 14.7526L-49.2863 14.7566L-49.2903 14.7597L-49.2997 14.766L-49.3052 14.77L-49.3092 14.7731L-49.3139 14.7763L-49.3186 14.7802L-49.3234 14.7834L-49.3281 14.7873L-49.332 14.7897L-49.3376 14.7944L-49.3415 14.7968L-49.347 14.8015L-49.3565 14.8086L-49.3588 14.811L-49.3651 14.8157L-49.3675 14.8181L-49.3746 14.8236L-49.3762 14.8252L-49.3833 14.8307L-49.3848 14.833L-49.3919 14.8386L-49.3935 14.8401L-49.4006 14.8464L-49.4022 14.848L-49.4093 14.8543L-49.418 14.863L-49.4345 14.8788C-49.5094 14.9529 -49.5717 15.0396 -49.619 15.135L-49.6237 15.1452L-49.6434 15.1886L-49.6473 15.198L-49.6481 15.1996L-49.6521 15.2091L-49.6529 15.2106L-49.656 15.2201L-49.6568 15.2217L-49.6607 15.2327L-49.6647 15.2414V15.2437L-49.6678 15.2524L-49.6694 15.2556L-49.6718 15.2634L-49.6726 15.2666L-49.6749 15.2745L-49.6765 15.2784L-49.6789 15.2863L-49.6797 15.2895L-49.682 15.2973L-49.6828 15.3013L-49.6868 15.3131L-49.6883 15.3194L-49.6899 15.3249L-49.6915 15.3312L-49.6923 15.3368L-49.6954 15.3478L-49.6962 15.3541L-49.6978 15.3604L-49.6994 15.3651L-49.7002 15.3714L-49.7017 15.377L-49.7025 15.3841L-49.7033 15.3888L-49.7049 15.3959L-49.7057 15.4006L-49.7073 15.4077L-49.708 15.4124L-49.7088 15.4195L-49.7096 15.4243L-49.7104 15.4321L-49.7112 15.4361L-49.712 15.444L-49.7128 15.4479L-49.7136 15.4566L-49.7144 15.4597L-49.7151 15.4692V15.4716L-49.7159 15.481L-49.7167 15.4834L-49.7175 15.4936V15.496L-49.7183 15.5062V15.5078L-49.7191 15.5181V15.5196L-49.7199 15.5315V15.6063L-49.7191 15.6103V15.6229L-49.7183 15.6268V15.6316L-49.7175 15.6434L-49.7159 15.6631L-49.7151 15.6678V15.6718L-49.7144 15.6757C-49.7025 15.7861 -49.6726 15.8909 -49.6269 15.9871L-49.6253 15.991L-49.6245 15.9926L-49.6205 16.0013L-49.619 16.0036L-49.6166 16.0084L-49.593 16.0533L-49.5914 16.0557C-49.5488 16.1298 -49.496 16.1983 -49.4353 16.259C-49.2595 16.4348 -49.0151 16.5436 -48.7448 16.5436C-48.476 16.5436 -48.2316 16.4348 -48.055 16.2583C-47.8784 16.0833 -47.7696 15.8389 -47.7696 15.5685C-47.7696 15.2997 -47.8792 15.0553 -48.055 14.8788C-48.2316 14.703 -48.476 14.5934 -48.7448 14.5934C-48.8583 14.5926 -48.9671 14.6123 -49.0687 14.6478ZM-54.593 18.6239L-54.6017 18.6152L-54.6191 18.5995L-54.638 18.5837L-54.6467 18.5758L-54.6939 18.5403L-54.7042 18.5333L-54.7137 18.5262L-54.7231 18.5198L-54.7334 18.5135L-54.7428 18.5072L-54.7633 18.4946L-54.7736 18.4891L-54.7838 18.4828L-54.8146 18.4662L-54.8256 18.4607L-54.8358 18.4552L-54.8461 18.4505L-54.8682 18.441L-54.8784 18.4363L-54.9005 18.4268L-54.9115 18.4229L-54.9218 18.4189L-54.9336 18.4142L-54.9438 18.4103L-54.9549 18.4071L-54.9667 18.4032L-54.9777 18.4L-54.9888 18.3961L-54.9998 18.3929L-55.0116 18.3898C-55.2528 18.3251 -55.5185 18.3527 -55.7518 18.4867L-55.755 18.4891L-55.7589 18.4907L-55.7621 18.493L-55.7692 18.4978L-55.7731 18.4994L-55.7794 18.5041L-55.7834 18.5057L-55.7865 18.508L-55.7905 18.5104L-55.7936 18.5128L-55.7968 18.5151L-55.8007 18.5167L-55.8039 18.5191L-55.807 18.5214L-55.8102 18.5238L-55.8141 18.5262L-55.8173 18.5285L-55.8236 18.5333L-55.8251 18.534L-55.8275 18.5348L-55.8307 18.538L-55.8338 18.5396L-55.8354 18.5411L-55.837 18.5419L-55.8401 18.5451L-55.8433 18.5467L-55.8456 18.5482L-55.8472 18.549L-55.8504 18.5514L-55.8535 18.5545L-55.8567 18.5561L-55.8598 18.5593L-55.863 18.5616L-55.8653 18.5632L-55.8724 18.5687L-55.8748 18.5711L-55.8819 18.5758L-55.8843 18.5782L-55.8969 18.5884L-55.9024 18.5939L-55.9087 18.5995L-55.9118 18.6018L-55.9142 18.6042L-55.9174 18.6066L-55.9229 18.6121L-55.926 18.6144L-55.9316 18.62L-55.9347 18.6223L-55.9379 18.6255L-55.9387 18.6271L-55.9402 18.6278L-55.9662 18.6539L-55.9686 18.657L-55.9804 18.6688L-55.9938 18.6846L-55.997 18.6878L-56.0206 18.7146L-56.0254 18.7217L-56.0285 18.7248L-56.0332 18.7311L-56.0348 18.7335L-56.0403 18.7406L-56.0427 18.7429L-56.0474 18.75L-56.0498 18.7524L-56.0522 18.7563C-56.1247 18.8549 -56.1775 18.9644 -56.2067 19.0795C-56.2705 19.32 -56.2445 19.5848 -56.1113 19.8166L-56.1097 19.8197C-55.9749 20.0531 -55.7581 20.2107 -55.5169 20.2746C-55.2804 20.3384 -55.0211 20.314 -54.7925 20.1879L-54.7767 20.1784C-54.5434 20.0436 -54.3857 19.826 -54.3211 19.5848C-54.258 19.3491 -54.2825 19.0898 -54.4086 18.8604L-54.418 18.8446C-54.4669 18.7611 -54.526 18.687 -54.593 18.6239ZM-60.8363 15.8074L-60.8331 15.7963L-60.8307 15.7845L-60.8276 15.7727L-60.8252 15.7609L-60.8229 15.749L-60.8213 15.7372L-60.8189 15.7254L-60.8126 15.6781L-60.8118 15.667L-60.8103 15.6552L-60.8071 15.6071V15.5362L-60.8079 15.5252L-60.8087 15.5133L-60.8095 15.5015L-60.8103 15.4897L-60.811 15.4779L-60.8126 15.466L-60.8134 15.4542L-60.815 15.4424L-60.8166 15.4313L-60.8189 15.4195L-60.8205 15.4077L-60.8221 15.3967L-60.8244 15.3848L-60.8268 15.373L-60.8292 15.362L-60.8315 15.3502L-60.8347 15.3391L-60.8378 15.3273L-60.8402 15.3163L-60.8434 15.3052L-60.8465 15.2942L-60.8497 15.2832L-60.8536 15.2721L-60.8568 15.2611V15.2595L-60.8607 15.2508V15.2493L-60.8639 15.2398L-60.8646 15.2382L-60.8686 15.2264L-60.8717 15.2185L-60.8733 15.2161L-60.8765 15.2075L-60.8773 15.2051L-60.8804 15.1972L-60.882 15.1941L-60.8851 15.1862L-60.8859 15.183L-60.8891 15.1759L-60.8914 15.1728L-60.8946 15.1657L-60.8962 15.1618L-60.8993 15.1554L-60.9009 15.1515L-60.9041 15.1444L-60.9056 15.1405L-60.9088 15.1342L-60.9112 15.1302L-60.9167 15.1192L-60.9198 15.1137L-60.9222 15.1089L-60.9246 15.1034L-60.9277 15.0987L-60.9301 15.094L-60.9332 15.0884L-60.9364 15.0837L-60.9387 15.0782L-60.9419 15.0735L-60.9451 15.0679L-60.9474 15.064L-60.9514 15.0577L-60.9537 15.0538L-60.9577 15.0482L-60.96 15.0443L-60.964 15.038L-60.9663 15.0348L-60.9703 15.0285L-60.9726 15.0246L-60.9766 15.0183L-60.9837 15.0088L-60.9853 15.0057L-60.9908 14.9986L-60.9923 14.9962L-60.9979 14.9891L-60.9994 14.9868L-61.005 14.9797L-61.0057 14.9781L-61.0121 14.9702L-61.0128 14.9686L-61.0191 14.9607L-61.0199 14.9592L-61.027 14.9513L-61.0341 14.9426L-61.0349 14.941L-61.042 14.9332L-61.0499 14.9245L-61.0578 14.915L-61.0657 14.9064L-61.0743 14.8977L-61.0822 14.889L-61.0996 14.8717L-61.1074 14.8646L-61.1082 14.863L-61.1153 14.8559L-61.1169 14.8551L-61.1248 14.848L-61.1256 14.8464L-61.1335 14.8401L-61.135 14.8386L-61.1421 14.8323L-61.1437 14.8307L-61.1508 14.8244L-61.1532 14.8228L-61.1603 14.8173L-61.1626 14.8149L-61.1697 14.8094L-61.1721 14.807L-61.1792 14.8015L-61.1815 14.7999L-61.1886 14.7944L-61.2075 14.7802L-61.2115 14.7771L-61.217 14.7731L-61.2217 14.77L-61.2273 14.766L-61.232 14.7629L-61.2375 14.7597L-61.2422 14.7566L-61.2478 14.7526L-61.2525 14.7495L-61.258 14.7463L-61.2627 14.7424L-61.2738 14.7361L-61.2785 14.7329L-61.295 14.7235L-61.299 14.7211C-61.3723 14.6793 -61.4503 14.647 -61.53 14.6257C-61.5623 14.6171 -61.5946 14.6107 -61.6261 14.6052L-61.6293 14.6044L-61.634 14.6036L-61.6458 14.6021L-61.6498 14.6013H-61.6514L-61.6537 14.6005H-61.6577L-61.6616 14.5997H-61.6655L-61.6734 14.5981H-61.6774L-61.6813 14.5973C-61.8011 14.5847 -61.9209 14.5958 -62.036 14.6265C-62.2709 14.6888 -62.483 14.8401 -62.6186 15.064L-62.6383 15.0979C-62.7636 15.3265 -62.7881 15.5859 -62.725 15.8215C-62.6611 16.0628 -62.5035 16.2795 -62.2702 16.4143C-62.0384 16.5491 -61.772 16.5759 -61.53 16.5113C-61.2887 16.4467 -61.072 16.2898 -60.9372 16.0565C-60.8914 15.9768 -60.8576 15.8925 -60.8363 15.8074ZM-61.783 9.01628C-61.5134 9.01628 -61.269 8.9075 -61.0932 8.73092C-61.0381 8.67653 -60.9892 8.61505 -60.949 8.54804L-60.9466 8.54568L-60.9364 8.52755L-60.9356 8.52597L-60.9309 8.5173L-60.9143 8.48656L-60.9041 8.46527L-60.8938 8.44399L-60.8891 8.43374L-60.8844 8.4227L-60.8804 8.41246L-60.8796 8.41088L-60.8757 8.40142L-60.8749 8.39984L-60.8717 8.39038L-60.871 8.38881L-60.8678 8.38014L-60.867 8.37777L-60.8639 8.3691L-60.8631 8.36674L-60.8599 8.35806L-60.8591 8.35491L-60.856 8.34703L-60.8552 8.34388L-60.8528 8.33599L-60.8512 8.33205L-60.8489 8.32417L-60.8481 8.32023L-60.8457 8.31313L-60.8441 8.30919L-60.8426 8.3021L-60.841 8.29737L-60.8394 8.29106L-60.8386 8.28554L-60.8363 8.27924L-60.8355 8.27372L-60.8339 8.2682L-60.8323 8.26189L-60.8315 8.25638L-60.83 8.25007L-60.8284 8.24455L-60.8276 8.23825L-60.826 8.23352L-60.8252 8.22642L-60.8244 8.22169L-60.8221 8.20987L-60.8205 8.20277L-60.8197 8.19804L-60.8189 8.19016L-60.8181 8.18622L-60.8173 8.17834L-60.8166 8.17439L-60.8158 8.16572L-60.815 8.16257L-60.8142 8.1539L-60.8134 8.15075L-60.8126 8.14129V8.13892L-60.8118 8.12946L-60.811 8.12631L-60.8103 8.11685V8.11448L-60.8095 8.10424V8.10266L-60.8087 8.09162V8.07822L-60.8079 8.0664V8.01201L-60.8087 8.00807V7.99151L-60.8095 7.98757V7.97811L-60.8103 7.96708L-60.8118 7.94658L-60.8126 7.94264V7.9387L-60.8134 7.93476C-60.8378 7.70773 -60.9395 7.50514 -61.0932 7.35142C-61.269 7.17564 -61.5134 7.06607 -61.783 7.06607C-62.0455 7.06607 -62.2836 7.16933 -62.4578 7.33645L-62.4727 7.35142C-62.6485 7.528 -62.7581 7.77158 -62.7581 8.04117C-62.7581 8.31156 -62.6493 8.55592 -62.4735 8.73092C-62.2977 8.9075 -62.0534 9.01628 -61.783 9.01628ZM-55.9355 4.98657L-55.9174 5.00233L-55.9087 5.01101L-55.8992 5.01889L-55.8906 5.02598L-55.8811 5.03387L-55.8716 5.04096L-55.8622 5.04884L-55.8338 5.07013L-55.8236 5.07643L-55.8046 5.08983L-55.7944 5.09693L-55.7849 5.10324L-55.7747 5.10954L-55.7644 5.11506L-55.7439 5.12688L-55.7337 5.13319L-55.7132 5.14423L-55.7022 5.14896L-55.6919 5.15447L-55.6817 5.1592L-55.6706 5.16472L-55.6596 5.16945L-55.6494 5.17418L-55.6383 5.17891L-55.6273 5.18285L-55.6162 5.18758L-55.606 5.19152L-55.5942 5.19546L-55.5839 5.19941L-55.5729 5.20335L-55.5618 5.2065L-55.55 5.21044L-55.528 5.21675L-55.5161 5.2199C-55.2749 5.28454 -55.0085 5.25695 -54.7759 5.12294L-54.7728 5.12137L-54.7696 5.119L-54.7657 5.11664L-54.7617 5.11506L-54.7586 5.11269L-54.7546 5.11033L-54.7515 5.10875L-54.7483 5.10639L-54.7444 5.10402L-54.7412 5.10166L-54.7373 5.10008L-54.7341 5.09772L-54.731 5.09535L-54.7278 5.09299L-54.7239 5.09062L-54.7207 5.08826L-54.7176 5.08589L-54.7137 5.08432L-54.7105 5.08195L-54.7042 5.07722L-54.7026 5.07643L-54.7003 5.07486L-54.6939 5.07013L-54.6924 5.06934L-54.6908 5.06776L-54.6845 5.06303L-54.6821 5.06224L-54.6805 5.06067L-54.6742 5.05594L-54.6727 5.05436L-54.6711 5.05357L-54.6648 5.04884L-54.6624 5.04727L-54.6585 5.04411L-54.6553 5.04096L-54.653 5.03938L-54.6498 5.03623L-54.6403 5.02914L-54.6372 5.02598L-54.6277 5.01889L-54.6254 5.01574L-54.6222 5.01337L-54.6159 5.00864L-54.6135 5.00549L-54.6072 5.00076L-54.6049 4.9976L-54.5986 4.99287L-54.5978 4.9913L-54.5962 4.98972L-54.593 4.98736L-54.5907 4.9842L-54.5891 4.98342L-54.5804 4.97474L-54.5789 4.97396L-54.5765 4.9708L-54.5592 4.95346L-54.5568 4.95031L-54.5505 4.944L-54.5481 4.94085L-54.5229 4.91326L-54.5205 4.9101L-54.5079 4.89513L-54.5 4.88567L-54.4969 4.88252L-54.4945 4.87936L-54.4929 4.87621L-54.4803 4.86044L-54.4787 4.85729L-54.4756 4.85335L-54.4717 4.84783C-54.4015 4.75087 -54.3503 4.64288 -54.3211 4.53015C-54.2572 4.28972 -54.2833 4.02486 -54.4165 3.7931L-54.418 3.78995C-54.5528 3.55662 -54.7704 3.39975 -55.0108 3.33511C-55.2473 3.27205 -55.5067 3.29649 -55.7361 3.42182L-55.7518 3.43207C-55.9844 3.56608 -56.142 3.78365 -56.2067 4.02486C-56.2697 4.26056 -56.2453 4.52069 -56.1192 4.74929L-56.1097 4.76506C-56.0608 4.84862 -56.0017 4.92272 -55.9355 4.98657ZM-60.1883 7.52327C-60.1489 7.64467 -60.1229 7.77237 -60.1118 7.90322L-60.111 7.91032V7.91741L-60.1103 7.92451L-60.1087 7.945V7.95525L-60.1079 7.9584V7.97259L-60.1071 7.97653V8.00018L-60.1063 8.00649V8.06246L-60.1071 8.08374V8.10581L-60.1079 8.12552L-60.1087 8.1271L-60.1095 8.14602V8.14838L-60.111 8.1673V8.16966L-60.1126 8.1878V8.19095L-60.1142 8.20829L-60.115 8.21223L-60.1166 8.22957L-60.1174 8.23352L-60.1189 8.25007L-60.1197 8.25401L-60.1213 8.26978L-60.1229 8.27529L-60.1252 8.29579L-60.1276 8.31077L-60.1292 8.31629L-60.1315 8.33126L-60.1323 8.33757L-60.1347 8.35097L-60.1363 8.35806L-60.1386 8.37147L-60.1402 8.37856L-60.1434 8.39117L-60.1473 8.41088L-60.1489 8.41955L-60.152 8.43059L-60.1536 8.43926L-60.1568 8.45029L-60.1591 8.45975L-60.1623 8.47L-60.1646 8.47946L-60.167 8.48971L-60.1702 8.49917L-60.1725 8.50942L-60.1757 8.51888L-60.178 8.52833L-60.182 8.53858L-60.1844 8.54804L-60.1883 8.55829L-60.1907 8.56696L-60.2009 8.5977L-60.2041 8.6048L-60.2104 8.62372L-60.2151 8.63554L-60.2175 8.64264L-60.223 8.65525L-60.2253 8.66077L-60.2301 8.67417L-60.2324 8.67969L-60.238 8.69309L-60.2403 8.69782L-60.2466 8.71122L-60.2482 8.71595L-60.2545 8.73014L-60.2569 8.73487L-60.2632 8.74905L-60.2648 8.75221L-60.2719 8.76718L-60.2734 8.77034L-60.2813 8.78532L-60.2821 8.78847L-60.29 8.80345L-60.2916 8.80581L-60.3002 8.82315L-60.3089 8.83892L-60.3097 8.84128L-60.3192 8.85705V8.85863L-60.3286 8.87439L-60.3294 8.87597L-60.3389 8.89252L-60.3491 8.90986L-60.3601 8.92642L-60.3704 8.94297L-60.3814 8.95953L-60.3822 8.9611L-60.3925 8.97608L-60.3933 8.97766L-60.4035 8.99263L-60.4043 8.99421L-60.4145 9.00919L-60.4161 9.01077L-60.4264 9.02495L-60.4279 9.02732L-60.4382 9.04072L-60.4398 9.04308L-60.45 9.05649L-60.4618 9.07225L-60.465 9.0754L-60.4744 9.08723L-60.4768 9.09117L-60.4863 9.10299L-60.4902 9.10694L-60.4989 9.11797L-60.5028 9.12191L-60.5115 9.13295L-60.5154 9.13768L-60.5249 9.14793L-60.5288 9.15266L-60.5375 9.16212L-60.5422 9.16763L-60.5509 9.17709L-60.5564 9.18261L-60.5643 9.19128L-60.5698 9.19759L-60.5785 9.20547L-60.584 9.21178L-60.5974 9.22676C-60.6818 9.3111 -60.7748 9.38599 -60.8757 9.45063L-60.8796 9.45299L-60.9135 9.47428L-60.9648 9.50502L-60.9663 9.50581L-60.9837 9.51527L-60.9916 9.51921L-61.0018 9.52473L-61.005 9.5263L-61.0184 9.5334L-61.0199 9.53419L-61.0318 9.54049L-61.0381 9.54365L-61.0452 9.5468L-61.0562 9.55232L-61.0743 9.56099L-61.0854 9.56651L-61.0932 9.56966L-61.0996 9.57202L-61.1122 9.57754L-61.1271 9.58464L-61.1303 9.58621L-61.1413 9.59015L-61.1492 9.5941L-61.1547 9.59646L-61.1681 9.60119L-61.1831 9.6075L-61.1871 9.60907L-61.1973 9.61223L-61.2068 9.61617L-61.2115 9.61774L-61.2257 9.62326L-61.2407 9.62799L-61.2548 9.63272L-61.2651 9.63588L-61.269 9.63745L-61.284 9.64218L-61.2982 9.64691L-61.3045 9.64849L-61.3132 9.65085L-61.3242 9.65401L-61.3274 9.65558L-61.3423 9.65952H-61.3439L-61.3573 9.66347L-61.3636 9.66504L-61.3723 9.66741L-61.3841 9.66977L-61.3873 9.67056L-61.4023 9.6745L-61.4046 9.67529L-61.4172 9.67765L-61.4243 9.67923L-61.4322 9.68081V13.9297L-61.4157 13.9336L-61.3952 13.9383L-61.3755 13.9431L-61.3494 13.9494C-61.2115 13.9856 -61.0751 14.0424 -60.9443 14.1181C-60.7882 14.2079 -60.6518 14.3199 -60.5375 14.4468L-60.4965 14.4941L-60.4839 14.5091L-60.4713 14.5256L-60.4587 14.5414L-60.4461 14.5579L-60.4335 14.5737L-60.4216 14.591L-60.4098 14.6068L-60.398 14.6241L-60.3869 14.6407L-60.3759 14.658L-60.3649 14.6746L-60.3538 14.6919L-60.3333 14.7266L-60.3231 14.7448L-60.3136 14.7621L-60.3042 14.7802L-60.2947 14.7976L-60.2853 14.8157L-60.2766 14.8338L-60.2671 14.852L-60.2592 14.8701L-60.2506 14.889L-60.2427 14.9071L-60.2348 14.9261L-60.2269 14.9442L-60.2056 15.0009L-60.193 15.0388L-60.1859 15.0577L-60.1804 15.0774L-60.1694 15.1152L-60.1639 15.135L-60.1599 15.1491L-60.1591 15.1547L-60.156 15.1641L-60.1536 15.1736L-60.1528 15.1783L-60.1497 15.1925L-60.1465 15.2075L-60.1449 15.213L-60.1434 15.2217L-60.141 15.2327L-60.1402 15.2366L-60.1371 15.2508V15.2524L-60.1339 15.2658L-60.1331 15.2721L-60.1315 15.28L-60.13 15.2918L-60.1292 15.295L-60.1268 15.3092V15.3115L-60.1244 15.3241L-60.1237 15.3312L-60.1229 15.3391L-60.1205 15.3517V15.3541L-60.1189 15.3691L-60.1181 15.3714L-60.1166 15.3833L-60.1158 15.3911V15.3982L-60.1142 15.4109V15.4132L-60.1126 15.4282V15.4313L-60.1118 15.4432L-60.111 15.4511L-60.1103 15.4581L-60.1095 15.4716L-60.1087 15.4881V15.492L-60.1079 15.5031V15.5173L-60.1071 15.5315V15.6127L-60.1079 15.6229V15.6379L-60.1087 15.6529L-60.1095 15.6678L-60.1103 15.6734L-60.111 15.6828L-60.1118 15.6938V15.6978L-60.1126 15.7128L-60.1134 15.7143L-60.1142 15.7277L-60.115 15.734L-60.1158 15.7427L-60.1174 15.7545V15.7577L-60.1197 15.7727V15.775L-60.1213 15.7877L-60.1221 15.7947L-60.1237 15.8026L-60.1252 15.8152V15.8176L-60.1276 15.8326L-60.1284 15.8357L-60.13 15.8476L-60.1315 15.8554L-60.1331 15.8625L-60.1355 15.8759V15.8775L-60.1386 15.8925L-60.1394 15.8964L-60.1418 15.9075L-60.1434 15.9161L-60.1449 15.9225L-60.1481 15.9359V15.9374L-60.152 15.9524L-60.1528 15.9563L-60.1552 15.9674L-60.1576 15.9768L-60.1591 15.9824L-60.1623 15.9965L-60.171 16.0265L-60.1741 16.0368L-60.1749 16.0415L-60.1844 16.0714L-60.1891 16.0856L-56.5094 18.2101L-56.4495 18.147C-56.347 18.0461 -56.2311 17.9554 -56.1026 17.8813L-56.0837 17.8703L-56.079 17.8687L-56.0648 17.8601L-56.0608 17.8585L-56.0459 17.8506L-56.0419 17.8482L-56.0072 17.8309L-56.0049 17.8293L-55.9883 17.8214L-55.9859 17.8199L-55.9686 17.812L-55.967 17.8112L-55.9497 17.8033L-55.9481 17.8025L-55.93 17.7946L-55.9284 17.7938L-55.9103 17.7867L-55.8914 17.7781L-55.8716 17.7702L-55.833 17.756L-55.8133 17.7489L-55.7936 17.7426L-55.7739 17.7363L-55.7723 17.7355L-55.755 17.73L-55.7526 17.7292L-55.7353 17.7245L-55.7329 17.7237L-55.7156 17.7182L-55.7132 17.7174L-55.6959 17.7134L-55.6762 17.7079L-55.673 17.7071L-55.6564 17.7032L-55.6525 17.7016L-55.6328 17.6977L-55.617 17.6937L-55.6123 17.6929L-55.5973 17.6898L-55.5926 17.689L-55.5776 17.6858L-55.5721 17.6851L-55.5579 17.6827L-55.5516 17.6811L-55.5382 17.6787L-55.5319 17.678L-55.5185 17.6756L-55.5114 17.6748L-55.4988 17.6724L-55.4909 17.6717L-55.4783 17.6701L-55.4712 17.6693L-55.4586 17.6677L-55.4507 17.6669L-55.4389 17.6653L-55.4302 17.6646L-55.4192 17.6638L-55.4105 17.663L-55.3995 17.6614L-55.39 17.6606L-55.379 17.6598H-55.3695L-55.3593 17.659L-55.3498 17.6583H-55.3396L-55.3293 17.6575H-55.3191L-55.3088 17.6567H-55.2796L-55.2686 17.6559H-55.2599L-55.2481 17.6567H-55.2205L-55.2079 17.6575H-55.2L-55.1874 17.6583H-55.1803L-55.1677 17.659L-55.1606 17.6598L-55.1472 17.6606H-55.1409L-55.1267 17.6614L-55.1212 17.6622L-55.107 17.6638H-55.1015L-55.0865 17.6653L-55.0818 17.6661L-55.0668 17.6677L-55.0621 17.6685L-55.0471 17.6701L-55.0432 17.6709L-55.0274 17.6732H-55.0235L-55.0069 17.6764H-55.0037L-54.9872 17.6795H-54.984L-54.9675 17.6827H-54.9651L-54.9478 17.6866H-54.9454L-54.9281 17.6906H-54.9265L-54.9084 17.6945H-54.9068L-54.8887 17.6985L-54.8689 17.7032L-54.85 17.7079L-54.8303 17.7134L-54.8161 17.7174L-54.8106 17.719L-54.7917 17.7237L-54.7728 17.73L-54.7586 17.7339L-54.7531 17.7363L-54.7444 17.7387L-54.7341 17.7418L-54.7302 17.7434L-54.7168 17.7481L-54.7152 17.7489L-54.7026 17.7528L-54.6963 17.7552L-54.6884 17.7584L-54.6774 17.7623L-54.6742 17.7631L-54.6601 17.7686L-54.6585 17.7694L-54.6467 17.7741L-54.6396 17.7765L-54.6325 17.7796L-54.6214 17.7844L-54.6191 17.7852L-54.6049 17.7915L-54.6025 17.7923L-54.5915 17.797L-54.5844 17.8001L-54.5781 17.8033L-54.5655 17.8088H-54.5639L-54.5505 17.8159L-54.5473 17.8167L-54.5371 17.8222L-54.5292 17.8254L-54.5237 17.8285L-54.5111 17.8348L-54.4969 17.8419L-54.4929 17.8435L-54.4835 17.849L-54.4756 17.853L-54.4701 17.8561L-54.4575 17.8624L-54.4441 17.8703L-54.4401 17.8727L-54.4307 17.8774L-54.4228 17.8829L-54.418 17.8853L-54.4054 17.8932L-54.392 17.901L-54.3873 17.9034L-54.3794 17.9081L-54.37 17.9137L-54.3668 17.916L-54.3542 17.9247L-54.3416 17.9326L-54.3361 17.9357L-54.329 17.9412L-54.3195 17.9476L-54.3164 17.9499L-54.2864 17.9704L-54.2793 17.9759L-54.2699 17.983L-54.2675 17.9846L-54.2549 17.9941L-54.2533 17.9949L-54.243 18.0027L-54.2367 18.0075L-54.2312 18.0122L-54.221 18.0201L-54.2194 18.0217L-54.2076 18.0311L-54.2052 18.0327L-54.1958 18.0406L-54.1894 18.0461L-54.1839 18.05L-54.1737 18.0587L-54.1721 18.0603L-54.1611 18.0705L-54.1579 18.0729L-54.1492 18.0808L-54.1429 18.0863L-54.1382 18.0902L-54.1272 18.0997L-54.1264 18.1013L-54.1153 18.1115L-54.1122 18.1139L-54.1043 18.1218L-54.0972 18.1281L-54.0933 18.132L-54.083 18.143L-54.072 18.1541L-54.0539 18.1722L-54.0507 18.1762L-54.0397 18.1872L-54.0294 18.199L-54.0255 18.203L-54.0192 18.2101L-50.3395 16.0864C-50.3497 16.0549 -50.3592 16.0218 -50.3678 15.9895L-50.3686 15.9863C-50.3899 15.9043 -50.4049 15.82 -50.4136 15.734L-50.4143 15.727L-50.4151 15.7136L-50.4167 15.6994V15.6931L-50.4183 15.6789V15.6718L-50.4191 15.6655V15.6544L-50.4199 15.6513V15.6379L-50.4207 15.6332V15.6237L-50.4214 15.6166V15.5259L-50.4207 15.5054V15.5039L-50.4199 15.4842L-50.4191 15.4826L-50.4183 15.4637V15.4613L-50.4167 15.4432V15.44L-50.4151 15.4219V15.4187L-50.4136 15.4014L-50.4128 15.3975L-50.4112 15.3809L-50.4104 15.3762L-50.4088 15.3604L-50.408 15.3557L-50.4065 15.3399L-50.4057 15.3344L-50.4033 15.3194L-50.4025 15.3139L-50.4002 15.2989L-50.3994 15.2934L-50.3962 15.2784L-50.3954 15.2729L-50.3931 15.2587L-50.3915 15.2524L-50.3891 15.2382L-50.3875 15.2319L-50.3844 15.2185L-50.3828 15.2114L-50.3805 15.1988L-50.3789 15.1909L-50.3757 15.1791L-50.3741 15.1704L-50.371 15.1594L-50.3686 15.1507L-50.3663 15.1397L-50.3631 15.1302L-50.3607 15.12L-50.3576 15.1105L-50.3552 15.1003L-50.3489 15.0813L-50.3458 15.0711L-50.3434 15.0616L-50.3395 15.0514L-50.3371 15.0427L-50.3332 15.0317L-50.3308 15.0238L-50.3268 15.0128L-50.3237 15.0049L-50.3174 14.986L-50.3127 14.9741L-50.3103 14.967L-50.3056 14.9552L-50.3024 14.9489L-50.2953 14.93L-50.2898 14.9174L-50.2874 14.9119L-50.2819 14.8985L-50.2796 14.893L-50.2732 14.8795L-50.2717 14.8748L-50.2646 14.8614L-50.263 14.8575L-50.2559 14.8433L-50.2543 14.8393L-50.2472 14.8252L-50.2457 14.8212L-50.2378 14.807L-50.2291 14.7889L-50.2275 14.7857L-50.2189 14.7708L-50.2181 14.7684L-50.2094 14.7534L-50.2086 14.7511L-50.1991 14.7353L-50.1984 14.7337L-50.1889 14.7179L-50.1786 14.7006L-50.1684 14.6833L-50.1463 14.6502L-50.1361 14.6336L-50.1235 14.6163L-50.1132 14.6005L-50.1014 14.5847L-50.1006 14.5832L-50.0904 14.569L-50.0888 14.5674L-50.0778 14.5532L-50.0762 14.5508L-50.0659 14.5374L-50.0636 14.5351L-50.0517 14.5193L-50.0415 14.5067L-50.0383 14.5035L-50.0257 14.4878L-50.0163 14.4767L-50.0131 14.4728L-50.0029 14.4618L-49.9997 14.4578L-49.9902 14.4468L-49.9863 14.4428L-49.9721 14.4279L-49.9634 14.4184L-49.9587 14.4137L-49.95 14.4042L-49.9303 14.3837C-49.8184 14.271 -49.6899 14.1748 -49.5504 14.0984L-49.5449 14.096L-49.4968 14.0708L-49.4905 14.0676L-49.4834 14.0637L-49.4723 14.0589L-49.4558 14.0511L-49.4542 14.0503L-49.4424 14.0448L-49.4353 14.0416L-49.429 14.0384L-49.4172 14.0329L-49.4014 14.0266L-49.3982 14.025L-49.3872 14.0203L-49.3793 14.0172L-49.3604 14.0101L-49.3588 14.0093L-49.3446 14.0038L-49.3415 14.0022L-49.3305 13.9982L-49.3218 13.9951L-49.3163 13.9927L-49.3029 13.988L-49.2737 13.9785L-49.2635 13.9754L-49.2587 13.973L-49.2445 13.9691L-49.2296 13.9643L-49.224 13.9628L-49.2154 13.9604L-49.2043 13.9573L-49.2004 13.9557L-49.1854 13.9517L-49.1704 13.9478L-49.1641 13.9462L-49.1555 13.9439L-49.1444 13.9415L-49.1405 13.9407L-49.1239 13.9368L-49.1105 13.9336L-49.1034 13.932L-49.0955 13.9305V9.68081L-49.1121 9.67687L-49.1326 9.67135L-49.1523 9.66662L-49.1783 9.6611C-49.3163 9.62405 -49.4526 9.56808 -49.5835 9.49241C-49.7143 9.41673 -49.831 9.32529 -49.9335 9.22281L-49.9768 9.17788L-50.0178 9.13216L-50.0312 9.11639L-50.0565 9.08486L-50.0691 9.06831L-50.0817 9.05254L-50.0943 9.03599L-50.1298 8.98633L-50.1408 8.96899L-50.1518 8.95243L-50.1739 8.91775L-50.2047 8.86572L-50.2141 8.84759L-50.2236 8.83025L-50.2425 8.79399L-50.2772 8.72146L-50.2851 8.70255L-50.293 8.68442L-50.3008 8.6655L-50.3079 8.64658L-50.315 8.62845L-50.3221 8.60953L-50.3284 8.59061L-50.3347 8.5709L-50.3473 8.53306L-50.3529 8.51414L-50.3639 8.47473L-50.3678 8.46054L-50.3694 8.45581L-50.3718 8.44635L-50.3741 8.4361L-50.3749 8.43216L-50.3781 8.41719L-50.382 8.403L-50.3828 8.39748L-50.3844 8.38802L-50.3868 8.37777L-50.3875 8.37383L-50.3907 8.35885L-50.3931 8.34466L-50.3946 8.33757L-50.3962 8.32969L-50.3978 8.31786L-50.3986 8.3155L-50.4009 8.30052L-50.4017 8.29816L-50.4033 8.28554L-50.4041 8.27845L-50.4057 8.27057L-50.4073 8.25874V8.25638L-50.4088 8.2414L-50.4096 8.23903L-50.4112 8.22642L-50.412 8.21854L-50.4128 8.21144L-50.4136 8.19883V8.19647L-50.4151 8.18149V8.17912L-50.4159 8.1673L-50.4167 8.15863L-50.4175 8.15232L-50.4183 8.13892V8.13734L-50.4191 8.12237V8.11843L-50.4199 8.10739V8.09241L-50.4207 8.07822V8.06246L-50.4214 8.05773V8.0325L-50.4207 8.01753V7.99703L-50.4199 7.98757V7.97259L-50.4191 7.95762L-50.4183 7.94264L-50.4175 7.93633L-50.4167 7.92766L-50.4159 7.91584V7.9119L-50.4151 7.89771L-50.4143 7.89613L-50.4136 7.88194L-50.4128 7.87563L-50.412 7.86696L-50.4104 7.85514V7.85199L-50.408 7.83701V7.83543L-50.4065 7.82203L-50.4057 7.81494L-50.4041 7.80705L-50.4025 7.79444V7.79208L-50.4002 7.7771L-50.3994 7.77473L-50.3978 7.76212L-50.3962 7.75424L-50.3946 7.74714L-50.3923 7.73374V7.73217L-50.3891 7.71719L-50.3883 7.71404L-50.386 7.70221L-50.3844 7.69354L-50.3828 7.68723L-50.3805 7.67383L-50.3797 7.67226L-50.3757 7.65728L-50.3749 7.65334L-50.3726 7.64309L-50.3702 7.63363L-50.3686 7.62811L-50.3655 7.61314L-50.3568 7.58318L-50.3536 7.57372L-50.3529 7.5682L-50.3481 7.55401L-50.3434 7.53904L-50.3418 7.53352L-50.3387 7.52406L-52.1785 6.46224L-54.0184 5.39963L-54.0783 5.46269C-54.1808 5.56438 -54.2967 5.65425 -54.4259 5.72835L-54.4441 5.73938L-54.448 5.74175L-54.463 5.74963L-54.4669 5.75199L-54.5016 5.76934L-54.504 5.7717L-54.5205 5.77958L-54.5592 5.79771L-54.5607 5.79929L-54.5781 5.80639L-54.5804 5.80796L-54.5978 5.81584H-54.5994L-54.6175 5.82373L-54.6372 5.83161L-54.6561 5.83949L-54.6758 5.84659L-54.6947 5.85447L-54.7144 5.86078L-54.716 5.86157L-54.7341 5.86787L-54.7539 5.87418L-54.7554 5.87497L-54.7728 5.8797L-54.7751 5.88127L-54.7925 5.886L-54.7948 5.88679L-54.8122 5.89152L-54.8153 5.89231L-54.8319 5.89704L-54.8351 5.89783L-54.8516 5.90256L-54.8555 5.90334L-54.8713 5.90729L-54.8753 5.90807L-54.891 5.91202L-54.8957 5.9128L-54.9107 5.91596L-54.9155 5.91753L-54.9304 5.9199L-54.9352 5.92147L-54.9501 5.92384L-54.9557 5.92542L-54.9698 5.92778L-54.9762 5.92936L-54.9896 5.93093L-54.9959 5.93251L-55.0093 5.93409L-55.0164 5.93566L-55.0298 5.93724L-55.0369 5.93803L-55.0495 5.94039L-55.0566 5.94118L-55.0692 5.94276L-55.0771 5.94355L-55.0889 5.94434L-55.0976 5.94591L-55.1094 5.9467L-55.118 5.94749L-55.1291 5.94828L-55.1378 5.94906L-55.1488 5.94985L-55.1582 5.95064L-55.1685 5.95143H-55.1787L-55.1882 5.95222H-55.1985L-55.2087 5.95301H-55.2284L-55.2394 5.95379H-55.2875L-55.3001 5.95301H-55.3198L-55.3277 5.95222H-55.3403L-55.3474 5.95143L-55.3608 5.95064H-55.3671L-55.3805 5.94985L-55.3869 5.94906L-55.401 5.94828L-55.4066 5.94749L-55.4207 5.9467L-55.4263 5.94591L-55.4412 5.94434L-55.446 5.94355L-55.4609 5.94197H-55.4657L-55.4807 5.93961L-55.4854 5.93882L-55.5012 5.93645H-55.5043L-55.5209 5.93409L-55.524 5.9333L-55.5406 5.93093L-55.5437 5.93015L-55.5603 5.92699H-55.5626L-55.58 5.92384L-55.5823 5.92305L-55.5997 5.9199L-55.6013 5.91911L-55.6194 5.91517H-55.621L-55.6391 5.91123L-55.6588 5.9065L-55.6777 5.90177L-55.6974 5.89625L-55.7116 5.89231L-55.7171 5.89152L-55.7266 5.88916L-55.7408 5.88443L-55.755 5.88048L-55.7692 5.87575L-55.7747 5.87418L-55.7834 5.87102L-55.7936 5.86787L-55.7975 5.86629L-55.8109 5.86157H-55.8125L-55.8314 5.85447L-55.8393 5.85132L-55.8504 5.84816L-55.8535 5.84659L-55.8677 5.84107L-55.8693 5.84028L-55.8811 5.83555L-55.8882 5.83319L-55.8953 5.83003L-55.9063 5.8253L-55.9087 5.82452L-55.9229 5.819L-55.9252 5.81742L-55.9363 5.81269L-55.9434 5.80954L-55.9497 5.80717L-55.9623 5.80166L-55.9639 5.80087L-55.9773 5.79456L-55.9804 5.79298L-55.9907 5.78825L-55.9986 5.78431L-56.0041 5.78195L-56.0167 5.77564L-56.0309 5.76776L-56.0348 5.76618L-56.0443 5.76066L-56.0522 5.75672L-56.0577 5.75436L-56.0703 5.74726L-56.0837 5.73938L-56.0876 5.73702L-56.0971 5.73229L-56.105 5.72756L-56.1097 5.7244L-56.1231 5.71731L-56.1357 5.70943L-56.1405 5.70627L-56.1483 5.70154L-56.1578 5.69603L-56.1609 5.69366L-56.1736 5.68578L-56.1862 5.67711L-56.1917 5.67395L-56.1988 5.66922L-56.2082 5.66213L-56.2114 5.66055L-56.2421 5.63927L-56.2579 5.62744L-56.2603 5.62508L-56.2729 5.61641L-56.2745 5.61483L-56.2847 5.60695L-56.291 5.60301L-56.2965 5.59828L-56.3068 5.58961L-56.3084 5.58882L-56.3202 5.57936L-56.3225 5.57699L-56.332 5.56911L-56.3383 5.56438L-56.3438 5.55965L-56.3541 5.55098L-56.3557 5.5494L-56.3667 5.53995L-56.3698 5.53758L-56.3785 5.5297L-56.3848 5.52339L-56.3895 5.51945L-56.4006 5.50999L-56.4124 5.49895L-56.4234 5.48792L-56.4305 5.48161L-56.4345 5.47767L-56.4447 5.46663L-56.4558 5.4556L-56.4597 5.45245L-56.4668 5.44456L-56.4739 5.43747L-56.477 5.43353L-56.4881 5.42249L-56.4983 5.41145L-56.5023 5.40672L-56.5086 5.39963L-60.1883 7.52327ZM11.6513 31.7914H11.6639C11.7285 31.7898 11.7853 31.7638 11.8263 31.7228C11.8696 31.6795 11.8957 31.6204 11.8957 31.5534C11.8957 31.4871 11.8689 31.428 11.8263 31.3839C11.7845 31.3413 11.7246 31.3153 11.6576 31.3153C11.5922 31.3153 11.5323 31.3421 11.4889 31.3847C11.4463 31.428 11.4195 31.4871 11.4195 31.5534C11.4195 31.6204 11.4455 31.6795 11.4881 31.722C11.5299 31.7638 11.5874 31.7898 11.6513 31.7914ZM12.0084 38.7023C12.2401 38.7646 12.4475 38.8868 12.6122 39.0515C12.7762 39.2163 12.8991 39.4236 12.9614 39.6546H14.6239C14.2369 39.2029 13.8159 38.7472 13.3658 38.2971C12.9157 37.847 12.4609 37.4269 12.0084 37.0398V38.7023ZM12.9614 40.3561C12.8991 40.5879 12.7762 40.7952 12.6122 40.96C12.4475 41.1247 12.2401 41.2469 12.0084 41.3092V42.9717C12.4609 42.5846 12.9157 42.1637 13.3658 41.7144C13.8159 41.2642 14.2369 40.8086 14.6239 40.3561H12.9614ZM11.3068 41.3092C11.0751 41.2469 10.8677 41.1247 10.703 40.96C10.539 40.7952 10.416 40.5879 10.3538 40.3561H8.69207C9.07912 40.8086 9.49928 41.2642 9.94938 41.7144C10.3995 42.1645 10.8543 42.5846 11.3068 42.9717V41.3092ZM10.3538 39.6546C10.416 39.4236 10.539 39.2163 10.703 39.0515C10.8677 38.8868 11.0751 38.7646 11.3068 38.7023V37.0398C10.8543 37.4269 10.3995 37.847 9.94938 38.2971C9.49928 38.7472 9.07912 39.2029 8.69207 39.6546H10.3538ZM12.1164 39.5474C12.0013 39.4323 11.8413 39.3597 11.6663 39.3574H11.6489C11.4739 39.3597 11.3139 39.4323 11.1988 39.5474C11.0821 39.664 11.0096 39.8264 11.0096 40.0054C11.0096 40.1851 11.0821 40.3475 11.1988 40.4641C11.3139 40.5792 11.4739 40.6517 11.6489 40.6541H11.6663C11.8421 40.6517 12.0013 40.5792 12.1164 40.4641C12.233 40.3475 12.3056 40.1851 12.3056 40.0054C12.3056 39.8264 12.233 39.664 12.1164 39.5474ZM17.7353 46.083C17.0771 46.742 15.789 46.5954 14.2408 45.8253C13.5463 45.4792 12.7896 45.007 12.0084 44.4276V47.5871C12.1266 47.6352 12.233 47.7061 12.3213 47.7944C12.4916 47.9639 12.5972 48.1996 12.5972 48.4581C12.5972 48.7159 12.4916 48.9508 12.3221 49.1211L12.3198 49.1234C12.1503 49.2929 11.9154 49.3978 11.6576 49.3978C11.399 49.3978 11.1633 49.2921 10.9939 49.1227L10.9726 49.0998C10.8149 48.9311 10.718 48.7057 10.718 48.4581C10.718 48.1996 10.8236 47.9639 10.9939 47.7944C11.0821 47.7053 11.1886 47.6344 11.3068 47.5863V44.4276C10.5256 45.007 9.76887 45.4792 9.07439 45.8253C7.52619 46.5954 6.23893 46.742 5.57992 46.083C4.92091 45.4248 5.06832 44.1368 5.83847 42.5886C6.18375 41.8941 6.65593 41.1373 7.23611 40.3561H4.07666C4.02857 40.4744 3.95763 40.58 3.86934 40.6683L3.86776 40.6707C3.69749 40.8401 3.46337 40.945 3.20481 40.945C2.94626 40.945 2.71135 40.8401 2.54108 40.6699L2.5198 40.647C2.36214 40.4783 2.26596 40.2529 2.26596 40.0054C2.26596 39.7468 2.3708 39.5111 2.54108 39.3416C2.71135 39.1713 2.94626 39.0665 3.20481 39.0665C3.46337 39.0665 3.69828 39.1721 3.86855 39.3424C3.95763 39.4307 4.02936 39.5371 4.07666 39.6546H7.23611C6.65593 38.8742 6.18375 38.1174 5.83847 37.4229C5.06832 35.8747 4.92091 34.5867 5.57992 33.9277C6.23893 33.2695 7.52619 33.4161 9.07439 34.1862C9.76887 34.5323 10.5256 35.0037 11.3068 35.5839V32.4244C11.1894 32.3771 11.0837 32.3062 10.9946 32.2179L10.9931 32.2155C10.8228 32.0452 10.718 31.8111 10.718 31.5534C10.718 31.294 10.8236 31.0591 10.9939 30.8888C11.1633 30.7194 11.399 30.6137 11.6576 30.6137C11.9162 30.6137 12.1511 30.7194 12.3213 30.8896C12.4916 31.0591 12.5972 31.294 12.5972 31.5534C12.5972 31.8111 12.4916 32.046 12.3221 32.2163L12.3198 32.2179C12.2315 32.3062 12.1258 32.3771 12.0084 32.4244V35.5839C12.7896 35.0037 13.5463 34.5323 14.2408 34.1862C15.789 33.4161 17.0771 33.2695 17.7353 33.9277C18.3943 34.5867 18.2469 35.8747 17.4767 37.4229C17.1314 38.1174 16.6593 38.8742 16.0799 39.6546H19.2385C19.2866 39.5371 19.3576 39.4315 19.4459 39.3424L19.4474 39.3408C19.6185 39.1713 19.8526 39.0665 20.1104 39.0665C20.3681 39.0665 20.6031 39.1713 20.7733 39.3424C20.9444 39.5111 21.05 39.7468 21.05 40.0054C21.05 40.2639 20.9444 40.498 20.7741 40.6683L20.7725 40.6707C20.6023 40.8401 20.3681 40.945 20.1104 40.945C19.8526 40.945 19.6177 40.8401 19.4474 40.6699L19.4451 40.6683C19.3568 40.5792 19.2866 40.4736 19.2385 40.3561H16.0799C16.6593 41.1373 17.1314 41.8941 17.4767 42.5886C18.2469 44.1368 18.3943 45.4248 17.7353 46.083ZM11.0963 43.7103C10.5485 43.2555 9.99747 42.7533 9.45355 42.2094C8.91042 41.6663 8.40829 41.1145 7.95345 40.5674C7.32833 41.3872 6.82383 42.181 6.46595 42.9007C5.83453 44.1699 5.65401 45.1663 6.07574 45.588C6.49748 46.0089 7.49309 45.8292 8.76222 45.1978C9.48272 44.8391 10.2765 44.3354 11.0963 43.7103ZM12.2196 36.3012C12.7667 36.756 13.3185 37.2582 13.8616 37.8013C14.4056 38.3452 14.9077 38.897 15.3617 39.4441C15.9876 38.6243 16.4914 37.8305 16.85 37.11C17.4814 35.8408 17.6612 34.8452 17.2394 34.4235C16.8185 34.0026 15.8221 34.1823 14.553 34.8137C13.8325 35.1724 13.0395 35.6761 12.2196 36.3012ZM14.553 45.1978C15.8221 45.8292 16.8185 46.0089 17.2394 45.588C17.6612 45.1663 17.4814 44.1699 16.85 42.9007C16.4914 42.1802 15.9876 41.3872 15.3617 40.5674C14.9069 41.1145 14.4056 41.6663 13.8616 42.2094C13.3185 42.7533 12.7667 43.2555 12.2196 43.7095C13.0395 44.3354 13.8325 44.8391 14.553 45.1978ZM11.0963 36.3012C10.2765 35.6761 9.48272 35.1724 8.76222 34.8137C7.49309 34.1823 6.49748 34.0026 6.07574 34.4235C5.65401 34.8452 5.83453 35.8408 6.46595 37.11C6.82383 37.8305 7.32833 38.6243 7.95345 39.4441C8.40829 38.897 8.91042 38.3452 9.45355 37.8013C9.99747 37.2582 10.5485 36.756 11.0963 36.3012ZM20.2791 40.1748C20.3216 40.1323 20.3484 40.0724 20.3484 40.0054C20.3484 39.9399 20.3216 39.88 20.2783 39.8374C20.2365 39.7941 20.1766 39.7673 20.1104 39.7673C20.0434 39.7673 19.9835 39.7941 19.9417 39.8359C19.8999 39.8777 19.8739 39.9352 19.8723 39.9998V40.0117C19.8739 40.0763 19.8999 40.1338 19.9401 40.174C19.9835 40.2174 20.0434 40.2442 20.1104 40.2442C20.1766 40.2442 20.2365 40.2174 20.2791 40.1748ZM3.37429 40.1748C3.41607 40.1338 3.4413 40.0763 3.44366 40.0117V39.9998C3.4413 39.936 3.41528 39.8784 3.3735 39.8374C3.33173 39.7941 3.27182 39.7673 3.20481 39.7673C3.13939 39.7673 3.07948 39.7941 3.03691 39.8374C2.99355 39.88 2.96754 39.9399 2.96754 40.0054C2.96754 40.0668 2.98961 40.122 3.02509 40.163L3.03691 40.174C3.07948 40.2174 3.13939 40.2442 3.20481 40.2442C3.27182 40.2442 3.33173 40.2174 3.37429 40.1748ZM11.8263 48.2894C11.7853 48.2477 11.7285 48.2216 11.6639 48.2201H11.6513C11.5882 48.2216 11.5307 48.2485 11.4889 48.2894C11.4463 48.3328 11.4195 48.3927 11.4195 48.4581C11.4195 48.5196 11.4416 48.5748 11.4779 48.6158L11.4889 48.6268C11.5323 48.6694 11.5922 48.6962 11.6576 48.6962C11.7246 48.6962 11.7845 48.6702 11.8263 48.6276C11.8696 48.5851 11.8957 48.5251 11.8957 48.4581C11.8957 48.3927 11.8689 48.3328 11.8263 48.2894ZM-21.6049 8.0664L-18.101 9.84398L-18.0931 9.84792L-18.0907 9.84871L-18.086 9.85187L-18.0828 9.85344L-18.0789 9.85659L-18.071 9.86054L-18.0678 9.8629L-18.0639 9.86527L-18.0576 9.87L-18.0537 9.87236L-18.0505 9.87473L-18.0466 9.87788L-18.0434 9.88024L-18.0395 9.88261L-18.0371 9.88497L-18.0324 9.88813L-18.0261 9.89443L-18.0237 9.89601L-18.0198 9.89995L-18.0174 9.90153L-18.0071 9.91177L-18.0056 9.91414L-18.0016 9.91808L-17.9993 9.91966L-17.9953 9.92439L-17.9938 9.92675L-17.9898 9.93069L-17.9882 9.93306L-17.9843 9.937L-17.9827 9.94015L-17.9796 9.94409L-17.9772 9.94646L-17.974 9.9504L-17.9717 9.95355L-17.9693 9.9575L-17.9669 9.96065L-17.9622 9.96853L-17.9599 9.97168L-17.9575 9.97563L-17.9559 9.97878L-17.9528 9.98351L-17.9488 9.99139L-17.9472 9.99376L-17.9441 9.99927L-17.9425 10.004L-17.9409 10.0064L-17.9401 10.0087L-17.9378 10.0143L-17.9362 10.0166L-17.9346 10.0213L-17.9331 10.0237L-17.9323 10.0261L-17.9307 10.0308L-17.9299 10.0324L-17.9283 10.0355L-17.9275 10.0379V10.0403L-17.9244 10.0481L-17.922 10.0552L-17.9212 10.0576L-17.9197 10.0623V10.0639L-17.9189 10.0679L-17.9181 10.0702L-17.9173 10.0718L-17.9157 10.0773L-17.9149 10.082L-17.9141 10.0852V10.0884L-17.9133 10.0899L-17.9126 10.0923L-17.9094 10.112V10.1136C-17.9078 10.1278 -17.907 10.1427 -17.9062 10.1569V14.6226C-17.9062 14.7684 -17.9953 14.8937 -18.1222 14.9466L-21.5994 16.7099L-21.6049 16.7131L-21.6128 16.717H-21.6143L-21.6214 16.7202L-21.6293 16.7241L-21.6451 16.7304L-21.653 16.7328L-21.6609 16.7352L-21.6624 16.736L-21.6695 16.7375L-21.6711 16.7383L-21.6774 16.7399L-21.679 16.7407L-21.694 16.7438H-21.6963L-21.7018 16.7446L-21.705 16.7454L-21.7105 16.7462L-21.7129 16.747L-21.7184 16.7478H-21.7215L-21.7271 16.7486H-21.7302L-21.735 16.7494H-21.7389L-21.7436 16.7501H-21.7807L-21.7862 16.7494H-21.7893L-21.7949 16.7486H-21.798L-21.8035 16.7478H-21.8059L-21.8114 16.747L-21.8146 16.7462L-21.8201 16.7454L-21.8232 16.7446L-21.8288 16.7438H-21.8311L-21.8453 16.7407L-21.8477 16.7399L-21.854 16.7383L-21.8556 16.7375L-21.8619 16.736L-21.8634 16.7352L-21.8705 16.7336L-21.8792 16.7304L-21.895 16.7241L-21.9029 16.721L-21.9107 16.717H-21.9123L-21.9202 16.7131L-21.9257 16.7099L-25.4021 14.9466C-25.5298 14.8937 -25.6188 14.7684 -25.6188 14.6226V10.1569C-25.6188 10.1412 -25.6173 10.1254 -25.6149 10.1096V10.1073L-25.6125 10.097V10.0947L-25.6117 10.0923V10.0899L-25.6102 10.0852V10.082L-25.6078 10.075V10.0726L-25.6062 10.0679V10.0655L-25.6039 10.06V10.0576L-25.6031 10.0552L-25.6015 10.0505L-25.6007 10.0489L-25.5999 10.045L-25.5991 10.0426L-25.5983 10.0403L-25.5952 10.0332L-25.5944 10.0308L-25.5928 10.0261L-25.5912 10.0237L-25.5897 10.019L-25.5881 10.0166L-25.5873 10.0143L-25.5865 10.0111L-25.5849 10.0087L-25.5841 10.0064L-25.5826 10.004L-25.5818 10.0016L-25.5802 9.99927L-25.5739 9.98666L-25.5715 9.98351L-25.5676 9.97563L-25.566 9.97405L-25.5644 9.9709L-25.5629 9.96853L-25.5589 9.96222L-25.5581 9.96065L-25.5566 9.95907L-25.555 9.95671L-25.5503 9.9504L-25.5487 9.94804L-25.5479 9.94646L-25.5439 9.94252L-25.5424 9.94015L-25.54 9.937L-25.5376 9.93385L-25.5329 9.92912L-25.5313 9.92675L-25.5258 9.92123V9.91966L-25.5242 9.91808L-25.5211 9.91572L-25.5195 9.91414L-25.5164 9.91099L-25.5045 9.89916L-25.5014 9.8968L-25.4967 9.89207L-25.4943 9.89049L-25.4911 9.88734L-25.4888 9.88576L-25.4856 9.8834L-25.4832 9.88103L-25.4809 9.88024L-25.4801 9.87867L-25.4754 9.87551L-25.4722 9.87315L-25.4691 9.87078L-25.4675 9.87L-25.4635 9.86763L-25.4612 9.86527L-25.458 9.86369L-25.4557 9.86132L-25.4533 9.86054L-25.4462 9.85659L-25.4438 9.85502L-25.4407 9.85265L-25.4375 9.85108L-25.4352 9.8495L-25.432 9.84792L-25.4257 9.84477L-25.4241 9.84398L-21.9202 8.0664C-21.8169 8.01437 -21.7003 8.01831 -21.6049 8.0664ZM-25.045 5.68814C-25.045 5.83319 -24.9858 5.96483 -24.8912 6.06021C-24.7959 6.15481 -24.6642 6.21393 -24.5192 6.21393C-24.3733 6.21393 -24.2409 6.15481 -24.1463 6.06021C-24.0517 5.96483 -23.9926 5.83319 -23.9926 5.68814C-23.9926 5.64085 -23.9973 5.59985 -24.006 5.56438C-24.0147 5.52733 -24.0296 5.48871 -24.0494 5.45008L-24.0564 5.43589C-24.0998 5.3547 -24.1644 5.28691 -24.2433 5.23882C-24.3221 5.18995 -24.4167 5.16157 -24.5192 5.16157C-24.6209 5.16157 -24.7155 5.18995 -24.7943 5.23882C-24.8771 5.28927 -24.9449 5.36258 -24.9882 5.4485C-25.0079 5.48871 -25.0229 5.52733 -25.0316 5.56438C-25.0402 5.59985 -25.045 5.64085 -25.045 5.68814ZM-25.7134 5.96956C-25.7347 5.87891 -25.7465 5.78431 -25.7465 5.68814C-25.7465 5.59355 -25.7339 5.49817 -25.7111 5.40278C-25.6882 5.30504 -25.6543 5.21438 -25.6125 5.1324C-25.5093 4.9306 -25.3516 4.75954 -25.1593 4.6413C-24.9716 4.527 -24.7525 4.46078 -24.5192 4.46078C-24.2858 4.46078 -24.0659 4.527 -23.8783 4.6413C-23.6931 4.7556 -23.5393 4.91878 -23.4361 5.11191L-23.425 5.1324C-23.3833 5.21438 -23.3494 5.30504 -23.3265 5.40278C-23.3036 5.49817 -23.2918 5.59355 -23.2918 5.68814C-23.2918 6.02632 -23.429 6.33375 -23.6513 6.55526C-23.8744 6.77755 -24.181 6.9155 -24.5192 6.9155C-24.8463 6.9155 -25.1443 6.78622 -25.3642 6.57654L-28.3723 8.3021L-28.3849 12.9427C-28.3849 13.1359 -28.5418 13.2919 -28.7341 13.2919C-28.9273 13.2919 -29.0833 13.1359 -29.0833 12.9427L-29.0699 8.12473C-29.0802 7.99388 -29.0156 7.86381 -28.8949 7.79444L-25.7134 5.96956ZM-15.1063 13.3534C-15.1063 13.4993 -15.0471 13.6309 -14.9518 13.7255L-14.9391 13.7389C-14.8453 13.8256 -14.7192 13.8792 -14.5797 13.8792C-14.4346 13.8792 -14.303 13.8201 -14.2076 13.7255C-14.113 13.6309 -14.0539 13.4993 -14.0539 13.3534C-14.0539 13.3069 -14.0586 13.2651 -14.0673 13.2297C-14.076 13.1934 -14.091 13.154 -14.1107 13.1154L-14.117 13.1012C-14.1611 13.0208 -14.2257 12.9522 -14.3046 12.9041C-14.3834 12.856 -14.478 12.8276 -14.5797 12.8276C-14.6822 12.8276 -14.7768 12.856 -14.8556 12.9041C-14.9384 12.9546 -15.0061 13.0279 -15.0495 13.1146C-15.0692 13.154 -15.0842 13.1934 -15.0929 13.2297C-15.1015 13.2651 -15.1063 13.3069 -15.1063 13.3534ZM-15.4476 14.2213C-15.6699 13.999 -15.8078 13.6924 -15.8078 13.3534C-15.8078 13.2596 -15.7952 13.1642 -15.7724 13.0681C-15.7495 12.9711 -15.7156 12.8797 -15.6738 12.7977C-15.5706 12.5959 -15.4129 12.4256 -15.2206 12.3074C-15.1291 12.2514 -15.0306 12.2073 -14.9257 12.1765L-14.9171 8.71043L-18.931 6.37789C-19.0981 6.28172 -19.1549 6.06731 -19.0579 5.90019C-18.9618 5.73308 -18.7474 5.67632 -18.5802 5.77249L-14.3913 8.20671C-14.2738 8.27451 -14.2108 8.40142 -14.2179 8.52833L-14.2273 12.1781C-14.1256 12.2088 -14.0295 12.253 -13.9396 12.3074C-13.7544 12.4209 -13.6006 12.5841 -13.4974 12.7772L-13.4863 12.7977C-13.4446 12.8797 -13.4107 12.9711 -13.3878 13.0681C-13.3649 13.1642 -13.3523 13.2596 -13.3523 13.3534C-13.3523 13.6924 -13.4903 13.999 -13.7126 14.2213C-13.9341 14.4436 -14.2415 14.5808 -14.5797 14.5808C-14.9076 14.5808 -15.2056 14.4515 -15.4263 14.241L-15.4476 14.2213ZM-26.7138 18.1281C-26.7138 18.2731 -26.6554 18.4048 -26.56 18.5001C-26.4655 18.5947 -26.3338 18.6539 -26.188 18.6539C-26.0421 18.6539 -25.9105 18.5947 -25.8159 18.5009C-25.7213 18.4048 -25.6622 18.2731 -25.6622 18.1281C-25.6622 18.0816 -25.6669 18.0398 -25.6756 18.0043C-25.6843 17.9673 -25.6992 17.9286 -25.7189 17.89L-25.7253 17.8758C-25.7694 17.7946 -25.834 17.7268 -25.9129 17.6787C-25.9917 17.6307 -26.0863 17.6023 -26.188 17.6023C-26.2905 17.6023 -26.385 17.6307 -26.4639 17.6787C-26.5466 17.7292 -26.6144 17.8025 -26.6578 17.8884C-26.6775 17.9286 -26.6925 17.9673 -26.7011 18.0043C-26.7098 18.0398 -26.7138 18.0816 -26.7138 18.1281ZM-27.0559 18.996C-27.2782 18.7737 -27.4153 18.4662 -27.4153 18.1281C-27.4153 18.0343 -27.4035 17.9381 -27.3806 17.8427C-27.3578 17.745 -27.3239 17.6543 -27.2821 17.5723C-27.1788 17.3705 -27.0204 17.1995 -26.8281 17.082C-26.6412 16.9669 -26.4213 16.9007 -26.188 16.9007C-25.9546 16.9007 -25.7355 16.9669 -25.5479 17.082C-25.3626 17.1955 -25.2089 17.3587 -25.1057 17.5518L-25.0938 17.5723C-25.0521 17.6543 -25.0189 17.745 -24.9961 17.8427C-24.9732 17.9381 -24.9606 18.0343 -24.9606 18.1281C-24.9606 18.2274 -24.9724 18.3244 -24.9953 18.4166L-21.999 20.1571L-17.9717 17.8467C-17.8038 17.7513 -17.5894 17.8096 -17.4932 17.9775C-17.397 18.1454 -17.4554 18.359 -17.6233 18.4552L-21.8256 20.8658C-21.9446 20.9336 -22.0865 20.9249 -22.1929 20.854L-25.3469 19.0212C-25.5684 19.2277 -25.864 19.3554 -26.188 19.3554C-26.5269 19.3554 -26.8344 19.2175 -27.0559 18.996ZM-18.607 10.7269L-20.5565 11.7162C-20.5423 11.7895 -20.5352 11.8628 -20.5352 11.9353C-20.5352 12.2743 -20.6723 12.5817 -20.8946 12.8032C-21.0365 12.9451 -21.2139 13.0531 -21.4118 13.1122V15.831L-18.607 14.4082V10.7269ZM-21.299 11.6838C-21.3432 11.6034 -21.4078 11.5349 -21.4866 11.4868C-21.5655 11.4379 -21.6609 11.4095 -21.7625 11.4095C-21.8642 11.4095 -21.9588 11.4379 -22.0384 11.4868C-22.1165 11.5349 -22.1819 11.6034 -22.2253 11.6838L-22.2324 11.698C-22.2513 11.7367 -22.2663 11.7753 -22.2749 11.8123C-22.2836 11.8478 -22.2883 11.8888 -22.2883 11.9353C-22.2883 12.0811 -22.2292 12.2128 -22.1346 12.3082C-22.04 12.4028 -21.9076 12.4619 -21.7625 12.4619C-21.6167 12.4619 -21.4851 12.4028 -21.3905 12.3082C-21.2959 12.2128 -21.2368 12.0811 -21.2368 11.9353C-21.2368 11.8888 -21.2407 11.8478 -21.2494 11.8123C-21.258 11.7753 -21.273 11.7367 -21.2927 11.698L-21.299 11.6838ZM-20.8726 11.0918L-19.0296 10.1569L-21.7625 8.77113L-24.4947 10.1569L-22.6517 11.0918C-22.5784 11.0138 -22.4941 10.946 -22.4026 10.8892C-22.215 10.7749 -21.9959 10.7079 -21.7625 10.7079C-21.5292 10.7079 -21.3093 10.7749 -21.1225 10.8892C-21.031 10.946 -20.9467 11.0138 -20.8726 11.0918ZM-22.9686 11.7162L-24.9173 10.7269V14.4082L-22.1133 15.831V13.1122C-22.3112 13.0531 -22.4878 12.9451 -22.6304 12.8032C-22.852 12.5817 -22.9899 12.2743 -22.9899 11.9353C-22.9899 11.8628 -22.9828 11.7895 -22.9686 11.7162ZM12.129 6.39996C13.5424 7.24343 14.9984 8.05536 16.4275 8.87754L17.0881 8.49602C17.0495 8.31707 17.055 8.1334 17.1007 7.95998C17.1764 7.67856 17.3601 7.42552 17.6328 7.26787L17.658 7.25447C17.9252 7.10863 18.2256 7.08025 18.4983 7.15356C18.7805 7.22845 19.0336 7.41212 19.1912 7.68487C19.3489 7.9584 19.3812 8.26899 19.3055 8.55119C19.2307 8.83182 19.0462 9.08565 18.7727 9.24331C18.4999 9.40097 18.1893 9.43329 17.9079 9.3584C17.7353 9.31189 17.5729 9.22518 17.4365 9.10142L16.7767 9.48216L16.7775 14.4484L17.4381 14.8291C17.5737 14.7061 17.7361 14.6186 17.9079 14.5729C18.1799 14.5004 18.4794 14.528 18.7459 14.6714C18.7679 14.6817 18.7892 14.6943 18.8089 14.7093C19.0627 14.8677 19.2338 15.1113 19.3055 15.3801C19.3812 15.6607 19.3489 15.9713 19.1912 16.2456C19.0336 16.5192 18.7805 16.7021 18.4983 16.7777C18.2177 16.8526 17.9071 16.8203 17.6336 16.6634C17.3601 16.5058 17.1764 16.252 17.1007 15.9705C17.055 15.7979 17.0495 15.6142 17.0881 15.4353L16.4275 15.0538L12.1274 17.5353V18.2983C12.3008 18.3543 12.4569 18.4513 12.5838 18.5774C12.7919 18.7855 12.9196 19.0716 12.9196 19.3854C12.9196 19.6999 12.7919 19.9861 12.5854 20.1926L12.5633 20.2123C12.3584 20.407 12.0817 20.5268 11.7782 20.5268C11.4637 20.5268 11.1783 20.3991 10.9718 20.1926C10.7653 19.9853 10.6376 19.6999 10.6376 19.3854C10.6376 19.0701 10.7653 18.7847 10.9702 18.579C11.0979 18.4521 11.2548 18.3543 11.4282 18.2983L11.429 17.5321C10.0148 16.6879 8.55727 15.8759 7.12811 15.0538L6.46753 15.4345C6.50694 15.6142 6.50063 15.7979 6.45492 15.9705C6.37924 16.252 6.19556 16.5058 5.92361 16.6634L5.89759 16.6768C5.63036 16.8227 5.33003 16.8503 5.05728 16.7777C4.77508 16.7021 4.52204 16.5192 4.36438 16.2464C4.20673 15.9729 4.17441 15.6615 4.25008 15.3801C4.32497 15.0987 4.50942 14.8449 4.78296 14.6872C5.05571 14.5303 5.36629 14.498 5.64771 14.5729C5.82034 14.6194 5.98273 14.7061 6.1191 14.8299L6.7789 14.4484L6.77811 9.48295L6.11752 9.10221C5.98194 9.22518 5.81956 9.31189 5.64771 9.3584C5.37575 9.43092 5.0762 9.40333 4.80976 9.25907C4.78769 9.24883 4.7664 9.23621 4.7467 9.22203C4.49287 9.06279 4.32182 8.82 4.25008 8.55119C4.17441 8.26978 4.20673 7.95919 4.36438 7.68566C4.52204 7.41212 4.77508 7.22845 5.05728 7.15356C5.33791 7.07789 5.6485 7.11021 5.92204 7.26787C6.19556 7.42552 6.38003 7.67935 6.45492 7.95998C6.50063 8.1334 6.50694 8.31629 6.46753 8.49602L7.12811 8.87754L11.4274 6.39602V5.63217C11.2532 5.57621 11.0979 5.47925 10.9718 5.35312C10.7645 5.14501 10.636 4.85965 10.636 4.54592C10.636 4.23218 10.7645 3.94682 10.9702 3.7395C11.1783 3.53218 11.4637 3.40369 11.7782 3.40369C12.0919 3.40369 12.3773 3.53218 12.5838 3.73871C12.7919 3.94682 12.9196 4.23218 12.9196 4.54592C12.9196 4.85965 12.7919 5.14501 12.5854 5.35154C12.4577 5.47925 12.3024 5.57621 12.129 5.63217V6.39996ZM10.1133 10.6015C10.2805 10.6969 10.338 10.9105 10.2418 11.0776C10.1457 11.2448 9.93204 11.3023 9.76492 11.2069L7.47968 9.88734V14.0432L9.76334 12.7244C9.93046 12.6282 10.1449 12.685 10.2418 12.8521C10.3388 13.0192 10.2812 13.2336 10.1141 13.3298L7.82811 14.6502L11.429 16.7289L11.4282 14.0889C11.4282 13.8958 11.5851 13.7397 11.7782 13.7397C11.9705 13.7397 12.1274 13.8958 12.1274 14.0889V16.7289L15.7283 14.6494L13.4431 13.3298C13.2759 13.2336 13.2184 13.02 13.3138 12.8529C13.41 12.6858 13.6236 12.6282 13.7907 12.7244L16.0767 14.044V9.88734L13.7923 11.2061C13.6252 11.3031 13.4107 11.2463 13.3138 11.0792C13.2176 10.9121 13.2744 10.6977 13.4415 10.6007L15.7275 9.28115L13.9271 8.2414L12.129 7.20244V9.84241C12.129 10.0355 11.9713 10.1932 11.7782 10.1932C11.5843 10.1932 11.4274 10.0355 11.4274 9.84241V7.20244L7.82732 9.28194L10.1133 10.6015ZM11.7782 10.8238C12.0919 10.8238 12.3773 10.9515 12.5838 11.1581C12.7919 11.3662 12.9196 11.6515 12.9196 11.9653C12.9196 12.2798 12.7919 12.5644 12.5854 12.7717C12.3773 12.979 12.0919 13.1075 11.7782 13.1075C11.4637 13.1075 11.1783 12.979 10.9718 12.7725C10.7645 12.5644 10.636 12.2798 10.636 11.9653C10.636 11.6515 10.7645 11.3662 10.9702 11.1596C11.1783 10.9515 11.4637 10.8238 11.7782 10.8238ZM12.0904 11.6531C12.0107 11.5743 11.8996 11.5254 11.7782 11.5254C11.656 11.5254 11.5449 11.5743 11.4653 11.6531C11.3864 11.7327 11.3376 11.8431 11.3376 11.9653C11.3376 12.0874 11.3864 12.1978 11.4653 12.2774C11.5449 12.3562 11.656 12.4059 11.7782 12.4059C11.8996 12.4059 12.0107 12.3562 12.0904 12.2774C12.1692 12.1978 12.2181 12.0874 12.2181 11.9653C12.2181 11.8431 12.1692 11.7327 12.0904 11.6531ZM5.72575 8.49286V8.49128L5.73048 8.4834L5.73442 8.47552L5.73915 8.46842C5.79591 8.36516 5.80695 8.2477 5.77856 8.14129C5.7494 8.03171 5.67845 7.93318 5.5744 7.87327C5.46877 7.81257 5.34816 7.80075 5.2378 7.82991C5.13454 7.8575 5.03994 7.92372 4.97845 8.02068L4.95796 8.05536C4.90751 8.15548 4.89883 8.26741 4.92643 8.36989C4.95402 8.47237 5.01708 8.5646 5.1101 8.62529L5.14557 8.64579C5.24726 8.69939 5.36235 8.70964 5.4664 8.68126C5.57124 8.65367 5.66505 8.58824 5.72575 8.49286ZM4.92643 15.5606C4.89726 15.6702 4.90908 15.7908 4.96978 15.8956C5.03048 16.0005 5.12902 16.0722 5.2378 16.1014C5.34028 16.1282 5.45221 16.1195 5.55154 16.0699L5.58938 16.047C5.68555 15.9863 5.75098 15.8925 5.77856 15.79C5.80537 15.6875 5.7967 15.5756 5.74703 15.4763L5.72417 15.4377C5.66269 15.3415 5.56966 15.2768 5.4664 15.2493C5.35683 15.2201 5.23544 15.2327 5.13059 15.2926C5.02654 15.3525 4.9556 15.4511 4.92643 15.5606ZM11.4653 19.6975C11.5449 19.7764 11.656 19.8253 11.7782 19.8253C11.8933 19.8253 11.9989 19.7811 12.077 19.7094L12.0896 19.6968C12.1684 19.6171 12.2181 19.5068 12.2181 19.3854C12.2181 19.2632 12.1692 19.1521 12.0904 19.0724C12.0107 18.9936 11.8996 18.9447 11.7782 18.9447C11.656 18.9447 11.5449 18.9936 11.4653 19.0724C11.3856 19.1536 11.336 19.264 11.336 19.3854C11.336 19.506 11.3856 19.6171 11.4653 19.6975ZM17.8299 15.4384L17.8251 15.4471L17.8212 15.455L17.818 15.4597L17.8165 15.4629C17.7597 15.5654 17.7487 15.6828 17.7778 15.79C17.807 15.8988 17.8772 15.9981 17.982 16.058C18.0869 16.1179 18.2075 16.1306 18.3178 16.1014C18.4219 16.073 18.5157 16.0076 18.5772 15.9098L18.5977 15.8752C18.6481 15.7758 18.6568 15.6631 18.6292 15.5606C18.6016 15.4589 18.5385 15.3659 18.4455 15.3052L18.41 15.2855C18.3084 15.2311 18.1933 15.2217 18.0892 15.2493C17.9852 15.2768 17.8906 15.3431 17.8299 15.4384ZM18.6292 8.36989C18.6584 8.26111 18.6465 8.1405 18.5858 8.03566C18.5251 7.93003 18.4266 7.85908 18.3178 7.82991C18.2153 7.80232 18.1034 7.811 18.0041 7.86144L17.9662 7.88352C17.8701 7.945 17.8054 8.03881 17.7778 8.14129C17.7503 8.24376 17.7589 8.3557 17.8094 8.45502L17.8314 8.49286C17.8929 8.58903 17.9859 8.65367 18.0892 8.68126C18.1988 8.71122 18.3202 8.6986 18.425 8.63791C18.5291 8.578 18.6 8.47946 18.6292 8.36989ZM12.0904 4.23376C12.0107 4.15493 11.8996 4.10527 11.7782 4.10527C11.656 4.10527 11.5449 4.15493 11.4653 4.23376C11.3864 4.31337 11.3376 4.42373 11.3376 4.54592C11.3376 4.6681 11.3864 4.77846 11.4653 4.85808C11.5449 4.93691 11.656 4.98657 11.7782 4.98657C11.8996 4.98657 12.0107 4.93691 12.0904 4.85808C12.1692 4.77846 12.2181 4.6681 12.2181 4.54592C12.2181 4.42373 12.1692 4.31337 12.0904 4.23376ZM-46.6929 45.4098L-46.7228 45.4619C-46.9136 45.7764 -47.2115 45.9884 -47.5418 46.0767C-47.8713 46.165 -48.234 46.1303 -48.5556 45.9545C-48.5769 45.9443 -48.5966 45.9325 -48.6155 45.9183C-48.9261 45.7275 -49.135 45.4327 -49.2225 45.1056C-49.3131 44.7674 -49.2745 44.3929 -49.0853 44.0642C-48.8953 43.7363 -48.591 43.5156 -48.2521 43.4249C-47.9131 43.3343 -47.5387 43.3729 -47.21 43.5629L-47.1879 43.5763C-46.8718 43.7671 -46.659 44.0658 -46.5707 44.3953C-46.4824 44.7248 -46.5171 45.0874 -46.6929 45.4098ZM-47.7231 45.3996C-47.5584 45.3562 -47.4094 45.249 -47.3172 45.0914L-47.314 45.0866C-47.2218 44.9266 -47.2029 44.7429 -47.2478 44.5766C-47.2904 44.415 -47.3936 44.2692 -47.5442 44.177L-47.5608 44.1683C-47.7208 44.0753 -47.9044 44.0571 -48.0708 44.1013C-48.2371 44.1462 -48.3869 44.2542 -48.4799 44.415C-48.5721 44.575 -48.5903 44.7587 -48.5461 44.925C-48.5028 45.0858 -48.4011 45.2309 -48.2505 45.3239L-48.2324 45.3334C-48.0724 45.4256 -47.8887 45.4445 -47.7231 45.3996ZM-63.8247 45.428C-64.0099 45.1016 -64.047 44.7311 -63.9571 44.3953C-63.8664 44.0579 -63.6457 43.7529 -63.317 43.5629C-62.9891 43.3729 -62.6146 43.3343 -62.2765 43.4249C-61.9367 43.5156 -61.6324 43.7363 -61.4432 44.0642C-61.2533 44.3929 -61.2146 44.7674 -61.3053 45.1056C-61.3959 45.4437 -61.6167 45.748 -61.9454 45.938C-62.2733 46.1288 -62.6477 46.1674 -62.9859 46.0767C-63.3249 45.9861 -63.6299 45.7654 -63.8191 45.4374L-63.8247 45.428ZM-63.28 44.5766C-63.3233 44.7366 -63.3075 44.914 -63.2232 45.0693L-63.2027 45.1056C-63.1089 45.2553 -62.9646 45.357 -62.8054 45.3996C-62.6446 45.4429 -62.4688 45.4272 -62.3127 45.3428L-62.2702 45.3184C-62.1235 45.2262 -62.0242 45.0827 -61.9816 44.925C-61.9375 44.7587 -61.9556 44.575 -62.0486 44.415C-62.1409 44.2542 -62.2907 44.1462 -62.457 44.1013C-62.6233 44.0571 -62.807 44.0753 -62.967 44.1683C-63.1278 44.2597 -63.2358 44.4095 -63.28 44.5766ZM-55.2639 30.6177C-54.8863 30.6177 -54.5434 30.7714 -54.2943 31.0197C-54.0452 31.2696 -53.8907 31.6125 -53.8907 31.9901C-53.8907 32.3684 -54.0452 32.7113 -54.2927 32.9597C-54.5434 33.2095 -54.8863 33.3633 -55.2639 33.3633C-55.6423 33.3633 -55.9852 33.2095 -56.2335 32.9612C-56.4834 32.7113 -56.6371 32.3684 -56.6371 31.9901C-56.6371 31.6125 -56.4834 31.2696 -56.235 31.0205C-55.9852 30.7714 -55.6423 30.6177 -55.2639 30.6177ZM-54.7878 31.5147C-54.9092 31.3941 -55.0778 31.3184 -55.2639 31.3184C-55.4499 31.3184 -55.6186 31.3941 -55.74 31.5147C-55.8606 31.6361 -55.9355 31.8048 -55.9355 31.9901C-55.9355 32.1761 -55.8606 32.3448 -55.74 32.4662C-55.6186 32.5868 -55.4499 32.6625 -55.2639 32.6625C-55.0778 32.6625 -54.9092 32.5868 -54.7878 32.4662C-54.6671 32.3448 -54.5923 32.1761 -54.5923 31.9901C-54.5923 31.8048 -54.6671 31.6361 -54.7878 31.5147ZM-47.6987 35.9023C-47.5805 35.9701 -47.5174 36.097 -47.5245 36.2239L-47.5324 39.1146C-47.5324 39.3069 -47.6892 39.4638 -47.8816 39.4638C-48.0747 39.4638 -48.2308 39.3069 -48.2308 39.1146L-48.2237 36.406L-50.5649 35.0455C-50.732 34.9493 -50.7888 34.7349 -50.6926 34.5678C-50.5957 34.4006 -50.3812 34.3439 -50.2141 34.4401L-47.6987 35.9023ZM-55.0676 49.3473C-55.1866 49.4159 -55.3285 49.4064 -55.4349 49.3355L-57.933 47.8843C-58.1001 47.7881 -58.1569 47.5737 -58.0599 47.4066C-57.9638 47.2394 -57.7493 47.1827 -57.5822 47.2789L-55.241 48.6394L-52.8919 47.2915C-52.7232 47.1953 -52.5096 47.2536 -52.4134 47.4215C-52.3173 47.5894 -52.3756 47.8039 -52.5435 47.9L-55.0676 49.3473ZM-62.3277 36.447L-62.3356 39.1532C-62.3356 39.3456 -62.4917 39.5024 -62.6848 39.5024C-62.8771 39.5024 -63.034 39.3456 -63.034 39.1532L-63.0261 36.2697C-63.0356 36.1388 -62.9717 36.0087 -62.8503 35.9394L-60.3262 34.4913C-60.1583 34.3951 -59.9439 34.4535 -59.8485 34.6214C-59.7524 34.7893 -59.8107 35.0037 -59.9786 35.0999L-62.3277 36.447ZM-55.1062 43.2681L-55.1157 43.2728L-55.1204 43.2744L-55.1244 43.2767L-55.1259 43.2775L-55.1291 43.2783L-55.1354 43.2815L-55.1433 43.2838L-55.1456 43.2854H-55.148L-55.1504 43.287L-55.1551 43.2886H-55.1575L-55.1606 43.2901H-55.1622L-55.1653 43.2917H-55.1669L-55.1709 43.2933L-55.1858 43.2972L-55.1906 43.298L-55.1953 43.2988L-55.2055 43.3012H-55.2111L-55.2158 43.302L-55.2213 43.3027L-55.226 43.3035L-55.2308 43.3043H-55.2363L-55.241 43.3051H-55.2513L-55.256 43.3059H-55.2718L-55.2765 43.3051H-55.2867L-55.2915 43.3043H-55.297L-55.3017 43.3035H-55.3064L-55.312 43.302H-55.3167L-55.3222 43.3012L-55.3317 43.2988L-55.3364 43.298L-55.3419 43.2972L-55.3561 43.2933H-55.3577L-55.3608 43.2917H-55.3624L-55.3656 43.2901H-55.3671L-55.3703 43.2886H-55.3727L-55.3774 43.287L-55.3798 43.2854H-55.3821L-55.3845 43.2838L-55.3924 43.2815L-55.3987 43.2783L-55.4018 43.2775L-55.4081 43.2744L-55.4121 43.2728L-55.4215 43.2681L-57.9094 42.006L-59.5104 42.818L-55.4357 44.8856L-51.3619 42.818L-52.7902 42.0935L-55.1062 43.2681ZM-52.6184 39.772L-54.9344 40.9466C-54.9698 40.9647 -55.0069 40.9757 -55.0439 40.9813L-55.0644 40.9828L-55.0794 40.9836L-55.0841 40.9844L-55.1149 40.9836L-55.1251 40.9828L-55.1299 40.982H-55.1346L-55.1401 40.9813L-55.1496 40.9797L-55.1598 40.9781L-55.1646 40.9765L-55.1701 40.9757L-55.1748 40.9742L-55.1795 40.9734L-55.1843 40.9718H-55.1858L-55.189 40.971L-55.1906 40.9702L-55.1937 40.9694L-55.1953 40.9686L-55.1985 40.9678L-55.2126 40.9631L-55.2174 40.9608L-55.2205 40.96L-55.2253 40.9576H-55.2268L-55.2316 40.9552L-55.2355 40.9537L-55.2402 40.9513L-55.2497 40.9466L-56.0135 40.5595L-57.7375 39.6853L-59.3385 40.4972L-57.7564 41.2997L-57.7517 41.3021L-55.2639 42.5641L-52.9479 41.3896L-52.9432 41.3864L-51.19 40.4972L-52.6184 39.772ZM-55.8188 39.8737L-55.092 40.2426L-52.7761 39.0673L-52.7619 39.0602L-51.0182 38.1757L-55.092 36.1089L-59.1667 38.1757L-55.8188 39.8737Z" fill="#0391C9"/>
</g>
</svg>
