<svg width="24" height="24" viewBox="0 0 24 24" fill="none" xmlns="http://www.w3.org/2000/svg">
<path d="M15.5404 8.99869C15.5397 8.99869 15.5397 8.99869 15.539 8.99869L8.46031 8.96835C8.45963 8.96835 8.45895 8.96835 8.45895 8.96835C8.26632 8.96765 8.11114 8.80687 8.11182 8.60983C8.1125 8.41313 8.26837 8.2541 8.46031 8.2541C8.46099 8.2541 8.46099 8.2541 8.46167 8.2541H8.46712C8.4678 8.2541 8.46848 8.2541 8.46916 8.2541C8.97964 8.2541 9.17227 8.01345 9.59427 7.42441C10.4777 6.19225 11.3497 6.01299 12.0146 6.00044C12.0221 5.99974 12.0303 6.00009 12.0412 6.00009C12.7082 6.01892 13.5849 6.20202 14.4534 7.45893C14.7039 7.82129 15.0408 8.09541 15.4029 8.23038C15.471 8.25549 15.5418 8.27677 15.6139 8.29246C15.7881 8.33082 15.9059 8.49823 15.8868 8.67993C15.8678 8.86128 15.718 8.99869 15.5404 8.99869ZM9.84815 8.26003L14.2213 8.27886C14.0995 8.15505 13.9865 8.01869 13.8844 7.87186C13.2037 6.88662 12.5918 6.73143 12.031 6.71434C11.4701 6.72445 10.8548 6.87233 10.1565 7.8471C10.053 7.99148 9.95297 8.13133 9.84815 8.26003Z" fill="#14B9B1"/>
<path d="M19.1211 11.029V8.4413C19.1211 8.25475 18.9735 8.10352 18.7914 8.10352H5.20901C5.02697 8.10352 4.87939 8.25475 4.87939 8.4413V11.0736L19.1211 11.029Z" fill="#14B9B1"/>
<path d="M19.1709 11.3789V17.9156C19.1709 18.1007 19.0223 18.2508 18.8389 18.2508H5.16151C4.9782 18.2508 4.82959 18.1007 4.82959 17.9156V11.4232L10.3801 11.4057L10.6388 12.0321C10.8715 12.5957 11.4176 12.9621 12.0223 12.9605L12.1465 12.9602C12.7575 12.9585 13.306 12.5815 13.5316 12.008L13.7722 11.3965L19.1709 11.3789Z" fill="#14B9B1"/>
</svg>
