<svg width="72" height="46" viewBox="0 0 72 46" fill="none" xmlns="http://www.w3.org/2000/svg">
<g id="Group 2">
<path id="Vector" d="M22.8564 19.5669C20.8497 20.9347 18.4215 21.7256 15.8242 21.7256C13.2095 21.7256 10.7814 20.9312 8.79192 19.5669C5.62121 20.6791 3.10668 23.311 2.19833 26.6993L0.139791 34.3395C-0.551001 36.9541 1.40395 39.517 4.11876 39.517H23.1435L25.1158 32.1289C25.8065 29.5661 27.2054 27.3072 29.0775 25.5872C27.9653 22.7549 25.6718 20.5616 22.8534 19.5669H22.8564Z" fill="#EBC584"/>
<path id="Vector_2" d="M15.8136 18.351C20.8806 18.351 24.9909 14.2443 24.9909 9.17726C24.9909 4.11027 20.8842 0 15.8136 0C10.7467 0 6.63638 4.10674 6.63638 9.17726C6.63638 14.2443 10.7431 18.351 15.8136 18.351Z" fill="#EBC584"/>
<path id="Vector_3" d="M83.8601 34.3429L81.8188 26.7027C80.907 23.3282 78.3959 20.6997 75.2252 19.5703C73.2185 20.9381 70.7904 21.729 68.193 21.729C65.5956 21.729 63.1675 20.9346 61.1607 19.5703C58.3458 20.5651 56.0524 22.741 54.9367 25.5906C56.7915 27.3106 58.2076 29.5695 58.8845 32.1323L60.874 39.5204H79.8811C82.5959 39.5204 84.5543 36.9576 83.8635 34.3429H83.8601Z" fill="#EBC584"/>
<path id="Vector_4" d="M59.0084 9.17726C59.0084 14.2443 63.1152 18.351 68.1857 18.351C73.2527 18.351 77.3629 14.2443 77.3629 9.17726C77.3629 4.11027 73.2562 0 68.1857 0C63.1187 0 59.0084 4.10674 59.0084 9.17726Z" fill="#EBC584"/>
<path id="Vector_5" d="M55.6236 33.0094C54.7118 29.6176 52.2007 26.9891 49.03 25.877C47.0233 27.2447 44.5951 28.0357 41.9978 28.0357C39.4004 28.0357 36.9722 27.2447 34.9655 25.877C31.7948 26.9891 29.2803 29.6211 28.3719 33.0094L26.3306 40.6495C25.6226 43.2641 27.5948 45.827 30.2924 45.827H53.7037C56.4013 45.827 58.377 43.2642 57.6654 40.6495L55.6236 33.0094Z" fill="#EBC584"/>
<path id="Vector_6" d="M32.8242 15.4809C32.8242 20.5478 36.9309 24.6581 42.0014 24.6581C47.0684 24.6581 51.1787 20.5514 51.1787 15.4809C51.1787 10.4139 47.0719 6.30713 42.0014 6.30713C36.9344 6.30713 32.8242 10.4139 32.8242 15.4809Z" fill="#EBC584"/>
</g>
</svg>
