<svg width="57" height="72" viewBox="0 0 57 72" fill="none" xmlns="http://www.w3.org/2000/svg">
<g id="Group 1">
<path id="Vector" d="M49.7989 71.0291H58.8569C60.1152 71.0291 61.1393 70.0156 61.1393 68.7615V37.8228C61.1393 36.5726 60.1191 35.5551 58.8569 35.5551H49.7989C48.5406 35.5551 47.5166 36.5687 47.5166 37.8228V68.7615C47.5166 70.0117 48.5366 71.0291 49.7989 71.0291ZM52.0813 40.0904H56.5785V66.4931H52.0813V40.0904ZM31.6792 17.2172V68.7616C31.6792 70.0118 32.6993 71.0292 33.9615 71.0292H43.0195C44.2778 71.0292 45.3019 70.0157 45.3019 68.7616L45.2979 17.2172C45.2979 15.9671 44.2778 14.9496 43.0155 14.9496H33.9575C32.6993 14.9496 31.6752 15.9631 31.6752 17.2172H31.6792ZM36.2399 19.4849H40.7371V66.4932H36.2399V19.4849ZM18.1201 44.4842C16.8618 44.4842 15.8377 45.4977 15.8377 46.7518V68.7618C15.8377 70.012 16.8578 71.0294 18.1201 71.0294H27.178C28.4363 71.0294 29.4604 70.0159 29.4604 68.7618V46.7518C29.4604 45.5017 28.4403 44.4842 27.178 44.4842H18.1201ZM24.8997 66.4942H20.4024V49.0162H24.8997V66.4942ZM2.28236 52.4781C1.02407 52.4781 0 53.4916 0 54.7457V68.7618C0 70.012 1.02011 71.0294 2.28236 71.0294H11.3404C12.5986 71.0294 13.6227 70.0159 13.6227 68.7618V54.7457C13.6227 53.4956 12.6026 52.4781 11.3404 52.4781H2.28236ZM9.06196 66.4942H4.56471V57.0136H9.06196V66.4942ZM18.6795 7.24063L24.0857 0.812403C24.5184 0.295778 25.1614 0 25.8362 0C26.5111 0 27.1541 0.299725 27.5867 0.812403L32.9929 7.24063C33.8027 8.19895 33.6717 9.63052 32.7071 10.4311C31.7386 11.2356 30.3017 11.1055 29.4959 10.1472L28.1225 8.51447V17.2182C28.1225 31.8178 18.8105 44.9899 4.94531 49.9984C4.6873 50.0931 4.42533 50.1364 4.16733 50.1364C3.23455 50.1364 2.36134 49.5646 2.02388 48.6457C1.59123 47.4704 2.2025 46.1691 3.38937 45.7392C15.4561 41.3814 23.5618 29.917 23.5618 17.2184V8.5147L22.1884 10.1474C21.3787 11.1057 19.9418 11.2358 18.9772 10.4313C18.0127 9.62682 17.8817 8.19925 18.6914 7.24085L18.6795 7.24063Z" fill="#EDE495"/>
<rect id="Rectangle 1" x="3.59642" y="55.7446" width="6.29375" height="11.6884" fill="#EDE495"/>
<rect id="Rectangle 2" x="18.8812" y="47.6528" width="6.29375" height="18.8812" fill="#EDE495"/>
<rect id="Rectangle 3" x="35.0652" y="18.8813" width="6.29375" height="47.6527" fill="#EDE495"/>
<rect id="Rectangle 4" x="52.1482" y="38.6616" width="6.29375" height="28.7714" fill="#EDE495"/>
</g>
</svg>
