<svg width="53" height="77" viewBox="0 0 53 77" fill="none" xmlns="http://www.w3.org/2000/svg">
<path id="Vector" d="M50.2144 24.4761H17.8521V18.8763C17.8521 11.8841 23.523 6.18987 30.496 6.18987C33.8059 6.18987 36.9434 7.47973 39.3278 9.81571C40.5436 11.0112 42.4966 10.9797 43.6889 9.76066C44.8811 8.54157 44.8497 6.58321 43.634 5.38762C40.0887 1.91118 35.4219 0 30.4959 0C20.1266 0 11.687 8.46278 11.687 18.8683V24.4682H10.785C4.83959 24.4682 0 29.313 0 35.2748L0.00784359 66.1855C0.00784359 72.1471 4.84743 77 10.7928 77H50.2151C56.1604 77 61 72.1471 61 66.1855V35.2829C61 29.3212 56.1597 24.4761 50.2144 24.4761ZM30.4956 57.6821C26.6837 57.6821 23.5776 54.5675 23.5776 50.7452C23.5776 46.9228 26.6837 43.8003 30.4956 43.8003C34.3232 43.8003 37.4215 46.9307 37.4215 50.7452C37.4293 54.5675 34.3232 57.6821 30.4956 57.6821Z" fill="#F3BDBD"/>
</svg>
