<svg width="50" height="79" viewBox="0 0 50 79" fill="none" xmlns="http://www.w3.org/2000/svg">
<path id="Vector" d="M16.6673 25.6116H11.1118V14.5006C11.1118 9.53895 13.7576 4.95236 18.0561 2.47329C22.3546 -0.00932759 27.6462 -0.00932759 31.9448 2.47329C36.2433 4.95245 38.8891 9.53913 38.8891 14.5006V25.6116H16.6673ZM25.0004 47.8334C28.6844 47.8334 32.2156 46.3716 34.8198 43.764C37.4274 41.1599 38.8892 37.6288 38.8892 33.9446V31.1669H11.1119V33.9446C11.1119 37.6286 12.5736 41.1598 15.1812 43.764C17.7854 46.3716 21.3163 47.8334 25.0004 47.8334ZM50 33.9447C50 32.41 48.757 31.167 47.2223 31.167C45.6875 31.167 44.4445 32.41 44.4445 33.9447C44.4445 40.8925 40.7397 47.3089 34.722 50.7844C28.7048 54.2566 21.2956 54.2566 15.278 50.7844C9.26072 47.3088 5.55546 40.8922 5.55546 33.9447C5.55546 32.41 4.31246 31.167 2.77773 31.167C1.243 31.167 0 32.41 0 33.9447C0.0104167 40.0905 2.27774 46.0174 6.37838 50.5969C10.4755 55.1766 16.1142 58.0898 22.2216 58.7807V72.8329H13.8885C12.3537 72.8329 11.1107 74.0759 11.1107 75.6107C11.1107 77.1454 12.3537 78.3884 13.8885 78.3884H36.1103C37.645 78.3884 38.888 77.1454 38.888 75.6107C38.888 74.0759 37.645 72.8329 36.1103 72.8329H27.7771V58.7807C33.8846 58.0898 39.5236 55.1766 43.6204 50.5969C47.721 46.0171 49.9884 40.0904 49.9988 33.9447H50Z" fill="#CFB1ED"/>
</svg>
