<svg width="50" height="68" viewBox="0 0 50 68" fill="none" xmlns="http://www.w3.org/2000/svg">
<path id="Vector" d="M48.7807 66.7784C50.4064 65.1497 50.4064 62.5187 48.7807 60.8899L37.526 49.614L31.6486 55.5025L42.9033 66.7784C44.529 68.4072 47.1967 68.4072 48.7807 66.7784ZM11.3068 17.9162H20.8524V41.2615L1.21926 60.8899C-0.406419 62.5187 -0.406419 65.1497 1.21926 66.7784C2.84493 68.4072 5.47103 68.4072 7.09671 66.7784L26.7299 47.15C28.3139 45.563 29.1892 43.4749 29.1892 41.2615V17.9162H38.7349C40.6107 17.9162 41.5277 15.661 40.1938 14.3663L26.4798 0.626439C25.6461 -0.208813 24.3539 -0.208813 23.5202 0.626439L9.80617 14.3663C8.51397 15.661 9.43101 17.9162 11.3068 17.9162Z" fill="#B3E4EE" fill-opacity="0.8"/>
</svg>
