<svg width="65" height="86" viewBox="0 0 65 86" fill="none" xmlns="http://www.w3.org/2000/svg">
<path id="Vector" fill-rule="evenodd" clip-rule="evenodd" d="M33.132 4.529V1.434C33.132 0.642 33.774 0 34.566 0C35.358 0 36 0.642 36 1.434V4.53C36 5.322 35.358 5.964 34.566 5.964C33.774 5.964 33.132 5.321 33.132 4.529ZM41.932 7.85C42.158 7.981 42.404 8.043 42.648 8.043C43.143 8.043 43.626 7.786 43.891 7.325L45.438 4.645C45.834 3.96 45.599 3.082 44.913 2.686C44.226 2.289 43.351 2.524 42.954 3.211L41.407 5.891C41.011 6.578 41.246 7.456 41.932 7.85ZM48.611 13.888C48.854 13.888 49.102 13.826 49.327 13.695L52.007 12.147C52.694 11.751 52.928 10.873 52.532 10.187C52.136 9.502 51.258 9.265 50.573 9.662L47.893 11.21C47.207 11.606 46.972 12.484 47.368 13.17C47.633 13.63 48.114 13.887 48.611 13.888ZM49.415 20.493C49.415 21.285 50.057 21.927 50.849 21.927H53.944C54.736 21.927 55.378 21.285 55.378 20.493C55.378 19.701 54.736 19.059 53.944 19.059H50.849C50.057 19.059 49.415 19.701 49.415 20.493ZM15.507 22.245H18.603C19.395 22.245 20.037 21.603 20.037 20.811C20.037 20.019 19.395 19.377 18.603 19.377H15.507C14.715 19.377 14.073 20.019 14.073 20.811C14.073 21.604 14.714 22.246 15.507 22.245ZM17.284 12.422L19.965 13.97C20.191 14.1 20.437 14.163 20.681 14.163C21.176 14.163 21.659 13.906 21.924 13.445C22.32 12.759 22.086 11.882 21.399 11.486L18.719 9.938C18.032 9.541 17.156 9.777 16.76 10.463C16.363 11.149 16.599 12.027 17.284 12.422ZM25.284 7.485C25.549 7.945 26.032 8.203 26.527 8.203C26.77 8.203 27.017 8.141 27.243 8.01C27.929 7.615 28.164 6.738 27.768 6.051L26.221 3.37C25.825 2.685 24.948 2.448 24.262 2.845C23.576 3.24 23.341 4.117 23.737 4.804L25.284 7.485ZM43.239 58.555L69.457 48.567L65.447 41.734L37.214 51.597L43.239 58.555ZM64.651 53.469L43.321 61.594C42.758 61.809 42.121 61.649 41.726 61.193L36.159 54.764V85.491L64.652 75.538H64.651V53.469ZM42.982 34.743C42.829 35.895 42.197 36.897 41.29 37.539C41.436 37.913 41.523 38.316 41.523 38.742V39.52C41.523 40.992 40.553 42.229 39.225 42.662C39.264 42.866 39.288 43.075 39.288 43.29V44.068C39.288 45.899 37.799 47.388 35.969 47.388H33.165C31.335 47.388 29.846 45.899 29.846 44.069V43.291C29.846 43.076 29.87 42.867 29.909 42.663C28.581 42.23 27.611 40.992 27.611 39.521V38.744C27.611 38.319 27.698 37.915 27.844 37.541C26.959 36.914 26.335 35.944 26.164 34.826L8.061 40.126L34.746 49.424L61.388 40.118L42.982 34.743ZM27.766 61.191C27.372 61.646 26.735 61.806 26.171 61.592L4.841 53.467V75.537L33.29 85.476V54.812L27.766 61.191ZM32.28 51.6L4.006 41.749L0 48.575L3.881 50.032C3.905 50.04 3.928 50.049 3.949 50.058L26.257 58.556L32.28 51.6ZM40.152 34.205C40.152 29.737 41.47 27.95 42.633 26.374C43.618 25.038 44.397 23.984 44.397 21.011C44.397 15.591 39.987 11.18 34.566 11.18C29.145 11.18 24.735 15.59 24.736 21.011C24.736 23.983 25.515 25.038 26.5 26.374C27.463 27.678 28.529 29.132 28.869 32.127C28.938 32.238 29 32.355 29.038 32.487C29.137 32.826 29.1 33.169 28.967 33.468C28.975 33.705 28.98 33.95 28.98 34.205C28.98 34.876 29.526 35.422 30.196 35.422H30.928H38.2H38.933C39.606 35.422 40.152 34.876 40.152 34.205ZM38.654 39.518V38.741C38.654 38.497 38.448 38.29 38.203 38.29H30.931C30.686 38.29 30.48 38.497 30.48 38.741V39.518C30.48 39.763 30.686 39.969 30.931 39.969H33.165H35.969H38.203C38.447 39.97 38.654 39.763 38.654 39.518ZM33.164 42.839C32.919 42.839 32.713 43.046 32.713 43.29V44.068C32.713 44.312 32.919 44.519 33.164 44.519H35.968C36.213 44.519 36.419 44.312 36.419 44.068V43.29C36.419 43.045 36.212 42.839 35.968 42.839H33.164Z" fill="#E5CA8C"/>
</svg>
