<svg width="61" height="80" viewBox="0 0 61 80" fill="none" xmlns="http://www.w3.org/2000/svg">
<path id="Vector" fill-rule="evenodd" clip-rule="evenodd" d="M4.16881 42.1944C4.16881 63.0694 21.0948 79.9914 41.9698 79.9914C45.7354 79.9914 49.3682 79.4407 52.8058 78.4133L47.8527 63.2923C45.9816 63.8158 44.0089 64.0931 41.9699 64.0931C29.8759 64.0931 20.0679 54.2923 20.0679 42.1951H4.1659L4.16881 42.1944ZM19.985 37.8C19.985 27.9602 27.9616 19.988 37.801 19.988V0C16.922 0 7.62939e-06 16.926 7.62939e-06 37.801L19.985 37.8ZM17.1491 36.0031H14.3757L3.9307 25.5581C4.1768 24.8862 4.43462 24.2222 4.71587 23.5737L17.1499 36.0077L17.1491 36.0031ZM7.02811 36.0031H4.25471L2.02421 33.7687C2.11405 32.9523 2.23123 32.1476 2.37576 31.3507L7.02811 36.0031ZM7.24686 18.7531C7.59842 18.1867 7.96951 17.632 8.35236 17.0851L20.2664 29.0031C19.95 29.6281 19.6726 30.2726 19.4226 30.9328L7.24261 18.7488L7.24686 18.7531ZM11.661 13.0461C12.1102 12.5695 12.5711 12.1047 13.0438 11.6555L24.6418 23.2535C24.1613 23.6949 23.6964 24.1558 23.259 24.6441L11.661 13.0461ZM17.0868 8.3508C17.6336 7.96799 18.1845 7.59689 18.7548 7.2453L30.9348 19.4293C30.2785 19.6754 29.6301 19.9566 29.009 20.2731L17.0868 8.3508ZM23.5751 4.718C24.2274 4.44066 24.8915 4.17503 25.5595 3.93675L36.0045 14.3778V17.1511L23.5705 4.71715L23.5751 4.718ZM31.3524 2.3742C32.1492 2.22967 32.954 2.11639 33.7704 2.02264L36.0048 4.25704V7.02654L31.3524 2.3742ZM54.6614 77.8082C69.2944 72.5934 79.7664 58.6202 79.7664 42.1952C79.7664 21.3162 62.8404 4.3942 41.9694 4.3942V20.2962C54.0634 20.2962 63.8674 30.1048 63.8674 42.1982C63.8674 51.5654 57.9807 59.5572 49.7074 62.6862L54.6614 77.8082Z" fill="#A59BE1"/>
</svg>
