<svg width="74" height="78" viewBox="0 0 74 78" fill="none" xmlns="http://www.w3.org/2000/svg">
<g id="Group 4">
<path id="Vector" d="M67.4051 57.1842C65.7051 58.3036 62.815 60.01 58.9662 61.3765C55.8003 57.6333 52.8621 53.0493 41.8733 52.7291C31.4579 52.4275 18.9487 55.2983 13.5217 56.6391C12.0815 56.9951 11.517 58.708 12.4312 59.8723C16.7935 65.4536 29.2391 78.1715 44.2726 77.9982C58.1425 77.7031 58.7263 72.834 58.6237 70.3738C49.4277 72.0898 39.2373 69.5109 28.8959 63.4807C32.8444 65.1807 43.1797 67.8783 51.9938 67.054C61.1865 66.3611 68.1473 62.6884 70.2478 61.6844C71.9959 60.8601 72.2333 58.6854 70.8797 57.4601C69.9206 56.5748 68.4965 56.469 67.409 57.181L67.4051 57.1842Z" fill="#B3D370"/>
<path id="Vector_2" d="M26.8062 32.4308C32.2751 23.5617 36.044 11.293 37.5935 5.92356C38.0041 4.49937 36.8044 3.15541 35.3386 3.36069C28.3236 4.34861 11.0894 8.76865 3.71803 21.8717C-2.96015 34.032 0.965892 36.97 3.14708 38.1114C6.25847 29.2907 13.5879 21.7559 23.9803 15.8125C20.5321 18.3818 13.0262 25.984 9.33439 34.0287C5.33773 42.3362 5.0394 50.2011 4.85662 52.5233C4.69944 54.4511 6.46039 55.7437 8.19891 55.1824C9.44664 54.7975 10.2486 53.6138 10.178 52.3148C10.0593 50.2812 10.0241 46.9261 10.765 42.9103C15.5892 42.041 21.0293 41.7876 26.8027 32.4308H26.8062Z" fill="#B3D370"/>
<path id="Vector_3" d="M72.6078 14.8186C65.4164 2.95395 60.9098 4.88446 58.8282 6.2065C64.9098 13.3113 67.7746 23.425 67.7228 35.3989C67.2224 31.1296 64.3901 20.8302 59.2675 13.6099C54.0713 5.99514 47.4094 1.80271 45.4912 0.484779C43.9035 -0.615387 41.9019 0.263457 41.5171 2.05004C41.2284 3.32347 41.8507 4.6097 43.0118 5.19666C44.8337 6.11083 47.7558 7.75952 50.864 10.409C49.2057 15.0215 46.7037 19.8587 51.9193 29.5392C56.8654 38.7097 65.6061 48.1076 69.4811 52.137C70.5075 53.2051 72.2748 52.8395 72.8266 51.4634C75.4761 44.8943 80.2714 27.7595 72.6052 14.8232L72.6078 14.8186Z" fill="#B3D370"/>
</g>
</svg>
