<svg width="63" height="61" viewBox="0 0 63 61" fill="none" xmlns="http://www.w3.org/2000/svg">
<g id="Group 3">
<path id="Vector" d="M53.3356 14.9324C53.3322 14.9324 53.3322 14.9324 53.3288 14.9324L18.0792 14.7813C18.0759 14.7813 18.0725 14.7813 18.0725 14.7813C17.1133 14.7779 16.3405 13.9773 16.3439 12.996C16.3473 12.0165 17.1234 11.2246 18.0792 11.2246C18.0826 11.2246 18.0826 11.2246 18.086 11.2246H18.1131C18.1165 11.2246 18.1199 11.2246 18.1233 11.2246C20.6653 11.2246 21.6245 10.0263 23.726 7.09304C28.1254 0.957346 32.4672 0.064691 35.7786 0.00217089C35.8159 -0.00130254 35.8566 0.00043418 35.9108 0.00043418C39.2324 0.094215 43.5979 1.00597 47.9227 7.26498C49.17 9.06939 50.8478 10.4344 52.6509 11.1065C52.9899 11.2316 53.3424 11.3375 53.7016 11.4156C54.5693 11.6067 55.1557 12.4403 55.0608 13.3451C54.9659 14.2482 54.2202 14.9324 53.3356 14.9324ZM24.9902 11.2541L46.767 11.3479C46.1603 10.7314 45.5976 10.0524 45.0892 9.32121C41.6998 4.41508 38.6528 3.64226 35.8599 3.55716C33.0671 3.60752 30.0031 4.34388 26.5256 9.1979C26.0104 9.91689 25.5122 10.6133 24.9902 11.2541Z" fill="#86D2C8"/>
<path id="Vector_2" d="M71.1666 25.0365V12.1508C71.1666 11.2218 70.4317 10.4688 69.5252 10.4688H1.88941C0.98291 10.4688 0.248047 11.2218 0.248047 12.1508V25.2588L71.1666 25.0365Z" fill="#86D2C8"/>
<path id="Vector_3" d="M71.4145 26.7808V59.3312C71.4145 60.253 70.6745 61.0002 69.7617 61.0002H1.65284C0.740003 61.0002 0 60.253 0 59.3312V27.0013L27.6396 26.9143L28.9277 30.0334C30.0867 32.8399 32.8062 34.6648 35.8174 34.6566L36.4355 34.6549C39.4782 34.6467 42.2096 32.7692 43.3329 29.9137L44.5308 26.8686L71.4145 26.7808Z" fill="#86D2C8"/>
</g>
</svg>
