<svg width="18" height="19" viewBox="0 0 18 19" fill="none" xmlns="http://www.w3.org/2000/svg">
<g id="Group 47">
<path id="Vector 141" d="M5.66675 5.11874L5.66675 3.72583C5.66675 2.75517 5.66675 2.26984 5.95793 1.96829C6.24911 1.66675 6.71776 1.66675 7.65505 1.66675L10.3451 1.66675C11.2824 1.66675 11.7511 1.66675 12.0422 1.96829C12.3334 2.26984 12.3334 2.75517 12.3334 3.72583V5.11874" stroke="#F44336" stroke-width="1.5"/>
<path id="Vector 151" d="M10.6667 9.34619V13.5129" stroke="#F44336" stroke-width="1.5" stroke-linecap="round"/>
<path id="Vector 152" d="M7.33325 9.34619V13.5129" stroke="#F44336" stroke-width="1.5" stroke-linecap="round"/>
<g id="Group 18313">
<path id="Rectangle 976" d="M14.1782 12.9455C13.9897 14.6521 13.9058 15.3043 13.656 15.7989C13.2877 16.5278 12.6585 17.0913 11.8935 17.3774C11.3745 17.5715 10.7171 17.5833 9.00005 17.5833C7.28302 17.5833 6.62556 17.5715 6.10658 17.3774C5.34163 17.0913 4.71241 16.5278 4.34412 15.7989C4.09425 15.3043 4.01035 14.6521 3.82185 12.9455L2.9747 5.27527L15.0254 5.27527L14.1782 12.9455Z" stroke="#F44336" stroke-width="1.5"/>
<path id="Vector 155" d="M1.5 5.10181H16.5" stroke="#F44336" stroke-width="1.5" stroke-linecap="round"/>
</g>
</g>
</svg>
