<svg width="12" height="12" viewBox="0 0 12 12" fill="none" xmlns="http://www.w3.org/2000/svg">
<g id="LinkedIN/color">
<rect x="0.333252" y="0.166748" width="11.6667" height="11.6667" rx="2.33333" fill="#0077B5"/>
<g id="LinkedIN">
<path id="back" d="M0.333252 5.9991C0.333252 2.77744 2.94492 0.165771 6.16659 0.165771C9.38825 0.165771 11.9999 2.77744 11.9999 5.9991C11.9999 9.22077 9.38825 11.8324 6.16659 11.8324C2.94492 11.8324 0.333252 9.22077 0.333252 5.9991Z" fill="#0077B5"/>
<path id="Shape" fill-rule="evenodd" clip-rule="evenodd" d="M4.54262 3.76884C4.54262 4.15022 4.25554 4.45538 3.7946 4.45538H3.78615C3.34234 4.45538 3.05542 4.15022 3.05542 3.76884C3.05542 3.37939 3.35108 3.08276 3.80331 3.08276C4.25554 3.08276 4.53404 3.37939 4.54262 3.76884ZM4.45553 4.99797V8.96991H3.13357V4.99797H4.45553ZM9.22298 8.97024L9.22304 6.69285C9.22304 5.47284 8.57087 4.90503 7.70096 4.90503C6.99909 4.90503 6.68485 5.29055 6.50939 5.561V4.9984H5.18727C5.2047 5.37111 5.18727 8.97035 5.18727 8.97035H6.50939V6.75209C6.50939 6.63338 6.51797 6.51496 6.55292 6.42997C6.64847 6.19282 6.866 5.94728 7.23122 5.94728C7.70978 5.94728 7.90107 6.3115 7.90107 6.84525V8.97024H9.22298Z" fill="white"/>
</g>
</g>
</svg>
