<svg width="19" height="20" viewBox="0 0 19 20" fill="none" xmlns="http://www.w3.org/2000/svg">
<g id="LinkedIN">
<path id="Shape" fill-rule="evenodd" clip-rule="evenodd" d="M6.85524 6.36732C6.85524 6.98842 6.38772 7.48541 5.63703 7.48541H5.62327C4.90049 7.48541 4.43323 6.98842 4.43323 6.36732C4.43323 5.73308 4.91472 5.25 5.65122 5.25C6.38772 5.25 6.84126 5.73308 6.85524 6.36732ZM6.71358 8.36833V14.8369H4.56067V8.36833H6.71358ZM14.4778 14.837L14.4779 11.1281C14.4779 9.14119 13.4158 8.21647 11.9991 8.21647C10.8561 8.21647 10.3443 8.84432 10.0586 9.28476V8.36854H7.9054C7.93377 8.97552 7.9054 14.8371 7.9054 14.8371H10.0586V11.2245C10.0586 11.0312 10.0725 10.8384 10.1295 10.6999C10.2851 10.3137 10.6393 9.91385 11.2341 9.91385C12.0135 9.91385 12.325 10.507 12.325 11.3763V14.837H14.4778Z" fill="#0077B5"/>
</g>
</svg>
