<svg width="14" height="12" viewBox="0 0 14 12" fill="none" xmlns="http://www.w3.org/2000/svg">
<path id="Vector" d="M13.9984 1.71612C13.9819 1.36788 13.8167 1.05281 13.5688 0.820648C13.3209 0.588488 12.9904 0.472408 12.6434 0.505574C12.2963 0.522157 11.9824 0.687985 11.7675 0.936728L5.15743 8.39901L2.13331 5.64626C1.88543 5.4141 1.55493 5.29802 1.2079 5.3146C0.860866 5.33118 0.546887 5.48043 0.332058 5.72917C0.100705 5.97791 -0.0149719 6.30957 0.0015533 6.65781C0.0180785 7.00605 0.166806 7.32112 0.414685 7.5367L4.39727 11.1683C4.62862 11.3839 4.9426 11.5 5.25658 11.5H5.32268H5.33921C5.66971 11.4834 5.98369 11.3342 6.23157 11.0688L13.701 2.62818C13.8993 2.37944 14.015 2.04778 13.9984 1.71612Z" fill="white"/>
</svg>
