<svg width="32" height="32" viewBox="0 0 32 32" fill="none" xmlns="http://www.w3.org/2000/svg">
<rect width="32" height="32" rx="5.81818" fill="#1A1A1A"/>
<path d="M15.2 22H12.656L7.248 13.04H7.184C7.19467 13.2747 7.20533 13.5253 7.216 13.792C7.23733 14.048 7.25333 14.3147 7.264 14.592C7.27467 14.8587 7.28533 15.1307 7.296 15.408C7.30667 15.6853 7.31733 15.9627 7.328 16.24V22H5.488V10.576H8.016L13.408 19.472H13.456C13.4453 19.2587 13.4347 19.0293 13.424 18.784C13.4133 18.528 13.4027 18.2667 13.392 18C13.392 17.7333 13.3867 17.4613 13.376 17.184C13.3653 16.9067 13.3547 16.64 13.344 16.384V10.576H15.2V22ZM26.7835 10.576L22.8315 22H20.6395L16.6875 10.576H18.7835L21.0875 17.568C21.1622 17.76 21.2368 18.0107 21.3115 18.32C21.3968 18.6187 21.4768 18.928 21.5515 19.248C21.6368 19.5573 21.7008 19.8347 21.7435 20.08C21.7755 19.8347 21.8288 19.5573 21.9035 19.248C21.9888 18.928 22.0742 18.6187 22.1595 18.32C22.2448 18.0107 22.3195 17.76 22.3835 17.568L24.6875 10.576H26.7835Z" fill="white"/>
</svg>
