<svg xmlns="http://www.w3.org/2000/svg" width="50" height="50"><g data-name="Group 25454"><g data-name="Layer 2"><g data-name="Layer 1"><rect width="50" height="50" fill="#c3cbd7" data-name="Rectangle 12140" rx="25"/><path fill="#fff" d="m24.531 17.475-9.976 11.737h6.723a.573.573 0 0 1 .415.146c.854.978 1.7 1.965 2.541 2.955a.21.21 0 0 0 .089.157H7.289c.168-.189.3-.371.45-.542l10.752-12.594c.461-.542.933-1.123 1.383-1.626a.6.6 0 0 1 .518-.247h4.14z" data-name="Path 16082"/><path fill="#fff" d="M25.65 17.49h17.068c-.079.1-.125.179-.179.236q-6.179 7.246-12.357 14.5a.707.707 0 0 1-.639.271h-4.055l9.976-11.726h-6.746a.629.629 0 0 1-.542-.247l-2.337-2.74z" data-name="Path 16083"/></g></g></g></svg>