<svg xmlns="http://www.w3.org/2000/svg" width="16" height="16"><defs><clipPath id="a"><path data-name="Rectangle 11991" transform="translate(97 8)" fill="#3b5175" stroke="#707070" d="M0 0h16v16H0z"/></clipPath></defs><g data-name="Mask Group 330" transform="translate(-97 -8)" clip-path="url(#a)"><g data-name="Layer 2"><g data-name="invisible box"><path data-name="Rectangle 11990" fill="none" d="M97 8h16v16H97z"/></g><g data-name="icons Q2"><path data-name="Path 15779" d="m111.466 14.267-4.7-4.733a.633.633 0 0 0-.933 0l-7.3 7.3a.667.667 0 0 0-.2.467v4.7a.667.667 0 0 0 .667.667h4.7a.667.667 0 0 0 .467-.2l7.3-7.267a.633.633 0 0 0 0-.933Zm-8.033 7.067h-3.767v-3.767l4.167-4.133 3.733 3.767Zm5.1-5.067-3.767-3.767 1.534-1.566 3.767 3.8Z" fill="#3b5175"/></g></g></g></svg>