<svg xmlns="http://www.w3.org/2000/svg" width="24" height="24"><defs><clipPath id="a"><path transform="translate(233 487)" style="fill:#fff;stroke:#fff" d="M0 0h24v24H0z"/></clipPath><style>.d{fill:#fff}</style></defs><g transform="translate(-233 -487)" style="clip-path:url(#a)"><path style="fill:none" d="M0 0h24v24H0z" transform="translate(233 487)"/><path class="d" d="m255.7 498.7-4.9-4.9a.95.95 0 0 0-1.4 0l-9.1 9.1a1 1 0 0 0-.3.7v-.1h-5a1 1 0 0 0 0 2h5v3a1 1 0 0 0 1 1h4.9a1 1 0 0 0 .7-.3l9.1-9.1a.95.95 0 0 0 0-1.4Zm-10.25 8.8H242v-3.45l5.2-5.2 3.45 3.45Zm6.6-6.6-3.45-3.45 1.5-1.55 3.5 3.5ZM239 496.5a1 1 0 0 0-2 0v3h2ZM250.1 491.5a1 1 0 0 1 .7.3l.2.2v-2.5a1.05 1.05 0 0 0-1-1 1 1 0 0 0-1 1v2.7l.4-.4a1 1 0 0 1 .7-.3Z"/><path class="d" d="M243 498.2v-4.7a1.05 1.05 0 0 0-1-1 1 1 0 0 0-1 1v6h.7ZM247 491a1.05 1.05 0 0 0-1-1 1 1 0 0 0-1 1v5.2l2-2Z"/></g></svg>