<svg xmlns="http://www.w3.org/2000/svg" width="24" height="24"><defs><clipPath id="a"><path data-name="Rectangle 141816" transform="translate(8 152.799)" fill="#5e708d" stroke="#707070" d="M0 0h24v24H0z"/></clipPath></defs><g data-name="Mask Group 1550" transform="translate(-8 -152.799)" clip-path="url(#a)"><g data-name="Layer 2"><g data-name="invisible box"><path data-name="Rectangle 141815" fill="none" d="M8 152.799h24v24H8z"/></g><g data-name="icons Q2" fill="#5e708d"><path data-name="Path 48384" d="M20 155.799a9 9 0 1 1-9 9 9 9 0 0 1 9-9m0-2a10.95 10.95 0 1 0 7.793 3.207A11 11 0 0 0 20 153.799Z"/><path data-name="Path 48385" d="m21.4 164.799 2.8-2.75a1.05 1.05 0 0 0 .1-1.35.95.95 0 0 0-1.5-.1l-2.8 2.8-2.8-2.8a.95.95 0 0 0-1.5.1 1.05 1.05 0 0 0 .1 1.35l2.8 2.75-2.8 2.75a1.05 1.05 0 0 0-.1 1.35.95.95 0 0 0 1.5.1l2.8-2.8 2.8 2.8a.95.95 0 0 0 1.5-.1 1.05 1.05 0 0 0-.1-1.35Z"/></g></g></g></svg>