<svg width="1212" height="66" viewBox="0 0 1212 66" fill="none" xmlns="http://www.w3.org/2000/svg">
<g clip-path="url(#clip0_2036_7908)">
<rect width="1212" height="66" rx="8" fill="url(#paint0_linear_2036_7908)"/>
<ellipse cx="1193.5" cy="33" rx="75.5" ry="75" fill="white" fill-opacity="0.45"/>
<path d="M1192.5 -60C1242.99 -60 1284 -18.6257 1284 32.5C1284 83.6257 1242.99 125 1192.5 125C1142.01 125 1101 83.6257 1101 32.5C1101 -18.6257 1142.01 -60 1192.5 -60Z" stroke="white" stroke-opacity="0.47" stroke-width="8"/>
<path d="M1192.5 -83.5C1255.99 -83.5 1307.5 -31.5928 1307.5 32.5C1307.5 96.5928 1255.99 148.5 1192.5 148.5C1129.01 148.5 1077.5 96.5928 1077.5 32.5C1077.5 -31.5928 1129.01 -83.5 1192.5 -83.5Z" stroke="white" stroke-opacity="0.34" stroke-width="7"/>
<path d="M1192.5 -108.5C1269.81 -108.5 1332.5 -45.3821 1332.5 32.5C1332.5 110.382 1269.81 173.5 1192.5 173.5C1115.19 173.5 1052.5 110.382 1052.5 32.5C1052.5 -45.3821 1115.19 -108.5 1192.5 -108.5Z" stroke="white" stroke-opacity="0.2" stroke-width="3"/>
<path d="M20.02 40V38.86C20.3933 38.86 20.6933 38.7533 20.92 38.54C21.1467 38.3267 21.3333 38.0467 21.48 37.7C21.6267 37.34 21.78 36.94 21.94 36.5L25.92 25.64H27L31.34 36.7C31.42 36.9267 31.5267 37.2467 31.66 37.66C31.7933 38.0733 31.8667 38.4333 31.88 38.74C32.1067 38.7267 32.3267 38.7133 32.54 38.7C32.7533 38.6867 32.94 38.68 33.1 38.68V40H28V38.9C28.4133 38.9 28.6933 38.8133 28.84 38.64C28.9867 38.4667 29.0467 38.24 29.02 37.96C29.0067 37.68 28.94 37.3933 28.82 37.1L28.32 35.74L23.68 35.82L23.24 37.16C23.16 37.3867 23.0667 37.6467 22.96 37.94C22.8533 38.22 22.7467 38.4733 22.64 38.7C22.88 38.6867 23.14 38.6733 23.42 38.66C23.7133 38.6467 23.9467 38.64 24.12 38.64V40H20.02ZM24.12 34.54H27.88L26.8 31.6C26.64 31.1467 26.4867 30.6933 26.34 30.24C26.2067 29.7733 26.0933 29.3467 26 28.96H25.96C25.88 29.2267 25.78 29.5733 25.66 30C25.5533 30.4267 25.4 30.9133 25.2 31.46L24.12 34.54ZM33.6459 38.94C34.0326 38.94 34.3059 38.86 34.4659 38.7C34.6393 38.5267 34.7393 38.2867 34.7659 37.98C34.8059 37.6733 34.8259 37.3267 34.8259 36.94V28.3C34.8259 28.0733 34.8326 27.8267 34.8459 27.56C34.8593 27.28 34.8793 26.9933 34.9059 26.7C34.6793 26.7133 34.4326 26.7267 34.1659 26.74C33.8993 26.7533 33.6726 26.7667 33.4859 26.78V25.48C34.0993 25.48 34.5993 25.4533 34.9859 25.4C35.3859 25.3333 35.6926 25.2533 35.9059 25.16C36.1326 25.0667 36.2926 24.98 36.3859 24.9H37.2859L37.3059 37.14C37.3059 37.3533 37.2993 37.6133 37.2859 37.92C37.2726 38.2133 37.2459 38.5 37.2059 38.78C37.4326 38.7533 37.6659 38.74 37.9059 38.74C38.1459 38.7267 38.3459 38.72 38.5059 38.72V40H33.6459V38.94ZM39.6225 38.94C40.0092 38.94 40.2825 38.86 40.4425 38.7C40.6158 38.5267 40.7158 38.2867 40.7425 37.98C40.7825 37.6733 40.8025 37.3267 40.8025 36.94V28.3C40.8025 28.0733 40.8092 27.8267 40.8225 27.56C40.8358 27.28 40.8558 26.9933 40.8825 26.7C40.6558 26.7133 40.4092 26.7267 40.1425 26.74C39.8758 26.7533 39.6492 26.7667 39.4625 26.78V25.48C40.0758 25.48 40.5758 25.4533 40.9625 25.4C41.3625 25.3333 41.6692 25.2533 41.8825 25.16C42.1092 25.0667 42.2692 24.98 42.3625 24.9H43.2625L43.2825 37.14C43.2825 37.3533 43.2758 37.6133 43.2625 37.92C43.2492 38.2133 43.2225 38.5 43.1825 38.78C43.4092 38.7533 43.6425 38.74 43.8825 38.74C44.1225 38.7267 44.3225 38.72 44.4825 38.72V40H39.6225V38.94ZM51.333 40V38.9C51.7063 38.8867 51.993 38.8267 52.193 38.72C52.393 38.6 52.533 38.4 52.613 38.12C52.693 37.8267 52.733 37.4267 52.733 36.92V28.94C52.733 28.6067 52.7396 28.2867 52.753 27.98C52.7796 27.6733 52.7996 27.4333 52.813 27.26C52.5863 27.2733 52.3263 27.2867 52.033 27.3C51.7396 27.3 51.5063 27.3067 51.333 27.32V26H56.653V27.1C56.293 27.1133 56.0063 27.18 55.793 27.3C55.593 27.4067 55.453 27.6 55.373 27.88C55.293 28.16 55.253 28.56 55.253 29.08V32.2H56.713L58.573 29.14C58.773 28.78 58.9996 28.4133 59.253 28.04C59.5063 27.6667 59.7396 27.4 59.953 27.24C59.7396 27.2533 59.5196 27.2667 59.293 27.28C59.0663 27.28 58.8663 27.2867 58.693 27.3V26H63.393V27.1C63.0196 27.1267 62.6463 27.1933 62.273 27.3C61.8996 27.4067 61.5263 27.62 61.153 27.94C60.7796 28.2467 60.393 28.72 59.993 29.36L58.053 32.46C58.3596 32.6467 58.6196 32.8533 58.833 33.08C59.0596 33.3067 59.2663 33.5467 59.453 33.8L61.573 36.74C61.9196 37.2067 62.2396 37.6 62.533 37.92C62.8396 38.24 63.133 38.48 63.413 38.64C63.7063 38.8 63.9996 38.8867 64.293 38.9V40H61.433C61.313 39.9867 61.133 39.8733 60.893 39.66C60.6663 39.4467 60.4196 39.1867 60.153 38.88C59.8996 38.56 59.6663 38.26 59.453 37.98L57.333 34.98C57.133 34.7 56.9196 34.4267 56.693 34.16C56.4663 33.88 56.253 33.6667 56.053 33.52L55.253 33.54V37.02C55.253 37.38 55.2463 37.7133 55.233 38.02C55.2196 38.3267 55.1996 38.5667 55.173 38.74C55.3996 38.7267 55.6596 38.7133 55.953 38.7C56.2463 38.6867 56.4796 38.68 56.653 38.68V40H51.333ZM69.5067 40.32C68.5467 40.32 67.6934 40.1067 66.9467 39.68C66.2001 39.24 65.6201 38.6267 65.2067 37.84C64.7934 37.04 64.5867 36.1 64.5867 35.02C64.5867 34.0867 64.7934 33.2133 65.2067 32.4C65.6201 31.5867 66.2001 30.9333 66.9467 30.44C67.7067 29.9333 68.5867 29.68 69.5867 29.68C70.1467 29.68 70.6867 29.76 71.2067 29.92C71.7267 30.08 72.1934 30.3467 72.6067 30.72C73.0201 31.0933 73.3467 31.5867 73.5867 32.2C73.8401 32.8133 73.9601 33.56 73.9467 34.44L67.2267 34.56C67.2267 35.3867 67.3201 36.12 67.5067 36.76C67.7067 37.3867 68.0267 37.8867 68.4667 38.26C68.9067 38.62 69.4867 38.8 70.2067 38.8C70.5267 38.8 70.8667 38.7467 71.2267 38.64C71.6001 38.52 71.9667 38.3467 72.3267 38.12C72.6867 37.88 73.0067 37.5867 73.2867 37.24L74.0467 37.94C73.6067 38.58 73.1201 39.0733 72.5867 39.42C72.0534 39.7667 71.5201 40 70.9867 40.12C70.4534 40.2533 69.9601 40.32 69.5067 40.32ZM67.3267 33.36H71.4867C71.4734 32.8267 71.3934 32.38 71.2467 32.02C71.1134 31.6467 70.9134 31.3667 70.6467 31.18C70.3801 30.98 70.0534 30.88 69.6667 30.88C69.0134 30.88 68.4867 31.1 68.0867 31.54C67.7001 31.9667 67.4467 32.5733 67.3267 33.36ZM77.3698 45.42C76.8898 45.42 76.4832 45.2867 76.1498 45.02C75.8165 44.7533 75.6498 44.3867 75.6498 43.92C75.6498 43.6 75.7565 43.3133 75.9698 43.06C76.1832 42.82 76.4565 42.6933 76.7898 42.68C77.0832 42.6667 77.3165 42.76 77.4898 42.96C77.6765 43.1733 77.7698 43.4267 77.7698 43.72C77.7698 43.76 77.7698 43.8 77.7698 43.84C77.7698 43.8933 77.7632 43.9467 77.7498 44C77.7765 44 77.8232 44 77.8898 44C78.0232 43.9733 78.1632 43.8733 78.3098 43.7C78.4698 43.54 78.6165 43.32 78.7498 43.04C78.9098 42.7333 79.0765 42.3533 79.2498 41.9C79.4232 41.46 79.5898 40.9667 79.7498 40.42L76.6098 33.96C76.2498 33.2133 76.0032 32.64 75.8698 32.24C75.7498 31.84 75.6632 31.5067 75.6098 31.24L74.6898 31.28V30H79.3898V31.06H79.3498C78.8432 31.1 78.5632 31.2933 78.5098 31.64C78.4565 31.9733 78.5432 32.3867 78.7698 32.88L80.8698 37.54C81.0565 37.02 81.2632 36.38 81.4898 35.62C81.7298 34.86 81.9965 34.06 82.2898 33.22C82.3565 33.0067 82.4365 32.7733 82.5298 32.52C82.6365 32.2533 82.7432 32 82.8498 31.76C82.9565 31.52 83.0632 31.34 83.1698 31.22L81.9498 31.28V30H85.3698V31.06C84.9298 31.18 84.5765 31.4533 84.3098 31.88C84.0565 32.2933 83.8165 32.8133 83.5898 33.44L81.0898 40.52C80.7032 41.6133 80.3432 42.52 80.0098 43.24C79.6765 43.9733 79.3032 44.52 78.8898 44.88C78.4898 45.24 77.9832 45.42 77.3698 45.42ZM102.483 40.24L95.5431 31.22C95.3965 31.0067 95.2365 30.7933 95.0631 30.58C94.9031 30.3533 94.7431 30.1267 94.5831 29.9H94.5631L94.6031 36.88C94.6031 37.24 94.5965 37.5867 94.5831 37.92C94.5831 38.2533 94.5698 38.5267 94.5431 38.74C94.7698 38.7267 95.0298 38.7133 95.3231 38.7C95.6165 38.6867 95.8498 38.68 96.0231 38.68V40H91.7631V38.9C92.1098 38.8867 92.3765 38.8333 92.5631 38.74C92.7631 38.6333 92.9098 38.46 93.0031 38.22C93.0965 37.9667 93.1431 37.6333 93.1431 37.22L93.1231 28.9C93.1231 28.58 93.1298 28.2733 93.1431 27.98C93.1565 27.6867 93.1698 27.4467 93.1831 27.26C92.9698 27.2733 92.7165 27.2867 92.4231 27.3C92.1298 27.3 91.8965 27.3067 91.7231 27.32V26H94.6031L101.183 34.5C101.463 34.86 101.703 35.18 101.903 35.46C102.116 35.74 102.303 35.9933 102.463 36.22H102.483V28.94C102.483 28.6067 102.49 28.2867 102.503 27.98C102.516 27.6733 102.53 27.4333 102.543 27.26C102.33 27.2733 102.076 27.2867 101.783 27.3C101.49 27.3 101.25 27.3067 101.063 27.32V26H105.343V27.1C104.983 27.1133 104.696 27.18 104.483 27.3C104.283 27.4067 104.143 27.6 104.063 27.88C103.983 28.16 103.943 28.56 103.943 29.08L103.923 40.24H102.483ZM111.284 40.32C110.324 40.32 109.471 40.1067 108.724 39.68C107.977 39.24 107.397 38.6267 106.984 37.84C106.571 37.04 106.364 36.1 106.364 35.02C106.364 34.0867 106.571 33.2133 106.984 32.4C107.397 31.5867 107.977 30.9333 108.724 30.44C109.484 29.9333 110.364 29.68 111.364 29.68C111.924 29.68 112.464 29.76 112.984 29.92C113.504 30.08 113.971 30.3467 114.384 30.72C114.797 31.0933 115.124 31.5867 115.364 32.2C115.617 32.8133 115.737 33.56 115.724 34.44L109.004 34.56C109.004 35.3867 109.097 36.12 109.284 36.76C109.484 37.3867 109.804 37.8867 110.244 38.26C110.684 38.62 111.264 38.8 111.984 38.8C112.304 38.8 112.644 38.7467 113.004 38.64C113.377 38.52 113.744 38.3467 114.104 38.12C114.464 37.88 114.784 37.5867 115.064 37.24L115.824 37.94C115.384 38.58 114.897 39.0733 114.364 39.42C113.831 39.7667 113.297 40 112.764 40.12C112.231 40.2533 111.737 40.32 111.284 40.32ZM109.104 33.36H113.264C113.251 32.8267 113.171 32.38 113.024 32.02C112.891 31.6467 112.691 31.3667 112.424 31.18C112.157 30.98 111.831 30.88 111.444 30.88C110.791 30.88 110.264 31.1 109.864 31.54C109.477 31.9667 109.224 32.5733 109.104 33.36ZM120.446 40.06L117.946 32.88C117.839 32.5467 117.752 32.2933 117.686 32.12C117.619 31.9333 117.572 31.78 117.546 31.66C117.519 31.5267 117.486 31.3867 117.446 31.24L116.566 31.28V30H121.186V31.06C120.706 31.0733 120.432 31.2467 120.366 31.58C120.312 31.9133 120.352 32.3267 120.486 32.82L121.246 35.38C121.339 35.6733 121.426 35.9867 121.506 36.32C121.599 36.64 121.679 36.96 121.746 37.28C121.826 36.9733 121.912 36.6533 122.006 36.32C122.099 35.9733 122.212 35.5733 122.346 35.12L123.926 30H125.646L127.386 35.62C127.479 35.9 127.572 36.2 127.666 36.52C127.759 36.84 127.846 37.14 127.926 37.42C127.992 37.1533 128.072 36.8667 128.166 36.56C128.259 36.24 128.352 35.9467 128.446 35.68L129.406 32.72C129.499 32.4 129.586 32.12 129.666 31.88C129.759 31.64 129.866 31.42 129.986 31.22L128.846 31.28V30H132.526V31.06C132.232 31.06 131.979 31.1333 131.766 31.28C131.566 31.4133 131.392 31.5867 131.246 31.8C131.099 32.0133 130.979 32.2267 130.886 32.44C130.792 32.6533 130.719 32.8467 130.666 33.02L128.186 40.06H126.506L124.946 35.4C124.892 35.2267 124.819 35.0067 124.726 34.74C124.646 34.4733 124.566 34.1933 124.486 33.9C124.406 33.6067 124.326 33.3267 124.246 33.06C124.166 33.38 124.066 33.74 123.946 34.14C123.839 34.54 123.732 34.9133 123.626 35.26C123.519 35.6067 123.432 35.8667 123.366 36.04L122.006 40.06H120.446ZM137.858 40.32C137.245 40.32 136.671 40.24 136.138 40.08C135.605 39.92 135.178 39.7267 134.858 39.5L134.918 40.14H133.618L133.518 36.7H134.598C134.638 37.1533 134.798 37.5667 135.078 37.94C135.358 38.3 135.718 38.5867 136.158 38.8C136.611 39 137.111 39.1 137.658 39.1C137.925 39.1 138.178 39.06 138.418 38.98C138.671 38.9 138.878 38.7733 139.038 38.6C139.211 38.4133 139.298 38.18 139.298 37.9C139.298 37.6067 139.198 37.3667 138.998 37.18C138.811 36.9933 138.545 36.82 138.198 36.66C137.851 36.5 137.445 36.3333 136.978 36.16C136.565 36 136.151 35.8333 135.738 35.66C135.325 35.4867 134.945 35.28 134.598 35.04C134.251 34.7867 133.971 34.48 133.758 34.12C133.545 33.76 133.438 33.32 133.438 32.8C133.438 32.44 133.505 32.08 133.638 31.72C133.771 31.36 133.985 31.0267 134.278 30.72C134.571 30.4 134.945 30.1467 135.398 29.96C135.865 29.7733 136.431 29.68 137.098 29.68C137.458 29.68 137.865 29.74 138.318 29.86C138.771 29.9667 139.171 30.1533 139.518 30.42L139.498 29.78H140.798V33.3H139.718C139.651 32.8333 139.505 32.42 139.278 32.06C139.051 31.6867 138.751 31.3933 138.378 31.18C138.005 30.9667 137.558 30.86 137.038 30.86C136.611 30.86 136.251 30.9667 135.958 31.18C135.665 31.38 135.518 31.68 135.518 32.08C135.518 32.4133 135.631 32.6867 135.858 32.9C136.085 33.1133 136.391 33.2933 136.778 33.44C137.165 33.5867 137.585 33.7467 138.038 33.92C138.665 34.1333 139.231 34.3867 139.738 34.68C140.258 34.9733 140.671 35.3267 140.978 35.74C141.285 36.1533 141.438 36.6667 141.438 37.28C141.438 37.9733 141.265 38.5467 140.918 39C140.571 39.44 140.125 39.7733 139.578 40C139.031 40.2133 138.458 40.32 137.858 40.32Z" fill="#1A1A1A"/>
<g clip-path="url(#clip1_2036_7908)">
<path d="M1130.4 29.6699L1146.61 79.9732C1147.89 83.942 1152.14 86.1229 1156.11 84.8444L1199.22 70.9548L1206.41 68.6399C1210.38 67.3614 1212.56 63.1076 1211.28 59.1388L1199.71 23.2079L1185.34 27.8378" stroke="#B9B9B9" stroke-width="7.54983" stroke-linecap="round" stroke-linejoin="round"/>
<path d="M1130.4 29.6699L1180.71 13.4654L1196.91 63.7687C1198.19 67.7375 1202.44 69.9184 1206.41 68.6399V68.6399" stroke="#B9B9B9" stroke-width="7.54983" stroke-linecap="round" stroke-linejoin="round"/>
<path d="M1170.96 32.4732L1149.4 39.418" stroke="#B9B9B9" stroke-width="7.54983" stroke-linecap="round" stroke-linejoin="round"/>
<path d="M1175.59 46.8428L1161.22 51.4727" stroke="#B9B9B9" stroke-width="7.54983" stroke-linecap="round" stroke-linejoin="round"/>
</g>
</g>
<defs>
<linearGradient id="paint0_linear_2036_7908" x1="0" y1="33" x2="1212" y2="33" gradientUnits="userSpaceOnUse">
<stop stop-color="#F5F5F5"/>
<stop offset="1" stop-color="#DCDCDC"/>
</linearGradient>
<clipPath id="clip0_2036_7908">
<rect width="1212" height="66" rx="8" fill="white"/>
</clipPath>
<clipPath id="clip1_2036_7908">
<rect width="90.598" height="90.598" fill="white" transform="translate(1114.99 18.7734) rotate(-17.8556)"/>
</clipPath>
</defs>
</svg>
