<svg width="1212" height="66" viewBox="0 0 1212 66" fill="none" xmlns="http://www.w3.org/2000/svg">
<g clip-path="url(#clip0_2036_8908)">
<rect width="1212" height="66" rx="8" fill="url(#paint0_linear_2036_8908)"/>
<ellipse cx="1193.5" cy="33" rx="75.5" ry="75" fill="white" fill-opacity="0.45"/>
<path d="M1192.5 -60C1242.99 -60 1284 -18.6257 1284 32.5C1284 83.6257 1242.99 125 1192.5 125C1142.01 125 1101 83.6257 1101 32.5C1101 -18.6257 1142.01 -60 1192.5 -60Z" stroke="white" stroke-opacity="0.47" stroke-width="8"/>
<path d="M1192.5 -83.5C1255.99 -83.5 1307.5 -31.5928 1307.5 32.5C1307.5 96.5928 1255.99 148.5 1192.5 148.5C1129.01 148.5 1077.5 96.5928 1077.5 32.5C1077.5 -31.5928 1129.01 -83.5 1192.5 -83.5Z" stroke="white" stroke-opacity="0.34" stroke-width="7"/>
<path d="M1192.5 -108.5C1269.81 -108.5 1332.5 -45.3821 1332.5 32.5C1332.5 110.382 1269.81 173.5 1192.5 173.5C1115.19 173.5 1052.5 110.382 1052.5 32.5C1052.5 -45.3821 1115.19 -108.5 1192.5 -108.5Z" stroke="white" stroke-opacity="0.2" stroke-width="3"/>
<path d="M31.6 30.48C31.44 29.32 31.0467 28.44 30.42 27.84C29.7933 27.2267 28.98 26.92 27.98 26.92C27.2733 26.92 26.64 27.08 26.08 27.4C25.5333 27.7067 25.0667 28.1333 24.68 28.68C24.3067 29.2133 24.02 29.84 23.82 30.56C23.62 31.2667 23.52 32.0267 23.52 32.84C23.52 34.0267 23.7067 35.0733 24.08 35.98C24.4667 36.8867 25 37.6 25.68 38.12C26.3733 38.64 27.18 38.9 28.1 38.9C28.9533 38.9 29.7933 38.6933 30.62 38.28C31.46 37.8533 32.1533 37.2533 32.7 36.48L33.52 37.22C32.8933 38.0733 32.2267 38.7267 31.52 39.18C30.8133 39.62 30.12 39.92 29.44 40.08C28.7733 40.24 28.1667 40.32 27.62 40.32C26.5933 40.32 25.66 40.14 24.82 39.78C23.9933 39.4067 23.2733 38.9 22.66 38.26C22.06 37.6067 21.5933 36.8533 21.26 36C20.94 35.1333 20.78 34.2 20.78 33.2C20.78 32.28 20.92 31.3733 21.2 30.48C21.4933 29.5867 21.9267 28.78 22.5 28.06C23.0867 27.34 23.82 26.7667 24.7 26.34C25.58 25.9 26.6 25.68 27.76 25.68C28.3467 25.68 28.96 25.7733 29.6 25.96C30.24 26.1333 30.84 26.3933 31.4 26.74L31.32 25.82H32.7V30.48H31.6ZM39.6077 40.32C38.661 40.32 37.801 40.1133 37.0277 39.7C36.2543 39.2733 35.641 38.68 35.1877 37.92C34.7477 37.1467 34.5277 36.2467 34.5277 35.22C34.5277 34.14 34.7543 33.18 35.2077 32.34C35.661 31.5 36.2677 30.8467 37.0277 30.38C37.801 29.9133 38.6477 29.68 39.5677 29.68C40.5143 29.68 41.3677 29.8933 42.1277 30.32C42.8877 30.7467 43.4877 31.34 43.9277 32.1C44.381 32.86 44.6077 33.76 44.6077 34.8C44.6077 35.8933 44.3877 36.86 43.9477 37.7C43.521 38.5267 42.9277 39.1733 42.1677 39.64C41.421 40.0933 40.5677 40.32 39.6077 40.32ZM39.7077 39.1C40.3077 39.1 40.7677 38.9133 41.0877 38.54C41.4077 38.1667 41.6277 37.6933 41.7477 37.12C41.881 36.5333 41.9477 35.9333 41.9477 35.32C41.9477 34.8 41.901 34.2733 41.8077 33.74C41.7277 33.2067 41.5943 32.7267 41.4077 32.3C41.221 31.86 40.9743 31.5133 40.6677 31.26C40.361 30.9933 39.9877 30.86 39.5477 30.86C38.961 30.8733 38.4943 31.0667 38.1477 31.44C37.801 31.8133 37.5477 32.2867 37.3877 32.86C37.241 33.4333 37.1677 34.04 37.1677 34.68C37.1677 35.4 37.2543 36.1067 37.4277 36.8C37.601 37.48 37.8743 38.04 38.2477 38.48C38.621 38.9067 39.1077 39.1133 39.7077 39.1ZM46.133 38.94C46.5196 38.94 46.793 38.86 46.953 38.7C47.113 38.5267 47.213 38.2867 47.253 37.98C47.293 37.6733 47.313 37.3267 47.313 36.94V33.18C47.313 32.94 47.3196 32.6867 47.333 32.42C47.3463 32.1533 47.3663 31.88 47.393 31.6C47.1663 31.6133 46.9196 31.6267 46.653 31.64C46.3863 31.64 46.1663 31.6467 45.993 31.66V30.38H46.733C47.2663 30.38 47.713 30.32 48.073 30.2C48.433 30.0667 48.6863 29.9333 48.833 29.8H49.673C49.6996 29.96 49.7196 30.2133 49.733 30.56C49.7463 30.9067 49.753 31.2533 49.753 31.6C50.0596 31.2 50.3796 30.86 50.713 30.58C51.0463 30.2867 51.3863 30.0667 51.733 29.92C52.093 29.76 52.4596 29.68 52.833 29.68C53.2596 29.68 53.633 29.8 53.953 30.04C54.2863 30.28 54.453 30.6667 54.453 31.2C54.453 31.3733 54.4063 31.56 54.313 31.76C54.233 31.96 54.0996 32.1267 53.913 32.26C53.7396 32.3933 53.4996 32.46 53.193 32.46C52.913 32.46 52.6463 32.3733 52.393 32.2C52.153 32.0133 52.0263 31.72 52.013 31.32C51.733 31.3067 51.4396 31.4067 51.133 31.62C50.8396 31.8333 50.573 32.0933 50.333 32.4C50.093 32.7067 49.9063 33.02 49.773 33.34L49.793 37.14C49.793 37.3533 49.7863 37.6133 49.773 37.92C49.7596 38.2133 49.7396 38.5 49.713 38.78C49.9263 38.7533 50.153 38.74 50.393 38.74C50.633 38.7267 50.833 38.72 50.993 38.72V40H46.133V38.94ZM55.2103 45.1V44.04C55.597 44.04 55.8703 43.9533 56.0303 43.78C56.2036 43.62 56.3103 43.3867 56.3503 43.08C56.3903 42.7733 56.4103 42.4267 56.4103 42.04L56.4303 33.18C56.4303 32.94 56.4303 32.6867 56.4303 32.42C56.4436 32.1533 56.4703 31.88 56.5103 31.6C56.2836 31.6133 56.0303 31.6267 55.7503 31.64C55.4836 31.6533 55.2636 31.6667 55.0903 31.68V30.38C55.7036 30.38 56.197 30.3533 56.5703 30.3C56.957 30.2333 57.2503 30.1533 57.4503 30.06C57.6636 29.9667 57.817 29.88 57.9103 29.8H58.7703C58.797 29.9333 58.817 30.0933 58.8303 30.28C58.8436 30.4667 58.857 30.64 58.8703 30.8C59.3103 30.4133 59.777 30.1333 60.2703 29.96C60.7636 29.7733 61.237 29.68 61.6903 29.68C62.4903 29.68 63.2036 29.8867 63.8303 30.3C64.457 30.7 64.9503 31.28 65.3103 32.04C65.6703 32.7867 65.8503 33.6733 65.8503 34.7C65.8503 35.7933 65.6303 36.7667 65.1903 37.62C64.7636 38.46 64.177 39.12 63.4303 39.6C62.6836 40.08 61.8236 40.32 60.8503 40.32C60.4503 40.32 60.0903 40.2733 59.7703 40.18C59.4503 40.1 59.1503 39.9933 58.8703 39.86V42.24C58.8703 42.4533 58.8636 42.7067 58.8503 43C58.8503 43.3067 58.8303 43.6 58.7903 43.88C59.0036 43.8533 59.2303 43.8333 59.4703 43.82C59.7103 43.82 59.9103 43.82 60.0703 43.82V45.1H55.2103ZM60.6303 39.06C61.2436 39.0467 61.737 38.86 62.1103 38.5C62.497 38.1267 62.777 37.6333 62.9503 37.02C63.1236 36.4067 63.2103 35.74 63.2103 35.02C63.2103 34.3667 63.1236 33.7467 62.9503 33.16C62.7903 32.5733 62.5303 32.1 62.1703 31.74C61.8103 31.38 61.3303 31.2 60.7303 31.2C60.357 31.2133 60.0036 31.3067 59.6703 31.48C59.3503 31.6533 59.0836 31.88 58.8703 32.16C58.8703 32.4533 58.8703 32.7533 58.8703 33.06C58.8703 33.3667 58.8703 33.6933 58.8703 34.04C58.8703 34.3867 58.8703 34.78 58.8703 35.22C58.8703 35.6467 58.8703 36.1333 58.8703 36.68C58.8703 37.2267 58.8703 37.8533 58.8703 38.56C59.0836 38.7067 59.3436 38.8267 59.6503 38.92C59.957 39.0133 60.2836 39.06 60.6303 39.06ZM72.3225 40.32C71.3758 40.32 70.5158 40.1133 69.7425 39.7C68.9692 39.2733 68.3558 38.68 67.9025 37.92C67.4625 37.1467 67.2425 36.2467 67.2425 35.22C67.2425 34.14 67.4692 33.18 67.9225 32.34C68.3758 31.5 68.9825 30.8467 69.7425 30.38C70.5158 29.9133 71.3625 29.68 72.2825 29.68C73.2292 29.68 74.0825 29.8933 74.8425 30.32C75.6025 30.7467 76.2025 31.34 76.6425 32.1C77.0958 32.86 77.3225 33.76 77.3225 34.8C77.3225 35.8933 77.1025 36.86 76.6625 37.7C76.2358 38.5267 75.6425 39.1733 74.8825 39.64C74.1358 40.0933 73.2825 40.32 72.3225 40.32ZM72.4225 39.1C73.0225 39.1 73.4825 38.9133 73.8025 38.54C74.1225 38.1667 74.3425 37.6933 74.4625 37.12C74.5958 36.5333 74.6625 35.9333 74.6625 35.32C74.6625 34.8 74.6158 34.2733 74.5225 33.74C74.4425 33.2067 74.3092 32.7267 74.1225 32.3C73.9358 31.86 73.6892 31.5133 73.3825 31.26C73.0758 30.9933 72.7025 30.86 72.2625 30.86C71.6758 30.8733 71.2092 31.0667 70.8625 31.44C70.5158 31.8133 70.2625 32.2867 70.1025 32.86C69.9558 33.4333 69.8825 34.04 69.8825 34.68C69.8825 35.4 69.9692 36.1067 70.1425 36.8C70.3158 37.48 70.5892 38.04 70.9625 38.48C71.3358 38.9067 71.8225 39.1133 72.4225 39.1ZM78.8478 38.94C79.2345 38.94 79.5078 38.86 79.6678 38.7C79.8278 38.5267 79.9278 38.2867 79.9678 37.98C80.0078 37.6733 80.0278 37.3267 80.0278 36.94V33.18C80.0278 32.94 80.0345 32.6867 80.0478 32.42C80.0611 32.1533 80.0811 31.88 80.1078 31.6C79.8811 31.6133 79.6345 31.6267 79.3678 31.64C79.1011 31.64 78.8811 31.6467 78.7078 31.66V30.38H79.4478C79.9811 30.38 80.4278 30.32 80.7878 30.2C81.1478 30.0667 81.4011 29.9333 81.5478 29.8H82.3878C82.4145 29.96 82.4345 30.2133 82.4478 30.56C82.4611 30.9067 82.4678 31.2533 82.4678 31.6C82.7745 31.2 83.0945 30.86 83.4278 30.58C83.7611 30.2867 84.1011 30.0667 84.4478 29.92C84.8078 29.76 85.1745 29.68 85.5478 29.68C85.9745 29.68 86.3478 29.8 86.6678 30.04C87.0011 30.28 87.1678 30.6667 87.1678 31.2C87.1678 31.3733 87.1211 31.56 87.0278 31.76C86.9478 31.96 86.8145 32.1267 86.6278 32.26C86.4545 32.3933 86.2145 32.46 85.9078 32.46C85.6278 32.46 85.3611 32.3733 85.1078 32.2C84.8678 32.0133 84.7411 31.72 84.7278 31.32C84.4478 31.3067 84.1545 31.4067 83.8478 31.62C83.5545 31.8333 83.2878 32.0933 83.0478 32.4C82.8078 32.7067 82.6211 33.02 82.4878 33.34L82.5078 37.14C82.5078 37.3533 82.5011 37.6133 82.4878 37.92C82.4745 38.2133 82.4545 38.5 82.4278 38.78C82.6411 38.7533 82.8678 38.74 83.1078 38.74C83.3478 38.7267 83.5478 38.72 83.7078 38.72V40H78.8478V38.94ZM93.748 40C93.708 39.8 93.6813 39.6333 93.668 39.5C93.668 39.3533 93.6613 39.1867 93.648 39C93.1946 39.4533 92.708 39.7867 92.188 40C91.6813 40.2133 91.1546 40.32 90.608 40.32C89.7013 40.32 89.0013 40.0733 88.508 39.58C88.028 39.0867 87.788 38.48 87.788 37.76C87.788 37.12 87.9613 36.58 88.308 36.14C88.6546 35.6867 89.108 35.32 89.668 35.04C90.228 34.7467 90.848 34.5267 91.528 34.38C92.208 34.22 92.8813 34.1333 93.548 34.12V33.02C93.548 32.6333 93.5013 32.28 93.408 31.96C93.328 31.6267 93.1746 31.3667 92.948 31.18C92.7213 30.98 92.388 30.88 91.948 30.88C91.6546 30.8933 91.3546 30.96 91.048 31.08C90.7546 31.1867 90.5213 31.36 90.348 31.6C90.4546 31.72 90.5213 31.8533 90.548 32C90.5746 32.1333 90.588 32.2533 90.588 32.36C90.588 32.6 90.4946 32.8533 90.308 33.12C90.1213 33.3733 89.8213 33.4933 89.408 33.48C89.048 33.4667 88.768 33.34 88.568 33.1C88.3813 32.86 88.288 32.5733 88.288 32.24C88.288 31.7333 88.468 31.2933 88.828 30.92C89.2013 30.5333 89.7013 30.2333 90.328 30.02C90.9546 29.7933 91.6546 29.68 92.428 29.68C93.5746 29.68 94.4546 29.98 95.068 30.58C95.6813 31.18 95.9813 32.14 95.968 33.46C95.968 33.9267 95.968 34.3533 95.968 34.74C95.968 35.1133 95.9613 35.4933 95.948 35.88C95.948 36.2533 95.948 36.6733 95.948 37.14C95.948 37.34 95.9413 37.5933 95.928 37.9C95.9146 38.1933 95.8946 38.4867 95.868 38.78C96.108 38.7533 96.348 38.74 96.588 38.74C96.8413 38.7267 97.048 38.7133 97.208 38.7V40H93.748ZM93.528 35.3C93.128 35.3267 92.7346 35.3933 92.348 35.5C91.9613 35.5933 91.6146 35.7267 91.308 35.9C91.0013 36.0733 90.7546 36.2933 90.568 36.56C90.3946 36.8133 90.3146 37.1067 90.328 37.44C90.3413 37.8533 90.4746 38.16 90.728 38.36C90.9813 38.5467 91.2746 38.64 91.608 38.64C91.9946 38.64 92.3413 38.56 92.648 38.4C92.968 38.24 93.2613 38.0267 93.528 37.76C93.528 37.6267 93.528 37.4867 93.528 37.34C93.528 37.1933 93.528 37.0467 93.528 36.9C93.528 36.7133 93.528 36.48 93.528 36.2C93.528 35.92 93.528 35.62 93.528 35.3ZM102.24 40.32C101.867 40.32 101.5 40.2733 101.14 40.18C100.793 40.0867 100.473 39.9133 100.18 39.66C99.9 39.4067 99.6733 39.0333 99.5 38.54C99.3267 38.0333 99.24 37.3667 99.24 36.54L99.28 31.38L97.86 31.4V30C98.26 29.9867 98.6467 29.8533 99.02 29.6C99.3933 29.3333 99.72 28.9867 100 28.56C100.28 28.1333 100.467 27.68 100.56 27.2H101.78L101.76 30H104.58V31.28L101.76 31.34L101.74 36.48C101.74 36.88 101.773 37.2533 101.84 37.6C101.92 37.9333 102.053 38.2 102.24 38.4C102.44 38.6 102.707 38.7 103.04 38.7C103.293 38.7 103.58 38.62 103.9 38.46C104.233 38.3 104.567 37.98 104.9 37.5L105.72 38.24C105.387 38.7467 105.04 39.14 104.68 39.42C104.333 39.7 103.993 39.9067 103.66 40.04C103.34 40.1733 103.053 40.2533 102.8 40.28C102.547 40.3067 102.36 40.32 102.24 40.32ZM111.206 40.32C110.246 40.32 109.393 40.1067 108.646 39.68C107.899 39.24 107.319 38.6267 106.906 37.84C106.493 37.04 106.286 36.1 106.286 35.02C106.286 34.0867 106.493 33.2133 106.906 32.4C107.319 31.5867 107.899 30.9333 108.646 30.44C109.406 29.9333 110.286 29.68 111.286 29.68C111.846 29.68 112.386 29.76 112.906 29.92C113.426 30.08 113.893 30.3467 114.306 30.72C114.719 31.0933 115.046 31.5867 115.286 32.2C115.539 32.8133 115.659 33.56 115.646 34.44L108.926 34.56C108.926 35.3867 109.019 36.12 109.206 36.76C109.406 37.3867 109.726 37.8867 110.166 38.26C110.606 38.62 111.186 38.8 111.906 38.8C112.226 38.8 112.566 38.7467 112.926 38.64C113.299 38.52 113.666 38.3467 114.026 38.12C114.386 37.88 114.706 37.5867 114.986 37.24L115.746 37.94C115.306 38.58 114.819 39.0733 114.286 39.42C113.753 39.7667 113.219 40 112.686 40.12C112.153 40.2533 111.659 40.32 111.206 40.32ZM109.026 33.36H113.186C113.173 32.8267 113.093 32.38 112.946 32.02C112.813 31.6467 112.613 31.3667 112.346 31.18C112.079 30.98 111.753 30.88 111.366 30.88C110.713 30.88 110.186 31.1 109.786 31.54C109.399 31.9667 109.146 32.5733 109.026 33.36ZM130.661 30.4C130.568 29.6933 130.374 29.08 130.081 28.56C129.788 28.0267 129.394 27.62 128.901 27.34C128.421 27.0467 127.841 26.9 127.161 26.9C126.508 26.9 125.961 27.0867 125.521 27.46C125.094 27.8333 124.881 28.2933 124.881 28.84C124.881 29.2933 125.008 29.6867 125.261 30.02C125.528 30.3533 125.908 30.66 126.401 30.94C126.894 31.2067 127.481 31.4867 128.161 31.78C128.668 31.9933 129.181 32.2333 129.701 32.5C130.221 32.7533 130.701 33.06 131.141 33.42C131.581 33.78 131.934 34.2 132.201 34.68C132.481 35.1467 132.621 35.7067 132.621 36.36C132.621 37.1333 132.414 37.82 132.001 38.42C131.601 39.02 131.028 39.4867 130.281 39.82C129.534 40.1533 128.654 40.32 127.641 40.32C127.081 40.32 126.488 40.2333 125.861 40.06C125.234 39.9 124.661 39.6533 124.141 39.32L124.201 40.18H122.841L122.801 35.64H123.941C124.088 36.7733 124.508 37.6333 125.201 38.22C125.894 38.7933 126.728 39.08 127.701 39.08C128.194 39.08 128.634 38.9933 129.021 38.82C129.408 38.6333 129.708 38.3867 129.921 38.08C130.148 37.76 130.261 37.4 130.261 37C130.261 36.48 130.101 36.0533 129.781 35.72C129.461 35.3867 129.054 35.1 128.561 34.86C128.068 34.62 127.554 34.3867 127.021 34.16C126.421 33.9067 125.854 33.64 125.321 33.36C124.788 33.0667 124.314 32.74 123.901 32.38C123.501 32.0067 123.181 31.58 122.941 31.1C122.714 30.62 122.601 30.0533 122.601 29.4C122.601 29.0133 122.674 28.6067 122.821 28.18C122.968 27.74 123.208 27.3333 123.541 26.96C123.888 26.5867 124.348 26.28 124.921 26.04C125.494 25.8 126.208 25.68 127.061 25.68C127.594 25.68 128.174 25.76 128.801 25.92C129.441 26.0667 130.001 26.3133 130.481 26.66L130.401 25.82H131.781V30.4H130.661ZM139.139 40.32C138.192 40.32 137.332 40.1133 136.559 39.7C135.786 39.2733 135.172 38.68 134.719 37.92C134.279 37.1467 134.059 36.2467 134.059 35.22C134.059 34.14 134.286 33.18 134.739 32.34C135.192 31.5 135.799 30.8467 136.559 30.38C137.332 29.9133 138.179 29.68 139.099 29.68C140.046 29.68 140.899 29.8933 141.659 30.32C142.419 30.7467 143.019 31.34 143.459 32.1C143.912 32.86 144.139 33.76 144.139 34.8C144.139 35.8933 143.919 36.86 143.479 37.7C143.052 38.5267 142.459 39.1733 141.699 39.64C140.952 40.0933 140.099 40.32 139.139 40.32ZM139.239 39.1C139.839 39.1 140.299 38.9133 140.619 38.54C140.939 38.1667 141.159 37.6933 141.279 37.12C141.412 36.5333 141.479 35.9333 141.479 35.32C141.479 34.8 141.432 34.2733 141.339 33.74C141.259 33.2067 141.126 32.7267 140.939 32.3C140.752 31.86 140.506 31.5133 140.199 31.26C139.892 30.9933 139.519 30.86 139.079 30.86C138.492 30.8733 138.026 31.0667 137.679 31.44C137.332 31.8133 137.079 32.2867 136.919 32.86C136.772 33.4333 136.699 34.04 136.699 34.68C136.699 35.4 136.786 36.1067 136.959 36.8C137.132 37.48 137.406 38.04 137.779 38.48C138.152 38.9067 138.639 39.1133 139.239 39.1ZM150.444 40.32C149.551 40.32 148.724 40.12 147.964 39.72C147.218 39.32 146.618 38.74 146.164 37.98C145.724 37.2067 145.504 36.28 145.504 35.2C145.504 34.4667 145.631 33.7733 145.884 33.12C146.138 32.4533 146.491 31.8667 146.944 31.36C147.411 30.84 147.964 30.4333 148.604 30.14C149.244 29.8333 149.951 29.68 150.724 29.68C151.538 29.68 152.224 29.8067 152.784 30.06C153.344 30.3 153.771 30.6267 154.064 31.04C154.358 31.44 154.504 31.8667 154.504 32.32C154.504 32.68 154.398 32.9933 154.184 33.26C153.984 33.5267 153.691 33.6667 153.304 33.68C152.851 33.6933 152.531 33.5667 152.344 33.3C152.171 33.02 152.084 32.76 152.084 32.52C152.084 32.3867 152.104 32.2467 152.144 32.1C152.184 31.94 152.251 31.7933 152.344 31.66C152.251 31.42 152.098 31.2467 151.884 31.14C151.671 31.02 151.451 30.94 151.224 30.9C150.998 30.86 150.818 30.8467 150.684 30.86C149.951 30.8867 149.344 31.22 148.864 31.86C148.384 32.5 148.144 33.4333 148.144 34.66C148.144 35.3933 148.244 36.0733 148.444 36.7C148.658 37.3133 148.978 37.8133 149.404 38.2C149.831 38.5733 150.378 38.7667 151.044 38.78C151.631 38.7933 152.198 38.6533 152.744 38.36C153.291 38.0533 153.738 37.66 154.084 37.18L154.884 37.92C154.444 38.5467 153.971 39.0333 153.464 39.38C152.958 39.7267 152.444 39.9667 151.924 40.1C151.418 40.2467 150.924 40.32 150.444 40.32ZM156.133 38.94C156.52 38.94 156.793 38.86 156.953 38.7C157.113 38.5267 157.213 38.2867 157.253 37.98C157.293 37.6733 157.313 37.3267 157.313 36.94V33.2C157.313 32.9733 157.32 32.7267 157.333 32.46C157.346 32.18 157.366 31.8933 157.393 31.6C157.166 31.6133 156.92 31.6267 156.653 31.64C156.386 31.6533 156.166 31.6667 155.993 31.68V30.38C156.593 30.38 157.086 30.3533 157.473 30.3C157.873 30.2333 158.18 30.1533 158.393 30.06C158.62 29.9667 158.78 29.88 158.873 29.8H159.773V37.14C159.773 37.3533 159.766 37.6133 159.753 37.92C159.753 38.2133 159.733 38.5 159.693 38.78C159.906 38.7533 160.133 38.74 160.373 38.74C160.626 38.7267 160.833 38.72 160.993 38.72V40H156.133V38.94ZM158.433 28.08C158.046 28.08 157.72 27.94 157.453 27.66C157.186 27.3667 157.053 27.0133 157.053 26.6C157.053 26.1867 157.186 25.8333 157.453 25.54C157.733 25.2467 158.06 25.1 158.433 25.1C158.82 25.1 159.14 25.2467 159.393 25.54C159.66 25.8333 159.793 26.1867 159.793 26.6C159.793 27.0133 159.666 27.3667 159.413 27.66C159.16 27.94 158.833 28.08 158.433 28.08ZM168.103 40C168.063 39.8 168.037 39.6333 168.023 39.5C168.023 39.3533 168.017 39.1867 168.003 39C167.55 39.4533 167.063 39.7867 166.543 40C166.037 40.2133 165.51 40.32 164.963 40.32C164.057 40.32 163.357 40.0733 162.863 39.58C162.383 39.0867 162.143 38.48 162.143 37.76C162.143 37.12 162.317 36.58 162.663 36.14C163.01 35.6867 163.463 35.32 164.023 35.04C164.583 34.7467 165.203 34.5267 165.883 34.38C166.563 34.22 167.237 34.1333 167.903 34.12V33.02C167.903 32.6333 167.857 32.28 167.763 31.96C167.683 31.6267 167.53 31.3667 167.303 31.18C167.077 30.98 166.743 30.88 166.303 30.88C166.01 30.8933 165.71 30.96 165.403 31.08C165.11 31.1867 164.877 31.36 164.703 31.6C164.81 31.72 164.877 31.8533 164.903 32C164.93 32.1333 164.943 32.2533 164.943 32.36C164.943 32.6 164.85 32.8533 164.663 33.12C164.477 33.3733 164.177 33.4933 163.763 33.48C163.403 33.4667 163.123 33.34 162.923 33.1C162.737 32.86 162.643 32.5733 162.643 32.24C162.643 31.7333 162.823 31.2933 163.183 30.92C163.557 30.5333 164.057 30.2333 164.683 30.02C165.31 29.7933 166.01 29.68 166.783 29.68C167.93 29.68 168.81 29.98 169.423 30.58C170.037 31.18 170.337 32.14 170.323 33.46C170.323 33.9267 170.323 34.3533 170.323 34.74C170.323 35.1133 170.317 35.4933 170.303 35.88C170.303 36.2533 170.303 36.6733 170.303 37.14C170.303 37.34 170.297 37.5933 170.283 37.9C170.27 38.1933 170.25 38.4867 170.223 38.78C170.463 38.7533 170.703 38.74 170.943 38.74C171.197 38.7267 171.403 38.7133 171.563 38.7V40H168.103ZM167.883 35.3C167.483 35.3267 167.09 35.3933 166.703 35.5C166.317 35.5933 165.97 35.7267 165.663 35.9C165.357 36.0733 165.11 36.2933 164.923 36.56C164.75 36.8133 164.67 37.1067 164.683 37.44C164.697 37.8533 164.83 38.16 165.083 38.36C165.337 38.5467 165.63 38.64 165.963 38.64C166.35 38.64 166.697 38.56 167.003 38.4C167.323 38.24 167.617 38.0267 167.883 37.76C167.883 37.6267 167.883 37.4867 167.883 37.34C167.883 37.1933 167.883 37.0467 167.883 36.9C167.883 36.7133 167.883 36.48 167.883 36.2C167.883 35.92 167.883 35.62 167.883 35.3ZM172.513 38.94C172.9 38.94 173.173 38.86 173.333 38.7C173.506 38.5267 173.606 38.2867 173.633 37.98C173.673 37.6733 173.693 37.3267 173.693 36.94V28.3C173.693 28.0733 173.7 27.8267 173.713 27.56C173.726 27.28 173.746 26.9933 173.773 26.7C173.546 26.7133 173.3 26.7267 173.033 26.74C172.766 26.7533 172.54 26.7667 172.353 26.78V25.48C172.966 25.48 173.466 25.4533 173.853 25.4C174.253 25.3333 174.56 25.2533 174.773 25.16C175 25.0667 175.16 24.98 175.253 24.9H176.153L176.173 37.14C176.173 37.3533 176.166 37.6133 176.153 37.92C176.14 38.2133 176.113 38.5 176.073 38.78C176.3 38.7533 176.533 38.74 176.773 38.74C177.013 38.7267 177.213 38.72 177.373 38.72V40H172.513V38.94ZM184.224 40V38.9C184.597 38.8867 184.884 38.8267 185.084 38.72C185.284 38.6 185.424 38.4 185.504 38.12C185.584 37.8267 185.624 37.4267 185.624 36.92V28.94C185.624 28.6067 185.63 28.2867 185.644 27.98C185.67 27.6733 185.69 27.4333 185.704 27.26C185.477 27.2733 185.217 27.2867 184.924 27.3C184.63 27.3 184.397 27.3067 184.224 27.32V26C185.104 25.9867 185.984 25.98 186.864 25.98C187.757 25.9667 188.644 25.96 189.524 25.96C190.737 25.96 191.764 26.1 192.604 26.38C193.457 26.66 194.097 27.1 194.524 27.7C194.964 28.2867 195.177 29.06 195.164 30.02C195.15 30.5667 195.024 31.1 194.784 31.62C194.544 32.14 194.164 32.6 193.644 33C193.124 33.4 192.43 33.7133 191.564 33.94C191.817 34.0733 192.057 34.2667 192.284 34.52C192.524 34.7733 192.744 35.0533 192.944 35.36L194.024 37.02C194.29 37.4333 194.537 37.78 194.764 38.06C194.99 38.3267 195.224 38.5333 195.464 38.68C195.704 38.8133 195.99 38.8867 196.324 38.9V40H193.284C193.004 39.7733 192.737 39.4933 192.484 39.16C192.244 38.8267 191.99 38.44 191.724 38L190.284 35.7C190.11 35.42 189.944 35.16 189.784 34.92C189.637 34.6667 189.47 34.4533 189.284 34.28C189.07 34.2933 188.877 34.3 188.704 34.3C188.53 34.3 188.344 34.2933 188.144 34.28V37C188.144 37.3733 188.137 37.7133 188.124 38.02C188.11 38.3267 188.09 38.5667 188.064 38.74C188.21 38.7267 188.384 38.72 188.584 38.72C188.797 38.7067 189.004 38.7 189.204 38.7C189.404 38.6867 189.564 38.68 189.684 38.68V40H184.224ZM189.184 33.08C189.93 33.0667 190.544 32.9533 191.024 32.74C191.517 32.5267 191.884 32.1933 192.124 31.74C192.377 31.2867 192.504 30.7067 192.504 30C192.504 29.4 192.41 28.9133 192.224 28.54C192.05 28.1667 191.81 27.88 191.504 27.68C191.21 27.48 190.884 27.3467 190.524 27.28C190.177 27.2 189.83 27.16 189.484 27.16C189.137 27.16 188.864 27.2133 188.664 27.32C188.464 27.4267 188.324 27.62 188.244 27.9C188.177 28.1667 188.144 28.5333 188.144 29V33.02C188.304 33.0333 188.47 33.0467 188.644 33.06C188.817 33.0733 188.997 33.08 189.184 33.08ZM201.909 40.32C200.949 40.32 200.096 40.1067 199.349 39.68C198.602 39.24 198.022 38.6267 197.609 37.84C197.196 37.04 196.989 36.1 196.989 35.02C196.989 34.0867 197.196 33.2133 197.609 32.4C198.022 31.5867 198.602 30.9333 199.349 30.44C200.109 29.9333 200.989 29.68 201.989 29.68C202.549 29.68 203.089 29.76 203.609 29.92C204.129 30.08 204.596 30.3467 205.009 30.72C205.422 31.0933 205.749 31.5867 205.989 32.2C206.242 32.8133 206.362 33.56 206.349 34.44L199.629 34.56C199.629 35.3867 199.722 36.12 199.909 36.76C200.109 37.3867 200.429 37.8867 200.869 38.26C201.309 38.62 201.889 38.8 202.609 38.8C202.929 38.8 203.269 38.7467 203.629 38.64C204.002 38.52 204.369 38.3467 204.729 38.12C205.089 37.88 205.409 37.5867 205.689 37.24L206.449 37.94C206.009 38.58 205.522 39.0733 204.989 39.42C204.456 39.7667 203.922 40 203.389 40.12C202.856 40.2533 202.362 40.32 201.909 40.32ZM199.729 33.36H203.889C203.876 32.8267 203.796 32.38 203.649 32.02C203.516 31.6467 203.316 31.3667 203.049 31.18C202.782 30.98 202.456 30.88 202.069 30.88C201.416 30.88 200.889 31.1 200.489 31.54C200.102 31.9667 199.849 32.5733 199.729 33.36ZM212.35 40.32C211.737 40.32 211.164 40.24 210.63 40.08C210.097 39.92 209.67 39.7267 209.35 39.5L209.41 40.14H208.11L208.01 36.7H209.09C209.13 37.1533 209.29 37.5667 209.57 37.94C209.85 38.3 210.21 38.5867 210.65 38.8C211.104 39 211.604 39.1 212.15 39.1C212.417 39.1 212.67 39.06 212.91 38.98C213.164 38.9 213.37 38.7733 213.53 38.6C213.704 38.4133 213.79 38.18 213.79 37.9C213.79 37.6067 213.69 37.3667 213.49 37.18C213.304 36.9933 213.037 36.82 212.69 36.66C212.344 36.5 211.937 36.3333 211.47 36.16C211.057 36 210.644 35.8333 210.23 35.66C209.817 35.4867 209.437 35.28 209.09 35.04C208.744 34.7867 208.464 34.48 208.25 34.12C208.037 33.76 207.93 33.32 207.93 32.8C207.93 32.44 207.997 32.08 208.13 31.72C208.264 31.36 208.477 31.0267 208.77 30.72C209.064 30.4 209.437 30.1467 209.89 29.96C210.357 29.7733 210.924 29.68 211.59 29.68C211.95 29.68 212.357 29.74 212.81 29.86C213.264 29.9667 213.664 30.1533 214.01 30.42L213.99 29.78H215.29V33.3H214.21C214.144 32.8333 213.997 32.42 213.77 32.06C213.544 31.6867 213.244 31.3933 212.87 31.18C212.497 30.9667 212.05 30.86 211.53 30.86C211.104 30.86 210.744 30.9667 210.45 31.18C210.157 31.38 210.01 31.68 210.01 32.08C210.01 32.4133 210.124 32.6867 210.35 32.9C210.577 33.1133 210.884 33.2933 211.27 33.44C211.657 33.5867 212.077 33.7467 212.53 33.92C213.157 34.1333 213.724 34.3867 214.23 34.68C214.75 34.9733 215.164 35.3267 215.47 35.74C215.777 36.1533 215.93 36.6667 215.93 37.28C215.93 37.9733 215.757 38.5467 215.41 39C215.064 39.44 214.617 39.7733 214.07 40C213.524 40.2133 212.95 40.32 212.35 40.32ZM217.261 45.1V44.04C217.648 44.04 217.921 43.9533 218.081 43.78C218.254 43.62 218.361 43.3867 218.401 43.08C218.441 42.7733 218.461 42.4267 218.461 42.04L218.481 33.18C218.481 32.94 218.481 32.6867 218.481 32.42C218.494 32.1533 218.521 31.88 218.561 31.6C218.334 31.6133 218.081 31.6267 217.801 31.64C217.534 31.6533 217.314 31.6667 217.141 31.68V30.38C217.754 30.38 218.248 30.3533 218.621 30.3C219.008 30.2333 219.301 30.1533 219.501 30.06C219.714 29.9667 219.868 29.88 219.961 29.8H220.821C220.848 29.9333 220.868 30.0933 220.881 30.28C220.894 30.4667 220.908 30.64 220.921 30.8C221.361 30.4133 221.828 30.1333 222.321 29.96C222.814 29.7733 223.288 29.68 223.741 29.68C224.541 29.68 225.254 29.8867 225.881 30.3C226.508 30.7 227.001 31.28 227.361 32.04C227.721 32.7867 227.901 33.6733 227.901 34.7C227.901 35.7933 227.681 36.7667 227.241 37.62C226.814 38.46 226.228 39.12 225.481 39.6C224.734 40.08 223.874 40.32 222.901 40.32C222.501 40.32 222.141 40.2733 221.821 40.18C221.501 40.1 221.201 39.9933 220.921 39.86V42.24C220.921 42.4533 220.914 42.7067 220.901 43C220.901 43.3067 220.881 43.6 220.841 43.88C221.054 43.8533 221.281 43.8333 221.521 43.82C221.761 43.82 221.961 43.82 222.121 43.82V45.1H217.261ZM222.681 39.06C223.294 39.0467 223.788 38.86 224.161 38.5C224.548 38.1267 224.828 37.6333 225.001 37.02C225.174 36.4067 225.261 35.74 225.261 35.02C225.261 34.3667 225.174 33.7467 225.001 33.16C224.841 32.5733 224.581 32.1 224.221 31.74C223.861 31.38 223.381 31.2 222.781 31.2C222.408 31.2133 222.054 31.3067 221.721 31.48C221.401 31.6533 221.134 31.88 220.921 32.16C220.921 32.4533 220.921 32.7533 220.921 33.06C220.921 33.3667 220.921 33.6933 220.921 34.04C220.921 34.3867 220.921 34.78 220.921 35.22C220.921 35.6467 220.921 36.1333 220.921 36.68C220.921 37.2267 220.921 37.8533 220.921 38.56C221.134 38.7067 221.394 38.8267 221.701 38.92C222.008 39.0133 222.334 39.06 222.681 39.06ZM234.373 40.32C233.427 40.32 232.567 40.1133 231.793 39.7C231.02 39.2733 230.407 38.68 229.953 37.92C229.513 37.1467 229.293 36.2467 229.293 35.22C229.293 34.14 229.52 33.18 229.973 32.34C230.427 31.5 231.033 30.8467 231.793 30.38C232.567 29.9133 233.413 29.68 234.333 29.68C235.28 29.68 236.133 29.8933 236.893 30.32C237.653 30.7467 238.253 31.34 238.693 32.1C239.147 32.86 239.373 33.76 239.373 34.8C239.373 35.8933 239.153 36.86 238.713 37.7C238.287 38.5267 237.693 39.1733 236.933 39.64C236.187 40.0933 235.333 40.32 234.373 40.32ZM234.473 39.1C235.073 39.1 235.533 38.9133 235.853 38.54C236.173 38.1667 236.393 37.6933 236.513 37.12C236.647 36.5333 236.713 35.9333 236.713 35.32C236.713 34.8 236.667 34.2733 236.573 33.74C236.493 33.2067 236.36 32.7267 236.173 32.3C235.987 31.86 235.74 31.5133 235.433 31.26C235.127 30.9933 234.753 30.86 234.313 30.86C233.727 30.8733 233.26 31.0667 232.913 31.44C232.567 31.8133 232.313 32.2867 232.153 32.86C232.007 33.4333 231.933 34.04 231.933 34.68C231.933 35.4 232.02 36.1067 232.193 36.8C232.367 37.48 232.64 38.04 233.013 38.48C233.387 38.9067 233.873 39.1133 234.473 39.1ZM240.899 40V38.94C241.285 38.94 241.559 38.86 241.719 38.7C241.879 38.5267 241.979 38.2867 242.019 37.98C242.059 37.6733 242.079 37.3267 242.079 36.94V33.18C242.079 32.94 242.085 32.6867 242.099 32.42C242.112 32.1533 242.132 31.88 242.159 31.6C241.945 31.6133 241.699 31.6267 241.419 31.64C241.152 31.6533 240.932 31.6667 240.759 31.68V30.38C241.359 30.38 241.852 30.3533 242.239 30.3C242.625 30.2333 242.925 30.1533 243.139 30.06C243.352 29.9667 243.505 29.88 243.599 29.8H244.439C244.465 29.9467 244.479 30.0667 244.479 30.16C244.479 30.2533 244.485 30.3533 244.499 30.46C244.512 30.5533 244.532 30.6933 244.559 30.88C244.825 30.6533 245.132 30.4533 245.479 30.28C245.839 30.0933 246.199 29.9467 246.559 29.84C246.919 29.7333 247.252 29.68 247.559 29.68C248.759 29.68 249.619 30.0333 250.139 30.74C250.659 31.4467 250.919 32.5733 250.919 34.12V37.14C250.919 37.3533 250.912 37.6133 250.899 37.92C250.899 38.2133 250.879 38.5 250.839 38.78C251.065 38.7533 251.299 38.74 251.539 38.74C251.779 38.7267 251.979 38.72 252.139 38.72V40H247.279V38.94C247.665 38.94 247.939 38.86 248.099 38.7C248.272 38.5267 248.379 38.2867 248.419 37.98C248.459 37.6733 248.479 37.3267 248.479 36.94L248.459 34.1C248.459 33.14 248.312 32.4267 248.019 31.96C247.739 31.48 247.272 31.24 246.619 31.24C246.232 31.2533 245.852 31.3467 245.479 31.52C245.105 31.6933 244.792 31.9133 244.539 32.18C244.552 32.34 244.559 32.5067 244.559 32.68C244.559 32.8533 244.559 33.0267 244.559 33.2L244.539 37.14C244.539 37.3533 244.532 37.6133 244.519 37.92C244.519 38.2133 244.499 38.5 244.459 38.78C244.672 38.7533 244.899 38.74 245.139 38.74C245.392 38.7267 245.599 38.72 245.759 38.72V40H240.899ZM257.897 40.32C257.284 40.32 256.711 40.24 256.177 40.08C255.644 39.92 255.217 39.7267 254.897 39.5L254.957 40.14H253.657L253.557 36.7H254.637C254.677 37.1533 254.837 37.5667 255.117 37.94C255.397 38.3 255.757 38.5867 256.197 38.8C256.651 39 257.151 39.1 257.697 39.1C257.964 39.1 258.217 39.06 258.457 38.98C258.711 38.9 258.917 38.7733 259.077 38.6C259.251 38.4133 259.337 38.18 259.337 37.9C259.337 37.6067 259.237 37.3667 259.037 37.18C258.851 36.9933 258.584 36.82 258.237 36.66C257.891 36.5 257.484 36.3333 257.017 36.16C256.604 36 256.191 35.8333 255.777 35.66C255.364 35.4867 254.984 35.28 254.637 35.04C254.291 34.7867 254.011 34.48 253.797 34.12C253.584 33.76 253.477 33.32 253.477 32.8C253.477 32.44 253.544 32.08 253.677 31.72C253.811 31.36 254.024 31.0267 254.317 30.72C254.611 30.4 254.984 30.1467 255.437 29.96C255.904 29.7733 256.471 29.68 257.137 29.68C257.497 29.68 257.904 29.74 258.357 29.86C258.811 29.9667 259.211 30.1533 259.557 30.42L259.537 29.78H260.837V33.3H259.757C259.691 32.8333 259.544 32.42 259.317 32.06C259.091 31.6867 258.791 31.3933 258.417 31.18C258.044 30.9667 257.597 30.86 257.077 30.86C256.651 30.86 256.291 30.9667 255.997 31.18C255.704 31.38 255.557 31.68 255.557 32.08C255.557 32.4133 255.671 32.6867 255.897 32.9C256.124 33.1133 256.431 33.2933 256.817 33.44C257.204 33.5867 257.624 33.7467 258.077 33.92C258.704 34.1333 259.271 34.3867 259.777 34.68C260.297 34.9733 260.711 35.3267 261.017 35.74C261.324 36.1533 261.477 36.6667 261.477 37.28C261.477 37.9733 261.304 38.5467 260.957 39C260.611 39.44 260.164 39.7733 259.617 40C259.071 40.2133 258.497 40.32 257.897 40.32ZM263.008 38.94C263.395 38.94 263.668 38.86 263.828 38.7C263.988 38.5267 264.088 38.2867 264.128 37.98C264.168 37.6733 264.188 37.3267 264.188 36.94V33.2C264.188 32.9733 264.195 32.7267 264.208 32.46C264.221 32.18 264.241 31.8933 264.268 31.6C264.041 31.6133 263.795 31.6267 263.528 31.64C263.261 31.6533 263.041 31.6667 262.868 31.68V30.38C263.468 30.38 263.961 30.3533 264.348 30.3C264.748 30.2333 265.055 30.1533 265.268 30.06C265.495 29.9667 265.655 29.88 265.748 29.8H266.648V37.14C266.648 37.3533 266.641 37.6133 266.628 37.92C266.628 38.2133 266.608 38.5 266.568 38.78C266.781 38.7533 267.008 38.74 267.248 38.74C267.501 38.7267 267.708 38.72 267.868 38.72V40H263.008V38.94ZM265.308 28.08C264.921 28.08 264.595 27.94 264.328 27.66C264.061 27.3667 263.928 27.0133 263.928 26.6C263.928 26.1867 264.061 25.8333 264.328 25.54C264.608 25.2467 264.935 25.1 265.308 25.1C265.695 25.1 266.015 25.2467 266.268 25.54C266.535 25.8333 266.668 26.1867 266.668 26.6C266.668 27.0133 266.541 27.3667 266.288 27.66C266.035 27.94 265.708 28.08 265.308 28.08ZM269.738 28.3C269.738 28.0733 269.738 27.8267 269.738 27.56C269.752 27.28 269.772 26.9933 269.798 26.7C269.585 26.7133 269.338 26.7267 269.058 26.74C268.792 26.7533 268.572 26.7667 268.398 26.78V25.48C269.012 25.48 269.512 25.4533 269.898 25.4C270.285 25.3333 270.585 25.2533 270.798 25.16C271.025 25.0667 271.185 24.98 271.278 24.9H272.198V30.8C272.625 30.4 273.078 30.1133 273.558 29.94C274.038 29.7667 274.518 29.68 274.998 29.68C275.825 29.68 276.552 29.8867 277.178 30.3C277.818 30.7133 278.318 31.3 278.678 32.06C279.038 32.82 279.218 33.7133 279.218 34.74C279.218 35.8333 279.005 36.8 278.578 37.64C278.152 38.48 277.565 39.14 276.818 39.62C276.072 40.0867 275.212 40.32 274.238 40.32C273.852 40.32 273.378 40.24 272.818 40.08C272.272 39.92 271.772 39.6 271.318 39.12L270.758 40H269.738V28.3ZM272.198 36.96C272.198 37.4933 272.285 37.9133 272.458 38.22C272.632 38.5267 272.852 38.7467 273.118 38.88C273.398 39 273.678 39.0667 273.958 39.08C274.572 39.08 275.065 38.9 275.438 38.54C275.825 38.18 276.105 37.7 276.278 37.1C276.465 36.4867 276.558 35.8267 276.558 35.12C276.558 34.4 276.472 33.7467 276.298 33.16C276.125 32.56 275.858 32.0867 275.498 31.74C275.138 31.38 274.665 31.2 274.078 31.2C273.718 31.2133 273.372 31.3067 273.038 31.48C272.705 31.6533 272.425 31.88 272.198 32.16V36.96ZM280.762 38.94C281.149 38.94 281.422 38.86 281.582 38.7C281.742 38.5267 281.842 38.2867 281.882 37.98C281.922 37.6733 281.942 37.3267 281.942 36.94V33.2C281.942 32.9733 281.949 32.7267 281.962 32.46C281.975 32.18 281.995 31.8933 282.022 31.6C281.795 31.6133 281.549 31.6267 281.282 31.64C281.015 31.6533 280.795 31.6667 280.622 31.68V30.38C281.222 30.38 281.715 30.3533 282.102 30.3C282.502 30.2333 282.809 30.1533 283.022 30.06C283.249 29.9667 283.409 29.88 283.502 29.8H284.402V37.14C284.402 37.3533 284.395 37.6133 284.382 37.92C284.382 38.2133 284.362 38.5 284.322 38.78C284.535 38.7533 284.762 38.74 285.002 38.74C285.255 38.7267 285.462 38.72 285.622 38.72V40H280.762V38.94ZM283.062 28.08C282.675 28.08 282.349 27.94 282.082 27.66C281.815 27.3667 281.682 27.0133 281.682 26.6C281.682 26.1867 281.815 25.8333 282.082 25.54C282.362 25.2467 282.689 25.1 283.062 25.1C283.449 25.1 283.769 25.2467 284.022 25.54C284.289 25.8333 284.422 26.1867 284.422 26.6C284.422 27.0133 284.295 27.3667 284.042 27.66C283.789 27.94 283.462 28.08 283.062 28.08ZM286.712 38.94C287.099 38.94 287.372 38.86 287.532 38.7C287.706 38.5267 287.806 38.2867 287.832 37.98C287.872 37.6733 287.892 37.3267 287.892 36.94V28.3C287.892 28.0733 287.899 27.8267 287.912 27.56C287.926 27.28 287.946 26.9933 287.972 26.7C287.746 26.7133 287.499 26.7267 287.232 26.74C286.966 26.7533 286.739 26.7667 286.552 26.78V25.48C287.166 25.48 287.666 25.4533 288.052 25.4C288.452 25.3333 288.759 25.2533 288.972 25.16C289.199 25.0667 289.359 24.98 289.452 24.9H290.352L290.372 37.14C290.372 37.3533 290.366 37.6133 290.352 37.92C290.339 38.2133 290.312 38.5 290.272 38.78C290.499 38.7533 290.732 38.74 290.972 38.74C291.212 38.7267 291.412 38.72 291.572 38.72V40H286.712V38.94ZM292.969 38.94C293.356 38.94 293.629 38.86 293.789 38.7C293.949 38.5267 294.049 38.2867 294.089 37.98C294.129 37.6733 294.149 37.3267 294.149 36.94V33.2C294.149 32.9733 294.156 32.7267 294.169 32.46C294.182 32.18 294.202 31.8933 294.229 31.6C294.002 31.6133 293.756 31.6267 293.489 31.64C293.222 31.6533 293.002 31.6667 292.829 31.68V30.38C293.429 30.38 293.922 30.3533 294.309 30.3C294.709 30.2333 295.016 30.1533 295.229 30.06C295.456 29.9667 295.616 29.88 295.709 29.8H296.609V37.14C296.609 37.3533 296.602 37.6133 296.589 37.92C296.589 38.2133 296.569 38.5 296.529 38.78C296.742 38.7533 296.969 38.74 297.209 38.74C297.462 38.7267 297.669 38.72 297.829 38.72V40H292.969V38.94ZM295.269 28.08C294.882 28.08 294.556 27.94 294.289 27.66C294.022 27.3667 293.889 27.0133 293.889 26.6C293.889 26.1867 294.022 25.8333 294.289 25.54C294.569 25.2467 294.896 25.1 295.269 25.1C295.656 25.1 295.976 25.2467 296.229 25.54C296.496 25.8333 296.629 26.1867 296.629 26.6C296.629 27.0133 296.502 27.3667 296.249 27.66C295.996 27.94 295.669 28.08 295.269 28.08ZM303.138 40.32C302.765 40.32 302.398 40.2733 302.038 40.18C301.692 40.0867 301.372 39.9133 301.078 39.66C300.798 39.4067 300.572 39.0333 300.398 38.54C300.225 38.0333 300.138 37.3667 300.138 36.54L300.178 31.38L298.758 31.4V30C299.158 29.9867 299.545 29.8533 299.918 29.6C300.292 29.3333 300.618 28.9867 300.898 28.56C301.178 28.1333 301.365 27.68 301.458 27.2H302.678L302.658 30H305.478V31.28L302.658 31.34L302.638 36.48C302.638 36.88 302.672 37.2533 302.738 37.6C302.818 37.9333 302.952 38.2 303.138 38.4C303.338 38.6 303.605 38.7 303.938 38.7C304.192 38.7 304.478 38.62 304.798 38.46C305.132 38.3 305.465 37.98 305.798 37.5L306.618 38.24C306.285 38.7467 305.938 39.14 305.578 39.42C305.232 39.7 304.892 39.9067 304.558 40.04C304.238 40.1733 303.952 40.2533 303.698 40.28C303.445 40.3067 303.258 40.32 303.138 40.32ZM309.284 45.42C308.804 45.42 308.397 45.2867 308.064 45.02C307.731 44.7533 307.564 44.3867 307.564 43.92C307.564 43.6 307.671 43.3133 307.884 43.06C308.097 42.82 308.371 42.6933 308.704 42.68C308.997 42.6667 309.231 42.76 309.404 42.96C309.591 43.1733 309.684 43.4267 309.684 43.72C309.684 43.76 309.684 43.8 309.684 43.84C309.684 43.8933 309.677 43.9467 309.664 44C309.691 44 309.737 44 309.804 44C309.937 43.9733 310.077 43.8733 310.224 43.7C310.384 43.54 310.531 43.32 310.664 43.04C310.824 42.7333 310.991 42.3533 311.164 41.9C311.337 41.46 311.504 40.9667 311.664 40.42L308.524 33.96C308.164 33.2133 307.917 32.64 307.784 32.24C307.664 31.84 307.577 31.5067 307.524 31.24L306.604 31.28V30H311.304V31.06H311.264C310.757 31.1 310.477 31.2933 310.424 31.64C310.371 31.9733 310.457 32.3867 310.684 32.88L312.784 37.54C312.971 37.02 313.177 36.38 313.404 35.62C313.644 34.86 313.911 34.06 314.204 33.22C314.271 33.0067 314.351 32.7733 314.444 32.52C314.551 32.2533 314.657 32 314.764 31.76C314.871 31.52 314.977 31.34 315.084 31.22L313.864 31.28V30H317.284V31.06C316.844 31.18 316.491 31.4533 316.224 31.88C315.971 32.2933 315.731 32.8133 315.504 33.44L313.004 40.52C312.617 41.6133 312.257 42.52 311.924 43.24C311.591 43.9733 311.217 44.52 310.804 44.88C310.404 45.24 309.897 45.42 309.284 45.42ZM327.697 24.8L328.357 25.42C327.944 25.9667 327.584 26.58 327.277 27.26C326.971 27.9267 326.711 28.62 326.497 29.34C326.297 30.06 326.131 30.78 325.997 31.5C325.877 32.22 325.791 32.9 325.737 33.54C325.684 34.1667 325.657 34.7267 325.657 35.22C325.657 35.7133 325.684 36.2733 325.737 36.9C325.791 37.5133 325.877 38.1667 325.997 38.86C326.131 39.5533 326.297 40.2467 326.497 40.94C326.711 41.6467 326.971 42.3267 327.277 42.98C327.584 43.6467 327.944 44.2533 328.357 44.8L327.697 45.42C327.204 44.9667 326.691 44.3867 326.157 43.68C325.624 42.9867 325.131 42.1933 324.677 41.3C324.237 40.4067 323.877 39.4467 323.597 38.42C323.317 37.3933 323.177 36.3267 323.177 35.22C323.177 34.1133 323.317 33.0333 323.597 31.98C323.877 30.9267 324.237 29.94 324.677 29.02C325.131 28.1 325.624 27.28 326.157 26.56C326.691 25.84 327.204 25.2533 327.697 24.8ZM339.666 30.48C339.506 29.32 339.113 28.44 338.486 27.84C337.86 27.2267 337.046 26.92 336.046 26.92C335.34 26.92 334.706 27.08 334.146 27.4C333.6 27.7067 333.133 28.1333 332.746 28.68C332.373 29.2133 332.086 29.84 331.886 30.56C331.686 31.2667 331.586 32.0267 331.586 32.84C331.586 34.0267 331.773 35.0733 332.146 35.98C332.533 36.8867 333.066 37.6 333.746 38.12C334.44 38.64 335.246 38.9 336.166 38.9C337.02 38.9 337.86 38.6933 338.686 38.28C339.526 37.8533 340.22 37.2533 340.766 36.48L341.586 37.22C340.96 38.0733 340.293 38.7267 339.586 39.18C338.88 39.62 338.186 39.92 337.506 40.08C336.84 40.24 336.233 40.32 335.686 40.32C334.66 40.32 333.726 40.14 332.886 39.78C332.06 39.4067 331.34 38.9 330.726 38.26C330.126 37.6067 329.66 36.8533 329.326 36C329.006 35.1333 328.846 34.2 328.846 33.2C328.846 32.28 328.986 31.3733 329.266 30.48C329.56 29.5867 329.993 28.78 330.566 28.06C331.153 27.34 331.886 26.7667 332.766 26.34C333.646 25.9 334.666 25.68 335.826 25.68C336.413 25.68 337.026 25.7733 337.666 25.96C338.306 26.1333 338.906 26.3933 339.466 26.74L339.386 25.82H340.766V30.48H339.666ZM350.954 30.4C350.861 29.6933 350.667 29.08 350.374 28.56C350.081 28.0267 349.687 27.62 349.194 27.34C348.714 27.0467 348.134 26.9 347.454 26.9C346.801 26.9 346.254 27.0867 345.814 27.46C345.387 27.8333 345.174 28.2933 345.174 28.84C345.174 29.2933 345.301 29.6867 345.554 30.02C345.821 30.3533 346.201 30.66 346.694 30.94C347.187 31.2067 347.774 31.4867 348.454 31.78C348.961 31.9933 349.474 32.2333 349.994 32.5C350.514 32.7533 350.994 33.06 351.434 33.42C351.874 33.78 352.227 34.2 352.494 34.68C352.774 35.1467 352.914 35.7067 352.914 36.36C352.914 37.1333 352.707 37.82 352.294 38.42C351.894 39.02 351.321 39.4867 350.574 39.82C349.827 40.1533 348.947 40.32 347.934 40.32C347.374 40.32 346.781 40.2333 346.154 40.06C345.527 39.9 344.954 39.6533 344.434 39.32L344.494 40.18H343.134L343.094 35.64H344.234C344.381 36.7733 344.801 37.6333 345.494 38.22C346.187 38.7933 347.021 39.08 347.994 39.08C348.487 39.08 348.927 38.9933 349.314 38.82C349.701 38.6333 350.001 38.3867 350.214 38.08C350.441 37.76 350.554 37.4 350.554 37C350.554 36.48 350.394 36.0533 350.074 35.72C349.754 35.3867 349.347 35.1 348.854 34.86C348.361 34.62 347.847 34.3867 347.314 34.16C346.714 33.9067 346.147 33.64 345.614 33.36C345.081 33.0667 344.607 32.74 344.194 32.38C343.794 32.0067 343.474 31.58 343.234 31.1C343.007 30.62 342.894 30.0533 342.894 29.4C342.894 29.0133 342.967 28.6067 343.114 28.18C343.261 27.74 343.501 27.3333 343.834 26.96C344.181 26.5867 344.641 26.28 345.214 26.04C345.787 25.8 346.501 25.68 347.354 25.68C347.887 25.68 348.467 25.76 349.094 25.92C349.734 26.0667 350.294 26.3133 350.774 26.66L350.694 25.82H352.074V30.4H350.954ZM354.712 40V38.9C355.085 38.8867 355.372 38.8267 355.572 38.72C355.772 38.6 355.912 38.4 355.992 38.12C356.072 37.8267 356.112 37.4267 356.112 36.92V28.94C356.112 28.6067 356.119 28.2867 356.132 27.98C356.159 27.6733 356.179 27.4333 356.192 27.26C355.965 27.2733 355.705 27.2867 355.412 27.3C355.119 27.3 354.885 27.3067 354.712 27.32V26C355.592 25.9867 356.472 25.98 357.352 25.98C358.245 25.9667 359.132 25.96 360.012 25.96C361.225 25.96 362.252 26.1 363.092 26.38C363.945 26.66 364.585 27.1 365.012 27.7C365.452 28.2867 365.665 29.06 365.652 30.02C365.639 30.5667 365.512 31.1 365.272 31.62C365.032 32.14 364.652 32.6 364.132 33C363.612 33.4 362.919 33.7133 362.052 33.94C362.305 34.0733 362.545 34.2667 362.772 34.52C363.012 34.7733 363.232 35.0533 363.432 35.36L364.512 37.02C364.779 37.4333 365.025 37.78 365.252 38.06C365.479 38.3267 365.712 38.5333 365.952 38.68C366.192 38.8133 366.479 38.8867 366.812 38.9V40H363.772C363.492 39.7733 363.225 39.4933 362.972 39.16C362.732 38.8267 362.479 38.44 362.212 38L360.772 35.7C360.599 35.42 360.432 35.16 360.272 34.92C360.125 34.6667 359.959 34.4533 359.772 34.28C359.559 34.2933 359.365 34.3 359.192 34.3C359.019 34.3 358.832 34.2933 358.632 34.28V37C358.632 37.3733 358.625 37.7133 358.612 38.02C358.599 38.3267 358.579 38.5667 358.552 38.74C358.699 38.7267 358.872 38.72 359.072 38.72C359.285 38.7067 359.492 38.7 359.692 38.7C359.892 38.6867 360.052 38.68 360.172 38.68V40H354.712ZM359.672 33.08C360.419 33.0667 361.032 32.9533 361.512 32.74C362.005 32.5267 362.372 32.1933 362.612 31.74C362.865 31.2867 362.992 30.7067 362.992 30C362.992 29.4 362.899 28.9133 362.712 28.54C362.539 28.1667 362.299 27.88 361.992 27.68C361.699 27.48 361.372 27.3467 361.012 27.28C360.665 27.2 360.319 27.16 359.972 27.16C359.625 27.16 359.352 27.2133 359.152 27.32C358.952 27.4267 358.812 27.62 358.732 27.9C358.665 28.1667 358.632 28.5333 358.632 29V33.02C358.792 33.0333 358.959 33.0467 359.132 33.06C359.305 33.0733 359.485 33.08 359.672 33.08ZM367.775 45.42L367.115 44.8C367.529 44.2533 367.882 43.64 368.175 42.96C368.482 42.2933 368.742 41.6 368.955 40.88C369.169 40.16 369.335 39.44 369.455 38.72C369.575 38 369.662 37.3267 369.715 36.7C369.782 36.06 369.815 35.4933 369.815 35C369.815 34.5067 369.782 33.9533 369.715 33.34C369.662 32.7133 369.575 32.0533 369.455 31.36C369.335 30.6667 369.169 29.9733 368.955 29.28C368.742 28.5733 368.482 27.8933 368.175 27.24C367.882 26.5733 367.529 25.9667 367.115 25.42L367.755 24.8C368.262 25.2533 368.775 25.8333 369.295 26.54C369.829 27.2333 370.315 28.0267 370.755 28.92C371.209 29.8133 371.575 30.7733 371.855 31.8C372.135 32.8267 372.275 33.8933 372.275 35C372.275 36.1067 372.135 37.1867 371.855 38.24C371.575 39.2933 371.209 40.28 370.755 41.2C370.315 42.12 369.829 42.94 369.295 43.66C368.775 44.38 368.269 44.9667 367.775 45.42Z" fill="#1A1A1A"/>
<path d="M1157.1 42.2133C1155.06 44.1454 1152.44 45.4967 1149.47 45.9763C1146.48 46.4591 1143.57 46.0005 1141.04 44.8102C1137.63 46.6654 1135.24 50.1346 1134.83 54.1707L1133.89 63.2734C1133.59 66.386 1136.29 68.9511 1139.39 68.4498L1161.11 64.937L1162 56.138C1162.31 53.0845 1163.49 50.2473 1165.31 47.9378C1163.52 44.9097 1160.5 42.8291 1157.1 42.2138L1157.1 42.2133Z" fill="#EBC584"/>
<path d="M1148.83 42.1276C1154.62 41.192 1158.55 35.7445 1157.62 29.9596C1156.68 24.1747 1151.24 20.2403 1145.45 21.1766C1139.66 22.1122 1135.73 27.5597 1136.66 33.3486C1137.6 39.1335 1143.05 43.0638 1148.83 42.1276Z" fill="#EBC584"/>
<path d="M1229.47 47.82L1225.73 39.4742C1224.07 35.79 1220.72 33.2527 1216.89 32.5487C1214.85 34.4809 1212.22 35.8322 1209.26 36.3118C1206.29 36.7914 1203.37 36.3328 1200.83 35.1457C1197.8 36.8011 1195.58 39.7088 1194.84 43.1682C1197.27 44.7894 1199.31 47.1069 1200.55 49.9078L1204.19 57.9753L1225.89 54.4658C1228.99 53.9645 1230.75 50.677 1229.48 47.8193L1229.47 47.82Z" fill="#EBC584"/>
<path d="M1196.46 23.6768C1197.39 29.4617 1202.84 33.392 1208.63 32.4557C1214.41 31.5201 1218.35 26.0726 1217.41 20.2877C1216.47 14.5028 1211.03 10.5684 1205.24 11.5047C1199.45 12.4403 1195.52 17.8878 1196.46 23.6768Z" fill="#EBC584"/>
<path d="M1196.99 51.5121C1195.32 47.8081 1191.97 45.2708 1188.15 44.5866C1186.11 46.5187 1183.48 47.87 1180.52 48.3496C1177.55 48.8292 1174.63 48.3745 1172.09 47.1835C1168.68 49.0387 1166.29 52.5078 1165.88 56.5439L1164.96 65.6435C1164.63 68.7593 1167.36 71.3212 1170.44 70.8231L1197.17 66.5003C1200.25 66.0022 1202.03 62.7115 1200.73 59.8577L1196.99 51.5121Z" fill="#EBC584"/>
<path d="M1167.73 35.7079C1168.66 41.4928 1174.11 45.4271 1179.9 44.4909C1185.68 43.5553 1189.62 38.1077 1188.68 32.3188C1187.74 26.5339 1182.3 22.6036 1176.51 23.5398C1170.72 24.4754 1166.79 29.923 1167.73 35.7079Z" fill="#EBC584"/>
</g>
<defs>
<linearGradient id="paint0_linear_2036_8908" x1="21.21" y1="2.75" x2="60.3235" y2="244.535" gradientUnits="userSpaceOnUse">
<stop stop-color="#FFF6E6"/>
<stop offset="1" stop-color="#F0CF96"/>
</linearGradient>
<clipPath id="clip0_2036_8908">
<rect width="1212" height="66" rx="8" fill="white"/>
</clipPath>
</defs>
</svg>
