<svg width="1212" height="66" viewBox="0 0 1212 66" fill="none" xmlns="http://www.w3.org/2000/svg">
<g clip-path="url(#clip0_2036_8797)">
<rect width="1212" height="66" rx="8" fill="url(#paint0_linear_2036_8797)"/>
<ellipse cx="1193.5" cy="33" rx="75.5" ry="75" fill="white" fill-opacity="0.45"/>
<path d="M1192.5 -60C1242.99 -60 1284 -18.6257 1284 32.5C1284 83.6257 1242.99 125 1192.5 125C1142.01 125 1101 83.6257 1101 32.5C1101 -18.6257 1142.01 -60 1192.5 -60Z" stroke="white" stroke-opacity="0.47" stroke-width="8"/>
<path d="M1192.5 -83.5C1255.99 -83.5 1307.5 -31.5928 1307.5 32.5C1307.5 96.5928 1255.99 148.5 1192.5 148.5C1129.01 148.5 1077.5 96.5928 1077.5 32.5C1077.5 -31.5928 1129.01 -83.5 1192.5 -83.5Z" stroke="white" stroke-opacity="0.34" stroke-width="7"/>
<path d="M1192.5 -108.5C1269.81 -108.5 1332.5 -45.3821 1332.5 32.5C1332.5 110.382 1269.81 173.5 1192.5 173.5C1115.19 173.5 1052.5 110.382 1052.5 32.5C1052.5 -45.3821 1115.19 -108.5 1192.5 -108.5Z" stroke="white" stroke-opacity="0.2" stroke-width="3"/>
<path d="M21.04 40V38.9C21.4133 38.8867 21.7 38.8267 21.9 38.72C22.1 38.6 22.24 38.4 22.32 38.12C22.4 37.8267 22.44 37.4267 22.44 36.92V28.94C22.44 28.6067 22.4467 28.2867 22.46 27.98C22.4867 27.6733 22.5067 27.4333 22.52 27.26C22.2933 27.2733 22.0333 27.2867 21.74 27.3C21.4467 27.3 21.2133 27.3067 21.04 27.32V26H30.8L30.9 29.76H29.8C29.8 29 29.6733 28.4333 29.42 28.06C29.1667 27.6733 28.8467 27.4133 28.46 27.28C28.0733 27.1467 27.68 27.0867 27.28 27.1L26.3 27.12C25.9533 27.1333 25.68 27.2 25.48 27.32C25.2933 27.44 25.16 27.6467 25.08 27.94C25 28.22 24.96 28.6067 24.96 29.1V32.58H27.48L27.38 30.86H28.7V35.5H27.62C27.62 34.9267 27.5333 34.5133 27.36 34.26C27.1867 34.0067 26.94 33.8533 26.62 33.8C26.3133 33.7333 25.9467 33.7133 25.52 33.74L24.96 33.76V37.02C24.96 37.38 24.9533 37.7133 24.94 38.02C24.9267 38.3267 24.9067 38.5667 24.88 38.74C25.0533 38.7267 25.2533 38.72 25.48 38.72C25.72 38.7067 25.9533 38.7 26.18 38.7C26.42 38.6867 26.6067 38.68 26.74 38.68V40H21.04ZM31.9338 38.94C32.3204 38.94 32.5938 38.86 32.7538 38.7C32.9138 38.5267 33.0138 38.2867 33.0538 37.98C33.0938 37.6733 33.1138 37.3267 33.1138 36.94V33.2C33.1138 32.9733 33.1204 32.7267 33.1338 32.46C33.1471 32.18 33.1671 31.8933 33.1938 31.6C32.9671 31.6133 32.7204 31.6267 32.4538 31.64C32.1871 31.6533 31.9671 31.6667 31.7938 31.68V30.38C32.3938 30.38 32.8871 30.3533 33.2738 30.3C33.6738 30.2333 33.9804 30.1533 34.1938 30.06C34.4204 29.9667 34.5804 29.88 34.6738 29.8H35.5738V37.14C35.5738 37.3533 35.5671 37.6133 35.5538 37.92C35.5538 38.2133 35.5338 38.5 35.4938 38.78C35.7071 38.7533 35.9338 38.74 36.1738 38.74C36.4271 38.7267 36.6338 38.72 36.7938 38.72V40H31.9338V38.94ZM34.2338 28.08C33.8471 28.08 33.5204 27.94 33.2538 27.66C32.9871 27.3667 32.8538 27.0133 32.8538 26.6C32.8538 26.1867 32.9871 25.8333 33.2538 25.54C33.5338 25.2467 33.8604 25.1 34.2338 25.1C34.6204 25.1 34.9404 25.2467 35.1938 25.54C35.4604 25.8333 35.5938 26.1867 35.5938 26.6C35.5938 27.0133 35.4671 27.3667 35.2138 27.66C34.9604 27.94 34.6338 28.08 34.2338 28.08ZM38.1642 40V38.94C38.5509 38.94 38.8242 38.86 38.9842 38.7C39.1442 38.5267 39.2442 38.2867 39.2842 37.98C39.3242 37.6733 39.3442 37.3267 39.3442 36.94V33.18C39.3442 32.94 39.3509 32.6867 39.3642 32.42C39.3776 32.1533 39.3976 31.88 39.4242 31.6C39.2109 31.6133 38.9642 31.6267 38.6842 31.64C38.4176 31.6533 38.1976 31.6667 38.0242 31.68V30.38C38.6242 30.38 39.1176 30.3533 39.5042 30.3C39.8909 30.2333 40.1909 30.1533 40.4042 30.06C40.6176 29.9667 40.7709 29.88 40.8642 29.8H41.7042C41.7309 29.9467 41.7442 30.0667 41.7442 30.16C41.7442 30.2533 41.7509 30.3533 41.7642 30.46C41.7776 30.5533 41.7976 30.6933 41.8242 30.88C42.0909 30.6533 42.3976 30.4533 42.7442 30.28C43.1042 30.0933 43.4642 29.9467 43.8242 29.84C44.1842 29.7333 44.5176 29.68 44.8242 29.68C46.0242 29.68 46.8842 30.0333 47.4042 30.74C47.9242 31.4467 48.1842 32.5733 48.1842 34.12V37.14C48.1842 37.3533 48.1776 37.6133 48.1642 37.92C48.1642 38.2133 48.1442 38.5 48.1042 38.78C48.3309 38.7533 48.5642 38.74 48.8042 38.74C49.0442 38.7267 49.2442 38.72 49.4042 38.72V40H44.5442V38.94C44.9309 38.94 45.2042 38.86 45.3642 38.7C45.5376 38.5267 45.6442 38.2867 45.6842 37.98C45.7242 37.6733 45.7442 37.3267 45.7442 36.94L45.7242 34.1C45.7242 33.14 45.5776 32.4267 45.2842 31.96C45.0042 31.48 44.5376 31.24 43.8842 31.24C43.4976 31.2533 43.1176 31.3467 42.7442 31.52C42.3709 31.6933 42.0576 31.9133 41.8042 32.18C41.8176 32.34 41.8242 32.5067 41.8242 32.68C41.8242 32.8533 41.8242 33.0267 41.8242 33.2L41.8042 37.14C41.8042 37.3533 41.7976 37.6133 41.7842 37.92C41.7842 38.2133 41.7642 38.5 41.7242 38.78C41.9376 38.7533 42.1642 38.74 42.4042 38.74C42.6576 38.7267 42.8642 38.72 43.0242 38.72V40H38.1642ZM56.4628 40C56.4228 39.8 56.3961 39.6333 56.3828 39.5C56.3828 39.3533 56.3761 39.1867 56.3628 39C55.9095 39.4533 55.4228 39.7867 54.9028 40C54.3961 40.2133 53.8695 40.32 53.3228 40.32C52.4161 40.32 51.7161 40.0733 51.2228 39.58C50.7428 39.0867 50.5028 38.48 50.5028 37.76C50.5028 37.12 50.6761 36.58 51.0228 36.14C51.3695 35.6867 51.8228 35.32 52.3828 35.04C52.9428 34.7467 53.5628 34.5267 54.2428 34.38C54.9228 34.22 55.5961 34.1333 56.2628 34.12V33.02C56.2628 32.6333 56.2161 32.28 56.1228 31.96C56.0428 31.6267 55.8895 31.3667 55.6628 31.18C55.4361 30.98 55.1028 30.88 54.6628 30.88C54.3695 30.8933 54.0695 30.96 53.7628 31.08C53.4695 31.1867 53.2361 31.36 53.0628 31.6C53.1695 31.72 53.2361 31.8533 53.2628 32C53.2895 32.1333 53.3028 32.2533 53.3028 32.36C53.3028 32.6 53.2095 32.8533 53.0228 33.12C52.8361 33.3733 52.5361 33.4933 52.1228 33.48C51.7628 33.4667 51.4828 33.34 51.2828 33.1C51.0961 32.86 51.0028 32.5733 51.0028 32.24C51.0028 31.7333 51.1828 31.2933 51.5428 30.92C51.9161 30.5333 52.4161 30.2333 53.0428 30.02C53.6695 29.7933 54.3695 29.68 55.1428 29.68C56.2895 29.68 57.1695 29.98 57.7828 30.58C58.3961 31.18 58.6961 32.14 58.6828 33.46C58.6828 33.9267 58.6828 34.3533 58.6828 34.74C58.6828 35.1133 58.6761 35.4933 58.6628 35.88C58.6628 36.2533 58.6628 36.6733 58.6628 37.14C58.6628 37.34 58.6561 37.5933 58.6428 37.9C58.6295 38.1933 58.6095 38.4867 58.5828 38.78C58.8228 38.7533 59.0628 38.74 59.3028 38.74C59.5561 38.7267 59.7628 38.7133 59.9228 38.7V40H56.4628ZM56.2428 35.3C55.8428 35.3267 55.4495 35.3933 55.0628 35.5C54.6761 35.5933 54.3295 35.7267 54.0228 35.9C53.7161 36.0733 53.4695 36.2933 53.2828 36.56C53.1095 36.8133 53.0295 37.1067 53.0428 37.44C53.0561 37.8533 53.1895 38.16 53.4428 38.36C53.6961 38.5467 53.9895 38.64 54.3228 38.64C54.7095 38.64 55.0561 38.56 55.3628 38.4C55.6828 38.24 55.9761 38.0267 56.2428 37.76C56.2428 37.6267 56.2428 37.4867 56.2428 37.34C56.2428 37.1933 56.2428 37.0467 56.2428 36.9C56.2428 36.7133 56.2428 36.48 56.2428 36.2C56.2428 35.92 56.2428 35.62 56.2428 35.3ZM61.1525 40V38.94C61.5392 38.94 61.8125 38.86 61.9725 38.7C62.1325 38.5267 62.2325 38.2867 62.2725 37.98C62.3125 37.6733 62.3325 37.3267 62.3325 36.94V33.18C62.3325 32.94 62.3392 32.6867 62.3525 32.42C62.3658 32.1533 62.3858 31.88 62.4125 31.6C62.1992 31.6133 61.9525 31.6267 61.6725 31.64C61.4058 31.6533 61.1858 31.6667 61.0125 31.68V30.38C61.6125 30.38 62.1058 30.3533 62.4925 30.3C62.8792 30.2333 63.1792 30.1533 63.3925 30.06C63.6058 29.9667 63.7592 29.88 63.8525 29.8H64.6925C64.7192 29.9467 64.7325 30.0667 64.7325 30.16C64.7325 30.2533 64.7392 30.3533 64.7525 30.46C64.7658 30.5533 64.7858 30.6933 64.8125 30.88C65.0792 30.6533 65.3858 30.4533 65.7325 30.28C66.0925 30.0933 66.4525 29.9467 66.8125 29.84C67.1725 29.7333 67.5058 29.68 67.8125 29.68C69.0125 29.68 69.8725 30.0333 70.3925 30.74C70.9125 31.4467 71.1725 32.5733 71.1725 34.12V37.14C71.1725 37.3533 71.1658 37.6133 71.1525 37.92C71.1525 38.2133 71.1325 38.5 71.0925 38.78C71.3192 38.7533 71.5525 38.74 71.7925 38.74C72.0325 38.7267 72.2325 38.72 72.3925 38.72V40H67.5325V38.94C67.9192 38.94 68.1925 38.86 68.3525 38.7C68.5258 38.5267 68.6325 38.2867 68.6725 37.98C68.7125 37.6733 68.7325 37.3267 68.7325 36.94L68.7125 34.1C68.7125 33.14 68.5658 32.4267 68.2725 31.96C67.9925 31.48 67.5258 31.24 66.8725 31.24C66.4858 31.2533 66.1058 31.3467 65.7325 31.52C65.3592 31.6933 65.0458 31.9133 64.7925 32.18C64.8058 32.34 64.8125 32.5067 64.8125 32.68C64.8125 32.8533 64.8125 33.0267 64.8125 33.2L64.7925 37.14C64.7925 37.3533 64.7858 37.6133 64.7725 37.92C64.7725 38.2133 64.7525 38.5 64.7125 38.78C64.9258 38.7533 65.1525 38.74 65.3925 38.74C65.6458 38.7267 65.8525 38.72 66.0125 38.72V40H61.1525ZM78.4911 40.32C77.5978 40.32 76.7711 40.12 76.0111 39.72C75.2644 39.32 74.6644 38.74 74.2111 37.98C73.7711 37.2067 73.5511 36.28 73.5511 35.2C73.5511 34.4667 73.6778 33.7733 73.9311 33.12C74.1844 32.4533 74.5378 31.8667 74.9911 31.36C75.4578 30.84 76.0111 30.4333 76.6511 30.14C77.2911 29.8333 77.9978 29.68 78.7711 29.68C79.5844 29.68 80.2711 29.8067 80.8311 30.06C81.3911 30.3 81.8178 30.6267 82.1111 31.04C82.4044 31.44 82.5511 31.8667 82.5511 32.32C82.5511 32.68 82.4444 32.9933 82.2311 33.26C82.0311 33.5267 81.7378 33.6667 81.3511 33.68C80.8978 33.6933 80.5778 33.5667 80.3911 33.3C80.2178 33.02 80.1311 32.76 80.1311 32.52C80.1311 32.3867 80.1511 32.2467 80.1911 32.1C80.2311 31.94 80.2978 31.7933 80.3911 31.66C80.2978 31.42 80.1444 31.2467 79.9311 31.14C79.7178 31.02 79.4978 30.94 79.2711 30.9C79.0444 30.86 78.8644 30.8467 78.7311 30.86C77.9978 30.8867 77.3911 31.22 76.9111 31.86C76.4311 32.5 76.1911 33.4333 76.1911 34.66C76.1911 35.3933 76.2911 36.0733 76.4911 36.7C76.7044 37.3133 77.0244 37.8133 77.4511 38.2C77.8778 38.5733 78.4244 38.7667 79.0911 38.78C79.6778 38.7933 80.2444 38.6533 80.7911 38.36C81.3378 38.0533 81.7844 37.66 82.1311 37.18L82.9311 37.92C82.4911 38.5467 82.0178 39.0333 81.5111 39.38C81.0044 39.7267 80.4911 39.9667 79.9711 40.1C79.4644 40.2467 78.9711 40.32 78.4911 40.32ZM88.9208 40.32C87.9608 40.32 87.1074 40.1067 86.3608 39.68C85.6141 39.24 85.0341 38.6267 84.6208 37.84C84.2074 37.04 84.0008 36.1 84.0008 35.02C84.0008 34.0867 84.2074 33.2133 84.6208 32.4C85.0341 31.5867 85.6141 30.9333 86.3608 30.44C87.1208 29.9333 88.0008 29.68 89.0008 29.68C89.5608 29.68 90.1008 29.76 90.6208 29.92C91.1408 30.08 91.6074 30.3467 92.0208 30.72C92.4341 31.0933 92.7608 31.5867 93.0008 32.2C93.2541 32.8133 93.3741 33.56 93.3608 34.44L86.6408 34.56C86.6408 35.3867 86.7341 36.12 86.9208 36.76C87.1208 37.3867 87.4408 37.8867 87.8808 38.26C88.3208 38.62 88.9008 38.8 89.6208 38.8C89.9408 38.8 90.2808 38.7467 90.6408 38.64C91.0141 38.52 91.3808 38.3467 91.7408 38.12C92.1008 37.88 92.4208 37.5867 92.7008 37.24L93.4608 37.94C93.0208 38.58 92.5341 39.0733 92.0008 39.42C91.4674 39.7667 90.9341 40 90.4008 40.12C89.8674 40.2533 89.3741 40.32 88.9208 40.32ZM86.7408 33.36H90.9008C90.8874 32.8267 90.8074 32.38 90.6608 32.02C90.5274 31.6467 90.3274 31.3667 90.0608 31.18C89.7941 30.98 89.4674 30.88 89.0808 30.88C88.4274 30.88 87.9008 31.1 87.5008 31.54C87.1141 31.9667 86.8608 32.5733 86.7408 33.36ZM104.616 40.32C104.043 40.32 103.469 40.2467 102.896 40.1C102.336 39.9533 101.829 39.7333 101.376 39.44C100.923 39.1333 100.556 38.74 100.276 38.26C100.009 37.78 99.8759 37.2067 99.8759 36.54C99.8759 35.6467 100.169 34.86 100.756 34.18C101.343 33.5 102.096 32.98 103.016 32.62C102.576 32.1267 102.236 31.6733 101.996 31.26C101.769 30.8467 101.616 30.4533 101.536 30.08C101.456 29.6933 101.416 29.3067 101.416 28.92C101.429 27.9333 101.783 27.1467 102.476 26.56C103.169 25.9733 104.076 25.68 105.196 25.68C105.889 25.68 106.489 25.82 106.996 26.1C107.516 26.38 107.916 26.7467 108.196 27.2C108.476 27.6533 108.616 28.1533 108.616 28.7C108.616 29.2333 108.489 29.74 108.236 30.22C107.983 30.6867 107.629 31.1267 107.176 31.54C106.723 31.94 106.203 32.3067 105.616 32.64C105.763 32.8 106.016 33.0667 106.376 33.44C106.736 33.8133 107.149 34.2267 107.616 34.68C108.083 35.1333 108.543 35.5733 108.996 36C109.049 35.8133 109.083 35.6267 109.096 35.44C109.123 35.2533 109.136 35.0733 109.136 34.9C109.136 34.5533 109.096 34.26 109.016 34.02C108.936 33.78 108.803 33.5933 108.616 33.46C108.443 33.3133 108.209 33.2333 107.916 33.22V32.16H111.336V33.42L110.036 33.36C110.156 33.52 110.243 33.72 110.296 33.96C110.363 34.1867 110.396 34.44 110.396 34.72C110.396 35.0667 110.363 35.4267 110.296 35.8C110.243 36.1733 110.149 36.54 110.016 36.9C110.096 36.9667 110.176 37.0467 110.256 37.14C110.349 37.22 110.443 37.3 110.536 37.38C111.083 37.8467 111.569 38.22 111.996 38.5C112.436 38.7667 112.776 38.9 113.016 38.9V40H110.976C110.869 40 110.623 39.8933 110.236 39.68C109.849 39.4667 109.383 39.1333 108.836 38.68C108.356 39.1733 107.763 39.5733 107.056 39.88C106.349 40.1733 105.536 40.32 104.616 40.32ZM105.136 39.04C105.749 39.0533 106.289 38.9533 106.756 38.74C107.223 38.5267 107.616 38.2467 107.936 37.9C107.789 37.7667 107.643 37.64 107.496 37.52C107.363 37.3867 107.223 37.2533 107.076 37.12C106.263 36.36 105.583 35.7067 105.036 35.16C104.489 34.6 104.003 34.0733 103.576 33.58C103.256 33.7933 103.009 34.06 102.836 34.38C102.663 34.6867 102.536 34.9933 102.456 35.3C102.389 35.6067 102.356 35.8733 102.356 36.1C102.356 36.74 102.476 37.28 102.716 37.72C102.956 38.16 103.283 38.4867 103.696 38.7C104.109 38.9133 104.589 39.0267 105.136 39.04ZM104.856 31.76C105.443 31.3467 105.883 30.8467 106.176 30.26C106.469 29.66 106.616 29.1267 106.616 28.66C106.616 28.1267 106.483 27.6867 106.216 27.34C105.949 26.9933 105.576 26.82 105.096 26.82C104.656 26.82 104.289 26.9933 103.996 27.34C103.703 27.6733 103.556 28.16 103.556 28.8C103.556 29.2667 103.683 29.7667 103.936 30.3C104.189 30.8333 104.496 31.32 104.856 31.76ZM124.505 27.1C124.145 27.1133 123.858 27.18 123.645 27.3C123.445 27.4067 123.305 27.6 123.225 27.88C123.145 28.16 123.105 28.56 123.105 29.08V37.02C123.105 37.38 123.098 37.7133 123.085 38.02C123.071 38.3267 123.051 38.5667 123.025 38.74C123.251 38.7267 123.511 38.7133 123.805 38.7C124.098 38.6867 124.331 38.68 124.505 38.68V40H119.185V38.9C119.558 38.8867 119.845 38.8267 120.045 38.72C120.245 38.6 120.385 38.4 120.465 38.12C120.545 37.8267 120.585 37.4267 120.585 36.92V28.94C120.585 28.6067 120.591 28.2867 120.605 27.98C120.631 27.6733 120.651 27.4333 120.665 27.26C120.438 27.2733 120.178 27.2867 119.885 27.3C119.591 27.3 119.358 27.3067 119.185 27.32V26H124.505V27.1ZM126.192 40V38.94C126.578 38.94 126.852 38.86 127.012 38.7C127.172 38.5267 127.272 38.2867 127.312 37.98C127.352 37.6733 127.372 37.3267 127.372 36.94V33.18C127.372 32.94 127.378 32.6867 127.392 32.42C127.405 32.1533 127.425 31.88 127.452 31.6C127.238 31.6133 126.992 31.6267 126.712 31.64C126.445 31.6533 126.225 31.6667 126.052 31.68V30.38C126.652 30.38 127.145 30.3533 127.532 30.3C127.918 30.2333 128.218 30.1533 128.432 30.06C128.645 29.9667 128.798 29.88 128.892 29.8H129.732C129.758 29.9467 129.772 30.0667 129.772 30.16C129.772 30.2533 129.778 30.3533 129.792 30.46C129.805 30.5533 129.825 30.6933 129.852 30.88C130.118 30.6533 130.425 30.4533 130.772 30.28C131.132 30.0933 131.492 29.9467 131.852 29.84C132.212 29.7333 132.545 29.68 132.852 29.68C134.052 29.68 134.912 30.0333 135.432 30.74C135.952 31.4467 136.212 32.5733 136.212 34.12V37.14C136.212 37.3533 136.205 37.6133 136.192 37.92C136.192 38.2133 136.172 38.5 136.132 38.78C136.358 38.7533 136.592 38.74 136.832 38.74C137.072 38.7267 137.272 38.72 137.432 38.72V40H132.572V38.94C132.958 38.94 133.232 38.86 133.392 38.7C133.565 38.5267 133.672 38.2867 133.712 37.98C133.752 37.6733 133.772 37.3267 133.772 36.94L133.752 34.1C133.752 33.14 133.605 32.4267 133.312 31.96C133.032 31.48 132.565 31.24 131.912 31.24C131.525 31.2533 131.145 31.3467 130.772 31.52C130.398 31.6933 130.085 31.9133 129.832 32.18C129.845 32.34 129.852 32.5067 129.852 32.68C129.852 32.8533 129.852 33.0267 129.852 33.2L129.832 37.14C129.832 37.3533 129.825 37.6133 129.812 37.92C129.812 38.2133 129.792 38.5 129.752 38.78C129.965 38.7533 130.192 38.74 130.432 38.74C130.685 38.7267 130.892 38.72 131.052 38.72V40H126.192ZM142.197 40.06L139.137 33.26C138.977 32.8733 138.857 32.56 138.777 32.32C138.697 32.08 138.637 31.88 138.597 31.72C138.571 31.56 138.544 31.4 138.517 31.24L137.737 31.28V30H142.077V31.06C141.757 31.06 141.544 31.1467 141.437 31.32C141.344 31.48 141.317 31.7 141.357 31.98C141.411 32.2467 141.497 32.5333 141.617 32.84L142.817 35.72C142.924 35.96 143.031 36.2133 143.137 36.48C143.244 36.7333 143.344 36.9933 143.437 37.26H143.457C143.551 37.0067 143.644 36.7533 143.737 36.5C143.844 36.2333 143.937 35.9667 144.017 35.7L145.117 32.62C145.237 32.2867 145.351 32.0133 145.457 31.8C145.564 31.5867 145.664 31.3933 145.757 31.22L144.517 31.28V30H148.097V31.06C147.791 31.0867 147.524 31.2333 147.297 31.5C147.071 31.7533 146.871 32.0667 146.697 32.44C146.524 32.8 146.364 33.1733 146.217 33.56L143.637 40.06H142.197ZM153.589 40.32C152.629 40.32 151.775 40.1067 151.029 39.68C150.282 39.24 149.702 38.6267 149.289 37.84C148.875 37.04 148.669 36.1 148.669 35.02C148.669 34.0867 148.875 33.2133 149.289 32.4C149.702 31.5867 150.282 30.9333 151.029 30.44C151.789 29.9333 152.669 29.68 153.669 29.68C154.229 29.68 154.769 29.76 155.289 29.92C155.809 30.08 156.275 30.3467 156.689 30.72C157.102 31.0933 157.429 31.5867 157.669 32.2C157.922 32.8133 158.042 33.56 158.029 34.44L151.309 34.56C151.309 35.3867 151.402 36.12 151.589 36.76C151.789 37.3867 152.109 37.8867 152.549 38.26C152.989 38.62 153.569 38.8 154.289 38.8C154.609 38.8 154.949 38.7467 155.309 38.64C155.682 38.52 156.049 38.3467 156.409 38.12C156.769 37.88 157.089 37.5867 157.369 37.24L158.129 37.94C157.689 38.58 157.202 39.0733 156.669 39.42C156.135 39.7667 155.602 40 155.069 40.12C154.535 40.2533 154.042 40.32 153.589 40.32ZM151.409 33.36H155.569C155.555 32.8267 155.475 32.38 155.329 32.02C155.195 31.6467 154.995 31.3667 154.729 31.18C154.462 30.98 154.135 30.88 153.749 30.88C153.095 30.88 152.569 31.1 152.169 31.54C151.782 31.9667 151.529 32.5733 151.409 33.36ZM164.03 40.32C163.417 40.32 162.843 40.24 162.31 40.08C161.777 39.92 161.35 39.7267 161.03 39.5L161.09 40.14H159.79L159.69 36.7H160.77C160.81 37.1533 160.97 37.5667 161.25 37.94C161.53 38.3 161.89 38.5867 162.33 38.8C162.783 39 163.283 39.1 163.83 39.1C164.097 39.1 164.35 39.06 164.59 38.98C164.843 38.9 165.05 38.7733 165.21 38.6C165.383 38.4133 165.47 38.18 165.47 37.9C165.47 37.6067 165.37 37.3667 165.17 37.18C164.983 36.9933 164.717 36.82 164.37 36.66C164.023 36.5 163.617 36.3333 163.15 36.16C162.737 36 162.323 35.8333 161.91 35.66C161.497 35.4867 161.117 35.28 160.77 35.04C160.423 34.7867 160.143 34.48 159.93 34.12C159.717 33.76 159.61 33.32 159.61 32.8C159.61 32.44 159.677 32.08 159.81 31.72C159.943 31.36 160.157 31.0267 160.45 30.72C160.743 30.4 161.117 30.1467 161.57 29.96C162.037 29.7733 162.603 29.68 163.27 29.68C163.63 29.68 164.037 29.74 164.49 29.86C164.943 29.9667 165.343 30.1533 165.69 30.42L165.67 29.78H166.97V33.3H165.89C165.823 32.8333 165.677 32.42 165.45 32.06C165.223 31.6867 164.923 31.3933 164.55 31.18C164.177 30.9667 163.73 30.86 163.21 30.86C162.783 30.86 162.423 30.9667 162.13 31.18C161.837 31.38 161.69 31.68 161.69 32.08C161.69 32.4133 161.803 32.6867 162.03 32.9C162.257 33.1133 162.563 33.2933 162.95 33.44C163.337 33.5867 163.757 33.7467 164.21 33.92C164.837 34.1333 165.403 34.3867 165.91 34.68C166.43 34.9733 166.843 35.3267 167.15 35.74C167.457 36.1533 167.61 36.6667 167.61 37.28C167.61 37.9733 167.437 38.5467 167.09 39C166.743 39.44 166.297 39.7733 165.75 40C165.203 40.2133 164.63 40.32 164.03 40.32ZM173.041 40.32C172.667 40.32 172.301 40.2733 171.941 40.18C171.594 40.0867 171.274 39.9133 170.981 39.66C170.701 39.4067 170.474 39.0333 170.301 38.54C170.127 38.0333 170.041 37.3667 170.041 36.54L170.081 31.38L168.661 31.4V30C169.061 29.9867 169.447 29.8533 169.821 29.6C170.194 29.3333 170.521 28.9867 170.801 28.56C171.081 28.1333 171.267 27.68 171.361 27.2H172.581L172.561 30H175.381V31.28L172.561 31.34L172.541 36.48C172.541 36.88 172.574 37.2533 172.641 37.6C172.721 37.9333 172.854 38.2 173.041 38.4C173.241 38.6 173.507 38.7 173.841 38.7C174.094 38.7 174.381 38.62 174.701 38.46C175.034 38.3 175.367 37.98 175.701 37.5L176.521 38.24C176.187 38.7467 175.841 39.14 175.481 39.42C175.134 39.7 174.794 39.9067 174.461 40.04C174.141 40.1733 173.854 40.2533 173.601 40.28C173.347 40.3067 173.161 40.32 173.041 40.32ZM177.227 40V38.94C177.613 38.94 177.887 38.86 178.047 38.7C178.207 38.5267 178.307 38.2867 178.347 37.98C178.387 37.6733 178.407 37.3267 178.407 36.94V33.18C178.407 32.94 178.413 32.6867 178.427 32.42C178.44 32.1533 178.46 31.88 178.487 31.6C178.26 31.6133 178.013 31.6267 177.747 31.64C177.48 31.6533 177.26 31.6667 177.087 31.68V30.38C177.687 30.38 178.18 30.3533 178.567 30.3C178.953 30.2333 179.253 30.1533 179.467 30.06C179.68 29.9667 179.833 29.88 179.927 29.8H180.767C180.793 29.9333 180.807 30.1 180.807 30.3C180.82 30.4867 180.833 30.66 180.847 30.82C181.287 30.4733 181.767 30.2 182.287 30C182.807 29.7867 183.313 29.68 183.807 29.68C184.433 29.68 184.953 29.7933 185.367 30.02C185.793 30.2467 186.127 30.5733 186.367 31C186.833 30.6133 187.36 30.3 187.947 30.06C188.533 29.8067 189.1 29.68 189.647 29.68C190.753 29.68 191.58 30.0067 192.127 30.66C192.687 31.3 192.96 32.3933 192.947 33.94V37.14C192.947 37.3533 192.94 37.6133 192.927 37.92C192.913 38.2133 192.893 38.5 192.867 38.78C193.08 38.7533 193.307 38.74 193.547 38.74C193.787 38.7267 193.987 38.72 194.147 38.72V40H189.407V38.94C189.753 38.94 190 38.86 190.147 38.7C190.293 38.5267 190.38 38.2867 190.407 37.98C190.447 37.6733 190.467 37.3267 190.467 36.94V33.96C190.467 33 190.313 32.3133 190.007 31.9C189.7 31.4867 189.267 31.28 188.707 31.28C188.333 31.2667 187.973 31.34 187.627 31.5C187.293 31.6467 187 31.8267 186.747 32.04C186.813 32.2933 186.86 32.5667 186.887 32.86C186.913 33.1533 186.927 33.4667 186.927 33.8C186.927 34.36 186.927 34.92 186.927 35.48C186.927 36.0267 186.92 36.58 186.907 37.14C186.907 37.3533 186.9 37.6133 186.887 37.92C186.887 38.2133 186.867 38.5 186.827 38.78C187.04 38.7533 187.267 38.74 187.507 38.74C187.747 38.7267 187.953 38.72 188.127 38.72V40H183.327V38.94C183.687 38.94 183.94 38.86 184.087 38.7C184.247 38.5267 184.347 38.2867 184.387 37.98C184.427 37.6733 184.447 37.3267 184.447 36.94V33.92C184.447 32.96 184.3 32.28 184.007 31.88C183.727 31.4667 183.307 31.2533 182.747 31.24C182.387 31.24 182.04 31.32 181.707 31.48C181.387 31.64 181.107 31.8333 180.867 32.06C180.867 32.2333 180.867 32.4067 180.867 32.58C180.867 32.74 180.867 32.9067 180.867 33.08V37.14C180.867 37.3533 180.86 37.6133 180.847 37.92C180.847 38.2133 180.827 38.5 180.787 38.78C181 38.7533 181.213 38.74 181.427 38.74C181.653 38.7267 181.847 38.72 182.007 38.72V40H177.227ZM200.229 40.32C199.269 40.32 198.416 40.1067 197.669 39.68C196.923 39.24 196.343 38.6267 195.929 37.84C195.516 37.04 195.309 36.1 195.309 35.02C195.309 34.0867 195.516 33.2133 195.929 32.4C196.343 31.5867 196.923 30.9333 197.669 30.44C198.429 29.9333 199.309 29.68 200.309 29.68C200.869 29.68 201.409 29.76 201.929 29.92C202.449 30.08 202.916 30.3467 203.329 30.72C203.743 31.0933 204.069 31.5867 204.309 32.2C204.563 32.8133 204.683 33.56 204.669 34.44L197.949 34.56C197.949 35.3867 198.043 36.12 198.229 36.76C198.429 37.3867 198.749 37.8867 199.189 38.26C199.629 38.62 200.209 38.8 200.929 38.8C201.249 38.8 201.589 38.7467 201.949 38.64C202.323 38.52 202.689 38.3467 203.049 38.12C203.409 37.88 203.729 37.5867 204.009 37.24L204.769 37.94C204.329 38.58 203.843 39.0733 203.309 39.42C202.776 39.7667 202.243 40 201.709 40.12C201.176 40.2533 200.683 40.32 200.229 40.32ZM198.049 33.36H202.209C202.196 32.8267 202.116 32.38 201.969 32.02C201.836 31.6467 201.636 31.3667 201.369 31.18C201.103 30.98 200.776 30.88 200.389 30.88C199.736 30.88 199.209 31.1 198.809 31.54C198.423 31.9667 198.169 32.5733 198.049 33.36ZM206.231 40V38.94C206.617 38.94 206.891 38.86 207.051 38.7C207.211 38.5267 207.311 38.2867 207.351 37.98C207.391 37.6733 207.411 37.3267 207.411 36.94V33.18C207.411 32.94 207.417 32.6867 207.431 32.42C207.444 32.1533 207.464 31.88 207.491 31.6C207.277 31.6133 207.031 31.6267 206.751 31.64C206.484 31.6533 206.264 31.6667 206.091 31.68V30.38C206.691 30.38 207.184 30.3533 207.571 30.3C207.957 30.2333 208.257 30.1533 208.471 30.06C208.684 29.9667 208.837 29.88 208.931 29.8H209.771C209.797 29.9467 209.811 30.0667 209.811 30.16C209.811 30.2533 209.817 30.3533 209.831 30.46C209.844 30.5533 209.864 30.6933 209.891 30.88C210.157 30.6533 210.464 30.4533 210.811 30.28C211.171 30.0933 211.531 29.9467 211.891 29.84C212.251 29.7333 212.584 29.68 212.891 29.68C214.091 29.68 214.951 30.0333 215.471 30.74C215.991 31.4467 216.251 32.5733 216.251 34.12V37.14C216.251 37.3533 216.244 37.6133 216.231 37.92C216.231 38.2133 216.211 38.5 216.171 38.78C216.397 38.7533 216.631 38.74 216.871 38.74C217.111 38.7267 217.311 38.72 217.471 38.72V40H212.611V38.94C212.997 38.94 213.271 38.86 213.431 38.7C213.604 38.5267 213.711 38.2867 213.751 37.98C213.791 37.6733 213.811 37.3267 213.811 36.94L213.791 34.1C213.791 33.14 213.644 32.4267 213.351 31.96C213.071 31.48 212.604 31.24 211.951 31.24C211.564 31.2533 211.184 31.3467 210.811 31.52C210.437 31.6933 210.124 31.9133 209.871 32.18C209.884 32.34 209.891 32.5067 209.891 32.68C209.891 32.8533 209.891 33.0267 209.891 33.2L209.871 37.14C209.871 37.3533 209.864 37.6133 209.851 37.92C209.851 38.2133 209.831 38.5 209.791 38.78C210.004 38.7533 210.231 38.74 210.471 38.74C210.724 38.7267 210.931 38.72 211.091 38.72V40H206.231ZM222.553 40.32C222.179 40.32 221.813 40.2733 221.453 40.18C221.106 40.0867 220.786 39.9133 220.493 39.66C220.213 39.4067 219.986 39.0333 219.813 38.54C219.639 38.0333 219.553 37.3667 219.553 36.54L219.593 31.38L218.173 31.4V30C218.573 29.9867 218.959 29.8533 219.333 29.6C219.706 29.3333 220.033 28.9867 220.312 28.56C220.593 28.1333 220.779 27.68 220.873 27.2H222.093L222.073 30H224.893V31.28L222.073 31.34L222.053 36.48C222.053 36.88 222.086 37.2533 222.153 37.6C222.233 37.9333 222.366 38.2 222.553 38.4C222.753 38.6 223.019 38.7 223.353 38.7C223.606 38.7 223.893 38.62 224.213 38.46C224.546 38.3 224.879 37.98 225.213 37.5L226.033 38.24C225.699 38.7467 225.353 39.14 224.993 39.42C224.646 39.7 224.306 39.9067 223.973 40.04C223.653 40.1733 223.366 40.2533 223.113 40.28C222.859 40.3067 222.673 40.32 222.553 40.32ZM231.178 40.32C230.565 40.32 229.992 40.24 229.458 40.08C228.925 39.92 228.498 39.7267 228.178 39.5L228.238 40.14H226.938L226.838 36.7H227.918C227.958 37.1533 228.118 37.5667 228.398 37.94C228.678 38.3 229.038 38.5867 229.478 38.8C229.932 39 230.432 39.1 230.978 39.1C231.245 39.1 231.498 39.06 231.738 38.98C231.992 38.9 232.198 38.7733 232.358 38.6C232.532 38.4133 232.618 38.18 232.618 37.9C232.618 37.6067 232.518 37.3667 232.318 37.18C232.132 36.9933 231.865 36.82 231.518 36.66C231.172 36.5 230.765 36.3333 230.298 36.16C229.885 36 229.472 35.8333 229.058 35.66C228.645 35.4867 228.265 35.28 227.918 35.04C227.572 34.7867 227.292 34.48 227.078 34.12C226.865 33.76 226.758 33.32 226.758 32.8C226.758 32.44 226.825 32.08 226.958 31.72C227.092 31.36 227.305 31.0267 227.598 30.72C227.892 30.4 228.265 30.1467 228.718 29.96C229.185 29.7733 229.752 29.68 230.418 29.68C230.778 29.68 231.185 29.74 231.638 29.86C232.092 29.9667 232.492 30.1533 232.838 30.42L232.818 29.78H234.118V33.3H233.038C232.972 32.8333 232.825 32.42 232.598 32.06C232.372 31.6867 232.072 31.3933 231.698 31.18C231.325 30.9667 230.878 30.86 230.358 30.86C229.932 30.86 229.572 30.9667 229.278 31.18C228.985 31.38 228.838 31.68 228.838 32.08C228.838 32.4133 228.952 32.6867 229.178 32.9C229.405 33.1133 229.712 33.2933 230.098 33.44C230.485 33.5867 230.905 33.7467 231.358 33.92C231.985 34.1333 232.552 34.3867 233.058 34.68C233.578 34.9733 233.992 35.3267 234.298 35.74C234.605 36.1533 234.758 36.6667 234.758 37.28C234.758 37.9733 234.585 38.5467 234.238 39C233.892 39.44 233.445 39.7733 232.898 40C232.352 40.2133 231.778 40.32 231.178 40.32Z" fill="#1A1A1A"/>
<path d="M1205.71 67.1063L1215.17 63.194C1216.49 62.6505 1217.12 61.1493 1216.58 59.8391L1203.21 27.5153C1202.67 26.2091 1201.17 25.5867 1199.85 26.1319L1190.39 30.0442C1189.07 30.5877 1188.44 32.0889 1188.98 33.3991L1202.34 65.7229C1202.88 67.029 1204.39 67.6515 1205.71 67.1063ZM1194.73 33.7967L1199.43 31.8543L1210.83 59.4389L1206.13 61.3814L1194.73 33.7967ZM1163.53 18.7116L1185.8 72.5635C1186.34 73.8696 1187.84 74.492 1189.16 73.9468L1198.62 70.0345C1199.94 69.491 1200.57 67.9898 1200.03 66.6796L1177.76 12.8294C1177.22 11.5233 1175.72 10.9009 1174.4 11.446L1164.93 15.3583C1163.62 15.9018 1162.99 17.403 1163.53 18.7133L1163.53 18.7116ZM1169.28 19.1108L1173.98 17.1684L1194.28 66.2812L1189.58 68.2236L1169.28 19.1108ZM1161.14 53.0556C1159.83 53.5991 1159.2 55.1003 1159.74 56.4105L1169.25 79.4058C1169.79 80.712 1171.29 81.3344 1172.61 80.7892L1182.07 76.8769C1183.39 76.3334 1184.02 74.8322 1183.48 73.522L1173.97 50.5267C1173.43 49.2205 1171.93 48.5981 1170.61 49.1433L1161.14 53.0556ZM1177.73 73.1227L1173.04 75.0651L1165.49 56.8047L1170.19 54.8623L1177.73 73.1227ZM1148.05 68.2479C1146.74 68.7914 1146.1 70.2926 1146.65 71.6028L1152.7 86.2464C1153.24 87.5525 1154.74 88.1749 1156.06 87.6297L1165.53 83.7175C1166.84 83.174 1167.47 81.6728 1166.93 80.3625L1160.88 65.719C1160.34 64.4128 1158.83 63.7904 1157.51 64.3356L1148.05 68.2479ZM1161.19 79.9632L1156.49 81.9057L1152.39 72.0006L1157.09 70.0582L1161.19 79.9632ZM1145.64 13.903L1148.51 4.85201C1148.74 4.12539 1149.29 3.53864 1149.99 3.24717C1150.7 2.9557 1151.5 2.99112 1152.17 3.33987L1160.6 7.72086C1161.86 8.37234 1162.34 9.92458 1161.68 11.1776C1161.01 12.4365 1159.45 12.9211 1158.2 12.2679L1156.06 11.1553L1159.82 20.2487C1166.12 35.5019 1162.08 53.2857 1149.76 64.507C1149.53 64.7174 1149.28 64.8758 1149.01 64.9873C1148.03 65.3902 1146.87 65.1699 1146.13 64.3556C1145.17 63.3146 1145.24 61.6909 1146.3 60.7292C1157.02 50.9645 1160.54 35.4858 1155.05 22.2188L1151.29 13.1254L1150.56 15.4244C1150.13 16.7754 1148.69 17.5319 1147.33 17.108C1145.98 16.6841 1145.22 15.2492 1145.66 13.8981L1145.64 13.903Z" fill="#EDE495"/>
<rect x="1163.31" y="56.0371" width="7.11525" height="21.3458" transform="rotate(-22.4606 1163.31 56.0371)" fill="#EDE495"/>
<rect x="1167.79" y="18.9883" width="7.11525" height="53.8726" transform="rotate(-22.4606 1167.79 18.9883)" fill="#EDE495"/>
<rect x="1194.18" y="32.2754" width="7.11525" height="32.5269" transform="rotate(-22.4606 1194.18 32.2754)" fill="#EDE495"/>
</g>
<defs>
<linearGradient id="paint0_linear_2036_8797" x1="27.27" y1="3.025" x2="65.5804" y2="244.075" gradientUnits="userSpaceOnUse">
<stop stop-color="#FEFCEA"/>
<stop offset="1" stop-color="#F5EDAA"/>
</linearGradient>
<clipPath id="clip0_2036_8797">
<rect width="1212" height="66" rx="8" fill="white"/>
</clipPath>
</defs>
</svg>
