<svg width="1212" height="66" viewBox="0 0 1212 66" fill="none" xmlns="http://www.w3.org/2000/svg">
<g clip-path="url(#clip0_2036_7899)">
<rect width="1212" height="66" rx="8" fill="url(#paint0_linear_2036_7899)"/>
<ellipse cx="1193.5" cy="33" rx="75.5" ry="75" fill="white" fill-opacity="0.45"/>
<path d="M1192.5 -60C1242.99 -60 1284 -18.6257 1284 32.5C1284 83.6257 1242.99 125 1192.5 125C1142.01 125 1101 83.6257 1101 32.5C1101 -18.6257 1142.01 -60 1192.5 -60Z" stroke="white" stroke-opacity="0.47" stroke-width="8"/>
<path d="M1192.5 -83.5C1255.99 -83.5 1307.5 -31.5928 1307.5 32.5C1307.5 96.5928 1255.99 148.5 1192.5 148.5C1129.01 148.5 1077.5 96.5928 1077.5 32.5C1077.5 -31.5928 1129.01 -83.5 1192.5 -83.5Z" stroke="white" stroke-opacity="0.34" stroke-width="7"/>
<path d="M1192.5 -108.5C1269.81 -108.5 1332.5 -45.3821 1332.5 32.5C1332.5 110.382 1269.81 173.5 1192.5 173.5C1115.19 173.5 1052.5 110.382 1052.5 32.5C1052.5 -45.3821 1115.19 -108.5 1192.5 -108.5Z" stroke="white" stroke-opacity="0.2" stroke-width="3"/>
<path d="M21.04 40V38.9C21.4133 38.8867 21.7 38.8267 21.9 38.72C22.1 38.6 22.24 38.4 22.32 38.12C22.4 37.8267 22.44 37.4267 22.44 36.92V28.94C22.44 28.6067 22.4467 28.2867 22.46 27.98C22.4867 27.6733 22.5067 27.4333 22.52 27.26C22.2933 27.2733 22.0333 27.2867 21.74 27.3C21.4467 27.3 21.2133 27.3067 21.04 27.32V26H30.8L30.9 29.76H29.8C29.8 29 29.6733 28.4333 29.42 28.06C29.1667 27.6733 28.8467 27.4133 28.46 27.28C28.0733 27.1467 27.68 27.0867 27.28 27.1L26.3 27.12C25.9533 27.1333 25.68 27.2 25.48 27.32C25.2933 27.44 25.16 27.6467 25.08 27.94C25 28.22 24.96 28.6067 24.96 29.1V32.58H27.48L27.38 30.86H28.7V35.5H27.62C27.62 34.9267 27.5333 34.5133 27.36 34.26C27.1867 34.0067 26.94 33.8533 26.62 33.8C26.3133 33.7333 25.9467 33.7133 25.52 33.74L24.96 33.76V37.02C24.96 37.38 24.9533 37.7133 24.94 38.02C24.9267 38.3267 24.9067 38.5667 24.88 38.74C25.0533 38.7267 25.2533 38.72 25.48 38.72C25.72 38.7067 25.9533 38.7 26.18 38.7C26.42 38.6867 26.6067 38.68 26.74 38.68V40H21.04ZM31.8556 38.94C32.2423 38.94 32.5156 38.86 32.6756 38.7C32.8356 38.5267 32.9356 38.2867 32.9756 37.98C33.0156 37.6733 33.0356 37.3267 33.0356 36.94V33.18C33.0356 32.94 33.0423 32.6867 33.0556 32.42C33.069 32.1533 33.089 31.88 33.1156 31.6C32.889 31.6133 32.6423 31.6267 32.3756 31.64C32.109 31.64 31.889 31.6467 31.7156 31.66V30.38H32.4556C32.989 30.38 33.4356 30.32 33.7956 30.2C34.1556 30.0667 34.409 29.9333 34.5556 29.8H35.3956C35.4223 29.96 35.4423 30.2133 35.4556 30.56C35.469 30.9067 35.4756 31.2533 35.4756 31.6C35.7823 31.2 36.1023 30.86 36.4356 30.58C36.769 30.2867 37.109 30.0667 37.4556 29.92C37.8156 29.76 38.1823 29.68 38.5556 29.68C38.9823 29.68 39.3556 29.8 39.6756 30.04C40.009 30.28 40.1756 30.6667 40.1756 31.2C40.1756 31.3733 40.129 31.56 40.0356 31.76C39.9556 31.96 39.8223 32.1267 39.6356 32.26C39.4623 32.3933 39.2223 32.46 38.9156 32.46C38.6356 32.46 38.369 32.3733 38.1156 32.2C37.8756 32.0133 37.749 31.72 37.7356 31.32C37.4556 31.3067 37.1623 31.4067 36.8556 31.62C36.5623 31.8333 36.2956 32.0933 36.0556 32.4C35.8156 32.7067 35.629 33.02 35.4956 33.34L35.5156 37.14C35.5156 37.3533 35.509 37.6133 35.4956 37.92C35.4823 38.2133 35.4623 38.5 35.4356 38.78C35.649 38.7533 35.8756 38.74 36.1156 38.74C36.3556 38.7267 36.5556 38.72 36.7156 38.72V40H31.8556V38.94ZM46.7558 40C46.7158 39.8 46.6891 39.6333 46.6758 39.5C46.6758 39.3533 46.6691 39.1867 46.6558 39C46.2024 39.4533 45.7158 39.7867 45.1958 40C44.6891 40.2133 44.1624 40.32 43.6158 40.32C42.7091 40.32 42.0091 40.0733 41.5158 39.58C41.0358 39.0867 40.7958 38.48 40.7958 37.76C40.7958 37.12 40.9691 36.58 41.3158 36.14C41.6624 35.6867 42.1158 35.32 42.6758 35.04C43.2358 34.7467 43.8558 34.5267 44.5358 34.38C45.2158 34.22 45.8891 34.1333 46.5558 34.12V33.02C46.5558 32.6333 46.5091 32.28 46.4158 31.96C46.3358 31.6267 46.1824 31.3667 45.9558 31.18C45.7291 30.98 45.3958 30.88 44.9558 30.88C44.6624 30.8933 44.3624 30.96 44.0558 31.08C43.7624 31.1867 43.5291 31.36 43.3558 31.6C43.4624 31.72 43.5291 31.8533 43.5558 32C43.5824 32.1333 43.5958 32.2533 43.5958 32.36C43.5958 32.6 43.5024 32.8533 43.3158 33.12C43.1291 33.3733 42.8291 33.4933 42.4158 33.48C42.0558 33.4667 41.7758 33.34 41.5758 33.1C41.3891 32.86 41.2958 32.5733 41.2958 32.24C41.2958 31.7333 41.4758 31.2933 41.8358 30.92C42.2091 30.5333 42.7091 30.2333 43.3358 30.02C43.9624 29.7933 44.6624 29.68 45.4358 29.68C46.5824 29.68 47.4624 29.98 48.0758 30.58C48.6891 31.18 48.9891 32.14 48.9758 33.46C48.9758 33.9267 48.9758 34.3533 48.9758 34.74C48.9758 35.1133 48.9691 35.4933 48.9558 35.88C48.9558 36.2533 48.9558 36.6733 48.9558 37.14C48.9558 37.34 48.9491 37.5933 48.9358 37.9C48.9224 38.1933 48.9024 38.4867 48.8758 38.78C49.1158 38.7533 49.3558 38.74 49.5958 38.74C49.8491 38.7267 50.0558 38.7133 50.2158 38.7V40H46.7558ZM46.5358 35.3C46.1358 35.3267 45.7424 35.3933 45.3558 35.5C44.9691 35.5933 44.6224 35.7267 44.3158 35.9C44.0091 36.0733 43.7624 36.2933 43.5758 36.56C43.4024 36.8133 43.3224 37.1067 43.3358 37.44C43.3491 37.8533 43.4824 38.16 43.7358 38.36C43.9891 38.5467 44.2824 38.64 44.6158 38.64C45.0024 38.64 45.3491 38.56 45.6558 38.4C45.9758 38.24 46.2691 38.0267 46.5358 37.76C46.5358 37.6267 46.5358 37.4867 46.5358 37.34C46.5358 37.1933 46.5358 37.0467 46.5358 36.9C46.5358 36.7133 46.5358 36.48 46.5358 36.2C46.5358 35.92 46.5358 35.62 46.5358 35.3ZM55.5664 40.32C54.7931 40.32 54.1597 40.1733 53.6664 39.88C53.1864 39.5867 52.8331 39.12 52.6064 38.48C52.3797 37.8267 52.2664 36.9733 52.2664 35.92V33.2C52.2664 32.9733 52.2731 32.72 52.2864 32.44C52.2997 32.16 52.3131 31.88 52.3264 31.6C52.1131 31.6133 51.8731 31.6267 51.6064 31.64C51.3397 31.64 51.1197 31.6467 50.9464 31.66V30.38H51.2864C52.0197 30.38 52.5864 30.32 52.9864 30.2C53.3997 30.0667 53.6797 29.9333 53.8264 29.8H54.7464V35.92C54.7464 36.88 54.8731 37.5933 55.1264 38.06C55.3931 38.5267 55.8197 38.76 56.4064 38.76C56.8064 38.7467 57.1997 38.6267 57.5864 38.4C57.9864 38.1733 58.3064 37.9067 58.5464 37.6V33.28C58.5464 33.0133 58.5531 32.74 58.5664 32.46C58.5797 32.1667 58.5997 31.88 58.6264 31.6C58.4131 31.6133 58.1664 31.6267 57.8864 31.64C57.6197 31.64 57.3997 31.6467 57.2264 31.66V30.38H57.7464C58.3597 30.38 58.8664 30.3133 59.2664 30.18C59.6797 30.0467 59.9531 29.92 60.0864 29.8H61.0064V36.98C61.0064 37.1667 60.9997 37.44 60.9864 37.8C60.9731 38.16 60.9531 38.4867 60.9264 38.78C61.1531 38.7533 61.3931 38.74 61.6464 38.74C61.8997 38.7267 62.1064 38.7133 62.2664 38.7V40H58.7864C58.7597 39.8133 58.7331 39.6267 58.7064 39.44C58.6931 39.2533 58.6797 39.0733 58.6664 38.9C58.2531 39.2733 57.7864 39.6067 57.2664 39.9C56.7597 40.18 56.1931 40.32 55.5664 40.32ZM67.633 40.32C66.833 40.32 66.1196 40.1133 65.493 39.7C64.8663 39.2867 64.373 38.7 64.013 37.94C63.6663 37.18 63.493 36.2867 63.493 35.26C63.493 34.18 63.7063 33.22 64.133 32.38C64.5596 31.54 65.1463 30.88 65.893 30.4C66.653 29.92 67.5263 29.68 68.513 29.68C68.8996 29.68 69.2596 29.7267 69.593 29.82C69.9396 29.9 70.2396 29.9933 70.493 30.1V28.32C70.493 28.12 70.493 27.8733 70.493 27.58C70.5063 27.2867 70.5263 26.9933 70.553 26.7C70.3396 26.7133 70.093 26.7267 69.813 26.74C69.5463 26.7533 69.3196 26.7667 69.133 26.78V25.48C69.7463 25.48 70.2463 25.4533 70.633 25.4C71.0196 25.3333 71.3196 25.2533 71.533 25.16C71.7596 25.0667 71.9196 24.98 72.013 24.9H72.933V37.14C72.933 37.34 72.9263 37.5933 72.913 37.9C72.8996 38.1933 72.8796 38.4867 72.853 38.78C73.0796 38.7533 73.313 38.74 73.553 38.74C73.8063 38.7267 74.0196 38.7133 74.193 38.7V40H70.713C70.6863 39.84 70.6596 39.68 70.633 39.52C70.6196 39.3467 70.5996 39.1867 70.573 39.04C70.1596 39.48 69.7063 39.8 69.213 40C68.7196 40.2133 68.193 40.32 67.633 40.32ZM68.573 38.78C68.9463 38.78 69.3063 38.68 69.653 38.48C69.9996 38.2667 70.2796 38.0067 70.493 37.7C70.4796 37.5133 70.473 37.3267 70.473 37.14C70.473 36.94 70.473 36.74 70.473 36.54L70.493 31.42C70.293 31.26 70.0396 31.14 69.733 31.06C69.4263 30.9667 69.113 30.92 68.793 30.92C68.1663 30.9333 67.653 31.1333 67.253 31.52C66.8663 31.8933 66.5796 32.3867 66.393 33C66.2196 33.6133 66.1396 34.28 66.153 35C66.153 35.6533 66.2396 36.2667 66.413 36.84C66.5863 37.4133 66.8463 37.88 67.193 38.24C67.553 38.6 68.013 38.78 68.573 38.78ZM80.0066 40.32C79.3932 40.32 78.8199 40.24 78.2866 40.08C77.7532 39.92 77.3266 39.7267 77.0066 39.5L77.0666 40.14H75.7666L75.6666 36.7H76.7466C76.7866 37.1533 76.9466 37.5667 77.2266 37.94C77.5066 38.3 77.8666 38.5867 78.3066 38.8C78.7599 39 79.2599 39.1 79.8066 39.1C80.0732 39.1 80.3266 39.06 80.5666 38.98C80.8199 38.9 81.0266 38.7733 81.1866 38.6C81.3599 38.4133 81.4466 38.18 81.4466 37.9C81.4466 37.6067 81.3466 37.3667 81.1466 37.18C80.9599 36.9933 80.6932 36.82 80.3466 36.66C79.9999 36.5 79.5932 36.3333 79.1266 36.16C78.7132 36 78.2999 35.8333 77.8866 35.66C77.4732 35.4867 77.0932 35.28 76.7466 35.04C76.3999 34.7867 76.1199 34.48 75.9066 34.12C75.6932 33.76 75.5866 33.32 75.5866 32.8C75.5866 32.44 75.6532 32.08 75.7866 31.72C75.9199 31.36 76.1332 31.0267 76.4266 30.72C76.7199 30.4 77.0932 30.1467 77.5466 29.96C78.0132 29.7733 78.5799 29.68 79.2466 29.68C79.6066 29.68 80.0132 29.74 80.4666 29.86C80.9199 29.9667 81.3199 30.1533 81.6666 30.42L81.6466 29.78H82.9466V33.3H81.8666C81.7999 32.8333 81.6532 32.42 81.4266 32.06C81.1999 31.6867 80.8999 31.3933 80.5266 31.18C80.1532 30.9667 79.7066 30.86 79.1866 30.86C78.7599 30.86 78.3999 30.9667 78.1066 31.18C77.8132 31.38 77.6666 31.68 77.6666 32.08C77.6666 32.4133 77.7799 32.6867 78.0066 32.9C78.2332 33.1133 78.5399 33.2933 78.9266 33.44C79.3132 33.5867 79.7332 33.7467 80.1866 33.92C80.8132 34.1333 81.3799 34.3867 81.8866 34.68C82.4066 34.9733 82.8199 35.3267 83.1266 35.74C83.4332 36.1533 83.5866 36.6667 83.5866 37.28C83.5866 37.9733 83.4132 38.5467 83.0666 39C82.7199 39.44 82.2732 39.7733 81.7266 40C81.1799 40.2133 80.6066 40.32 80.0066 40.32ZM94.8112 40.32C94.2379 40.32 93.6646 40.2467 93.0913 40.1C92.5313 39.9533 92.0246 39.7333 91.5713 39.44C91.1179 39.1333 90.7513 38.74 90.4713 38.26C90.2046 37.78 90.0713 37.2067 90.0713 36.54C90.0713 35.6467 90.3646 34.86 90.9513 34.18C91.5379 33.5 92.2913 32.98 93.2113 32.62C92.7713 32.1267 92.4313 31.6733 92.1913 31.26C91.9646 30.8467 91.8113 30.4533 91.7313 30.08C91.6513 29.6933 91.6113 29.3067 91.6113 28.92C91.6246 27.9333 91.9779 27.1467 92.6713 26.56C93.3646 25.9733 94.2713 25.68 95.3913 25.68C96.0846 25.68 96.6846 25.82 97.1913 26.1C97.7113 26.38 98.1113 26.7467 98.3913 27.2C98.6713 27.6533 98.8113 28.1533 98.8113 28.7C98.8113 29.2333 98.6846 29.74 98.4313 30.22C98.1779 30.6867 97.8246 31.1267 97.3713 31.54C96.9179 31.94 96.3979 32.3067 95.8113 32.64C95.9579 32.8 96.2113 33.0667 96.5713 33.44C96.9313 33.8133 97.3446 34.2267 97.8113 34.68C98.2779 35.1333 98.7379 35.5733 99.1913 36C99.2446 35.8133 99.2779 35.6267 99.2913 35.44C99.3179 35.2533 99.3313 35.0733 99.3313 34.9C99.3313 34.5533 99.2913 34.26 99.2113 34.02C99.1313 33.78 98.9979 33.5933 98.8113 33.46C98.6379 33.3133 98.4046 33.2333 98.1113 33.22V32.16H101.531V33.42L100.231 33.36C100.351 33.52 100.438 33.72 100.491 33.96C100.558 34.1867 100.591 34.44 100.591 34.72C100.591 35.0667 100.558 35.4267 100.491 35.8C100.438 36.1733 100.345 36.54 100.211 36.9C100.291 36.9667 100.371 37.0467 100.451 37.14C100.545 37.22 100.638 37.3 100.731 37.38C101.278 37.8467 101.765 38.22 102.191 38.5C102.631 38.7667 102.971 38.9 103.211 38.9V40H101.171C101.065 40 100.818 39.8933 100.431 39.68C100.045 39.4667 99.5779 39.1333 99.0313 38.68C98.5513 39.1733 97.9579 39.5733 97.2513 39.88C96.5446 40.1733 95.7313 40.32 94.8112 40.32ZM95.3313 39.04C95.9446 39.0533 96.4846 38.9533 96.9513 38.74C97.4179 38.5267 97.8113 38.2467 98.1313 37.9C97.9846 37.7667 97.8379 37.64 97.6913 37.52C97.5579 37.3867 97.4179 37.2533 97.2713 37.12C96.4579 36.36 95.7779 35.7067 95.2313 35.16C94.6846 34.6 94.1979 34.0733 93.7713 33.58C93.4513 33.7933 93.2046 34.06 93.0313 34.38C92.8579 34.6867 92.7313 34.9933 92.6513 35.3C92.5846 35.6067 92.5513 35.8733 92.5513 36.1C92.5513 36.74 92.6713 37.28 92.9113 37.72C93.1513 38.16 93.4779 38.4867 93.8913 38.7C94.3046 38.9133 94.7846 39.0267 95.3313 39.04ZM95.0513 31.76C95.6379 31.3467 96.0779 30.8467 96.3713 30.26C96.6646 29.66 96.8113 29.1267 96.8113 28.66C96.8113 28.1267 96.6779 27.6867 96.4113 27.34C96.1446 26.9933 95.7713 26.82 95.2913 26.82C94.8513 26.82 94.4846 26.9933 94.1913 27.34C93.8979 27.6733 93.7513 28.16 93.7513 28.8C93.7513 29.2667 93.8779 29.7667 94.1313 30.3C94.3846 30.8333 94.6913 31.32 95.0513 31.76ZM109.38 40V38.9C109.753 38.8867 110.04 38.82 110.24 38.7C110.44 38.58 110.58 38.38 110.66 38.1C110.74 37.8067 110.78 37.4 110.78 36.88V28.98C110.78 28.62 110.787 28.2867 110.8 27.98C110.827 27.6733 110.847 27.4333 110.86 27.26C110.633 27.2733 110.373 27.2867 110.08 27.3C109.787 27.3 109.553 27.3067 109.38 27.32V26C110.233 25.9867 111.093 25.98 111.96 25.98C112.827 25.98 113.7 25.9733 114.58 25.96C116.153 25.9467 117.4 26.2333 118.32 26.82C119.24 27.4067 119.673 28.3067 119.62 29.52C119.607 29.92 119.487 30.3133 119.26 30.7C119.033 31.0867 118.7 31.4333 118.26 31.74C117.82 32.0467 117.267 32.28 116.6 32.44V32.46C117.973 32.6067 118.993 33.02 119.66 33.7C120.327 34.3667 120.66 35.1467 120.66 36.04C120.66 36.8933 120.453 37.6133 120.04 38.2C119.627 38.7867 119.053 39.2333 118.32 39.54C117.6 39.8467 116.78 40 115.86 40H109.38ZM113.22 38.78C113.447 38.7933 113.68 38.8 113.92 38.8C114.173 38.8 114.413 38.8 114.64 38.8C114.867 38.7867 115.06 38.78 115.22 38.78C116.1 38.7533 116.767 38.5 117.22 38.02C117.687 37.5267 117.92 36.8667 117.92 36.04C117.92 35.36 117.78 34.8267 117.5 34.44C117.233 34.0533 116.88 33.78 116.44 33.62C116.013 33.46 115.553 33.38 115.06 33.38C114.7 33.38 114.387 33.38 114.12 33.38C113.853 33.38 113.58 33.3933 113.3 33.42V37.1C113.3 37.46 113.293 37.7867 113.28 38.08C113.267 38.3733 113.247 38.6067 113.22 38.78ZM113.3 32.2L114.48 32.18C115.107 32.1667 115.6 32.0333 115.96 31.78C116.32 31.5133 116.58 31.1733 116.74 30.76C116.9 30.3333 116.98 29.8733 116.98 29.38C116.967 28.7933 116.833 28.34 116.58 28.02C116.34 27.6867 116.04 27.4533 115.68 27.32C115.32 27.1867 114.947 27.1267 114.56 27.14C114.28 27.14 114.047 27.18 113.86 27.26C113.673 27.34 113.533 27.5067 113.44 27.76C113.347 28.0133 113.3 28.3933 113.3 28.9V32.2ZM121.953 38.94C122.34 38.94 122.613 38.86 122.773 38.7C122.933 38.5267 123.033 38.2867 123.073 37.98C123.113 37.6733 123.133 37.3267 123.133 36.94V33.18C123.133 32.94 123.14 32.6867 123.153 32.42C123.167 32.1533 123.187 31.88 123.213 31.6C122.987 31.6133 122.74 31.6267 122.473 31.64C122.207 31.64 121.987 31.6467 121.813 31.66V30.38H122.553C123.087 30.38 123.533 30.32 123.893 30.2C124.253 30.0667 124.507 29.9333 124.653 29.8H125.493C125.52 29.96 125.54 30.2133 125.553 30.56C125.567 30.9067 125.573 31.2533 125.573 31.6C125.88 31.2 126.2 30.86 126.533 30.58C126.867 30.2867 127.207 30.0667 127.553 29.92C127.913 29.76 128.28 29.68 128.653 29.68C129.08 29.68 129.453 29.8 129.773 30.04C130.107 30.28 130.273 30.6667 130.273 31.2C130.273 31.3733 130.227 31.56 130.133 31.76C130.053 31.96 129.92 32.1267 129.733 32.26C129.56 32.3933 129.32 32.46 129.013 32.46C128.733 32.46 128.467 32.3733 128.213 32.2C127.973 32.0133 127.847 31.72 127.833 31.32C127.553 31.3067 127.26 31.4067 126.953 31.62C126.66 31.8333 126.393 32.0933 126.153 32.4C125.913 32.7067 125.727 33.02 125.593 33.34L125.613 37.14C125.613 37.3533 125.607 37.6133 125.593 37.92C125.58 38.2133 125.56 38.5 125.533 38.78C125.747 38.7533 125.973 38.74 126.213 38.74C126.453 38.7267 126.653 38.72 126.813 38.72V40H121.953V38.94ZM135.854 40.32C134.894 40.32 134.041 40.1067 133.294 39.68C132.548 39.24 131.968 38.6267 131.554 37.84C131.141 37.04 130.934 36.1 130.934 35.02C130.934 34.0867 131.141 33.2133 131.554 32.4C131.968 31.5867 132.548 30.9333 133.294 30.44C134.054 29.9333 134.934 29.68 135.934 29.68C136.494 29.68 137.034 29.76 137.554 29.92C138.074 30.08 138.541 30.3467 138.954 30.72C139.368 31.0933 139.694 31.5867 139.934 32.2C140.188 32.8133 140.308 33.56 140.294 34.44L133.574 34.56C133.574 35.3867 133.668 36.12 133.854 36.76C134.054 37.3867 134.374 37.8867 134.814 38.26C135.254 38.62 135.834 38.8 136.554 38.8C136.874 38.8 137.214 38.7467 137.574 38.64C137.948 38.52 138.314 38.3467 138.674 38.12C139.034 37.88 139.354 37.5867 139.634 37.24L140.394 37.94C139.954 38.58 139.468 39.0733 138.934 39.42C138.401 39.7667 137.868 40 137.334 40.12C136.801 40.2533 136.308 40.32 135.854 40.32ZM133.674 33.36H137.834C137.821 32.8267 137.741 32.38 137.594 32.02C137.461 31.6467 137.261 31.3667 136.994 31.18C136.728 30.98 136.401 30.88 136.014 30.88C135.361 30.88 134.834 31.1 134.434 31.54C134.048 31.9667 133.794 32.5733 133.674 33.36ZM147.576 40C147.536 39.8 147.509 39.6333 147.496 39.5C147.496 39.3533 147.489 39.1867 147.476 39C147.023 39.4533 146.536 39.7867 146.016 40C145.509 40.2133 144.983 40.32 144.436 40.32C143.529 40.32 142.829 40.0733 142.336 39.58C141.856 39.0867 141.616 38.48 141.616 37.76C141.616 37.12 141.789 36.58 142.136 36.14C142.483 35.6867 142.936 35.32 143.496 35.04C144.056 34.7467 144.676 34.5267 145.356 34.38C146.036 34.22 146.709 34.1333 147.376 34.12V33.02C147.376 32.6333 147.329 32.28 147.236 31.96C147.156 31.6267 147.003 31.3667 146.776 31.18C146.549 30.98 146.216 30.88 145.776 30.88C145.483 30.8933 145.183 30.96 144.876 31.08C144.583 31.1867 144.349 31.36 144.176 31.6C144.283 31.72 144.349 31.8533 144.376 32C144.403 32.1333 144.416 32.2533 144.416 32.36C144.416 32.6 144.323 32.8533 144.136 33.12C143.949 33.3733 143.649 33.4933 143.236 33.48C142.876 33.4667 142.596 33.34 142.396 33.1C142.209 32.86 142.116 32.5733 142.116 32.24C142.116 31.7333 142.296 31.2933 142.656 30.92C143.029 30.5333 143.529 30.2333 144.156 30.02C144.783 29.7933 145.483 29.68 146.256 29.68C147.403 29.68 148.283 29.98 148.896 30.58C149.509 31.18 149.809 32.14 149.796 33.46C149.796 33.9267 149.796 34.3533 149.796 34.74C149.796 35.1133 149.789 35.4933 149.776 35.88C149.776 36.2533 149.776 36.6733 149.776 37.14C149.776 37.34 149.769 37.5933 149.756 37.9C149.743 38.1933 149.723 38.4867 149.696 38.78C149.936 38.7533 150.176 38.74 150.416 38.74C150.669 38.7267 150.876 38.7133 151.036 38.7V40H147.576ZM147.356 35.3C146.956 35.3267 146.563 35.3933 146.176 35.5C145.789 35.5933 145.443 35.7267 145.136 35.9C144.829 36.0733 144.583 36.2933 144.396 36.56C144.223 36.8133 144.143 37.1067 144.156 37.44C144.169 37.8533 144.303 38.16 144.556 38.36C144.809 38.5467 145.103 38.64 145.436 38.64C145.823 38.64 146.169 38.56 146.476 38.4C146.796 38.24 147.089 38.0267 147.356 37.76C147.356 37.6267 147.356 37.4867 147.356 37.34C147.356 37.1933 147.356 37.0467 147.356 36.9C147.356 36.7133 147.356 36.48 147.356 36.2C147.356 35.92 147.356 35.62 147.356 35.3ZM157.046 40.32C156.152 40.32 155.326 40.12 154.566 39.72C153.819 39.32 153.219 38.74 152.766 37.98C152.326 37.2067 152.106 36.28 152.106 35.2C152.106 34.4667 152.232 33.7733 152.486 33.12C152.739 32.4533 153.092 31.8667 153.546 31.36C154.012 30.84 154.566 30.4333 155.206 30.14C155.846 29.8333 156.552 29.68 157.326 29.68C158.139 29.68 158.826 29.8067 159.386 30.06C159.946 30.3 160.372 30.6267 160.666 31.04C160.959 31.44 161.106 31.8667 161.106 32.32C161.106 32.68 160.999 32.9933 160.786 33.26C160.586 33.5267 160.292 33.6667 159.906 33.68C159.452 33.6933 159.132 33.5667 158.946 33.3C158.772 33.02 158.686 32.76 158.686 32.52C158.686 32.3867 158.706 32.2467 158.746 32.1C158.786 31.94 158.852 31.7933 158.946 31.66C158.852 31.42 158.699 31.2467 158.486 31.14C158.272 31.02 158.052 30.94 157.826 30.9C157.599 30.86 157.419 30.8467 157.286 30.86C156.552 30.8867 155.946 31.22 155.466 31.86C154.986 32.5 154.746 33.4333 154.746 34.66C154.746 35.3933 154.846 36.0733 155.046 36.7C155.259 37.3133 155.579 37.8133 156.006 38.2C156.432 38.5733 156.979 38.7667 157.646 38.78C158.232 38.7933 158.799 38.6533 159.346 38.36C159.892 38.0533 160.339 37.66 160.686 37.18L161.486 37.92C161.046 38.5467 160.572 39.0333 160.066 39.38C159.559 39.7267 159.046 39.9667 158.526 40.1C158.019 40.2467 157.526 40.32 157.046 40.32ZM168.855 38.94C169.241 38.94 169.515 38.86 169.675 38.7C169.835 38.5267 169.935 38.2867 169.975 37.98C170.015 37.6733 170.035 37.3267 170.035 36.94V34.1C170.021 33.14 169.868 32.4267 169.575 31.96C169.281 31.4933 168.821 31.26 168.195 31.26C167.808 31.26 167.421 31.3467 167.035 31.52C166.661 31.6933 166.355 31.9067 166.115 32.16V37.14C166.115 37.3533 166.108 37.6133 166.095 37.92C166.081 38.2133 166.055 38.5 166.015 38.78C166.241 38.7533 166.475 38.74 166.715 38.74C166.955 38.7267 167.155 38.72 167.315 38.72V40H162.455V38.94C162.841 38.94 163.115 38.86 163.275 38.7C163.448 38.5267 163.548 38.2867 163.575 37.98C163.615 37.6733 163.635 37.3267 163.635 36.94V28.3C163.635 28.0733 163.641 27.8267 163.655 27.56C163.668 27.28 163.688 26.9933 163.715 26.7C163.488 26.7133 163.241 26.7267 162.975 26.74C162.708 26.7533 162.488 26.7667 162.315 26.78V25.48C162.928 25.48 163.428 25.4533 163.815 25.4C164.201 25.3333 164.501 25.2533 164.715 25.16C164.941 25.0667 165.101 24.98 165.195 24.9H166.115V30.86C166.381 30.6333 166.688 30.4333 167.035 30.26C167.395 30.0867 167.761 29.9467 168.135 29.84C168.508 29.7333 168.848 29.68 169.155 29.68C170.355 29.68 171.208 30.0333 171.715 30.74C172.235 31.4467 172.495 32.5733 172.495 34.12L172.515 37.14C172.515 37.3533 172.508 37.6133 172.495 37.92C172.481 38.2133 172.461 38.5 172.435 38.78C172.648 38.7533 172.868 38.74 173.095 38.74C173.335 38.7267 173.541 38.72 173.715 38.72V40H168.855V38.94ZM179.8 40.32C178.84 40.32 177.986 40.1067 177.24 39.68C176.493 39.24 175.913 38.6267 175.5 37.84C175.086 37.04 174.88 36.1 174.88 35.02C174.88 34.0867 175.086 33.2133 175.5 32.4C175.913 31.5867 176.493 30.9333 177.24 30.44C178 29.9333 178.88 29.68 179.88 29.68C180.44 29.68 180.98 29.76 181.5 29.92C182.02 30.08 182.486 30.3467 182.9 30.72C183.313 31.0933 183.64 31.5867 183.88 32.2C184.133 32.8133 184.253 33.56 184.24 34.44L177.52 34.56C177.52 35.3867 177.613 36.12 177.8 36.76C178 37.3867 178.32 37.8867 178.76 38.26C179.2 38.62 179.78 38.8 180.5 38.8C180.82 38.8 181.16 38.7467 181.52 38.64C181.893 38.52 182.26 38.3467 182.62 38.12C182.98 37.88 183.3 37.5867 183.58 37.24L184.34 37.94C183.9 38.58 183.413 39.0733 182.88 39.42C182.346 39.7667 181.813 40 181.28 40.12C180.746 40.2533 180.253 40.32 179.8 40.32ZM177.62 33.36H181.78C181.766 32.8267 181.686 32.38 181.54 32.02C181.406 31.6467 181.206 31.3667 180.94 31.18C180.673 30.98 180.346 30.88 179.96 30.88C179.306 30.88 178.78 31.1 178.38 31.54C177.993 31.9667 177.74 32.5733 177.62 33.36ZM190.241 40.32C189.628 40.32 189.054 40.24 188.521 40.08C187.988 39.92 187.561 39.7267 187.241 39.5L187.301 40.14H186.001L185.901 36.7H186.981C187.021 37.1533 187.181 37.5667 187.461 37.94C187.741 38.3 188.101 38.5867 188.541 38.8C188.994 39 189.494 39.1 190.041 39.1C190.308 39.1 190.561 39.06 190.801 38.98C191.054 38.9 191.261 38.7733 191.421 38.6C191.594 38.4133 191.681 38.18 191.681 37.9C191.681 37.6067 191.581 37.3667 191.381 37.18C191.194 36.9933 190.928 36.82 190.581 36.66C190.234 36.5 189.828 36.3333 189.361 36.16C188.948 36 188.534 35.8333 188.121 35.66C187.708 35.4867 187.328 35.28 186.981 35.04C186.634 34.7867 186.354 34.48 186.141 34.12C185.928 33.76 185.821 33.32 185.821 32.8C185.821 32.44 185.888 32.08 186.021 31.72C186.154 31.36 186.368 31.0267 186.661 30.72C186.954 30.4 187.328 30.1467 187.781 29.96C188.248 29.7733 188.814 29.68 189.481 29.68C189.841 29.68 190.248 29.74 190.701 29.86C191.154 29.9667 191.554 30.1533 191.901 30.42L191.881 29.78H193.181V33.3H192.101C192.034 32.8333 191.888 32.42 191.661 32.06C191.434 31.6867 191.134 31.3933 190.761 31.18C190.388 30.9667 189.941 30.86 189.421 30.86C188.994 30.86 188.634 30.9667 188.341 31.18C188.048 31.38 187.901 31.68 187.901 32.08C187.901 32.4133 188.014 32.6867 188.241 32.9C188.468 33.1133 188.774 33.2933 189.161 33.44C189.548 33.5867 189.968 33.7467 190.421 33.92C191.048 34.1333 191.614 34.3867 192.121 34.68C192.641 34.9733 193.054 35.3267 193.361 35.74C193.668 36.1533 193.821 36.6667 193.821 37.28C193.821 37.9733 193.648 38.5467 193.301 39C192.954 39.44 192.508 39.7733 191.961 40C191.414 40.2133 190.841 40.32 190.241 40.32Z" fill="#1A1A1A"/>
<path d="M1190.61 19.6384L1163.51 31.3672L1161.48 26.6786C1158.95 20.8241 1161.64 14.0012 1167.47 11.474C1170.24 10.2744 1173.34 10.2173 1176.18 11.309C1177.63 11.8693 1179.26 11.1352 1179.81 9.68233C1180.37 8.22952 1179.63 6.60119 1178.18 6.04076C1173.95 4.41487 1169.35 4.50606 1165.23 6.29133C1156.55 10.0494 1152.55 20.1939 1156.32 28.9063L1158.35 33.595L1157.59 33.9219C1152.62 36.0766 1150.32 41.8871 1152.48 46.8788L1163.69 72.757C1165.85 77.7486 1171.66 80.0578 1176.64 77.9031L1209.65 63.6156C1214.63 61.4608 1216.92 55.6436 1214.76 50.652L1203.56 24.7778C1201.4 19.7862 1195.59 17.4837 1190.61 19.6384ZM1186.14 54.5878C1182.94 55.9693 1179.21 54.4872 1177.83 51.2868C1176.44 48.0864 1177.91 44.3463 1181.1 42.9648C1184.31 41.5776 1188.04 43.0757 1189.42 46.2695C1190.81 49.467 1189.34 53.2006 1186.14 54.5878Z" fill="#F3BDBD"/>
</g>
<defs>
<linearGradient id="paint0_linear_2036_7899" x1="21.21" y1="3.3" x2="57.8429" y2="238.041" gradientUnits="userSpaceOnUse">
<stop stop-color="#FFF6F6"/>
<stop offset="1" stop-color="#FBCFCF"/>
</linearGradient>
<clipPath id="clip0_2036_7899">
<rect width="1212" height="66" rx="8" fill="white"/>
</clipPath>
</defs>
</svg>
