<svg width="1212" height="66" viewBox="0 0 1212 66" fill="none" xmlns="http://www.w3.org/2000/svg">
<g clip-path="url(#clip0_2036_7879)">
<rect width="1212" height="66" rx="8" fill="url(#paint0_linear_2036_7879)"/>
<ellipse cx="1193.5" cy="33" rx="75.5" ry="75" fill="white" fill-opacity="0.45"/>
<path d="M1192.5 -60C1242.99 -60 1284 -18.6257 1284 32.5C1284 83.6257 1242.99 125 1192.5 125C1142.01 125 1101 83.6257 1101 32.5C1101 -18.6257 1142.01 -60 1192.5 -60Z" stroke="white" stroke-opacity="0.47" stroke-width="8"/>
<path d="M1192.5 -83.5C1255.99 -83.5 1307.5 -31.5928 1307.5 32.5C1307.5 96.5928 1255.99 148.5 1192.5 148.5C1129.01 148.5 1077.5 96.5928 1077.5 32.5C1077.5 -31.5928 1129.01 -83.5 1192.5 -83.5Z" stroke="white" stroke-opacity="0.34" stroke-width="7"/>
<path d="M1192.5 -108.5C1269.81 -108.5 1332.5 -45.3821 1332.5 32.5C1332.5 110.382 1269.81 173.5 1192.5 173.5C1115.19 173.5 1052.5 110.382 1052.5 32.5C1052.5 -45.3821 1115.19 -108.5 1192.5 -108.5Z" stroke="white" stroke-opacity="0.2" stroke-width="3"/>
<path d="M1164.88 26.1099L1170.35 24.6424L1167.42 13.6887C1166.11 8.79717 1162.29 4.97437 1157.4 3.66586C1152.5 2.35385 1147.29 3.75166 1143.7 7.33467C1140.12 10.9142 1138.72 16.135 1140.04 21.0263L1142.97 31.98L1164.88 26.1099ZM1162.53 50.2187C1158.9 51.1919 1155.03 50.6836 1151.78 48.8008C1148.52 46.9223 1146.14 43.8273 1145.17 40.1953L1144.44 37.4568L1171.82 30.1192L1172.56 32.8577C1173.53 36.4895 1173.02 40.3569 1171.14 43.6131C1169.26 46.8717 1166.16 49.2455 1162.53 50.2187ZM1134.22 43.1304C1133.81 41.6174 1134.71 40.0636 1136.22 39.6582C1137.74 39.2528 1139.29 40.1498 1139.69 41.6629C1141.53 48.5124 1146.88 53.8594 1153.73 55.6961C1160.58 57.5296 1167.88 55.5724 1172.9 50.5597C1177.91 45.5437 1179.87 38.2391 1178.03 31.39C1177.63 29.8769 1178.53 28.3232 1180.04 27.9178C1181.55 27.5124 1183.1 28.4094 1183.51 29.9224C1185.12 35.984 1184.45 42.426 1181.62 48.0239C1178.79 53.6212 1174 57.9827 1168.16 60.2772L1171.88 74.1306L1180.09 71.9293C1181.6 71.5239 1183.16 72.421 1183.56 73.934C1183.97 75.447 1183.07 77.0008 1181.56 77.4062L1159.65 83.2763C1158.14 83.6817 1156.58 82.7846 1156.18 81.2716C1155.77 79.7586 1156.67 78.2048 1158.18 77.7994L1166.4 75.5981L1162.69 61.7447C1156.48 62.6769 1150.15 61.2945 1144.91 57.8618C1139.65 54.43 1135.85 49.1861 1134.22 43.1301L1134.22 43.1304Z" fill="#CFB1ED"/>
<path d="M21.04 40V38.9C21.4133 38.8867 21.7 38.8267 21.9 38.72C22.1 38.6 22.24 38.4 22.32 38.12C22.4 37.8267 22.44 37.4267 22.44 36.92V28.94C22.44 28.6067 22.4467 28.2867 22.46 27.98C22.4867 27.6733 22.5067 27.4333 22.52 27.26C22.2933 27.2733 22.0333 27.2867 21.74 27.3C21.4467 27.3 21.2133 27.3067 21.04 27.32V26H26.36V27.1C26 27.1133 25.7133 27.18 25.5 27.3C25.3 27.4067 25.16 27.6 25.08 27.88C25 28.16 24.96 28.56 24.96 29.08V32.2H26.42L28.28 29.14C28.48 28.78 28.7067 28.4133 28.96 28.04C29.2133 27.6667 29.4467 27.4 29.66 27.24C29.4467 27.2533 29.2267 27.2667 29 27.28C28.7733 27.28 28.5733 27.2867 28.4 27.3V26H33.1V27.1C32.7267 27.1267 32.3533 27.1933 31.98 27.3C31.6067 27.4067 31.2333 27.62 30.86 27.94C30.4867 28.2467 30.1 28.72 29.7 29.36L27.76 32.46C28.0667 32.6467 28.3267 32.8533 28.54 33.08C28.7667 33.3067 28.9733 33.5467 29.16 33.8L31.28 36.74C31.6267 37.2067 31.9467 37.6 32.24 37.92C32.5467 38.24 32.84 38.48 33.12 38.64C33.4133 38.8 33.7067 38.8867 34 38.9V40H31.14C31.02 39.9867 30.84 39.8733 30.6 39.66C30.3733 39.4467 30.1267 39.1867 29.86 38.88C29.6067 38.56 29.3733 38.26 29.16 37.98L27.04 34.98C26.84 34.7 26.6267 34.4267 26.4 34.16C26.1733 33.88 25.96 33.6667 25.76 33.52L24.96 33.54V37.02C24.96 37.38 24.9533 37.7133 24.94 38.02C24.9267 38.3267 24.9067 38.5667 24.88 38.74C25.1067 38.7267 25.3667 38.7133 25.66 38.7C25.9533 38.6867 26.1867 38.68 26.36 38.68V40H21.04ZM39.2138 40.32C38.2538 40.32 37.4004 40.1067 36.6538 39.68C35.9071 39.24 35.3271 38.6267 34.9137 37.84C34.5004 37.04 34.2938 36.1 34.2938 35.02C34.2938 34.0867 34.5004 33.2133 34.9137 32.4C35.3271 31.5867 35.9071 30.9333 36.6538 30.44C37.4138 29.9333 38.2938 29.68 39.2938 29.68C39.8538 29.68 40.3938 29.76 40.9138 29.92C41.4338 30.08 41.9004 30.3467 42.3138 30.72C42.7271 31.0933 43.0538 31.5867 43.2938 32.2C43.5471 32.8133 43.6671 33.56 43.6538 34.44L36.9338 34.56C36.9338 35.3867 37.0271 36.12 37.2138 36.76C37.4138 37.3867 37.7338 37.8867 38.1738 38.26C38.6138 38.62 39.1938 38.8 39.9138 38.8C40.2338 38.8 40.5738 38.7467 40.9338 38.64C41.3071 38.52 41.6738 38.3467 42.0338 38.12C42.3938 37.88 42.7138 37.5867 42.9938 37.24L43.7538 37.94C43.3138 38.58 42.8271 39.0733 42.2938 39.42C41.7604 39.7667 41.2271 40 40.6938 40.12C40.1604 40.2533 39.6671 40.32 39.2138 40.32ZM37.0338 33.36H41.1938C41.1804 32.8267 41.1004 32.38 40.9538 32.02C40.8204 31.6467 40.6204 31.3667 40.3538 31.18C40.0871 30.98 39.7604 30.88 39.3738 30.88C38.7204 30.88 38.1938 31.1 37.7938 31.54C37.4071 31.9667 37.1538 32.5733 37.0338 33.36ZM47.0769 45.42C46.5969 45.42 46.1902 45.2867 45.8569 45.02C45.5235 44.7533 45.3569 44.3867 45.3569 43.92C45.3569 43.6 45.4635 43.3133 45.6769 43.06C45.8902 42.82 46.1635 42.6933 46.4969 42.68C46.7902 42.6667 47.0235 42.76 47.1969 42.96C47.3835 43.1733 47.4769 43.4267 47.4769 43.72C47.4769 43.76 47.4769 43.8 47.4769 43.84C47.4769 43.8933 47.4702 43.9467 47.4569 44C47.4835 44 47.5302 44 47.5969 44C47.7302 43.9733 47.8702 43.8733 48.0169 43.7C48.1769 43.54 48.3235 43.32 48.4569 43.04C48.6169 42.7333 48.7835 42.3533 48.9569 41.9C49.1302 41.46 49.2969 40.9667 49.4569 40.42L46.3169 33.96C45.9569 33.2133 45.7102 32.64 45.5769 32.24C45.4569 31.84 45.3702 31.5067 45.3169 31.24L44.3969 31.28V30H49.0969V31.06H49.0569C48.5502 31.1 48.2702 31.2933 48.2169 31.64C48.1635 31.9733 48.2502 32.3867 48.4769 32.88L50.5769 37.54C50.7635 37.02 50.9702 36.38 51.1969 35.62C51.4369 34.86 51.7035 34.06 51.9969 33.22C52.0635 33.0067 52.1435 32.7733 52.2369 32.52C52.3435 32.2533 52.4502 32 52.5569 31.76C52.6635 31.52 52.7702 31.34 52.8769 31.22L51.6569 31.28V30H55.0769V31.06C54.6369 31.18 54.2835 31.4533 54.0169 31.88C53.7635 32.2933 53.5235 32.8133 53.2969 33.44L50.7969 40.52C50.4102 41.6133 50.0502 42.52 49.7169 43.24C49.3835 43.9733 49.0102 44.52 48.5969 44.88C48.1969 45.24 47.6902 45.42 47.0769 45.42ZM61.4502 38.9C61.8235 38.8867 62.1102 38.8267 62.3102 38.72C62.5102 38.6 62.6502 38.4 62.7302 38.12C62.8102 37.8267 62.8502 37.4267 62.8502 36.92V28.94C62.8502 28.6067 62.8568 28.2867 62.8702 27.98C62.8968 27.6733 62.9168 27.4333 62.9302 27.26C62.7035 27.2733 62.4435 27.2867 62.1502 27.3C61.8568 27.3 61.6235 27.3067 61.4502 27.32V26C62.3168 25.9867 63.1902 25.98 64.0702 25.98C64.9502 25.98 65.8302 25.9733 66.7102 25.96C67.9235 25.9467 68.9702 26.1 69.8502 26.42C70.7302 26.7267 71.4035 27.2 71.8702 27.84C72.3368 28.4667 72.5702 29.28 72.5702 30.28C72.5702 30.8133 72.4568 31.3467 72.2302 31.88C72.0168 32.4 71.6702 32.8867 71.1902 33.34C70.7235 33.78 70.1035 34.14 69.3302 34.42C68.5702 34.7 67.6502 34.8533 66.5702 34.88C66.3568 34.88 66.1502 34.88 65.9502 34.88C65.7502 34.88 65.5568 34.8733 65.3702 34.86V37C65.3702 37.3733 65.3635 37.7133 65.3502 38.02C65.3368 38.3267 65.3168 38.5667 65.2902 38.74C65.4635 38.7267 65.6568 38.72 65.8702 38.72C66.0835 38.7067 66.2968 38.7 66.5102 38.7C66.7368 38.6867 66.9102 38.68 67.0302 38.68V40H61.4502V38.9ZM65.3702 33.6C65.5435 33.6133 65.7102 33.6267 65.8702 33.64C66.0302 33.6533 66.2035 33.66 66.3902 33.66C67.1368 33.66 67.7635 33.5267 68.2702 33.26C68.7902 32.9933 69.1835 32.6133 69.4502 32.12C69.7168 31.6133 69.8502 31 69.8502 30.28C69.8502 29.6267 69.7568 29.0933 69.5702 28.68C69.3835 28.2667 69.1368 27.9533 68.8302 27.74C68.5235 27.5133 68.1835 27.36 67.8102 27.28C67.4368 27.2 67.0635 27.16 66.6902 27.16C66.3435 27.16 66.0702 27.2133 65.8702 27.32C65.6835 27.4267 65.5502 27.62 65.4702 27.9C65.4035 28.1667 65.3702 28.5333 65.3702 29V33.6ZM78.2958 40.32C77.3358 40.32 76.4824 40.1067 75.7358 39.68C74.9891 39.24 74.4091 38.6267 73.9958 37.84C73.5824 37.04 73.3758 36.1 73.3758 35.02C73.3758 34.0867 73.5824 33.2133 73.9958 32.4C74.4091 31.5867 74.9891 30.9333 75.7358 30.44C76.4958 29.9333 77.3758 29.68 78.3758 29.68C78.9358 29.68 79.4758 29.76 79.9958 29.92C80.5158 30.08 80.9824 30.3467 81.3958 30.72C81.8091 31.0933 82.1358 31.5867 82.3758 32.2C82.6291 32.8133 82.7491 33.56 82.7358 34.44L76.0158 34.56C76.0158 35.3867 76.1091 36.12 76.2958 36.76C76.4958 37.3867 76.8158 37.8867 77.2558 38.26C77.6958 38.62 78.2758 38.8 78.9958 38.8C79.3158 38.8 79.6558 38.7467 80.0158 38.64C80.3891 38.52 80.7558 38.3467 81.1158 38.12C81.4758 37.88 81.7958 37.5867 82.0758 37.24L82.8358 37.94C82.3958 38.58 81.9091 39.0733 81.3758 39.42C80.8424 39.7667 80.3091 40 79.7758 40.12C79.2424 40.2533 78.7491 40.32 78.2958 40.32ZM76.1158 33.36H80.2758C80.2624 32.8267 80.1824 32.38 80.0358 32.02C79.9024 31.6467 79.7024 31.3667 79.4358 31.18C79.1691 30.98 78.8424 30.88 78.4558 30.88C77.8024 30.88 77.2758 31.1 76.8758 31.54C76.4891 31.9667 76.2358 32.5733 76.1158 33.36ZM89.178 40.32C88.2313 40.32 87.3713 40.1133 86.598 39.7C85.8246 39.2733 85.2113 38.68 84.758 37.92C84.318 37.1467 84.098 36.2467 84.098 35.22C84.098 34.14 84.3246 33.18 84.778 32.34C85.2313 31.5 85.838 30.8467 86.598 30.38C87.3713 29.9133 88.218 29.68 89.138 29.68C90.0846 29.68 90.938 29.8933 91.698 30.32C92.458 30.7467 93.058 31.34 93.498 32.1C93.9513 32.86 94.178 33.76 94.178 34.8C94.178 35.8933 93.958 36.86 93.518 37.7C93.0913 38.5267 92.498 39.1733 91.738 39.64C90.9913 40.0933 90.138 40.32 89.178 40.32ZM89.278 39.1C89.878 39.1 90.338 38.9133 90.658 38.54C90.978 38.1667 91.198 37.6933 91.318 37.12C91.4513 36.5333 91.518 35.9333 91.518 35.32C91.518 34.8 91.4713 34.2733 91.378 33.74C91.298 33.2067 91.1646 32.7267 90.978 32.3C90.7913 31.86 90.5446 31.5133 90.238 31.26C89.9313 30.9933 89.558 30.86 89.118 30.86C88.5313 30.8733 88.0646 31.0667 87.718 31.44C87.3713 31.8133 87.118 32.2867 86.958 32.86C86.8113 33.4333 86.738 34.04 86.738 34.68C86.738 35.4 86.8246 36.1067 86.998 36.8C87.1713 37.48 87.4446 38.04 87.818 38.48C88.1913 38.9067 88.678 39.1133 89.278 39.1ZM95.5033 45.1V44.04C95.8899 44.04 96.1633 43.9533 96.3233 43.78C96.4966 43.62 96.6033 43.3867 96.6433 43.08C96.6833 42.7733 96.7033 42.4267 96.7033 42.04L96.7233 33.18C96.7233 32.94 96.7233 32.6867 96.7233 32.42C96.7366 32.1533 96.7633 31.88 96.8033 31.6C96.5766 31.6133 96.3233 31.6267 96.0433 31.64C95.7766 31.6533 95.5566 31.6667 95.3833 31.68V30.38C95.9966 30.38 96.4899 30.3533 96.8633 30.3C97.2499 30.2333 97.5433 30.1533 97.7433 30.06C97.9566 29.9667 98.1099 29.88 98.2033 29.8H99.0633C99.0899 29.9333 99.1099 30.0933 99.1233 30.28C99.1366 30.4667 99.1499 30.64 99.1633 30.8C99.6033 30.4133 100.07 30.1333 100.563 29.96C101.057 29.7733 101.53 29.68 101.983 29.68C102.783 29.68 103.497 29.8867 104.123 30.3C104.75 30.7 105.243 31.28 105.603 32.04C105.963 32.7867 106.143 33.6733 106.143 34.7C106.143 35.7933 105.923 36.7667 105.483 37.62C105.057 38.46 104.47 39.12 103.723 39.6C102.977 40.08 102.117 40.32 101.143 40.32C100.743 40.32 100.383 40.2733 100.063 40.18C99.7433 40.1 99.4433 39.9933 99.1633 39.86V42.24C99.1633 42.4533 99.1566 42.7067 99.1433 43C99.1433 43.3067 99.1233 43.6 99.0833 43.88C99.2966 43.8533 99.5233 43.8333 99.7633 43.82C100.003 43.82 100.203 43.82 100.363 43.82V45.1H95.5033ZM100.923 39.06C101.537 39.0467 102.03 38.86 102.403 38.5C102.79 38.1267 103.07 37.6333 103.243 37.02C103.417 36.4067 103.503 35.74 103.503 35.02C103.503 34.3667 103.417 33.7467 103.243 33.16C103.083 32.5733 102.823 32.1 102.463 31.74C102.103 31.38 101.623 31.2 101.023 31.2C100.65 31.2133 100.297 31.3067 99.9633 31.48C99.6433 31.6533 99.3766 31.88 99.1633 32.16C99.1633 32.4533 99.1633 32.7533 99.1633 33.06C99.1633 33.3667 99.1633 33.6933 99.1633 34.04C99.1633 34.3867 99.1633 34.78 99.1633 35.22C99.1633 35.6467 99.1633 36.1333 99.1633 36.68C99.1633 37.2267 99.1633 37.8533 99.1633 38.56C99.3766 38.7067 99.6366 38.8267 99.9433 38.92C100.25 39.0133 100.577 39.06 100.923 39.06ZM107.357 38.94C107.744 38.94 108.017 38.86 108.177 38.7C108.35 38.5267 108.45 38.2867 108.477 37.98C108.517 37.6733 108.537 37.3267 108.537 36.94V28.3C108.537 28.0733 108.544 27.8267 108.557 27.56C108.57 27.28 108.59 26.9933 108.617 26.7C108.39 26.7133 108.144 26.7267 107.877 26.74C107.61 26.7533 107.384 26.7667 107.197 26.78V25.48C107.81 25.48 108.31 25.4533 108.697 25.4C109.097 25.3333 109.404 25.2533 109.617 25.16C109.844 25.0667 110.004 24.98 110.097 24.9H110.997L111.017 37.14C111.017 37.3533 111.01 37.6133 110.997 37.92C110.984 38.2133 110.957 38.5 110.917 38.78C111.144 38.7533 111.377 38.74 111.617 38.74C111.857 38.7267 112.057 38.72 112.217 38.72V40H107.357V38.94ZM118.393 40.32C117.433 40.32 116.58 40.1067 115.833 39.68C115.087 39.24 114.507 38.6267 114.093 37.84C113.68 37.04 113.473 36.1 113.473 35.02C113.473 34.0867 113.68 33.2133 114.093 32.4C114.507 31.5867 115.087 30.9333 115.833 30.44C116.593 29.9333 117.473 29.68 118.473 29.68C119.033 29.68 119.573 29.76 120.093 29.92C120.613 30.08 121.08 30.3467 121.493 30.72C121.907 31.0933 122.233 31.5867 122.473 32.2C122.727 32.8133 122.847 33.56 122.833 34.44L116.113 34.56C116.113 35.3867 116.207 36.12 116.393 36.76C116.593 37.3867 116.913 37.8867 117.353 38.26C117.793 38.62 118.373 38.8 119.093 38.8C119.413 38.8 119.753 38.7467 120.113 38.64C120.487 38.52 120.853 38.3467 121.213 38.12C121.573 37.88 121.893 37.5867 122.173 37.24L122.933 37.94C122.493 38.58 122.007 39.0733 121.473 39.42C120.94 39.7667 120.407 40 119.873 40.12C119.34 40.2533 118.847 40.32 118.393 40.32ZM116.213 33.36H120.373C120.36 32.8267 120.28 32.38 120.133 32.02C120 31.6467 119.8 31.3667 119.533 31.18C119.267 30.98 118.94 30.88 118.553 30.88C117.9 30.88 117.373 31.1 116.973 31.54C116.587 31.9667 116.333 32.5733 116.213 33.36Z" fill="#1A1A1A"/>
</g>
<defs>
<linearGradient id="paint0_linear_2036_7879" x1="0" y1="33" x2="1212" y2="33" gradientUnits="userSpaceOnUse">
<stop stop-color="#F4EBFD"/>
<stop offset="1" stop-color="#D8C0EF"/>
</linearGradient>
<clipPath id="clip0_2036_7879">
<rect width="1212" height="66" rx="8" fill="white"/>
</clipPath>
</defs>
</svg>
