<svg width="1212" height="66" viewBox="0 0 1212 66" fill="none" xmlns="http://www.w3.org/2000/svg">
<g clip-path="url(#clip0_2036_8407)">
<rect width="1212" height="66" rx="8" fill="url(#paint0_linear_2036_8407)"/>
<ellipse cx="1193.5" cy="33" rx="75.5" ry="75" fill="white" fill-opacity="0.45"/>
<path d="M1192.5 -60C1242.99 -60 1284 -18.6257 1284 32.5C1284 83.6257 1242.99 125 1192.5 125C1142.01 125 1101 83.6257 1101 32.5C1101 -18.6257 1142.01 -60 1192.5 -60Z" stroke="white" stroke-opacity="0.47" stroke-width="8"/>
<path d="M1192.5 -83.5C1255.99 -83.5 1307.5 -31.5928 1307.5 32.5C1307.5 96.5928 1255.99 148.5 1192.5 148.5C1129.01 148.5 1077.5 96.5928 1077.5 32.5C1077.5 -31.5928 1129.01 -83.5 1192.5 -83.5Z" stroke="white" stroke-opacity="0.34" stroke-width="7"/>
<path d="M1192.5 -108.5C1269.81 -108.5 1332.5 -45.3821 1332.5 32.5C1332.5 110.382 1269.81 173.5 1192.5 173.5C1115.19 173.5 1052.5 110.382 1052.5 32.5C1052.5 -45.3821 1115.19 -108.5 1192.5 -108.5Z" stroke="white" stroke-opacity="0.2" stroke-width="3"/>
<path d="M28.32 40.2C27.8267 39.0133 27.3267 37.84 26.82 36.68C26.3267 35.5067 25.8333 34.3267 25.34 33.14C25.2067 32.8333 25.0533 32.4533 24.88 32C24.7067 31.5467 24.5333 31.0467 24.36 30.5C24.1867 29.9533 24.02 29.3933 23.86 28.82C23.8867 29.3667 23.9 29.8867 23.9 30.38C23.9133 30.86 23.9133 31.3267 23.9 31.78C23.9 32.14 23.8933 32.5333 23.88 32.96C23.88 33.3867 23.8733 33.8267 23.86 34.28C23.8467 34.7333 23.8333 35.1933 23.82 35.66C23.82 36.1133 23.82 36.5533 23.82 36.98C23.8067 37.3133 23.7933 37.64 23.78 37.96C23.7667 38.28 23.7467 38.54 23.72 38.74C23.96 38.7267 24.2267 38.7133 24.52 38.7C24.8267 38.6867 25.0667 38.68 25.24 38.68V40H20.92V38.9C21.2667 38.8867 21.54 38.8333 21.74 38.74C21.94 38.6333 22.0867 38.4533 22.18 38.2C22.2733 37.9467 22.32 37.5867 22.32 37.12L22.54 28.98C22.5533 28.6467 22.56 28.3267 22.56 28.02C22.5733 27.7133 22.5867 27.46 22.6 27.26C22.3867 27.2733 22.1333 27.2867 21.84 27.3C21.5467 27.3 21.3067 27.3067 21.12 27.32V26H25.1L28.26 33.8C28.3933 34.1467 28.5333 34.52 28.68 34.92C28.84 35.32 28.9933 35.7133 29.14 36.1C29.2867 36.4867 29.4133 36.8267 29.52 37.12H29.54C29.7133 36.6933 29.88 36.2533 30.04 35.8C30.2 35.3333 30.36 34.9 30.52 34.5C31.0533 33.0867 31.5933 31.68 32.14 30.28C32.7 28.8667 33.26 27.44 33.82 26H37.88V27.1C37.5733 27.1 37.3067 27.1467 37.08 27.24C36.8667 27.3333 36.7067 27.5133 36.6 27.78C36.4933 28.0333 36.4467 28.4333 36.46 28.98L36.84 37.12C36.8667 37.44 36.8667 37.7467 36.84 38.04C36.8267 38.3333 36.8133 38.5667 36.8 38.74C37.0267 38.7133 37.2867 38.7 37.58 38.7C37.8867 38.6867 38.1267 38.68 38.3 38.68V40H33.1V38.9C33.4333 38.8867 33.7067 38.8267 33.92 38.72C34.1333 38.6133 34.2867 38.4267 34.38 38.16C34.4733 37.88 34.5067 37.4733 34.48 36.94L34.24 31.92C34.24 31.7467 34.2267 31.4933 34.2 31.16C34.1733 30.8267 34.1533 30.4667 34.14 30.08C34.1267 29.6933 34.1133 29.3267 34.1 28.98C34.06 29.0733 34.0133 29.1667 33.96 29.26C33.92 29.3533 33.8867 29.4467 33.86 29.54L29.76 40.2H28.32ZM44.3505 40.32C43.3905 40.32 42.5371 40.1067 41.7905 39.68C41.0438 39.24 40.4638 38.6267 40.0505 37.84C39.6371 37.04 39.4305 36.1 39.4305 35.02C39.4305 34.0867 39.6371 33.2133 40.0505 32.4C40.4638 31.5867 41.0438 30.9333 41.7905 30.44C42.5505 29.9333 43.4305 29.68 44.4305 29.68C44.9905 29.68 45.5305 29.76 46.0505 29.92C46.5705 30.08 47.0371 30.3467 47.4505 30.72C47.8638 31.0933 48.1905 31.5867 48.4305 32.2C48.6838 32.8133 48.8038 33.56 48.7905 34.44L42.0705 34.56C42.0705 35.3867 42.1638 36.12 42.3505 36.76C42.5505 37.3867 42.8705 37.8867 43.3105 38.26C43.7505 38.62 44.3305 38.8 45.0505 38.8C45.3705 38.8 45.7105 38.7467 46.0705 38.64C46.4438 38.52 46.8105 38.3467 47.1705 38.12C47.5305 37.88 47.8505 37.5867 48.1305 37.24L48.8905 37.94C48.4505 38.58 47.9638 39.0733 47.4305 39.42C46.8971 39.7667 46.3638 40 45.8305 40.12C45.2971 40.2533 44.8038 40.32 44.3505 40.32ZM42.1705 33.36H46.3305C46.3171 32.8267 46.2371 32.38 46.0905 32.02C45.9571 31.6467 45.7571 31.3667 45.4905 31.18C45.2238 30.98 44.8971 30.88 44.5105 30.88C43.8571 30.88 43.3305 31.1 42.9305 31.54C42.5438 31.9667 42.2905 32.5733 42.1705 33.36ZM50.3517 38.94C50.7384 38.94 51.0117 38.86 51.1717 38.7C51.3317 38.5267 51.4317 38.2867 51.4717 37.98C51.5117 37.6733 51.5317 37.3267 51.5317 36.94V33.18C51.5317 32.94 51.5384 32.6867 51.5517 32.42C51.5651 32.1533 51.5851 31.88 51.6117 31.6C51.3851 31.6133 51.1384 31.6267 50.8717 31.64C50.6051 31.64 50.3851 31.6467 50.2117 31.66V30.38H50.9517C51.4851 30.38 51.9317 30.32 52.2917 30.2C52.6517 30.0667 52.9051 29.9333 53.0517 29.8H53.8917C53.9184 29.96 53.9384 30.2133 53.9517 30.56C53.9651 30.9067 53.9717 31.2533 53.9717 31.6C54.2784 31.2 54.5984 30.86 54.9317 30.58C55.2651 30.2867 55.6051 30.0667 55.9517 29.92C56.3117 29.76 56.6784 29.68 57.0517 29.68C57.4784 29.68 57.8517 29.8 58.1717 30.04C58.5051 30.28 58.6717 30.6667 58.6717 31.2C58.6717 31.3733 58.6251 31.56 58.5317 31.76C58.4517 31.96 58.3184 32.1267 58.1317 32.26C57.9584 32.3933 57.7184 32.46 57.4117 32.46C57.1317 32.46 56.8651 32.3733 56.6117 32.2C56.3717 32.0133 56.2451 31.72 56.2317 31.32C55.9517 31.3067 55.6584 31.4067 55.3517 31.62C55.0584 31.8333 54.7917 32.0933 54.5517 32.4C54.3117 32.7067 54.1251 33.02 53.9917 33.34L54.0117 37.14C54.0117 37.3533 54.0051 37.6133 53.9917 37.92C53.9784 38.2133 53.9584 38.5 53.9317 38.78C54.1451 38.7533 54.3717 38.74 54.6117 38.74C54.8517 38.7267 55.0517 38.72 55.2117 38.72V40H50.3517V38.94ZM63.9919 45.42C62.8185 45.42 61.8852 45.2933 61.1919 45.04C60.5119 44.7867 60.0185 44.4533 59.7119 44.04C59.4185 43.64 59.2719 43.22 59.2719 42.78C59.2719 42.4467 59.3452 42.1333 59.4919 41.84C59.6385 41.56 59.8519 41.2933 60.1319 41.04C60.4119 40.7867 60.7519 40.5867 61.1519 40.44C60.6452 40.2933 60.2785 40.0733 60.0519 39.78C59.8252 39.4733 59.7119 39.1267 59.7119 38.74C59.7119 38.3533 59.8652 37.9467 60.1719 37.52C60.4919 37.0933 60.9919 36.7933 61.6719 36.62C61.0985 36.3667 60.6252 35.9933 60.2519 35.5C59.8919 35.0067 59.7052 34.42 59.6919 33.74C59.6785 32.94 59.8785 32.2333 60.2919 31.62C60.7185 31.0067 61.2719 30.5333 61.9519 30.2C62.6319 29.8533 63.3385 29.68 64.0719 29.68C64.4452 29.68 64.8585 29.7333 65.3119 29.84C65.7652 29.9467 66.1652 30.1133 66.5119 30.34C66.6452 29.94 66.8319 29.5733 67.0719 29.24C67.3119 28.8933 67.5919 28.6133 67.9119 28.4C68.2452 28.1867 68.6119 28.08 69.0119 28.08C69.4252 28.08 69.7385 28.1867 69.9519 28.4C70.1652 28.6133 70.2719 28.9 70.2719 29.26C70.2719 29.4067 70.2385 29.5667 70.1719 29.74C70.1052 29.9133 69.9919 30.06 69.8319 30.18C69.6719 30.3 69.4519 30.36 69.1719 30.36C68.9585 30.36 68.7585 30.2867 68.5719 30.14C68.3985 29.9933 68.2919 29.8133 68.2519 29.6C68.0252 29.6533 67.8185 29.82 67.6319 30.1C67.4585 30.38 67.3519 30.6467 67.3119 30.9C67.6719 31.22 67.9519 31.6 68.1519 32.04C68.3519 32.4667 68.4519 32.9267 68.4519 33.42C68.4519 34.18 68.2385 34.86 67.8119 35.46C67.3985 36.0467 66.8519 36.5067 66.1719 36.84C65.5052 37.1733 64.7852 37.34 64.0119 37.34C63.8119 37.34 63.6119 37.3333 63.4119 37.32C63.2119 37.2933 62.9985 37.28 62.7719 37.28C62.4119 37.28 62.1119 37.3533 61.8719 37.5C61.6452 37.6467 61.5452 37.84 61.5719 38.08C61.6119 38.36 61.8519 38.5467 62.2919 38.64C62.7319 38.72 63.4119 38.7867 64.3319 38.84C65.3585 38.8933 66.2519 39.02 67.0119 39.22C67.7719 39.42 68.3585 39.7333 68.7719 40.16C69.1852 40.6 69.3919 41.2 69.3919 41.96C69.3919 42.52 69.2319 43.0133 68.9119 43.44C68.5919 43.8667 68.1652 44.2267 67.6319 44.52C67.1119 44.8133 66.5319 45.0333 65.8919 45.18C65.2652 45.34 64.6319 45.42 63.9919 45.42ZM64.3719 44.24C65.3852 44.24 66.1585 44.0533 66.6919 43.68C67.2252 43.3067 67.4919 42.9 67.4919 42.46C67.4919 42.1133 67.3652 41.8333 67.1119 41.62C66.8585 41.42 66.4985 41.2667 66.0319 41.16C65.5652 41.0533 64.9852 40.9867 64.2919 40.96C63.9852 40.9467 63.6452 40.9267 63.2719 40.9C62.8985 40.8867 62.5585 40.8533 62.2519 40.8C61.9985 40.9867 61.7985 41.22 61.6519 41.5C61.5185 41.78 61.4519 42.06 61.4519 42.34C61.4252 42.9133 61.6785 43.3733 62.2119 43.72C62.7452 44.0667 63.4652 44.24 64.3719 44.24ZM64.0919 36.22C64.4919 36.22 64.8252 36.1067 65.0919 35.88C65.3719 35.64 65.5785 35.34 65.7119 34.98C65.8585 34.6067 65.9319 34.2133 65.9319 33.8C65.9319 33.2933 65.8652 32.8133 65.7319 32.36C65.5985 31.8933 65.3919 31.52 65.1119 31.24C64.8319 30.9467 64.4785 30.8 64.0519 30.8C63.4519 30.8 62.9852 31.0533 62.6519 31.56C62.3319 32.0533 62.1719 32.64 62.1719 33.32C62.1719 33.84 62.2452 34.3267 62.3919 34.78C62.5519 35.22 62.7719 35.5733 63.0519 35.84C63.3452 36.0933 63.6919 36.22 64.0919 36.22ZM75.288 40.32C74.328 40.32 73.4746 40.1067 72.728 39.68C71.9813 39.24 71.4013 38.6267 70.988 37.84C70.5746 37.04 70.368 36.1 70.368 35.02C70.368 34.0867 70.5746 33.2133 70.988 32.4C71.4013 31.5867 71.9813 30.9333 72.728 30.44C73.488 29.9333 74.368 29.68 75.368 29.68C75.928 29.68 76.468 29.76 76.988 29.92C77.508 30.08 77.9746 30.3467 78.388 30.72C78.8013 31.0933 79.128 31.5867 79.368 32.2C79.6213 32.8133 79.7413 33.56 79.728 34.44L73.008 34.56C73.008 35.3867 73.1013 36.12 73.288 36.76C73.488 37.3867 73.808 37.8867 74.248 38.26C74.688 38.62 75.268 38.8 75.988 38.8C76.308 38.8 76.648 38.7467 77.008 38.64C77.3813 38.52 77.748 38.3467 78.108 38.12C78.468 37.88 78.788 37.5867 79.068 37.24L79.828 37.94C79.388 38.58 78.9013 39.0733 78.368 39.42C77.8346 39.7667 77.3013 40 76.768 40.12C76.2346 40.2533 75.7413 40.32 75.288 40.32ZM73.108 33.36H77.268C77.2546 32.8267 77.1746 32.38 77.028 32.02C76.8946 31.6467 76.6946 31.3667 76.428 31.18C76.1613 30.98 75.8346 30.88 75.448 30.88C74.7946 30.88 74.268 31.1 73.868 31.54C73.4813 31.9667 73.228 32.5733 73.108 33.36ZM81.2892 38.94C81.6759 38.94 81.9492 38.86 82.1092 38.7C82.2692 38.5267 82.3692 38.2867 82.4092 37.98C82.4492 37.6733 82.4692 37.3267 82.4692 36.94V33.18C82.4692 32.94 82.4759 32.6867 82.4892 32.42C82.5026 32.1533 82.5226 31.88 82.5492 31.6C82.3226 31.6133 82.0759 31.6267 81.8092 31.64C81.5426 31.64 81.3226 31.6467 81.1492 31.66V30.38H81.8892C82.4226 30.38 82.8692 30.32 83.2292 30.2C83.5892 30.0667 83.8426 29.9333 83.9892 29.8H84.8292C84.8559 29.96 84.8759 30.2133 84.8892 30.56C84.9026 30.9067 84.9092 31.2533 84.9092 31.6C85.2159 31.2 85.5359 30.86 85.8692 30.58C86.2026 30.2867 86.5426 30.0667 86.8892 29.92C87.2492 29.76 87.6159 29.68 87.9892 29.68C88.4159 29.68 88.7892 29.8 89.1092 30.04C89.4426 30.28 89.6092 30.6667 89.6092 31.2C89.6092 31.3733 89.5626 31.56 89.4692 31.76C89.3892 31.96 89.2559 32.1267 89.0692 32.26C88.8959 32.3933 88.6559 32.46 88.3492 32.46C88.0692 32.46 87.8026 32.3733 87.5492 32.2C87.3092 32.0133 87.1826 31.72 87.1692 31.32C86.8892 31.3067 86.5959 31.4067 86.2892 31.62C85.9959 31.8333 85.7292 32.0933 85.4892 32.4C85.2492 32.7067 85.0626 33.02 84.9292 33.34L84.9492 37.14C84.9492 37.3533 84.9426 37.6133 84.9292 37.92C84.9159 38.2133 84.8959 38.5 84.8692 38.78C85.0826 38.7533 85.3092 38.74 85.5492 38.74C85.7892 38.7267 85.9892 38.72 86.1492 38.72V40H81.2892V38.94ZM94.948 40.32C94.3346 40.32 93.7613 40.24 93.228 40.08C92.6946 39.92 92.268 39.7267 91.948 39.5L92.008 40.14H90.708L90.608 36.7H91.688C91.728 37.1533 91.888 37.5667 92.168 37.94C92.448 38.3 92.808 38.5867 93.248 38.8C93.7013 39 94.2013 39.1 94.748 39.1C95.0146 39.1 95.268 39.06 95.508 38.98C95.7613 38.9 95.968 38.7733 96.128 38.6C96.3013 38.4133 96.388 38.18 96.388 37.9C96.388 37.6067 96.288 37.3667 96.088 37.18C95.9013 36.9933 95.6346 36.82 95.288 36.66C94.9413 36.5 94.5346 36.3333 94.068 36.16C93.6546 36 93.2413 35.8333 92.828 35.66C92.4146 35.4867 92.0346 35.28 91.688 35.04C91.3413 34.7867 91.0613 34.48 90.848 34.12C90.6346 33.76 90.528 33.32 90.528 32.8C90.528 32.44 90.5946 32.08 90.728 31.72C90.8613 31.36 91.0746 31.0267 91.368 30.72C91.6613 30.4 92.0346 30.1467 92.488 29.96C92.9546 29.7733 93.5213 29.68 94.188 29.68C94.548 29.68 94.9546 29.74 95.408 29.86C95.8613 29.9667 96.2613 30.1533 96.608 30.42L96.588 29.78H97.888V33.3H96.808C96.7413 32.8333 96.5946 32.42 96.368 32.06C96.1413 31.6867 95.8413 31.3933 95.468 31.18C95.0946 30.9667 94.648 30.86 94.128 30.86C93.7013 30.86 93.3413 30.9667 93.048 31.18C92.7546 31.38 92.608 31.68 92.608 32.08C92.608 32.4133 92.7213 32.6867 92.948 32.9C93.1746 33.1133 93.4813 33.2933 93.868 33.44C94.2546 33.5867 94.6746 33.7467 95.128 33.92C95.7546 34.1333 96.3213 34.3867 96.828 34.68C97.348 34.9733 97.7613 35.3267 98.068 35.74C98.3746 36.1533 98.528 36.6667 98.528 37.28C98.528 37.9733 98.3546 38.5467 98.008 39C97.6613 39.44 97.2146 39.7733 96.668 40C96.1213 40.2133 95.548 40.32 94.948 40.32ZM109.753 40.32C109.179 40.32 108.606 40.2467 108.033 40.1C107.473 39.9533 106.966 39.7333 106.513 39.44C106.059 39.1333 105.693 38.74 105.413 38.26C105.146 37.78 105.013 37.2067 105.013 36.54C105.013 35.6467 105.306 34.86 105.893 34.18C106.479 33.5 107.233 32.98 108.153 32.62C107.713 32.1267 107.373 31.6733 107.133 31.26C106.906 30.8467 106.753 30.4533 106.673 30.08C106.593 29.6933 106.553 29.3067 106.553 28.92C106.566 27.9333 106.919 27.1467 107.613 26.56C108.306 25.9733 109.213 25.68 110.333 25.68C111.026 25.68 111.626 25.82 112.133 26.1C112.653 26.38 113.053 26.7467 113.333 27.2C113.613 27.6533 113.753 28.1533 113.753 28.7C113.753 29.2333 113.626 29.74 113.373 30.22C113.119 30.6867 112.766 31.1267 112.313 31.54C111.859 31.94 111.339 32.3067 110.753 32.64C110.899 32.8 111.153 33.0667 111.513 33.44C111.873 33.8133 112.286 34.2267 112.753 34.68C113.219 35.1333 113.679 35.5733 114.133 36C114.186 35.8133 114.219 35.6267 114.233 35.44C114.259 35.2533 114.273 35.0733 114.273 34.9C114.273 34.5533 114.233 34.26 114.153 34.02C114.073 33.78 113.939 33.5933 113.753 33.46C113.579 33.3133 113.346 33.2333 113.053 33.22V32.16H116.473V33.42L115.173 33.36C115.293 33.52 115.379 33.72 115.433 33.96C115.499 34.1867 115.533 34.44 115.533 34.72C115.533 35.0667 115.499 35.4267 115.433 35.8C115.379 36.1733 115.286 36.54 115.153 36.9C115.233 36.9667 115.313 37.0467 115.393 37.14C115.486 37.22 115.579 37.3 115.673 37.38C116.219 37.8467 116.706 38.22 117.133 38.5C117.573 38.7667 117.913 38.9 118.153 38.9V40H116.113C116.006 40 115.759 39.8933 115.373 39.68C114.986 39.4667 114.519 39.1333 113.973 38.68C113.493 39.1733 112.899 39.5733 112.193 39.88C111.486 40.1733 110.673 40.32 109.753 40.32ZM110.273 39.04C110.886 39.0533 111.426 38.9533 111.893 38.74C112.359 38.5267 112.753 38.2467 113.073 37.9C112.926 37.7667 112.779 37.64 112.633 37.52C112.499 37.3867 112.359 37.2533 112.213 37.12C111.399 36.36 110.719 35.7067 110.173 35.16C109.626 34.6 109.139 34.0733 108.713 33.58C108.393 33.7933 108.146 34.06 107.973 34.38C107.799 34.6867 107.673 34.9933 107.593 35.3C107.526 35.6067 107.493 35.8733 107.493 36.1C107.493 36.74 107.613 37.28 107.853 37.72C108.093 38.16 108.419 38.4867 108.833 38.7C109.246 38.9133 109.726 39.0267 110.273 39.04ZM109.993 31.76C110.579 31.3467 111.019 30.8467 111.313 30.26C111.606 29.66 111.753 29.1267 111.753 28.66C111.753 28.1267 111.619 27.6867 111.353 27.34C111.086 26.9933 110.713 26.82 110.233 26.82C109.793 26.82 109.426 26.9933 109.133 27.34C108.839 27.6733 108.693 28.16 108.693 28.8C108.693 29.2667 108.819 29.7667 109.073 30.3C109.326 30.8333 109.633 31.32 109.993 31.76ZM123.301 40V38.86C123.675 38.86 123.975 38.7533 124.201 38.54C124.428 38.3267 124.615 38.0467 124.761 37.7C124.908 37.34 125.061 36.94 125.221 36.5L129.201 25.64H130.281L134.621 36.7C134.701 36.9267 134.808 37.2467 134.941 37.66C135.075 38.0733 135.148 38.4333 135.161 38.74C135.388 38.7267 135.608 38.7133 135.821 38.7C136.035 38.6867 136.221 38.68 136.381 38.68V40H131.281V38.9C131.695 38.9 131.975 38.8133 132.121 38.64C132.268 38.4667 132.328 38.24 132.301 37.96C132.288 37.68 132.221 37.3933 132.101 37.1L131.601 35.74L126.961 35.82L126.521 37.16C126.441 37.3867 126.348 37.6467 126.241 37.94C126.135 38.22 126.028 38.4733 125.921 38.7C126.161 38.6867 126.421 38.6733 126.701 38.66C126.995 38.6467 127.228 38.64 127.401 38.64V40H123.301ZM127.401 34.54H131.161L130.081 31.6C129.921 31.1467 129.768 30.6933 129.621 30.24C129.488 29.7733 129.375 29.3467 129.281 28.96H129.241C129.161 29.2267 129.061 29.5733 128.941 30C128.835 30.4267 128.681 30.9133 128.481 31.46L127.401 34.54ZM141.811 40.32C140.918 40.32 140.091 40.12 139.331 39.72C138.585 39.32 137.985 38.74 137.531 37.98C137.091 37.2067 136.871 36.28 136.871 35.2C136.871 34.4667 136.998 33.7733 137.251 33.12C137.505 32.4533 137.858 31.8667 138.311 31.36C138.778 30.84 139.331 30.4333 139.971 30.14C140.611 29.8333 141.318 29.68 142.091 29.68C142.905 29.68 143.591 29.8067 144.151 30.06C144.711 30.3 145.138 30.6267 145.431 31.04C145.725 31.44 145.871 31.8667 145.871 32.32C145.871 32.68 145.765 32.9933 145.551 33.26C145.351 33.5267 145.058 33.6667 144.671 33.68C144.218 33.6933 143.898 33.5667 143.711 33.3C143.538 33.02 143.451 32.76 143.451 32.52C143.451 32.3867 143.471 32.2467 143.511 32.1C143.551 31.94 143.618 31.7933 143.711 31.66C143.618 31.42 143.465 31.2467 143.251 31.14C143.038 31.02 142.818 30.94 142.591 30.9C142.365 30.86 142.185 30.8467 142.051 30.86C141.318 30.8867 140.711 31.22 140.231 31.86C139.751 32.5 139.511 33.4333 139.511 34.66C139.511 35.3933 139.611 36.0733 139.811 36.7C140.025 37.3133 140.345 37.8133 140.771 38.2C141.198 38.5733 141.745 38.7667 142.411 38.78C142.998 38.7933 143.565 38.6533 144.111 38.36C144.658 38.0533 145.105 37.66 145.451 37.18L146.251 37.92C145.811 38.5467 145.338 39.0333 144.831 39.38C144.325 39.7267 143.811 39.9667 143.291 40.1C142.785 40.2467 142.291 40.32 141.811 40.32ZM153.141 45.1V44.04C153.528 44.04 153.801 43.9533 153.961 43.78C154.121 43.62 154.221 43.3867 154.261 43.08C154.301 42.7733 154.321 42.4267 154.321 42.04V39.16C153.921 39.56 153.481 39.8533 153.001 40.04C152.534 40.2267 152.041 40.32 151.521 40.32C150.708 40.32 149.981 40.1133 149.341 39.7C148.714 39.2867 148.221 38.7 147.861 37.94C147.501 37.1667 147.321 36.2667 147.321 35.24C147.321 34.1467 147.534 33.1867 147.961 32.36C148.401 31.52 149.001 30.8667 149.761 30.4C150.521 29.92 151.394 29.68 152.381 29.68C153.061 29.68 153.621 29.7533 154.061 29.9C154.501 30.0467 154.861 30.12 155.141 30.12C155.261 30.12 155.388 30.0933 155.521 30.04C155.668 29.9867 155.781 29.9067 155.861 29.8H156.781V42.24C156.781 42.4533 156.774 42.7067 156.761 43C156.748 43.3067 156.728 43.6 156.701 43.88C156.914 43.8533 157.141 43.8333 157.381 43.82C157.621 43.82 157.821 43.82 157.981 43.82V45.1H153.141ZM152.441 38.8C152.814 38.8 153.168 38.7 153.501 38.5C153.834 38.3 154.108 38.0467 154.321 37.74V32.88C154.321 32.36 154.241 31.96 154.081 31.68C153.921 31.4 153.708 31.2 153.441 31.08C153.174 30.96 152.868 30.9 152.521 30.9C151.921 30.9 151.428 31.0867 151.041 31.46C150.668 31.8333 150.394 32.32 150.221 32.92C150.048 33.52 149.968 34.1733 149.981 34.88C149.981 35.5467 150.068 36.18 150.241 36.78C150.428 37.3667 150.701 37.8533 151.061 38.24C151.421 38.6133 151.881 38.8 152.441 38.8ZM163.105 40.32C162.332 40.32 161.699 40.1733 161.205 39.88C160.725 39.5867 160.372 39.12 160.145 38.48C159.919 37.8267 159.805 36.9733 159.805 35.92V33.2C159.805 32.9733 159.812 32.72 159.825 32.44C159.839 32.16 159.852 31.88 159.865 31.6C159.652 31.6133 159.412 31.6267 159.145 31.64C158.879 31.64 158.659 31.6467 158.485 31.66V30.38H158.825C159.559 30.38 160.125 30.32 160.525 30.2C160.939 30.0667 161.219 29.9333 161.365 29.8H162.285V35.92C162.285 36.88 162.412 37.5933 162.665 38.06C162.932 38.5267 163.359 38.76 163.945 38.76C164.345 38.7467 164.739 38.6267 165.125 38.4C165.525 38.1733 165.845 37.9067 166.085 37.6V33.28C166.085 33.0133 166.092 32.74 166.105 32.46C166.119 32.1667 166.139 31.88 166.165 31.6C165.952 31.6133 165.705 31.6267 165.425 31.64C165.159 31.64 164.939 31.6467 164.765 31.66V30.38H165.285C165.899 30.38 166.405 30.3133 166.805 30.18C167.219 30.0467 167.492 29.92 167.625 29.8H168.545V36.98C168.545 37.1667 168.539 37.44 168.525 37.8C168.512 38.16 168.492 38.4867 168.465 38.78C168.692 38.7533 168.932 38.74 169.185 38.74C169.439 38.7267 169.645 38.7133 169.805 38.7V40H166.325C166.299 39.8133 166.272 39.6267 166.245 39.44C166.232 39.2533 166.219 39.0733 166.205 38.9C165.792 39.2733 165.325 39.6067 164.805 39.9C164.299 40.18 163.732 40.32 163.105 40.32ZM171.172 38.94C171.559 38.94 171.832 38.86 171.992 38.7C172.152 38.5267 172.252 38.2867 172.292 37.98C172.332 37.6733 172.352 37.3267 172.352 36.94V33.2C172.352 32.9733 172.359 32.7267 172.372 32.46C172.385 32.18 172.405 31.8933 172.432 31.6C172.205 31.6133 171.959 31.6267 171.692 31.64C171.425 31.6533 171.205 31.6667 171.032 31.68V30.38C171.632 30.38 172.125 30.3533 172.512 30.3C172.912 30.2333 173.219 30.1533 173.432 30.06C173.659 29.9667 173.819 29.88 173.912 29.8H174.812V37.14C174.812 37.3533 174.805 37.6133 174.792 37.92C174.792 38.2133 174.772 38.5 174.732 38.78C174.945 38.7533 175.172 38.74 175.412 38.74C175.665 38.7267 175.872 38.72 176.032 38.72V40H171.172V38.94ZM173.472 28.08C173.085 28.08 172.759 27.94 172.492 27.66C172.225 27.3667 172.092 27.0133 172.092 26.6C172.092 26.1867 172.225 25.8333 172.492 25.54C172.772 25.2467 173.099 25.1 173.472 25.1C173.859 25.1 174.179 25.2467 174.432 25.54C174.699 25.8333 174.832 26.1867 174.832 26.6C174.832 27.0133 174.705 27.3667 174.452 27.66C174.199 27.94 173.872 28.08 173.472 28.08ZM181.842 40.32C181.229 40.32 180.656 40.24 180.123 40.08C179.589 39.92 179.163 39.7267 178.843 39.5L178.903 40.14H177.603L177.503 36.7H178.583C178.623 37.1533 178.783 37.5667 179.062 37.94C179.343 38.3 179.703 38.5867 180.143 38.8C180.596 39 181.096 39.1 181.643 39.1C181.909 39.1 182.163 39.06 182.403 38.98C182.656 38.9 182.863 38.7733 183.023 38.6C183.196 38.4133 183.283 38.18 183.283 37.9C183.283 37.6067 183.183 37.3667 182.983 37.18C182.796 36.9933 182.529 36.82 182.183 36.66C181.836 36.5 181.429 36.3333 180.963 36.16C180.549 36 180.136 35.8333 179.723 35.66C179.309 35.4867 178.929 35.28 178.583 35.04C178.236 34.7867 177.956 34.48 177.743 34.12C177.529 33.76 177.423 33.32 177.423 32.8C177.423 32.44 177.489 32.08 177.623 31.72C177.756 31.36 177.969 31.0267 178.263 30.72C178.556 30.4 178.929 30.1467 179.383 29.96C179.849 29.7733 180.416 29.68 181.083 29.68C181.443 29.68 181.849 29.74 182.303 29.86C182.756 29.9667 183.156 30.1533 183.503 30.42L183.483 29.78H184.783V33.3H183.703C183.636 32.8333 183.489 32.42 183.263 32.06C183.036 31.6867 182.736 31.3933 182.363 31.18C181.989 30.9667 181.543 30.86 181.023 30.86C180.596 30.86 180.236 30.9667 179.943 31.18C179.649 31.38 179.502 31.68 179.502 32.08C179.502 32.4133 179.616 32.6867 179.843 32.9C180.069 33.1133 180.376 33.2933 180.763 33.44C181.149 33.5867 181.569 33.7467 182.023 33.92C182.649 34.1333 183.216 34.3867 183.723 34.68C184.243 34.9733 184.656 35.3267 184.963 35.74C185.269 36.1533 185.423 36.6667 185.423 37.28C185.423 37.9733 185.249 38.5467 184.903 39C184.556 39.44 184.109 39.7733 183.563 40C183.016 40.2133 182.443 40.32 181.842 40.32ZM186.953 38.94C187.34 38.94 187.613 38.86 187.773 38.7C187.933 38.5267 188.033 38.2867 188.073 37.98C188.113 37.6733 188.133 37.3267 188.133 36.94V33.2C188.133 32.9733 188.14 32.7267 188.153 32.46C188.167 32.18 188.187 31.8933 188.213 31.6C187.987 31.6133 187.74 31.6267 187.473 31.64C187.207 31.6533 186.987 31.6667 186.813 31.68V30.38C187.413 30.38 187.907 30.3533 188.293 30.3C188.693 30.2333 189 30.1533 189.213 30.06C189.44 29.9667 189.6 29.88 189.693 29.8H190.593V37.14C190.593 37.3533 190.587 37.6133 190.573 37.92C190.573 38.2133 190.553 38.5 190.513 38.78C190.727 38.7533 190.953 38.74 191.193 38.74C191.447 38.7267 191.653 38.72 191.813 38.72V40H186.953V38.94ZM189.253 28.08C188.867 28.08 188.54 27.94 188.273 27.66C188.007 27.3667 187.873 27.0133 187.873 26.6C187.873 26.1867 188.007 25.8333 188.273 25.54C188.553 25.2467 188.88 25.1 189.253 25.1C189.64 25.1 189.96 25.2467 190.213 25.54C190.48 25.8333 190.613 26.1867 190.613 26.6C190.613 27.0133 190.487 27.3667 190.233 27.66C189.98 27.94 189.653 28.08 189.253 28.08ZM197.123 40.32C196.749 40.32 196.383 40.2733 196.023 40.18C195.676 40.0867 195.356 39.9133 195.063 39.66C194.783 39.4067 194.556 39.0333 194.383 38.54C194.209 38.0333 194.123 37.3667 194.123 36.54L194.163 31.38L192.743 31.4V30C193.143 29.9867 193.529 29.8533 193.903 29.6C194.276 29.3333 194.603 28.9867 194.883 28.56C195.163 28.1333 195.349 27.68 195.443 27.2H196.663L196.643 30H199.463V31.28L196.643 31.34L196.623 36.48C196.623 36.88 196.656 37.2533 196.723 37.6C196.803 37.9333 196.936 38.2 197.123 38.4C197.323 38.6 197.589 38.7 197.923 38.7C198.176 38.7 198.463 38.62 198.783 38.46C199.116 38.3 199.449 37.98 199.783 37.5L200.603 38.24C200.269 38.7467 199.923 39.14 199.563 39.42C199.216 39.7 198.876 39.9067 198.543 40.04C198.223 40.1733 197.936 40.2533 197.683 40.28C197.429 40.3067 197.243 40.32 197.123 40.32ZM201.309 38.94C201.695 38.94 201.969 38.86 202.129 38.7C202.289 38.5267 202.389 38.2867 202.429 37.98C202.469 37.6733 202.489 37.3267 202.489 36.94V33.2C202.489 32.9733 202.495 32.7267 202.509 32.46C202.522 32.18 202.542 31.8933 202.569 31.6C202.342 31.6133 202.095 31.6267 201.829 31.64C201.562 31.6533 201.342 31.6667 201.169 31.68V30.38C201.769 30.38 202.262 30.3533 202.649 30.3C203.049 30.2333 203.355 30.1533 203.569 30.06C203.795 29.9667 203.955 29.88 204.049 29.8H204.949V37.14C204.949 37.3533 204.942 37.6133 204.929 37.92C204.929 38.2133 204.909 38.5 204.869 38.78C205.082 38.7533 205.309 38.74 205.549 38.74C205.802 38.7267 206.009 38.72 206.169 38.72V40H201.309V38.94ZM203.609 28.08C203.222 28.08 202.895 27.94 202.629 27.66C202.362 27.3667 202.229 27.0133 202.229 26.6C202.229 26.1867 202.362 25.8333 202.629 25.54C202.909 25.2467 203.235 25.1 203.609 25.1C203.995 25.1 204.315 25.2467 204.569 25.54C204.835 25.8333 204.969 26.1867 204.969 26.6C204.969 27.0133 204.842 27.3667 204.589 27.66C204.335 27.94 204.009 28.08 203.609 28.08ZM212.459 40.32C211.513 40.32 210.653 40.1133 209.879 39.7C209.106 39.2733 208.493 38.68 208.039 37.92C207.599 37.1467 207.379 36.2467 207.379 35.22C207.379 34.14 207.606 33.18 208.059 32.34C208.513 31.5 209.119 30.8467 209.879 30.38C210.653 29.9133 211.499 29.68 212.419 29.68C213.366 29.68 214.219 29.8933 214.979 30.32C215.739 30.7467 216.339 31.34 216.779 32.1C217.233 32.86 217.459 33.76 217.459 34.8C217.459 35.8933 217.239 36.86 216.799 37.7C216.373 38.5267 215.779 39.1733 215.019 39.64C214.273 40.0933 213.419 40.32 212.459 40.32ZM212.559 39.1C213.159 39.1 213.619 38.9133 213.939 38.54C214.259 38.1667 214.479 37.6933 214.599 37.12C214.733 36.5333 214.799 35.9333 214.799 35.32C214.799 34.8 214.753 34.2733 214.659 33.74C214.579 33.2067 214.446 32.7267 214.259 32.3C214.073 31.86 213.826 31.5133 213.519 31.26C213.213 30.9933 212.839 30.86 212.399 30.86C211.813 30.8733 211.346 31.0667 210.999 31.44C210.653 31.8133 210.399 32.2867 210.239 32.86C210.093 33.4333 210.019 34.04 210.019 34.68C210.019 35.4 210.106 36.1067 210.279 36.8C210.453 37.48 210.726 38.04 211.099 38.48C211.473 38.9067 211.959 39.1133 212.559 39.1ZM218.985 40V38.94C219.371 38.94 219.645 38.86 219.805 38.7C219.965 38.5267 220.065 38.2867 220.105 37.98C220.145 37.6733 220.165 37.3267 220.165 36.94V33.18C220.165 32.94 220.171 32.6867 220.185 32.42C220.198 32.1533 220.218 31.88 220.245 31.6C220.031 31.6133 219.785 31.6267 219.505 31.64C219.238 31.6533 219.018 31.6667 218.845 31.68V30.38C219.445 30.38 219.938 30.3533 220.325 30.3C220.711 30.2333 221.011 30.1533 221.225 30.06C221.438 29.9667 221.591 29.88 221.685 29.8H222.525C222.551 29.9467 222.565 30.0667 222.565 30.16C222.565 30.2533 222.571 30.3533 222.585 30.46C222.598 30.5533 222.618 30.6933 222.645 30.88C222.911 30.6533 223.218 30.4533 223.565 30.28C223.925 30.0933 224.285 29.9467 224.645 29.84C225.005 29.7333 225.338 29.68 225.645 29.68C226.845 29.68 227.705 30.0333 228.225 30.74C228.745 31.4467 229.005 32.5733 229.005 34.12V37.14C229.005 37.3533 228.998 37.6133 228.985 37.92C228.985 38.2133 228.965 38.5 228.925 38.78C229.151 38.7533 229.385 38.74 229.625 38.74C229.865 38.7267 230.065 38.72 230.225 38.72V40H225.365V38.94C225.751 38.94 226.025 38.86 226.185 38.7C226.358 38.5267 226.465 38.2867 226.505 37.98C226.545 37.6733 226.565 37.3267 226.565 36.94L226.545 34.1C226.545 33.14 226.398 32.4267 226.105 31.96C225.825 31.48 225.358 31.24 224.705 31.24C224.318 31.2533 223.938 31.3467 223.565 31.52C223.191 31.6933 222.878 31.9133 222.625 32.18C222.638 32.34 222.645 32.5067 222.645 32.68C222.645 32.8533 222.645 33.0267 222.645 33.2L222.625 37.14C222.625 37.3533 222.618 37.6133 222.605 37.92C222.605 38.2133 222.585 38.5 222.545 38.78C222.758 38.7533 222.985 38.74 223.225 38.74C223.478 38.7267 223.685 38.72 223.845 38.72V40H218.985ZM235.983 40.32C235.37 40.32 234.796 40.24 234.263 40.08C233.73 39.92 233.303 39.7267 232.983 39.5L233.043 40.14H231.743L231.643 36.7H232.723C232.763 37.1533 232.923 37.5667 233.203 37.94C233.483 38.3 233.843 38.5867 234.283 38.8C234.736 39 235.236 39.1 235.783 39.1C236.05 39.1 236.303 39.06 236.543 38.98C236.796 38.9 237.003 38.7733 237.163 38.6C237.336 38.4133 237.423 38.18 237.423 37.9C237.423 37.6067 237.323 37.3667 237.123 37.18C236.936 36.9933 236.67 36.82 236.323 36.66C235.976 36.5 235.57 36.3333 235.103 36.16C234.69 36 234.276 35.8333 233.863 35.66C233.45 35.4867 233.07 35.28 232.723 35.04C232.376 34.7867 232.096 34.48 231.883 34.12C231.67 33.76 231.563 33.32 231.563 32.8C231.563 32.44 231.63 32.08 231.763 31.72C231.896 31.36 232.11 31.0267 232.403 30.72C232.696 30.4 233.07 30.1467 233.523 29.96C233.99 29.7733 234.556 29.68 235.223 29.68C235.583 29.68 235.99 29.74 236.443 29.86C236.896 29.9667 237.296 30.1533 237.643 30.42L237.623 29.78H238.923V33.3H237.843C237.776 32.8333 237.63 32.42 237.403 32.06C237.176 31.6867 236.876 31.3933 236.503 31.18C236.13 30.9667 235.683 30.86 235.163 30.86C234.736 30.86 234.376 30.9667 234.083 31.18C233.79 31.38 233.643 31.68 233.643 32.08C233.643 32.4133 233.756 32.6867 233.983 32.9C234.21 33.1133 234.516 33.2933 234.903 33.44C235.29 33.5867 235.71 33.7467 236.163 33.92C236.79 34.1333 237.356 34.3867 237.863 34.68C238.383 34.9733 238.796 35.3267 239.103 35.74C239.41 36.1533 239.563 36.6667 239.563 37.28C239.563 37.9733 239.39 38.5467 239.043 39C238.696 39.44 238.25 39.7733 237.703 40C237.156 40.2133 236.583 40.32 235.983 40.32Z" fill="#1A1A1A"/>
<path d="M1212.27 63.774C1213.09 60.99 1211.5 58.0728 1208.72 57.2451L1189.46 51.5147L1186.49 61.58L1205.75 67.3104C1208.53 68.1381 1211.49 66.5329 1212.27 63.774ZM1141.32 32.1454L1151.9 26.4019L1165.95 52.2861L1155.99 85.8621C1155.17 88.6461 1156.75 91.5633 1159.53 92.391C1162.31 93.2188 1165.23 91.6387 1166.05 88.8547L1176.01 55.2786C1176.81 52.566 1176.52 49.7241 1175.19 47.2699L1161.14 21.3858L1171.73 15.6423C1173.81 14.5137 1173.47 11.4615 1171.21 10.8287L1147.74 3.84606C1146.31 3.42158 1144.88 4.19909 1144.45 5.62679L1137.52 29.1125C1136.86 31.3254 1139.24 33.274 1141.32 32.1454Z" fill="#B3E4EE" fill-opacity="0.8"/>
</g>
<defs>
<linearGradient id="paint0_linear_2036_8407" x1="66.66" y1="2.75" x2="99.0204" y2="221.79" gradientUnits="userSpaceOnUse">
<stop stop-color="#E2FDFD"/>
<stop offset="1" stop-color="#BEEEF9"/>
</linearGradient>
<clipPath id="clip0_2036_8407">
<rect width="1212" height="66" rx="8" fill="white"/>
</clipPath>
</defs>
</svg>
