<svg width="1212" height="66" viewBox="0 0 1212 66" fill="none" xmlns="http://www.w3.org/2000/svg">
<g clip-path="url(#clip0_2036_8842)">
<rect width="1212" height="66" rx="8" fill="url(#paint0_linear_2036_8842)"/>
<ellipse cx="1193.5" cy="33" rx="75.5" ry="75" fill="white" fill-opacity="0.45"/>
<path d="M1192.5 -60C1242.99 -60 1284 -18.6257 1284 32.5C1284 83.6257 1242.99 125 1192.5 125C1142.01 125 1101 83.6257 1101 32.5C1101 -18.6257 1142.01 -60 1192.5 -60Z" stroke="white" stroke-opacity="0.47" stroke-width="8"/>
<path d="M1192.5 -83.5C1255.99 -83.5 1307.5 -31.5928 1307.5 32.5C1307.5 96.5928 1255.99 148.5 1192.5 148.5C1129.01 148.5 1077.5 96.5928 1077.5 32.5C1077.5 -31.5928 1129.01 -83.5 1192.5 -83.5Z" stroke="white" stroke-opacity="0.34" stroke-width="7"/>
<path d="M1192.5 -108.5C1269.81 -108.5 1332.5 -45.3821 1332.5 32.5C1332.5 110.382 1269.81 173.5 1192.5 173.5C1115.19 173.5 1052.5 110.382 1052.5 32.5C1052.5 -45.3821 1115.19 -108.5 1192.5 -108.5Z" stroke="white" stroke-opacity="0.2" stroke-width="3"/>
<path d="M31.78 40.24L24.84 31.22C24.6933 31.0067 24.5333 30.7933 24.36 30.58C24.2 30.3533 24.04 30.1267 23.88 29.9H23.86L23.9 36.88C23.9 37.24 23.8933 37.5867 23.88 37.92C23.88 38.2533 23.8667 38.5267 23.84 38.74C24.0667 38.7267 24.3267 38.7133 24.62 38.7C24.9133 38.6867 25.1467 38.68 25.32 38.68V40H21.06V38.9C21.4067 38.8867 21.6733 38.8333 21.86 38.74C22.06 38.6333 22.2067 38.46 22.3 38.22C22.3933 37.9667 22.44 37.6333 22.44 37.22L22.42 28.9C22.42 28.58 22.4267 28.2733 22.44 27.98C22.4533 27.6867 22.4667 27.4467 22.48 27.26C22.2667 27.2733 22.0133 27.2867 21.72 27.3C21.4267 27.3 21.1933 27.3067 21.02 27.32V26H23.9L30.48 34.5C30.76 34.86 31 35.18 31.2 35.46C31.4133 35.74 31.6 35.9933 31.76 36.22H31.78V28.94C31.78 28.6067 31.7867 28.2867 31.8 27.98C31.8133 27.6733 31.8267 27.4333 31.84 27.26C31.6267 27.2733 31.3733 27.2867 31.08 27.3C30.7867 27.3 30.5467 27.3067 30.36 27.32V26H34.64V27.1C34.28 27.1133 33.9933 27.18 33.78 27.3C33.58 27.4067 33.44 27.6 33.36 27.88C33.28 28.16 33.24 28.56 33.24 29.08L33.22 40.24H31.78ZM40.5809 40.32C39.6209 40.32 38.7676 40.1067 38.0209 39.68C37.2743 39.24 36.6943 38.6267 36.2809 37.84C35.8676 37.04 35.6609 36.1 35.6609 35.02C35.6609 34.0867 35.8676 33.2133 36.2809 32.4C36.6943 31.5867 37.2743 30.9333 38.0209 30.44C38.7809 29.9333 39.6609 29.68 40.6609 29.68C41.2209 29.68 41.7609 29.76 42.2809 29.92C42.8009 30.08 43.2676 30.3467 43.6809 30.72C44.0943 31.0933 44.4209 31.5867 44.6609 32.2C44.9143 32.8133 45.0343 33.56 45.0209 34.44L38.3009 34.56C38.3009 35.3867 38.3943 36.12 38.5809 36.76C38.7809 37.3867 39.1009 37.8867 39.5409 38.26C39.9809 38.62 40.5609 38.8 41.2809 38.8C41.6009 38.8 41.9409 38.7467 42.3009 38.64C42.6743 38.52 43.0409 38.3467 43.4009 38.12C43.7609 37.88 44.0809 37.5867 44.3609 37.24L45.1209 37.94C44.6809 38.58 44.1943 39.0733 43.6609 39.42C43.1276 39.7667 42.5943 40 42.0609 40.12C41.5276 40.2533 41.0343 40.32 40.5809 40.32ZM38.4009 33.36H42.5609C42.5476 32.8267 42.4676 32.38 42.3209 32.02C42.1876 31.6467 41.9876 31.3667 41.7209 31.18C41.4543 30.98 41.1276 30.88 40.7409 30.88C40.0876 30.88 39.5609 31.1 39.1609 31.54C38.7743 31.9667 38.5209 32.5733 38.4009 33.36ZM49.7427 40.06L47.2427 32.88C47.136 32.5467 47.0493 32.2933 46.9827 32.12C46.916 31.9333 46.8693 31.78 46.8427 31.66C46.816 31.5267 46.7827 31.3867 46.7427 31.24L45.8627 31.28V30H50.4827V31.06C50.0027 31.0733 49.7293 31.2467 49.6627 31.58C49.6093 31.9133 49.6493 32.3267 49.7827 32.82L50.5427 35.38C50.636 35.6733 50.7227 35.9867 50.8027 36.32C50.896 36.64 50.976 36.96 51.0427 37.28C51.1227 36.9733 51.2093 36.6533 51.3027 36.32C51.396 35.9733 51.5093 35.5733 51.6427 35.12L53.2227 30H54.9427L56.6827 35.62C56.776 35.9 56.8693 36.2 56.9627 36.52C57.056 36.84 57.1427 37.14 57.2227 37.42C57.2893 37.1533 57.3693 36.8667 57.4627 36.56C57.556 36.24 57.6493 35.9467 57.7427 35.68L58.7027 32.72C58.796 32.4 58.8827 32.12 58.9627 31.88C59.056 31.64 59.1627 31.42 59.2827 31.22L58.1427 31.28V30H61.8227V31.06C61.5293 31.06 61.276 31.1333 61.0627 31.28C60.8627 31.4133 60.6893 31.5867 60.5427 31.8C60.396 32.0133 60.276 32.2267 60.1827 32.44C60.0893 32.6533 60.016 32.8467 59.9627 33.02L57.4827 40.06H55.8027L54.2427 35.4C54.1893 35.2267 54.116 35.0067 54.0227 34.74C53.9427 34.4733 53.8627 34.1933 53.7827 33.9C53.7027 33.6067 53.6227 33.3267 53.5427 33.06C53.4627 33.38 53.3627 33.74 53.2427 34.14C53.136 34.54 53.0293 34.9133 52.9227 35.26C52.816 35.6067 52.7293 35.8667 52.6627 36.04L51.3027 40.06H49.7427ZM68.1689 38.9C68.5422 38.8867 68.8289 38.8267 69.0289 38.72C69.2289 38.6 69.3689 38.4 69.4489 38.12C69.5289 37.8267 69.5689 37.4267 69.5689 36.92V28.94C69.5689 28.6067 69.5756 28.2867 69.5889 27.98C69.6156 27.6733 69.6356 27.4333 69.6489 27.26C69.4222 27.2733 69.1622 27.2867 68.8689 27.3C68.5756 27.3 68.3422 27.3067 68.1689 27.32V26C69.0356 25.9867 69.9089 25.98 70.7889 25.98C71.6689 25.98 72.5489 25.9733 73.4289 25.96C74.6422 25.9467 75.6889 26.1 76.5689 26.42C77.4489 26.7267 78.1222 27.2 78.5889 27.84C79.0556 28.4667 79.2889 29.28 79.2889 30.28C79.2889 30.8133 79.1756 31.3467 78.9489 31.88C78.7356 32.4 78.3889 32.8867 77.9089 33.34C77.4422 33.78 76.8222 34.14 76.0489 34.42C75.2889 34.7 74.3689 34.8533 73.2889 34.88C73.0756 34.88 72.8689 34.88 72.6689 34.88C72.4689 34.88 72.2756 34.8733 72.0889 34.86V37C72.0889 37.3733 72.0822 37.7133 72.0689 38.02C72.0556 38.3267 72.0356 38.5667 72.0089 38.74C72.1822 38.7267 72.3756 38.72 72.5889 38.72C72.8022 38.7067 73.0156 38.7 73.2289 38.7C73.4556 38.6867 73.6289 38.68 73.7489 38.68V40H68.1689V38.9ZM72.0889 33.6C72.2622 33.6133 72.4289 33.6267 72.5889 33.64C72.7489 33.6533 72.9222 33.66 73.1089 33.66C73.8556 33.66 74.4822 33.5267 74.9889 33.26C75.5089 32.9933 75.9022 32.6133 76.1689 32.12C76.4356 31.6133 76.5689 31 76.5689 30.28C76.5689 29.6267 76.4756 29.0933 76.2889 28.68C76.1022 28.2667 75.8556 27.9533 75.5489 27.74C75.2422 27.5133 74.9022 27.36 74.5289 27.28C74.1556 27.2 73.7822 27.16 73.4089 27.16C73.0622 27.16 72.7889 27.2133 72.5889 27.32C72.4022 27.4267 72.2689 27.62 72.1889 27.9C72.1222 28.1667 72.0889 28.5333 72.0889 29V33.6ZM80.5275 38.94C80.9142 38.94 81.1875 38.86 81.3475 38.7C81.5075 38.5267 81.6075 38.2867 81.6475 37.98C81.6875 37.6733 81.7075 37.3267 81.7075 36.94V33.18C81.7075 32.94 81.7142 32.6867 81.7275 32.42C81.7408 32.1533 81.7608 31.88 81.7875 31.6C81.5608 31.6133 81.3142 31.6267 81.0475 31.64C80.7808 31.64 80.5608 31.6467 80.3875 31.66V30.38H81.1275C81.6608 30.38 82.1075 30.32 82.4675 30.2C82.8275 30.0667 83.0808 29.9333 83.2275 29.8H84.0675C84.0942 29.96 84.1142 30.2133 84.1275 30.56C84.1408 30.9067 84.1475 31.2533 84.1475 31.6C84.4542 31.2 84.7742 30.86 85.1075 30.58C85.4408 30.2867 85.7808 30.0667 86.1275 29.92C86.4875 29.76 86.8542 29.68 87.2275 29.68C87.6542 29.68 88.0275 29.8 88.3475 30.04C88.6808 30.28 88.8475 30.6667 88.8475 31.2C88.8475 31.3733 88.8008 31.56 88.7075 31.76C88.6275 31.96 88.4942 32.1267 88.3075 32.26C88.1342 32.3933 87.8942 32.46 87.5875 32.46C87.3075 32.46 87.0408 32.3733 86.7875 32.2C86.5475 32.0133 86.4208 31.72 86.4075 31.32C86.1275 31.3067 85.8342 31.4067 85.5275 31.62C85.2342 31.8333 84.9675 32.0933 84.7275 32.4C84.4875 32.7067 84.3008 33.02 84.1675 33.34L84.1875 37.14C84.1875 37.3533 84.1808 37.6133 84.1675 37.92C84.1542 38.2133 84.1342 38.5 84.1075 38.78C84.3208 38.7533 84.5475 38.74 84.7875 38.74C85.0275 38.7267 85.2275 38.72 85.3875 38.72V40H80.5275V38.94ZM94.5686 40.32C93.6219 40.32 92.7619 40.1133 91.9886 39.7C91.2153 39.2733 90.6019 38.68 90.1486 37.92C89.7086 37.1467 89.4886 36.2467 89.4886 35.22C89.4886 34.14 89.7153 33.18 90.1686 32.34C90.6219 31.5 91.2286 30.8467 91.9886 30.38C92.7619 29.9133 93.6086 29.68 94.5286 29.68C95.4753 29.68 96.3286 29.8933 97.0886 30.32C97.8486 30.7467 98.4486 31.34 98.8886 32.1C99.3419 32.86 99.5686 33.76 99.5686 34.8C99.5686 35.8933 99.3486 36.86 98.9086 37.7C98.4819 38.5267 97.8886 39.1733 97.1286 39.64C96.3819 40.0933 95.5286 40.32 94.5686 40.32ZM94.6686 39.1C95.2686 39.1 95.7286 38.9133 96.0486 38.54C96.3686 38.1667 96.5886 37.6933 96.7086 37.12C96.8419 36.5333 96.9086 35.9333 96.9086 35.32C96.9086 34.8 96.8619 34.2733 96.7686 33.74C96.6886 33.2067 96.5553 32.7267 96.3686 32.3C96.1819 31.86 95.9353 31.5133 95.6286 31.26C95.3219 30.9933 94.9486 30.86 94.5086 30.86C93.9219 30.8733 93.4553 31.0667 93.1086 31.44C92.7619 31.8133 92.5086 32.2867 92.3486 32.86C92.2019 33.4333 92.1286 34.04 92.1286 34.68C92.1286 35.4 92.2153 36.1067 92.3886 36.8C92.5619 37.48 92.8353 38.04 93.2086 38.48C93.5819 38.9067 94.0686 39.1133 94.6686 39.1ZM105.094 40.32C104.294 40.32 103.581 40.1133 102.954 39.7C102.327 39.2867 101.834 38.7 101.474 37.94C101.127 37.18 100.954 36.2867 100.954 35.26C100.954 34.18 101.167 33.22 101.594 32.38C102.021 31.54 102.607 30.88 103.354 30.4C104.114 29.92 104.987 29.68 105.974 29.68C106.361 29.68 106.721 29.7267 107.054 29.82C107.401 29.9 107.701 29.9933 107.954 30.1V28.32C107.954 28.12 107.954 27.8733 107.954 27.58C107.967 27.2867 107.987 26.9933 108.014 26.7C107.801 26.7133 107.554 26.7267 107.274 26.74C107.007 26.7533 106.781 26.7667 106.594 26.78V25.48C107.207 25.48 107.707 25.4533 108.094 25.4C108.481 25.3333 108.781 25.2533 108.994 25.16C109.221 25.0667 109.381 24.98 109.474 24.9H110.394V37.14C110.394 37.34 110.387 37.5933 110.374 37.9C110.361 38.1933 110.341 38.4867 110.314 38.78C110.541 38.7533 110.774 38.74 111.014 38.74C111.267 38.7267 111.481 38.7133 111.654 38.7V40H108.174C108.147 39.84 108.121 39.68 108.094 39.52C108.081 39.3467 108.061 39.1867 108.034 39.04C107.621 39.48 107.167 39.8 106.674 40C106.181 40.2133 105.654 40.32 105.094 40.32ZM106.034 38.78C106.407 38.78 106.767 38.68 107.114 38.48C107.461 38.2667 107.741 38.0067 107.954 37.7C107.941 37.5133 107.934 37.3267 107.934 37.14C107.934 36.94 107.934 36.74 107.934 36.54L107.954 31.42C107.754 31.26 107.501 31.14 107.194 31.06C106.887 30.9667 106.574 30.92 106.254 30.92C105.627 30.9333 105.114 31.1333 104.714 31.52C104.327 31.8933 104.041 32.3867 103.854 33C103.681 33.6133 103.601 34.28 103.614 35C103.614 35.6533 103.701 36.2667 103.874 36.84C104.047 37.4133 104.307 37.88 104.654 38.24C105.014 38.6 105.474 38.78 106.034 38.78ZM117.188 40.32C116.414 40.32 115.781 40.1733 115.288 39.88C114.808 39.5867 114.454 39.12 114.228 38.48C114.001 37.8267 113.888 36.9733 113.888 35.92V33.2C113.888 32.9733 113.894 32.72 113.908 32.44C113.921 32.16 113.934 31.88 113.948 31.6C113.734 31.6133 113.494 31.6267 113.228 31.64C112.961 31.64 112.741 31.6467 112.568 31.66V30.38H112.908C113.641 30.38 114.208 30.32 114.608 30.2C115.021 30.0667 115.301 29.9333 115.448 29.8H116.368V35.92C116.368 36.88 116.494 37.5933 116.748 38.06C117.014 38.5267 117.441 38.76 118.028 38.76C118.428 38.7467 118.821 38.6267 119.208 38.4C119.608 38.1733 119.928 37.9067 120.168 37.6V33.28C120.168 33.0133 120.174 32.74 120.188 32.46C120.201 32.1667 120.221 31.88 120.248 31.6C120.034 31.6133 119.788 31.6267 119.508 31.64C119.241 31.64 119.021 31.6467 118.848 31.66V30.38H119.368C119.981 30.38 120.488 30.3133 120.888 30.18C121.301 30.0467 121.574 29.92 121.708 29.8H122.628V36.98C122.628 37.1667 122.621 37.44 122.608 37.8C122.594 38.16 122.574 38.4867 122.548 38.78C122.774 38.7533 123.014 38.74 123.268 38.74C123.521 38.7267 123.728 38.7133 123.888 38.7V40H120.408C120.381 39.8133 120.354 39.6267 120.328 39.44C120.314 39.2533 120.301 39.0733 120.288 38.9C119.874 39.2733 119.408 39.6067 118.888 39.9C118.381 40.18 117.814 40.32 117.188 40.32ZM130.034 40.32C129.141 40.32 128.314 40.12 127.554 39.72C126.807 39.32 126.207 38.74 125.754 37.98C125.314 37.2067 125.094 36.28 125.094 35.2C125.094 34.4667 125.221 33.7733 125.474 33.12C125.727 32.4533 126.081 31.8667 126.534 31.36C127.001 30.84 127.554 30.4333 128.194 30.14C128.834 29.8333 129.541 29.68 130.314 29.68C131.127 29.68 131.814 29.8067 132.374 30.06C132.934 30.3 133.361 30.6267 133.654 31.04C133.947 31.44 134.094 31.8667 134.094 32.32C134.094 32.68 133.987 32.9933 133.774 33.26C133.574 33.5267 133.281 33.6667 132.894 33.68C132.441 33.6933 132.121 33.5667 131.934 33.3C131.761 33.02 131.674 32.76 131.674 32.52C131.674 32.3867 131.694 32.2467 131.734 32.1C131.774 31.94 131.841 31.7933 131.934 31.66C131.841 31.42 131.687 31.2467 131.474 31.14C131.261 31.02 131.041 30.94 130.814 30.9C130.587 30.86 130.407 30.8467 130.274 30.86C129.541 30.8867 128.934 31.22 128.454 31.86C127.974 32.5 127.734 33.4333 127.734 34.66C127.734 35.3933 127.834 36.0733 128.034 36.7C128.247 37.3133 128.567 37.8133 128.994 38.2C129.421 38.5733 129.967 38.7667 130.634 38.78C131.221 38.7933 131.787 38.6533 132.334 38.36C132.881 38.0533 133.327 37.66 133.674 37.18L134.474 37.92C134.034 38.5467 133.561 39.0333 133.054 39.38C132.547 39.7267 132.034 39.9667 131.514 40.1C131.007 40.2467 130.514 40.32 130.034 40.32ZM139.584 40.32C139.21 40.32 138.844 40.2733 138.484 40.18C138.137 40.0867 137.817 39.9133 137.524 39.66C137.244 39.4067 137.017 39.0333 136.844 38.54C136.67 38.0333 136.584 37.3667 136.584 36.54L136.624 31.38L135.204 31.4V30C135.604 29.9867 135.99 29.8533 136.364 29.6C136.737 29.3333 137.064 28.9867 137.344 28.56C137.624 28.1333 137.81 27.68 137.904 27.2H139.124L139.104 30H141.924V31.28L139.104 31.34L139.084 36.48C139.084 36.88 139.117 37.2533 139.184 37.6C139.264 37.9333 139.397 38.2 139.584 38.4C139.784 38.6 140.05 38.7 140.384 38.7C140.637 38.7 140.924 38.62 141.244 38.46C141.577 38.3 141.91 37.98 142.244 37.5L143.064 38.24C142.73 38.7467 142.384 39.14 142.024 39.42C141.677 39.7 141.337 39.9067 141.004 40.04C140.684 40.1733 140.397 40.2533 140.144 40.28C139.89 40.3067 139.704 40.32 139.584 40.32ZM148.21 40.32C147.596 40.32 147.023 40.24 146.49 40.08C145.956 39.92 145.53 39.7267 145.21 39.5L145.27 40.14H143.97L143.87 36.7H144.95C144.99 37.1533 145.15 37.5667 145.43 37.94C145.71 38.3 146.07 38.5867 146.51 38.8C146.963 39 147.463 39.1 148.01 39.1C148.276 39.1 148.53 39.06 148.77 38.98C149.023 38.9 149.23 38.7733 149.39 38.6C149.563 38.4133 149.65 38.18 149.65 37.9C149.65 37.6067 149.55 37.3667 149.35 37.18C149.163 36.9933 148.896 36.82 148.55 36.66C148.203 36.5 147.796 36.3333 147.33 36.16C146.916 36 146.503 35.8333 146.09 35.66C145.676 35.4867 145.296 35.28 144.95 35.04C144.603 34.7867 144.323 34.48 144.11 34.12C143.896 33.76 143.79 33.32 143.79 32.8C143.79 32.44 143.856 32.08 143.99 31.72C144.123 31.36 144.336 31.0267 144.63 30.72C144.923 30.4 145.296 30.1467 145.75 29.96C146.216 29.7733 146.783 29.68 147.45 29.68C147.81 29.68 148.216 29.74 148.67 29.86C149.123 29.9667 149.523 30.1533 149.87 30.42L149.85 29.78H151.15V33.3H150.07C150.003 32.8333 149.856 32.42 149.63 32.06C149.403 31.6867 149.103 31.3933 148.73 31.18C148.356 30.9667 147.91 30.86 147.39 30.86C146.963 30.86 146.603 30.9667 146.31 31.18C146.016 31.38 145.87 31.68 145.87 32.08C145.87 32.4133 145.983 32.6867 146.21 32.9C146.436 33.1133 146.743 33.2933 147.13 33.44C147.516 33.5867 147.936 33.7467 148.39 33.92C149.016 34.1333 149.583 34.3867 150.09 34.68C150.61 34.9733 151.023 35.3267 151.33 35.74C151.636 36.1533 151.79 36.6667 151.79 37.28C151.79 37.9733 151.616 38.5467 151.27 39C150.923 39.44 150.476 39.7733 149.93 40C149.383 40.2133 148.81 40.32 148.21 40.32ZM163.014 40.32C162.441 40.32 161.868 40.2467 161.294 40.1C160.734 39.9533 160.228 39.7333 159.774 39.44C159.321 39.1333 158.954 38.74 158.674 38.26C158.408 37.78 158.274 37.2067 158.274 36.54C158.274 35.6467 158.568 34.86 159.154 34.18C159.741 33.5 160.494 32.98 161.414 32.62C160.974 32.1267 160.634 31.6733 160.394 31.26C160.168 30.8467 160.014 30.4533 159.934 30.08C159.854 29.6933 159.814 29.3067 159.814 28.92C159.828 27.9333 160.181 27.1467 160.874 26.56C161.568 25.9733 162.474 25.68 163.594 25.68C164.288 25.68 164.888 25.82 165.394 26.1C165.914 26.38 166.314 26.7467 166.594 27.2C166.874 27.6533 167.014 28.1533 167.014 28.7C167.014 29.2333 166.888 29.74 166.634 30.22C166.381 30.6867 166.028 31.1267 165.574 31.54C165.121 31.94 164.601 32.3067 164.014 32.64C164.161 32.8 164.414 33.0667 164.774 33.44C165.134 33.8133 165.548 34.2267 166.014 34.68C166.481 35.1333 166.941 35.5733 167.394 36C167.448 35.8133 167.481 35.6267 167.494 35.44C167.521 35.2533 167.534 35.0733 167.534 34.9C167.534 34.5533 167.494 34.26 167.414 34.02C167.334 33.78 167.201 33.5933 167.014 33.46C166.841 33.3133 166.608 33.2333 166.314 33.22V32.16H169.734V33.42L168.434 33.36C168.554 33.52 168.641 33.72 168.694 33.96C168.761 34.1867 168.794 34.44 168.794 34.72C168.794 35.0667 168.761 35.4267 168.694 35.8C168.641 36.1733 168.548 36.54 168.414 36.9C168.494 36.9667 168.574 37.0467 168.654 37.14C168.748 37.22 168.841 37.3 168.934 37.38C169.481 37.8467 169.968 38.22 170.394 38.5C170.834 38.7667 171.174 38.9 171.414 38.9V40H169.374C169.268 40 169.021 39.8933 168.634 39.68C168.248 39.4667 167.781 39.1333 167.234 38.68C166.754 39.1733 166.161 39.5733 165.454 39.88C164.748 40.1733 163.934 40.32 163.014 40.32ZM163.534 39.04C164.148 39.0533 164.688 38.9533 165.154 38.74C165.621 38.5267 166.014 38.2467 166.334 37.9C166.188 37.7667 166.041 37.64 165.894 37.52C165.761 37.3867 165.621 37.2533 165.474 37.12C164.661 36.36 163.981 35.7067 163.434 35.16C162.888 34.6 162.401 34.0733 161.974 33.58C161.654 33.7933 161.408 34.06 161.234 34.38C161.061 34.6867 160.934 34.9933 160.854 35.3C160.788 35.6067 160.754 35.8733 160.754 36.1C160.754 36.74 160.874 37.28 161.114 37.72C161.354 38.16 161.681 38.4867 162.094 38.7C162.508 38.9133 162.988 39.0267 163.534 39.04ZM163.254 31.76C163.841 31.3467 164.281 30.8467 164.574 30.26C164.868 29.66 165.014 29.1267 165.014 28.66C165.014 28.1267 164.881 27.6867 164.614 27.34C164.348 26.9933 163.974 26.82 163.494 26.82C163.054 26.82 162.688 26.9933 162.394 27.34C162.101 27.6733 161.954 28.16 161.954 28.8C161.954 29.2667 162.081 29.7667 162.334 30.3C162.588 30.8333 162.894 31.32 163.254 31.76ZM185.583 30.4C185.49 29.6933 185.296 29.08 185.003 28.56C184.71 28.0267 184.316 27.62 183.823 27.34C183.343 27.0467 182.763 26.9 182.083 26.9C181.43 26.9 180.883 27.0867 180.443 27.46C180.016 27.8333 179.803 28.2933 179.803 28.84C179.803 29.2933 179.93 29.6867 180.183 30.02C180.45 30.3533 180.83 30.66 181.323 30.94C181.816 31.2067 182.403 31.4867 183.083 31.78C183.59 31.9933 184.103 32.2333 184.623 32.5C185.143 32.7533 185.623 33.06 186.063 33.42C186.503 33.78 186.856 34.2 187.123 34.68C187.403 35.1467 187.543 35.7067 187.543 36.36C187.543 37.1333 187.336 37.82 186.923 38.42C186.523 39.02 185.95 39.4867 185.203 39.82C184.456 40.1533 183.576 40.32 182.563 40.32C182.003 40.32 181.41 40.2333 180.783 40.06C180.156 39.9 179.583 39.6533 179.063 39.32L179.123 40.18H177.763L177.723 35.64H178.863C179.01 36.7733 179.43 37.6333 180.123 38.22C180.816 38.7933 181.65 39.08 182.623 39.08C183.116 39.08 183.556 38.9933 183.943 38.82C184.33 38.6333 184.63 38.3867 184.843 38.08C185.07 37.76 185.183 37.4 185.183 37C185.183 36.48 185.023 36.0533 184.703 35.72C184.383 35.3867 183.976 35.1 183.483 34.86C182.99 34.62 182.476 34.3867 181.943 34.16C181.343 33.9067 180.776 33.64 180.243 33.36C179.71 33.0667 179.236 32.74 178.823 32.38C178.423 32.0067 178.103 31.58 177.863 31.1C177.636 30.62 177.523 30.0533 177.523 29.4C177.523 29.0133 177.596 28.6067 177.743 28.18C177.89 27.74 178.13 27.3333 178.463 26.96C178.81 26.5867 179.27 26.28 179.843 26.04C180.416 25.8 181.13 25.68 181.983 25.68C182.516 25.68 183.096 25.76 183.723 25.92C184.363 26.0667 184.923 26.3133 185.403 26.66L185.323 25.82H186.703V30.4H185.583ZM193.921 40.32C192.961 40.32 192.107 40.1067 191.361 39.68C190.614 39.24 190.034 38.6267 189.621 37.84C189.207 37.04 189.001 36.1 189.001 35.02C189.001 34.0867 189.207 33.2133 189.621 32.4C190.034 31.5867 190.614 30.9333 191.361 30.44C192.121 29.9333 193.001 29.68 194.001 29.68C194.561 29.68 195.101 29.76 195.621 29.92C196.141 30.08 196.607 30.3467 197.021 30.72C197.434 31.0933 197.761 31.5867 198.001 32.2C198.254 32.8133 198.374 33.56 198.361 34.44L191.641 34.56C191.641 35.3867 191.734 36.12 191.921 36.76C192.121 37.3867 192.441 37.8867 192.881 38.26C193.321 38.62 193.901 38.8 194.621 38.8C194.941 38.8 195.281 38.7467 195.641 38.64C196.014 38.52 196.381 38.3467 196.741 38.12C197.101 37.88 197.421 37.5867 197.701 37.24L198.461 37.94C198.021 38.58 197.534 39.0733 197.001 39.42C196.467 39.7667 195.934 40 195.401 40.12C194.867 40.2533 194.374 40.32 193.921 40.32ZM191.741 33.36H195.901C195.887 32.8267 195.807 32.38 195.661 32.02C195.527 31.6467 195.327 31.3667 195.061 31.18C194.794 30.98 194.467 30.88 194.081 30.88C193.427 30.88 192.901 31.1 192.501 31.54C192.114 31.9667 191.861 32.5733 191.741 33.36ZM199.922 38.94C200.309 38.94 200.582 38.86 200.742 38.7C200.902 38.5267 201.002 38.2867 201.042 37.98C201.082 37.6733 201.102 37.3267 201.102 36.94V33.18C201.102 32.94 201.109 32.6867 201.122 32.42C201.135 32.1533 201.155 31.88 201.182 31.6C200.955 31.6133 200.709 31.6267 200.442 31.64C200.175 31.64 199.955 31.6467 199.782 31.66V30.38H200.522C201.055 30.38 201.502 30.32 201.862 30.2C202.222 30.0667 202.475 29.9333 202.622 29.8H203.462C203.489 29.96 203.509 30.2133 203.522 30.56C203.535 30.9067 203.542 31.2533 203.542 31.6C203.849 31.2 204.169 30.86 204.502 30.58C204.835 30.2867 205.175 30.0667 205.522 29.92C205.882 29.76 206.249 29.68 206.622 29.68C207.049 29.68 207.422 29.8 207.742 30.04C208.075 30.28 208.242 30.6667 208.242 31.2C208.242 31.3733 208.195 31.56 208.102 31.76C208.022 31.96 207.889 32.1267 207.702 32.26C207.529 32.3933 207.289 32.46 206.982 32.46C206.702 32.46 206.435 32.3733 206.182 32.2C205.942 32.0133 205.815 31.72 205.802 31.32C205.522 31.3067 205.229 31.4067 204.922 31.62C204.629 31.8333 204.362 32.0933 204.122 32.4C203.882 32.7067 203.695 33.02 203.562 33.34L203.582 37.14C203.582 37.3533 203.575 37.6133 203.562 37.92C203.549 38.2133 203.529 38.5 203.502 38.78C203.715 38.7533 203.942 38.74 204.182 38.74C204.422 38.7267 204.622 38.72 204.782 38.72V40H199.922V38.94ZM213.135 40.06L210.075 33.26C209.915 32.8733 209.795 32.56 209.715 32.32C209.635 32.08 209.575 31.88 209.535 31.72C209.508 31.56 209.481 31.4 209.455 31.24L208.675 31.28V30H213.015V31.06C212.695 31.06 212.481 31.1467 212.375 31.32C212.281 31.48 212.255 31.7 212.295 31.98C212.348 32.2467 212.435 32.5333 212.555 32.84L213.755 35.72C213.861 35.96 213.968 36.2133 214.075 36.48C214.181 36.7333 214.281 36.9933 214.375 37.26H214.395C214.488 37.0067 214.581 36.7533 214.675 36.5C214.781 36.2333 214.875 35.9667 214.955 35.7L216.055 32.62C216.175 32.2867 216.288 32.0133 216.395 31.8C216.501 31.5867 216.601 31.3933 216.695 31.22L215.455 31.28V30H219.035V31.06C218.728 31.0867 218.461 31.2333 218.235 31.5C218.008 31.7533 217.808 32.0667 217.635 32.44C217.461 32.8 217.301 33.1733 217.155 33.56L214.575 40.06H213.135ZM219.942 38.94C220.328 38.94 220.602 38.86 220.762 38.7C220.922 38.5267 221.022 38.2867 221.062 37.98C221.102 37.6733 221.122 37.3267 221.122 36.94V33.2C221.122 32.9733 221.128 32.7267 221.142 32.46C221.155 32.18 221.175 31.8933 221.202 31.6C220.975 31.6133 220.728 31.6267 220.462 31.64C220.195 31.6533 219.975 31.6667 219.802 31.68V30.38C220.402 30.38 220.895 30.3533 221.282 30.3C221.682 30.2333 221.988 30.1533 222.202 30.06C222.428 29.9667 222.588 29.88 222.682 29.8H223.582V37.14C223.582 37.3533 223.575 37.6133 223.562 37.92C223.562 38.2133 223.542 38.5 223.502 38.78C223.715 38.7533 223.942 38.74 224.182 38.74C224.435 38.7267 224.642 38.72 224.802 38.72V40H219.942V38.94ZM222.242 28.08C221.855 28.08 221.528 27.94 221.262 27.66C220.995 27.3667 220.862 27.0133 220.862 26.6C220.862 26.1867 220.995 25.8333 221.262 25.54C221.542 25.2467 221.868 25.1 222.242 25.1C222.628 25.1 222.948 25.2467 223.202 25.54C223.468 25.8333 223.602 26.1867 223.602 26.6C223.602 27.0133 223.475 27.3667 223.222 27.66C222.968 27.94 222.642 28.08 222.242 28.08ZM230.952 40.32C230.059 40.32 229.232 40.12 228.472 39.72C227.725 39.32 227.125 38.74 226.672 37.98C226.232 37.2067 226.012 36.28 226.012 35.2C226.012 34.4667 226.139 33.7733 226.392 33.12C226.645 32.4533 226.999 31.8667 227.452 31.36C227.919 30.84 228.472 30.4333 229.112 30.14C229.752 29.8333 230.459 29.68 231.232 29.68C232.045 29.68 232.732 29.8067 233.292 30.06C233.852 30.3 234.279 30.6267 234.572 31.04C234.865 31.44 235.012 31.8667 235.012 32.32C235.012 32.68 234.905 32.9933 234.692 33.26C234.492 33.5267 234.199 33.6667 233.812 33.68C233.359 33.6933 233.039 33.5667 232.852 33.3C232.679 33.02 232.592 32.76 232.592 32.52C232.592 32.3867 232.612 32.2467 232.652 32.1C232.692 31.94 232.759 31.7933 232.852 31.66C232.759 31.42 232.605 31.2467 232.392 31.14C232.179 31.02 231.959 30.94 231.732 30.9C231.505 30.86 231.325 30.8467 231.192 30.86C230.459 30.8867 229.852 31.22 229.372 31.86C228.892 32.5 228.652 33.4333 228.652 34.66C228.652 35.3933 228.752 36.0733 228.952 36.7C229.165 37.3133 229.485 37.8133 229.912 38.2C230.339 38.5733 230.885 38.7667 231.552 38.78C232.139 38.7933 232.705 38.6533 233.252 38.36C233.799 38.0533 234.245 37.66 234.592 37.18L235.392 37.92C234.952 38.5467 234.479 39.0333 233.972 39.38C233.465 39.7267 232.952 39.9667 232.432 40.1C231.925 40.2467 231.432 40.32 230.952 40.32ZM241.382 40.32C240.422 40.32 239.568 40.1067 238.822 39.68C238.075 39.24 237.495 38.6267 237.082 37.84C236.668 37.04 236.462 36.1 236.462 35.02C236.462 34.0867 236.668 33.2133 237.082 32.4C237.495 31.5867 238.075 30.9333 238.822 30.44C239.582 29.9333 240.462 29.68 241.462 29.68C242.022 29.68 242.562 29.76 243.082 29.92C243.602 30.08 244.068 30.3467 244.482 30.72C244.895 31.0933 245.222 31.5867 245.462 32.2C245.715 32.8133 245.835 33.56 245.822 34.44L239.102 34.56C239.102 35.3867 239.195 36.12 239.382 36.76C239.582 37.3867 239.902 37.8867 240.342 38.26C240.782 38.62 241.362 38.8 242.082 38.8C242.402 38.8 242.742 38.7467 243.102 38.64C243.475 38.52 243.842 38.3467 244.202 38.12C244.562 37.88 244.882 37.5867 245.162 37.24L245.922 37.94C245.482 38.58 244.995 39.0733 244.462 39.42C243.928 39.7667 243.395 40 242.862 40.12C242.328 40.2533 241.835 40.32 241.382 40.32ZM239.202 33.36H243.362C243.348 32.8267 243.268 32.38 243.122 32.02C242.988 31.6467 242.788 31.3667 242.522 31.18C242.255 30.98 241.928 30.88 241.542 30.88C240.888 30.88 240.362 31.1 239.962 31.54C239.575 31.9667 239.322 32.5733 239.202 33.36ZM251.823 40.32C251.21 40.32 250.636 40.24 250.103 40.08C249.57 39.92 249.143 39.7267 248.823 39.5L248.883 40.14H247.583L247.483 36.7H248.563C248.603 37.1533 248.763 37.5667 249.043 37.94C249.323 38.3 249.683 38.5867 250.123 38.8C250.576 39 251.076 39.1 251.623 39.1C251.89 39.1 252.143 39.06 252.383 38.98C252.636 38.9 252.843 38.7733 253.003 38.6C253.176 38.4133 253.263 38.18 253.263 37.9C253.263 37.6067 253.163 37.3667 252.963 37.18C252.776 36.9933 252.51 36.82 252.163 36.66C251.816 36.5 251.41 36.3333 250.943 36.16C250.53 36 250.116 35.8333 249.703 35.66C249.29 35.4867 248.91 35.28 248.563 35.04C248.216 34.7867 247.936 34.48 247.723 34.12C247.51 33.76 247.403 33.32 247.403 32.8C247.403 32.44 247.47 32.08 247.603 31.72C247.736 31.36 247.95 31.0267 248.243 30.72C248.536 30.4 248.91 30.1467 249.363 29.96C249.83 29.7733 250.396 29.68 251.063 29.68C251.423 29.68 251.83 29.74 252.283 29.86C252.736 29.9667 253.136 30.1533 253.483 30.42L253.463 29.78H254.763V33.3H253.683C253.616 32.8333 253.47 32.42 253.243 32.06C253.016 31.6867 252.716 31.3933 252.343 31.18C251.97 30.9667 251.523 30.86 251.003 30.86C250.576 30.86 250.216 30.9667 249.923 31.18C249.63 31.38 249.483 31.68 249.483 32.08C249.483 32.4133 249.596 32.6867 249.823 32.9C250.05 33.1133 250.356 33.2933 250.743 33.44C251.13 33.5867 251.55 33.7467 252.003 33.92C252.63 34.1333 253.196 34.3867 253.703 34.68C254.223 34.9733 254.636 35.3267 254.943 35.74C255.25 36.1533 255.403 36.6667 255.403 37.28C255.403 37.9733 255.23 38.5467 254.883 39C254.536 39.44 254.09 39.7733 253.543 40C252.996 40.2133 252.423 40.32 251.823 40.32Z" fill="#1A1A1A"/>
<path fill-rule="evenodd" clip-rule="evenodd" d="M1159.57 8.3713L1158.77 5.36495C1158.57 4.59564 1159.02 3.80666 1159.79 3.60267C1160.56 3.39867 1161.35 3.85692 1161.56 4.62624L1162.35 7.63356C1162.56 8.40287 1162.1 9.19184 1161.33 9.39584C1160.56 9.59984 1159.77 9.14061 1159.57 8.3713ZM1168.97 9.33055C1169.22 9.39959 1169.48 9.39645 1169.72 9.3336C1170.2 9.20611 1170.6 8.83206 1170.74 8.31601L1171.55 5.31431C1171.76 4.54693 1171.3 3.75461 1170.54 3.54665C1169.77 3.33797 1168.98 3.79161 1168.77 4.56119L1167.96 7.56289C1167.75 8.33221 1168.2 9.12453 1168.97 9.33055ZM1177.01 13.4753C1177.25 13.4127 1177.47 13.2886 1177.66 13.1034L1179.86 10.9094C1180.43 10.3478 1180.43 9.43472 1179.87 8.87036C1179.31 8.30698 1178.39 8.30292 1177.83 8.86498L1175.63 11.0589C1175.06 11.6203 1175.06 12.5337 1175.62 13.098C1176 13.4766 1176.53 13.6023 1177.01 13.4753ZM1179.5 19.684C1179.7 20.4533 1180.49 20.9116 1181.26 20.7076L1184.26 19.9104C1185.03 19.7064 1185.49 18.9174 1185.29 18.1481C1185.08 17.3788 1184.3 16.9206 1183.53 17.1246L1180.52 17.9217C1179.75 18.1257 1179.29 18.9147 1179.5 19.684ZM1147.01 30.1195L1150.02 29.3221C1150.79 29.1181 1151.25 28.3291 1151.04 27.5598C1150.84 26.7905 1150.05 26.3323 1149.28 26.5363L1146.27 27.3337C1145.5 27.5377 1145.04 28.3267 1145.25 29.096C1145.45 29.8663 1146.24 30.3248 1147.01 30.1195ZM1146.21 20.1202L1149.21 20.9333C1149.46 21.0014 1149.72 20.9992 1149.95 20.9364C1150.44 20.8089 1150.84 20.4348 1150.98 19.9188C1151.18 19.1504 1150.73 18.3588 1149.96 18.1511L1146.96 17.3377C1146.19 17.1291 1145.4 17.5839 1145.19 18.3523C1144.98 19.1209 1145.44 19.913 1146.21 20.1202ZM1152.71 13.264C1153.08 13.6426 1153.62 13.7688 1154.1 13.6413C1154.33 13.5787 1154.56 13.4549 1154.74 13.2694C1155.31 12.709 1155.31 11.7966 1154.75 11.2313L1152.56 9.02557C1151.99 8.46219 1151.08 8.45787 1150.52 9.02019C1149.95 9.58057 1149.95 10.493 1150.51 11.0583L1152.71 13.264ZM1183.3 58.2466L1206.19 41.7917L1200.54 36.1872L1175.66 53.0397L1183.3 58.2466ZM1202.79 47.7911L1184.16 61.1774C1183.67 61.5312 1183.01 61.5399 1182.51 61.1987L1175.45 56.3877L1183.36 86.2346L1208.47 69.2278L1208.47 69.228L1202.79 47.7911ZM1176.92 35.1828C1177.07 36.3412 1176.71 37.4773 1175.99 38.3345C1176.23 38.6602 1176.42 39.0293 1176.53 39.4431L1176.73 40.1988C1177.11 41.6286 1176.49 43.08 1175.31 43.8427C1175.4 44.0308 1175.48 44.2276 1175.53 44.4365L1175.73 45.1922C1176.2 46.9707 1175.14 48.8006 1173.36 49.272L1170.64 49.9942C1168.86 50.4655 1167.03 49.4027 1166.56 47.6251L1166.36 46.8694C1166.3 46.6606 1166.27 46.4514 1166.26 46.2432C1164.86 46.1646 1163.6 45.2119 1163.22 43.7831L1163.02 43.0283C1162.91 42.6155 1162.89 42.2007 1162.93 41.7998C1161.91 41.4187 1161.06 40.6372 1160.6 39.5953L1144.38 49.4062L1172.7 51.5646L1196.18 35.663L1176.92 35.1828ZM1168.95 64.7924C1168.68 65.3359 1168.11 65.6554 1167.5 65.5928L1144.69 63.1945L1150.38 84.6323L1180.57 86.959L1172.67 57.1733L1168.95 64.7924ZM1170.86 54.3135L1140.86 52.0272L1138.73 59.6895L1142.87 60.1052C1142.9 60.1067 1142.92 60.1096 1142.95 60.1129L1166.81 62.6216L1170.86 54.3135ZM1174.03 35.3891C1172.88 31.0491 1173.7 28.9738 1174.42 27.1434C1175.04 25.592 1175.52 24.3675 1174.75 21.4797C1173.36 16.2149 1167.94 13.0661 1162.67 14.4624C1157.41 15.8587 1154.26 21.2783 1155.66 26.5438C1156.42 29.4306 1157.45 30.2548 1158.75 31.2988C1160.02 32.3174 1161.43 33.4552 1162.53 36.2768C1162.63 36.3669 1162.72 36.4646 1162.79 36.583C1162.98 36.8868 1163.03 37.2295 1162.98 37.5542C1163.04 37.7823 1163.11 38.019 1163.18 38.2667C1163.35 38.9185 1164.02 39.3082 1164.67 39.1357L1165.38 38.9471L1172.45 37.0741L1173.16 36.8853C1173.81 36.7119 1174.2 36.0409 1174.03 35.3891ZM1173.94 40.9358L1173.74 40.1811C1173.68 39.944 1173.43 39.796 1173.19 39.8591L1166.13 41.7322C1165.89 41.7953 1165.74 42.0494 1165.8 42.2864L1166 43.0412C1166.07 43.2792 1166.32 43.4262 1166.56 43.3631L1168.73 42.7877L1171.45 42.0655L1173.62 41.49C1173.86 41.4282 1174.01 41.1738 1173.94 40.9358ZM1169.47 45.5757C1169.23 45.6388 1169.08 45.893 1169.14 46.13L1169.34 46.8857C1169.41 47.1227 1169.66 47.2707 1169.9 47.2076L1172.62 46.4854C1172.86 46.4223 1173.01 46.1682 1172.94 45.9311L1172.74 45.1754C1172.68 44.9374 1172.43 44.7907 1172.19 44.8535L1169.47 45.5757Z" fill="#E5CA8C"/>
</g>
<defs>
<linearGradient id="paint0_linear_2036_8842" x1="2.01051e-05" y1="2.2" x2="38.5262" y2="245.385" gradientUnits="userSpaceOnUse">
<stop stop-color="#FFF3D8"/>
<stop offset="1" stop-color="#E6D2A4"/>
</linearGradient>
<clipPath id="clip0_2036_8842">
<rect width="1212" height="66" rx="8" fill="white"/>
</clipPath>
</defs>
</svg>
