<svg width="1212" height="66" viewBox="0 0 1212 66" fill="none" xmlns="http://www.w3.org/2000/svg">
<g clip-path="url(#clip0_2036_8819)">
<rect width="1212" height="66" rx="8" fill="url(#paint0_linear_2036_8819)"/>
<ellipse cx="1193.5" cy="33" rx="75.5" ry="75" fill="white" fill-opacity="0.45"/>
<path fill-rule="evenodd" clip-rule="evenodd" d="M1142.17 48.1944C1142.17 69.0694 1159.1 85.9914 1179.97 85.9914C1183.74 85.9914 1187.37 85.4407 1190.81 84.4133L1185.85 69.2923C1183.98 69.8158 1182.01 70.0931 1179.97 70.0931C1167.88 70.0931 1158.07 60.2923 1158.07 48.1951H1142.17L1142.17 48.1944ZM1157.99 43.8C1157.99 33.9602 1165.96 25.988 1175.8 25.988V6C1154.92 6 1138 22.926 1138 43.801L1157.99 43.8ZM1155.15 42.0031H1152.38L1141.93 31.5581C1142.18 30.8862 1142.43 30.2222 1142.72 29.5737L1155.15 42.0077L1155.15 42.0031ZM1145.03 42.0031H1142.25L1140.02 39.7687C1140.11 38.9523 1140.23 38.1476 1140.38 37.3507L1145.03 42.0031ZM1145.25 24.7531C1145.6 24.1867 1145.97 23.632 1146.35 23.0851L1158.27 35.0031C1157.95 35.6281 1157.67 36.2726 1157.42 36.9328L1145.24 24.7488L1145.25 24.7531ZM1149.66 19.0461C1150.11 18.5695 1150.57 18.1047 1151.04 17.6555L1162.64 29.2535C1162.16 29.6949 1161.7 30.1558 1161.26 30.6441L1149.66 19.0461ZM1155.09 14.3508C1155.63 13.968 1156.18 13.5969 1156.76 13.2453L1168.94 25.4293C1168.28 25.6754 1167.63 25.9566 1167.01 26.2731L1155.09 14.3508ZM1161.58 10.718C1162.23 10.4407 1162.89 10.175 1163.56 9.93675L1174 20.3778V23.1511L1161.57 10.7171L1161.58 10.718ZM1169.35 8.3742C1170.15 8.22967 1170.95 8.11639 1171.77 8.02264L1174.01 10.257V13.0265L1169.35 8.3742ZM1192.66 83.8082C1207.29 78.5934 1217.77 64.6202 1217.77 48.1952C1217.77 27.3162 1200.84 10.3942 1179.97 10.3942V26.2962C1192.06 26.2962 1201.87 36.1048 1201.87 48.1982C1201.87 57.5654 1195.98 65.5572 1187.71 68.6862L1192.66 83.8082Z" fill="#A59BE1"/>
<path d="M1192.5 -60C1242.99 -60 1284 -18.6257 1284 32.5C1284 83.6257 1242.99 125 1192.5 125C1142.01 125 1101 83.6257 1101 32.5C1101 -18.6257 1142.01 -60 1192.5 -60Z" stroke="white" stroke-opacity="0.47" stroke-width="8"/>
<path d="M1192.5 -83.5C1255.99 -83.5 1307.5 -31.5928 1307.5 32.5C1307.5 96.5928 1255.99 148.5 1192.5 148.5C1129.01 148.5 1077.5 96.5928 1077.5 32.5C1077.5 -31.5928 1129.01 -83.5 1192.5 -83.5Z" stroke="white" stroke-opacity="0.34" stroke-width="7"/>
<path d="M1192.5 -108.5C1269.81 -108.5 1332.5 -45.3821 1332.5 32.5C1332.5 110.382 1269.81 173.5 1192.5 173.5C1115.19 173.5 1052.5 110.382 1052.5 32.5C1052.5 -45.3821 1115.19 -108.5 1192.5 -108.5Z" stroke="white" stroke-opacity="0.2" stroke-width="3"/>
<path d="M29.04 30.4C28.9467 29.6933 28.7533 29.08 28.46 28.56C28.1667 28.0267 27.7733 27.62 27.28 27.34C26.8 27.0467 26.22 26.9 25.54 26.9C24.8867 26.9 24.34 27.0867 23.9 27.46C23.4733 27.8333 23.26 28.2933 23.26 28.84C23.26 29.2933 23.3867 29.6867 23.64 30.02C23.9067 30.3533 24.2867 30.66 24.78 30.94C25.2733 31.2067 25.86 31.4867 26.54 31.78C27.0467 31.9933 27.56 32.2333 28.08 32.5C28.6 32.7533 29.08 33.06 29.52 33.42C29.96 33.78 30.3133 34.2 30.58 34.68C30.86 35.1467 31 35.7067 31 36.36C31 37.1333 30.7933 37.82 30.38 38.42C29.98 39.02 29.4067 39.4867 28.66 39.82C27.9133 40.1533 27.0333 40.32 26.02 40.32C25.46 40.32 24.8667 40.2333 24.24 40.06C23.6133 39.9 23.04 39.6533 22.52 39.32L22.58 40.18H21.22L21.18 35.64H22.32C22.4667 36.7733 22.8867 37.6333 23.58 38.22C24.2733 38.7933 25.1067 39.08 26.08 39.08C26.5733 39.08 27.0133 38.9933 27.4 38.82C27.7867 38.6333 28.0867 38.3867 28.3 38.08C28.5267 37.76 28.64 37.4 28.64 37C28.64 36.48 28.48 36.0533 28.16 35.72C27.84 35.3867 27.4333 35.1 26.94 34.86C26.4467 34.62 25.9333 34.3867 25.4 34.16C24.8 33.9067 24.2333 33.64 23.7 33.36C23.1667 33.0667 22.6933 32.74 22.28 32.38C21.88 32.0067 21.56 31.58 21.32 31.1C21.0933 30.62 20.98 30.0533 20.98 29.4C20.98 29.0133 21.0533 28.6067 21.2 28.18C21.3467 27.74 21.5867 27.3333 21.92 26.96C22.2667 26.5867 22.7267 26.28 23.3 26.04C23.8733 25.8 24.5867 25.68 25.44 25.68C25.9733 25.68 26.5533 25.76 27.18 25.92C27.82 26.0667 28.38 26.3133 28.86 26.66L28.78 25.82H30.16V30.4H29.04ZM38.6592 38.94C39.0459 38.94 39.3192 38.86 39.4792 38.7C39.6392 38.5267 39.7392 38.2867 39.7792 37.98C39.8192 37.6733 39.8392 37.3267 39.8392 36.94V34.1C39.8259 33.14 39.6726 32.4267 39.3792 31.96C39.0859 31.4933 38.6259 31.26 37.9992 31.26C37.6126 31.26 37.2259 31.3467 36.8392 31.52C36.4659 31.6933 36.1592 31.9067 35.9192 32.16V37.14C35.9192 37.3533 35.9126 37.6133 35.8992 37.92C35.8859 38.2133 35.8592 38.5 35.8192 38.78C36.0459 38.7533 36.2792 38.74 36.5192 38.74C36.7592 38.7267 36.9592 38.72 37.1192 38.72V40H32.2592V38.94C32.6459 38.94 32.9192 38.86 33.0792 38.7C33.2526 38.5267 33.3526 38.2867 33.3792 37.98C33.4192 37.6733 33.4392 37.3267 33.4392 36.94V28.3C33.4392 28.0733 33.4459 27.8267 33.4592 27.56C33.4726 27.28 33.4926 26.9933 33.5192 26.7C33.2926 26.7133 33.0459 26.7267 32.7792 26.74C32.5126 26.7533 32.2926 26.7667 32.1192 26.78V25.48C32.7326 25.48 33.2326 25.4533 33.6192 25.4C34.0059 25.3333 34.3059 25.2533 34.5192 25.16C34.7459 25.0667 34.9059 24.98 34.9992 24.9H35.9192V30.86C36.1859 30.6333 36.4926 30.4333 36.8392 30.26C37.1992 30.0867 37.5659 29.9467 37.9392 29.84C38.3126 29.7333 38.6526 29.68 38.9592 29.68C40.1592 29.68 41.0126 30.0333 41.5192 30.74C42.0392 31.4467 42.2992 32.5733 42.2992 34.12L42.3192 37.14C42.3192 37.3533 42.3126 37.6133 42.2992 37.92C42.2859 38.2133 42.2659 38.5 42.2392 38.78C42.4526 38.7533 42.6726 38.74 42.8992 38.74C43.1392 38.7267 43.3459 38.72 43.5192 38.72V40H38.6592V38.94ZM50.5644 40C50.5244 39.8 50.4977 39.6333 50.4844 39.5C50.4844 39.3533 50.4777 39.1867 50.4644 39C50.011 39.4533 49.5244 39.7867 49.0044 40C48.4977 40.2133 47.971 40.32 47.4244 40.32C46.5177 40.32 45.8177 40.0733 45.3244 39.58C44.8444 39.0867 44.6044 38.48 44.6044 37.76C44.6044 37.12 44.7777 36.58 45.1244 36.14C45.471 35.6867 45.9244 35.32 46.4844 35.04C47.0444 34.7467 47.6644 34.5267 48.3444 34.38C49.0244 34.22 49.6977 34.1333 50.3644 34.12V33.02C50.3644 32.6333 50.3177 32.28 50.2244 31.96C50.1444 31.6267 49.991 31.3667 49.7644 31.18C49.5377 30.98 49.2044 30.88 48.7644 30.88C48.471 30.8933 48.171 30.96 47.8644 31.08C47.571 31.1867 47.3377 31.36 47.1644 31.6C47.271 31.72 47.3377 31.8533 47.3644 32C47.391 32.1333 47.4044 32.2533 47.4044 32.36C47.4044 32.6 47.311 32.8533 47.1244 33.12C46.9377 33.3733 46.6377 33.4933 46.2244 33.48C45.8644 33.4667 45.5844 33.34 45.3844 33.1C45.1977 32.86 45.1044 32.5733 45.1044 32.24C45.1044 31.7333 45.2844 31.2933 45.6444 30.92C46.0177 30.5333 46.5177 30.2333 47.1444 30.02C47.771 29.7933 48.471 29.68 49.2444 29.68C50.391 29.68 51.271 29.98 51.8844 30.58C52.4977 31.18 52.7977 32.14 52.7844 33.46C52.7844 33.9267 52.7844 34.3533 52.7844 34.74C52.7844 35.1133 52.7777 35.4933 52.7644 35.88C52.7644 36.2533 52.7644 36.6733 52.7644 37.14C52.7644 37.34 52.7577 37.5933 52.7444 37.9C52.731 38.1933 52.711 38.4867 52.6844 38.78C52.9244 38.7533 53.1644 38.74 53.4044 38.74C53.6577 38.7267 53.8644 38.7133 54.0244 38.7V40H50.5644ZM50.3444 35.3C49.9444 35.3267 49.551 35.3933 49.1644 35.5C48.7777 35.5933 48.431 35.7267 48.1244 35.9C47.8177 36.0733 47.571 36.2933 47.3844 36.56C47.211 36.8133 47.131 37.1067 47.1444 37.44C47.1577 37.8533 47.291 38.16 47.5444 38.36C47.7977 38.5467 48.091 38.64 48.4244 38.64C48.811 38.64 49.1577 38.56 49.4644 38.4C49.7844 38.24 50.0777 38.0267 50.3444 37.76C50.3444 37.6267 50.3444 37.4867 50.3444 37.34C50.3444 37.1933 50.3444 37.0467 50.3444 36.9C50.3444 36.7133 50.3444 36.48 50.3444 36.2C50.3444 35.92 50.3444 35.62 50.3444 35.3ZM55.2541 38.94C55.6407 38.94 55.9141 38.86 56.0741 38.7C56.2341 38.5267 56.3341 38.2867 56.3741 37.98C56.4141 37.6733 56.4341 37.3267 56.4341 36.94V33.18C56.4341 32.94 56.4407 32.6867 56.4541 32.42C56.4674 32.1533 56.4874 31.88 56.5141 31.6C56.2874 31.6133 56.0407 31.6267 55.7741 31.64C55.5074 31.64 55.2874 31.6467 55.1141 31.66V30.38H55.8541C56.3874 30.38 56.8341 30.32 57.1941 30.2C57.5541 30.0667 57.8074 29.9333 57.9541 29.8H58.7941C58.8207 29.96 58.8407 30.2133 58.8541 30.56C58.8674 30.9067 58.8741 31.2533 58.8741 31.6C59.1807 31.2 59.5007 30.86 59.8341 30.58C60.1674 30.2867 60.5074 30.0667 60.8541 29.92C61.2141 29.76 61.5807 29.68 61.9541 29.68C62.3807 29.68 62.7541 29.8 63.0741 30.04C63.4074 30.28 63.5741 30.6667 63.5741 31.2C63.5741 31.3733 63.5274 31.56 63.4341 31.76C63.3541 31.96 63.2207 32.1267 63.0341 32.26C62.8607 32.3933 62.6207 32.46 62.3141 32.46C62.0341 32.46 61.7674 32.3733 61.5141 32.2C61.2741 32.0133 61.1474 31.72 61.1341 31.32C60.8541 31.3067 60.5607 31.4067 60.2541 31.62C59.9607 31.8333 59.6941 32.0933 59.4541 32.4C59.2141 32.7067 59.0274 33.02 58.8941 33.34L58.9141 37.14C58.9141 37.3533 58.9074 37.6133 58.8941 37.92C58.8807 38.2133 58.8607 38.5 58.8341 38.78C59.0474 38.7533 59.2741 38.74 59.5141 38.74C59.7541 38.7267 59.9541 38.72 60.1141 38.72V40H55.2541V38.94ZM69.1552 40.32C68.1952 40.32 67.3418 40.1067 66.5952 39.68C65.8485 39.24 65.2685 38.6267 64.8552 37.84C64.4418 37.04 64.2352 36.1 64.2352 35.02C64.2352 34.0867 64.4418 33.2133 64.8552 32.4C65.2685 31.5867 65.8485 30.9333 66.5952 30.44C67.3552 29.9333 68.2352 29.68 69.2352 29.68C69.7952 29.68 70.3352 29.76 70.8552 29.92C71.3752 30.08 71.8418 30.3467 72.2552 30.72C72.6685 31.0933 72.9952 31.5867 73.2352 32.2C73.4885 32.8133 73.6085 33.56 73.5952 34.44L66.8752 34.56C66.8752 35.3867 66.9685 36.12 67.1552 36.76C67.3552 37.3867 67.6752 37.8867 68.1152 38.26C68.5552 38.62 69.1352 38.8 69.8552 38.8C70.1752 38.8 70.5152 38.7467 70.8752 38.64C71.2485 38.52 71.6152 38.3467 71.9752 38.12C72.3352 37.88 72.6552 37.5867 72.9352 37.24L73.6952 37.94C73.2552 38.58 72.7685 39.0733 72.2352 39.42C71.7018 39.7667 71.1685 40 70.6352 40.12C70.1018 40.2533 69.6085 40.32 69.1552 40.32ZM66.9752 33.36H71.1352C71.1218 32.8267 71.0418 32.38 70.8952 32.02C70.7618 31.6467 70.5618 31.3667 70.2952 31.18C70.0285 30.98 69.7018 30.88 69.3152 30.88C68.6618 30.88 68.1352 31.1 67.7352 31.54C67.3485 31.9667 67.0952 32.5733 66.9752 33.36ZM87.8903 40.2C87.397 39.0133 86.897 37.84 86.3903 36.68C85.897 35.5067 85.4036 34.3267 84.9103 33.14C84.777 32.8333 84.6236 32.4533 84.4503 32C84.277 31.5467 84.1036 31.0467 83.9303 30.5C83.757 29.9533 83.5903 29.3933 83.4303 28.82C83.457 29.3667 83.4703 29.8867 83.4703 30.38C83.4836 30.86 83.4836 31.3267 83.4703 31.78C83.4703 32.14 83.4636 32.5333 83.4503 32.96C83.4503 33.3867 83.4436 33.8267 83.4303 34.28C83.417 34.7333 83.4036 35.1933 83.3903 35.66C83.3903 36.1133 83.3903 36.5533 83.3903 36.98C83.377 37.3133 83.3636 37.64 83.3503 37.96C83.337 38.28 83.317 38.54 83.2903 38.74C83.5303 38.7267 83.797 38.7133 84.0903 38.7C84.397 38.6867 84.637 38.68 84.8103 38.68V40H80.4903V38.9C80.837 38.8867 81.1103 38.8333 81.3103 38.74C81.5103 38.6333 81.657 38.4533 81.7503 38.2C81.8436 37.9467 81.8903 37.5867 81.8903 37.12L82.1103 28.98C82.1236 28.6467 82.1303 28.3267 82.1303 28.02C82.1436 27.7133 82.157 27.46 82.1703 27.26C81.957 27.2733 81.7036 27.2867 81.4103 27.3C81.117 27.3 80.877 27.3067 80.6903 27.32V26H84.6703L87.8303 33.8C87.9636 34.1467 88.1036 34.52 88.2503 34.92C88.4103 35.32 88.5636 35.7133 88.7103 36.1C88.857 36.4867 88.9836 36.8267 89.0903 37.12H89.1103C89.2836 36.6933 89.4503 36.2533 89.6103 35.8C89.7703 35.3333 89.9303 34.9 90.0903 34.5C90.6236 33.0867 91.1636 31.68 91.7103 30.28C92.2703 28.8667 92.8303 27.44 93.3903 26H97.4503V27.1C97.1436 27.1 96.877 27.1467 96.6503 27.24C96.437 27.3333 96.277 27.5133 96.1703 27.78C96.0636 28.0333 96.017 28.4333 96.0303 28.98L96.4103 37.12C96.437 37.44 96.437 37.7467 96.4103 38.04C96.397 38.3333 96.3836 38.5667 96.3703 38.74C96.597 38.7133 96.857 38.7 97.1503 38.7C97.457 38.6867 97.697 38.68 97.8703 38.68V40H92.6703V38.9C93.0036 38.8867 93.277 38.8267 93.4903 38.72C93.7036 38.6133 93.857 38.4267 93.9503 38.16C94.0436 37.88 94.077 37.4733 94.0503 36.94L93.8103 31.92C93.8103 31.7467 93.797 31.4933 93.7703 31.16C93.7436 30.8267 93.7236 30.4667 93.7103 30.08C93.697 29.6933 93.6836 29.3267 93.6703 28.98C93.6303 29.0733 93.5836 29.1667 93.5303 29.26C93.4903 29.3533 93.457 29.4467 93.4303 29.54L89.3303 40.2H87.8903ZM105.135 40C105.095 39.8 105.068 39.6333 105.055 39.5C105.055 39.3533 105.048 39.1867 105.035 39C104.581 39.4533 104.095 39.7867 103.575 40C103.068 40.2133 102.541 40.32 101.995 40.32C101.088 40.32 100.388 40.0733 99.8947 39.58C99.4147 39.0867 99.1747 38.48 99.1747 37.76C99.1747 37.12 99.348 36.58 99.6947 36.14C100.041 35.6867 100.495 35.32 101.055 35.04C101.615 34.7467 102.235 34.5267 102.915 34.38C103.595 34.22 104.268 34.1333 104.935 34.12V33.02C104.935 32.6333 104.888 32.28 104.795 31.96C104.715 31.6267 104.561 31.3667 104.335 31.18C104.108 30.98 103.775 30.88 103.335 30.88C103.041 30.8933 102.741 30.96 102.435 31.08C102.141 31.1867 101.908 31.36 101.735 31.6C101.841 31.72 101.908 31.8533 101.935 32C101.961 32.1333 101.975 32.2533 101.975 32.36C101.975 32.6 101.881 32.8533 101.695 33.12C101.508 33.3733 101.208 33.4933 100.795 33.48C100.435 33.4667 100.155 33.34 99.9547 33.1C99.768 32.86 99.6747 32.5733 99.6747 32.24C99.6747 31.7333 99.8547 31.2933 100.215 30.92C100.588 30.5333 101.088 30.2333 101.715 30.02C102.341 29.7933 103.041 29.68 103.815 29.68C104.961 29.68 105.841 29.98 106.455 30.58C107.068 31.18 107.368 32.14 107.355 33.46C107.355 33.9267 107.355 34.3533 107.355 34.74C107.355 35.1133 107.348 35.4933 107.335 35.88C107.335 36.2533 107.335 36.6733 107.335 37.14C107.335 37.34 107.328 37.5933 107.315 37.9C107.301 38.1933 107.281 38.4867 107.255 38.78C107.495 38.7533 107.735 38.74 107.975 38.74C108.228 38.7267 108.435 38.7133 108.595 38.7V40H105.135ZM104.915 35.3C104.515 35.3267 104.121 35.3933 103.735 35.5C103.348 35.5933 103.001 35.7267 102.695 35.9C102.388 36.0733 102.141 36.2933 101.955 36.56C101.781 36.8133 101.701 37.1067 101.715 37.44C101.728 37.8533 101.861 38.16 102.115 38.36C102.368 38.5467 102.661 38.64 102.995 38.64C103.381 38.64 103.728 38.56 104.035 38.4C104.355 38.24 104.648 38.0267 104.915 37.76C104.915 37.6267 104.915 37.4867 104.915 37.34C104.915 37.1933 104.915 37.0467 104.915 36.9C104.915 36.7133 104.915 36.48 104.915 36.2C104.915 35.92 104.915 35.62 104.915 35.3ZM109.824 38.94C110.211 38.94 110.484 38.86 110.644 38.7C110.804 38.5267 110.904 38.2867 110.944 37.98C110.984 37.6733 111.004 37.3267 111.004 36.94V33.18C111.004 32.94 111.011 32.6867 111.024 32.42C111.038 32.1533 111.058 31.88 111.084 31.6C110.858 31.6133 110.611 31.6267 110.344 31.64C110.078 31.64 109.858 31.6467 109.684 31.66V30.38H110.424C110.958 30.38 111.404 30.32 111.764 30.2C112.124 30.0667 112.378 29.9333 112.524 29.8H113.364C113.391 29.96 113.411 30.2133 113.424 30.56C113.438 30.9067 113.444 31.2533 113.444 31.6C113.751 31.2 114.071 30.86 114.404 30.58C114.738 30.2867 115.078 30.0667 115.424 29.92C115.784 29.76 116.151 29.68 116.524 29.68C116.951 29.68 117.324 29.8 117.644 30.04C117.978 30.28 118.144 30.6667 118.144 31.2C118.144 31.3733 118.098 31.56 118.004 31.76C117.924 31.96 117.791 32.1267 117.604 32.26C117.431 32.3933 117.191 32.46 116.884 32.46C116.604 32.46 116.338 32.3733 116.084 32.2C115.844 32.0133 115.718 31.72 115.704 31.32C115.424 31.3067 115.131 31.4067 114.824 31.62C114.531 31.8333 114.264 32.0933 114.024 32.4C113.784 32.7067 113.598 33.02 113.464 33.34L113.484 37.14C113.484 37.3533 113.478 37.6133 113.464 37.92C113.451 38.2133 113.431 38.5 113.404 38.78C113.618 38.7533 113.844 38.74 114.084 38.74C114.324 38.7267 114.524 38.72 114.684 38.72V40H109.824V38.94ZM118.685 40V38.94C119.072 38.94 119.345 38.86 119.505 38.7C119.678 38.5267 119.785 38.2867 119.825 37.98C119.865 37.6733 119.885 37.3267 119.885 36.94V28.3C119.885 28.0733 119.892 27.8267 119.905 27.56C119.918 27.28 119.938 26.9933 119.965 26.7C119.738 26.7133 119.492 26.7267 119.225 26.74C118.958 26.7533 118.732 26.7667 118.545 26.78V25.48C119.158 25.48 119.658 25.4533 120.045 25.4C120.432 25.3333 120.732 25.2533 120.945 25.16C121.172 25.0667 121.332 24.98 121.425 24.9H122.345V34.14H123.245L125.025 32.18C125.212 31.98 125.372 31.8067 125.505 31.66C125.652 31.5 125.798 31.3667 125.945 31.26L124.785 31.28V30H128.985V31.06C128.532 31.1 128.118 31.22 127.745 31.42C127.372 31.6067 127.045 31.8267 126.765 32.08C126.485 32.3333 126.238 32.5733 126.025 32.8L124.665 34.32C124.878 34.4133 125.078 34.5533 125.265 34.74C125.465 34.9267 125.692 35.18 125.945 35.5L127.305 37.28C127.385 37.3733 127.492 37.5133 127.625 37.7C127.772 37.8733 127.932 38.06 128.105 38.26C128.292 38.4467 128.492 38.6067 128.705 38.74C128.918 38.8733 129.132 38.94 129.345 38.94V40H127.205C126.792 40 126.418 39.84 126.085 39.52C125.765 39.1867 125.405 38.7533 125.005 38.22C124.738 37.8467 124.472 37.4733 124.205 37.1C123.938 36.7133 123.692 36.3667 123.465 36.06C123.252 35.74 123.072 35.4933 122.925 35.32L122.345 35.34V37.14C122.345 37.3533 122.338 37.6133 122.325 37.92C122.312 38.2133 122.292 38.5 122.265 38.78C122.478 38.7533 122.705 38.74 122.945 38.74C123.185 38.7267 123.392 38.72 123.565 38.72V40H118.685ZM134.878 40.32C133.918 40.32 133.064 40.1067 132.318 39.68C131.571 39.24 130.991 38.6267 130.578 37.84C130.164 37.04 129.958 36.1 129.958 35.02C129.958 34.0867 130.164 33.2133 130.578 32.4C130.991 31.5867 131.571 30.9333 132.318 30.44C133.078 29.9333 133.958 29.68 134.958 29.68C135.518 29.68 136.058 29.76 136.578 29.92C137.098 30.08 137.564 30.3467 137.978 30.72C138.391 31.0933 138.718 31.5867 138.958 32.2C139.211 32.8133 139.331 33.56 139.318 34.44L132.598 34.56C132.598 35.3867 132.691 36.12 132.878 36.76C133.078 37.3867 133.398 37.8867 133.838 38.26C134.278 38.62 134.858 38.8 135.578 38.8C135.898 38.8 136.238 38.7467 136.598 38.64C136.971 38.52 137.338 38.3467 137.698 38.12C138.058 37.88 138.378 37.5867 138.658 37.24L139.418 37.94C138.978 38.58 138.491 39.0733 137.958 39.42C137.424 39.7667 136.891 40 136.358 40.12C135.824 40.2533 135.331 40.32 134.878 40.32ZM132.698 33.36H136.858C136.844 32.8267 136.764 32.38 136.618 32.02C136.484 31.6467 136.284 31.3667 136.018 31.18C135.751 30.98 135.424 30.88 135.038 30.88C134.384 30.88 133.858 31.1 133.458 31.54C133.071 31.9667 132.818 32.5733 132.698 33.36ZM144.74 40.32C144.367 40.32 144 40.2733 143.64 40.18C143.293 40.0867 142.973 39.9133 142.68 39.66C142.4 39.4067 142.173 39.0333 142 38.54C141.827 38.0333 141.74 37.3667 141.74 36.54L141.78 31.38L140.36 31.4V30C140.76 29.9867 141.147 29.8533 141.52 29.6C141.893 29.3333 142.22 28.9867 142.5 28.56C142.78 28.1333 142.967 27.68 143.06 27.2H144.28L144.26 30H147.08V31.28L144.26 31.34L144.24 36.48C144.24 36.88 144.273 37.2533 144.34 37.6C144.42 37.9333 144.553 38.2 144.74 38.4C144.94 38.6 145.207 38.7 145.54 38.7C145.793 38.7 146.08 38.62 146.4 38.46C146.733 38.3 147.067 37.98 147.4 37.5L148.22 38.24C147.887 38.7467 147.54 39.14 147.18 39.42C146.833 39.7 146.493 39.9067 146.16 40.04C145.84 40.1733 145.553 40.2533 145.3 40.28C145.047 40.3067 144.86 40.32 144.74 40.32ZM154.38 38.9C154.753 38.8867 155.04 38.8267 155.24 38.72C155.44 38.6 155.58 38.4 155.66 38.12C155.74 37.8267 155.78 37.4267 155.78 36.92V28.94C155.78 28.6067 155.787 28.2867 155.8 27.98C155.827 27.6733 155.847 27.4333 155.86 27.26C155.633 27.2733 155.373 27.2867 155.08 27.3C154.787 27.3 154.553 27.3067 154.38 27.32V26L159.82 25.98C161.1 25.98 162.227 26.16 163.2 26.52C164.187 26.8667 165.007 27.36 165.66 28C166.313 28.64 166.807 29.38 167.14 30.22C167.487 31.06 167.66 31.96 167.66 32.92C167.66 33.76 167.507 34.6 167.2 35.44C166.907 36.28 166.447 37.0467 165.82 37.74C165.207 38.42 164.407 38.9667 163.42 39.38C162.447 39.7933 161.287 40 159.94 40H154.38V38.9ZM158.3 37.02C158.3 37.38 158.293 37.7133 158.28 38.02C158.267 38.3267 158.247 38.5667 158.22 38.74C158.433 38.74 158.667 38.7467 158.92 38.76C159.173 38.76 159.42 38.7667 159.66 38.78C159.9 38.78 160.08 38.78 160.2 38.78C160.973 38.78 161.653 38.6267 162.24 38.32C162.827 38.0133 163.313 37.6 163.7 37.08C164.1 36.56 164.4 35.9667 164.6 35.3C164.8 34.62 164.9 33.9067 164.9 33.16C164.9 31.84 164.693 30.74 164.28 29.86C163.88 28.9667 163.3 28.2933 162.54 27.84C161.78 27.3733 160.84 27.1333 159.72 27.12C159.347 27.1067 159.053 27.16 158.84 27.28C158.627 27.4 158.48 27.6 158.4 27.88C158.333 28.16 158.3 28.5533 158.3 29.06V37.02ZM171.198 45.42C170.718 45.42 170.311 45.2867 169.978 45.02C169.645 44.7533 169.478 44.3867 169.478 43.92C169.478 43.6 169.585 43.3133 169.798 43.06C170.011 42.82 170.285 42.6933 170.618 42.68C170.911 42.6667 171.145 42.76 171.318 42.96C171.505 43.1733 171.598 43.4267 171.598 43.72C171.598 43.76 171.598 43.8 171.598 43.84C171.598 43.8933 171.591 43.9467 171.578 44C171.605 44 171.651 44 171.718 44C171.851 43.9733 171.991 43.8733 172.138 43.7C172.298 43.54 172.445 43.32 172.578 43.04C172.738 42.7333 172.905 42.3533 173.078 41.9C173.251 41.46 173.418 40.9667 173.578 40.42L170.438 33.96C170.078 33.2133 169.831 32.64 169.698 32.24C169.578 31.84 169.491 31.5067 169.438 31.24L168.518 31.28V30H173.218V31.06H173.178C172.671 31.1 172.391 31.2933 172.338 31.64C172.285 31.9733 172.371 32.3867 172.598 32.88L174.698 37.54C174.885 37.02 175.091 36.38 175.318 35.62C175.558 34.86 175.825 34.06 176.118 33.22C176.185 33.0067 176.265 32.7733 176.358 32.52C176.465 32.2533 176.571 32 176.678 31.76C176.785 31.52 176.891 31.34 176.998 31.22L175.778 31.28V30H179.198V31.06C178.758 31.18 178.405 31.4533 178.138 31.88C177.885 32.2933 177.645 32.8133 177.418 33.44L174.918 40.52C174.531 41.6133 174.171 42.52 173.838 43.24C173.505 43.9733 173.131 44.52 172.718 44.88C172.318 45.24 171.811 45.42 171.198 45.42ZM180.117 40V38.94C180.504 38.94 180.777 38.86 180.937 38.7C181.097 38.5267 181.197 38.2867 181.237 37.98C181.277 37.6733 181.297 37.3267 181.297 36.94V33.18C181.297 32.94 181.304 32.6867 181.317 32.42C181.331 32.1533 181.351 31.88 181.377 31.6C181.164 31.6133 180.917 31.6267 180.637 31.64C180.371 31.6533 180.151 31.6667 179.977 31.68V30.38C180.577 30.38 181.071 30.3533 181.457 30.3C181.844 30.2333 182.144 30.1533 182.357 30.06C182.571 29.9667 182.724 29.88 182.817 29.8H183.657C183.684 29.9467 183.697 30.0667 183.697 30.16C183.697 30.2533 183.704 30.3533 183.717 30.46C183.731 30.5533 183.751 30.6933 183.777 30.88C184.044 30.6533 184.351 30.4533 184.697 30.28C185.057 30.0933 185.417 29.9467 185.777 29.84C186.137 29.7333 186.471 29.68 186.777 29.68C187.977 29.68 188.837 30.0333 189.357 30.74C189.877 31.4467 190.137 32.5733 190.137 34.12V37.14C190.137 37.3533 190.131 37.6133 190.117 37.92C190.117 38.2133 190.097 38.5 190.057 38.78C190.284 38.7533 190.517 38.74 190.757 38.74C190.997 38.7267 191.197 38.72 191.357 38.72V40H186.497V38.94C186.884 38.94 187.157 38.86 187.317 38.7C187.491 38.5267 187.597 38.2867 187.637 37.98C187.677 37.6733 187.697 37.3267 187.697 36.94L187.677 34.1C187.677 33.14 187.531 32.4267 187.237 31.96C186.957 31.48 186.491 31.24 185.837 31.24C185.451 31.2533 185.071 31.3467 184.697 31.52C184.324 31.6933 184.011 31.9133 183.757 32.18C183.771 32.34 183.777 32.5067 183.777 32.68C183.777 32.8533 183.777 33.0267 183.777 33.2L183.757 37.14C183.757 37.3533 183.751 37.6133 183.737 37.92C183.737 38.2133 183.717 38.5 183.677 38.78C183.891 38.7533 184.117 38.74 184.357 38.74C184.611 38.7267 184.817 38.72 184.977 38.72V40H180.117ZM198.416 40C198.376 39.8 198.349 39.6333 198.336 39.5C198.336 39.3533 198.329 39.1867 198.316 39C197.863 39.4533 197.376 39.7867 196.856 40C196.349 40.2133 195.823 40.32 195.276 40.32C194.369 40.32 193.669 40.0733 193.176 39.58C192.696 39.0867 192.456 38.48 192.456 37.76C192.456 37.12 192.629 36.58 192.976 36.14C193.323 35.6867 193.776 35.32 194.336 35.04C194.896 34.7467 195.516 34.5267 196.196 34.38C196.876 34.22 197.549 34.1333 198.216 34.12V33.02C198.216 32.6333 198.169 32.28 198.076 31.96C197.996 31.6267 197.843 31.3667 197.616 31.18C197.389 30.98 197.056 30.88 196.616 30.88C196.323 30.8933 196.023 30.96 195.716 31.08C195.423 31.1867 195.189 31.36 195.016 31.6C195.123 31.72 195.189 31.8533 195.216 32C195.243 32.1333 195.256 32.2533 195.256 32.36C195.256 32.6 195.163 32.8533 194.976 33.12C194.789 33.3733 194.489 33.4933 194.076 33.48C193.716 33.4667 193.436 33.34 193.236 33.1C193.049 32.86 192.956 32.5733 192.956 32.24C192.956 31.7333 193.136 31.2933 193.496 30.92C193.869 30.5333 194.369 30.2333 194.996 30.02C195.623 29.7933 196.323 29.68 197.096 29.68C198.243 29.68 199.123 29.98 199.736 30.58C200.349 31.18 200.649 32.14 200.636 33.46C200.636 33.9267 200.636 34.3533 200.636 34.74C200.636 35.1133 200.629 35.4933 200.616 35.88C200.616 36.2533 200.616 36.6733 200.616 37.14C200.616 37.34 200.609 37.5933 200.596 37.9C200.583 38.1933 200.563 38.4867 200.536 38.78C200.776 38.7533 201.016 38.74 201.256 38.74C201.509 38.7267 201.716 38.7133 201.876 38.7V40H198.416ZM198.196 35.3C197.796 35.3267 197.403 35.3933 197.016 35.5C196.629 35.5933 196.283 35.7267 195.976 35.9C195.669 36.0733 195.423 36.2933 195.236 36.56C195.063 36.8133 194.983 37.1067 194.996 37.44C195.009 37.8533 195.143 38.16 195.396 38.36C195.649 38.5467 195.943 38.64 196.276 38.64C196.663 38.64 197.009 38.56 197.316 38.4C197.636 38.24 197.929 38.0267 198.196 37.76C198.196 37.6267 198.196 37.4867 198.196 37.34C198.196 37.1933 198.196 37.0467 198.196 36.9C198.196 36.7133 198.196 36.48 198.196 36.2C198.196 35.92 198.196 35.62 198.196 35.3ZM203.106 40V38.94C203.492 38.94 203.766 38.86 203.926 38.7C204.086 38.5267 204.186 38.2867 204.226 37.98C204.266 37.6733 204.286 37.3267 204.286 36.94V33.18C204.286 32.94 204.292 32.6867 204.306 32.42C204.319 32.1533 204.339 31.88 204.366 31.6C204.139 31.6133 203.892 31.6267 203.626 31.64C203.359 31.6533 203.139 31.6667 202.966 31.68V30.38C203.566 30.38 204.059 30.3533 204.446 30.3C204.832 30.2333 205.132 30.1533 205.346 30.06C205.559 29.9667 205.712 29.88 205.806 29.8H206.646C206.672 29.9333 206.686 30.1 206.686 30.3C206.699 30.4867 206.712 30.66 206.726 30.82C207.166 30.4733 207.646 30.2 208.166 30C208.686 29.7867 209.192 29.68 209.686 29.68C210.312 29.68 210.832 29.7933 211.246 30.02C211.672 30.2467 212.006 30.5733 212.246 31C212.712 30.6133 213.239 30.3 213.826 30.06C214.412 29.8067 214.979 29.68 215.526 29.68C216.632 29.68 217.459 30.0067 218.006 30.66C218.566 31.3 218.839 32.3933 218.826 33.94V37.14C218.826 37.3533 218.819 37.6133 218.806 37.92C218.792 38.2133 218.772 38.5 218.746 38.78C218.959 38.7533 219.186 38.74 219.426 38.74C219.666 38.7267 219.866 38.72 220.026 38.72V40H215.286V38.94C215.632 38.94 215.879 38.86 216.026 38.7C216.172 38.5267 216.259 38.2867 216.286 37.98C216.326 37.6733 216.346 37.3267 216.346 36.94V33.96C216.346 33 216.192 32.3133 215.886 31.9C215.579 31.4867 215.146 31.28 214.586 31.28C214.212 31.2667 213.852 31.34 213.506 31.5C213.172 31.6467 212.879 31.8267 212.626 32.04C212.692 32.2933 212.739 32.5667 212.766 32.86C212.792 33.1533 212.806 33.4667 212.806 33.8C212.806 34.36 212.806 34.92 212.806 35.48C212.806 36.0267 212.799 36.58 212.786 37.14C212.786 37.3533 212.779 37.6133 212.766 37.92C212.766 38.2133 212.746 38.5 212.706 38.78C212.919 38.7533 213.146 38.74 213.386 38.74C213.626 38.7267 213.832 38.72 214.006 38.72V40H209.206V38.94C209.566 38.94 209.819 38.86 209.966 38.7C210.126 38.5267 210.226 38.2867 210.266 37.98C210.306 37.6733 210.326 37.3267 210.326 36.94V33.92C210.326 32.96 210.179 32.28 209.886 31.88C209.606 31.4667 209.186 31.2533 208.626 31.24C208.266 31.24 207.919 31.32 207.586 31.48C207.266 31.64 206.986 31.8333 206.746 32.06C206.746 32.2333 206.746 32.4067 206.746 32.58C206.746 32.74 206.746 32.9067 206.746 33.08V37.14C206.746 37.3533 206.739 37.6133 206.726 37.92C206.726 38.2133 206.706 38.5 206.666 38.78C206.879 38.7533 207.092 38.74 207.306 38.74C207.532 38.7267 207.726 38.72 207.886 38.72V40H203.106ZM221.328 38.94C221.715 38.94 221.988 38.86 222.148 38.7C222.308 38.5267 222.408 38.2867 222.448 37.98C222.488 37.6733 222.508 37.3267 222.508 36.94V33.2C222.508 32.9733 222.515 32.7267 222.528 32.46C222.542 32.18 222.562 31.8933 222.588 31.6C222.362 31.6133 222.115 31.6267 221.848 31.64C221.582 31.6533 221.362 31.6667 221.188 31.68V30.38C221.788 30.38 222.282 30.3533 222.668 30.3C223.068 30.2333 223.375 30.1533 223.588 30.06C223.815 29.9667 223.975 29.88 224.068 29.8H224.968V37.14C224.968 37.3533 224.962 37.6133 224.948 37.92C224.948 38.2133 224.928 38.5 224.888 38.78C225.102 38.7533 225.328 38.74 225.568 38.74C225.822 38.7267 226.028 38.72 226.188 38.72V40H221.328V38.94ZM223.628 28.08C223.242 28.08 222.915 27.94 222.648 27.66C222.382 27.3667 222.248 27.0133 222.248 26.6C222.248 26.1867 222.382 25.8333 222.648 25.54C222.928 25.2467 223.255 25.1 223.628 25.1C224.015 25.1 224.335 25.2467 224.588 25.54C224.855 25.8333 224.988 26.1867 224.988 26.6C224.988 27.0133 224.862 27.3667 224.608 27.66C224.355 27.94 224.028 28.08 223.628 28.08ZM232.339 40.32C231.445 40.32 230.619 40.12 229.859 39.72C229.112 39.32 228.512 38.74 228.059 37.98C227.619 37.2067 227.399 36.28 227.399 35.2C227.399 34.4667 227.525 33.7733 227.779 33.12C228.032 32.4533 228.385 31.8667 228.839 31.36C229.305 30.84 229.859 30.4333 230.499 30.14C231.139 29.8333 231.845 29.68 232.619 29.68C233.432 29.68 234.119 29.8067 234.679 30.06C235.239 30.3 235.665 30.6267 235.959 31.04C236.252 31.44 236.399 31.8667 236.399 32.32C236.399 32.68 236.292 32.9933 236.079 33.26C235.879 33.5267 235.585 33.6667 235.199 33.68C234.745 33.6933 234.425 33.5667 234.239 33.3C234.065 33.02 233.979 32.76 233.979 32.52C233.979 32.3867 233.999 32.2467 234.039 32.1C234.079 31.94 234.145 31.7933 234.239 31.66C234.145 31.42 233.992 31.2467 233.779 31.14C233.565 31.02 233.345 30.94 233.119 30.9C232.892 30.86 232.712 30.8467 232.579 30.86C231.845 30.8867 231.239 31.22 230.759 31.86C230.279 32.5 230.039 33.4333 230.039 34.66C230.039 35.3933 230.139 36.0733 230.339 36.7C230.552 37.3133 230.872 37.8133 231.299 38.2C231.725 38.5733 232.272 38.7667 232.939 38.78C233.525 38.7933 234.092 38.6533 234.639 38.36C235.185 38.0533 235.632 37.66 235.979 37.18L236.779 37.92C236.339 38.5467 235.865 39.0333 235.359 39.38C234.852 39.7267 234.339 39.9667 233.819 40.1C233.312 40.2467 232.819 40.32 232.339 40.32ZM242.467 40.32C241.854 40.32 241.281 40.24 240.748 40.08C240.214 39.92 239.788 39.7267 239.468 39.5L239.528 40.14H238.228L238.128 36.7H239.208C239.248 37.1533 239.408 37.5667 239.688 37.94C239.968 38.3 240.328 38.5867 240.768 38.8C241.221 39 241.721 39.1 242.268 39.1C242.534 39.1 242.788 39.06 243.028 38.98C243.281 38.9 243.488 38.7733 243.648 38.6C243.821 38.4133 243.908 38.18 243.908 37.9C243.908 37.6067 243.808 37.3667 243.608 37.18C243.421 36.9933 243.154 36.82 242.808 36.66C242.461 36.5 242.054 36.3333 241.588 36.16C241.174 36 240.761 35.8333 240.348 35.66C239.934 35.4867 239.554 35.28 239.208 35.04C238.861 34.7867 238.581 34.48 238.368 34.12C238.154 33.76 238.048 33.32 238.048 32.8C238.048 32.44 238.114 32.08 238.248 31.72C238.381 31.36 238.594 31.0267 238.888 30.72C239.181 30.4 239.554 30.1467 240.008 29.96C240.474 29.7733 241.041 29.68 241.708 29.68C242.068 29.68 242.474 29.74 242.928 29.86C243.381 29.9667 243.781 30.1533 244.128 30.42L244.108 29.78H245.408V33.3H244.328C244.261 32.8333 244.114 32.42 243.888 32.06C243.661 31.6867 243.361 31.3933 242.988 31.18C242.614 30.9667 242.168 30.86 241.648 30.86C241.221 30.86 240.861 30.9667 240.568 31.18C240.274 31.38 240.127 31.68 240.127 32.08C240.127 32.4133 240.241 32.6867 240.468 32.9C240.694 33.1133 241.001 33.2933 241.388 33.44C241.774 33.5867 242.194 33.7467 242.648 33.92C243.274 34.1333 243.841 34.3867 244.348 34.68C244.868 34.9733 245.281 35.3267 245.588 35.74C245.894 36.1533 246.048 36.6667 246.048 37.28C246.048 37.9733 245.874 38.5467 245.528 39C245.181 39.44 244.734 39.7733 244.188 40C243.641 40.2133 243.068 40.32 242.467 40.32Z" fill="#1A1A1A"/>
</g>
<defs>
<linearGradient id="paint0_linear_2036_8819" x1="18.18" y1="1.925" x2="55.2594" y2="243.528" gradientUnits="userSpaceOnUse">
<stop stop-color="#EDEAFF"/>
<stop offset="1" stop-color="#C0B9EC"/>
</linearGradient>
<clipPath id="clip0_2036_8819">
<rect width="1212" height="66" rx="8" fill="white"/>
</clipPath>
</defs>
</svg>
