<svg width="1212" height="66" viewBox="0 0 1212 66" fill="none" xmlns="http://www.w3.org/2000/svg">
<g clip-path="url(#clip0_2036_8929)">
<rect width="1212" height="66" rx="8" fill="url(#paint0_linear_2036_8929)"/>
<ellipse cx="1193.5" cy="33" rx="75.5" ry="75" fill="white" fill-opacity="0.45"/>
<path d="M1192.5 -60C1242.99 -60 1284 -18.6257 1284 32.5C1284 83.6257 1242.99 125 1192.5 125C1142.01 125 1101 83.6257 1101 32.5C1101 -18.6257 1142.01 -60 1192.5 -60Z" stroke="white" stroke-opacity="0.47" stroke-width="8"/>
<path d="M1192.5 -83.5C1255.99 -83.5 1307.5 -31.5928 1307.5 32.5C1307.5 96.5928 1255.99 148.5 1192.5 148.5C1129.01 148.5 1077.5 96.5928 1077.5 32.5C1077.5 -31.5928 1129.01 -83.5 1192.5 -83.5Z" stroke="white" stroke-opacity="0.34" stroke-width="7"/>
<path d="M1192.5 -108.5C1269.81 -108.5 1332.5 -45.3821 1332.5 32.5C1332.5 110.382 1269.81 173.5 1192.5 173.5C1115.19 173.5 1052.5 110.382 1052.5 32.5C1052.5 -45.3821 1115.19 -108.5 1192.5 -108.5Z" stroke="white" stroke-opacity="0.2" stroke-width="3"/>
<path d="M29.04 30.4C28.9467 29.6933 28.7533 29.08 28.46 28.56C28.1667 28.0267 27.7733 27.62 27.28 27.34C26.8 27.0467 26.22 26.9 25.54 26.9C24.8867 26.9 24.34 27.0867 23.9 27.46C23.4733 27.8333 23.26 28.2933 23.26 28.84C23.26 29.2933 23.3867 29.6867 23.64 30.02C23.9067 30.3533 24.2867 30.66 24.78 30.94C25.2733 31.2067 25.86 31.4867 26.54 31.78C27.0467 31.9933 27.56 32.2333 28.08 32.5C28.6 32.7533 29.08 33.06 29.52 33.42C29.96 33.78 30.3133 34.2 30.58 34.68C30.86 35.1467 31 35.7067 31 36.36C31 37.1333 30.7933 37.82 30.38 38.42C29.98 39.02 29.4067 39.4867 28.66 39.82C27.9133 40.1533 27.0333 40.32 26.02 40.32C25.46 40.32 24.8667 40.2333 24.24 40.06C23.6133 39.9 23.04 39.6533 22.52 39.32L22.58 40.18H21.22L21.18 35.64H22.32C22.4667 36.7733 22.8867 37.6333 23.58 38.22C24.2733 38.7933 25.1067 39.08 26.08 39.08C26.5733 39.08 27.0133 38.9933 27.4 38.82C27.7867 38.6333 28.0867 38.3867 28.3 38.08C28.5267 37.76 28.64 37.4 28.64 37C28.64 36.48 28.48 36.0533 28.16 35.72C27.84 35.3867 27.4333 35.1 26.94 34.86C26.4467 34.62 25.9333 34.3867 25.4 34.16C24.8 33.9067 24.2333 33.64 23.7 33.36C23.1667 33.0667 22.6933 32.74 22.28 32.38C21.88 32.0067 21.56 31.58 21.32 31.1C21.0933 30.62 20.98 30.0533 20.98 29.4C20.98 29.0133 21.0533 28.6067 21.2 28.18C21.3467 27.74 21.5867 27.3333 21.92 26.96C22.2667 26.5867 22.7267 26.28 23.3 26.04C23.8733 25.8 24.5867 25.68 25.44 25.68C25.9733 25.68 26.5533 25.76 27.18 25.92C27.82 26.0667 28.38 26.3133 28.86 26.66L28.78 25.82H30.16V30.4H29.04ZM36.6211 40.32C35.8478 40.32 35.2144 40.1733 34.7211 39.88C34.2411 39.5867 33.8878 39.12 33.6611 38.48C33.4344 37.8267 33.3211 36.9733 33.3211 35.92V33.2C33.3211 32.9733 33.3278 32.72 33.3411 32.44C33.3544 32.16 33.3678 31.88 33.3811 31.6C33.1678 31.6133 32.9278 31.6267 32.6611 31.64C32.3944 31.64 32.1744 31.6467 32.0011 31.66V30.38H32.3411C33.0744 30.38 33.6411 30.32 34.0411 30.2C34.4544 30.0667 34.7344 29.9333 34.8811 29.8H35.8011V35.92C35.8011 36.88 35.9278 37.5933 36.1811 38.06C36.4478 38.5267 36.8744 38.76 37.4611 38.76C37.8611 38.7467 38.2544 38.6267 38.6411 38.4C39.0411 38.1733 39.3611 37.9067 39.6011 37.6V33.28C39.6011 33.0133 39.6078 32.74 39.6211 32.46C39.6344 32.1667 39.6544 31.88 39.6811 31.6C39.4678 31.6133 39.2211 31.6267 38.9411 31.64C38.6744 31.64 38.4544 31.6467 38.2811 31.66V30.38H38.8011C39.4144 30.38 39.9211 30.3133 40.3211 30.18C40.7344 30.0467 41.0078 29.92 41.1411 29.8H42.0611V36.98C42.0611 37.1667 42.0544 37.44 42.0411 37.8C42.0278 38.16 42.0078 38.4867 41.9811 38.78C42.2078 38.7533 42.4478 38.74 42.7011 38.74C42.9544 38.7267 43.1611 38.7133 43.3211 38.7V40H39.8411C39.8144 39.8133 39.7878 39.6267 39.7611 39.44C39.7478 39.2533 39.7344 39.0733 39.7211 38.9C39.3078 39.2733 38.8411 39.6067 38.3211 39.9C37.8144 40.18 37.2478 40.32 36.6211 40.32ZM49.1277 40.32C48.5143 40.32 47.941 40.24 47.4077 40.08C46.8743 39.92 46.4477 39.7267 46.1277 39.5L46.1877 40.14H44.8877L44.7877 36.7H45.8677C45.9077 37.1533 46.0677 37.5667 46.3477 37.94C46.6277 38.3 46.9877 38.5867 47.4277 38.8C47.881 39 48.381 39.1 48.9277 39.1C49.1943 39.1 49.4477 39.06 49.6877 38.98C49.941 38.9 50.1477 38.7733 50.3077 38.6C50.481 38.4133 50.5677 38.18 50.5677 37.9C50.5677 37.6067 50.4677 37.3667 50.2677 37.18C50.081 36.9933 49.8143 36.82 49.4677 36.66C49.121 36.5 48.7143 36.3333 48.2477 36.16C47.8343 36 47.421 35.8333 47.0077 35.66C46.5943 35.4867 46.2143 35.28 45.8677 35.04C45.521 34.7867 45.241 34.48 45.0277 34.12C44.8143 33.76 44.7077 33.32 44.7077 32.8C44.7077 32.44 44.7743 32.08 44.9077 31.72C45.041 31.36 45.2543 31.0267 45.5477 30.72C45.841 30.4 46.2143 30.1467 46.6677 29.96C47.1343 29.7733 47.701 29.68 48.3677 29.68C48.7277 29.68 49.1343 29.74 49.5877 29.86C50.041 29.9667 50.441 30.1533 50.7877 30.42L50.7677 29.78H52.0677V33.3H50.9877C50.921 32.8333 50.7743 32.42 50.5477 32.06C50.321 31.6867 50.021 31.3933 49.6477 31.18C49.2743 30.9667 48.8277 30.86 48.3077 30.86C47.881 30.86 47.521 30.9667 47.2277 31.18C46.9343 31.38 46.7877 31.68 46.7877 32.08C46.7877 32.4133 46.901 32.6867 47.1277 32.9C47.3543 33.1133 47.661 33.2933 48.0477 33.44C48.4343 33.5867 48.8543 33.7467 49.3077 33.92C49.9343 34.1333 50.501 34.3867 51.0077 34.68C51.5277 34.9733 51.941 35.3267 52.2477 35.74C52.5543 36.1533 52.7077 36.6667 52.7077 37.28C52.7077 37.9733 52.5343 38.5467 52.1877 39C51.841 39.44 51.3943 39.7733 50.8477 40C50.301 40.2133 49.7277 40.32 49.1277 40.32ZM58.1384 40.32C57.7651 40.32 57.3984 40.2733 57.0384 40.18C56.6918 40.0867 56.3718 39.9133 56.0784 39.66C55.7984 39.4067 55.5718 39.0333 55.3984 38.54C55.2251 38.0333 55.1384 37.3667 55.1384 36.54L55.1784 31.38L53.7584 31.4V30C54.1584 29.9867 54.5451 29.8533 54.9184 29.6C55.2918 29.3333 55.6184 28.9867 55.8984 28.56C56.1784 28.1333 56.3651 27.68 56.4584 27.2H57.6784L57.6584 30H60.4784V31.28L57.6584 31.34L57.6384 36.48C57.6384 36.88 57.6718 37.2533 57.7384 37.6C57.8184 37.9333 57.9518 38.2 58.1384 38.4C58.3384 38.6 58.6051 38.7 58.9384 38.7C59.1918 38.7 59.4784 38.62 59.7984 38.46C60.1318 38.3 60.4651 37.98 60.7984 37.5L61.6184 38.24C61.2851 38.7467 60.9384 39.14 60.5784 39.42C60.2318 39.7 59.8918 39.9067 59.5584 40.04C59.2384 40.1733 58.9518 40.2533 58.6984 40.28C58.4451 40.3067 58.2584 40.32 58.1384 40.32ZM68.0644 40C68.0244 39.8 67.9977 39.6333 67.9844 39.5C67.9844 39.3533 67.9777 39.1867 67.9644 39C67.511 39.4533 67.0244 39.7867 66.5044 40C65.9977 40.2133 65.471 40.32 64.9244 40.32C64.0177 40.32 63.3177 40.0733 62.8244 39.58C62.3444 39.0867 62.1044 38.48 62.1044 37.76C62.1044 37.12 62.2777 36.58 62.6244 36.14C62.971 35.6867 63.4244 35.32 63.9844 35.04C64.5444 34.7467 65.1644 34.5267 65.8444 34.38C66.5244 34.22 67.1977 34.1333 67.8644 34.12V33.02C67.8644 32.6333 67.8177 32.28 67.7244 31.96C67.6444 31.6267 67.491 31.3667 67.2644 31.18C67.0377 30.98 66.7044 30.88 66.2644 30.88C65.971 30.8933 65.671 30.96 65.3644 31.08C65.071 31.1867 64.8377 31.36 64.6644 31.6C64.771 31.72 64.8377 31.8533 64.8644 32C64.891 32.1333 64.9044 32.2533 64.9044 32.36C64.9044 32.6 64.811 32.8533 64.6244 33.12C64.4377 33.3733 64.1377 33.4933 63.7244 33.48C63.3644 33.4667 63.0844 33.34 62.8844 33.1C62.6977 32.86 62.6044 32.5733 62.6044 32.24C62.6044 31.7333 62.7844 31.2933 63.1444 30.92C63.5177 30.5333 64.0177 30.2333 64.6444 30.02C65.271 29.7933 65.971 29.68 66.7444 29.68C67.891 29.68 68.771 29.98 69.3844 30.58C69.9977 31.18 70.2977 32.14 70.2844 33.46C70.2844 33.9267 70.2844 34.3533 70.2844 34.74C70.2844 35.1133 70.2777 35.4933 70.2644 35.88C70.2644 36.2533 70.2644 36.6733 70.2644 37.14C70.2644 37.34 70.2577 37.5933 70.2444 37.9C70.231 38.1933 70.211 38.4867 70.1844 38.78C70.4244 38.7533 70.6644 38.74 70.9044 38.74C71.1577 38.7267 71.3644 38.7133 71.5244 38.7V40H68.0644ZM67.8444 35.3C67.4444 35.3267 67.051 35.3933 66.6644 35.5C66.2777 35.5933 65.931 35.7267 65.6244 35.9C65.3177 36.0733 65.071 36.2933 64.8844 36.56C64.711 36.8133 64.631 37.1067 64.6444 37.44C64.6577 37.8533 64.791 38.16 65.0444 38.36C65.2977 38.5467 65.591 38.64 65.9244 38.64C66.311 38.64 66.6577 38.56 66.9644 38.4C67.2844 38.24 67.5777 38.0267 67.8444 37.76C67.8444 37.6267 67.8444 37.4867 67.8444 37.34C67.8444 37.1933 67.8444 37.0467 67.8444 36.9C67.8444 36.7133 67.8444 36.48 67.8444 36.2C67.8444 35.92 67.8444 35.62 67.8444 35.3ZM72.7541 38.94C73.1407 38.94 73.4141 38.86 73.5741 38.7C73.7341 38.5267 73.8341 38.2867 73.8741 37.98C73.9141 37.6733 73.9341 37.3267 73.9341 36.94V33.2C73.9341 32.9733 73.9407 32.7267 73.9541 32.46C73.9674 32.18 73.9874 31.8933 74.0141 31.6C73.7874 31.6133 73.5407 31.6267 73.2741 31.64C73.0074 31.6533 72.7874 31.6667 72.6141 31.68V30.38C73.2141 30.38 73.7074 30.3533 74.0941 30.3C74.4941 30.2333 74.8007 30.1533 75.0141 30.06C75.2407 29.9667 75.4007 29.88 75.4941 29.8H76.3941V37.14C76.3941 37.3533 76.3874 37.6133 76.3741 37.92C76.3741 38.2133 76.3541 38.5 76.3141 38.78C76.5274 38.7533 76.7541 38.74 76.9941 38.74C77.2474 38.7267 77.4541 38.72 77.6141 38.72V40H72.7541V38.94ZM75.0541 28.08C74.6674 28.08 74.3407 27.94 74.0741 27.66C73.8074 27.3667 73.6741 27.0133 73.6741 26.6C73.6741 26.1867 73.8074 25.8333 74.0741 25.54C74.3541 25.2467 74.6807 25.1 75.0541 25.1C75.4407 25.1 75.7607 25.2467 76.0141 25.54C76.2807 25.8333 76.4141 26.1867 76.4141 26.6C76.4141 27.0133 76.2874 27.3667 76.0341 27.66C75.7807 27.94 75.4541 28.08 75.0541 28.08ZM78.9845 40V38.94C79.3712 38.94 79.6445 38.86 79.8045 38.7C79.9645 38.5267 80.0645 38.2867 80.1045 37.98C80.1445 37.6733 80.1645 37.3267 80.1645 36.94V33.18C80.1645 32.94 80.1712 32.6867 80.1845 32.42C80.1979 32.1533 80.2179 31.88 80.2445 31.6C80.0312 31.6133 79.7845 31.6267 79.5045 31.64C79.2379 31.6533 79.0179 31.6667 78.8445 31.68V30.38C79.4445 30.38 79.9379 30.3533 80.3245 30.3C80.7112 30.2333 81.0112 30.1533 81.2245 30.06C81.4379 29.9667 81.5912 29.88 81.6845 29.8H82.5245C82.5512 29.9467 82.5645 30.0667 82.5645 30.16C82.5645 30.2533 82.5712 30.3533 82.5845 30.46C82.5979 30.5533 82.6179 30.6933 82.6445 30.88C82.9112 30.6533 83.2179 30.4533 83.5645 30.28C83.9245 30.0933 84.2845 29.9467 84.6445 29.84C85.0045 29.7333 85.3379 29.68 85.6445 29.68C86.8445 29.68 87.7045 30.0333 88.2245 30.74C88.7445 31.4467 89.0045 32.5733 89.0045 34.12V37.14C89.0045 37.3533 88.9979 37.6133 88.9845 37.92C88.9845 38.2133 88.9645 38.5 88.9245 38.78C89.1512 38.7533 89.3845 38.74 89.6245 38.74C89.8645 38.7267 90.0645 38.72 90.2245 38.72V40H85.3645V38.94C85.7512 38.94 86.0245 38.86 86.1845 38.7C86.3579 38.5267 86.4645 38.2867 86.5045 37.98C86.5445 37.6733 86.5645 37.3267 86.5645 36.94L86.5445 34.1C86.5445 33.14 86.3979 32.4267 86.1045 31.96C85.8245 31.48 85.3579 31.24 84.7045 31.24C84.3179 31.2533 83.9379 31.3467 83.5645 31.52C83.1912 31.6933 82.8779 31.9133 82.6245 32.18C82.6379 32.34 82.6445 32.5067 82.6445 32.68C82.6445 32.8533 82.6445 33.0267 82.6445 33.2L82.6245 37.14C82.6245 37.3533 82.6179 37.6133 82.6045 37.92C82.6045 38.2133 82.5845 38.5 82.5445 38.78C82.7579 38.7533 82.9845 38.74 83.2245 38.74C83.4779 38.7267 83.6845 38.72 83.8445 38.72V40H78.9845ZM97.2831 40C97.2431 39.8 97.2165 39.6333 97.2031 39.5C97.2031 39.3533 97.1965 39.1867 97.1831 39C96.7298 39.4533 96.2431 39.7867 95.7231 40C95.2165 40.2133 94.6898 40.32 94.1431 40.32C93.2365 40.32 92.5365 40.0733 92.0431 39.58C91.5631 39.0867 91.3231 38.48 91.3231 37.76C91.3231 37.12 91.4965 36.58 91.8431 36.14C92.1898 35.6867 92.6431 35.32 93.2031 35.04C93.7631 34.7467 94.3831 34.5267 95.0631 34.38C95.7431 34.22 96.4165 34.1333 97.0831 34.12V33.02C97.0831 32.6333 97.0365 32.28 96.9431 31.96C96.8631 31.6267 96.7098 31.3667 96.4831 31.18C96.2565 30.98 95.9231 30.88 95.4831 30.88C95.1898 30.8933 94.8898 30.96 94.5831 31.08C94.2898 31.1867 94.0565 31.36 93.8831 31.6C93.9898 31.72 94.0565 31.8533 94.0831 32C94.1098 32.1333 94.1231 32.2533 94.1231 32.36C94.1231 32.6 94.0298 32.8533 93.8431 33.12C93.6565 33.3733 93.3565 33.4933 92.9431 33.48C92.5831 33.4667 92.3031 33.34 92.1031 33.1C91.9165 32.86 91.8231 32.5733 91.8231 32.24C91.8231 31.7333 92.0031 31.2933 92.3631 30.92C92.7365 30.5333 93.2365 30.2333 93.8631 30.02C94.4898 29.7933 95.1898 29.68 95.9631 29.68C97.1098 29.68 97.9898 29.98 98.6031 30.58C99.2165 31.18 99.5165 32.14 99.5031 33.46C99.5031 33.9267 99.5031 34.3533 99.5031 34.74C99.5031 35.1133 99.4965 35.4933 99.4831 35.88C99.4831 36.2533 99.4831 36.6733 99.4831 37.14C99.4831 37.34 99.4765 37.5933 99.4631 37.9C99.4498 38.1933 99.4298 38.4867 99.4031 38.78C99.6431 38.7533 99.8831 38.74 100.123 38.74C100.376 38.7267 100.583 38.7133 100.743 38.7V40H97.2831ZM97.0631 35.3C96.6631 35.3267 96.2698 35.3933 95.8831 35.5C95.4965 35.5933 95.1498 35.7267 94.8431 35.9C94.5365 36.0733 94.2898 36.2933 94.1031 36.56C93.9298 36.8133 93.8498 37.1067 93.8631 37.44C93.8765 37.8533 94.0098 38.16 94.2631 38.36C94.5165 38.5467 94.8098 38.64 95.1431 38.64C95.5298 38.64 95.8765 38.56 96.1831 38.4C96.5031 38.24 96.7965 38.0267 97.0631 37.76C97.0631 37.6267 97.0631 37.4867 97.0631 37.34C97.0631 37.1933 97.0631 37.0467 97.0631 36.9C97.0631 36.7133 97.0631 36.48 97.0631 36.2C97.0631 35.92 97.0631 35.62 97.0631 35.3ZM102.473 28.3C102.473 28.0733 102.473 27.8267 102.473 27.56C102.486 27.28 102.506 26.9933 102.533 26.7C102.319 26.7133 102.073 26.7267 101.793 26.74C101.526 26.7533 101.306 26.7667 101.133 26.78V25.48C101.746 25.48 102.246 25.4533 102.633 25.4C103.019 25.3333 103.319 25.2533 103.533 25.16C103.759 25.0667 103.919 24.98 104.013 24.9H104.933V30.8C105.359 30.4 105.813 30.1133 106.293 29.94C106.773 29.7667 107.253 29.68 107.733 29.68C108.559 29.68 109.286 29.8867 109.913 30.3C110.553 30.7133 111.053 31.3 111.413 32.06C111.773 32.82 111.953 33.7133 111.953 34.74C111.953 35.8333 111.739 36.8 111.313 37.64C110.886 38.48 110.299 39.14 109.553 39.62C108.806 40.0867 107.946 40.32 106.973 40.32C106.586 40.32 106.113 40.24 105.553 40.08C105.006 39.92 104.506 39.6 104.053 39.12L103.493 40H102.473V28.3ZM104.933 36.96C104.933 37.4933 105.019 37.9133 105.193 38.22C105.366 38.5267 105.586 38.7467 105.853 38.88C106.133 39 106.413 39.0667 106.693 39.08C107.306 39.08 107.799 38.9 108.173 38.54C108.559 38.18 108.839 37.7 109.013 37.1C109.199 36.4867 109.293 35.8267 109.293 35.12C109.293 34.4 109.206 33.7467 109.033 33.16C108.859 32.56 108.593 32.0867 108.233 31.74C107.873 31.38 107.399 31.2 106.813 31.2C106.453 31.2133 106.106 31.3067 105.773 31.48C105.439 31.6533 105.159 31.88 104.933 32.16V36.96ZM113.496 38.94C113.883 38.94 114.156 38.86 114.316 38.7C114.476 38.5267 114.576 38.2867 114.616 37.98C114.656 37.6733 114.676 37.3267 114.676 36.94V33.2C114.676 32.9733 114.683 32.7267 114.696 32.46C114.71 32.18 114.73 31.8933 114.756 31.6C114.53 31.6133 114.283 31.6267 114.016 31.64C113.75 31.6533 113.53 31.6667 113.356 31.68V30.38C113.956 30.38 114.45 30.3533 114.836 30.3C115.236 30.2333 115.543 30.1533 115.756 30.06C115.983 29.9667 116.143 29.88 116.236 29.8H117.136V37.14C117.136 37.3533 117.13 37.6133 117.116 37.92C117.116 38.2133 117.096 38.5 117.056 38.78C117.27 38.7533 117.496 38.74 117.736 38.74C117.99 38.7267 118.196 38.72 118.356 38.72V40H113.496V38.94ZM115.796 28.08C115.41 28.08 115.083 27.94 114.816 27.66C114.55 27.3667 114.416 27.0133 114.416 26.6C114.416 26.1867 114.55 25.8333 114.816 25.54C115.096 25.2467 115.423 25.1 115.796 25.1C116.183 25.1 116.503 25.2467 116.756 25.54C117.023 25.8333 117.156 26.1867 117.156 26.6C117.156 27.0133 117.03 27.3667 116.776 27.66C116.523 27.94 116.196 28.08 115.796 28.08ZM119.447 38.94C119.833 38.94 120.107 38.86 120.267 38.7C120.44 38.5267 120.54 38.2867 120.567 37.98C120.607 37.6733 120.627 37.3267 120.627 36.94V28.3C120.627 28.0733 120.633 27.8267 120.647 27.56C120.66 27.28 120.68 26.9933 120.707 26.7C120.48 26.7133 120.233 26.7267 119.967 26.74C119.7 26.7533 119.473 26.7667 119.287 26.78V25.48C119.9 25.48 120.4 25.4533 120.787 25.4C121.187 25.3333 121.493 25.2533 121.707 25.16C121.933 25.0667 122.093 24.98 122.187 24.9H123.087L123.107 37.14C123.107 37.3533 123.1 37.6133 123.087 37.92C123.073 38.2133 123.047 38.5 123.007 38.78C123.233 38.7533 123.467 38.74 123.707 38.74C123.947 38.7267 124.147 38.72 124.307 38.72V40H119.447V38.94ZM125.703 38.94C126.09 38.94 126.363 38.86 126.523 38.7C126.683 38.5267 126.783 38.2867 126.823 37.98C126.863 37.6733 126.883 37.3267 126.883 36.94V33.2C126.883 32.9733 126.89 32.7267 126.903 32.46C126.917 32.18 126.937 31.8933 126.963 31.6C126.737 31.6133 126.49 31.6267 126.223 31.64C125.957 31.6533 125.737 31.6667 125.563 31.68V30.38C126.163 30.38 126.657 30.3533 127.043 30.3C127.443 30.2333 127.75 30.1533 127.963 30.06C128.19 29.9667 128.35 29.88 128.443 29.8H129.343V37.14C129.343 37.3533 129.337 37.6133 129.323 37.92C129.323 38.2133 129.303 38.5 129.263 38.78C129.477 38.7533 129.703 38.74 129.943 38.74C130.197 38.7267 130.403 38.72 130.563 38.72V40H125.703V38.94ZM128.003 28.08C127.617 28.08 127.29 27.94 127.023 27.66C126.757 27.3667 126.623 27.0133 126.623 26.6C126.623 26.1867 126.757 25.8333 127.023 25.54C127.303 25.2467 127.63 25.1 128.003 25.1C128.39 25.1 128.71 25.2467 128.963 25.54C129.23 25.8333 129.363 26.1867 129.363 26.6C129.363 27.0133 129.237 27.3667 128.983 27.66C128.73 27.94 128.403 28.08 128.003 28.08ZM135.873 40.32C135.499 40.32 135.133 40.2733 134.773 40.18C134.426 40.0867 134.106 39.9133 133.813 39.66C133.533 39.4067 133.306 39.0333 133.133 38.54C132.959 38.0333 132.873 37.3667 132.873 36.54L132.913 31.38L131.493 31.4V30C131.893 29.9867 132.279 29.8533 132.653 29.6C133.026 29.3333 133.353 28.9867 133.633 28.56C133.913 28.1333 134.099 27.68 134.193 27.2H135.413L135.393 30H138.213V31.28L135.393 31.34L135.373 36.48C135.373 36.88 135.406 37.2533 135.473 37.6C135.553 37.9333 135.686 38.2 135.873 38.4C136.073 38.6 136.339 38.7 136.673 38.7C136.926 38.7 137.213 38.62 137.533 38.46C137.866 38.3 138.199 37.98 138.533 37.5L139.353 38.24C139.019 38.7467 138.673 39.14 138.313 39.42C137.966 39.7 137.626 39.9067 137.293 40.04C136.973 40.1733 136.686 40.2533 136.433 40.28C136.179 40.3067 135.993 40.32 135.873 40.32ZM142.018 45.42C141.538 45.42 141.132 45.2867 140.798 45.02C140.465 44.7533 140.298 44.3867 140.298 43.92C140.298 43.6 140.405 43.3133 140.618 43.06C140.832 42.82 141.105 42.6933 141.438 42.68C141.732 42.6667 141.965 42.76 142.138 42.96C142.325 43.1733 142.418 43.4267 142.418 43.72C142.418 43.76 142.418 43.8 142.418 43.84C142.418 43.8933 142.412 43.9467 142.398 44C142.425 44 142.472 44 142.538 44C142.672 43.9733 142.812 43.8733 142.958 43.7C143.118 43.54 143.265 43.32 143.398 43.04C143.558 42.7333 143.725 42.3533 143.898 41.9C144.072 41.46 144.238 40.9667 144.398 40.42L141.258 33.96C140.898 33.2133 140.652 32.64 140.518 32.24C140.398 31.84 140.312 31.5067 140.258 31.24L139.338 31.28V30H144.038V31.06H143.998C143.492 31.1 143.212 31.2933 143.158 31.64C143.105 31.9733 143.192 32.3867 143.418 32.88L145.518 37.54C145.705 37.02 145.912 36.38 146.138 35.62C146.378 34.86 146.645 34.06 146.938 33.22C147.005 33.0067 147.085 32.7733 147.178 32.52C147.285 32.2533 147.392 32 147.498 31.76C147.605 31.52 147.712 31.34 147.818 31.22L146.598 31.28V30H150.018V31.06C149.578 31.18 149.225 31.4533 148.958 31.88C148.705 32.2933 148.465 32.8133 148.238 33.44L145.738 40.52C145.352 41.6133 144.992 42.52 144.658 43.24C144.325 43.9733 143.952 44.52 143.538 44.88C143.138 45.24 142.632 45.42 142.018 45.42ZM160.632 40.32C160.058 40.32 159.485 40.2467 158.912 40.1C158.352 39.9533 157.845 39.7333 157.392 39.44C156.938 39.1333 156.572 38.74 156.292 38.26C156.025 37.78 155.892 37.2067 155.892 36.54C155.892 35.6467 156.185 34.86 156.772 34.18C157.358 33.5 158.112 32.98 159.032 32.62C158.592 32.1267 158.252 31.6733 158.012 31.26C157.785 30.8467 157.632 30.4533 157.552 30.08C157.472 29.6933 157.432 29.3067 157.432 28.92C157.445 27.9333 157.798 27.1467 158.492 26.56C159.185 25.9733 160.092 25.68 161.212 25.68C161.905 25.68 162.505 25.82 163.012 26.1C163.532 26.38 163.932 26.7467 164.212 27.2C164.492 27.6533 164.632 28.1533 164.632 28.7C164.632 29.2333 164.505 29.74 164.252 30.22C163.998 30.6867 163.645 31.1267 163.192 31.54C162.738 31.94 162.218 32.3067 161.632 32.64C161.778 32.8 162.032 33.0667 162.392 33.44C162.752 33.8133 163.165 34.2267 163.632 34.68C164.098 35.1333 164.558 35.5733 165.012 36C165.065 35.8133 165.098 35.6267 165.112 35.44C165.138 35.2533 165.152 35.0733 165.152 34.9C165.152 34.5533 165.112 34.26 165.032 34.02C164.952 33.78 164.818 33.5933 164.632 33.46C164.458 33.3133 164.225 33.2333 163.932 33.22V32.16H167.352V33.42L166.052 33.36C166.172 33.52 166.258 33.72 166.312 33.96C166.378 34.1867 166.412 34.44 166.412 34.72C166.412 35.0667 166.378 35.4267 166.312 35.8C166.258 36.1733 166.165 36.54 166.032 36.9C166.112 36.9667 166.192 37.0467 166.272 37.14C166.365 37.22 166.458 37.3 166.552 37.38C167.098 37.8467 167.585 38.22 168.012 38.5C168.452 38.7667 168.792 38.9 169.032 38.9V40H166.992C166.885 40 166.638 39.8933 166.252 39.68C165.865 39.4667 165.398 39.1333 164.852 38.68C164.372 39.1733 163.778 39.5733 163.072 39.88C162.365 40.1733 161.552 40.32 160.632 40.32ZM161.152 39.04C161.765 39.0533 162.305 38.9533 162.772 38.74C163.238 38.5267 163.632 38.2467 163.952 37.9C163.805 37.7667 163.658 37.64 163.512 37.52C163.378 37.3867 163.238 37.2533 163.092 37.12C162.278 36.36 161.598 35.7067 161.052 35.16C160.505 34.6 160.018 34.0733 159.592 33.58C159.272 33.7933 159.025 34.06 158.852 34.38C158.678 34.6867 158.552 34.9933 158.472 35.3C158.405 35.6067 158.372 35.8733 158.372 36.1C158.372 36.74 158.492 37.28 158.732 37.72C158.972 38.16 159.298 38.4867 159.712 38.7C160.125 38.9133 160.605 39.0267 161.152 39.04ZM160.872 31.76C161.458 31.3467 161.898 30.8467 162.192 30.26C162.485 29.66 162.632 29.1267 162.632 28.66C162.632 28.1267 162.498 27.6867 162.232 27.34C161.965 26.9933 161.592 26.82 161.112 26.82C160.672 26.82 160.305 26.9933 160.012 27.34C159.718 27.6733 159.572 28.16 159.572 28.8C159.572 29.2667 159.698 29.7667 159.952 30.3C160.205 30.8333 160.512 31.32 160.872 31.76ZM182.04 35.06C182.04 34.4867 181.953 34.0733 181.78 33.82C181.62 33.5667 181.38 33.4133 181.06 33.36C180.753 33.3067 180.38 33.2867 179.94 33.3L179.12 33.34V37.04C179.12 37.4 179.113 37.7333 179.1 38.04C179.087 38.3333 179.067 38.5667 179.04 38.74L182.1 38.72C182.567 38.72 182.993 38.6333 183.38 38.46C183.767 38.2733 184.08 37.9667 184.32 37.54C184.56 37.1 184.68 36.5067 184.68 35.76H185.78L185.68 40H175.2V38.9C175.573 38.8867 175.86 38.8267 176.06 38.72C176.26 38.6 176.4 38.4 176.48 38.12C176.56 37.8267 176.6 37.4267 176.6 36.92V28.94C176.6 28.6067 176.607 28.2867 176.62 27.98C176.647 27.6733 176.667 27.4333 176.68 27.26C176.453 27.2733 176.193 27.2867 175.9 27.3C175.607 27.3 175.373 27.3067 175.2 27.32V26H185.06L185.18 29.76H184.08C184.08 29 183.953 28.4333 183.7 28.06C183.46 27.6733 183.147 27.4133 182.76 27.28C182.373 27.1467 181.973 27.0867 181.56 27.1L180.52 27.12C180.16 27.1333 179.88 27.1933 179.68 27.3C179.48 27.4067 179.333 27.6 179.24 27.88C179.16 28.1467 179.12 28.5467 179.12 29.08V32.14L181.92 32.16L181.82 30.42H183.14V35.06H182.04ZM195.661 30.4C195.568 29.6933 195.374 29.08 195.081 28.56C194.788 28.0267 194.394 27.62 193.901 27.34C193.421 27.0467 192.841 26.9 192.161 26.9C191.508 26.9 190.961 27.0867 190.521 27.46C190.094 27.8333 189.881 28.2933 189.881 28.84C189.881 29.2933 190.008 29.6867 190.261 30.02C190.528 30.3533 190.908 30.66 191.401 30.94C191.894 31.2067 192.481 31.4867 193.161 31.78C193.668 31.9933 194.181 32.2333 194.701 32.5C195.221 32.7533 195.701 33.06 196.141 33.42C196.581 33.78 196.934 34.2 197.201 34.68C197.481 35.1467 197.621 35.7067 197.621 36.36C197.621 37.1333 197.414 37.82 197.001 38.42C196.601 39.02 196.028 39.4867 195.281 39.82C194.534 40.1533 193.654 40.32 192.641 40.32C192.081 40.32 191.488 40.2333 190.861 40.06C190.234 39.9 189.661 39.6533 189.141 39.32L189.201 40.18H187.841L187.801 35.64H188.941C189.088 36.7733 189.508 37.6333 190.201 38.22C190.894 38.7933 191.728 39.08 192.701 39.08C193.194 39.08 193.634 38.9933 194.021 38.82C194.408 38.6333 194.708 38.3867 194.921 38.08C195.148 37.76 195.261 37.4 195.261 37C195.261 36.48 195.101 36.0533 194.781 35.72C194.461 35.3867 194.054 35.1 193.561 34.86C193.068 34.62 192.554 34.3867 192.021 34.16C191.421 33.9067 190.854 33.64 190.321 33.36C189.788 33.0667 189.314 32.74 188.901 32.38C188.501 32.0067 188.181 31.58 187.941 31.1C187.714 30.62 187.601 30.0533 187.601 29.4C187.601 29.0133 187.674 28.6067 187.821 28.18C187.968 27.74 188.208 27.3333 188.541 26.96C188.888 26.5867 189.348 26.28 189.921 26.04C190.494 25.8 191.208 25.68 192.061 25.68C192.594 25.68 193.174 25.76 193.801 25.92C194.441 26.0667 195.001 26.3133 195.481 26.66L195.401 25.82H196.781V30.4H195.661ZM205.979 40.32C204.566 40.32 203.352 40.02 202.339 39.42C201.326 38.8067 200.546 37.9667 199.999 36.9C199.452 35.82 199.179 34.6 199.179 33.24C199.179 32.32 199.319 31.4133 199.599 30.52C199.892 29.6133 200.326 28.8 200.899 28.08C201.472 27.3467 202.192 26.7667 203.059 26.34C203.939 25.9 204.959 25.68 206.119 25.68C206.519 25.68 206.952 25.72 207.419 25.8C207.886 25.88 208.346 26 208.799 26.16C209.266 26.3067 209.679 26.4867 210.039 26.7L209.959 25.82H211.359V30.46H210.259C210.152 29.6733 209.919 29.02 209.559 28.5C209.199 27.98 208.739 27.5867 208.179 27.32C207.632 27.04 207.019 26.9 206.339 26.9C205.646 26.9 205.019 27.06 204.459 27.38C203.912 27.7 203.446 28.1333 203.059 28.68C202.686 29.2267 202.399 29.8533 202.199 30.56C201.999 31.2667 201.899 32.02 201.899 32.82C201.899 33.9933 202.079 35.0467 202.439 35.98C202.812 36.9 203.339 37.6267 204.019 38.16C204.699 38.68 205.519 38.94 206.479 38.94C206.772 38.94 207.099 38.92 207.459 38.88C207.819 38.8267 208.179 38.7467 208.539 38.64C208.899 38.5333 209.219 38.4067 209.499 38.26V36.2C209.499 35.8533 209.506 35.5133 209.519 35.18C209.532 34.8467 209.546 34.5733 209.559 34.36C209.332 34.3733 209.072 34.3867 208.779 34.4C208.486 34.4 208.252 34.4067 208.079 34.42V33.1H213.139V34.2C212.859 34.2133 212.632 34.2667 212.459 34.36C212.286 34.44 212.146 34.5667 212.039 34.74C211.932 34.9 211.859 35.1 211.819 35.34C211.779 35.58 211.759 35.8533 211.759 36.16V39.3H211.259C210.939 39.3 210.586 39.3533 210.199 39.46C209.812 39.5533 209.392 39.6733 208.939 39.82C208.526 39.9533 208.066 40.0667 207.559 40.16C207.052 40.2667 206.526 40.32 205.979 40.32Z" fill="#1A1A1A"/>
<path d="M1202.62 62.3643C1200.91 63.4873 1198.01 65.1991 1194.15 66.5699C1190.98 62.8148 1188.03 58.2164 1177.01 57.8951C1166.56 57.5927 1154.01 60.4725 1148.56 61.8175C1147.12 62.1747 1146.55 63.8929 1147.47 65.0609C1151.85 70.6598 1164.33 83.4178 1179.41 83.244C1193.33 82.948 1193.91 78.0635 1193.81 75.5955C1184.58 77.3169 1174.36 74.7299 1163.99 68.6807C1167.95 70.386 1178.32 73.0922 1187.16 72.2652C1196.38 71.5702 1203.36 67.8859 1205.47 66.8788C1207.22 66.0518 1207.46 63.8702 1206.1 62.6411C1205.14 61.753 1203.71 61.6468 1202.62 62.3611L1202.62 62.3643Z" fill="#B3D370"/>
<path d="M1161.89 37.5323C1167.38 28.6352 1171.16 16.3279 1172.71 10.9415C1173.12 9.51279 1171.92 8.16459 1170.45 8.37053C1163.41 9.36156 1146.12 13.7955 1138.73 26.9399C1132.03 39.1385 1135.97 42.0858 1138.16 43.2308C1141.28 34.3823 1148.63 26.8238 1159.06 20.8616C1155.6 23.439 1148.07 31.0651 1144.36 39.1352C1140.35 47.4689 1140.06 55.3586 1139.87 57.6881C1139.71 59.622 1141.48 60.9187 1143.22 60.3556C1144.48 59.9695 1145.28 58.7821 1145.21 57.479C1145.09 55.4389 1145.06 52.0733 1145.8 48.0448C1150.64 47.1728 1156.1 46.9186 1161.89 37.5323H1161.89Z" fill="#B3D370"/>
<path d="M1207.84 19.8654C1200.62 7.96327 1196.1 9.89986 1194.01 11.2261C1200.11 18.3532 1202.99 28.4989 1202.94 40.5105C1202.43 36.2278 1199.59 25.8959 1194.45 18.6528C1189.24 11.014 1182.56 6.8084 1180.63 5.48631C1179.04 4.38267 1177.03 5.26429 1176.65 7.0565C1176.36 8.33395 1176.98 9.62424 1178.15 10.213C1179.98 11.1301 1182.91 12.784 1186.02 15.4418C1184.36 20.0689 1181.85 24.9213 1187.08 34.6323C1192.04 43.8317 1200.81 53.2593 1204.7 57.3014C1205.73 58.3729 1207.5 58.0061 1208.06 56.6257C1210.71 50.0358 1215.52 32.847 1207.83 19.87L1207.84 19.8654Z" fill="#B3D370"/>
</g>
<defs>
<linearGradient id="paint0_linear_2036_8929" x1="0" y1="0" x2="36.8718" y2="243.756" gradientUnits="userSpaceOnUse">
<stop stop-color="#F6FFE3"/>
<stop offset="1" stop-color="#CBE593"/>
</linearGradient>
<clipPath id="clip0_2036_8929">
<rect width="1212" height="66" rx="8" fill="white"/>
</clipPath>
</defs>
</svg>
