<svg width="1212" height="66" viewBox="0 0 1212 66" fill="none" xmlns="http://www.w3.org/2000/svg">
<g clip-path="url(#clip0_2036_8864)">
<rect width="1212" height="66" rx="8" fill="url(#paint0_linear_2036_8864)"/>
<ellipse cx="1193.5" cy="33" rx="75.5" ry="75" fill="white" fill-opacity="0.45"/>
<path d="M1192.5 -60C1242.99 -60 1284 -18.6257 1284 32.5C1284 83.6257 1242.99 125 1192.5 125C1142.01 125 1101 83.6257 1101 32.5C1101 -18.6257 1142.01 -60 1192.5 -60Z" stroke="white" stroke-opacity="0.47" stroke-width="8"/>
<path d="M1192.5 -83.5C1255.99 -83.5 1307.5 -31.5928 1307.5 32.5C1307.5 96.5928 1255.99 148.5 1192.5 148.5C1129.01 148.5 1077.5 96.5928 1077.5 32.5C1077.5 -31.5928 1129.01 -83.5 1192.5 -83.5Z" stroke="white" stroke-opacity="0.34" stroke-width="7"/>
<path d="M1192.5 -108.5C1269.81 -108.5 1332.5 -45.3821 1332.5 32.5C1332.5 110.382 1269.81 173.5 1192.5 173.5C1115.19 173.5 1052.5 110.382 1052.5 32.5C1052.5 -45.3821 1115.19 -108.5 1192.5 -108.5Z" stroke="white" stroke-opacity="0.2" stroke-width="3"/>
<path d="M31.42 30.42C31.42 29.6733 31.3267 29.06 31.14 28.58C30.9533 28.0867 30.6733 27.72 30.3 27.48C29.94 27.24 29.48 27.1267 28.92 27.14H27.7V37.02C27.7 37.38 27.6933 37.7133 27.68 38.02C27.6667 38.3267 27.6467 38.5667 27.62 38.74C27.8733 38.7267 28.16 38.7133 28.48 38.7C28.8133 38.6867 29.0667 38.68 29.24 38.68V40H23.78V38.9C24.1533 38.8867 24.44 38.82 24.64 38.7C24.84 38.58 24.98 38.38 25.06 38.1C25.14 37.82 25.18 37.4267 25.18 36.92L25.2 27.16H23.9C23.1133 27.1733 22.5133 27.44 22.1 27.96C21.6867 28.48 21.48 29.3 21.48 30.42H20.36L20.46 26H32.44L32.56 30.42H31.42ZM37.5731 40.32C36.6131 40.32 35.7598 40.1067 35.0131 39.68C34.2665 39.24 33.6865 38.6267 33.2731 37.84C32.8598 37.04 32.6531 36.1 32.6531 35.02C32.6531 34.0867 32.8598 33.2133 33.2731 32.4C33.6865 31.5867 34.2665 30.9333 35.0131 30.44C35.7731 29.9333 36.6531 29.68 37.6531 29.68C38.2131 29.68 38.7531 29.76 39.2731 29.92C39.7931 30.08 40.2598 30.3467 40.6731 30.72C41.0865 31.0933 41.4131 31.5867 41.6531 32.2C41.9065 32.8133 42.0265 33.56 42.0131 34.44L35.2931 34.56C35.2931 35.3867 35.3865 36.12 35.5731 36.76C35.7731 37.3867 36.0931 37.8867 36.5331 38.26C36.9731 38.62 37.5531 38.8 38.2731 38.8C38.5931 38.8 38.9331 38.7467 39.2931 38.64C39.6665 38.52 40.0331 38.3467 40.3931 38.12C40.7531 37.88 41.0731 37.5867 41.3531 37.24L42.1131 37.94C41.6731 38.58 41.1865 39.0733 40.6531 39.42C40.1198 39.7667 39.5865 40 39.0531 40.12C38.5198 40.2533 38.0265 40.32 37.5731 40.32ZM35.3931 33.36H39.5531C39.5398 32.8267 39.4598 32.38 39.3131 32.02C39.1798 31.6467 38.9798 31.3667 38.7131 31.18C38.4465 30.98 38.1198 30.88 37.7331 30.88C37.0798 30.88 36.5531 31.1 36.1531 31.54C35.7665 31.9667 35.5131 32.5733 35.3931 33.36ZM48.3153 40.32C47.422 40.32 46.5953 40.12 45.8353 39.72C45.0886 39.32 44.4886 38.74 44.0353 37.98C43.5953 37.2067 43.3753 36.28 43.3753 35.2C43.3753 34.4667 43.502 33.7733 43.7553 33.12C44.0086 32.4533 44.362 31.8667 44.8153 31.36C45.282 30.84 45.8353 30.4333 46.4753 30.14C47.1153 29.8333 47.822 29.68 48.5953 29.68C49.4086 29.68 50.0953 29.8067 50.6553 30.06C51.2153 30.3 51.642 30.6267 51.9353 31.04C52.2286 31.44 52.3753 31.8667 52.3753 32.32C52.3753 32.68 52.2686 32.9933 52.0553 33.26C51.8553 33.5267 51.562 33.6667 51.1753 33.68C50.722 33.6933 50.402 33.5667 50.2153 33.3C50.042 33.02 49.9553 32.76 49.9553 32.52C49.9553 32.3867 49.9753 32.2467 50.0153 32.1C50.0553 31.94 50.122 31.7933 50.2153 31.66C50.122 31.42 49.9686 31.2467 49.7553 31.14C49.542 31.02 49.322 30.94 49.0953 30.9C48.8686 30.86 48.6886 30.8467 48.5553 30.86C47.822 30.8867 47.2153 31.22 46.7353 31.86C46.2553 32.5 46.0153 33.4333 46.0153 34.66C46.0153 35.3933 46.1153 36.0733 46.3153 36.7C46.5286 37.3133 46.8486 37.8133 47.2753 38.2C47.702 38.5733 48.2486 38.7667 48.9153 38.78C49.502 38.7933 50.0686 38.6533 50.6153 38.36C51.162 38.0533 51.6086 37.66 51.9553 37.18L52.7553 37.92C52.3153 38.5467 51.842 39.0333 51.3353 39.38C50.8286 39.7267 50.3153 39.9667 49.7953 40.1C49.2886 40.2467 48.7953 40.32 48.3153 40.32ZM60.1241 38.94C60.5107 38.94 60.7841 38.86 60.9441 38.7C61.1041 38.5267 61.2041 38.2867 61.2441 37.98C61.2841 37.6733 61.3041 37.3267 61.3041 36.94V34.1C61.2907 33.14 61.1374 32.4267 60.8441 31.96C60.5507 31.4933 60.0907 31.26 59.4641 31.26C59.0774 31.26 58.6907 31.3467 58.3041 31.52C57.9307 31.6933 57.6241 31.9067 57.3841 32.16V37.14C57.3841 37.3533 57.3774 37.6133 57.3641 37.92C57.3507 38.2133 57.3241 38.5 57.2841 38.78C57.5107 38.7533 57.7441 38.74 57.9841 38.74C58.2241 38.7267 58.4241 38.72 58.5841 38.72V40H53.7241V38.94C54.1107 38.94 54.3841 38.86 54.5441 38.7C54.7174 38.5267 54.8174 38.2867 54.8441 37.98C54.8841 37.6733 54.9041 37.3267 54.9041 36.94V28.3C54.9041 28.0733 54.9107 27.8267 54.9241 27.56C54.9374 27.28 54.9574 26.9933 54.9841 26.7C54.7574 26.7133 54.5107 26.7267 54.2441 26.74C53.9774 26.7533 53.7574 26.7667 53.5841 26.78V25.48C54.1974 25.48 54.6974 25.4533 55.0841 25.4C55.4707 25.3333 55.7707 25.2533 55.9841 25.16C56.2107 25.0667 56.3707 24.98 56.4641 24.9H57.3841V30.86C57.6507 30.6333 57.9574 30.4333 58.3041 30.26C58.6641 30.0867 59.0307 29.9467 59.4041 29.84C59.7774 29.7333 60.1174 29.68 60.4241 29.68C61.6241 29.68 62.4774 30.0333 62.9841 30.74C63.5041 31.4467 63.7641 32.5733 63.7641 34.12L63.7841 37.14C63.7841 37.3533 63.7774 37.6133 63.7641 37.92C63.7507 38.2133 63.7307 38.5 63.7041 38.78C63.9174 38.7533 64.1374 38.74 64.3641 38.74C64.6041 38.7267 64.8107 38.72 64.9841 38.72V40H60.1241V38.94ZM75.9831 40.32C75.4098 40.32 74.8365 40.2467 74.2631 40.1C73.7031 39.9533 73.1965 39.7333 72.7431 39.44C72.2898 39.1333 71.9231 38.74 71.6431 38.26C71.3765 37.78 71.2431 37.2067 71.2431 36.54C71.2431 35.6467 71.5365 34.86 72.1231 34.18C72.7098 33.5 73.4631 32.98 74.3831 32.62C73.9431 32.1267 73.6031 31.6733 73.3631 31.26C73.1365 30.8467 72.9831 30.4533 72.9031 30.08C72.8231 29.6933 72.7831 29.3067 72.7831 28.92C72.7965 27.9333 73.1498 27.1467 73.8431 26.56C74.5365 25.9733 75.4431 25.68 76.5631 25.68C77.2565 25.68 77.8565 25.82 78.3631 26.1C78.8831 26.38 79.2831 26.7467 79.5631 27.2C79.8431 27.6533 79.9831 28.1533 79.9831 28.7C79.9831 29.2333 79.8565 29.74 79.6031 30.22C79.3498 30.6867 78.9965 31.1267 78.5431 31.54C78.0898 31.94 77.5698 32.3067 76.9831 32.64C77.1298 32.8 77.3831 33.0667 77.7431 33.44C78.1031 33.8133 78.5165 34.2267 78.9831 34.68C79.4498 35.1333 79.9098 35.5733 80.3631 36C80.4165 35.8133 80.4498 35.6267 80.4631 35.44C80.4898 35.2533 80.5031 35.0733 80.5031 34.9C80.5031 34.5533 80.4631 34.26 80.3831 34.02C80.3031 33.78 80.1698 33.5933 79.9831 33.46C79.8098 33.3133 79.5765 33.2333 79.2831 33.22V32.16H82.7031V33.42L81.4031 33.36C81.5231 33.52 81.6098 33.72 81.6631 33.96C81.7298 34.1867 81.7631 34.44 81.7631 34.72C81.7631 35.0667 81.7298 35.4267 81.6631 35.8C81.6098 36.1733 81.5165 36.54 81.3831 36.9C81.4631 36.9667 81.5431 37.0467 81.6231 37.14C81.7165 37.22 81.8098 37.3 81.9031 37.38C82.4498 37.8467 82.9365 38.22 83.3631 38.5C83.8031 38.7667 84.1431 38.9 84.3831 38.9V40H82.3431C82.2365 40 81.9898 39.8933 81.6031 39.68C81.2165 39.4667 80.7498 39.1333 80.2031 38.68C79.7231 39.1733 79.1298 39.5733 78.4231 39.88C77.7165 40.1733 76.9031 40.32 75.9831 40.32ZM76.5031 39.04C77.1165 39.0533 77.6565 38.9533 78.1231 38.74C78.5898 38.5267 78.9831 38.2467 79.3031 37.9C79.1565 37.7667 79.0098 37.64 78.8631 37.52C78.7298 37.3867 78.5898 37.2533 78.4431 37.12C77.6298 36.36 76.9498 35.7067 76.4031 35.16C75.8565 34.6 75.3698 34.0733 74.9431 33.58C74.6231 33.7933 74.3765 34.06 74.2031 34.38C74.0298 34.6867 73.9031 34.9933 73.8231 35.3C73.7565 35.6067 73.7231 35.8733 73.7231 36.1C73.7231 36.74 73.8431 37.28 74.0831 37.72C74.3231 38.16 74.6498 38.4867 75.0631 38.7C75.4765 38.9133 75.9565 39.0267 76.5031 39.04ZM76.2231 31.76C76.8098 31.3467 77.2498 30.8467 77.5431 30.26C77.8365 29.66 77.9831 29.1267 77.9831 28.66C77.9831 28.1267 77.8498 27.6867 77.5831 27.34C77.3165 26.9933 76.9431 26.82 76.4631 26.82C76.0231 26.82 75.6565 26.9933 75.3631 27.34C75.0698 27.6733 74.9231 28.16 74.9231 28.8C74.9231 29.2667 75.0498 29.7667 75.3031 30.3C75.5565 30.8333 75.8631 31.32 76.2231 31.76ZM95.8717 27.1C95.5117 27.1133 95.2251 27.18 95.0117 27.3C94.8117 27.4067 94.6717 27.6 94.5917 27.88C94.5117 28.16 94.4717 28.56 94.4717 29.08V37.02C94.4717 37.38 94.4651 37.7133 94.4517 38.02C94.4384 38.3267 94.4184 38.5667 94.3917 38.74C94.6184 38.7267 94.8784 38.7133 95.1717 38.7C95.4651 38.6867 95.6984 38.68 95.8717 38.68V40H90.5517V38.9C90.9251 38.8867 91.2117 38.8267 91.4117 38.72C91.6117 38.6 91.7517 38.4 91.8317 38.12C91.9117 37.8267 91.9517 37.4267 91.9517 36.92V28.94C91.9517 28.6067 91.9584 28.2867 91.9717 27.98C91.9984 27.6733 92.0184 27.4333 92.0317 27.26C91.8051 27.2733 91.5451 27.2867 91.2517 27.3C90.9584 27.3 90.7251 27.3067 90.5517 27.32V26H95.8717V27.1ZM97.5588 40V38.94C97.9454 38.94 98.2188 38.86 98.3788 38.7C98.5388 38.5267 98.6388 38.2867 98.6788 37.98C98.7188 37.6733 98.7388 37.3267 98.7388 36.94V33.18C98.7388 32.94 98.7454 32.6867 98.7588 32.42C98.7721 32.1533 98.7921 31.88 98.8188 31.6C98.6054 31.6133 98.3588 31.6267 98.0788 31.64C97.8121 31.6533 97.5921 31.6667 97.4188 31.68V30.38C98.0188 30.38 98.5121 30.3533 98.8988 30.3C99.2854 30.2333 99.5854 30.1533 99.7988 30.06C100.012 29.9667 100.165 29.88 100.259 29.8H101.099C101.125 29.9467 101.139 30.0667 101.139 30.16C101.139 30.2533 101.145 30.3533 101.159 30.46C101.172 30.5533 101.192 30.6933 101.219 30.88C101.485 30.6533 101.792 30.4533 102.139 30.28C102.499 30.0933 102.859 29.9467 103.219 29.84C103.579 29.7333 103.912 29.68 104.219 29.68C105.419 29.68 106.279 30.0333 106.799 30.74C107.319 31.4467 107.579 32.5733 107.579 34.12V37.14C107.579 37.3533 107.572 37.6133 107.559 37.92C107.559 38.2133 107.539 38.5 107.499 38.78C107.725 38.7533 107.959 38.74 108.199 38.74C108.439 38.7267 108.639 38.72 108.799 38.72V40H103.939V38.94C104.325 38.94 104.599 38.86 104.759 38.7C104.932 38.5267 105.039 38.2867 105.079 37.98C105.119 37.6733 105.139 37.3267 105.139 36.94L105.119 34.1C105.119 33.14 104.972 32.4267 104.679 31.96C104.399 31.48 103.932 31.24 103.279 31.24C102.892 31.2533 102.512 31.3467 102.139 31.52C101.765 31.6933 101.452 31.9133 101.199 32.18C101.212 32.34 101.219 32.5067 101.219 32.68C101.219 32.8533 101.219 33.0267 101.219 33.2L101.199 37.14C101.199 37.3533 101.192 37.6133 101.179 37.92C101.179 38.2133 101.159 38.5 101.119 38.78C101.332 38.7533 101.559 38.74 101.799 38.74C102.052 38.7267 102.259 38.72 102.419 38.72V40H97.5588ZM110.117 40V38.94C110.504 38.94 110.777 38.86 110.937 38.7C111.097 38.5267 111.197 38.2867 111.237 37.98C111.277 37.6733 111.297 37.3267 111.297 36.94V33.18C111.297 32.94 111.304 32.6867 111.317 32.42C111.331 32.1533 111.351 31.88 111.377 31.6C111.164 31.6133 110.917 31.6267 110.637 31.64C110.371 31.6533 110.151 31.6667 109.977 31.68V30.38C110.577 30.38 111.071 30.3533 111.457 30.3C111.844 30.2333 112.144 30.1533 112.357 30.06C112.571 29.9667 112.724 29.88 112.817 29.8H113.657C113.684 29.9467 113.697 30.0667 113.697 30.16C113.697 30.2533 113.704 30.3533 113.717 30.46C113.731 30.5533 113.751 30.6933 113.777 30.88C114.044 30.6533 114.351 30.4533 114.697 30.28C115.057 30.0933 115.417 29.9467 115.777 29.84C116.137 29.7333 116.471 29.68 116.777 29.68C117.977 29.68 118.837 30.0333 119.357 30.74C119.877 31.4467 120.137 32.5733 120.137 34.12V37.14C120.137 37.3533 120.131 37.6133 120.117 37.92C120.117 38.2133 120.097 38.5 120.057 38.78C120.284 38.7533 120.517 38.74 120.757 38.74C120.997 38.7267 121.197 38.72 121.357 38.72V40H116.497V38.94C116.884 38.94 117.157 38.86 117.317 38.7C117.491 38.5267 117.597 38.2867 117.637 37.98C117.677 37.6733 117.697 37.3267 117.697 36.94L117.677 34.1C117.677 33.14 117.531 32.4267 117.237 31.96C116.957 31.48 116.491 31.24 115.837 31.24C115.451 31.2533 115.071 31.3467 114.697 31.52C114.324 31.6933 114.011 31.9133 113.757 32.18C113.771 32.34 113.777 32.5067 113.777 32.68C113.777 32.8533 113.777 33.0267 113.777 33.2L113.757 37.14C113.757 37.3533 113.751 37.6133 113.737 37.92C113.737 38.2133 113.717 38.5 113.677 38.78C113.891 38.7533 114.117 38.74 114.357 38.74C114.611 38.7267 114.817 38.72 114.977 38.72V40H110.117ZM127.596 40.32C126.649 40.32 125.789 40.1133 125.016 39.7C124.243 39.2733 123.629 38.68 123.176 37.92C122.736 37.1467 122.516 36.2467 122.516 35.22C122.516 34.14 122.743 33.18 123.196 32.34C123.649 31.5 124.256 30.8467 125.016 30.38C125.789 29.9133 126.636 29.68 127.556 29.68C128.503 29.68 129.356 29.8933 130.116 30.32C130.876 30.7467 131.476 31.34 131.916 32.1C132.369 32.86 132.596 33.76 132.596 34.8C132.596 35.8933 132.376 36.86 131.936 37.7C131.509 38.5267 130.916 39.1733 130.156 39.64C129.409 40.0933 128.556 40.32 127.596 40.32ZM127.696 39.1C128.296 39.1 128.756 38.9133 129.076 38.54C129.396 38.1667 129.616 37.6933 129.736 37.12C129.869 36.5333 129.936 35.9333 129.936 35.32C129.936 34.8 129.889 34.2733 129.796 33.74C129.716 33.2067 129.583 32.7267 129.396 32.3C129.209 31.86 128.963 31.5133 128.656 31.26C128.349 30.9933 127.976 30.86 127.536 30.86C126.949 30.8733 126.483 31.0667 126.136 31.44C125.789 31.8133 125.536 32.2867 125.376 32.86C125.229 33.4333 125.156 34.04 125.156 34.68C125.156 35.4 125.243 36.1067 125.416 36.8C125.589 37.48 125.863 38.04 126.236 38.48C126.609 38.9067 127.096 39.1133 127.696 39.1ZM137.744 40.06L134.684 33.26C134.524 32.8733 134.404 32.56 134.324 32.32C134.244 32.08 134.184 31.88 134.144 31.72C134.117 31.56 134.091 31.4 134.064 31.24L133.284 31.28V30H137.624V31.06C137.304 31.06 137.091 31.1467 136.984 31.32C136.891 31.48 136.864 31.7 136.904 31.98C136.957 32.2467 137.044 32.5333 137.164 32.84L138.364 35.72C138.471 35.96 138.577 36.2133 138.684 36.48C138.791 36.7333 138.891 36.9933 138.984 37.26H139.004C139.097 37.0067 139.191 36.7533 139.284 36.5C139.391 36.2333 139.484 35.9667 139.564 35.7L140.664 32.62C140.784 32.2867 140.897 32.0133 141.004 31.8C141.111 31.5867 141.211 31.3933 141.304 31.22L140.064 31.28V30H143.644V31.06C143.337 31.0867 143.071 31.2333 142.844 31.5C142.617 31.7533 142.417 32.0667 142.244 32.44C142.071 32.8 141.911 33.1733 141.764 33.56L139.184 40.06H137.744ZM150.174 40C150.134 39.8 150.107 39.6333 150.094 39.5C150.094 39.3533 150.087 39.1867 150.074 39C149.62 39.4533 149.134 39.7867 148.614 40C148.107 40.2133 147.58 40.32 147.034 40.32C146.127 40.32 145.427 40.0733 144.934 39.58C144.454 39.0867 144.214 38.48 144.214 37.76C144.214 37.12 144.387 36.58 144.734 36.14C145.08 35.6867 145.534 35.32 146.094 35.04C146.654 34.7467 147.274 34.5267 147.954 34.38C148.634 34.22 149.307 34.1333 149.974 34.12V33.02C149.974 32.6333 149.927 32.28 149.834 31.96C149.754 31.6267 149.6 31.3667 149.374 31.18C149.147 30.98 148.814 30.88 148.374 30.88C148.08 30.8933 147.78 30.96 147.474 31.08C147.18 31.1867 146.947 31.36 146.774 31.6C146.88 31.72 146.947 31.8533 146.974 32C147 32.1333 147.014 32.2533 147.014 32.36C147.014 32.6 146.92 32.8533 146.734 33.12C146.547 33.3733 146.247 33.4933 145.834 33.48C145.474 33.4667 145.194 33.34 144.994 33.1C144.807 32.86 144.714 32.5733 144.714 32.24C144.714 31.7333 144.894 31.2933 145.254 30.92C145.627 30.5333 146.127 30.2333 146.754 30.02C147.38 29.7933 148.08 29.68 148.854 29.68C150 29.68 150.88 29.98 151.494 30.58C152.107 31.18 152.407 32.14 152.394 33.46C152.394 33.9267 152.394 34.3533 152.394 34.74C152.394 35.1133 152.387 35.4933 152.374 35.88C152.374 36.2533 152.374 36.6733 152.374 37.14C152.374 37.34 152.367 37.5933 152.354 37.9C152.34 38.1933 152.32 38.4867 152.294 38.78C152.534 38.7533 152.774 38.74 153.014 38.74C153.267 38.7267 153.474 38.7133 153.634 38.7V40H150.174ZM149.954 35.3C149.554 35.3267 149.16 35.3933 148.774 35.5C148.387 35.5933 148.04 35.7267 147.734 35.9C147.427 36.0733 147.18 36.2933 146.994 36.56C146.82 36.8133 146.74 37.1067 146.754 37.44C146.767 37.8533 146.9 38.16 147.154 38.36C147.407 38.5467 147.7 38.64 148.034 38.64C148.42 38.64 148.767 38.56 149.074 38.4C149.394 38.24 149.687 38.0267 149.954 37.76C149.954 37.6267 149.954 37.4867 149.954 37.34C149.954 37.1933 149.954 37.0467 149.954 36.9C149.954 36.7133 149.954 36.48 149.954 36.2C149.954 35.92 149.954 35.62 149.954 35.3ZM158.666 40.32C158.292 40.32 157.926 40.2733 157.566 40.18C157.219 40.0867 156.899 39.9133 156.606 39.66C156.326 39.4067 156.099 39.0333 155.926 38.54C155.752 38.0333 155.666 37.3667 155.666 36.54L155.706 31.38L154.286 31.4V30C154.686 29.9867 155.072 29.8533 155.446 29.6C155.819 29.3333 156.146 28.9867 156.426 28.56C156.706 28.1333 156.892 27.68 156.986 27.2H158.206L158.186 30H161.006V31.28L158.186 31.34L158.166 36.48C158.166 36.88 158.199 37.2533 158.266 37.6C158.346 37.9333 158.479 38.2 158.666 38.4C158.866 38.6 159.132 38.7 159.466 38.7C159.719 38.7 160.006 38.62 160.326 38.46C160.659 38.3 160.992 37.98 161.326 37.5L162.146 38.24C161.812 38.7467 161.466 39.14 161.106 39.42C160.759 39.7 160.419 39.9067 160.086 40.04C159.766 40.1733 159.479 40.2533 159.226 40.28C158.972 40.3067 158.786 40.32 158.666 40.32ZM162.852 38.94C163.238 38.94 163.512 38.86 163.672 38.7C163.832 38.5267 163.932 38.2867 163.972 37.98C164.012 37.6733 164.032 37.3267 164.032 36.94V33.2C164.032 32.9733 164.038 32.7267 164.052 32.46C164.065 32.18 164.085 31.8933 164.112 31.6C163.885 31.6133 163.638 31.6267 163.372 31.64C163.105 31.6533 162.885 31.6667 162.712 31.68V30.38C163.312 30.38 163.805 30.3533 164.192 30.3C164.592 30.2333 164.898 30.1533 165.112 30.06C165.338 29.9667 165.498 29.88 165.592 29.8H166.492V37.14C166.492 37.3533 166.485 37.6133 166.472 37.92C166.472 38.2133 166.452 38.5 166.412 38.78C166.625 38.7533 166.852 38.74 167.092 38.74C167.345 38.7267 167.552 38.72 167.712 38.72V40H162.852V38.94ZM165.152 28.08C164.765 28.08 164.438 27.94 164.172 27.66C163.905 27.3667 163.772 27.0133 163.772 26.6C163.772 26.1867 163.905 25.8333 164.172 25.54C164.452 25.2467 164.778 25.1 165.152 25.1C165.538 25.1 165.858 25.2467 166.112 25.54C166.378 25.8333 166.512 26.1867 166.512 26.6C166.512 27.0133 166.385 27.3667 166.132 27.66C165.878 27.94 165.552 28.08 165.152 28.08ZM174.002 40.32C173.056 40.32 172.196 40.1133 171.422 39.7C170.649 39.2733 170.036 38.68 169.582 37.92C169.142 37.1467 168.922 36.2467 168.922 35.22C168.922 34.14 169.149 33.18 169.602 32.34C170.056 31.5 170.662 30.8467 171.422 30.38C172.196 29.9133 173.042 29.68 173.962 29.68C174.909 29.68 175.762 29.8933 176.522 30.32C177.282 30.7467 177.882 31.34 178.322 32.1C178.776 32.86 179.002 33.76 179.002 34.8C179.002 35.8933 178.782 36.86 178.342 37.7C177.916 38.5267 177.322 39.1733 176.562 39.64C175.816 40.0933 174.962 40.32 174.002 40.32ZM174.102 39.1C174.702 39.1 175.162 38.9133 175.482 38.54C175.802 38.1667 176.022 37.6933 176.142 37.12C176.276 36.5333 176.342 35.9333 176.342 35.32C176.342 34.8 176.296 34.2733 176.202 33.74C176.122 33.2067 175.989 32.7267 175.802 32.3C175.616 31.86 175.369 31.5133 175.062 31.26C174.756 30.9933 174.382 30.86 173.942 30.86C173.356 30.8733 172.889 31.0667 172.542 31.44C172.196 31.8133 171.942 32.2867 171.782 32.86C171.636 33.4333 171.562 34.04 171.562 34.68C171.562 35.4 171.649 36.1067 171.822 36.8C171.996 37.48 172.269 38.04 172.642 38.48C173.016 38.9067 173.502 39.1133 174.102 39.1ZM180.528 40V38.94C180.914 38.94 181.188 38.86 181.348 38.7C181.508 38.5267 181.608 38.2867 181.648 37.98C181.688 37.6733 181.708 37.3267 181.708 36.94V33.18C181.708 32.94 181.714 32.6867 181.728 32.42C181.741 32.1533 181.761 31.88 181.788 31.6C181.574 31.6133 181.328 31.6267 181.048 31.64C180.781 31.6533 180.561 31.6667 180.388 31.68V30.38C180.988 30.38 181.481 30.3533 181.868 30.3C182.254 30.2333 182.554 30.1533 182.768 30.06C182.981 29.9667 183.134 29.88 183.228 29.8H184.068C184.094 29.9467 184.108 30.0667 184.108 30.16C184.108 30.2533 184.114 30.3533 184.128 30.46C184.141 30.5533 184.161 30.6933 184.188 30.88C184.454 30.6533 184.761 30.4533 185.108 30.28C185.468 30.0933 185.828 29.9467 186.188 29.84C186.548 29.7333 186.881 29.68 187.188 29.68C188.388 29.68 189.248 30.0333 189.768 30.74C190.288 31.4467 190.548 32.5733 190.548 34.12V37.14C190.548 37.3533 190.541 37.6133 190.528 37.92C190.528 38.2133 190.508 38.5 190.468 38.78C190.694 38.7533 190.928 38.74 191.168 38.74C191.408 38.7267 191.608 38.72 191.768 38.72V40H186.908V38.94C187.294 38.94 187.568 38.86 187.728 38.7C187.901 38.5267 188.008 38.2867 188.048 37.98C188.088 37.6733 188.108 37.3267 188.108 36.94L188.088 34.1C188.088 33.14 187.941 32.4267 187.648 31.96C187.368 31.48 186.901 31.24 186.248 31.24C185.861 31.2533 185.481 31.3467 185.108 31.52C184.734 31.6933 184.421 31.9133 184.168 32.18C184.181 32.34 184.188 32.5067 184.188 32.68C184.188 32.8533 184.188 33.0267 184.188 33.2L184.168 37.14C184.168 37.3533 184.161 37.6133 184.148 37.92C184.148 38.2133 184.128 38.5 184.088 38.78C184.301 38.7533 184.528 38.74 184.768 38.74C185.021 38.7267 185.228 38.72 185.388 38.72V40H180.528ZM197.526 40.32C196.913 40.32 196.339 40.24 195.806 40.08C195.273 39.92 194.846 39.7267 194.526 39.5L194.586 40.14H193.286L193.186 36.7H194.266C194.306 37.1533 194.466 37.5667 194.746 37.94C195.026 38.3 195.386 38.5867 195.826 38.8C196.279 39 196.779 39.1 197.326 39.1C197.593 39.1 197.846 39.06 198.086 38.98C198.339 38.9 198.546 38.7733 198.706 38.6C198.879 38.4133 198.966 38.18 198.966 37.9C198.966 37.6067 198.866 37.3667 198.666 37.18C198.479 36.9933 198.213 36.82 197.866 36.66C197.519 36.5 197.113 36.3333 196.646 36.16C196.233 36 195.819 35.8333 195.406 35.66C194.993 35.4867 194.613 35.28 194.266 35.04C193.919 34.7867 193.639 34.48 193.426 34.12C193.213 33.76 193.106 33.32 193.106 32.8C193.106 32.44 193.173 32.08 193.306 31.72C193.439 31.36 193.653 31.0267 193.946 30.72C194.239 30.4 194.613 30.1467 195.066 29.96C195.533 29.7733 196.099 29.68 196.766 29.68C197.126 29.68 197.533 29.74 197.986 29.86C198.439 29.9667 198.839 30.1533 199.186 30.42L199.166 29.78H200.466V33.3H199.386C199.319 32.8333 199.173 32.42 198.946 32.06C198.719 31.6867 198.419 31.3933 198.046 31.18C197.673 30.9667 197.226 30.86 196.706 30.86C196.279 30.86 195.919 30.9667 195.626 31.18C195.333 31.38 195.186 31.68 195.186 32.08C195.186 32.4133 195.299 32.6867 195.526 32.9C195.753 33.1133 196.059 33.2933 196.446 33.44C196.833 33.5867 197.253 33.7467 197.706 33.92C198.333 34.1333 198.899 34.3867 199.406 34.68C199.926 34.9733 200.339 35.3267 200.646 35.74C200.953 36.1533 201.106 36.6667 201.106 37.28C201.106 37.9733 200.933 38.5467 200.586 39C200.239 39.44 199.793 39.7733 199.246 40C198.699 40.2133 198.126 40.32 197.526 40.32Z" fill="#1A1A1A"/>
<mask id="mask0_2036_8864" style="mask-type:luminance" maskUnits="userSpaceOnUse" x="1133" y="2" width="87" height="97">
<path d="M1133 2.08594H1219.4V98.3636H1133V2.08594Z" fill="white"/>
</mask>
<g mask="url(#mask0_2036_8864)">
<path d="M811.898 178.055L838.369 191.486C839.312 191.96 839.69 193.109 839.213 194.052C839.023 194.431 838.722 194.719 838.369 194.896L828.765 199.769L837.43 204.164C838.369 204.642 838.748 205.791 838.274 206.73C838.085 207.108 837.783 207.397 837.43 207.573L827.831 212.446L836.492 216.837C837.435 217.315 837.814 218.465 837.336 219.403C837.146 219.782 836.845 220.07 836.492 220.247L810.022 233.682C809.458 233.966 808.82 233.945 808.3 233.682L781.825 220.247C780.886 219.773 780.508 218.624 780.981 217.685C781.171 217.307 781.472 217.014 781.825 216.837L791.429 211.969L782.763 207.573C781.825 207.1 781.446 205.95 781.92 205.008C782.109 204.629 782.41 204.34 782.763 204.164L792.372 199.291L783.706 194.896C782.763 194.422 782.384 193.268 782.862 192.33C783.052 191.951 783.353 191.663 783.706 191.486L810.177 178.055C810.74 177.771 811.378 177.793 811.898 178.055ZM996.021 158.111C998.22 158.111 1000.21 159.002 1001.66 160.448C1003.11 161.899 1004 163.892 1004 166.088C1004 168.287 1003.11 170.281 1001.66 171.727L1001.55 171.839L1007.83 182.722H1020.41L1020.45 182.571C1020.98 180.604 1022.25 178.834 1024.16 177.737C1026.08 176.63 1028.25 176.406 1030.21 176.932C1032.18 177.461 1033.95 178.744 1035.05 180.647C1036.15 182.562 1036.38 184.736 1035.85 186.699C1035.33 188.649 1034.06 190.406 1032.18 191.512L1032.13 191.538C1030.22 192.64 1028.05 192.864 1026.09 192.339L1025.93 192.296L1019.64 203.182L1025.93 214.074L1026.09 214.031C1028.05 213.505 1030.22 213.729 1032.13 214.831C1034.04 215.933 1035.32 217.703 1035.85 219.67C1036.38 221.637 1036.15 223.816 1035.05 225.723L1034.98 225.843C1033.87 227.681 1032.13 228.921 1030.21 229.433C1028.29 229.95 1026.18 229.748 1024.31 228.719L1024.03 228.559C1022.2 227.453 1020.96 225.718 1020.45 223.794L1020.41 223.639L1007.84 223.643L1001.55 234.53L1001.66 234.642C1003.11 236.089 1004 238.082 1004 240.282C1004 242.477 1003.11 244.47 1001.66 245.917C1000.21 247.363 998.22 248.258 996.021 248.258C993.825 248.258 991.836 247.363 990.39 245.921C988.939 244.47 988.044 242.477 988.044 240.282C988.044 238.082 988.939 236.089 990.381 234.642L990.497 234.53L984.212 223.648H971.638L971.599 223.794C971.07 225.766 969.791 227.535 967.884 228.637L967.833 228.663C965.938 229.739 963.786 229.959 961.832 229.433C959.869 228.908 958.099 227.63 956.993 225.718C955.891 223.816 955.667 221.637 956.192 219.67C956.722 217.707 958.005 215.933 959.916 214.831C961.823 213.729 963.993 213.505 965.96 214.031L966.115 214.074L972.404 203.182L966.115 192.296L965.96 192.339C964.053 192.847 961.952 192.653 960.088 191.633C959.968 191.581 959.847 191.512 959.739 191.435C957.923 190.324 956.704 188.602 956.192 186.699C955.684 184.792 955.882 182.691 956.898 180.827C956.95 180.707 957.019 180.591 957.101 180.479C958.207 178.662 959.929 177.444 961.832 176.932C963.739 176.424 965.839 176.622 967.703 177.638C967.828 177.694 967.944 177.758 968.056 177.84C969.869 178.951 971.091 180.668 971.599 182.575L971.634 182.722H984.217L990.497 171.839L990.381 171.727C988.939 170.281 988.044 168.287 988.044 166.088C988.044 163.892 988.939 161.899 990.381 160.453C991.836 159.002 993.825 158.111 996.021 158.111ZM1010.04 186.553L1017.44 199.373L1022.62 190.393L1022.51 190.277C1022.31 190.079 1022.12 189.863 1021.94 189.631L1021.92 189.614L1021.88 189.562L1021.87 189.553L1021.86 189.536L1021.84 189.51L1021.82 189.484L1021.8 189.459L1021.78 189.433L1021.76 189.407L1021.75 189.39L1021.74 189.377L1021.72 189.351L1021.7 189.325L1021.69 189.308L1021.69 189.299L1021.66 189.269C1021.52 189.067 1021.38 188.847 1021.25 188.624C1021.15 188.456 1021.06 188.283 1020.98 188.111L1020.96 188.081L1020.94 188.021L1020.92 187.991V187.986L1020.91 187.961L1020.88 187.9L1020.88 187.896L1020.87 187.874L1020.84 187.814L1020.83 187.801L1020.83 187.784L1020.81 187.75L1020.8 187.724L1020.79 187.711L1020.79 187.689L1020.77 187.664L1020.76 187.633L1020.75 187.599C1020.63 187.302 1020.53 186.996 1020.45 186.695L1020.41 186.553H1010.04ZM974.604 199.373L982.004 186.553H971.638L971.599 186.695C971.483 187.134 971.319 187.569 971.117 188.004L971.108 188.021L971.096 188.051L971.04 188.172L971.031 188.18L971.022 188.202L971.005 188.232L970.975 188.292L970.962 188.322L970.945 188.348L970.941 188.357L970.928 188.378L970.915 188.408L970.898 188.438L970.893 188.443L970.889 188.456C970.837 188.572 970.773 188.688 970.691 188.796L970.678 188.822L970.656 188.852L970.639 188.882C970.312 189.407 969.942 189.872 969.537 190.277L969.421 190.388L974.604 199.373ZM998.242 232.619L1003.42 223.648H988.625L993.804 232.619C994.191 232.507 994.596 232.421 995.005 232.369H995.009L995.332 232.335L995.366 232.331H995.396L995.409 232.326H995.461L995.495 232.322H995.53L995.56 232.318L995.594 232.313H995.693L995.715 232.309H995.792L995.818 232.305H996.227L996.253 232.309H996.331L996.352 232.313H996.451L996.485 232.318L996.516 232.322H996.55L996.584 232.326H996.636L996.649 232.331H996.679L996.714 232.335L997.036 232.369H997.041C997.45 232.425 997.85 232.507 998.242 232.619ZM1005.17 185.748C1005.1 185.649 1005.04 185.541 1004.99 185.425L998.246 173.75L997.936 173.832V195.438C999.37 195.791 1000.65 196.536 1001.66 197.547C1003.11 198.99 1004 200.983 1004 203.182C1004 203.953 1003.89 204.693 1003.69 205.395L1022.4 216.205L1022.62 215.976L1015.81 204.177L1015.79 204.134L1010.43 194.861L1005.17 185.748ZM1024.05 185.317C1024.08 185.442 1024.1 185.576 1024.14 185.709C1024.22 185.985 1024.32 186.256 1024.44 186.51L1024.45 186.523L1024.49 186.6L1024.61 186.798C1024.7 186.945 1024.79 187.082 1024.89 187.212L1024.9 187.216L1024.91 187.237L1024.93 187.255L1024.93 187.259L1024.94 187.267L1024.95 187.28L1024.96 187.298L1024.98 187.319L1024.99 187.332L1025.02 187.358L1025.04 187.384L1025.05 187.397L1025.1 187.444V187.448L1025.11 187.457L1025.12 187.47L1025.13 187.483L1025.19 187.547L1025.2 187.56L1025.22 187.569L1025.31 187.659L1025.32 187.668L1025.37 187.719L1025.38 187.724L1025.42 187.767L1025.44 187.775L1025.45 187.793L1025.46 187.797L1025.49 187.823H1025.49L1025.51 187.844L1025.53 187.853V187.857C1025.98 188.227 1026.52 188.486 1027.08 188.645C1028.06 188.908 1029.14 188.813 1030.1 188.305L1030.35 188.159C1031.27 187.586 1031.89 186.695 1032.16 185.709C1032.42 184.723 1032.33 183.643 1031.82 182.683L1031.69 182.472C1031.12 181.529 1030.22 180.896 1029.22 180.629C1028.24 180.363 1027.16 180.457 1026.2 180.965L1025.99 181.094C1025.04 181.671 1024.41 182.567 1024.14 183.561C1024.01 184.052 1023.97 184.568 1024.02 185.081H1024.02V185.115L1024.03 185.132V185.15L1024.03 185.162V185.18L1024.04 185.197V185.214L1024.04 185.227V185.231L1024.05 185.249V185.274L1024.05 185.283V185.3L1024.05 185.317ZM966.451 187.909C966.58 187.806 966.705 187.694 966.829 187.569C967.01 187.392 967.17 187.199 967.312 186.996L967.32 186.988V186.983L967.333 186.97L967.35 186.945V186.94L967.359 186.927L967.372 186.914L967.38 186.902V186.897L967.406 186.859V186.854L967.415 186.846L967.424 186.828L967.432 186.815L967.436 186.811L967.441 186.803L967.449 186.79L967.462 186.764L967.467 186.76L967.484 186.734L967.492 186.716L967.501 186.704L967.51 186.686L967.518 186.673L967.54 186.63H967.544L967.548 186.613L967.557 186.6C967.703 186.32 967.82 186.019 967.906 185.709C967.94 185.571 967.97 185.434 967.996 185.296V185.279L968 185.266V185.253L968.005 185.223L968.009 185.21V185.193L968.013 185.167L968.018 185.15V185.132L968.022 185.119V185.081H968.026V185.063L966.451 187.909ZM968.043 184.728V184.53C968.039 184.198 967.987 183.88 967.901 183.561C967.63 182.532 966.963 181.611 965.977 181.043L965.934 181.017C964.953 180.466 963.838 180.354 962.822 180.629C961.793 180.901 960.867 181.568 960.299 182.554L960.286 182.575C959.726 183.561 959.615 184.689 959.89 185.709C960.166 186.738 960.829 187.664 961.814 188.232L961.836 188.245C962.822 188.804 963.945 188.916 964.97 188.645C965.448 188.516 965.908 188.305 966.317 188.012L966.33 187.999L966.356 187.982L966.36 187.978L966.373 187.973L966.386 187.961L966.399 187.952L966.403 187.948L966.412 187.943L966.425 187.93L966.438 187.922L966.451 187.909L968.043 184.728ZM996.021 244.427C997.17 244.427 998.207 243.962 998.961 243.217C999.705 242.468 1000.17 241.431 1000.17 240.282C1000.17 239.136 999.705 238.099 998.956 237.35C998.324 236.717 997.484 236.287 996.55 236.166H996.529L996.447 236.158H996.442L996.395 236.153L996.391 236.149H996.343L996.339 236.145H996.287L996.27 236.14H996.184L996.167 236.136H995.883L995.861 236.14H995.775L995.758 236.145H995.706L995.702 236.149H995.655L995.65 236.153L995.603 236.158H995.599L995.517 236.166H995.495C994.561 236.287 993.726 236.713 993.089 237.35C992.34 238.099 991.875 239.136 991.875 240.282C991.875 241.431 992.34 242.468 993.085 243.217C993.838 243.962 994.875 244.427 996.021 244.427ZM994.109 195.438V173.832L993.799 173.75L986.967 185.584L976.257 204.134L976.248 204.147L976.244 204.16L969.421 215.976L969.649 216.205L988.358 205.404C988.156 204.698 988.044 203.953 988.044 203.182C988.044 200.983 988.939 198.99 990.381 197.547C991.393 196.536 992.676 195.791 994.109 195.438ZM1025.54 218.503C1025.43 218.594 1025.32 218.693 1025.22 218.796C1025.05 218.964 1024.9 219.145 1024.76 219.33L1024.74 219.356L1024.73 219.373L1024.72 219.386L1024.7 219.412L1024.7 219.429L1024.69 219.442H1024.68L1024.66 219.481V219.485L1024.63 219.524L1024.63 219.528L1024.62 219.541L1024.6 219.567L1024.6 219.571L1024.6 219.58V219.584L1024.59 219.597L1024.55 219.657L1024.51 219.726L1024.51 219.73L1024.51 219.739L1024.5 219.743V219.747L1024.5 219.756L1024.49 219.769L1024.48 219.786L1024.48 219.791L1024.47 219.799L1024.47 219.816L1024.46 219.829L1024.45 219.846L1024.44 219.859L1024.44 219.877L1024.43 219.881V219.89L1024.41 219.92L1024.41 219.928L1024.4 219.95L1024.39 219.976L1024.38 219.997L1024.36 220.023V220.027C1024.27 220.234 1024.2 220.445 1024.14 220.66C1024.11 220.785 1024.08 220.91 1024.06 221.035L1024.05 221.069V221.086L1024.05 221.104L1024.04 221.138L1024.04 221.155V221.168L1024.03 221.185V221.202L1024.03 221.215V221.237L1024.02 221.254V221.271L1024.02 221.289V221.306C1023.97 221.809 1024.01 222.322 1024.14 222.808C1024.42 223.824 1025.07 224.741 1026.05 225.314L1026.08 225.331C1027.06 225.899 1028.2 226.015 1029.22 225.74C1030.22 225.473 1031.13 224.836 1031.69 223.897L1031.75 223.807C1032.31 222.821 1032.43 221.685 1032.16 220.66C1031.88 219.631 1031.22 218.706 1030.23 218.137C1029.24 217.565 1028.1 217.449 1027.08 217.724C1026.56 217.866 1026.07 218.099 1025.64 218.426L1025.63 218.43L1025.61 218.447L1025.59 218.46L1025.58 218.469L1025.57 218.482L1025.56 218.486L1025.56 218.49L1025.54 218.503ZM968.043 221.784V221.676C968.043 221.469 968.026 221.263 967.992 221.056L967.987 221.043V221.026L967.979 220.979L967.975 220.97V220.957L967.97 220.94L967.966 220.931V220.91L967.957 220.884L967.953 220.867V220.854L967.949 220.837L967.944 220.824L967.94 220.806V220.794L967.936 220.785V220.781L967.923 220.733L967.919 220.72L967.914 220.69L967.906 220.66L967.901 220.643L967.893 220.613L967.888 220.596L967.88 220.578L967.858 220.501V220.497L967.85 220.479L967.845 220.462V220.453L967.841 220.445L967.837 220.428L967.833 220.415L967.824 220.398L967.815 220.363L967.811 220.359L967.807 220.35L967.798 220.316L967.794 220.311V220.298L967.785 220.286L967.781 220.268L967.777 220.264L967.772 220.251L967.768 220.234L967.759 220.221V220.217L967.755 220.204L967.746 220.187L967.703 220.079C967.656 219.967 967.604 219.859 967.544 219.756L967.492 219.661L967.467 219.618L967.445 219.575L967.424 219.541L967.415 219.524L967.411 219.519L967.406 219.511L967.398 219.498L967.389 219.481L967.385 219.476L967.38 219.468L967.359 219.442V219.433L967.35 219.425C967.2 219.205 967.023 218.994 966.829 218.796C966.73 218.701 966.631 218.611 966.532 218.525L966.515 218.512L966.498 218.495L966.489 218.49L966.476 218.482L966.459 218.465L966.451 218.46L966.438 218.447L966.425 218.439L966.421 218.434L966.412 218.43L966.399 218.417C965.969 218.094 965.482 217.862 964.97 217.724C963.941 217.449 962.804 217.565 961.814 218.137C960.829 218.706 960.166 219.631 959.89 220.66C959.615 221.685 959.731 222.817 960.299 223.807C960.867 224.797 961.793 225.464 962.822 225.74C963.816 226.007 964.91 225.903 965.874 225.382L966.076 225.266C967.01 224.689 967.639 223.798 967.901 222.808C967.992 222.481 968.035 222.145 968.043 221.805V221.784ZM971.556 219.515L971.599 219.67L971.638 219.816H1020.41L1020.45 219.67L1020.49 219.515L1001.77 208.706L1001.66 208.817C1000.21 210.268 998.22 211.159 996.021 211.159C993.825 211.159 991.836 210.268 990.39 208.826L990.278 208.706L971.556 219.515ZM998.956 200.251C998.207 199.502 997.166 199.037 996.021 199.037C994.88 199.037 993.838 199.502 993.089 200.251C992.34 201 991.875 202.042 991.875 203.182C991.875 204.332 992.34 205.369 993.085 206.123C993.838 206.867 994.875 207.332 996.021 207.332C997.17 207.332 998.207 206.867 998.961 206.123C999.705 205.369 1000.17 204.332 1000.17 203.182C1000.17 202.042 999.705 201 998.956 200.251ZM998.961 163.152C998.207 162.403 997.17 161.942 996.021 161.942C994.875 161.942 993.838 162.403 993.085 163.152C992.34 163.901 991.875 164.938 991.875 166.088C991.875 167.233 992.34 168.27 993.089 169.019C993.722 169.652 994.561 170.083 995.495 170.199L995.5 170.203H995.517L995.599 170.212H995.603L995.65 170.216H995.655L995.702 170.22H995.706L995.724 170.225H995.758L995.775 170.229H995.9L995.917 170.233H996.128L996.145 170.229H996.27L996.287 170.225H996.322L996.339 170.22H996.343L996.391 170.216H996.395L996.442 170.212H996.447L996.529 170.203H996.546L996.55 170.199C997.489 170.083 998.319 169.652 998.956 169.019C999.705 168.27 1000.17 167.233 1000.17 166.088C1000.17 164.938 999.705 163.901 998.961 163.152ZM818.803 10.8984L838.903 22.4999C840.104 21.1568 841.653 20.2313 843.332 19.7836C845.588 19.1809 848.081 19.4392 850.267 20.7005C852.467 21.9661 853.935 23.998 854.542 26.258C855.145 28.5181 854.887 31.0149 853.621 33.2061L853.595 33.2491C852.329 35.4101 850.31 36.8652 848.068 37.4678C847.913 37.5109 847.762 37.5453 847.607 37.5798L847.616 60.7828C849.372 61.153 850.948 62.0355 852.17 63.2624C853.828 64.9155 854.856 67.2056 854.856 69.7326C854.856 72.2552 853.828 74.5454 852.17 76.2027C850.517 77.8644 848.223 78.889 845.7 78.889C843.177 78.889 840.892 77.8644 839.234 76.207L839.221 76.1984C839.105 76.0779 838.989 75.9574 838.877 75.8325C832.174 79.5218 825.441 83.5984 818.799 87.4599C819.363 89.1732 819.389 90.9812 818.941 92.6558C818.334 94.9159 816.862 96.9477 814.675 98.2134L814.555 98.2779C812.394 99.4833 809.948 99.7244 807.731 99.1303C805.51 98.5319 803.513 97.1027 802.247 94.9847L802.101 94.7394C800.9 92.5783 800.663 90.1332 801.257 87.9205C801.296 87.7655 801.343 87.6149 801.39 87.4599L781.295 75.8584C780.094 77.2015 778.54 78.127 776.866 78.5747C774.61 79.1817 772.117 78.9234 769.926 77.6578C767.731 76.3922 766.263 74.3603 765.656 72.1002C765.053 69.8445 765.312 67.3477 766.573 65.1565L766.599 65.1135C767.864 62.9482 769.888 61.4931 772.13 60.8904C772.281 60.8517 772.436 60.813 772.591 60.7828L772.582 37.5798C770.83 37.2052 769.259 36.3228 768.032 35.1002L768.024 35.0873C766.366 33.4299 765.342 31.144 765.342 28.6257C765.342 26.0988 766.371 23.8086 768.028 22.1512L768.14 22.0479C769.789 20.4508 772.031 19.4693 774.498 19.4693C777.025 19.4693 779.315 20.4982 780.973 22.1512C781.093 22.2718 781.209 22.3966 781.326 22.5258C788.028 18.8365 794.757 14.7598 801.399 10.8984C800.835 9.18507 800.809 7.38134 801.257 5.70676C801.864 3.44242 803.336 1.41054 805.519 0.149222L805.644 0.0846479C807.805 -1.12501 810.25 -1.36178 812.467 -0.767708C814.688 -0.173641 816.685 1.25556 817.951 3.37354L818.093 3.61892C819.298 5.77995 819.535 8.22509 818.941 10.4421C818.898 10.5928 818.855 10.7477 818.803 10.8984ZM786.349 37.6702C785.437 37.145 785.122 35.9784 785.643 35.0657C786.168 34.1531 787.335 33.8389 788.248 34.3641L803.297 43.0512C803.405 42.935 803.513 42.8187 803.625 42.7068C804.856 41.4842 806.427 40.6018 808.183 40.2272V22.8529C808.183 21.7939 809.04 20.9373 810.099 20.9373C811.158 20.9373 812.015 21.7939 812.015 22.8529V40.2272C812.91 40.421 813.762 40.7481 814.546 41.1829L814.671 41.2518C815.502 41.7339 816.255 42.3409 816.896 43.0555L831.95 34.3641C832.863 33.8389 834.03 34.1531 834.55 35.0657C835.076 35.9784 834.761 37.145 833.849 37.6702L818.808 46.353C818.855 46.5037 818.902 46.6544 818.941 46.8093C819.143 47.5799 819.255 48.3763 819.255 49.1813C819.255 50.1671 819.096 51.1142 818.808 52.0053L833.849 60.6924C834.761 61.2133 835.076 62.3799 834.55 63.2925C834.03 64.2052 832.863 64.5194 831.95 63.9985L816.896 55.3071L816.677 55.5395L816.573 55.6515C815.347 56.8783 813.771 57.7608 812.015 58.1353V75.5054C812.015 76.5643 811.158 77.421 810.099 77.421C809.04 77.421 808.183 76.5643 808.183 75.5054V58.1353C806.431 57.7608 804.864 56.8783 803.637 55.6558L803.625 55.6472C803.513 55.5352 803.409 55.4233 803.302 55.3071L788.248 63.9985C787.335 64.5194 786.168 64.2052 785.643 63.2925C785.122 62.3799 785.437 61.2133 786.349 60.6924L801.39 52.0053C801.098 51.1142 800.943 50.1671 800.943 49.1813C800.943 48.1955 801.098 47.2441 801.39 46.353L786.349 37.6702ZM814.718 46.5166C814.249 45.703 813.569 45.0271 812.755 44.5579L812.669 44.5062C811.916 44.0887 811.037 43.8562 810.099 43.8562C808.622 43.8562 807.288 44.4503 806.332 45.406C805.368 46.3745 804.774 47.709 804.774 49.1813C804.774 50.6579 805.368 51.988 806.324 52.948C807.288 53.9123 808.622 54.5064 810.099 54.5064C811.571 54.5064 812.901 53.908 813.866 52.948L813.952 52.8662C814.86 51.9149 815.424 50.6148 815.424 49.1813C815.424 48.6905 815.364 48.2256 815.248 47.7951C815.123 47.3388 814.942 46.9083 814.718 46.5166ZM840.53 27.3256L840.513 27.3859L840.5 27.4462V27.4548L840.483 27.5108V27.5151L840.47 27.5753V27.5796L840.457 27.6399V27.6442L840.448 27.7045V27.7088L840.435 27.769V27.7733L840.427 27.8336V27.8379L840.418 27.8982V27.9025L840.409 27.9628V27.9671L840.401 28.0273V28.0316L840.396 28.0919V28.0962L840.388 28.1565V28.1608L840.384 28.2211V28.2254L840.379 28.2856V28.2899L840.375 28.3502V28.3545L840.371 28.4148V28.8022L840.392 29.1251L840.401 29.1853V29.1896L840.405 29.2499V29.2542L840.414 29.3145L840.422 29.3791L840.435 29.4393V29.4436L840.444 29.5039L840.452 29.5685L840.465 29.633L840.478 29.6933L840.491 29.7579L840.504 29.8181L840.521 29.8827L840.534 29.943L840.551 30.0076L840.603 30.1884V30.1927L840.62 30.2443L840.625 30.2529L840.642 30.3046V30.3132L840.663 30.3649V30.3735L840.681 30.4208L840.685 30.4337L840.702 30.4811L840.706 30.494L840.724 30.5414L840.732 30.5543L840.749 30.5973L840.754 30.6145L840.771 30.6576L840.78 30.6705L840.797 30.7136L840.801 30.7308L840.818 30.7695L840.827 30.791L840.844 30.8298L840.853 30.847L840.87 30.8857L840.883 30.9073L840.9 30.9417L840.909 30.9632L840.939 31.0235L840.956 31.0536L840.969 31.0795L840.982 31.1096L840.999 31.1354L841.012 31.1656L841.029 31.1914L841.042 31.2215L841.077 31.2732L841.09 31.3033L841.107 31.3291L841.124 31.3593L841.137 31.3851L841.158 31.4152L841.171 31.4368L841.193 31.4712L841.206 31.4884L841.227 31.5272L841.24 31.5444L841.262 31.5788L841.275 31.596L841.296 31.6348L841.309 31.6477L841.344 31.6994L841.374 31.7381L841.408 31.7898L841.421 31.8027L841.455 31.8543L841.49 31.8931L841.494 31.906L841.529 31.9447L841.533 31.9533L841.572 31.9964L841.576 32.005L841.61 32.048L841.615 32.0524L841.653 32.0954L841.658 32.0997L841.697 32.1471V32.1514L841.74 32.1944V32.1987L841.783 32.2418V32.2461L841.873 32.3365V32.3408L841.916 32.3838H841.92L842.015 32.4785L842.058 32.5173L842.062 32.5216L842.105 32.5603L842.11 32.5689L842.153 32.6034L842.161 32.612L842.2 32.6464L842.209 32.655L842.248 32.6895L842.26 32.6981L842.299 32.7325L842.312 32.7411L842.351 32.7713L842.364 32.7842L842.403 32.8143L842.415 32.8272L842.454 32.8531L842.506 32.8918L842.523 32.909L842.557 32.9348L842.579 32.9478L842.609 32.9693L842.635 32.9865L842.665 33.008L842.691 33.0252L842.721 33.0468L842.747 33.064L842.777 33.0812L842.803 33.1027L842.833 33.12L842.859 33.1372L842.919 33.1716L842.945 33.1888L842.975 33.2104L843.035 33.2448L843.057 33.2534C843.457 33.4859 843.883 33.6581 844.318 33.7743C844.495 33.8216 844.667 33.8604 844.843 33.8905H844.865L844.929 33.9034H844.951L844.972 33.9077H844.985L844.994 33.912L845.016 33.9163H845.046L845.059 33.9207L845.102 33.925H845.11L845.123 33.9293H845.145C845.799 33.9938 846.453 33.9379 847.078 33.7743C848.365 33.4299 849.523 32.6034 850.263 31.3808L850.366 31.1957C851.055 29.9473 851.189 28.531 850.844 27.2482C850.491 25.9309 849.635 24.7427 848.36 24.0066C847.095 23.2748 845.64 23.1241 844.318 23.4771C843.001 23.8301 841.817 24.6911 841.081 25.961C840.827 26.4001 840.646 26.8564 840.53 27.3256ZM843.931 64.7045L843.914 64.7088L843.81 64.7476L843.797 64.7562L843.75 64.7734L843.737 64.7777L843.69 64.7949L843.677 64.7992L843.629 64.8208L843.621 64.8251L843.509 64.8724L843.505 64.8767L843.337 64.9542L843.332 64.9585L843.281 64.9843L843.276 64.9886L843.225 65.0145L843.22 65.0188L843.117 65.0704L843.104 65.079L843.048 65.1092L843.009 65.135L842.992 65.1436L842.954 65.1651L842.941 65.1781L842.902 65.1996L842.885 65.2082L842.85 65.2297L842.829 65.2426L842.794 65.2642L842.777 65.2771L842.743 65.2986L842.721 65.3158L842.669 65.3503L842.639 65.3718L842.618 65.389L842.592 65.4062L842.566 65.4277L842.54 65.445L842.514 65.4665L842.493 65.4794L842.463 65.5052L842.441 65.5181L842.411 65.544L842.359 65.5827L842.347 65.5956L842.312 65.6215L842.299 65.6344L842.26 65.6645L842.252 65.6731L842.213 65.7032L842.204 65.7162L842.166 65.7463L842.157 65.7549L842.118 65.7893L842.11 65.798L842.071 65.8324L842.024 65.8797H842.019L841.933 65.9658C841.524 66.3705 841.184 66.844 840.926 67.3649L840.9 67.4209H840.896L840.793 67.6576L840.771 67.7093L840.767 67.7179L840.745 67.7696L840.741 67.7782L840.724 67.8298L840.719 67.8384L840.698 67.8987L840.676 67.9461V67.959L840.659 68.0063L840.65 68.0236L840.638 68.0666L840.633 68.0838L840.62 68.1269L840.612 68.1484L840.599 68.1914L840.594 68.2087L840.582 68.2517L840.577 68.2732L840.556 68.3378L840.547 68.3722L840.539 68.4024L840.53 68.4368L840.526 68.467L840.508 68.5272L840.504 68.5617L840.495 68.5961L840.487 68.6219L840.483 68.6564L840.474 68.6865L840.47 68.7252L840.465 68.7511L840.457 68.7898L840.452 68.8156L840.444 68.8544L840.44 68.8802L840.435 68.919L840.431 68.9448L840.427 68.9878L840.422 69.0094L840.418 69.0524L840.414 69.0739L840.409 69.1213L840.405 69.1385L840.401 69.1902V69.2031L840.396 69.2547L840.392 69.2677L840.388 69.3236V69.3365L840.384 69.3925V69.4011L840.379 69.4571V69.4657L840.375 69.5303V69.9392L840.379 69.9607V70.0296L840.384 70.0511V70.077L840.388 70.1415V70.1458L840.396 70.2492L840.401 70.275V70.2965L840.405 70.318C840.47 70.9207 840.633 71.4933 840.883 72.0184L840.892 72.04L840.896 72.0486L840.917 72.0959L840.926 72.1088L840.939 72.1347L841.068 72.3801L841.077 72.393L841.081 72.3973C841.313 72.8019 841.598 73.1721 841.929 73.5036C842.889 74.4636 844.223 75.0577 845.7 75.0577C847.168 75.0577 848.502 74.4636 849.467 73.4993C850.431 72.5436 851.025 71.2091 851.025 69.7326C851.025 68.2646 850.427 66.9301 849.467 65.9658C848.502 65.0059 847.168 64.4075 845.7 64.4075C845.08 64.4032 844.486 64.5108 843.931 64.7045ZM813.762 86.4181L813.715 86.3708L813.62 86.2847L813.517 86.1986L813.47 86.1555L813.211 85.9618L813.155 85.9231L813.104 85.8843L813.052 85.8499L812.996 85.8154L812.945 85.781L812.833 85.7121L812.777 85.682L812.721 85.6476L812.553 85.5572L812.493 85.527L812.437 85.4969L812.381 85.4711L812.26 85.4194L812.204 85.3936L812.084 85.3419L812.023 85.3204L811.967 85.2989L811.903 85.273L811.847 85.2515L811.787 85.2343L811.722 85.2128L811.662 85.1955L811.601 85.174L811.541 85.1568L811.477 85.1396C810.159 84.7866 808.709 84.9373 807.434 85.6691L807.417 85.682L807.396 85.6906L807.378 85.7035H807.374L807.34 85.7293L807.318 85.738L807.284 85.7638L807.262 85.7724L807.258 85.7767L807.245 85.7853L807.223 85.7982L807.206 85.8111H807.202L807.189 85.8241L807.167 85.8327L807.15 85.8456L807.146 85.8499L807.133 85.8585L807.116 85.8714L807.094 85.8843L807.09 85.8886L807.077 85.8972L807.043 85.9231L807.034 85.9274L807.021 85.9317L807.004 85.9489L806.987 85.9575L806.978 85.9661L806.969 85.9704L806.952 85.9876L806.935 85.9962L806.922 86.0049L806.913 86.0092L806.896 86.0221L806.879 86.0393L806.862 86.0479L806.845 86.0651L806.827 86.078L806.814 86.0866L806.81 86.091L806.776 86.1168L806.763 86.1297H806.758L806.724 86.1555L806.711 86.1684V86.1727L806.642 86.2244L806.612 86.2545H806.608L806.578 86.2847L806.56 86.2976L806.548 86.3105L806.53 86.3234L806.5 86.3535L806.483 86.3665L806.453 86.3966L806.436 86.4095L806.418 86.4267L806.414 86.4353L806.405 86.4396L806.263 86.5817L806.251 86.5989L806.186 86.6635L806.113 86.7496L806.096 86.7668L805.966 86.9132V86.9175L805.941 86.9519L805.923 86.9691L805.898 87.0036L805.889 87.0165L805.885 87.0208L805.859 87.0552L805.846 87.0681V87.0724L805.82 87.1069L805.807 87.1198V87.1241L805.794 87.1413C805.398 87.6794 805.11 88.2778 804.95 88.9063C804.602 90.2193 804.744 91.6657 805.471 92.9313L805.48 92.9486C806.216 94.2228 807.4 95.0837 808.717 95.4324C810.009 95.7811 811.425 95.6477 812.673 94.9589L812.759 94.9072C814.034 94.1711 814.895 92.983 815.248 91.6657C815.592 90.3786 815.459 88.9623 814.77 87.7096L814.718 87.6235C814.451 87.1672 814.128 86.7625 813.762 86.4181ZM779.668 71.0369L779.685 70.9767V70.9724L779.698 70.9121V70.9078L779.715 70.8475V70.8432L779.728 70.783V70.7786L779.741 70.7184V70.7141L779.75 70.6538V70.6495L779.763 70.5892L779.797 70.3309L779.802 70.2707V70.2664L779.81 70.2061V70.2018L779.827 69.9435V69.5561L779.823 69.4958V69.4915L779.819 69.4312V69.4269L779.815 69.3667V69.3624L779.81 69.3021V69.2978L779.806 69.2375V69.2332L779.797 69.173L779.793 69.1084L779.784 69.0438L779.776 68.9835V68.9792L779.763 68.919L779.754 68.8544L779.746 68.7941V68.7898L779.733 68.7296L779.72 68.665L779.707 68.6047V68.6004L779.694 68.5401L779.677 68.4799L779.66 68.4153L779.647 68.355L779.629 68.2948V68.2905L779.612 68.2345V68.2302L779.595 68.1742L779.591 68.1699L779.573 68.114V68.1096L779.556 68.0537V68.0451L779.535 67.9977V67.9891L779.517 67.9375L779.513 67.9288L779.492 67.8643L779.474 67.8212L779.466 67.8083L779.449 67.761L779.444 67.748L779.427 67.705L779.418 67.6878L779.401 67.6447L779.397 67.6275L779.38 67.5888L779.367 67.5715L779.35 67.5328L779.341 67.5113L779.324 67.4768L779.315 67.4553L779.298 67.4166L779.289 67.3951L779.272 67.3606L779.259 67.3391L779.229 67.2788L779.212 67.2487L779.199 67.2229L779.186 67.1927L779.169 67.1669L779.156 67.1411L779.139 67.1109L779.121 67.0851L779.109 67.055L779.091 67.0291L779.074 66.999L779.061 66.9775L779.04 66.943L779.027 66.9215L779.005 66.8914L778.992 66.8699L778.971 66.8354L778.958 66.8182L778.936 66.7838L778.923 66.7622L778.902 66.7278L778.863 66.6761L778.855 66.6589L778.824 66.6202L778.816 66.6073L778.786 66.5685L778.777 66.5556L778.747 66.5169L778.743 66.5083L778.708 66.4652L778.704 66.4566L778.669 66.4136L778.665 66.4049L778.626 66.3619L778.622 66.3576L778.588 66.3145L778.583 66.3059L778.545 66.2629L778.54 66.2586L778.502 66.2155L778.497 66.2112L778.458 66.1639H778.454L778.415 66.1165L778.368 66.0692L778.325 66.0218L778.23 65.9271L778.187 65.8884L778.183 65.8797L778.144 65.841L778.136 65.8367L778.093 65.798L778.088 65.7893L778.045 65.7549L778.037 65.7463L777.998 65.7119L777.989 65.7032L777.951 65.6688L777.938 65.6602L777.899 65.6301L777.886 65.6172L777.847 65.587L777.834 65.5741L777.796 65.544L777.783 65.5354L777.744 65.5052L777.641 65.4277L777.619 65.4105L777.589 65.389L777.563 65.3718L777.533 65.3503L777.507 65.333L777.477 65.3158L777.451 65.2986L777.421 65.2771L777.395 65.2598L777.365 65.2426L777.339 65.2211L777.279 65.1867L777.253 65.1694L777.163 65.1178L777.141 65.1049C776.741 64.8767 776.315 64.7002 775.88 64.584C775.703 64.5366 775.527 64.5022 775.355 64.4721L775.337 64.4678H775.333L775.312 64.4635L775.247 64.4548L775.226 64.4505H775.217L775.204 64.4462H775.183L775.161 64.4419H775.139L775.096 64.4333H775.075L775.053 64.429C774.399 64.3601 773.745 64.4204 773.116 64.5883C771.833 64.9284 770.675 65.7549 769.935 66.9775L769.827 67.1626C769.143 68.411 769.009 69.8273 769.354 71.1144C769.702 72.4317 770.563 73.6155 771.838 74.3517C773.103 75.0878 774.558 75.2342 775.88 74.8812C777.197 74.5282 778.381 73.6715 779.117 72.3973C779.367 71.9625 779.552 71.5019 779.668 71.0369ZM774.498 33.9508C775.97 33.9508 777.305 33.3567 778.265 32.3924C778.566 32.0954 778.833 31.7596 779.053 31.3937L779.065 31.3808L779.121 31.2818L779.126 31.2732L779.152 31.2258L779.242 31.0579L779.246 31.0536L779.298 30.9417L779.302 30.9374L779.354 30.8255V30.8212L779.38 30.7695V30.7652L779.406 30.7092V30.7049L779.427 30.6533L779.431 30.6447L779.453 30.593L779.457 30.5844L779.474 30.5327L779.479 30.5241L779.496 30.4768L779.5 30.4639L779.517 30.4165L779.522 30.4036L779.539 30.3562L779.543 30.339L779.561 30.296L779.565 30.2788L779.578 30.2357L779.586 30.2142L779.599 30.1711L779.604 30.1496L779.616 30.1109L779.625 30.0893L779.634 30.0506L779.642 30.0248L779.651 29.9903L779.655 29.9602L779.668 29.9258L779.672 29.8956L779.681 29.8655L779.69 29.8311L779.694 29.8009L779.703 29.7665L779.711 29.7364L779.715 29.7019L779.724 29.6761L779.728 29.6373L779.733 29.6115L779.746 29.5469L779.754 29.5082L779.759 29.4824L779.763 29.4393L779.767 29.4178L779.771 29.3747L779.776 29.3532L779.78 29.3059L779.784 29.2887L779.789 29.2413L779.793 29.2241L779.797 29.1724V29.1595L779.802 29.1078L779.806 29.0906L779.81 29.039V29.0261L779.815 28.9701V28.9615L779.819 28.9012V28.828L779.823 28.7635V28.4664L779.819 28.4449V28.3545L779.815 28.333V28.2813L779.81 28.2211V28.2167L779.802 28.1091L779.797 28.0876V28.0661L779.793 28.0446C779.66 26.8048 779.104 25.6984 778.265 24.859C777.305 23.899 775.97 23.3006 774.498 23.3006C773.065 23.3006 771.764 23.8646 770.813 24.7772L770.731 24.859C769.771 25.8233 769.173 27.1535 769.173 28.6257C769.173 30.1023 769.767 31.4368 770.727 32.3924C771.687 33.3567 773.021 33.9508 774.498 33.9508ZM806.431 11.9445H806.436L806.53 12.0306V12.0349L806.578 12.0779L806.629 12.121L806.677 12.1597L806.728 12.2028L806.78 12.2415L806.832 12.2846L806.987 12.4008L807.043 12.4352V12.4395L807.146 12.5084L807.202 12.5471L807.254 12.5816L807.309 12.616L807.365 12.6462V12.6505L807.477 12.7107L807.533 12.7452L807.645 12.8054L807.706 12.8313L807.762 12.8614L807.817 12.8872L807.878 12.9174L807.938 12.9432L807.994 12.969L808.054 12.9948L808.114 13.0164L808.175 13.0422L808.231 13.0637L808.295 13.0853L808.351 13.1068L808.412 13.1283L808.472 13.1455L808.536 13.167L808.657 13.2015L808.721 13.2187C810.039 13.5717 811.494 13.421 812.764 12.6892L812.781 12.6806L812.798 12.6677L812.82 12.6548L812.841 12.6462L812.858 12.6332L812.88 12.6203L812.897 12.6117L812.914 12.5988L812.936 12.5859L812.953 12.573L812.975 12.5644L812.992 12.5515L812.996 12.5471L813.009 12.5385L813.026 12.5256L813.048 12.5127L813.052 12.5084L813.065 12.4998L813.082 12.4869L813.104 12.4783L813.108 12.474L813.121 12.4654L813.155 12.4395L813.164 12.4352L813.177 12.4266L813.211 12.4008L813.22 12.3965L813.229 12.3879L813.263 12.362L813.276 12.3577L813.285 12.3491L813.319 12.3233L813.328 12.3147L813.336 12.3104L813.371 12.2846L813.384 12.2759L813.388 12.2716L813.405 12.2587L813.422 12.2415L813.435 12.2329L813.452 12.2157L813.504 12.1769L813.521 12.1597L813.573 12.121L813.586 12.1037H813.59L813.603 12.0908L813.638 12.065V12.0607L813.651 12.0478L813.685 12.022L813.689 12.0177L813.698 12.0047L813.732 11.9789L813.737 11.9703L813.745 11.9617L813.762 11.9488L813.775 11.9316L813.784 11.9272L813.831 11.8799L813.84 11.8756L813.853 11.8584L813.948 11.7637L813.96 11.7464L813.995 11.712L814.008 11.6948L814.146 11.5441L814.158 11.5269L814.227 11.4451H814.232L814.27 11.3935V11.3891L814.288 11.3762L814.301 11.359L814.309 11.3418H814.313L814.378 11.2557L814.387 11.2385L814.391 11.2342L814.404 11.217L814.425 11.1868L814.43 11.1825C814.813 10.653 815.088 10.0676 815.248 9.45197C815.596 8.139 815.454 6.69257 814.727 5.42695L814.718 5.40973C813.982 4.1355 812.794 3.27884 811.481 2.92584C810.189 2.58145 808.773 2.7149 807.52 3.39937L807.434 3.45533C806.164 4.18716 805.303 5.37529 804.95 6.69257C804.606 7.97972 804.74 9.40031 805.428 10.6487L805.48 10.7348C805.747 11.1911 806.07 11.5958 806.431 11.9445ZM783.207 25.7974C783.422 26.4604 783.564 27.1578 783.624 27.8724L783.629 27.9111V27.9498L783.633 27.9886L783.642 28.1005V28.1565L783.646 28.1737V28.2512L783.65 28.2727V28.4019L783.654 28.4363V28.7419L783.65 28.8582V28.9787L783.646 29.0863L783.642 29.0949L783.637 29.1982V29.2112L783.629 29.3145V29.3274L783.62 29.4264V29.4436L783.611 29.5383L783.607 29.5599L783.598 29.6546L783.594 29.6761L783.586 29.7665L783.581 29.788L783.573 29.8741L783.564 29.9042L783.551 30.0162L783.538 30.098L783.53 30.1281L783.517 30.2099L783.512 30.2443L783.499 30.3175L783.491 30.3562L783.478 30.4294L783.469 30.4682L783.452 30.5371L783.431 30.6447L783.422 30.692L783.405 30.7523L783.396 30.7996L783.379 30.8599L783.366 30.9116L783.349 30.9675L783.336 31.0192L783.323 31.0752L783.306 31.1268L783.293 31.1828L783.276 31.2344L783.263 31.2861L783.241 31.3421L783.228 31.3937L783.207 31.4497L783.194 31.497L783.138 31.6649L783.121 31.7037L783.086 31.807L783.06 31.8716L783.047 31.9103L783.017 31.9792L783.004 32.0093L782.979 32.0825L782.966 32.1126L782.936 32.1858L782.923 32.2116L782.888 32.2848L782.88 32.3106L782.845 32.3881L782.832 32.414L782.798 32.4914L782.789 32.5087L782.75 32.5905L782.742 32.6077L782.699 32.6895L782.694 32.7067L782.651 32.7885L782.643 32.8014L782.595 32.8961L782.548 32.9822L782.544 32.9951L782.492 33.0812V33.0898L782.44 33.1759L782.436 33.1845L782.384 33.2749H782.38L782.329 33.3696L782.268 33.46V33.4643L782.212 33.5504V33.5547L782.152 33.6408L782.148 33.6494L782.092 33.7312L782.087 33.7398L782.032 33.8216L782.027 33.8302L781.971 33.912L781.963 33.9207L781.907 33.9981L781.898 34.0111L781.842 34.0842L781.833 34.0972L781.778 34.1703L781.713 34.2564L781.696 34.2737L781.644 34.3382L781.631 34.3597L781.579 34.4243L781.558 34.4458L781.511 34.5061L781.489 34.5276L781.442 34.5879L781.42 34.6137L781.369 34.6697L781.347 34.6955L781.3 34.7472L781.274 34.7773L781.226 34.829L781.196 34.8591L781.153 34.9065L781.123 34.9409L781.076 34.9839L781.046 35.0184L780.973 35.1002C780.512 35.5608 780.004 35.9698 779.453 36.3228L779.431 36.3357L779.246 36.4519V36.4562L778.966 36.6198L778.958 36.6241L778.863 36.6757L778.82 36.6973L778.764 36.7274L778.747 36.736L778.674 36.7748L778.665 36.7791L778.601 36.8135L778.566 36.8307L778.527 36.8479L778.467 36.8781L778.368 36.9254L778.308 36.9556L778.265 36.9728L778.23 36.9857L778.161 37.0158L778.157 37.0201L778.08 37.0546L778.062 37.0632L778.002 37.0847L777.959 37.1062L777.929 37.1191L777.856 37.145L777.852 37.1493L777.774 37.1794L777.752 37.188L777.697 37.2052L777.645 37.2268L777.619 37.2354L777.542 37.2655L777.46 37.2913L777.382 37.3172L777.326 37.3344L777.305 37.343L777.223 37.3688H777.219L777.146 37.3947L777.111 37.4033L777.064 37.4162L777.003 37.4334L776.986 37.442L776.904 37.4635H776.896L776.823 37.4851L776.788 37.4937L776.741 37.5066L776.676 37.5195L776.659 37.5238L776.577 37.5453L776.564 37.5496L776.495 37.5625L776.457 37.5712L776.414 37.5798V60.7828L776.504 60.8043L776.616 60.8302L776.724 60.856L776.866 60.8904C777.619 61.0885 778.364 61.3984 779.078 61.8117C779.931 62.3024 780.675 62.9137 781.3 63.6068H781.304L781.524 63.8651L781.592 63.9469L781.661 64.0373H781.666L781.73 64.1234H781.734L781.799 64.2138L781.868 64.2999L781.932 64.3946L781.997 64.4807L782.062 64.5754L782.122 64.6658L782.182 64.7605L782.242 64.8509L782.303 64.9456L782.415 65.135L782.471 65.234L782.522 65.3287L782.574 65.4277H782.578L782.626 65.5224L782.677 65.6215L782.725 65.7205L782.776 65.8195L782.819 65.9185L782.867 66.0218L782.91 66.1208L782.953 66.2241L782.996 66.3231L783.112 66.6331L783.181 66.8397L783.22 66.943L783.25 67.0507L783.31 67.2573L783.34 67.3649L783.362 67.4424L783.366 67.4725L783.383 67.5242L783.396 67.5759L783.4 67.6017L783.418 67.6792L783.422 67.6835L783.435 67.761L783.443 67.7911L783.452 67.8384L783.465 67.8987L783.469 67.9202L783.487 67.9977V68.0063L783.504 68.0795L783.508 68.114L783.517 68.157L783.525 68.2216L783.53 68.2388L783.542 68.3163V68.3292L783.555 68.3981L783.56 68.4368L783.564 68.4799L783.577 68.5487V68.5617L783.586 68.6435L783.59 68.6564L783.598 68.7209L783.603 68.764V68.8027L783.611 68.8716V68.8845L783.62 68.9663V68.9835L783.624 69.0481L783.629 69.0912L783.633 69.1299L783.637 69.2031V69.2074L783.642 69.2935V69.315L783.646 69.3753V69.4528L783.65 69.5303V69.9736L783.646 70.0296V70.1114L783.642 70.1932V70.1975L783.637 70.275L783.633 70.3051L783.629 70.3568L783.624 70.417V70.4386L783.62 70.5204L783.616 70.529L783.611 70.6021L783.607 70.6366L783.603 70.6839L783.594 70.7485V70.7657L783.581 70.8475V70.8604L783.573 70.9293L783.568 70.9681L783.56 71.0111L783.551 71.08V71.0929L783.538 71.1747L783.534 71.1919L783.525 71.2565L783.517 71.2995L783.508 71.3383L783.495 71.4115V71.4201L783.478 71.5019L783.474 71.5234L783.461 71.5837L783.452 71.631L783.443 71.6654L783.426 71.7386V71.7472L783.405 71.829L783.4 71.8506L783.388 71.9108L783.375 71.9625L783.366 71.9926L783.349 72.0701L783.344 72.0744L783.301 72.2337L783.284 72.2896L783.28 72.3155L783.228 72.4791L783.202 72.5565L803.297 84.1581L803.625 83.8137C804.184 83.2627 804.817 82.7676 805.519 82.363L805.622 82.3027L805.648 82.2941L805.725 82.2467L805.747 82.2381L805.829 82.1951L805.85 82.1822L806.04 82.0875L806.052 82.0788L806.143 82.0358L806.156 82.0272L806.251 81.9841L806.259 81.9798L806.354 81.9368L806.362 81.9325L806.461 81.8894L806.47 81.8851L806.569 81.8464L806.573 81.8421L806.672 81.799H806.677L806.78 81.756H806.784L806.991 81.6785H806.995L807.099 81.6397H807.103L807.206 81.6053L807.21 81.601L807.314 81.5709L807.322 81.5666L807.417 81.5364L807.43 81.5321L807.525 81.5063L807.538 81.502L807.632 81.4719L807.645 81.4676L807.74 81.446L807.848 81.4159L807.865 81.4116L807.955 81.3901L807.977 81.3815L808.084 81.3599L808.17 81.3384L808.196 81.3341L808.278 81.3169L808.304 81.3126L808.386 81.2954L808.416 81.2911L808.493 81.2781L808.528 81.2695L808.601 81.2566L808.635 81.2523L808.709 81.2394L808.747 81.2351L808.816 81.2222L808.859 81.2179L808.928 81.2093L808.967 81.205L809.036 81.1964L809.079 81.192L809.143 81.1834L809.191 81.1791L809.251 81.1748L809.298 81.1705L809.359 81.1619L809.41 81.1576L809.471 81.1533H809.522L809.578 81.149L809.63 81.1447H809.686L809.742 81.1404H809.798L809.854 81.1361H810.013L810.073 81.1318H810.121L810.185 81.1361H810.336L810.405 81.1404H810.448L810.517 81.1447H810.555L810.624 81.149L810.663 81.1533L810.736 81.1576H810.771L810.848 81.1619L810.878 81.1662L810.956 81.1748H810.986L811.068 81.1834L811.093 81.1877L811.175 81.1964L811.201 81.2007L811.283 81.2093L811.304 81.2136L811.39 81.2265H811.412L811.502 81.2437H811.52L811.61 81.2609H811.627L811.718 81.2781H811.731L811.825 81.2997H811.838L811.933 81.3212H811.941L812.041 81.3427H812.049L812.148 81.3642L812.152 81.3685L812.256 81.3901L812.26 81.3944L812.359 81.4159L812.363 81.4202L812.467 81.446L812.544 81.4676L812.574 81.4762L812.678 81.502L812.781 81.5364L812.858 81.558L812.889 81.5709L812.936 81.5838L812.992 81.601L813.013 81.6096L813.087 81.6354L813.095 81.6397L813.164 81.6613L813.199 81.6742L813.242 81.6914L813.302 81.7129L813.319 81.7172L813.397 81.7474L813.405 81.7517L813.47 81.7775L813.508 81.7904L813.547 81.8076L813.607 81.8335L813.62 81.8378L813.698 81.8722L813.711 81.8765L813.771 81.9023L813.81 81.9196L813.844 81.9368L813.913 81.9669H813.922L813.995 82.0057L814.012 82.01L814.068 82.0401L814.111 82.0573L814.141 82.0745L814.21 82.109L814.214 82.1133L814.288 82.1477L814.309 82.1563L814.361 82.1865L814.404 82.208L814.434 82.2252L814.503 82.2596V82.264L814.576 82.3027L814.598 82.3156L814.649 82.3414L814.692 82.3716L814.718 82.3845L814.787 82.4275H814.791L814.86 82.4706L814.886 82.4835L814.929 82.5093L814.981 82.5395L814.998 82.5524L815.067 82.5997H815.071L815.136 82.6428L815.166 82.66L815.205 82.6901L815.256 82.7246L815.273 82.7375L815.437 82.8494L815.476 82.8795L815.527 82.9183L815.54 82.9269L815.609 82.9786L815.618 82.9829L815.674 83.0259L815.708 83.0517L815.738 83.0776L815.794 83.1206L815.803 83.1292L815.868 83.1809L815.88 83.1895L815.932 83.2325L815.967 83.2627L815.997 83.2842L816.053 83.3316L816.061 83.3402L816.121 83.3961L816.139 83.409L816.186 83.4521L816.221 83.4822L816.246 83.5037L816.307 83.5554L816.311 83.564L816.371 83.62L816.388 83.6329L816.431 83.6759L816.47 83.7104L816.492 83.7319L816.548 83.7922H816.552L816.608 83.8524L816.707 83.9514L816.724 83.973L816.784 84.0332V84.0375L816.84 84.0978L816.862 84.1193L816.896 84.1581L836.991 72.5609L836.987 72.5565C836.931 72.3844 836.884 72.2079 836.836 72.0314L836.832 72.0141C836.716 71.5664 836.634 71.1058 836.587 70.6366L836.582 70.5978L836.578 70.5247L836.569 70.4472V70.4127L836.561 70.3353V70.2965L836.557 70.2621V70.2018L836.552 70.1846V70.1114L836.548 70.0856V70.0339L836.544 69.9952V69.5001L836.548 69.3882V69.3796L836.552 69.272L836.557 69.2634L836.561 69.16V69.1471L836.569 69.0481V69.0309L836.578 68.9319V68.9147L836.587 68.82L836.591 68.7984L836.6 68.708L836.604 68.6822L836.613 68.5961L836.617 68.5703L836.625 68.4842L836.63 68.454L836.643 68.3722L836.647 68.3421L836.66 68.2603L836.664 68.2302L836.681 68.1484L836.686 68.1183L836.699 68.0408L836.707 68.0063L836.72 67.9288L836.729 67.8944L836.746 67.8212L836.755 67.7825L836.767 67.7136L836.776 67.6706L836.793 67.606L836.802 67.5586L836.819 67.4984L836.832 67.451L836.845 67.3907L836.862 67.3391L836.875 67.2831L836.892 67.2315L836.905 67.1755L836.94 67.0722L836.957 67.0162L836.97 66.9646L836.991 66.9086L837.004 66.8613L837.026 66.801L837.039 66.7579L837.06 66.6977L837.077 66.6546L837.112 66.5513L837.138 66.4867L837.151 66.448L837.176 66.3834L837.194 66.349L837.232 66.2457L837.263 66.1768L837.275 66.1466L837.306 66.0735L837.318 66.0433L837.353 65.9702L837.362 65.9443L837.4 65.8711L837.409 65.8496L837.448 65.7721L837.456 65.7506L837.495 65.6731L837.504 65.6516L837.547 65.5741L837.594 65.4751L837.603 65.4579L837.65 65.3761L837.654 65.3632L837.702 65.2814L837.706 65.2685L837.758 65.1824L837.762 65.1738L837.814 65.0877L837.818 65.0834L837.87 64.993V64.9886L837.925 64.8982L838.046 64.7174V64.7131L838.102 64.627L838.106 64.6227L838.171 64.5323L838.227 64.4462L838.231 64.4419L838.291 64.3601L838.296 64.3515L838.352 64.274L838.36 64.2654L838.421 64.188L838.429 64.175L838.485 64.1019L838.498 64.0889L838.563 64.0028L838.619 63.934L838.636 63.9167L838.705 63.8307L838.756 63.7704L838.774 63.7489L838.829 63.6886L838.847 63.6671L838.898 63.6068L838.92 63.5853L838.997 63.5035L839.045 63.4518L839.071 63.426L839.118 63.3743L839.226 63.2624C839.837 62.6468 840.539 62.1216 841.3 61.7041L841.331 61.6911L841.593 61.5534L841.628 61.5362L841.666 61.5146L841.727 61.4888L841.817 61.4458L841.826 61.4415L841.89 61.4113L841.929 61.3941L841.963 61.3769L842.028 61.3468L842.114 61.3123L842.131 61.3037L842.192 61.2779L842.235 61.2607L842.338 61.2219L842.347 61.2176L842.424 61.1875L842.441 61.1789L842.502 61.1573L842.549 61.1401L842.579 61.1272L842.652 61.1014H842.656L842.811 61.0497L842.867 61.0325L842.893 61.0196L842.971 60.9981H842.975L843.053 60.9722L843.083 60.9636L843.13 60.9507L843.19 60.9335L843.212 60.9249L843.294 60.9034H843.298L843.375 60.8818L843.41 60.8732L843.457 60.8603L843.517 60.8474L843.539 60.8431L843.629 60.8216L843.703 60.8043L843.741 60.7957L843.784 60.7871V37.5798L843.694 37.5582L843.582 37.5281L843.474 37.5023L843.332 37.4721C842.579 37.2698 841.834 36.9642 841.12 36.5509C840.405 36.1376 839.768 35.6383 839.208 35.0787H839.204L838.972 34.8333L838.748 34.5836L838.675 34.4975L838.537 34.3253H838.532L838.468 34.2349H838.464L838.399 34.1488L838.33 34.0584L838.136 33.7872L838.076 33.6925L838.016 33.6021L837.895 33.4127L837.727 33.1286L837.676 33.0296L837.624 32.9348L837.521 32.7368L837.331 32.3408L837.288 32.2375L837.245 32.1385L837.202 32.0351L837.164 31.9318L837.125 31.8328L837.086 31.7295L837.052 31.6262L837.017 31.5186L836.948 31.3119L836.918 31.2086L836.858 30.9934L836.836 30.9159L836.828 30.89L836.815 30.8384L836.802 30.7824L836.798 30.7609L836.78 30.6791L836.776 30.6748L836.759 30.6016L836.755 30.5715L836.746 30.5198L836.733 30.4639L836.729 30.4423L836.712 30.3606V30.3562L836.699 30.2831L836.69 30.2443L836.681 30.2013L836.673 30.1367L836.668 30.1238L836.656 30.042L836.651 30.0291L836.643 29.9602L836.638 29.9215L836.63 29.8784L836.621 29.8138V29.8009L836.613 29.7191L836.608 29.7062L836.6 29.6373L836.595 29.5943L836.591 29.5555L836.587 29.4867V29.4738L836.578 29.392V29.3791L836.574 29.3145L836.569 29.2671L836.565 29.2327L836.561 29.1595V29.1509L836.557 29.0691V29.0476L836.552 28.9873V28.9055L836.548 28.828V28.7419L836.544 28.7161V28.5784L836.548 28.4966V28.3846L836.552 28.333V28.2512L836.557 28.1694V28.1651L836.561 28.0876L836.565 28.0532L836.569 28.0058L836.574 27.9412V27.9197L836.578 27.8422L836.582 27.8336L836.587 27.7561L836.591 27.7217L836.595 27.6743L836.604 27.6098V27.5925L836.617 27.5108V27.5021L836.625 27.429L836.63 27.3902L836.638 27.3472L836.647 27.2783V27.2654L836.66 27.1836L836.664 27.1707L836.673 27.1018L836.681 27.0587L836.69 27.02L836.703 26.9468V26.9382L836.72 26.8564L836.724 26.8392L836.737 26.7746L836.746 26.7273L836.755 26.6928L836.767 26.6197L836.772 26.611L836.793 26.5293L836.798 26.5077L836.811 26.4518L836.823 26.4001L836.832 26.37L836.849 26.2882H836.854L836.897 26.1246L836.914 26.0729L836.918 26.0428L836.944 25.9653L836.97 25.8835L836.978 25.8534L836.996 25.8017L826.948 20.0031L816.901 14.2002L816.573 14.5446C816.014 15.0999 815.381 15.5907 814.675 15.9953L814.576 16.0556L814.555 16.0685L814.473 16.1115L814.451 16.1245L814.262 16.2192L814.249 16.2321L814.158 16.2751L813.948 16.3741L813.939 16.3828L813.844 16.4215L813.831 16.4301L813.737 16.4732H813.728L813.629 16.5162L813.625 16.5205L813.521 16.5593L813.418 16.6023H813.414L813.31 16.641V16.6453L813.207 16.6841H813.203L813.099 16.7185L813.091 16.7228L812.992 16.7573H812.988L812.884 16.7917L812.876 16.796L812.781 16.8218L812.768 16.8305L812.673 16.8563L812.66 16.8606L812.566 16.8864L812.548 16.8907L812.458 16.9166L812.441 16.9209L812.35 16.9467L812.329 16.951L812.243 16.9725L812.221 16.9768L812.135 16.9983L812.109 17.0027L812.028 17.0199L812.002 17.0285L811.92 17.0414L811.894 17.05L811.812 17.0629L811.782 17.0715L811.705 17.0844L811.67 17.0931L811.597 17.1017L811.563 17.1103L811.489 17.1189L811.451 17.1275L811.378 17.1361L811.339 17.1404L811.27 17.1533L811.231 17.1576L811.162 17.1662L811.119 17.1705L811.055 17.1748L811.007 17.1835L810.943 17.1878L810.895 17.1921L810.835 17.1964L810.788 17.2007L810.728 17.205L810.676 17.2093L810.62 17.2136H810.564L810.512 17.2179H810.456L810.4 17.2222H810.293L810.232 17.2265H809.97L809.901 17.2222H809.793L809.75 17.2179H809.681L809.643 17.2136L809.57 17.2093H809.535L809.462 17.205L809.427 17.2007L809.35 17.1964L809.32 17.1921L809.242 17.1878L809.212 17.1835L809.13 17.1748L809.105 17.1705L809.023 17.1619H808.997L808.915 17.149L808.889 17.1447L808.803 17.1318H808.786L808.696 17.1189L808.678 17.1146L808.588 17.1017L808.571 17.0974L808.48 17.0801H808.467L808.373 17.0629L808.36 17.0586L808.265 17.0414L808.257 17.0371L808.158 17.0156H808.149L808.05 16.994H808.046L807.942 16.9682H807.938L807.839 16.9424H807.835L807.731 16.9122L807.654 16.8907L807.624 16.8864L807.572 16.8735L807.495 16.8477L807.417 16.8262L807.413 16.8218L807.34 16.8003L807.309 16.7917L807.262 16.7745L807.206 16.7573L807.185 16.7487L807.111 16.7228H807.103L807 16.6841L806.956 16.6669L806.896 16.6497L806.879 16.641L806.802 16.6109L806.793 16.6066L806.728 16.5808L806.69 16.5679L806.651 16.5506L806.591 16.5248L806.578 16.5205L806.5 16.4904L806.487 16.4818L806.427 16.4559L806.388 16.4387L806.354 16.4258L806.285 16.3957L806.276 16.3914L806.203 16.3569L806.186 16.3483L806.13 16.3225L806.087 16.301L806.057 16.288L805.988 16.2536L805.984 16.2493L805.91 16.2106L805.889 16.202L805.837 16.1718L805.794 16.1503L805.764 16.1374L805.695 16.0986L805.622 16.0556L805.6 16.0427L805.549 16.0168L805.506 15.991L805.48 15.9738L805.407 15.9351L805.338 15.892L805.312 15.8748L805.269 15.849L805.217 15.8188L805.2 15.8059L805.131 15.7629L805.127 15.7586L805.062 15.7155L805.032 15.6983L804.993 15.6725L804.942 15.6337L804.925 15.6251L804.757 15.5089L804.671 15.4443L804.658 15.4314L804.589 15.384L804.58 15.3754L804.524 15.3324L804.49 15.3109L804.46 15.285L804.404 15.2377L804.395 15.2334L804.331 15.1817L804.318 15.1688L804.266 15.1257L804.232 15.0999L804.201 15.0741L804.145 15.0267L804.137 15.0181L804.077 14.9665L804.059 14.9535L804.012 14.9105L803.978 14.8761L803.952 14.8545L803.891 14.8029V14.7986L803.827 14.7426L803.767 14.6823L803.728 14.6479L803.706 14.6264L803.65 14.5661H803.646L803.59 14.5058L803.569 14.4886L803.53 14.4456L803.491 14.4068L803.474 14.3853L803.414 14.325L803.358 14.2648L803.336 14.2389L803.302 14.2002L783.207 25.7974ZM1175.52 158.326H1175.59C1175.95 158.317 1176.26 158.175 1176.48 157.952C1176.72 157.715 1176.86 157.392 1176.86 157.026C1176.86 156.664 1176.71 156.342 1176.48 156.1C1176.25 155.868 1175.92 155.726 1175.56 155.726C1175.2 155.726 1174.87 155.872 1174.64 156.105C1174.4 156.342 1174.26 156.664 1174.26 157.026C1174.26 157.392 1174.4 157.715 1174.63 157.947C1174.86 158.175 1175.17 158.317 1175.52 158.326ZM1177.47 196.067C1178.74 196.407 1179.87 197.074 1180.77 197.974C1181.67 198.873 1182.34 200.005 1182.68 201.267H1191.76C1189.64 198.8 1187.34 196.312 1184.89 193.854C1182.43 191.396 1179.94 189.101 1177.47 186.988V196.067ZM1182.68 205.098C1182.34 206.364 1181.67 207.496 1180.77 208.396C1179.87 209.295 1178.74 209.963 1177.47 210.303V219.382C1179.94 217.268 1182.43 214.969 1184.89 212.515C1187.34 210.057 1189.64 207.569 1191.76 205.098H1182.68ZM1173.64 210.303C1172.38 209.963 1171.24 209.295 1170.34 208.396C1169.45 207.496 1168.78 206.364 1168.44 205.098H1159.36C1161.48 207.569 1163.77 210.057 1166.23 212.515C1168.69 214.973 1171.17 217.268 1173.64 219.382V210.303ZM1168.44 201.267C1168.78 200.005 1169.45 198.873 1170.34 197.974C1171.24 197.074 1172.38 196.407 1173.64 196.067V186.988C1171.17 189.101 1168.69 191.396 1166.23 193.854C1163.77 196.312 1161.48 198.8 1159.36 201.267H1168.44ZM1178.06 200.681C1177.43 200.053 1176.56 199.657 1175.61 199.644H1175.51C1174.55 199.657 1173.68 200.053 1173.05 200.681C1172.42 201.318 1172.02 202.205 1172.02 203.182C1172.02 204.164 1172.42 205.051 1173.05 205.688C1173.68 206.316 1174.55 206.712 1175.51 206.725H1175.61C1176.57 206.712 1177.43 206.316 1178.06 205.688C1178.7 205.051 1179.1 204.164 1179.1 203.182C1179.1 202.205 1178.7 201.318 1178.06 200.681ZM1208.75 236.373C1205.15 239.972 1198.12 239.171 1189.66 234.965C1185.87 233.075 1181.74 230.497 1177.47 227.333V244.586C1178.12 244.849 1178.7 245.236 1179.18 245.719C1180.11 246.644 1180.69 247.931 1180.69 249.343C1180.69 250.751 1180.11 252.034 1179.19 252.964L1179.17 252.976C1178.25 253.902 1176.97 254.475 1175.56 254.475C1174.15 254.475 1172.86 253.898 1171.93 252.972L1171.82 252.847C1170.96 251.926 1170.43 250.695 1170.43 249.343C1170.43 247.931 1171 246.644 1171.93 245.719C1172.42 245.232 1173 244.845 1173.64 244.582V227.333C1169.38 230.497 1165.24 233.075 1161.45 234.965C1153 239.171 1145.97 239.972 1142.37 236.373C1138.77 232.778 1139.57 225.744 1143.78 217.289C1145.67 213.497 1148.24 209.364 1151.41 205.098H1134.16C1133.9 205.744 1133.51 206.321 1133.03 206.803L1133.02 206.816C1132.09 207.741 1130.81 208.314 1129.4 208.314C1127.99 208.314 1126.7 207.741 1125.77 206.811L1125.66 206.687C1124.8 205.765 1124.27 204.534 1124.27 203.182C1124.27 201.77 1124.84 200.483 1125.77 199.558C1126.7 198.628 1127.99 198.055 1129.4 198.055C1130.81 198.055 1132.09 198.632 1133.02 199.562C1133.51 200.044 1133.9 200.625 1134.16 201.267H1151.41C1148.24 197.005 1145.67 192.872 1143.78 189.08C1139.57 180.625 1138.77 173.591 1142.37 169.992C1145.97 166.398 1153 167.198 1161.45 171.404C1165.24 173.294 1169.38 175.868 1173.64 179.037V161.783C1173 161.525 1172.42 161.137 1171.94 160.655L1171.93 160.642C1171 159.712 1170.43 158.434 1170.43 157.026C1170.43 155.61 1171 154.327 1171.93 153.397C1172.86 152.472 1174.15 151.895 1175.56 151.895C1176.97 151.895 1178.25 152.472 1179.18 153.401C1180.11 154.327 1180.69 155.61 1180.69 157.026C1180.69 158.434 1180.11 159.717 1179.19 160.646L1179.17 160.655C1178.69 161.137 1178.12 161.525 1177.47 161.783V179.037C1181.74 175.868 1185.87 173.294 1189.66 171.404C1198.12 167.198 1205.15 166.398 1208.75 169.992C1212.35 173.591 1211.54 180.625 1207.34 189.08C1205.45 192.872 1202.87 197.005 1199.71 201.267H1216.96C1217.22 200.625 1217.61 200.049 1218.09 199.562L1218.1 199.553C1219.03 198.628 1220.31 198.055 1221.72 198.055C1223.13 198.055 1224.41 198.628 1225.34 199.562C1226.27 200.483 1226.85 201.77 1226.85 203.182C1226.85 204.594 1226.27 205.873 1225.34 206.803L1225.33 206.816C1224.4 207.741 1223.13 208.314 1221.72 208.314C1220.31 208.314 1219.03 207.741 1218.1 206.811L1218.09 206.803C1217.6 206.316 1217.22 205.74 1216.96 205.098H1199.71C1202.87 209.364 1205.45 213.497 1207.34 217.289C1211.54 225.744 1212.35 232.778 1208.75 236.373ZM1172.49 223.415C1169.5 220.931 1166.49 218.189 1163.52 215.219C1160.56 212.253 1157.81 209.239 1155.33 206.252C1151.92 210.729 1149.16 215.064 1147.21 218.994C1143.76 225.925 1142.77 231.366 1145.08 233.669C1147.38 235.968 1152.82 234.987 1159.75 231.538C1163.68 229.58 1168.02 226.829 1172.49 223.415ZM1178.63 182.954C1181.61 185.438 1184.63 188.18 1187.59 191.146C1190.56 194.116 1193.31 197.13 1195.79 200.117C1199.2 195.64 1201.96 191.305 1203.91 187.371C1207.36 180.44 1208.34 175.003 1206.04 172.7C1203.74 170.401 1198.3 171.383 1191.37 174.831C1187.44 176.79 1183.1 179.54 1178.63 182.954ZM1191.37 231.538C1198.3 234.987 1203.74 235.968 1206.04 233.669C1208.34 231.366 1207.36 225.925 1203.91 218.994C1201.96 215.06 1199.2 210.729 1195.79 206.252C1193.3 209.239 1190.56 212.253 1187.59 215.219C1184.63 218.189 1181.61 220.931 1178.63 223.411C1183.1 226.829 1187.44 229.58 1191.37 231.538ZM1172.49 182.954C1168.02 179.54 1163.68 176.79 1159.75 174.831C1152.82 171.383 1147.38 170.401 1145.08 172.7C1142.77 175.003 1143.76 180.44 1147.21 187.371C1149.16 191.305 1151.92 195.64 1155.33 200.117C1157.81 197.13 1160.56 194.116 1163.52 191.146C1166.49 188.18 1169.5 185.438 1172.49 182.954ZM1222.64 204.108C1222.87 203.876 1223.02 203.548 1223.02 203.182C1223.02 202.825 1222.87 202.498 1222.64 202.266C1222.41 202.029 1222.08 201.882 1221.72 201.882C1221.35 201.882 1221.03 202.029 1220.8 202.257C1220.57 202.485 1220.43 202.799 1220.42 203.152V203.217C1220.43 203.57 1220.57 203.884 1220.79 204.104C1221.03 204.34 1221.35 204.487 1221.72 204.487C1222.08 204.487 1222.41 204.34 1222.64 204.108ZM1130.32 204.108C1130.55 203.884 1130.69 203.57 1130.7 203.217V203.152C1130.69 202.804 1130.55 202.489 1130.32 202.266C1130.09 202.029 1129.76 201.882 1129.4 201.882C1129.04 201.882 1128.71 202.029 1128.48 202.266C1128.24 202.498 1128.1 202.825 1128.1 203.182C1128.1 203.518 1128.22 203.82 1128.42 204.043L1128.48 204.104C1128.71 204.34 1129.04 204.487 1129.4 204.487C1129.76 204.487 1130.09 204.34 1130.32 204.108ZM1176.48 248.422C1176.26 248.194 1175.95 248.052 1175.59 248.043H1175.52C1175.18 248.052 1174.86 248.198 1174.64 248.422C1174.4 248.659 1174.26 248.986 1174.26 249.343C1174.26 249.679 1174.38 249.98 1174.58 250.204L1174.64 250.264C1174.87 250.497 1175.2 250.643 1175.56 250.643C1175.92 250.643 1176.25 250.501 1176.48 250.269C1176.72 250.036 1176.86 249.709 1176.86 249.343C1176.86 248.986 1176.71 248.659 1176.48 248.422ZM993.911 28.7635L1013.05 38.4709L1013.09 38.4924L1013.1 38.4967L1013.13 38.5139L1013.15 38.5225L1013.17 38.5397L1013.21 38.5613L1013.23 38.5742L1013.25 38.5871L1013.28 38.6129L1013.3 38.6258L1013.32 38.6388L1013.34 38.656L1013.36 38.6689L1013.38 38.6818L1013.39 38.6947L1013.42 38.7119L1013.46 38.7464L1013.47 38.755L1013.49 38.7765L1013.5 38.7851L1013.56 38.8411L1013.57 38.854L1013.59 38.8755L1013.6 38.8841L1013.62 38.91L1013.63 38.9229L1013.65 38.9444L1013.66 38.9573L1013.68 38.9788L1013.69 38.9961L1013.71 39.0176L1013.72 39.0305L1013.74 39.052L1013.75 39.0692L1013.77 39.0908L1013.78 39.108L1013.8 39.151L1013.82 39.1682L1013.83 39.1898L1013.84 39.207L1013.86 39.2328L1013.88 39.2759L1013.89 39.2888L1013.9 39.3189L1013.91 39.3447L1013.92 39.3577L1013.92 39.3706L1013.94 39.4007L1013.95 39.4136L1013.95 39.4395L1013.96 39.4524V39.4567L1013.97 39.4653L1013.98 39.4911L1013.98 39.4997V39.504L1013.99 39.5169L1013.99 39.5299V39.5428H1014L1014.01 39.5858L1014.02 39.6246V39.6289L1014.03 39.6375L1014.04 39.6633V39.6719L1014.04 39.6762V39.6934L1014.04 39.7064L1014.05 39.715V39.7193L1014.06 39.7451L1014.06 39.7709L1014.07 39.7881V39.8054L1014.07 39.814L1014.08 39.8269L1014.09 39.9345V39.9431C1014.1 40.0206 1014.11 40.1024 1014.11 40.1799V64.5668C1014.11 65.3632 1013.62 66.0476 1012.93 66.3361L993.941 75.966L993.911 75.9832L993.868 76.0047H993.86L993.821 76.0219L993.816 76.0262L993.778 76.0435L993.692 76.0779H993.687L993.649 76.0908L993.644 76.0951L993.606 76.1037L993.597 76.108L993.558 76.1166L993.55 76.1209L993.515 76.1296L993.507 76.1339L993.425 76.1511H993.412L993.382 76.1554L993.364 76.1597L993.334 76.164L993.321 76.1683L993.291 76.1726H993.274L993.244 76.1769H993.227L993.201 76.1812H993.179L993.154 76.1855H992.951L992.921 76.1812H992.904L992.874 76.1769H992.857L992.826 76.1726H992.813L992.783 76.1683L992.766 76.164L992.736 76.1597L992.719 76.1554L992.689 76.1511H992.676L992.598 76.1339L992.585 76.1296L992.551 76.1209L992.542 76.1166L992.508 76.108L992.499 76.1037L992.46 76.0951L992.456 76.0908L992.413 76.0779L992.327 76.0435H992.323L992.284 76.0262L992.28 76.0219L992.241 76.0047H992.232L992.189 75.9832L992.159 75.966L973.175 66.3361C972.477 66.0476 971.991 65.3632 971.991 64.5668V40.1799C971.991 40.0938 972 40.0077 972.012 39.9216V39.9087L972.025 39.8527V39.8398L972.03 39.8269V39.814L972.038 39.7881V39.7709L972.051 39.7322V39.7193L972.06 39.6934V39.6805L972.064 39.6762L972.073 39.6504V39.6375H972.077V39.6246L972.086 39.5987L972.09 39.5901V39.5858L972.094 39.5686L972.099 39.5557H972.103V39.5428H972.107L972.12 39.504V39.4997L972.124 39.4911L972.133 39.4653L972.142 39.4524L972.15 39.4265L972.159 39.4136V39.4093L972.163 39.4007L972.167 39.3835L972.176 39.3706L972.18 39.3663V39.3577L972.189 39.3447L972.193 39.3318L972.202 39.3189L972.236 39.25L972.249 39.2328L972.271 39.1898L972.279 39.1812L972.288 39.1639L972.297 39.151L972.318 39.1166L972.322 39.108L972.331 39.0994L972.34 39.0865L972.365 39.052L972.374 39.0391L972.378 39.0305L972.4 39.009L972.409 38.9961V38.9917L972.421 38.9788L972.434 38.9616L972.46 38.9358L972.469 38.9229L972.499 38.8927V38.8841L972.508 38.8755L972.525 38.8626L972.533 38.854V38.8497L972.551 38.8368L972.615 38.7722L972.632 38.7593L972.658 38.7335L972.671 38.7248L972.688 38.7076L972.701 38.699L972.706 38.6947L972.718 38.6861L972.731 38.6732L972.744 38.6689L972.749 38.6603L972.774 38.6431L972.779 38.6388L972.792 38.6301L972.809 38.6172L972.817 38.6129L972.822 38.6086L972.839 38.6L972.852 38.5871H972.856L972.869 38.5785L972.882 38.5656L972.895 38.5613L972.899 38.557L972.934 38.5397L972.947 38.5311L972.964 38.5182L972.981 38.5096L972.994 38.501L973.011 38.4924H973.016L973.046 38.4752L973.054 38.4709L992.189 28.7635C992.753 28.4793 993.39 28.5009 993.911 28.7635ZM975.125 15.7758C975.125 16.5679 975.448 17.2868 975.964 17.8077C976.485 18.3242 977.204 18.6471 977.996 18.6471C978.793 18.6471 979.516 18.3242 980.032 17.8077C980.549 17.2868 980.872 16.5679 980.872 15.7758C980.872 15.5175 980.846 15.2936 980.799 15.0999C980.751 14.8976 980.67 14.6866 980.562 14.4757L980.523 14.3982C980.286 13.9548 979.933 13.5846 979.503 13.322C979.072 13.0551 978.556 12.9001 977.996 12.9001C977.441 12.9001 976.924 13.0551 976.494 13.322C976.042 13.5975 975.672 13.9979 975.435 14.4671C975.327 14.6866 975.245 14.8976 975.198 15.0999C975.151 15.2936 975.125 15.5175 975.125 15.7758ZM971.474 17.3126C971.358 16.8175 971.294 16.301 971.294 15.7758C971.294 15.2592 971.362 14.7383 971.487 14.2174C971.612 13.6836 971.797 13.1886 972.025 12.7409C972.589 11.6388 973.45 10.7047 974.501 10.059C975.525 9.43475 976.722 9.07314 977.996 9.07314C979.27 9.07314 980.471 9.43475 981.496 10.059C982.508 10.6832 983.347 11.5743 983.911 12.6289L983.971 12.7409C984.199 13.1886 984.385 13.6836 984.509 14.2174C984.634 14.7383 984.699 15.2592 984.699 15.7758C984.699 17.6225 983.95 19.3014 982.736 20.5111C981.518 21.7251 979.843 22.4784 977.996 22.4784C976.21 22.4784 974.582 21.7724 973.381 20.6273L956.954 30.0506L956.885 55.3932C956.885 56.4479 956.029 57.3002 954.978 57.3002C953.924 57.3002 953.071 56.4479 953.071 55.3932L953.144 29.082C953.088 28.3674 953.441 27.6571 954.1 27.2783L971.474 17.3126ZM1029.4 57.636C1029.4 58.4324 1029.72 59.1513 1030.24 59.6679L1030.31 59.7411C1030.83 60.2146 1031.51 60.5073 1032.28 60.5073C1033.07 60.5073 1033.79 60.1845 1034.31 59.6679C1034.82 59.1513 1035.15 58.4324 1035.15 57.636C1035.15 57.382 1035.12 57.1538 1035.07 56.9601C1035.03 56.7621 1034.94 56.5469 1034.84 56.3359L1034.8 56.2584C1034.56 55.8193 1034.21 55.4448 1033.78 55.1822C1033.35 54.9196 1032.83 54.7647 1032.28 54.7647C1031.72 54.7647 1031.2 54.9196 1030.77 55.1822C1030.32 55.4577 1029.95 55.8581 1029.71 56.3316C1029.6 56.5469 1029.52 56.7621 1029.47 56.9601C1029.43 57.1538 1029.4 57.382 1029.4 57.636ZM1027.54 62.3756C1026.32 61.1617 1025.57 59.4871 1025.57 57.636C1025.57 57.1237 1025.64 56.6028 1025.76 56.0776C1025.89 55.5481 1026.07 55.0488 1026.3 54.6011C1026.86 53.499 1027.73 52.5692 1028.78 51.9235C1029.28 51.6178 1029.81 51.3768 1030.39 51.2089L1030.43 32.2805L1008.51 19.5425C1007.6 19.0173 1007.29 17.8464 1007.82 16.9338C1008.35 16.0211 1009.52 15.7112 1010.43 16.2364L1033.3 29.5297C1033.95 29.8999 1034.29 30.593 1034.25 31.2861L1034.2 51.2175C1034.76 51.3854 1035.28 51.6264 1035.77 51.9235C1036.78 52.5434 1037.62 53.4345 1038.19 54.4892L1038.25 54.6011C1038.47 55.0488 1038.66 55.5481 1038.78 56.0776C1038.91 56.6028 1038.98 57.1237 1038.98 57.636C1038.98 59.4871 1038.23 61.1617 1037.01 62.3756C1035.8 63.5896 1034.12 64.3386 1032.28 64.3386C1030.49 64.3386 1028.86 63.6326 1027.65 62.4832L1027.54 62.3756ZM966.012 83.7104C966.012 84.5025 966.33 85.2214 966.851 85.7423C967.368 86.2588 968.086 86.5817 968.883 86.5817C969.679 86.5817 970.398 86.2588 970.915 85.7466C971.431 85.2214 971.754 84.5025 971.754 83.7104C971.754 83.4564 971.728 83.2282 971.681 83.0345C971.634 82.8322 971.552 82.6213 971.444 82.4103L971.41 82.3328C971.169 81.8894 970.816 81.5192 970.385 81.2566C969.955 80.994 969.438 80.8391 968.883 80.8391C968.323 80.8391 967.807 80.994 967.376 81.2566C966.924 81.5321 966.554 81.9325 966.317 82.4017C966.21 82.6213 966.128 82.8322 966.08 83.0345C966.033 83.2282 966.012 83.4564 966.012 83.7104ZM964.143 88.45C962.929 87.236 962.18 85.5572 962.18 83.7104C962.18 83.1981 962.245 82.6729 962.37 82.152C962.495 81.6182 962.68 81.1232 962.908 80.6755C963.472 79.5734 964.337 78.6393 965.387 77.9979C966.408 77.3694 967.609 77.0077 968.883 77.0077C970.157 77.0077 971.354 77.3694 972.378 77.9979C973.39 78.6178 974.229 79.5089 974.793 80.5635L974.858 80.6755C975.086 81.1232 975.267 81.6182 975.392 82.152C975.517 82.6729 975.586 83.1981 975.586 83.7104C975.586 84.2528 975.521 84.7823 975.396 85.2859L991.759 94.791L1013.75 82.1735C1014.67 81.6527 1015.84 81.9712 1016.37 82.8882C1016.89 83.8051 1016.57 84.9717 1015.65 85.4969L992.706 98.6611C992.056 99.0313 991.281 98.9839 990.7 98.5965L973.476 88.5878C972.266 89.7156 970.652 90.413 968.883 90.413C967.032 90.413 965.353 89.6597 964.143 88.45ZM1010.28 43.2923L999.637 48.6948C999.714 49.0952 999.753 49.4955 999.753 49.8916C999.753 51.7427 999.004 53.4216 997.79 54.6312C997.015 55.4061 996.046 55.9958 994.966 56.3187V71.1661L1010.28 63.3959V43.2923ZM995.581 48.5183C995.34 48.0793 994.987 47.7047 994.557 47.4421C994.126 47.1752 993.606 47.0203 993.05 47.0203C992.495 47.0203 991.978 47.1752 991.544 47.4421C991.117 47.7047 990.76 48.0793 990.523 48.5183L990.485 48.5958C990.381 48.8068 990.299 49.0177 990.252 49.22C990.205 49.4138 990.179 49.6376 990.179 49.8916C990.179 50.688 990.502 51.4069 991.018 51.9278C991.535 52.4444 992.258 52.7672 993.05 52.7672C993.847 52.7672 994.566 52.4444 995.082 51.9278C995.599 51.4069 995.922 50.688 995.922 49.8916C995.922 49.6376 995.9 49.4138 995.853 49.22C995.805 49.0177 995.724 48.8068 995.616 48.5958L995.581 48.5183ZM997.91 45.2854L1007.98 40.1799L993.05 32.612L978.13 40.1799L988.194 45.2854C988.595 44.8592 989.055 44.489 989.555 44.1791C990.579 43.5549 991.776 43.189 993.05 43.189C994.324 43.189 995.525 43.5549 996.546 44.1791C997.045 44.489 997.506 44.8592 997.91 45.2854ZM986.464 48.6948L975.822 43.2923V63.3959L991.135 71.1661V56.3187C990.054 55.9958 989.09 55.4061 988.311 54.6312C987.101 53.4216 986.348 51.7427 986.348 49.8916C986.348 49.4955 986.386 49.0952 986.464 48.6948ZM1178.13 19.663C1185.85 24.2692 1193.8 28.7032 1201.61 33.1931L1205.21 31.1096C1205 30.1324 1205.03 29.1294 1205.28 28.1823C1205.7 26.6455 1206.7 25.2636 1208.19 24.4027L1208.33 24.3295C1209.79 23.5331 1211.43 23.3781 1212.92 23.7785C1214.46 24.1874 1215.84 25.1904 1216.7 26.6799C1217.56 28.1737 1217.74 29.8698 1217.32 31.4109C1216.91 32.9435 1215.91 34.3296 1214.41 35.1906C1212.92 36.0515 1211.23 36.228 1209.69 35.8191C1208.75 35.5651 1207.86 35.0916 1207.12 34.4157L1203.51 36.4949L1203.52 63.6154L1207.13 65.6946C1207.87 65.0231 1208.75 64.5452 1209.69 64.2956C1211.18 63.8995 1212.81 64.0502 1214.27 64.8337C1214.39 64.8896 1214.5 64.9585 1214.61 65.0403C1216 65.9056 1216.93 67.2358 1217.32 68.7037C1217.74 70.2362 1217.56 71.9324 1216.7 73.4304C1215.84 74.9242 1214.46 75.9229 1212.92 76.3362C1211.38 76.7452 1209.69 76.5687 1208.19 75.712C1206.7 74.851 1205.7 73.4649 1205.28 71.928C1205.03 70.9853 1205 69.9823 1205.21 69.0051L1201.61 66.9215L1178.12 80.4731V84.6402C1179.07 84.9459 1179.92 85.4754 1180.62 86.1641C1181.75 87.3006 1182.45 88.8633 1182.45 90.5766C1182.45 92.2942 1181.75 93.8569 1180.62 94.9847L1180.5 95.0924C1179.38 96.1557 1177.87 96.81 1176.22 96.81C1174.5 96.81 1172.94 96.1126 1171.81 94.9847C1170.68 93.8526 1169.99 92.2942 1169.99 90.5766C1169.99 88.8547 1170.68 87.2963 1171.8 86.1727C1172.5 85.4797 1173.36 84.9459 1174.31 84.6402L1174.31 80.4559C1166.59 75.8454 1158.63 71.4115 1150.82 66.9215L1147.21 69.0008C1147.43 69.9823 1147.4 70.9853 1147.15 71.928C1146.73 73.4649 1145.73 74.851 1144.24 75.712L1144.1 75.7852C1142.64 76.5816 1141 76.7322 1139.51 76.3362C1137.97 75.9229 1136.59 74.9242 1135.73 73.4347C1134.87 71.941 1134.69 70.2405 1135.11 68.7037C1135.51 67.1669 1136.52 65.7807 1138.02 64.9198C1139.51 64.0631 1141.2 63.8866 1142.74 64.2956C1143.68 64.5496 1144.57 65.0231 1145.31 65.6989L1148.92 63.6154L1148.91 36.4992L1145.3 34.42C1144.56 35.0916 1143.68 35.5651 1142.74 35.8191C1141.25 36.2151 1139.62 36.0645 1138.16 35.2767C1138.04 35.2207 1137.93 35.1518 1137.82 35.0743C1136.43 34.2048 1135.5 32.8789 1135.11 31.4109C1134.69 29.8741 1134.87 28.178 1135.73 26.6842C1136.59 25.1904 1137.97 24.1874 1139.51 23.7785C1141.05 23.3652 1142.74 23.5417 1144.24 24.4027C1145.73 25.2636 1146.74 26.6498 1147.15 28.1823C1147.4 29.1294 1147.43 30.1281 1147.21 31.1096L1150.82 33.1931L1174.3 19.6415V15.4701C1173.35 15.1645 1172.5 14.635 1171.81 13.9462C1170.68 12.8097 1169.98 11.2514 1169.98 9.53807C1169.98 7.82474 1170.68 6.26639 1171.8 5.13422C1172.94 4.00205 1174.5 3.30036 1176.22 3.30036C1177.93 3.30036 1179.49 4.00205 1180.62 5.12992C1181.75 6.26639 1182.45 7.82474 1182.45 9.53807C1182.45 11.2514 1181.75 12.8097 1180.62 13.9376C1179.93 14.635 1179.08 15.1645 1178.13 15.4701V19.663ZM1167.12 42.6078C1168.04 43.1287 1168.35 44.2953 1167.83 45.2079C1167.3 46.1206 1166.13 46.4348 1165.22 45.9139L1152.74 38.7076V61.4027L1165.21 54.2007C1166.13 53.6755 1167.3 53.9855 1167.83 54.8981C1168.36 55.8107 1168.04 56.9817 1167.13 57.5068L1154.65 64.7174L1174.31 76.0693L1174.31 61.6524C1174.31 60.5977 1175.16 59.7454 1176.22 59.7454C1177.27 59.7454 1178.12 60.5977 1178.12 61.6524V76.0693L1197.79 64.7131L1185.31 57.5068C1184.4 56.9817 1184.08 55.815 1184.6 54.9024C1185.13 53.9898 1186.29 53.6755 1187.21 54.2007L1199.69 61.407V38.7076L1187.22 45.9096C1186.3 46.4391 1185.13 46.1292 1184.6 45.2165C1184.08 44.3039 1184.39 43.133 1185.3 42.6035L1197.78 35.3972L1187.95 29.7191L1178.13 24.0454V38.4623C1178.13 39.5169 1177.27 40.3779 1176.22 40.3779C1175.16 40.3779 1174.3 39.5169 1174.3 38.4623V24.0454L1154.64 35.4015L1167.12 42.6078ZM1176.22 43.8218C1177.93 43.8218 1179.49 44.5192 1180.62 45.647C1181.75 46.7835 1182.45 48.3419 1182.45 50.0552C1182.45 51.7728 1181.75 53.3269 1180.62 54.459C1179.49 55.5912 1177.93 56.2929 1176.22 56.2929C1174.5 56.2929 1172.94 55.5912 1171.81 54.4633C1170.68 53.3269 1169.98 51.7728 1169.98 50.0552C1169.98 48.3419 1170.68 46.7835 1171.8 45.6556C1172.94 44.5192 1174.5 43.8218 1176.22 43.8218ZM1177.92 48.3505C1177.49 47.92 1176.88 47.6531 1176.22 47.6531C1175.55 47.6531 1174.94 47.92 1174.51 48.3505C1174.08 48.7852 1173.81 49.3879 1173.81 50.0552C1173.81 50.7224 1174.08 51.3251 1174.51 51.7599C1174.94 52.1904 1175.55 52.4616 1176.22 52.4616C1176.88 52.4616 1177.49 52.1904 1177.92 51.7599C1178.35 51.3251 1178.62 50.7224 1178.62 50.0552C1178.62 49.3879 1178.35 48.7852 1177.92 48.3505ZM1143.16 31.0924V31.0838L1143.19 31.0407L1143.21 30.9977L1143.24 30.9589C1143.55 30.395 1143.61 29.7536 1143.45 29.1724C1143.29 28.574 1142.91 28.0359 1142.34 27.7088C1141.76 27.3773 1141.1 27.3127 1140.5 27.472C1139.94 27.6227 1139.42 27.9843 1139.08 28.5138L1138.97 28.7032C1138.7 29.2499 1138.65 29.8612 1138.8 30.4208C1138.95 30.9804 1139.29 31.4841 1139.8 31.8156L1140 31.9275C1140.55 32.2202 1141.18 32.2762 1141.75 32.1212C1142.32 31.9706 1142.83 31.6133 1143.16 31.0924ZM1138.8 69.6895C1138.64 70.2879 1138.7 70.9465 1139.04 71.5191C1139.37 72.0916 1139.91 72.4834 1140.5 72.6426C1141.06 72.789 1141.67 72.7417 1142.21 72.4705L1142.42 72.3456C1142.94 72.0141 1143.3 71.5019 1143.45 70.9422C1143.6 70.3826 1143.55 69.7713 1143.28 69.2289L1143.16 69.018C1142.82 68.4928 1142.31 68.1398 1141.75 67.9891C1141.15 67.8298 1140.49 67.8987 1139.91 68.2259C1139.35 68.5531 1138.96 69.0912 1138.8 69.6895ZM1174.51 92.2813C1174.94 92.7118 1175.55 92.9787 1176.22 92.9787C1176.85 92.9787 1177.42 92.7376 1177.85 92.3459L1177.92 92.277C1178.35 91.8422 1178.62 91.2395 1178.62 90.5766C1178.62 89.9093 1178.35 89.3024 1177.92 88.8676C1177.49 88.4371 1176.88 88.1702 1176.22 88.1702C1175.55 88.1702 1174.94 88.4371 1174.51 88.8676C1174.07 89.311 1173.8 89.9136 1173.8 90.5766C1173.8 91.2352 1174.07 91.8422 1174.51 92.2813ZM1209.26 69.0223V69.0266L1209.24 69.0696L1209.22 69.1127L1209.2 69.1385L1209.19 69.1557C1208.88 69.7154 1208.82 70.3568 1208.98 70.9422C1209.14 71.5363 1209.52 72.0787 1210.1 72.4059C1210.67 72.733 1211.33 72.8019 1211.93 72.6426C1212.5 72.4877 1213.01 72.1304 1213.35 71.5966L1213.46 71.4072C1213.73 70.8647 1213.78 70.2492 1213.63 69.6895C1213.48 69.1342 1213.13 68.6262 1212.63 68.2948L1212.43 68.1871C1211.88 67.8901 1211.25 67.8384 1210.68 67.9891C1210.11 68.1398 1209.6 68.5014 1209.26 69.0223ZM1213.63 30.4208C1213.79 29.8268 1213.72 29.1681 1213.39 28.5956C1213.06 28.0187 1212.52 27.6313 1211.93 27.472C1211.37 27.3213 1210.76 27.3687 1210.22 27.6442L1210.01 27.7647C1209.48 28.1005 1209.13 28.6128 1208.98 29.1724C1208.83 29.732 1208.88 30.3433 1209.15 30.8857L1209.27 31.0924C1209.61 31.6176 1210.12 31.9706 1210.68 32.1212C1211.28 32.2848 1211.94 32.2159 1212.52 31.8845C1213.08 31.5573 1213.47 31.0192 1213.63 30.4208ZM1177.92 7.83335C1177.49 7.40287 1176.88 7.13166 1176.22 7.13166C1175.55 7.13166 1174.94 7.40287 1174.51 7.83335C1174.08 8.26814 1173.81 8.87082 1173.81 9.53807C1173.81 10.2053 1174.08 10.808 1174.51 11.2428C1174.94 11.6733 1175.55 11.9445 1176.22 11.9445C1176.88 11.9445 1177.49 11.6733 1177.92 11.2428C1178.35 10.808 1178.62 10.2053 1178.62 9.53807C1178.62 8.87082 1178.35 8.26814 1177.92 7.83335ZM856.905 232.696L856.742 232.981C855.7 234.698 854.073 235.856 852.269 236.338C850.47 236.82 848.49 236.631 846.733 235.671C846.617 235.615 846.509 235.551 846.406 235.473C844.71 234.431 843.569 232.821 843.091 231.035C842.596 229.188 842.807 227.143 843.84 225.348C844.878 223.557 846.539 222.352 848.391 221.857C850.242 221.362 852.286 221.573 854.082 222.61L854.202 222.683C855.928 223.725 857.091 225.357 857.573 227.156C858.055 228.956 857.865 230.936 856.905 232.696ZM851.279 232.64C852.179 232.404 852.992 231.818 853.496 230.957L853.513 230.931C854.017 230.058 854.12 229.055 853.875 228.146C853.642 227.264 853.078 226.467 852.256 225.964L852.166 225.916C851.292 225.408 850.289 225.309 849.381 225.55C848.472 225.796 847.654 226.386 847.146 227.264C846.643 228.138 846.544 229.141 846.785 230.049C847.022 230.927 847.577 231.719 848.399 232.227L848.498 232.279C849.372 232.783 850.375 232.886 851.279 232.64ZM763.349 232.795C762.337 231.013 762.135 228.99 762.625 227.156C763.12 225.314 764.326 223.648 766.121 222.61C767.912 221.573 769.956 221.362 771.803 221.857C773.659 222.352 775.32 223.557 776.353 225.348C777.391 227.143 777.602 229.188 777.107 231.035C776.612 232.882 775.406 234.543 773.611 235.581C771.82 236.622 769.776 236.833 767.929 236.338C766.078 235.843 764.412 234.638 763.379 232.847L763.349 232.795ZM766.323 228.146C766.086 229.02 766.172 229.989 766.633 230.837L766.745 231.035C767.257 231.853 768.045 232.408 768.915 232.64C769.793 232.877 770.753 232.791 771.605 232.331L771.838 232.197C772.638 231.693 773.181 230.91 773.413 230.049C773.654 229.141 773.555 228.138 773.047 227.264C772.544 226.386 771.726 225.796 770.817 225.55C769.909 225.309 768.906 225.408 768.032 225.916C767.154 226.416 766.564 227.234 766.323 228.146ZM810.099 151.916C812.161 151.916 814.034 152.756 815.394 154.112C816.754 155.476 817.598 157.349 817.598 159.411C817.598 161.477 816.754 163.35 815.403 164.706C814.034 166.07 812.161 166.91 810.099 166.91C808.033 166.91 806.16 166.07 804.804 164.714C803.439 163.35 802.6 161.477 802.6 159.411C802.6 157.349 803.439 155.476 804.795 154.116C806.16 152.756 808.033 151.916 810.099 151.916ZM812.699 156.815C812.036 156.156 811.115 155.743 810.099 155.743C809.083 155.743 808.162 156.156 807.499 156.815C806.84 157.478 806.431 158.399 806.431 159.411C806.431 160.427 806.84 161.348 807.499 162.011C808.162 162.67 809.083 163.083 810.099 163.083C811.115 163.083 812.036 162.67 812.699 162.011C813.358 161.348 813.767 160.427 813.767 159.411C813.767 158.399 813.358 157.478 812.699 156.815ZM851.413 180.776C852.058 181.146 852.403 181.839 852.364 182.532L852.321 198.318C852.321 199.368 851.464 200.225 850.414 200.225C849.359 200.225 848.507 199.368 848.507 198.318L848.546 183.527L835.76 176.096C834.848 175.571 834.538 174.4 835.063 173.488C835.592 172.575 836.763 172.265 837.676 172.79L851.413 180.776ZM811.171 254.199C810.521 254.574 809.746 254.522 809.165 254.134L795.523 246.209C794.61 245.684 794.3 244.513 794.83 243.601C795.355 242.688 796.526 242.378 797.439 242.903L810.224 250.333L823.052 242.972C823.974 242.447 825.14 242.765 825.665 243.682C826.19 244.599 825.872 245.77 824.955 246.295L811.171 254.199ZM771.523 183.75L771.48 198.529C771.48 199.579 770.628 200.436 769.573 200.436C768.523 200.436 767.666 199.579 767.666 198.529L767.709 182.782C767.658 182.067 768.006 181.357 768.669 180.978L782.453 173.07C783.37 172.545 784.541 172.864 785.062 173.78C785.587 174.697 785.269 175.868 784.352 176.393L771.523 183.75ZM810.96 221L810.908 221.026H810.904L810.883 221.035L810.861 221.048L810.852 221.052L810.835 221.056L810.801 221.073L810.758 221.086L810.745 221.095H810.732L810.719 221.104L810.693 221.112H810.68L810.663 221.121H810.654L810.637 221.129H810.629L810.607 221.138H810.603L810.525 221.159H810.521L810.499 221.164H810.495L810.474 221.168H810.469L810.418 221.181H810.387V221.185H810.362L810.331 221.19V221.194H810.306L810.28 221.198H810.25L810.224 221.202H810.168L810.142 221.207H810.056L810.03 221.202H809.974L809.948 221.198H809.918L809.892 221.194H809.867V221.19L809.836 221.185H809.811V221.181H809.78L809.729 221.168H809.725L809.703 221.164H809.699L809.673 221.159L809.595 221.138H809.587L809.57 221.129H809.561L809.544 221.121H809.535L809.518 221.112H809.505L809.479 221.104L809.466 221.095H809.453L809.44 221.086L809.397 221.073L809.363 221.056L809.346 221.052L809.311 221.035L809.29 221.026L809.238 221L795.652 214.108L786.909 218.542L809.161 229.834L831.408 218.542L823.608 214.586L810.96 221ZM824.546 201.908L811.898 208.322C811.705 208.421 811.502 208.482 811.3 208.512L811.188 208.52V208.525H811.106V208.529H811.081L810.913 208.525L810.857 208.52L810.831 208.516H810.805L810.775 208.512L810.723 208.503H810.719L810.667 208.495L810.663 208.49L810.641 208.486H810.637L810.611 208.482L810.585 208.473H810.581L810.56 208.469H810.555L810.534 208.46H810.525L810.508 208.456L810.499 208.452L810.482 208.447L810.474 208.443L810.456 208.439L810.379 208.413L810.353 208.4L810.336 208.396L810.31 208.383H810.301L810.276 208.37L810.254 208.361H810.25L810.228 208.348L810.177 208.322L806.005 206.209L796.59 201.435L787.847 205.869L796.487 210.251L796.513 210.264L810.099 217.156L822.747 210.742L822.772 210.725L832.346 205.869L824.546 201.908ZM807.068 202.464L811.037 204.478L823.685 198.06L823.763 198.021L833.285 193.191L811.037 181.904L788.786 193.191L807.068 202.464Z" fill="#74BAE6"/>
</g>
</g>
<defs>
<linearGradient id="paint0_linear_2036_8864" x1="1.99199e-05" y1="3.025" x2="39.555" y2="248.246" gradientUnits="userSpaceOnUse">
<stop stop-color="#E8F6FF"/>
<stop offset="1" stop-color="#8BC1E4"/>
</linearGradient>
<clipPath id="clip0_2036_8864">
<rect width="1212" height="66" rx="8" fill="white"/>
</clipPath>
</defs>
</svg>
