<svg width="1212" height="66" viewBox="0 0 1212 66" fill="none" xmlns="http://www.w3.org/2000/svg">
<g clip-path="url(#clip0_2036_8886)">
<rect width="1212" height="66" rx="8" fill="url(#paint0_linear_2036_8886)"/>
<ellipse cx="1193.5" cy="33" rx="75.5" ry="75" fill="white" fill-opacity="0.45"/>
<path d="M1192.5 -60C1242.99 -60 1284 -18.6257 1284 32.5C1284 83.6257 1242.99 125 1192.5 125C1142.01 125 1101 83.6257 1101 32.5C1101 -18.6257 1142.01 -60 1192.5 -60Z" stroke="white" stroke-opacity="0.47" stroke-width="8"/>
<path d="M1192.5 -83.5C1255.99 -83.5 1307.5 -31.5928 1307.5 32.5C1307.5 96.5928 1255.99 148.5 1192.5 148.5C1129.01 148.5 1077.5 96.5928 1077.5 32.5C1077.5 -31.5928 1129.01 -83.5 1192.5 -83.5Z" stroke="white" stroke-opacity="0.34" stroke-width="7"/>
<path d="M1192.5 -108.5C1269.81 -108.5 1332.5 -45.3821 1332.5 32.5C1332.5 110.382 1269.81 173.5 1192.5 173.5C1115.19 173.5 1052.5 110.382 1052.5 32.5C1052.5 -45.3821 1115.19 -108.5 1192.5 -108.5Z" stroke="white" stroke-opacity="0.2" stroke-width="3"/>
<path d="M25.54 40.14L21.96 29.42C21.8 28.9267 21.6733 28.5067 21.58 28.16C21.4867 27.8 21.4267 27.5 21.4 27.26C21.1733 27.2733 20.96 27.2867 20.76 27.3C20.5733 27.3 20.3933 27.3067 20.22 27.32V26H25.78V27.1C25.1933 27.1 24.7933 27.22 24.58 27.46C24.38 27.7 24.3733 28.1533 24.56 28.82C24.76 29.62 24.9733 30.3933 25.2 31.14C25.4267 31.8867 25.6467 32.6467 25.86 33.42C26.0067 33.9267 26.14 34.4 26.26 34.84C26.3933 35.2667 26.5333 35.8 26.68 36.44H26.72C26.7733 36.24 26.8467 35.9667 26.94 35.62C27.0333 35.2733 27.1333 34.9133 27.24 34.54C27.36 34.1667 27.46 33.8267 27.54 33.52C27.6333 33.2 27.7 32.9667 27.74 32.82C28.0067 31.9667 28.2667 31.1333 28.52 30.32C28.7867 29.4933 29.0333 28.7133 29.26 27.98C29.5 27.2333 29.7067 26.5667 29.88 25.98H31.28C31.4533 26.54 31.64 27.14 31.84 27.78C32.04 28.4067 32.2467 29.0533 32.46 29.72C32.6733 30.3733 32.88 31.02 33.08 31.66C33.28 32.2867 33.4667 32.8667 33.64 33.4C33.8 33.9067 33.9467 34.42 34.08 34.94C34.2267 35.46 34.3667 35.9867 34.5 36.52H34.54C34.66 36.1067 34.78 35.6733 34.9 35.22C35.0333 34.7667 35.1733 34.3 35.32 33.82C35.4933 33.26 35.6467 32.7533 35.78 32.3C35.9133 31.8467 36.0333 31.4333 36.14 31.06C36.26 30.6733 36.3667 30.3133 36.46 29.98C36.5533 29.6333 36.6467 29.2933 36.74 28.96C36.82 28.6667 36.92 28.3667 37.04 28.06C37.1733 27.74 37.3267 27.4733 37.5 27.26C37.2733 27.2733 37 27.2867 36.68 27.3C36.3733 27.3 36.1267 27.3067 35.94 27.32V26H40.3V27.1C39.9533 27.1267 39.6467 27.2133 39.38 27.36C39.1267 27.4933 38.8933 27.7333 38.68 28.08C38.4667 28.4133 38.26 28.8933 38.06 29.52C37.5 31.3067 36.94 33.0867 36.38 34.86C35.82 36.62 35.2533 38.38 34.68 40.14H33.3L30.7 32.48C30.5533 32.0133 30.42 31.56 30.3 31.12C30.1933 30.68 30.08 30.2533 29.96 29.84C29.88 30.2533 29.7867 30.6533 29.68 31.04C29.5867 31.4267 29.48 31.8267 29.36 32.24L26.88 40.14H25.54ZM44.7639 40.32C43.8172 40.32 42.9572 40.1133 42.1839 39.7C41.4106 39.2733 40.7972 38.68 40.3439 37.92C39.9039 37.1467 39.6839 36.2467 39.6839 35.22C39.6839 34.14 39.9106 33.18 40.3639 32.34C40.8172 31.5 41.4239 30.8467 42.1839 30.38C42.9572 29.9133 43.8039 29.68 44.7239 29.68C45.6706 29.68 46.5239 29.8933 47.2839 30.32C48.0439 30.7467 48.6439 31.34 49.0839 32.1C49.5372 32.86 49.7639 33.76 49.7639 34.8C49.7639 35.8933 49.5439 36.86 49.1039 37.7C48.6772 38.5267 48.0839 39.1733 47.3239 39.64C46.5772 40.0933 45.7239 40.32 44.7639 40.32ZM44.8639 39.1C45.4639 39.1 45.9239 38.9133 46.2439 38.54C46.5639 38.1667 46.7839 37.6933 46.9039 37.12C47.0372 36.5333 47.1039 35.9333 47.1039 35.32C47.1039 34.8 47.0572 34.2733 46.9639 33.74C46.8839 33.2067 46.7506 32.7267 46.5639 32.3C46.3772 31.86 46.1306 31.5133 45.8239 31.26C45.5172 30.9933 45.1439 30.86 44.7039 30.86C44.1172 30.8733 43.6506 31.0667 43.3039 31.44C42.9572 31.8133 42.7039 32.2867 42.5439 32.86C42.3972 33.4333 42.3239 34.04 42.3239 34.68C42.3239 35.4 42.4106 36.1067 42.5839 36.8C42.7572 37.48 43.0306 38.04 43.4039 38.48C43.7772 38.9067 44.2639 39.1133 44.8639 39.1ZM51.2892 38.94C51.6759 38.94 51.9492 38.86 52.1092 38.7C52.2692 38.5267 52.3692 38.2867 52.4092 37.98C52.4492 37.6733 52.4692 37.3267 52.4692 36.94V33.18C52.4692 32.94 52.4759 32.6867 52.4892 32.42C52.5026 32.1533 52.5226 31.88 52.5492 31.6C52.3226 31.6133 52.0759 31.6267 51.8092 31.64C51.5426 31.64 51.3226 31.6467 51.1492 31.66V30.38H51.8892C52.4226 30.38 52.8692 30.32 53.2292 30.2C53.5892 30.0667 53.8426 29.9333 53.9892 29.8H54.8292C54.8559 29.96 54.8759 30.2133 54.8892 30.56C54.9026 30.9067 54.9092 31.2533 54.9092 31.6C55.2159 31.2 55.5359 30.86 55.8692 30.58C56.2026 30.2867 56.5426 30.0667 56.8892 29.92C57.2492 29.76 57.6159 29.68 57.9892 29.68C58.4159 29.68 58.7892 29.8 59.1092 30.04C59.4426 30.28 59.6092 30.6667 59.6092 31.2C59.6092 31.3733 59.5626 31.56 59.4692 31.76C59.3892 31.96 59.2559 32.1267 59.0692 32.26C58.8959 32.3933 58.6559 32.46 58.3492 32.46C58.0692 32.46 57.8026 32.3733 57.5492 32.2C57.3092 32.0133 57.1826 31.72 57.1692 31.32C56.8892 31.3067 56.5959 31.4067 56.2892 31.62C55.9959 31.8333 55.7292 32.0933 55.4892 32.4C55.2492 32.7067 55.0626 33.02 54.9292 33.34L54.9492 37.14C54.9492 37.3533 54.9426 37.6133 54.9292 37.92C54.9159 38.2133 54.8959 38.5 54.8692 38.78C55.0826 38.7533 55.3092 38.74 55.5492 38.74C55.7892 38.7267 55.9892 38.72 56.1492 38.72V40H51.2892V38.94ZM60.1498 40V38.94C60.5365 38.94 60.8098 38.86 60.9698 38.7C61.1432 38.5267 61.2498 38.2867 61.2898 37.98C61.3298 37.6733 61.3498 37.3267 61.3498 36.94V28.3C61.3498 28.0733 61.3565 27.8267 61.3698 27.56C61.3832 27.28 61.4032 26.9933 61.4298 26.7C61.2032 26.7133 60.9565 26.7267 60.6898 26.74C60.4232 26.7533 60.1965 26.7667 60.0098 26.78V25.48C60.6232 25.48 61.1232 25.4533 61.5098 25.4C61.8965 25.3333 62.1965 25.2533 62.4098 25.16C62.6365 25.0667 62.7965 24.98 62.8898 24.9H63.8098V34.14H64.7098L66.4898 32.18C66.6765 31.98 66.8365 31.8067 66.9698 31.66C67.1165 31.5 67.2632 31.3667 67.4098 31.26L66.2498 31.28V30H70.4498V31.06C69.9965 31.1 69.5832 31.22 69.2098 31.42C68.8365 31.6067 68.5098 31.8267 68.2298 32.08C67.9498 32.3333 67.7032 32.5733 67.4898 32.8L66.1298 34.32C66.3432 34.4133 66.5432 34.5533 66.7298 34.74C66.9298 34.9267 67.1565 35.18 67.4098 35.5L68.7698 37.28C68.8498 37.3733 68.9565 37.5133 69.0898 37.7C69.2365 37.8733 69.3965 38.06 69.5698 38.26C69.7565 38.4467 69.9565 38.6067 70.1698 38.74C70.3832 38.8733 70.5965 38.94 70.8098 38.94V40H68.6698C68.2565 40 67.8832 39.84 67.5498 39.52C67.2298 39.1867 66.8698 38.7533 66.4698 38.22C66.2032 37.8467 65.9365 37.4733 65.6698 37.1C65.4032 36.7133 65.1565 36.3667 64.9298 36.06C64.7165 35.74 64.5365 35.4933 64.3898 35.32L63.8098 35.34V37.14C63.8098 37.3533 63.8032 37.6133 63.7898 37.92C63.7765 38.2133 63.7565 38.5 63.7298 38.78C63.9432 38.7533 64.1698 38.74 64.4098 38.74C64.6498 38.7267 64.8565 38.72 65.0298 38.72V40H60.1498ZM73.1738 29.48C73.1738 27.9067 73.5004 26.7467 74.1538 26C74.8071 25.24 75.7538 24.86 76.9938 24.86C77.5138 24.86 77.9471 24.94 78.2938 25.1C78.6538 25.2467 78.9271 25.4467 79.1138 25.7C79.3004 25.9533 79.3938 26.2333 79.3938 26.54C79.3938 26.8467 79.3004 27.12 79.1138 27.36C78.9271 27.6 78.6538 27.72 78.2938 27.72C77.9338 27.7333 77.6604 27.6333 77.4738 27.42C77.2871 27.2067 77.1938 26.9667 77.1938 26.7C77.1938 26.62 77.2004 26.5467 77.2138 26.48C77.2271 26.4133 77.2404 26.34 77.2538 26.26C77.1871 26.18 77.0938 26.1267 76.9737 26.1C76.8671 26.06 76.7671 26.04 76.6738 26.04C76.3938 26.04 76.1738 26.1267 76.0138 26.3C75.8538 26.46 75.7471 26.66 75.6938 26.9C75.6404 27.14 75.6138 27.3933 75.6138 27.66V30H77.9938V31.28L75.6138 31.34L75.6338 37.12C75.6338 37.3333 75.6271 37.5933 75.6138 37.9C75.6138 38.2067 75.5938 38.5 75.5538 38.78C75.7804 38.7533 76.0204 38.74 76.2738 38.74C76.5404 38.7267 76.7538 38.72 76.9138 38.72V40H71.9938V38.94C72.3804 38.94 72.6538 38.86 72.8138 38.7C72.9871 38.5267 73.0938 38.2867 73.1338 37.98C73.1738 37.6733 73.1938 37.3267 73.1938 36.94L73.1738 31.38L71.6538 31.4V30H73.1738V29.48ZM83.9241 40.32C82.9774 40.32 82.1174 40.1133 81.3441 39.7C80.5707 39.2733 79.9574 38.68 79.5041 37.92C79.0641 37.1467 78.8441 36.2467 78.8441 35.22C78.8441 34.14 79.0707 33.18 79.5241 32.34C79.9774 31.5 80.5841 30.8467 81.3441 30.38C82.1174 29.9133 82.9641 29.68 83.8841 29.68C84.8307 29.68 85.6841 29.8933 86.4441 30.32C87.2041 30.7467 87.8041 31.34 88.2441 32.1C88.6974 32.86 88.9241 33.76 88.9241 34.8C88.9241 35.8933 88.7041 36.86 88.2641 37.7C87.8374 38.5267 87.2441 39.1733 86.4841 39.64C85.7374 40.0933 84.8841 40.32 83.9241 40.32ZM84.0241 39.1C84.6241 39.1 85.0841 38.9133 85.4041 38.54C85.7241 38.1667 85.9441 37.6933 86.0641 37.12C86.1974 36.5333 86.2641 35.9333 86.2641 35.32C86.2641 34.8 86.2174 34.2733 86.1241 33.74C86.0441 33.2067 85.9107 32.7267 85.7241 32.3C85.5374 31.86 85.2907 31.5133 84.9841 31.26C84.6774 30.9933 84.3041 30.86 83.8641 30.86C83.2774 30.8733 82.8107 31.0667 82.4641 31.44C82.1174 31.8133 81.8641 32.2867 81.7041 32.86C81.5574 33.4333 81.4841 34.04 81.4841 34.68C81.4841 35.4 81.5707 36.1067 81.7441 36.8C81.9174 37.48 82.1907 38.04 82.5641 38.48C82.9374 38.9067 83.4241 39.1133 84.0241 39.1ZM90.4494 38.94C90.836 38.94 91.1094 38.86 91.2694 38.7C91.4294 38.5267 91.5294 38.2867 91.5694 37.98C91.6094 37.6733 91.6294 37.3267 91.6294 36.94V33.18C91.6294 32.94 91.636 32.6867 91.6494 32.42C91.6627 32.1533 91.6827 31.88 91.7094 31.6C91.4827 31.6133 91.236 31.6267 90.9694 31.64C90.7027 31.64 90.4827 31.6467 90.3094 31.66V30.38H91.0494C91.5827 30.38 92.0294 30.32 92.3894 30.2C92.7494 30.0667 93.0027 29.9333 93.1494 29.8H93.9894C94.016 29.96 94.036 30.2133 94.0494 30.56C94.0627 30.9067 94.0694 31.2533 94.0694 31.6C94.376 31.2 94.696 30.86 95.0294 30.58C95.3627 30.2867 95.7027 30.0667 96.0494 29.92C96.4094 29.76 96.776 29.68 97.1494 29.68C97.576 29.68 97.9494 29.8 98.2694 30.04C98.6027 30.28 98.7694 30.6667 98.7694 31.2C98.7694 31.3733 98.7227 31.56 98.6294 31.76C98.5494 31.96 98.416 32.1267 98.2294 32.26C98.056 32.3933 97.816 32.46 97.5094 32.46C97.2294 32.46 96.9627 32.3733 96.7094 32.2C96.4694 32.0133 96.3427 31.72 96.3294 31.32C96.0494 31.3067 95.756 31.4067 95.4494 31.62C95.156 31.8333 94.8894 32.0933 94.6494 32.4C94.4094 32.7067 94.2227 33.02 94.0894 33.34L94.1094 37.14C94.1094 37.3533 94.1027 37.6133 94.0894 37.92C94.076 38.2133 94.056 38.5 94.0294 38.78C94.2427 38.7533 94.4694 38.74 94.7094 38.74C94.9494 38.7267 95.1494 38.72 95.3094 38.72V40H90.4494V38.94ZM104.35 40.32C103.457 40.32 102.63 40.12 101.87 39.72C101.124 39.32 100.524 38.74 100.07 37.98C99.6305 37.2067 99.4105 36.28 99.4105 35.2C99.4105 34.4667 99.5371 33.7733 99.7905 33.12C100.044 32.4533 100.397 31.8667 100.85 31.36C101.317 30.84 101.87 30.4333 102.51 30.14C103.15 29.8333 103.857 29.68 104.63 29.68C105.444 29.68 106.13 29.8067 106.69 30.06C107.25 30.3 107.677 30.6267 107.97 31.04C108.264 31.44 108.41 31.8667 108.41 32.32C108.41 32.68 108.304 32.9933 108.09 33.26C107.89 33.5267 107.597 33.6667 107.21 33.68C106.757 33.6933 106.437 33.5667 106.25 33.3C106.077 33.02 105.99 32.76 105.99 32.52C105.99 32.3867 106.01 32.2467 106.05 32.1C106.09 31.94 106.157 31.7933 106.25 31.66C106.157 31.42 106.004 31.2467 105.79 31.14C105.577 31.02 105.357 30.94 105.13 30.9C104.904 30.86 104.724 30.8467 104.59 30.86C103.857 30.8867 103.25 31.22 102.77 31.86C102.29 32.5 102.05 33.4333 102.05 34.66C102.05 35.3933 102.15 36.0733 102.35 36.7C102.564 37.3133 102.884 37.8133 103.31 38.2C103.737 38.5733 104.284 38.7667 104.95 38.78C105.537 38.7933 106.104 38.6533 106.65 38.36C107.197 38.0533 107.644 37.66 107.99 37.18L108.79 37.92C108.35 38.5467 107.877 39.0333 107.37 39.38C106.864 39.7267 106.35 39.9667 105.83 40.1C105.324 40.2467 104.83 40.32 104.35 40.32ZM114.78 40.32C113.82 40.32 112.967 40.1067 112.22 39.68C111.473 39.24 110.893 38.6267 110.48 37.84C110.067 37.04 109.86 36.1 109.86 35.02C109.86 34.0867 110.067 33.2133 110.48 32.4C110.893 31.5867 111.473 30.9333 112.22 30.44C112.98 29.9333 113.86 29.68 114.86 29.68C115.42 29.68 115.96 29.76 116.48 29.92C117 30.08 117.467 30.3467 117.88 30.72C118.293 31.0933 118.62 31.5867 118.86 32.2C119.113 32.8133 119.233 33.56 119.22 34.44L112.5 34.56C112.5 35.3867 112.593 36.12 112.78 36.76C112.98 37.3867 113.3 37.8867 113.74 38.26C114.18 38.62 114.76 38.8 115.48 38.8C115.8 38.8 116.14 38.7467 116.5 38.64C116.873 38.52 117.24 38.3467 117.6 38.12C117.96 37.88 118.28 37.5867 118.56 37.24L119.32 37.94C118.88 38.58 118.393 39.0733 117.86 39.42C117.327 39.7667 116.793 40 116.26 40.12C115.727 40.2533 115.233 40.32 114.78 40.32ZM112.6 33.36H116.76C116.747 32.8267 116.667 32.38 116.52 32.02C116.387 31.6467 116.187 31.3667 115.92 31.18C115.653 30.98 115.327 30.88 114.94 30.88C114.287 30.88 113.76 31.1 113.36 31.54C112.973 31.9667 112.72 32.5733 112.6 33.36ZM130.475 40.32C129.902 40.32 129.329 40.2467 128.755 40.1C128.195 39.9533 127.689 39.7333 127.235 39.44C126.782 39.1333 126.415 38.74 126.135 38.26C125.869 37.78 125.735 37.2067 125.735 36.54C125.735 35.6467 126.029 34.86 126.615 34.18C127.202 33.5 127.955 32.98 128.875 32.62C128.435 32.1267 128.095 31.6733 127.855 31.26C127.629 30.8467 127.475 30.4533 127.395 30.08C127.315 29.6933 127.275 29.3067 127.275 28.92C127.289 27.9333 127.642 27.1467 128.335 26.56C129.029 25.9733 129.935 25.68 131.055 25.68C131.749 25.68 132.349 25.82 132.855 26.1C133.375 26.38 133.775 26.7467 134.055 27.2C134.335 27.6533 134.475 28.1533 134.475 28.7C134.475 29.2333 134.349 29.74 134.095 30.22C133.842 30.6867 133.489 31.1267 133.035 31.54C132.582 31.94 132.062 32.3067 131.475 32.64C131.622 32.8 131.875 33.0667 132.235 33.44C132.595 33.8133 133.009 34.2267 133.475 34.68C133.942 35.1333 134.402 35.5733 134.855 36C134.909 35.8133 134.942 35.6267 134.955 35.44C134.982 35.2533 134.995 35.0733 134.995 34.9C134.995 34.5533 134.955 34.26 134.875 34.02C134.795 33.78 134.662 33.5933 134.475 33.46C134.302 33.3133 134.069 33.2333 133.775 33.22V32.16H137.195V33.42L135.895 33.36C136.015 33.52 136.102 33.72 136.155 33.96C136.222 34.1867 136.255 34.44 136.255 34.72C136.255 35.0667 136.222 35.4267 136.155 35.8C136.102 36.1733 136.009 36.54 135.875 36.9C135.955 36.9667 136.035 37.0467 136.115 37.14C136.209 37.22 136.302 37.3 136.395 37.38C136.942 37.8467 137.429 38.22 137.855 38.5C138.295 38.7667 138.635 38.9 138.875 38.9V40H136.835C136.729 40 136.482 39.8933 136.095 39.68C135.709 39.4667 135.242 39.1333 134.695 38.68C134.215 39.1733 133.622 39.5733 132.915 39.88C132.209 40.1733 131.395 40.32 130.475 40.32ZM130.995 39.04C131.609 39.0533 132.149 38.9533 132.615 38.74C133.082 38.5267 133.475 38.2467 133.795 37.9C133.649 37.7667 133.502 37.64 133.355 37.52C133.222 37.3867 133.082 37.2533 132.935 37.12C132.122 36.36 131.442 35.7067 130.895 35.16C130.349 34.6 129.862 34.0733 129.435 33.58C129.115 33.7933 128.869 34.06 128.695 34.38C128.522 34.6867 128.395 34.9933 128.315 35.3C128.249 35.6067 128.215 35.8733 128.215 36.1C128.215 36.74 128.335 37.28 128.575 37.72C128.815 38.16 129.142 38.4867 129.555 38.7C129.969 38.9133 130.449 39.0267 130.995 39.04ZM130.715 31.76C131.302 31.3467 131.742 30.8467 132.035 30.26C132.329 29.66 132.475 29.1267 132.475 28.66C132.475 28.1267 132.342 27.6867 132.075 27.34C131.809 26.9933 131.435 26.82 130.955 26.82C130.515 26.82 130.149 26.9933 129.855 27.34C129.562 27.6733 129.415 28.16 129.415 28.8C129.415 29.2667 129.542 29.7667 129.795 30.3C130.049 30.8333 130.355 31.32 130.715 31.76ZM145.044 40V38.9C145.417 38.8867 145.704 38.8267 145.904 38.72C146.104 38.6 146.244 38.4 146.324 38.12C146.404 37.8267 146.444 37.4267 146.444 36.92V28.94C146.444 28.6067 146.451 28.2867 146.464 27.98C146.491 27.6733 146.511 27.4333 146.524 27.26C146.297 27.2733 146.037 27.2867 145.744 27.3C145.451 27.3 145.217 27.3067 145.044 27.32V26H150.364V27.1C150.004 27.1133 149.717 27.18 149.504 27.3C149.304 27.4067 149.164 27.6 149.084 27.88C149.004 28.16 148.964 28.56 148.964 29.08V32.26H155.004V28.94C155.004 28.6067 155.011 28.2867 155.024 27.98C155.037 27.6733 155.057 27.4333 155.084 27.26C154.857 27.2733 154.597 27.2867 154.304 27.3C154.011 27.3 153.777 27.3067 153.604 27.32V26H158.924V27.1C158.564 27.1133 158.277 27.18 158.064 27.3C157.864 27.4067 157.724 27.6 157.644 27.88C157.564 28.16 157.524 28.56 157.524 29.08V37.02C157.524 37.38 157.517 37.7133 157.504 38.02C157.491 38.3267 157.471 38.5667 157.444 38.74C157.671 38.7267 157.931 38.7133 158.224 38.7C158.531 38.6867 158.764 38.68 158.924 38.68V40H153.604V38.9C153.977 38.8867 154.264 38.8267 154.464 38.72C154.664 38.6 154.804 38.4 154.884 38.12C154.964 37.8267 155.004 37.4267 155.004 36.92V33.54L148.964 33.62V37.02C148.964 37.38 148.957 37.7133 148.944 38.02C148.931 38.3267 148.911 38.5667 148.884 38.74C149.111 38.7267 149.371 38.7133 149.664 38.7C149.957 38.6867 150.191 38.68 150.364 38.68V40H145.044ZM161.001 40V38.9C161.374 38.8867 161.661 38.8267 161.861 38.72C162.061 38.6 162.201 38.4 162.281 38.12C162.361 37.8267 162.401 37.4267 162.401 36.92V28.94C162.401 28.6067 162.408 28.2867 162.421 27.98C162.448 27.6733 162.468 27.4333 162.481 27.26C162.254 27.2733 161.994 27.2867 161.701 27.3C161.408 27.3 161.174 27.3067 161.001 27.32V26C161.881 25.9867 162.761 25.98 163.641 25.98C164.534 25.9667 165.421 25.96 166.301 25.96C167.514 25.96 168.541 26.1 169.381 26.38C170.234 26.66 170.874 27.1 171.301 27.7C171.741 28.2867 171.954 29.06 171.941 30.02C171.928 30.5667 171.801 31.1 171.561 31.62C171.321 32.14 170.941 32.6 170.421 33C169.901 33.4 169.208 33.7133 168.341 33.94C168.594 34.0733 168.834 34.2667 169.061 34.52C169.301 34.7733 169.521 35.0533 169.721 35.36L170.801 37.02C171.068 37.4333 171.314 37.78 171.541 38.06C171.768 38.3267 172.001 38.5333 172.241 38.68C172.481 38.8133 172.768 38.8867 173.101 38.9V40H170.061C169.781 39.7733 169.514 39.4933 169.261 39.16C169.021 38.8267 168.768 38.44 168.501 38L167.061 35.7C166.888 35.42 166.721 35.16 166.561 34.92C166.414 34.6667 166.248 34.4533 166.061 34.28C165.848 34.2933 165.654 34.3 165.481 34.3C165.308 34.3 165.121 34.2933 164.921 34.28V37C164.921 37.3733 164.914 37.7133 164.901 38.02C164.888 38.3267 164.868 38.5667 164.841 38.74C164.988 38.7267 165.161 38.72 165.361 38.72C165.574 38.7067 165.781 38.7 165.981 38.7C166.181 38.6867 166.341 38.68 166.461 38.68V40H161.001ZM165.961 33.08C166.708 33.0667 167.321 32.9533 167.801 32.74C168.294 32.5267 168.661 32.1933 168.901 31.74C169.154 31.2867 169.281 30.7067 169.281 30C169.281 29.4 169.188 28.9133 169.001 28.54C168.828 28.1667 168.588 27.88 168.281 27.68C167.988 27.48 167.661 27.3467 167.301 27.28C166.954 27.2 166.608 27.16 166.261 27.16C165.914 27.16 165.641 27.2133 165.441 27.32C165.241 27.4267 165.101 27.62 165.021 27.9C164.954 28.1667 164.921 28.5333 164.921 29V33.02C165.081 33.0333 165.248 33.0467 165.421 33.06C165.594 33.0733 165.774 33.08 165.961 33.08Z" fill="#1A1A1A"/>
<path d="M1188.51 25.1597C1188.51 25.1608 1188.51 25.1608 1188.51 25.1619L1155.02 36.1556C1155.01 36.1567 1155.01 36.1577 1155.01 36.1577C1154.1 36.4575 1153.11 35.942 1152.81 35.01C1152.5 34.0796 1152.99 33.083 1153.89 32.781C1153.9 32.78 1153.9 32.78 1153.9 32.7789L1153.92 32.7703C1153.93 32.7693 1153.93 32.7682 1153.93 32.7671C1156.35 31.964 1156.88 30.524 1157.94 27.077C1160.18 19.8656 1164.02 17.6469 1167.14 16.5414C1167.17 16.5263 1167.21 16.5151 1167.26 16.498C1170.45 15.5375 1174.88 15.0233 1180.96 19.5952C1182.71 20.9131 1184.73 21.6782 1186.66 21.7461C1187.02 21.7577 1187.38 21.7468 1187.75 21.7075C1188.63 21.6146 1189.45 22.2202 1189.65 23.1087C1189.84 23.9955 1189.35 24.8803 1188.51 25.1597ZM1160.46 30.6256L1181.15 23.8342C1180.38 23.4409 1179.63 22.9744 1178.92 22.4414C1174.15 18.8574 1171.02 19.0869 1168.34 19.8886C1165.71 20.8187 1163.03 22.4854 1161.27 28.1895C1161 29.0345 1160.75 29.8526 1160.46 30.6256Z" fill="#86D2C8"/>
<path d="M1208.62 29.1122L1204.55 16.8866C1204.26 16.0052 1203.32 15.5229 1202.46 15.8093L1138.29 37.1787C1137.43 37.4651 1136.97 38.4118 1137.27 39.2931L1141.41 51.7297L1208.62 29.1122Z" fill="#86D2C8"/>
<path d="M1209.41 30.6886L1219.69 61.5717C1219.99 62.4463 1219.52 63.3891 1218.65 63.6775L1154.03 85.1964C1153.17 85.4848 1152.23 85.0096 1151.94 84.135L1141.72 53.4612L1167.92 44.6459L1170.13 47.1983C1172.11 49.4949 1175.27 50.3671 1178.12 49.4079L1178.71 49.211C1181.6 48.2419 1183.59 45.5976 1183.76 42.5334L1183.93 39.2658L1209.41 30.6886Z" fill="#86D2C8"/>
</g>
<defs>
<linearGradient id="paint0_linear_2036_8886" x1="18.18" y1="1.375" x2="54.108" y2="235.576" gradientUnits="userSpaceOnUse">
<stop stop-color="#D7FBF6"/>
<stop offset="1" stop-color="#ACE7DE"/>
</linearGradient>
<clipPath id="clip0_2036_8886">
<rect width="1212" height="66" rx="8" fill="white"/>
</clipPath>
</defs>
</svg>
