<svg width="13" height="18" viewBox="0 0 13 18" fill="none" xmlns="http://www.w3.org/2000/svg">
<path id="Vector" d="M7.21306 7.13813C7.33218 6.7879 7.83684 6.7879 7.95597 7.13813L8.65448 9.19387C8.80823 9.64578 9.06727 10.0564 9.41108 10.3931C9.75488 10.7299 10.174 10.9835 10.6352 11.1339L12.7318 11.8185C13.0892 11.9352 13.0892 12.4298 12.7318 12.5465L10.6341 13.2311C10.173 13.3817 9.75403 13.6356 9.41041 13.9725C9.06679 14.3095 8.80798 14.7202 8.65448 15.1722L7.95597 17.2269C7.93028 17.3036 7.88054 17.3703 7.81384 17.4177C7.74713 17.465 7.66687 17.4905 7.58451 17.4905C7.50215 17.4905 7.42189 17.465 7.35519 17.4177C7.28848 17.3703 7.23874 17.3036 7.21306 17.2269L6.51455 15.1711C6.3609 14.7193 6.10203 14.3088 5.75841 13.9721C5.4148 13.6353 4.9959 13.3816 4.53489 13.2311L2.4372 12.5465C2.35894 12.5214 2.29079 12.4726 2.24248 12.4072C2.19417 12.3419 2.16816 12.2632 2.16816 12.1825C2.16816 12.1018 2.19417 12.0231 2.24248 11.9578C2.29079 11.8924 2.35894 11.8436 2.4372 11.8185L4.53489 11.1339C4.9959 10.9834 5.4148 10.7297 5.75841 10.3929C6.10203 10.0562 6.3609 9.64566 6.51455 9.19387L7.21306 7.13813ZM3.02958 1.72655C3.04511 1.68059 3.07502 1.6406 3.11507 1.61225C3.15512 1.5839 3.20326 1.56864 3.25267 1.56864C3.30207 1.56864 3.35021 1.5839 3.39026 1.61225C3.43031 1.6406 3.46023 1.68059 3.47576 1.72655L3.89486 2.95978C4.08221 3.50954 4.5219 3.94043 5.08287 4.12403L6.34127 4.53476C6.38817 4.54998 6.42898 4.57929 6.45791 4.61854C6.48683 4.65779 6.5024 4.70497 6.5024 4.75339C6.5024 4.8018 6.48683 4.84898 6.45791 4.88823C6.42898 4.92748 6.38817 4.95679 6.34127 4.97201L5.08287 5.38274C4.8062 5.47307 4.5548 5.62531 4.3486 5.8274C4.14239 6.02948 3.98704 6.27585 3.89486 6.54699L3.47576 7.78022C3.46023 7.82618 3.43031 7.86617 3.39026 7.89452C3.35021 7.92287 3.30207 7.93813 3.25267 7.93813C3.20326 7.93813 3.15512 7.92287 3.11507 7.89452C3.07502 7.86617 3.04511 7.82618 3.02958 7.78022L2.61047 6.54699C2.51829 6.27585 2.36294 6.02948 2.15674 5.8274C1.95053 5.62531 1.69913 5.47307 1.42246 5.38274L0.16406 4.97201C0.117162 4.95679 0.0763506 4.92748 0.0474246 4.88823C0.0184987 4.84898 0.00292969 4.8018 0.00292969 4.75339C0.00292969 4.70497 0.0184987 4.65779 0.0474246 4.61854C0.0763506 4.57929 0.117162 4.54998 0.16406 4.53476L1.42246 4.12403C1.69913 4.0337 1.95053 3.88146 2.15674 3.67937C2.36294 3.47729 2.51829 3.23092 2.61047 2.95978L3.02958 1.72655ZM10.685 0.613245C10.6957 0.583026 10.7158 0.556822 10.7423 0.538277C10.7689 0.519731 10.8008 0.509766 10.8334 0.509766C10.866 0.509766 10.8979 0.519731 10.9244 0.538277C10.951 0.556822 10.9711 0.583026 10.9818 0.613245L11.2612 1.43469C11.3857 1.8019 11.6792 2.08952 12.0539 2.21157L12.8921 2.48538C12.9229 2.49586 12.9497 2.51549 12.9686 2.54155C12.9875 2.56761 12.9977 2.5988 12.9977 2.63078C12.9977 2.66276 12.9875 2.69395 12.9686 2.72001C12.9497 2.74607 12.9229 2.7657 12.8921 2.77618L12.0539 3.04999C11.8692 3.1102 11.7014 3.21175 11.5638 3.34661C11.4262 3.48147 11.3226 3.6459 11.2612 3.82687L10.9818 4.64832C10.9711 4.67853 10.951 4.70474 10.9244 4.72328C10.8979 4.74183 10.866 4.7518 10.8334 4.7518C10.8008 4.7518 10.7689 4.74183 10.7423 4.72328C10.7158 4.70474 10.6957 4.67853 10.685 4.64832L10.4056 3.82687C10.3442 3.6459 10.2406 3.48147 10.103 3.34661C9.96535 3.21175 9.79755 3.1102 9.6129 3.04999L8.77577 2.77618C8.74493 2.7657 8.71819 2.74607 8.69927 2.72001C8.68035 2.69395 8.67018 2.66276 8.67018 2.63078C8.67018 2.5988 8.68035 2.56761 8.69927 2.54155C8.71819 2.51549 8.74493 2.49586 8.77577 2.48538L9.61398 2.21157C9.98868 2.08952 10.2822 1.8019 10.4067 1.43469L10.685 0.614307V0.613245Z" fill="#09A0FF"/>
</svg>
