<svg width="19" height="19" viewBox="0 0 19 19" fill="none" xmlns="http://www.w3.org/2000/svg">
<g id="CheckCircle">
<path id="Vector" d="M9.44488 2.10938C8.01646 2.10938 6.62012 2.53295 5.43243 3.32654C4.24474 4.12013 3.31905 5.24808 2.77242 6.56777C2.22579 7.88746 2.08276 9.33961 2.36143 10.7406C2.6401 12.1416 3.32795 13.4284 4.338 14.4385C5.34805 15.4485 6.63492 16.1364 8.0359 16.415C9.43687 16.6937 10.889 16.5507 12.2087 16.0041C13.5284 15.4574 14.6564 14.5317 15.4499 13.344C16.2435 12.1564 16.6671 10.76 16.6671 9.3316C16.6651 7.41677 15.9035 5.58094 14.5495 4.22695C13.1955 2.87296 11.3597 2.1114 9.44488 2.10938ZM12.6157 8.05799L8.72683 11.9469C8.67523 11.9985 8.61396 12.0395 8.54651 12.0675C8.47907 12.0954 8.40678 12.1098 8.33377 12.1098C8.26076 12.1098 8.18847 12.0954 8.12103 12.0675C8.05358 12.0395 7.99231 11.9985 7.94071 11.9469L6.27405 10.2802C6.1698 10.176 6.11124 10.0346 6.11124 9.88715C6.11124 9.73973 6.1698 9.59834 6.27405 9.4941C6.37829 9.38985 6.51968 9.33129 6.6671 9.33129C6.81453 9.33129 6.95591 9.38985 7.06016 9.4941L8.33377 10.7684L11.8296 7.27187C11.8812 7.22026 11.9425 7.17931 12.0099 7.15138C12.0774 7.12344 12.1497 7.10907 12.2227 7.10907C12.2957 7.10907 12.3679 7.12344 12.4354 7.15138C12.5028 7.17931 12.5641 7.22026 12.6157 7.27187C12.6673 7.32349 12.7083 7.38477 12.7362 7.45221C12.7641 7.51965 12.7785 7.59193 12.7785 7.66493C12.7785 7.73793 12.7641 7.81021 12.7362 7.87765C12.7083 7.94509 12.6673 8.00637 12.6157 8.05799Z" fill="#5FB7FF"/>
</g>
</svg>
