<svg width="18" height="19" viewBox="0 0 18 19" fill="none" xmlns="http://www.w3.org/2000/svg">
<g id="wpf:delete" clip-path="url(#clip0_2244_98826)">
<path id="Vector" d="M7.96169 0.15625C6.60615 0.15625 5.51715 1.28263 5.51715 2.6444V2.94694H2.76938C2.38792 2.94694 2.07707 3.25779 2.07707 3.63925V4.33156H1.38477V5.71617H2.76938V16.1008C2.76938 17.2396 3.70746 18.1777 4.8463 18.1777H13.154C14.2928 18.1777 15.2309 17.2396 15.2309 16.1008V5.71617H16.6155V4.33156H15.9232V3.63925C15.9232 3.25779 15.6124 2.94694 15.2309 2.94694H12.4831V2.64371C12.4831 1.28263 11.3941 0.15625 10.0386 0.15625H7.96169ZM7.96169 1.58379H10.0386C10.5952 1.58379 11.0556 2.03794 11.0556 2.64371V2.94694H6.944V2.64371C6.944 2.03794 7.40438 1.58448 7.961 1.58448L7.96169 1.58379ZM4.154 5.71617H7.70207C7.78792 5.72517 7.87307 5.73764 7.96169 5.73764H10.0386C10.1272 5.73764 10.2117 5.72517 10.2982 5.71617H13.8463V16.1008C13.8463 16.4906 13.5438 16.7931 13.154 16.7931H4.8463C4.45653 16.7931 4.154 16.4906 4.154 16.1008V5.71617ZM5.53861 7.10079V15.4085H6.92323V7.10079H5.53861ZM8.30784 7.10079V15.4085H9.69246V7.10079H8.30784ZM11.0771 7.10079V15.4085H12.4617V7.10079H11.0771Z" fill="#EA2424"/>
</g>
<defs>
<clipPath id="clip0_2244_98826">
<rect width="18" height="18" fill="white" transform="translate(0 0.175781)"/>
</clipPath>
</defs>
</svg>
