<svg data-name="icons Q2" xmlns="http://www.w3.org/2000/svg" width="19.25" height="19.25"><path data-name="Path 16679" d="M9.625 0a9.581 9.581 0 1 0 6.819 2.806A9.625 9.625 0 0 0 9.625 0Zm3.631 12.031a.919.919 0 0 1 .175 1.181.875.875 0 0 1-1.356.088l-2.45-2.45-2.45 2.45a.875.875 0 0 1-1.356-.088.919.919 0 0 1 .175-1.181L8.4 9.625 5.994 7.219a.962.962 0 0 1-.175-1.181.875.875 0 0 1 1.356-.088l2.45 2.45 2.45-2.45a.875.875 0 0 1 1.356.087.963.963 0 0 1-.175 1.181L10.85 9.625Z" fill="#ff5d48"/></svg>