<svg width="160" height="22" viewBox="0 0 160 22" fill="none" xmlns="http://www.w3.org/2000/svg">
<g id="Layer 1">
<g id="Layer 2">
<g id="Layer 1-2">
<path id="Vector" d="M93.3057 19.8425C93.2579 20.3014 93.2101 20.7698 93.1624 21.2668C93.0381 21.2668 92.9329 21.286 92.8373 21.286C91.9866 21.286 91.1263 21.2764 90.2755 21.286C89.9601 21.286 89.874 21.1904 89.874 20.8845C89.874 15.8277 89.874 10.7805 89.874 5.73332V0.800829C89.874 0.542733 89.9314 0.447142 90.199 0.456701C91.2219 0.475819 92.2447 0.475819 93.2675 0.456701C93.5256 0.456701 93.583 0.542733 93.583 0.78171V7.04292C93.8888 6.84218 94.1183 6.67011 94.3668 6.51717C95.4087 5.87671 96.5941 5.5039 97.8176 5.43699C99.4809 5.33184 101.029 5.67597 102.425 6.58408C104.337 7.83632 105.551 9.59519 105.952 11.8511C106.583 15.4549 105.13 18.8102 101.746 20.6933C100.781 21.2095 99.7103 21.4867 98.6206 21.5154C97.4066 21.5919 96.2021 21.372 95.0933 20.8845C94.4815 20.5977 93.9271 20.2058 93.3057 19.8425ZM97.9419 8.96429C95.4374 8.89738 93.4587 10.857 93.4491 13.438C93.4396 16.0858 95.3609 17.9976 97.8941 17.9976C100.523 17.9976 102.368 16.0571 102.387 13.4857C102.406 10.8761 100.408 8.89738 97.9515 8.96429H97.9419Z" fill="white"/>
<path id="Vector_2" d="M72.1511 13.5239C72.1511 8.93551 75.7262 5.4082 80.372 5.4082C85.0177 5.4082 88.5067 8.85904 88.4972 13.4378C88.4972 18.0071 84.9316 21.5248 80.2859 21.544C75.5446 21.5631 72.0747 17.8637 72.1416 13.5334L72.1511 13.5239ZM80.3146 8.95463C77.7528 8.95463 75.8601 10.8569 75.8505 13.4283C75.8505 16.0762 77.705 17.9784 80.2955 17.988C82.886 17.9975 84.7978 16.0762 84.7978 13.4474C84.7978 10.8569 82.8956 8.95463 80.3146 8.95463Z" fill="white"/>
<path id="Vector_3" d="M39.2024 13.5239C39.2024 8.93551 42.7775 5.4082 47.4232 5.4082C52.0307 5.4082 55.5485 8.87816 55.5485 13.4092C55.5485 17.9402 52.002 21.5153 47.3372 21.544C42.5959 21.5726 39.1259 17.8541 39.2024 13.5239ZM47.385 8.96419C44.8136 8.96419 42.9209 10.8473 42.9113 13.4187C42.9018 16.0762 44.7276 17.9784 47.3276 17.9975C49.9277 18.0166 51.8395 16.0953 51.8491 13.4665C51.8491 10.8856 49.9564 8.97374 47.385 8.96419Z" fill="white"/>
<path id="Vector_4" d="M121.573 5.68563V21.2861H118.495C118.227 21.2861 118.132 21.2 118.151 20.9324C118.17 20.6647 118.151 20.378 118.151 20.0147C117.807 20.2537 117.549 20.4353 117.281 20.6074C116.516 21.0758 115.646 21.3721 114.757 21.4581C113.582 21.592 112.406 21.5537 111.297 21.0949C109.376 20.2919 108.162 18.8581 107.674 16.8411C107.492 16.0764 107.397 15.3021 107.387 14.5182C107.359 11.6887 107.387 8.85925 107.368 6.02976C107.368 5.73343 107.454 5.64739 107.751 5.65695C108.726 5.67607 109.701 5.67607 110.676 5.65695C111.001 5.65695 111.087 5.77166 111.087 6.08711C111.077 8.80189 111.068 11.5167 111.087 14.2315C111.068 14.9388 111.22 15.6366 111.536 16.2771C112.148 17.472 113.18 18.0647 114.518 17.9786C115.723 17.9022 116.698 17.386 117.262 16.3153C117.549 15.7609 117.73 15.1587 117.797 14.5278C117.874 13.5528 117.902 12.5777 117.883 11.6123C117.893 9.7578 117.893 7.9129 117.883 6.05844C117.883 5.75254 117.969 5.64739 118.285 5.65695C119.269 5.67607 120.254 5.65695 121.248 5.65695C121.353 5.65695 121.458 5.67607 121.583 5.67607L121.573 5.68563Z" fill="white"/>
<path id="Vector_5" d="M71.8083 18.1037C69.9921 20.9619 66.2545 22.2141 62.6316 21.1531C59.3815 20.1589 57.1351 17.186 57.0778 13.7926C56.9631 9.68216 59.6396 6.78575 62.5743 5.84896C66.0538 4.73055 69.7245 5.82028 71.665 8.47771L69.1127 11.0109C68.0612 9.51965 66.5891 8.8314 64.7442 8.98434C63.5875 9.07037 62.5169 9.63436 61.8 10.552C60.2801 12.4065 60.4808 15.2933 62.2588 16.8993C63.3294 17.8647 64.6008 18.1037 65.9869 17.9412C67.4303 17.7787 68.3957 16.8897 69.2369 15.7331L71.8179 18.1037H71.8083Z" fill="white"/>
<path id="Vector_6" d="M24.0605 0.485352H27.8077V17.7108H38.3801V21.2477H24.0605V0.485352Z" fill="white"/>
<path id="Vector_7" d="M141.111 5.66646L130.73 17.8639H137.756C137.918 17.8639 138.071 17.9212 138.195 18.0264C139.084 19.0396 139.954 20.072 140.824 21.0948C140.862 21.1426 140.891 21.2 140.92 21.2573H123.197C123.36 21.047 123.513 20.875 123.656 20.6934L134.831 7.60696C135.309 7.04297 135.796 6.47899 136.265 5.915C136.389 5.74294 136.59 5.64735 136.8 5.6569C138.1 5.66646 139.409 5.6569 140.71 5.6569H141.101L141.111 5.66646Z" fill="#0F75FB"/>
<path id="Vector_8" d="M142.277 5.67676H160C159.923 5.78191 159.876 5.85838 159.818 5.92529C155.545 10.9438 151.263 15.9623 146.971 20.9904C146.818 21.1912 146.569 21.3059 146.311 21.2868C145.059 21.2676 143.797 21.2868 142.535 21.2868H142.096L152.458 9.11803C152.295 9.11803 152.171 9.09891 152.056 9.09891H145.489C145.269 9.11803 145.049 9.02244 144.916 8.84082C144.094 7.86579 143.271 6.90988 142.449 5.94441C142.392 5.86794 142.344 5.80103 142.258 5.67676H142.277Z" fill="#0F75FB"/>
<path id="Vector_9" d="M148.529 21.2468C148.979 20.7115 149.409 20.2048 149.829 19.7078C150.298 19.1533 150.766 18.5989 151.254 18.054C151.359 17.9489 151.502 17.882 151.646 17.8724C153.261 17.8628 154.877 17.8628 156.492 17.8724C156.626 17.8724 156.75 17.9106 156.855 17.9967C157.773 19.0386 158.662 20.0997 159.57 21.1512C159.58 21.1703 159.57 21.1894 159.589 21.2563H148.529V21.2468Z" fill="white"/>
<path id="Vector_10" d="M135.042 5.6287C134.44 6.33607 133.895 6.96697 133.36 7.60743C133.015 8.00891 132.69 8.41995 132.327 8.80232C132.213 8.92659 132.05 9.00306 131.878 9.01262C130.272 9.03174 128.666 9.03174 127.06 9.01262C126.898 9.01262 126.745 8.9457 126.63 8.831C125.77 7.84641 124.929 6.8427 124.078 5.839C124.03 5.78165 123.992 5.71473 123.925 5.61914H135.032L135.042 5.6287Z" fill="white"/>
<path id="Vector_11" d="M18.2292 0.552734H2.5236C1.12985 0.552734 0 1.68259 0 3.07633V18.7819C0 20.1757 1.12985 21.3055 2.5236 21.3055H18.2292C19.6229 21.3055 20.7528 20.1757 20.7528 18.7819V3.07633C20.7528 1.68259 19.6229 0.552734 18.2292 0.552734Z" fill="#0F75FB"/>
<path id="Vector_12" d="M10.1509 7.3291L5.37132 12.9498H8.61185C8.68832 12.9498 8.75524 12.969 8.81259 13.0263C9.21407 13.4947 9.62512 13.9727 10.0266 14.4506C10.0457 14.4697 10.0553 14.4889 10.0744 14.5271H1.90137C1.97784 14.4315 2.04475 14.3455 2.11167 14.269L7.26402 8.23722C7.48388 7.97912 7.70374 7.72102 7.9236 7.45337C7.98095 7.3769 8.07654 7.3291 8.17213 7.33866H10.1509V7.3291Z" fill="white"/>
<path id="Vector_13" d="M10.6876 7.33887H18.8511C18.8511 7.33887 18.7937 7.4249 18.765 7.45358C16.7959 9.76688 14.8171 12.0802 12.8479 14.3935C12.781 14.4891 12.6663 14.5369 12.5421 14.5273H10.6016L15.3715 8.91612H12.1597C12.0545 8.91612 11.959 8.87788 11.892 8.80141C11.5192 8.35213 11.1369 7.91241 10.7545 7.46314C10.7354 7.4249 10.7163 7.38666 10.678 7.33887H10.6876Z" fill="white"/>
</g>
</g>
</g>
</svg>
