<svg width="24" height="24" viewBox="0 0 24 24" fill="none" xmlns="http://www.w3.org/2000/svg">
<g id="mynaui:save">
<path id="Vector" d="M16.25 21V16.235C16.2497 16.026 16.2083 15.8192 16.128 15.6262C16.0477 15.4333 15.9302 15.2581 15.7822 15.1106C15.6341 14.9631 15.4585 14.8462 15.2652 14.7667C15.072 14.6872 14.865 14.6465 14.656 14.647H9.344C9.13503 14.6465 8.92801 14.6872 8.73477 14.7667C8.54153 14.8462 8.36586 14.9631 8.21782 15.1106C8.06978 15.2581 7.95226 15.4333 7.87199 15.6262C7.79171 15.8192 7.75026 16.026 7.75 16.235V21M16.25 3.28501V5.64701C16.2497 5.85598 16.2083 6.06285 16.128 6.25579C16.0477 6.44873 15.9302 6.62395 15.7822 6.77143C15.6341 6.91892 15.4585 7.03577 15.2652 7.11532C15.072 7.19486 14.865 7.23554 14.656 7.23501H9.344C9.13503 7.23554 8.92801 7.19486 8.73477 7.11532C8.54153 7.03577 8.36586 6.91892 8.21782 6.77143C8.06978 6.62395 7.95226 6.44873 7.87199 6.25579C7.79171 6.06285 7.75026 5.85598 7.75 5.64701V3.00001M16.25 3.28501C15.8353 3.09719 15.3853 3.00003 14.93 3.00001H7.75M16.25 3.28501C16.594 3.44101 16.911 3.65901 17.184 3.93001L19.566 6.30501C19.8618 6.59933 20.0965 6.94915 20.2568 7.3344C20.4171 7.71965 20.4997 8.13275 20.5 8.55001V17.822C20.4997 18.24 20.4171 18.6539 20.2567 19.0399C20.0963 19.426 19.8614 19.7766 19.5654 20.0718C19.2694 20.367 18.9181 20.6009 18.5316 20.7601C18.1451 20.9194 17.731 21.0009 17.313 21H6.688C6.26998 21.0011 5.85585 20.9197 5.4693 20.7605C5.08276 20.6014 4.73139 20.3676 4.43529 20.0725C4.13919 19.7774 3.90417 19.4269 3.74369 19.0409C3.5832 18.6549 3.50039 18.241 3.5 17.823V6.17601C3.50052 5.75807 3.58343 5.34433 3.74397 4.95846C3.90452 4.57258 4.13956 4.22214 4.43564 3.92716C4.73173 3.63219 5.08306 3.39848 5.46953 3.23939C5.85601 3.0803 6.27006 2.99896 6.688 3.00001H7.75" stroke="white" stroke-opacity="0.8" stroke-width="1.5" stroke-linecap="round" stroke-linejoin="round"/>
</g>
</svg>
