<svg width="18" height="19" viewBox="0 0 18 19" fill="none" xmlns="http://www.w3.org/2000/svg">
<g id="heroicons-outline:logout">
<path id="Vector" d="M12.75 12.1758L15.75 9.17578M15.75 9.17578L12.75 6.17578M15.75 9.17578H5.25M9.75 12.1758V12.9258C9.75 13.5225 9.51295 14.0948 9.09099 14.5168C8.66903 14.9387 8.09674 15.1758 7.5 15.1758H4.5C3.90326 15.1758 3.33097 14.9387 2.90901 14.5168C2.48705 14.0948 2.25 13.5225 2.25 12.9258V5.42578C2.25 4.82904 2.48705 4.25675 2.90901 3.83479C3.33097 3.41283 3.90326 3.17578 4.5 3.17578H7.5C8.09674 3.17578 8.66903 3.41283 9.09099 3.83479C9.51295 4.25675 9.75 4.82904 9.75 5.42578V6.17578" stroke="black" stroke-width="1.5" stroke-linecap="round" stroke-linejoin="round"/>
</g>
</svg>
