<svg width="28" height="28" viewBox="0 0 28 28" fill="none" xmlns="http://www.w3.org/2000/svg">
<g id="flat-color-icons:google">
<g id="Group 1000007312">
<path id="Vector" d="M23.8383 1H4.16168C2.41553 1 1 2.41553 1 4.16168V23.8383C1 25.5845 2.41553 27 4.16168 27H23.8383C25.5845 27 27 25.5845 27 23.8383V4.16168C27 2.41553 25.5845 1 23.8383 1Z" fill="#09A0FF"/>
<path id="Vector_2" d="M13.7201 9.48828L7.73207 16.5302H11.792C11.8878 16.5302 11.9716 16.5541 12.0434 16.626C12.5464 17.2128 13.0614 17.8116 13.5644 18.4104C13.5884 18.4344 13.6003 18.4583 13.6243 18.5062H3.38477C3.48057 18.3865 3.56441 18.2787 3.64824 18.1829L10.1033 10.626C10.3788 10.3027 10.6542 9.9793 10.9297 9.64397C11.0015 9.54816 11.1213 9.48828 11.2411 9.50026H13.7201V9.48828Z" fill="white"/>
<path id="Vector_3" d="M14.3881 9.50781H24.6156C24.6156 9.50781 24.5437 9.6156 24.5078 9.65153C22.0408 12.5497 19.5617 15.4479 17.0946 18.3461C17.0108 18.4659 16.8671 18.5258 16.7114 18.5138H14.2803L20.2563 11.4839H16.2324C16.1006 11.4839 15.9809 11.436 15.897 11.3401C15.43 10.7773 14.9509 10.2264 14.4719 9.6635C14.4479 9.6156 14.424 9.56769 14.3761 9.50781H14.3881Z" fill="white"/>
</g>
</g>
</svg>
