<svg width="99" height="13" viewBox="0 0 99 13" fill="none" xmlns="http://www.w3.org/2000/svg">
<g id="Locobuzz_idW-CkxXgu_2" clip-path="url(#clip0_1175_32737)">
<g id="Layer 1">
<g id="Layer 2">
<g id="Layer 1-2">
<path id="Vector" d="M57.9833 11.9211C57.954 12.2021 57.9247 12.489 57.8954 12.7935C57.8193 12.7935 57.7549 12.8052 57.6964 12.8052C57.1753 12.8052 56.6483 12.7993 56.1273 12.8052C55.934 12.8052 55.8813 12.7466 55.8813 12.5593C55.8813 9.46202 55.8813 6.37061 55.8813 3.2792V0.258049C55.8813 0.0999654 55.9165 0.041416 56.0804 0.047271C56.7069 0.0589808 57.3334 0.0589808 57.9599 0.047271C58.1179 0.047271 58.1531 0.0999654 58.1531 0.246339V4.08133C58.3404 3.95837 58.4809 3.85298 58.6332 3.7593C59.2714 3.36702 59.9974 3.13868 60.7468 3.0977C61.7656 3.03329 62.7141 3.24407 63.5689 3.80029C64.7399 4.56729 65.4834 5.64459 65.7294 7.02636C66.1158 9.23367 65.2258 11.2888 63.1532 12.4422C62.5618 12.7583 61.9061 12.9281 61.2386 12.9457C60.495 12.9925 59.7573 12.8579 59.0781 12.5593C58.7034 12.3836 58.3638 12.1436 57.9833 11.9211ZM60.8229 5.25817C59.2889 5.21718 58.077 6.41745 58.0711 7.99828C58.0652 9.6201 59.2421 10.7911 60.7936 10.7911C62.4038 10.7911 63.5338 9.60253 63.5455 8.02756C63.5572 6.42916 62.3335 5.21718 60.8288 5.25817H60.8229Z" fill="#3B5175"/>
<path id="Vector_2" d="M45.0265 8.04897C45.0265 5.2386 47.2162 3.07812 50.0617 3.07812C52.9072 3.07812 55.0443 5.19176 55.0384 7.99628C55.0384 10.7949 52.8545 12.9496 50.009 12.9613C47.105 12.973 44.9796 10.7071 45.0206 8.05482L45.0265 8.04897ZM50.0266 5.25031C48.4575 5.25031 47.2982 6.41544 47.2923 7.99042C47.2923 9.61224 48.4282 10.7774 50.0149 10.7832C51.6016 10.7891 52.7725 9.61224 52.7725 8.00213C52.7725 6.41544 51.6074 5.25031 50.0266 5.25031Z" fill="#3B5175"/>
<path id="Vector_3" d="M24.8445 8.05288C24.8445 5.2425 27.0343 3.08203 29.8798 3.08203C32.7018 3.08203 34.8565 5.20738 34.8565 7.98262C34.8565 10.7579 32.6843 12.9476 29.8271 12.9652C26.923 12.9827 24.7977 10.7052 24.8445 8.05288ZM29.8563 5.26007C28.2814 5.26007 27.1221 6.41349 27.1162 7.98847C27.1104 9.61615 28.2287 10.7813 29.8212 10.793C31.4138 10.8047 32.5847 9.62785 32.5906 8.01775C32.5906 6.43691 31.4313 5.26592 29.8563 5.26007Z" fill="#3B5175"/>
<path id="Vector_4" d="M75.2966 3.24846V12.8037H73.4113C73.2474 12.8037 73.1889 12.751 73.2006 12.5871C73.2123 12.4232 73.2006 12.2475 73.2006 12.025C72.9898 12.1714 72.8317 12.2826 72.6678 12.388C72.1994 12.6749 71.6666 12.8564 71.1221 12.9091C70.4019 12.9911 69.6817 12.9677 69.0026 12.6866C67.8257 12.1948 67.0822 11.3166 66.7835 10.0812C66.6723 9.61278 66.6138 9.13854 66.6079 8.65843C66.5903 6.92537 66.6079 5.1923 66.5962 3.45924C66.5962 3.27774 66.6489 3.22504 66.8304 3.2309C67.4276 3.24261 68.0248 3.24261 68.622 3.2309C68.8211 3.2309 68.8738 3.30116 68.8738 3.49437C68.8679 5.15717 68.8621 6.81998 68.8738 8.48278C68.8621 8.91605 68.9557 9.34346 69.1489 9.73574C69.5237 10.4676 70.156 10.8306 70.9757 10.7779C71.7134 10.7311 72.3106 10.4149 72.6561 9.75916C72.8317 9.41957 72.9429 9.05071 72.9839 8.66428C73.0308 8.06708 73.0483 7.46988 73.0366 6.87853C73.0425 5.74267 73.0425 4.61267 73.0366 3.47681C73.0366 3.28945 73.0893 3.22504 73.2825 3.2309C73.8856 3.24261 74.4886 3.2309 75.0976 3.2309C75.162 3.2309 75.2264 3.24261 75.3025 3.24261L75.2966 3.24846Z" fill="#3B5175"/>
<path id="Vector_5" d="M44.8157 10.8589C43.7032 12.6096 41.4139 13.3766 39.1949 12.7267C37.2042 12.1178 35.8283 10.2969 35.7932 8.21836C35.7229 5.70074 37.3623 3.92669 39.1598 3.35291C41.291 2.66788 43.5393 3.33535 44.7278 4.96302L43.1646 6.51458C42.5205 5.60121 41.6189 5.17965 40.4889 5.27333C39.7804 5.32602 39.1247 5.67147 38.6855 6.23354C37.7546 7.3694 37.8776 9.13759 38.9666 10.1212C39.6223 10.7126 40.401 10.8589 41.25 10.7594C42.1341 10.6599 42.7254 10.1154 43.2407 9.40692L44.8215 10.8589H44.8157Z" fill="#3B5175"/>
<path id="Vector_6" d="M15.5703 0.0664062H17.8654V10.617H24.341V12.7833H15.5703V0.0664062Z" fill="#3B5175"/>
<path id="Vector_7" d="M87.2641 3.24063L80.9057 10.7115H85.2091C85.3086 10.7115 85.4023 10.7467 85.4784 10.8111C86.0229 11.4317 86.5557 12.064 87.0885 12.6905C87.1119 12.7198 87.1295 12.7549 87.147 12.79H76.292C76.3915 12.6612 76.4852 12.5558 76.573 12.4446L83.4175 4.42918C83.7102 4.08374 84.0088 3.7383 84.2957 3.39286C84.3718 3.28747 84.4948 3.22892 84.6236 3.23478C85.4198 3.24063 86.222 3.23478 87.0182 3.23478H87.2583L87.2641 3.24063Z" fill="#09A0FF"/>
<path id="Vector_8" d="M87.9784 3.24219H98.8335C98.7867 3.30659 98.7574 3.35343 98.7223 3.39442C96.1051 6.46826 93.4821 9.5421 90.8532 12.6218C90.7595 12.7448 90.6073 12.815 90.4492 12.8033C89.6822 12.7916 88.9094 12.8033 88.1365 12.8033H87.8672L94.2139 5.34997C94.1144 5.34997 94.0383 5.33826 93.968 5.33826H89.9457C89.811 5.34997 89.6764 5.29142 89.5944 5.18017C89.0909 4.58297 88.5874 3.99747 88.0838 3.40613C88.0487 3.35929 88.0194 3.3183 87.9667 3.24219H87.9784Z" fill="#09A0FF"/>
<path id="Vector_9" d="M91.8076 12.7821C92.0828 12.4542 92.3463 12.1439 92.6039 11.8395C92.8908 11.4999 93.1777 11.1603 93.4763 10.8266C93.5407 10.7622 93.6285 10.7212 93.7163 10.7153C94.7058 10.7095 95.6953 10.7095 96.6848 10.7153C96.7668 10.7153 96.8429 10.7387 96.9073 10.7914C97.4693 11.4296 98.0138 12.0795 98.5701 12.7236C98.5759 12.7353 98.5701 12.747 98.5818 12.788H91.8076V12.7821Z" fill="#3B5175"/>
<path id="Vector_10" d="M83.5461 3.21289C83.1773 3.64615 82.8435 4.03258 82.5156 4.42486C82.3049 4.67077 82.1058 4.92253 81.8833 5.15673C81.813 5.23284 81.7135 5.27968 81.6081 5.28553C80.6245 5.29724 79.6409 5.29724 78.6572 5.28553C78.5577 5.28553 78.464 5.24455 78.3938 5.17429C77.8668 4.57123 77.3516 3.95646 76.8305 3.34169C76.8012 3.30657 76.7778 3.26558 76.7368 3.20703H83.5403L83.5461 3.21289Z" fill="#3B5175"/>
<path id="Vector_11" d="M11.9989 0.105469H2.3792C1.52553 0.105469 0.833496 0.797504 0.833496 1.65117V11.2708C0.833496 12.1245 1.52553 12.8165 2.3792 12.8165H11.9989C12.8525 12.8165 13.5446 12.1245 13.5446 11.2708V1.65117C13.5446 0.797504 12.8525 0.105469 11.9989 0.105469Z" fill="#09A0FF"/>
<path id="Vector_12" d="M7.05184 4.25781L4.12437 7.70052H6.10919C6.15603 7.70052 6.19702 7.71223 6.23215 7.74736C6.47805 8.03425 6.72982 8.327 6.97572 8.61974C6.98743 8.63145 6.99329 8.64316 7.005 8.66658H1.99902C2.04586 8.60803 2.08685 8.55534 2.12783 8.5085L5.28365 4.81403C5.41831 4.65595 5.55297 4.49787 5.68764 4.33393C5.72277 4.28709 5.78132 4.25781 5.83986 4.26367H7.05184V4.25781Z" fill="white"/>
<path id="Vector_13" d="M7.37935 4.26172H12.3795C12.3795 4.26172 12.3443 4.31441 12.3268 4.33198C11.1207 5.74887 9.90869 7.16577 8.70257 8.58267C8.66159 8.64121 8.59133 8.67049 8.51521 8.66463H7.32666L10.2483 5.22778H8.28102C8.21661 5.22778 8.15806 5.20436 8.11708 5.15752C7.88873 4.88234 7.65454 4.61302 7.42034 4.33783C7.40863 4.31441 7.39692 4.29099 7.3735 4.26172H7.37935Z" fill="white"/>
</g>
</g>
</g>
</g>
<defs>
<clipPath id="clip0_1175_32737">
<rect width="98" height="12.9101" fill="white" transform="translate(0.833496 0.046875)"/>
</clipPath>
</defs>
</svg>
