<svg width="61" height="71" viewBox="0 0 61 71" fill="none" xmlns="http://www.w3.org/2000/svg">
<g id="Group 1000007371">
<path id="Union" d="M43.0641 52.545L46.1308 56.0205L46.3481 56.2668L46.6333 56.1038C46.8735 55.9666 47.2528 55.741 47.6146 55.5079C47.9637 55.2828 48.3366 55.0256 48.5333 54.8289C48.5687 54.7935 48.595 54.7561 48.6143 54.7186C55.7465 49.2596 60.3477 40.6573 60.3477 30.9805C60.3477 14.4807 46.972 1.10499 30.4722 1.10499C13.9724 1.10499 0.596689 14.4807 0.596689 30.9805C0.596689 47.4803 13.9724 60.856 30.4722 60.856C32.8478 60.856 35.1592 60.5786 37.3755 60.0543L47.3854 68.3644L48.5132 69.3007L48.0231 67.9192L47.2372 65.7039L43.0641 52.545Z" fill="white" stroke="white" stroke-width="0.806623"/>
<path id="Union_2" d="M46.1416 65.586L39.8785 46.7965L46.6376 54.2316C53.9154 49.1316 58.6737 40.6815 58.6737 31.12C58.6737 15.5447 46.0474 2.91846 30.4721 2.91846C14.8968 2.91846 2.27051 15.5447 2.27051 31.12C2.27051 46.6953 14.8968 59.3216 30.4721 59.3216C32.9164 59.3216 35.2881 59.0106 37.5498 58.4261L46.1416 65.586Z" fill="#0F75FB"/>
<path id="Union_3" fill-rule="evenodd" clip-rule="evenodd" d="M29.4779 22.0559L29.4981 22.0317V22.0559H29.4779ZM29.4779 22.0559H24.5917C24.3547 22.0317 24.1176 22.1525 23.9754 22.3456C23.4303 23.0217 22.8852 23.6736 22.3401 24.3255L22.34 24.3257L9.56442 39.5621C9.43238 39.7158 9.30035 39.8848 9.15637 40.0691C9.11942 40.1164 9.08169 40.1647 9.04297 40.214H29.3084C29.261 40.1175 29.2373 40.0692 29.1899 40.0209C28.3186 38.9641 27.429 37.9073 26.5531 36.8667C26.4283 36.7185 26.3039 36.5706 26.1797 36.423C26.0375 36.2782 25.8716 36.2299 25.682 36.2299H17.6469L29.4779 22.0559ZM52.2209 22.0317H31.9792H31.9554C32.0503 22.1526 32.0977 22.2493 32.1451 22.346C32.4444 22.7047 32.7437 23.0611 33.0423 23.4165C33.6895 24.1868 34.3331 24.953 34.9656 25.7304C35.1316 25.9238 35.3686 26.0205 35.6293 26.0205H43.5933L31.7658 40.211H36.5774C36.8855 40.2352 37.17 40.1143 37.3359 39.8726C39.7771 36.9476 42.2242 34.0227 44.6713 31.0977C47.1187 28.1724 49.5661 25.2471 52.0076 22.3218C52.0787 22.2493 52.2209 22.0317 52.2209 22.0317Z" fill="white"/>
</g>
</svg>
