<svg width="16" height="16" viewBox="0 0 16 16" fill="none" xmlns="http://www.w3.org/2000/svg">
<g id="star_outline">
<path id="Vector" d="M13.0991 6.19659L9.87241 5.91659L8.61241 2.94992C8.38574 2.40992 7.61241 2.40992 7.38574 2.94992L6.12574 5.92326L2.90574 6.19659C2.31907 6.24326 2.07907 6.97659 2.52574 7.36326L4.97241 9.48326L4.23907 12.6299C4.10574 13.2033 4.72574 13.6566 5.23241 13.3499L7.99907 11.6833L10.7657 13.3566C11.2724 13.6633 11.8924 13.2099 11.7591 12.6366L11.0257 9.48326L13.4724 7.36326C13.9191 6.97659 13.6857 6.24326 13.0991 6.19659ZM7.99907 10.4366L5.4924 11.9499L6.15907 9.09659L3.94574 7.17659L6.86574 6.92326L7.99907 4.23659L9.13907 6.92992L12.0591 7.18326L9.84574 9.10326L10.5124 11.9566L7.99907 10.4366Z" fill="black"/>
</g>
</svg>
