<svg width="16" height="16" viewBox="0 0 16 16" fill="none" xmlns="http://www.w3.org/2000/svg">
<g id="radar">
<path id="Vector" d="M13.16 12.2197C14.1 11.0663 14.6667 9.59968 14.6667 7.99967C14.6667 4.31967 11.68 1.33301 8.00004 1.33301C4.32004 1.33301 1.33337 4.31967 1.33337 7.99967C1.33337 11.6797 4.32004 14.6663 8.00004 14.6663C9.60004 14.6663 11.0667 14.0997 12.22 13.1597C12.4 13.013 12.5734 12.853 12.74 12.6863C12.76 12.6663 12.7734 12.6463 12.7867 12.633C12.92 12.4997 13.0467 12.3597 13.16 12.2197ZM8.00004 13.333C5.06004 13.333 2.66671 10.9397 2.66671 7.99967C2.66671 5.05967 5.06004 2.66634 8.00004 2.66634C10.94 2.66634 13.3334 5.05967 13.3334 7.99967C13.3334 9.23301 12.9134 10.3597 12.2067 11.2663L11.2534 10.313C11.7134 9.65967 11.9867 8.86634 11.9867 8.00634C11.9867 5.79967 10.1934 4.00634 7.98671 4.00634C5.78004 4.00634 3.98671 5.79967 3.98671 8.00634C3.98671 10.213 5.78004 12.0063 7.98671 12.0063C8.85337 12.0063 9.66004 11.7263 10.3134 11.253L11.26 12.1997C10.36 12.913 9.23337 13.333 8.00004 13.333ZM9.28004 8.33967C9.39337 7.89967 9.29337 7.41967 8.95337 7.07301L8.94004 7.05967C8.42671 6.54634 7.60671 6.53967 7.08671 7.03301C7.08004 7.03967 7.06671 7.04634 7.05337 7.05967C6.53337 7.57967 6.53337 8.42634 7.05337 8.94634L7.06671 8.95967C7.41337 9.29967 7.90004 9.40634 8.34004 9.28634L9.34671 10.293C8.94671 10.533 8.48671 10.6797 7.98671 10.6797C6.51337 10.6797 5.32004 9.48634 5.32004 8.01301C5.32004 6.53967 6.51337 5.34634 7.98671 5.34634C9.46004 5.34634 10.6534 6.53967 10.6534 8.01301C10.6534 8.49967 10.5134 8.95301 10.28 9.34634L9.28004 8.33967Z" fill="black"/>
</g>
</svg>
