<svg width="16" height="16" viewBox="0 0 16 16" fill="none" xmlns="http://www.w3.org/2000/svg">
<g id="sentiment_satisfied_alt">
<g id="Vector">
<path d="M10.3333 7.33301C10.8856 7.33301 11.3333 6.88529 11.3333 6.33301C11.3333 5.78072 10.8856 5.33301 10.3333 5.33301C9.78103 5.33301 9.33331 5.78072 9.33331 6.33301C9.33331 6.88529 9.78103 7.33301 10.3333 7.33301Z" fill="#222222"/>
<path d="M5.66665 7.33301C6.21893 7.33301 6.66665 6.88529 6.66665 6.33301C6.66665 5.78072 6.21893 5.33301 5.66665 5.33301C5.11436 5.33301 4.66665 5.78072 4.66665 6.33301C4.66665 6.88529 5.11436 7.33301 5.66665 7.33301Z" fill="#222222"/>
<path d="M7.99998 10.6663C7.01331 10.6663 6.16665 10.1263 5.69998 9.33301H4.58665C5.11998 10.6997 6.44665 11.6663 7.99998 11.6663C9.55331 11.6663 10.88 10.6997 11.4133 9.33301H10.3C9.83998 10.1263 8.98665 10.6663 7.99998 10.6663ZM7.99331 1.33301C4.31331 1.33301 1.33331 4.31967 1.33331 7.99967C1.33331 11.6797 4.31331 14.6663 7.99331 14.6663C11.68 14.6663 14.6666 11.6797 14.6666 7.99967C14.6666 4.31967 11.68 1.33301 7.99331 1.33301ZM7.99998 13.333C5.05331 13.333 2.66665 10.9463 2.66665 7.99967C2.66665 5.05301 5.05331 2.66634 7.99998 2.66634C10.9466 2.66634 13.3333 5.05301 13.3333 7.99967C13.3333 10.9463 10.9466 13.333 7.99998 13.333Z" fill="#222222"/>
</g>
</g>
</svg>
