<svg width="16" height="16" viewBox="0 0 16 16" fill="none" xmlns="http://www.w3.org/2000/svg">
<g id="Interface / Tag">
<g id="Vector">
<path d="M3.16525 5.09701L2.94444 7.52598C2.91173 7.8857 2.89524 8.06708 2.92518 8.23926C2.95193 8.39309 3.00535 8.54113 3.08329 8.67643C3.17084 8.82845 3.30026 8.95787 3.55763 9.21523L7.00796 12.6656C7.53265 13.1903 7.79514 13.4527 8.09862 13.5513C8.36641 13.6384 8.65534 13.6386 8.92313 13.5515C9.22757 13.4526 9.49211 13.1884 10.0201 12.6604L12.66 10.0205C13.188 9.49249 13.4516 9.22859 13.5505 8.92416C13.6375 8.65636 13.637 8.36776 13.55 8.09997C13.4511 7.79553 13.1879 7.53169 12.6599 7.00367L9.21805 3.56185C8.95834 3.30214 8.82844 3.17227 8.67573 3.08431C8.54043 3.00638 8.39239 2.95273 8.23856 2.92598C8.06494 2.89579 7.88196 2.91239 7.51618 2.94564L5.09631 3.16563C4.46647 3.22289 4.15135 3.25164 3.9049 3.38869C3.68762 3.50952 3.50849 3.68864 3.38766 3.90593C3.2513 4.15115 3.22286 4.46403 3.16617 5.0876L3.16525 5.09701Z" stroke="#222222" stroke-width="1.2" stroke-linecap="round" stroke-linejoin="round"/>
<path d="M6.47504 6.47564C6.73539 6.21529 6.73539 5.79318 6.47504 5.53283C6.21469 5.27248 5.79228 5.27248 5.53193 5.53283C5.27158 5.79318 5.27133 6.21519 5.53168 6.47554C5.79203 6.73589 6.21469 6.73599 6.47504 6.47564Z" stroke="#222222" stroke-width="1.2" stroke-linecap="round" stroke-linejoin="round"/>
</g>
</g>
</svg>
