<svg width="527" height="52" viewBox="0 0 527 52" fill="none" xmlns="http://www.w3.org/2000/svg">
<path d="M2.35097 25.923C2.35097 20.9836 3.41959 16.5904 5.55684 12.7433C7.69408 8.84878 10.6625 5.83289 14.462 3.69565C18.3091 1.51091 22.6548 0.418537 27.4992 0.418537C33.436 0.418537 38.5179 1.98585 42.7449 5.12047C46.9719 8.2551 49.7978 12.5296 51.2226 17.9439H37.8292C36.8319 15.8542 35.407 14.2631 33.5547 13.1708C31.75 12.0784 29.684 11.5322 27.3567 11.5322C23.6047 11.5322 20.565 12.8383 18.2378 15.4505C15.9106 18.0627 14.747 21.5535 14.747 25.923C14.747 30.2925 15.9106 33.7833 18.2378 36.3955C20.565 39.0077 23.6047 40.3138 27.3567 40.3138C29.684 40.3138 31.75 39.7676 33.5547 38.6752C35.407 37.5829 36.8319 35.9918 37.8292 33.902H51.2226C49.7978 39.3164 46.9719 43.5909 42.7449 46.7255C38.5179 49.8126 33.436 51.3562 27.4992 51.3562C22.6548 51.3562 18.3091 50.2876 14.462 48.1503C10.6625 45.9656 7.69408 42.9497 5.55684 39.1027C3.41959 35.2556 2.35097 30.8624 2.35097 25.923ZM115.32 0.98847V51H103.138V21.0073L91.9527 51H82.1214L70.8652 20.9361V51H58.683V0.98847H73.0737L87.1083 35.6118L101 0.98847H115.32ZM147.733 51.4987C143.031 51.4987 138.709 50.4063 134.767 48.2216C130.872 46.0368 127.761 42.9972 125.434 39.1027C123.154 35.1606 122.014 30.7437 122.014 25.8518C122.014 20.9598 123.154 16.5666 125.434 12.6721C127.761 8.77754 130.872 5.7379 134.767 3.55316C138.709 1.36843 143.031 0.276056 147.733 0.276056C152.435 0.276056 156.733 1.36843 160.627 3.55316C164.569 5.7379 167.656 8.77754 169.889 12.6721C172.168 16.5666 173.308 20.9598 173.308 25.8518C173.308 30.7437 172.168 35.1606 169.889 39.1027C167.609 42.9972 164.522 46.0368 160.627 48.2216C156.733 50.4063 152.435 51.4987 147.733 51.4987ZM147.733 40.385C151.722 40.385 154.904 39.0552 157.279 36.3955C159.701 33.7358 160.912 30.2212 160.912 25.8518C160.912 21.4348 159.701 17.9202 157.279 15.308C154.904 12.6483 151.722 11.3185 147.733 11.3185C143.696 11.3185 140.466 12.6246 138.044 15.2368C135.669 17.849 134.482 21.3873 134.482 25.8518C134.482 30.2687 135.669 33.8071 138.044 36.4667C140.466 39.0789 143.696 40.385 147.733 40.385Z" fill="white"/>
<path d="M202.345 39.6014L210.966 11.2472H223.932L209.826 51H194.794L180.688 11.2472H193.725L202.345 39.6014ZM266.532 30.4824C266.532 31.6223 266.461 32.8097 266.319 34.0445H238.748C238.938 36.5142 239.722 38.414 241.099 39.7438C242.524 41.0262 244.258 41.6674 246.3 41.6674C249.339 41.6674 251.453 40.385 252.64 37.8203H265.606C264.941 40.4325 263.73 42.7835 261.973 44.8732C260.263 46.963 258.102 48.6015 255.49 49.7889C252.878 50.9763 249.957 51.5699 246.727 51.5699C242.833 51.5699 239.366 50.7388 236.326 49.0765C233.286 47.4142 230.912 45.0395 229.202 41.9523C227.492 38.8652 226.637 35.2556 226.637 31.1236C226.637 26.9916 227.468 23.382 229.131 20.2949C230.84 17.2078 233.215 14.8331 236.255 13.1708C239.294 11.5085 242.785 10.6773 246.727 10.6773C250.574 10.6773 253.994 11.4847 256.986 13.0995C259.978 14.7143 262.305 17.0178 263.968 20.0099C265.677 23.0021 266.532 26.4929 266.532 30.4824ZM254.065 27.2766C254.065 25.1868 253.353 23.5245 251.928 22.2897C250.503 21.0548 248.722 20.4374 246.585 20.4374C244.543 20.4374 242.809 21.0311 241.384 22.2184C240.007 23.4058 239.152 25.0918 238.819 27.2766H254.065ZM285.141 17.8727C286.566 15.688 288.347 13.9782 290.485 12.7433C292.622 11.461 294.997 10.8198 297.609 10.8198V23.7145H294.26C291.221 23.7145 288.941 24.3794 287.421 25.7093C285.901 26.9916 285.141 29.2713 285.141 32.5485V51H272.959V11.2472H285.141V17.8727ZM319.603 51.5699C316.136 51.5699 313.049 50.9763 310.342 49.7889C307.635 48.6015 305.498 46.9867 303.93 44.9445C302.363 42.8547 301.484 40.5275 301.294 37.9628H313.334C313.477 39.3401 314.118 40.4563 315.258 41.3112C316.398 42.1661 317.799 42.5935 319.461 42.5935C320.981 42.5935 322.144 42.3085 322.952 41.7386C323.807 41.1212 324.234 40.3375 324.234 39.3876C324.234 38.2478 323.64 37.4166 322.453 36.8942C321.266 36.3243 319.342 35.7068 316.682 35.0419C313.833 34.377 311.458 33.6883 309.558 32.9759C307.659 32.216 306.02 31.0524 304.643 29.4851C303.265 27.8703 302.577 25.7093 302.577 23.0021C302.577 20.7224 303.194 18.6564 304.429 16.8041C305.711 14.9043 307.564 13.4082 309.986 12.3159C312.455 11.2235 315.376 10.6773 318.748 10.6773C323.735 10.6773 327.654 11.9122 330.503 14.3819C333.4 16.8516 335.063 20.1287 335.49 24.2132H324.234C324.044 22.8359 323.427 21.7435 322.382 20.9361C321.384 20.1287 320.055 19.725 318.392 19.725C316.967 19.725 315.875 20.0099 315.115 20.5799C314.355 21.1023 313.975 21.8385 313.975 22.7884C313.975 23.9282 314.569 24.7831 315.756 25.3531C316.991 25.923 318.891 26.4929 321.456 27.0629C324.4 27.8228 326.799 28.5827 328.651 29.3426C330.503 30.055 332.118 31.2424 333.495 32.9047C334.92 34.5195 335.656 36.7042 335.704 39.4589C335.704 41.7861 335.039 43.8759 333.709 45.7281C332.427 47.5329 330.551 48.9577 328.081 50.0026C325.659 51.0475 322.833 51.5699 319.603 51.5699ZM380.63 30.4824C380.63 31.6223 380.559 32.8097 380.416 34.0445H352.846C353.036 36.5142 353.82 38.414 355.197 39.7438C356.622 41.0262 358.355 41.6674 360.397 41.6674C363.437 41.6674 365.551 40.385 366.738 37.8203H379.704C379.039 40.4325 377.828 42.7835 376.071 44.8732C374.361 46.963 372.2 48.6015 369.588 49.7889C366.975 50.9763 364.055 51.5699 360.825 51.5699C356.93 51.5699 353.463 50.7388 350.424 49.0765C347.384 47.4142 345.009 45.0395 343.3 41.9523C341.59 38.8652 340.735 35.2556 340.735 31.1236C340.735 26.9916 341.566 23.382 343.228 20.2949C344.938 17.2078 347.313 14.8331 350.352 13.1708C353.392 11.5085 356.883 10.6773 360.825 10.6773C364.672 10.6773 368.092 11.4847 371.084 13.0995C374.076 14.7143 376.403 17.0178 378.065 20.0099C379.775 23.0021 380.63 26.4929 380.63 30.4824ZM368.163 27.2766C368.163 25.1868 367.45 23.5245 366.026 22.2897C364.601 21.0548 362.82 20.4374 360.682 20.4374C358.64 20.4374 356.907 21.0311 355.482 22.2184C354.104 23.4058 353.25 25.0918 352.917 27.2766H368.163ZM392.756 51.5699C390.619 51.5699 388.862 50.9525 387.484 49.7177C386.154 48.4353 385.49 46.868 385.49 45.0157C385.49 43.1159 386.154 41.5249 387.484 40.2425C388.862 38.9602 390.619 38.319 392.756 38.319C394.846 38.319 396.556 38.9602 397.886 40.2425C399.263 41.5249 399.952 43.1159 399.952 45.0157C399.952 46.868 399.263 48.4353 397.886 49.7177C396.556 50.9525 394.846 51.5699 392.756 51.5699Z" fill="white"/>
<path d="M442.643 42.1661H423.978L420.986 51H408.234L426.329 0.98847H440.435L458.53 51H445.635L442.643 42.1661ZM439.509 32.7622L433.311 14.4531L427.184 32.7622H439.509ZM476.22 0.98847V51H464.037V0.98847H476.22Z" fill="url(#paint0_linear_4181_99047)"/>
<path d="M510.451 21.5535C510.736 20.7172 511.941 20.7172 512.225 21.5535L513.893 26.4624C514.261 27.5415 514.879 28.522 515.7 29.3261C516.521 30.1302 517.522 30.7359 518.623 31.0951L523.63 32.7297C524.483 33.0085 524.483 34.1894 523.63 34.4682L518.621 36.1028C517.52 36.4626 516.519 37.0688 515.699 37.8734C514.878 38.6779 514.26 39.6587 513.893 40.738L512.225 45.6444C512.164 45.8275 512.045 45.987 511.886 46.1001C511.727 46.2131 511.535 46.274 511.338 46.274C511.142 46.274 510.95 46.2131 510.791 46.1001C510.632 45.987 510.513 45.8275 510.451 45.6444L508.783 40.7355C508.417 39.6567 507.798 38.6764 506.978 37.8723C506.157 37.0682 505.157 36.4624 504.056 36.1028L499.047 34.4682C498.86 34.4081 498.698 34.2917 498.582 34.1356C498.467 33.9795 498.405 33.7917 498.405 33.5989C498.405 33.4062 498.467 33.2184 498.582 33.0623C498.698 32.9062 498.86 32.7898 499.047 32.7297L504.056 31.0951C505.157 30.7355 506.157 30.1297 506.978 29.3256C507.798 28.5215 508.417 27.5412 508.783 26.4624L510.451 21.5535ZM500.462 8.63115C500.499 8.5214 500.57 8.4259 500.666 8.35821C500.761 8.29052 500.876 8.25408 500.994 8.25408C501.112 8.25408 501.227 8.29052 501.323 8.35821C501.419 8.4259 501.49 8.5214 501.527 8.63115L502.528 11.576C502.975 12.8888 504.025 13.9177 505.365 14.3561L508.37 15.3369C508.482 15.3732 508.579 15.4432 508.648 15.5369C508.717 15.6307 508.754 15.7433 508.754 15.8589C508.754 15.9745 508.717 16.0872 508.648 16.1809C508.579 16.2747 508.482 16.3447 508.37 16.381L505.365 17.3618C504.704 17.5775 504.104 17.941 503.611 18.4236C503.119 18.9061 502.748 19.4944 502.528 20.1419L501.527 23.0867C501.49 23.1965 501.419 23.292 501.323 23.3597C501.227 23.4274 501.112 23.4638 500.994 23.4638C500.876 23.4638 500.761 23.4274 500.666 23.3597C500.57 23.292 500.499 23.1965 500.462 23.0867L499.461 20.1419C499.241 19.4944 498.87 18.9061 498.377 18.4236C497.885 17.941 497.285 17.5775 496.624 17.3618L493.619 16.381C493.507 16.3447 493.41 16.2747 493.341 16.1809C493.272 16.0872 493.234 15.9745 493.234 15.8589C493.234 15.7433 493.272 15.6307 493.341 15.5369C493.41 15.4432 493.507 15.3732 493.619 15.3369L496.624 14.3561C497.285 14.1404 497.885 13.7769 498.377 13.2943C498.87 12.8118 499.241 12.2234 499.461 11.576L500.462 8.63115ZM518.742 5.97269C518.768 5.90053 518.816 5.83795 518.879 5.79367C518.943 5.74938 519.019 5.72559 519.096 5.72559C519.174 5.72559 519.25 5.74938 519.314 5.79367C519.377 5.83795 519.425 5.90053 519.451 5.97269L520.118 7.93422C520.415 8.81109 521.116 9.49788 522.011 9.78932L524.012 10.4432C524.086 10.4682 524.15 10.5151 524.195 10.5773C524.24 10.6395 524.265 10.714 524.265 10.7904C524.265 10.8667 524.24 10.9412 524.195 11.0034C524.15 11.0657 524.086 11.1125 524.012 11.1376L522.011 11.7914C521.57 11.9352 521.169 12.1777 520.841 12.4997C520.512 12.8217 520.265 13.2144 520.118 13.6465L519.451 15.608C519.425 15.6802 519.377 15.7428 519.314 15.7871C519.25 15.8313 519.174 15.8551 519.096 15.8551C519.019 15.8551 518.943 15.8313 518.879 15.7871C518.816 15.7428 518.768 15.6802 518.742 15.608L518.075 13.6465C517.928 13.2144 517.681 12.8217 517.352 12.4997C517.024 12.1777 516.623 11.9352 516.182 11.7914L514.183 11.1376C514.109 11.1125 514.046 11.0657 514 11.0034C513.955 10.9412 513.931 10.8667 513.931 10.7904C513.931 10.714 513.955 10.6395 514 10.5773C514.046 10.5151 514.109 10.4682 514.183 10.4432L516.185 9.78932C517.079 9.49788 517.78 8.81109 518.078 7.93422L518.742 5.97522V5.97269Z" fill="url(#paint1_linear_4181_99047)"/>
<defs>
<linearGradient id="paint0_linear_4181_99047" x1="444.094" y1="1" x2="444.094" y2="51" gradientUnits="userSpaceOnUse">
<stop stop-color="#8629EF"/>
<stop offset="0.9999" stop-color="#5575F6"/>
</linearGradient>
<linearGradient id="paint1_linear_4181_99047" x1="508.752" y1="5.72559" x2="508.752" y2="46.274" gradientUnits="userSpaceOnUse">
<stop stop-color="#8629EF"/>
<stop offset="0.9999" stop-color="#5575F6"/>
</linearGradient>
</defs>
</svg>
