<svg width="138" height="20" viewBox="0 0 138 20" fill="none" xmlns="http://www.w3.org/2000/svg">
<g id="Locobuzz_idW-CkxXgu_2" clip-path="url(#clip0_3870_140089)">
<g id="Layer 1">
<g id="Layer 2">
<g id="Layer 1-2">
<path id="Vector" d="M80.5504 17.5954C80.5093 17.9897 80.4682 18.3921 80.4272 18.8193C80.3204 18.8193 80.23 18.8357 80.1479 18.8357C79.4168 18.8357 78.6776 18.8275 77.9466 18.8357C77.6755 18.8357 77.6016 18.7536 77.6016 18.4907C77.6016 14.1455 77.6016 9.8086 77.6016 5.47165V1.23327C77.6016 1.01149 77.6508 0.929353 77.8808 0.937567C78.7597 0.953995 79.6386 0.953995 80.5175 0.937567C80.7393 0.937567 80.7886 1.01149 80.7886 1.21684V6.59696C81.0514 6.42446 81.2485 6.27661 81.4621 6.14519C82.3574 5.59486 83.376 5.27452 84.4273 5.21702C85.8566 5.12667 87.1872 5.42237 88.3864 6.20269C90.0292 7.27871 91.0724 8.79007 91.4174 10.7286C91.9595 13.8252 90.711 16.7083 87.8033 18.3264C86.9736 18.77 86.0537 19.0082 85.1173 19.0328C84.0741 19.0985 83.0392 18.9096 82.0864 18.4907C81.5607 18.2443 81.0843 17.9075 80.5504 17.5954ZM84.5341 8.24795C82.3821 8.19046 80.6818 9.87431 80.6736 12.0921C80.6654 14.3673 82.3164 16.0101 84.493 16.0101C86.7519 16.0101 88.3372 14.3427 88.3536 12.1331C88.37 9.89074 86.6533 8.19046 84.5423 8.24795H84.5341Z" fill="white"/>
<path id="Vector_2" d="M62.3752 12.1675C62.3752 8.22478 65.4472 5.19385 69.4392 5.19385C73.4312 5.19385 76.4293 8.15907 76.421 12.0935C76.421 16.0198 73.3572 19.0425 69.3653 19.0589C65.2912 19.0754 62.3095 15.8966 62.367 12.1757L62.3752 12.1675ZM69.3899 8.24121C67.1886 8.24121 65.5622 9.87578 65.554 12.0853C65.554 14.3606 67.1475 15.9951 69.3735 16.0034C71.5995 16.0116 73.2423 14.3606 73.2423 12.1018C73.2423 9.87578 71.6077 8.24121 69.3899 8.24121Z" fill="white"/>
<path id="Vector_3" d="M34.0587 12.1675C34.0587 8.22478 37.1307 5.19385 41.1227 5.19385C45.0818 5.19385 48.1045 8.1755 48.1045 12.0689C48.1045 15.9623 45.0571 19.0343 41.0487 19.0589C36.9746 19.0836 33.993 15.8884 34.0587 12.1675ZM41.0898 8.24942C38.8803 8.24942 37.2539 9.86757 37.2457 12.0771C37.2375 14.3606 38.8063 15.9951 41.0405 16.0116C43.2747 16.028 44.9175 14.377 44.9257 12.1182C44.9257 9.90042 43.2993 8.25764 41.0898 8.24942Z" fill="white"/>
<path id="Vector_4" d="M104.84 5.43052V18.8356H102.195C101.965 18.8356 101.883 18.7617 101.899 18.5317C101.916 18.3017 101.899 18.0553 101.899 17.7432C101.603 17.9485 101.382 18.1046 101.152 18.2524C100.495 18.6549 99.747 18.9096 98.9831 18.9835C97.9728 19.0985 96.9625 19.0656 96.0097 18.6714C94.3587 17.9814 93.3155 16.7493 92.8966 15.0162C92.7406 14.359 92.6584 13.6937 92.6502 13.0202C92.6256 10.5889 92.6502 8.15754 92.6338 5.72622C92.6338 5.47159 92.7077 5.39766 92.9623 5.40588C93.8002 5.42231 94.638 5.42231 95.4758 5.40588C95.7551 5.40588 95.829 5.50444 95.829 5.7755C95.8208 8.10826 95.8126 10.441 95.829 12.7738C95.8126 13.3816 95.944 13.9812 96.2151 14.5315C96.7407 15.5583 97.6279 16.0675 98.7778 15.9936C99.8128 15.9279 100.651 15.4844 101.135 14.5644C101.382 14.088 101.538 13.5705 101.595 13.0284C101.661 12.1906 101.686 11.3528 101.669 10.5231C101.677 8.92965 101.677 7.34436 101.669 5.75086C101.669 5.48802 101.743 5.39766 102.014 5.40588C102.86 5.42231 103.706 5.40588 104.56 5.40588C104.651 5.40588 104.741 5.42231 104.848 5.42231L104.84 5.43052Z" fill="white"/>
<path id="Vector_5" d="M62.0787 16.1016C60.518 18.5575 57.3064 19.6335 54.1933 18.7218C51.4006 17.8675 49.4703 15.313 49.421 12.3971C49.3225 8.86509 51.6224 6.37628 54.144 5.57131C57.1339 4.61029 60.288 5.54667 61.9555 7.83014L59.7624 10.0068C58.8588 8.72546 57.5939 8.13406 56.0086 8.26548C55.0147 8.3394 54.0947 8.82403 53.4787 9.61256C52.1727 11.2061 52.3452 13.6867 53.873 15.0666C54.7929 15.8962 55.8854 16.1016 57.0764 15.9619C58.3167 15.8223 59.1463 15.0584 59.8691 14.0645L62.0869 16.1016H62.0787Z" fill="white"/>
<path id="Vector_6" d="M21.0508 0.963379H24.2706V15.7649H33.3552V18.804H21.0508V0.963379Z" fill="white"/>
<path id="Vector_7" d="M121.627 5.41405L112.707 15.895H118.744C118.884 15.895 119.015 15.9443 119.122 16.0346C119.886 16.9053 120.633 17.7924 121.381 18.6713C121.414 18.7124 121.438 18.7617 121.463 18.8109H106.234C106.374 18.6302 106.505 18.4824 106.629 18.3263L116.231 7.08147C116.641 6.59685 117.06 6.11223 117.463 5.62761C117.57 5.47976 117.742 5.39762 117.923 5.40584C119.04 5.41405 120.165 5.40584 121.282 5.40584H121.619L121.627 5.41405Z" fill="#0F75FB"/>
<path id="Vector_8" d="M122.629 5.42285H137.857C137.792 5.5132 137.751 5.57892 137.701 5.63641C134.03 9.94872 130.35 14.261 126.662 18.5815C126.53 18.754 126.317 18.8526 126.095 18.8362C125.019 18.8198 123.935 18.8362 122.851 18.8362H122.473L131.377 8.37986C131.237 8.37986 131.13 8.36343 131.032 8.36343H125.389C125.2 8.37986 125.011 8.29772 124.896 8.14166C124.189 7.30384 123.483 6.48245 122.777 5.65284C122.727 5.58713 122.686 5.52963 122.612 5.42285H122.629Z" fill="#0F75FB"/>
<path id="Vector_9" d="M128.002 18.8046C128.388 18.3446 128.758 17.9093 129.119 17.4822C129.522 17.0058 129.924 16.5293 130.343 16.0612C130.433 15.9708 130.556 15.9133 130.68 15.9051C132.068 15.8969 133.456 15.8969 134.844 15.9051C134.959 15.9051 135.066 15.9379 135.156 16.0119C135.945 16.9072 136.709 17.8189 137.489 18.7225C137.497 18.7389 137.489 18.7553 137.505 18.8128H128.002V18.8046Z" fill="white"/>
<path id="Vector_10" d="M116.413 5.37833C115.896 5.98616 115.427 6.52828 114.967 7.07861C114.672 7.4236 114.393 7.77679 114.08 8.10535C113.982 8.21213 113.842 8.27784 113.694 8.28606C112.314 8.30249 110.934 8.30249 109.555 8.28606C109.415 8.28606 109.283 8.22856 109.185 8.12999C108.446 7.28396 107.723 6.4215 106.992 5.55904C106.951 5.50975 106.918 5.45226 106.86 5.37012H116.405L116.413 5.37833Z" fill="white"/>
<path id="Vector_11" d="M16.0389 1.01929H2.54347C1.34586 1.01929 0.375 1.99015 0.375 3.18776V16.6832C0.375 17.8808 1.34586 18.8517 2.54347 18.8517H16.0389C17.2366 18.8517 18.2074 17.8808 18.2074 16.6832V3.18776C18.2074 1.99015 17.2366 1.01929 16.0389 1.01929Z" fill="#0F75FB"/>
<path id="Vector_12" d="M9.09838 6.83887L4.99142 11.6687H7.77594C7.84165 11.6687 7.89914 11.6851 7.94843 11.7344C8.29341 12.1368 8.64661 12.5475 8.9916 12.9582C9.00802 12.9747 9.01624 12.9911 9.03266 13.0239H2.00977C2.07548 12.9418 2.13297 12.8679 2.19047 12.8022L6.61777 7.61919C6.80669 7.39741 6.99561 7.17564 7.18453 6.94565C7.23382 6.87994 7.31596 6.83887 7.3981 6.84708H9.09838V6.83887Z" fill="white"/>
<path id="Vector_13" d="M9.55928 6.85645H16.574C16.574 6.85645 16.5247 6.93037 16.5 6.95501C14.808 8.94278 13.1077 10.9305 11.4156 12.9183C11.3581 13.0005 11.2596 13.0415 11.1528 13.0333H9.48535L13.5841 8.21174H10.8242C10.7339 8.21174 10.6517 8.17889 10.5942 8.11317C10.2739 7.72712 9.94533 7.34928 9.61677 6.96323C9.60035 6.93037 9.58392 6.89751 9.55106 6.85645H9.55928Z" fill="white"/>
</g>
</g>
</g>
</g>
<defs>
<clipPath id="clip0_3870_140089">
<rect width="137.485" height="18.1117" fill="white" transform="translate(0.373047 0.945557)"/>
</clipPath>
</defs>
</svg>
