<svg width="20" height="20" viewBox="0 0 20 20" fill="none" xmlns="http://www.w3.org/2000/svg">
<g id="copy_all">
<path id="Vector" d="M15.4165 1.66699H7.9165C6.99984 1.66699 6.24984 2.41699 6.24984 3.33366V13.3337C6.24984 14.2503 6.99984 15.0003 7.9165 15.0003H15.4165C16.3332 15.0003 17.0832 14.2503 17.0832 13.3337V3.33366C17.0832 2.41699 16.3332 1.66699 15.4165 1.66699ZM15.4165 13.3337H7.9165V3.33366H15.4165V13.3337ZM2.9165 12.5003V10.8337H4.58317V12.5003H2.9165ZM2.9165 7.91699H4.58317V9.58366H2.9165V7.91699ZM8.74984 16.667H10.4165V18.3337H8.74984V16.667ZM2.9165 15.417V13.7503H4.58317V15.417H2.9165ZM4.58317 18.3337C3.6665 18.3337 2.9165 17.5837 2.9165 16.667H4.58317V18.3337ZM7.49984 18.3337H5.83317V16.667H7.49984V18.3337ZM11.6665 18.3337V16.667H13.3332C13.3332 17.5837 12.5832 18.3337 11.6665 18.3337ZM4.58317 5.00033V6.66699H2.9165C2.9165 5.75033 3.6665 5.00033 4.58317 5.00033Z" fill="#707985"/>
</g>
</svg>
