<svg width="16" height="16" viewBox="0 0 16 16" fill="none" xmlns="http://www.w3.org/2000/svg">
<g id="info">
<path id="Vector" d="M7.33203 4.66536H8.66537V5.9987H7.33203V4.66536ZM7.33203 7.33203H8.66537V11.332H7.33203V7.33203ZM7.9987 1.33203C4.3187 1.33203 1.33203 4.3187 1.33203 7.9987C1.33203 11.6787 4.3187 14.6654 7.9987 14.6654C11.6787 14.6654 14.6654 11.6787 14.6654 7.9987C14.6654 4.3187 11.6787 1.33203 7.9987 1.33203ZM7.9987 13.332C5.0587 13.332 2.66536 10.9387 2.66536 7.9987C2.66536 5.0587 5.0587 2.66536 7.9987 2.66536C10.9387 2.66536 13.332 5.0587 13.332 7.9987C13.332 10.9387 10.9387 13.332 7.9987 13.332Z" fill="#707985"/>
</g>
</svg>
