<svg width="16" height="16" viewBox="0 0 16 16" fill="none" xmlns="http://www.w3.org/2000/svg">
<g id="favorite_border">
<path id="Vector" d="M11 1.88281C9.83998 1.88281 8.72665 2.42281 7.99998 3.27615C7.27331 2.42281 6.15998 1.88281 4.99998 1.88281C2.94665 1.88281 1.33331 3.49615 1.33331 5.54948C1.33331 8.06948 3.59998 10.1228 7.03331 13.2428L7.99998 14.1161L8.96665 13.2361C12.4 10.1228 14.6666 8.06948 14.6666 5.54948C14.6666 3.49615 13.0533 1.88281 11 1.88281ZM8.06665 12.2495L7.99998 12.3161L7.93331 12.2495C4.75998 9.37615 2.66665 7.47615 2.66665 5.54948C2.66665 4.21615 3.66665 3.21615 4.99998 3.21615C6.02665 3.21615 7.02665 3.87615 7.37998 4.78948H8.62665C8.97331 3.87615 9.97331 3.21615 11 3.21615C12.3333 3.21615 13.3333 4.21615 13.3333 5.54948C13.3333 7.47615 11.24 9.37615 8.06665 12.2495Z" fill="#1A1A1A"/>
</g>
</svg>
