<svg width="17" height="16" viewBox="0 0 17 16" fill="none" xmlns="http://www.w3.org/2000/svg">
<g id="Frame 1000008344">
<rect id="Rectangle 35" x="0.714355" width="16" height="16" rx="4" fill="#0077B5"/>
<path id="Shape" d="M10.9087 6.42969C12.0684 6.42981 12.938 7.18693 12.938 8.81348V11.8496H11.1753V9.0166C11.1753 8.30496 10.9198 7.81934 10.2817 7.81934C9.79499 7.81949 9.5048 8.14676 9.37744 8.46289C9.33085 8.57621 9.31982 8.73432 9.31982 8.89258V11.8506H7.55713C7.55713 11.8506 7.58036 7.05065 7.55713 6.55371H9.31982V7.30469C9.55376 6.94409 9.97286 6.42969 10.9087 6.42969ZM6.58154 11.8496H4.81885V6.55371H6.58154V11.8496ZM5.71143 4C6.31441 4 6.68631 4.39578 6.69775 4.91504C6.69762 5.42342 6.31419 5.83008 5.69971 5.83008H5.68896C5.09732 5.83008 4.71449 5.42342 4.71436 4.91504C4.71436 4.39581 5.10851 4.00005 5.71143 4Z" fill="white"/>
</g>
</svg>
