<svg width="20" height="20" viewBox="0 0 20 20" fill="none" xmlns="http://www.w3.org/2000/svg">
<g id="thumb_down">
<path id="Vector" d="M12.3997 2H5.19971C4.53571 2 3.96771 2.4 3.72771 2.976L1.31171 8.616C1.23971 8.8 1.19971 8.992 1.19971 9.2V10.8C1.19971 11.68 1.91971 12.4 2.79971 12.4H7.84771L7.08771 16.056L7.06371 16.312C7.06371 16.64 7.19971 16.944 7.41571 17.16L8.26371 18L13.5357 12.728C13.8237 12.44 13.9997 12.04 13.9997 11.6V3.6C13.9997 2.72 13.2797 2 12.3997 2ZM15.5997 2V11.6H18.7997V2H15.5997Z" fill="black"/>
</g>
</svg>
