<svg width="251" height="251" viewBox="0 0 251 251" fill="none" xmlns="http://www.w3.org/2000/svg">
<g id="Competitive intelligence-pana 1">
<g id="freepik--background-complete--inject-4">
<path id="Vector" d="M221.021 62.2083C222.347 61.6224 223.472 60.6605 224.257 59.4417C225.042 58.223 225.453 56.8007 225.438 55.351C225.438 51.2597 222.356 47.9264 218.516 47.9063C214.675 47.8863 211.553 51.1944 211.538 55.2857C211.51 56.7479 211.915 58.1856 212.703 59.4176C213.491 60.6496 214.626 61.6206 215.965 62.2083C205.273 63.8197 205.76 75.441 205.76 75.441L231.045 75.5565C231.045 75.5565 231.623 63.8097 221.021 62.2083Z" fill="#E8F3FA"/>
<path id="Vector_2" d="M180.505 95.0854C182.715 92.4273 182.353 88.4803 179.695 86.2696C177.036 84.0589 173.09 84.4216 170.879 87.0797C168.668 89.7378 169.031 93.6847 171.689 95.8954C174.347 98.1061 178.294 97.7435 180.505 95.0854Z" fill="white"/>
<path id="Vector_3" d="M179.917 84.2347C179.807 84.5361 179.61 84.7981 179.352 84.9878C179.093 85.1774 178.784 85.286 178.464 85.3C178.143 85.3139 177.826 85.2326 177.552 85.0662C177.277 84.8998 177.059 84.6558 176.923 84.3652C176.788 84.0745 176.742 83.7502 176.79 83.4332C176.839 83.1163 176.981 82.8209 177.198 82.5845C177.414 82.3481 177.696 82.1812 178.008 82.105C178.319 82.0288 178.646 82.0467 178.948 82.1565C179.352 82.3036 179.681 82.6052 179.863 82.9949C180.044 83.3847 180.064 83.8307 179.917 84.2347Z" fill="#E8F3FA"/>
<path id="Vector_4" d="M145.94 139.372L167.471 147.204C168.424 147.551 169.201 148.263 169.63 149.182C170.059 150.101 170.105 151.154 169.758 152.107L169.499 152.819L140.778 142.372L141.038 141.659C141.384 140.706 142.096 139.929 143.015 139.5C143.934 139.071 144.987 139.025 145.94 139.372Z" fill="white"/>
<path id="Vector_5" d="M152.202 132.162C152.202 132.162 149.3 134.25 146.81 134.421C146.075 134.456 145.35 134.613 144.667 134.888C144.293 135.024 143.965 135.264 143.723 135.58C143.48 135.896 143.332 136.274 143.296 136.67C143.05 138.382 146.113 139.431 146.113 139.431L158.12 143.798L161.167 135.425L152.202 132.162Z" fill="#E8F3FA"/>
<path id="Vector_6" d="M168.627 147.623C168.627 147.623 170.213 148.381 171.137 147.026C171.39 146.653 171.532 146.216 171.546 145.765C171.561 145.314 171.446 144.869 171.217 144.481C170.848 143.862 170.392 143.299 169.862 142.809C168.06 141.082 167.176 137.618 167.176 137.618L158.216 134.355L155.168 142.734" fill="#E8F3FA"/>
<path id="Vector_7" d="M151.448 129.531L152.181 132.157L167.231 137.634L169.575 136.128L151.448 129.531Z" fill="white"/>
<path id="Vector_8" d="M174.442 112.722L163.008 108.586C162.351 108.349 161.626 108.689 161.389 109.345L161.218 109.817C160.981 110.474 161.32 111.199 161.977 111.437L173.411 115.572C174.067 115.81 174.792 115.47 175.03 114.813L175.201 114.341C175.438 113.684 175.098 112.959 174.442 112.722Z" fill="#E8F3FA"/>
<path id="Vector_9" d="M174.209 111.003L164.043 107.304C163.631 107.155 163.176 107.367 163.026 107.779L162.918 108.076C162.768 108.487 162.981 108.943 163.392 109.092L173.559 112.791C173.97 112.94 174.425 112.728 174.575 112.316L174.683 112.019C174.833 111.607 174.621 111.152 174.209 111.003Z" fill="#E8F3FA"/>
<path id="Vector_10" d="M174.594 108.135L165.588 104.859C165.343 104.769 165.072 104.896 164.983 105.141L164.918 105.32C164.829 105.565 164.955 105.836 165.2 105.925L174.206 109.201C174.451 109.29 174.722 109.164 174.811 108.919L174.876 108.739C174.965 108.494 174.839 108.224 174.594 108.135Z" fill="#E8F3FA"/>
<path id="Vector_11" d="M163.436 112.334C163.436 112.334 158.466 125.501 151.448 129.517L160.534 132.826L167.462 113.785L163.436 112.334Z" fill="#E8F3FA"/>
<path id="Vector_12" d="M171.207 115.158C171.207 115.158 166.784 128.536 169.576 136.127L160.253 132.738L167.166 113.697L171.207 115.158Z" fill="#E8F3FA"/>
<path id="Vector_13" d="M184.842 93.1725C183.587 90.6625 181.222 92.0029 180.273 92.4647C179.325 92.9266 177.984 92.2589 177.698 90.6977C177.457 89.4126 176.744 89.1365 176.433 89.0612C176.122 88.9859 175.429 88.6696 174.425 89.5029C173.2 90.5069 171.744 90.1656 171.313 89.2017C170.881 88.2379 169.927 85.6877 167.362 86.8122C167.362 86.8122 169.495 93.2278 168.225 98.6142C166.955 104.001 166.017 106.395 164.947 107.65L169.008 109.126L169.264 109.221L173.326 110.697C173.301 109.061 174.119 106.626 176.604 101.661C179.089 96.6966 184.842 93.1725 184.842 93.1725Z" fill="#E8F3FA"/>
<path id="Vector_14" d="M167.518 147.238C167.492 147.308 162.628 145.601 156.659 143.427C150.69 141.254 145.861 139.442 145.886 139.371C145.911 139.301 150.771 141.008 156.745 143.181C162.718 145.355 167.543 147.172 167.518 147.238Z" fill="white"/>
<path id="Vector_15" d="M167.322 137.664C167.297 137.735 163.888 136.555 159.712 135.034C155.535 133.513 152.182 132.228 152.182 132.157C152.182 132.087 155.615 133.267 159.797 134.788C163.979 136.309 167.347 137.599 167.322 137.664Z" fill="white"/>
<path id="Vector_16" d="M169.576 136.128C169.576 136.198 165.475 134.773 160.47 132.955C155.465 131.138 151.434 129.602 151.434 129.532C151.434 129.462 155.535 130.887 160.54 132.709C165.545 134.532 169.601 136.043 169.576 136.128Z" fill="white"/>
<path id="Vector_17" d="M172.858 115.761C172.858 115.826 170.389 115.003 167.392 113.914C164.395 112.824 161.995 111.906 162.015 111.815C162.035 111.725 164.49 112.578 167.482 113.668C170.474 114.757 172.884 115.691 172.858 115.761Z" fill="white"/>
<path id="Vector_18" d="M173.898 112.91C173.872 112.98 171.423 112.152 168.431 111.062C165.439 109.973 163.029 109.054 163.054 108.969C163.079 108.884 165.524 109.727 168.521 110.816C171.518 111.906 173.918 112.844 173.898 112.91Z" fill="white"/>
<path id="Vector_19" d="M174.049 110.943C174.049 111.008 171.8 110.265 169.079 109.276C166.358 108.287 164.179 107.429 164.204 107.363C165.887 107.834 167.544 108.39 169.169 109.03C170.827 109.585 172.455 110.223 174.049 110.943Z" fill="white"/>
<path id="Vector_20" d="M174.194 109.236C172.647 108.816 171.124 108.313 169.631 107.73C168.108 107.221 166.613 106.631 165.153 105.963C166.701 106.381 168.224 106.884 169.716 107.469C171.241 107.975 172.735 108.565 174.194 109.236Z" fill="white"/>
<path id="Vector_21" d="M174.636 108.082C173.087 107.664 171.562 107.161 170.068 106.576C168.545 106.066 167.05 105.476 165.59 104.809C167.139 105.226 168.664 105.729 170.158 106.315C171.681 106.823 173.176 107.413 174.636 108.082Z" fill="white"/>
<path id="Vector_22" d="M167.352 86.8109C167.352 86.8109 167.417 86.7658 167.552 86.7055L167.808 86.6001L168.18 86.5148C168.346 86.4915 168.514 86.478 168.682 86.4746C168.872 86.4835 169.061 86.5155 169.244 86.57C169.692 86.7184 170.088 86.9898 170.389 87.3531C170.747 87.7812 171.039 88.2599 171.257 88.7738C171.355 89.0511 171.503 89.308 171.694 89.5318C171.907 89.7462 172.18 89.8913 172.477 89.9484C172.802 90.0061 173.136 89.991 173.454 89.9042C173.773 89.8174 174.068 89.6611 174.319 89.4464C174.614 89.1927 174.955 88.9983 175.323 88.8742C175.721 88.7437 176.153 88.7744 176.528 88.9595C176.721 89.004 176.903 89.0896 177.06 89.2105C177.223 89.334 177.362 89.4853 177.472 89.6573C177.674 89.9853 177.809 90.3506 177.868 90.7316C177.921 91.0583 178.045 91.3695 178.231 91.6428C178.418 91.9161 178.663 92.1449 178.948 92.3129C179.213 92.4617 179.518 92.5264 179.821 92.4986C180.11 92.4485 180.387 92.3464 180.64 92.1974C181.137 91.9458 181.668 91.7666 182.216 91.6653C182.68 91.5836 183.157 91.6305 183.596 91.8008C183.775 91.8764 183.944 91.9743 184.098 92.092C184.221 92.1951 184.335 92.3076 184.44 92.4283L184.666 92.7345L184.796 92.9755C184.861 93.1111 184.896 93.1813 184.886 93.1864C184.876 93.1914 184.831 93.1261 184.751 93.0056L184.6 92.7747L184.364 92.4936C184.256 92.3872 184.142 92.2866 184.023 92.1924C183.878 92.0863 183.719 92.0002 183.551 91.9364C183.136 91.7896 182.688 91.7584 182.256 91.846C181.731 91.9578 181.224 92.1419 180.75 92.3932L180.343 92.594C180.185 92.6677 180.015 92.712 179.841 92.7245C179.494 92.7606 179.144 92.6906 178.837 92.5237C178.518 92.342 178.242 92.0914 178.031 91.7901C177.82 91.4889 177.679 91.1444 177.617 90.7818C177.492 90.0991 177.181 89.3762 176.413 89.1904C176.099 89.0417 175.739 89.0183 175.409 89.1252C175.076 89.2312 174.767 89.4018 174.5 89.6272C174.221 89.8667 173.891 90.0402 173.536 90.135C173.18 90.2297 172.808 90.2431 172.447 90.1744C172.103 90.1026 171.79 89.9274 171.548 89.6724C171.432 89.5507 171.336 89.4118 171.262 89.2607L171.081 88.844C170.88 88.3433 170.606 87.8748 170.268 87.4535C169.994 87.1084 169.632 86.8446 169.219 86.6905C169.056 86.6351 168.888 86.5981 168.717 86.58C168.565 86.5695 168.412 86.5695 168.26 86.58L167.899 86.6403L167.638 86.7206C167.548 86.7664 167.451 86.797 167.352 86.8109Z" fill="white"/>
<path id="Vector_23" d="M74.4819 109.051C75.8409 108.231 77.3028 107.597 78.8292 107.163L79.7278 102.861L86.9968 102.73L88.0409 107.002C89.5827 107.38 91.0668 107.962 92.4535 108.734L96.1282 106.33L101.359 111.38L99.0849 115.135C99.9041 116.494 100.539 117.956 100.972 119.482L105.275 120.381L105.405 127.65L101.133 128.694C100.753 130.236 100.169 131.72 99.3962 133.106L101.806 136.781L96.7557 142.012L93.0007 139.733C91.6419 140.554 90.18 141.19 88.6534 141.625L87.7548 145.928L80.4858 146.053L79.4417 141.786C77.8997 141.407 76.4156 140.823 75.0291 140.049L71.3545 142.459L66.1236 137.409L68.4027 133.654C67.581 132.294 66.9445 130.83 66.5102 129.301L62.208 128.408L62.0825 121.139L66.3495 120.09C66.7294 118.55 67.3135 117.067 68.0864 115.682L65.6768 112.007L70.727 106.777L74.4819 109.051ZM78.3574 118.739C77.2878 119.85 76.5714 121.253 76.2988 122.771C76.0262 124.289 76.2095 125.853 76.8257 127.267C77.4418 128.681 78.4632 129.88 79.7606 130.713C81.058 131.547 82.5734 131.977 84.1153 131.95C85.6571 131.923 87.1563 131.439 88.4234 130.56C89.6905 129.681 90.6687 128.446 91.2343 127.012C91.8 125.577 91.9278 124.007 91.6015 122.5C91.2753 120.992 90.5096 119.616 89.4014 118.543C88.664 117.83 87.7931 117.269 86.8385 116.893C85.884 116.516 84.8646 116.332 83.8387 116.35C82.8129 116.368 81.8006 116.589 80.8601 116.999C79.9195 117.409 79.069 118 78.3574 118.739Z" fill="white"/>
<path id="Vector_24" d="M25.0701 186.564C26.0113 185.997 27.0243 185.558 28.0821 185.259L28.6995 182.292L33.7195 182.207L34.4424 185.149C35.5044 185.412 36.5272 185.814 37.4845 186.344L40.0196 184.687L43.624 188.166L42.0377 190.761C42.6036 191.703 43.0408 192.716 43.3378 193.773L46.3047 194.391L46.395 199.411L43.4483 200.133C43.1881 201.196 42.7863 202.22 42.2535 203.176L43.9151 205.711L40.4313 209.32L37.8409 207.749C36.8992 208.314 35.8863 208.751 34.8289 209.049L34.2115 212.016L29.1915 212.106L28.4686 209.159C27.4059 208.898 26.3828 208.497 25.4265 207.965L22.9165 209.626L19.3121 206.142L20.8834 203.552C20.3164 202.611 19.8775 201.598 19.5782 200.54L16.6114 199.923L16.521 194.903L19.4677 194.18C19.7288 193.117 20.1306 192.094 20.6625 191.138L19.0009 188.628L22.4848 185.018L25.0751 186.589L25.0701 186.564ZM27.7457 193.241C27.0056 194.006 26.509 194.974 26.3188 196.021C26.1286 197.069 26.2534 198.149 26.6774 199.126C27.1013 200.102 27.8054 200.931 28.7005 201.507C29.5957 202.084 30.6416 202.381 31.706 202.363C32.7705 202.345 33.8056 202.011 34.6804 201.405C35.5552 200.798 36.2304 199.945 36.6206 198.955C37.0108 197.964 37.0985 196.88 36.8725 195.84C36.6465 194.8 36.117 193.85 35.351 193.11C34.3242 192.121 32.947 191.579 31.5214 191.604C30.0958 191.628 28.738 192.217 27.7457 193.241Z" fill="#E8F3FA"/>
<path id="Vector_25" d="M22.4393 75.9321C23.0095 75.5845 23.6242 75.316 24.2666 75.1339L24.6431 73.3267L27.7003 73.2715L28.1421 75.0686C28.7894 75.2293 29.4124 75.4758 29.9944 75.8016L31.5406 74.7976L33.7444 76.926L32.7856 78.5023C33.1274 79.0712 33.3941 79.6821 33.5787 80.3196L35.3909 80.6961L35.4411 83.7532L33.649 84.195C33.4881 84.8423 33.2417 85.4653 32.9161 86.0474L33.9201 87.5935L31.7966 89.7973L30.2254 88.8536C29.6535 89.1966 29.0392 89.4633 28.3981 89.6467L28.0216 91.4589L24.9644 91.5091L24.5226 89.717C23.8737 89.5562 23.2491 89.3098 22.6652 88.9841L21.1191 89.9881L18.9203 87.8496L19.8791 86.2683C19.5293 85.7022 19.2591 85.0907 19.0759 84.451L17.2637 84.0745L17.2085 81.0123L19.0057 80.5756C19.1648 79.9269 19.4096 79.3023 19.7336 78.7182L18.7296 77.172L20.853 74.9733L22.4343 75.9321H22.4393ZM24.0658 80.0033C23.6149 80.4704 23.3125 81.0607 23.197 81.6996C23.0815 82.3385 23.158 82.9973 23.4169 83.5927C23.6758 84.1881 24.1054 84.6934 24.6514 85.0447C25.1974 85.396 25.8353 85.5775 26.4845 85.5663C27.1336 85.555 27.7649 85.3516 28.2984 84.9816C28.832 84.6117 29.2439 84.0918 29.482 83.4878C29.7201 82.8838 29.7738 82.2227 29.6363 81.5882C29.4987 80.9537 29.1762 80.3742 28.7093 79.923C28.0824 79.3189 27.2414 78.9881 26.371 79.0032C25.5005 79.0182 24.6715 79.3779 24.0658 80.0033Z" fill="#E8F3FA"/>
<path id="Vector_26" d="M121.268 23.0929C121.704 26.0115 121.265 28.9939 120.005 31.6624C118.745 34.3309 116.721 36.5654 114.19 38.083C111.659 39.6006 108.735 40.333 105.787 40.1875C102.84 40.042 100.002 39.025 97.6329 37.2655C95.2638 35.5059 93.4702 33.0829 92.4792 30.3032C91.4881 27.5236 91.3443 24.5124 92.0658 21.6509C92.7873 18.7894 94.3418 16.2065 96.5323 14.2291C98.7228 12.2517 101.451 10.9688 104.371 10.5429C108.276 9.96946 112.248 10.969 115.416 13.3221C118.584 15.6751 120.689 19.1893 121.268 23.0929Z" fill="#F5F5F5"/>
<path id="Vector_27" d="M117.759 23.5948C118.088 25.8197 117.748 28.092 116.785 30.124C115.821 32.1561 114.276 33.8565 112.346 35.0102C110.415 36.1638 108.186 36.7187 105.939 36.6047C103.693 36.4907 101.532 35.7128 99.7278 34.3696C97.924 33.0264 96.5592 31.1783 95.8063 29.0591C95.0533 26.9399 94.946 24.645 95.498 22.4648C96.0499 20.2846 97.2363 18.3172 98.9069 16.8115C100.577 15.3059 102.657 14.3297 104.883 14.0066C106.358 13.7905 107.861 13.8671 109.307 14.232C110.752 14.5969 112.112 15.243 113.307 16.1334C114.503 17.0238 115.512 18.141 116.275 19.4213C117.039 20.7015 117.544 22.1197 117.759 23.5948Z" fill="#E8F3FA"/>
<path id="Vector_28" d="M117.704 23.2519C117.49 22.8363 117.322 22.3987 117.202 21.9467C116.774 20.7739 116.166 19.6748 115.4 18.6887C114.875 18.0163 114.277 17.4036 113.618 16.8614C112.858 16.2457 112.023 15.7295 111.133 15.3253C110.152 14.8817 109.112 14.5824 108.046 14.4368C107.482 14.3602 106.913 14.3267 106.344 14.3364C105.758 14.3514 105.174 14.4085 104.597 14.5071C104.021 14.6122 103.454 14.7599 102.9 14.9488C102.363 15.1335 101.841 15.3601 101.339 15.6265C100.387 16.1313 99.5132 16.7704 98.7436 17.5241C98.0472 18.2085 97.4415 18.9795 96.9414 19.8182C96.5096 20.5543 96.1595 21.3354 95.8973 22.1475C95.5193 23.3374 95.328 24.5787 95.33 25.8272C95.3809 26.2926 95.3809 26.7623 95.33 27.2277C95.1267 26.7954 95.0172 26.3249 95.0087 25.8472C94.8703 24.549 94.9759 23.2363 95.32 21.9768C95.557 21.1043 95.8939 20.2621 96.324 19.4668C96.8289 18.5501 97.4554 17.7058 98.1864 16.9568C99.4299 15.6851 100.95 14.7179 102.629 14.1306C103.225 13.9185 103.836 13.7507 104.456 13.6286C105.079 13.5233 105.708 13.4645 106.339 13.4529C106.954 13.4421 107.568 13.4824 108.176 13.5733C108.762 13.6558 109.339 13.7868 109.903 13.9649C110.445 14.1298 110.973 14.3345 111.484 14.5773C113.255 15.4165 114.779 16.6997 115.907 18.3022C116.664 19.3614 117.216 20.5534 117.533 21.8162C117.696 22.2763 117.754 22.7666 117.704 23.2519Z" fill="white"/>
<path id="Vector_29" d="M108.758 31.7609L109.075 33.7187L107.328 33.9948L107.022 32.0922C105.463 32.2947 103.88 32.0528 102.453 31.3944L103.071 29.1154C104.185 29.6552 105.42 29.8957 106.655 29.8131L106.188 26.8965C104.18 26.7359 101.911 26.4397 101.51 23.9448C101.213 22.0924 102.303 20.2902 105.024 19.5372L104.717 17.5995L106.459 17.3184L106.766 19.2209C108.026 19.0918 109.299 19.2638 110.48 19.7229L109.938 21.997C109.042 21.6443 108.085 21.4736 107.122 21.495L107.624 24.4618C109.632 24.6024 111.866 24.9086 112.262 27.3684C112.518 29.2107 111.444 30.9928 108.758 31.7609ZM105.782 24.3263L105.38 21.8514C104.491 22.2078 104.205 22.7751 104.296 23.3574C104.386 23.9397 104.973 24.2058 105.782 24.3263ZM109.436 28.0561C109.336 27.4437 108.779 27.1927 107.985 27.0521L108.372 29.4567C109.23 29.1154 109.542 28.6134 109.436 28.0561Z" fill="white"/>
<path id="Vector_30" d="M169.812 229.334C170.159 231.682 169.801 234.081 168.784 236.226C167.767 238.372 166.136 240.167 164.098 241.385C162.06 242.603 159.707 243.189 157.336 243.069C154.965 242.949 152.682 242.128 150.778 240.71C148.874 239.292 147.433 237.342 146.638 235.105C145.843 232.868 145.729 230.445 146.311 228.143C146.894 225.842 148.146 223.765 149.909 222.175C151.673 220.585 153.868 219.555 156.218 219.213C157.775 218.984 159.362 219.065 160.888 219.449C162.414 219.834 163.85 220.516 165.112 221.456C166.375 222.396 167.44 223.575 168.246 224.927C169.052 226.279 169.584 227.776 169.812 229.334Z" fill="#F5F5F5"/>
<path id="Vector_31" d="M166.986 229.741C167.25 231.531 166.977 233.358 166.202 234.992C165.428 236.627 164.185 237.995 162.633 238.923C161.08 239.851 159.287 240.297 157.481 240.206C155.674 240.115 153.936 239.49 152.485 238.41C151.034 237.33 149.936 235.844 149.329 234.14C148.723 232.436 148.636 230.59 149.079 228.836C149.523 227.083 150.476 225.5 151.819 224.289C153.162 223.077 154.834 222.291 156.624 222.03C157.811 221.856 159.02 221.917 160.183 222.211C161.346 222.504 162.44 223.023 163.402 223.739C164.364 224.456 165.176 225.354 165.791 226.384C166.406 227.414 166.812 228.554 166.986 229.741Z" fill="#E8F3FA"/>
<path id="Vector_32" d="M166.94 229.458C166.774 229.121 166.641 228.768 166.544 228.404C166.201 227.461 165.713 226.577 165.098 225.784C164.192 224.614 163.013 223.685 161.664 223.078C161.279 222.902 160.882 222.756 160.474 222.641C160.051 222.515 159.618 222.423 159.179 222.365C158.727 222.3 158.27 222.273 157.814 222.285C157.343 222.295 156.873 222.341 156.408 222.42C155.945 222.504 155.488 222.623 155.043 222.777C154.611 222.924 154.191 223.105 153.788 223.319C153.396 223.527 153.02 223.764 152.663 224.027C152.322 224.277 152 224.552 151.699 224.85C150.644 225.885 149.856 227.162 149.405 228.57C149.101 229.526 148.948 230.523 148.953 231.527C148.99 231.9 148.99 232.277 148.953 232.651C148.784 232.305 148.693 231.926 148.687 231.542C148.58 230.498 148.665 229.443 148.938 228.429C149.48 226.463 150.651 224.728 152.272 223.49C152.651 223.201 153.052 222.943 153.471 222.716C153.905 222.482 154.357 222.282 154.822 222.119C155.303 221.952 155.796 221.822 156.298 221.733C156.796 221.647 157.299 221.599 157.804 221.587C158.298 221.58 158.791 221.613 159.28 221.687C159.751 221.753 160.216 221.857 160.67 221.999C161.107 222.134 161.533 222.302 161.945 222.501C162.703 222.864 163.408 223.327 164.044 223.876C164.592 224.356 165.082 224.899 165.504 225.493C166.111 226.349 166.554 227.311 166.81 228.329C166.935 228.691 166.98 229.077 166.94 229.458Z" fill="white"/>
<path id="Vector_33" d="M159.747 236.302L159.998 237.879L158.597 238.1L158.351 236.594C157.097 236.753 155.824 236.556 154.676 236.026L155.178 234.194C156.074 234.627 157.067 234.819 158.06 234.751L157.683 232.407C156.067 232.276 154.245 232.035 153.923 230.032C153.682 228.526 154.561 227.091 156.735 226.483L156.489 224.927L157.889 224.701L158.135 226.232C159.148 226.126 160.172 226.262 161.122 226.629L160.695 228.471C159.974 228.192 159.204 228.061 158.431 228.085L158.813 230.469C160.429 230.585 162.227 230.831 162.543 232.808C162.774 234.249 161.91 235.685 159.747 236.302ZM157.352 230.324L157.031 228.316C156.313 228.602 156.082 229.059 156.157 229.52C156.233 229.982 156.7 230.228 157.352 230.324ZM160.309 233.336C160.229 232.834 159.777 232.643 159.139 232.527L159.45 234.465C160.138 234.184 160.379 233.772 160.309 233.321V233.336Z" fill="white"/>
</g>
<g id="freepik--Character--inject-4">
<path id="Vector_34" d="M215.991 130.24C215.991 130.24 215.991 129.738 215.94 128.799C215.94 128.322 215.91 127.73 215.89 127.027C215.87 126.324 215.855 125.521 215.765 124.577C215.674 123.633 215.614 122.619 215.524 121.475C215.433 120.33 215.228 119.095 215.062 117.75C214.615 114.658 214.013 111.59 213.26 108.558C213.069 107.7 212.783 106.836 212.542 105.938L212.15 104.582L211.955 103.89L211.724 103.197L210.755 100.351C210.599 99.8485 210.408 99.3817 210.213 98.8947C210.017 98.4078 209.826 97.8907 209.63 97.4138C207.917 93.0857 205.852 88.9051 203.456 84.914C197.616 75.1601 189.973 66.6062 180.936 59.7086C169.958 51.3503 157.176 45.677 143.612 43.1426L140.866 42.6406L138.075 42.2842C136.213 42.0031 134.315 41.9228 132.408 41.7822C131.454 41.6969 130.49 41.7169 129.526 41.6818L128.08 41.6467C127.578 41.6467 127.112 41.6165 126.625 41.6467C124.682 41.7069 122.724 41.6969 120.756 41.8926C116.764 42.1775 112.796 42.7326 108.879 43.5543C106.901 44.0111 104.903 44.4378 102.935 45.0603C100.927 45.5623 99.0046 46.2902 97.0267 46.9478C89.0035 49.8642 81.4426 53.9219 74.5772 58.9958C71.0518 61.6362 67.7107 64.5144 64.5774 67.6101C61.4235 70.8008 58.498 74.2094 55.8225 77.8107L53.8497 80.5868L51.9973 83.4633C51.3597 84.412 50.8276 85.4311 50.2453 86.415L49.3869 87.921L48.5937 89.427L47.8056 90.9682C47.5395 91.4702 47.3036 91.9973 47.0526 92.5294L45.6219 95.697C45.1969 96.7746 44.7685 97.8556 44.3368 98.9399L44.0155 99.7532L43.7344 100.581L43.1721 102.253L42.6149 103.915L42.1129 105.606L41.6109 107.298L41.375 108.152L41.1742 109.01C40.9131 110.158 40.6487 111.308 40.381 112.459C40.1769 113.623 39.9694 114.795 39.7585 115.973C38.2157 125.42 38.2157 135.054 39.7585 144.501C39.9694 145.671 40.1752 146.836 40.386 148.015C40.5969 149.195 40.888 150.32 41.1742 151.464L41.375 152.328C41.4452 152.614 41.5306 152.895 41.6109 153.176L42.1129 154.873L42.6149 156.565L43.1721 158.206L43.7344 159.868L44.0155 160.696L44.3368 161.509L45.6169 164.757L47.0526 167.925L47.409 168.713L47.8056 169.486L48.5937 171.022L49.3869 172.558L50.2453 174.064C50.8276 175.068 51.3547 176.072 51.9973 177.016C52.6398 177.96 53.2322 178.934 53.8446 179.892L55.8225 182.669C58.4961 186.278 61.4217 189.693 64.5774 192.889C67.7118 195.984 71.0528 198.862 74.5772 201.504C78.0536 204.06 81.7036 206.371 85.5008 208.421C89.2294 210.397 93.0868 212.119 97.0468 213.577C99.0246 214.234 100.967 214.947 102.96 215.464C104.923 216.072 106.926 216.493 108.899 216.97C112.818 217.79 116.788 218.343 120.781 218.627C122.744 218.823 124.707 218.812 126.65 218.873C127.152 218.898 127.619 218.873 128.106 218.873L129.551 218.838C130.515 218.802 131.479 218.838 132.433 218.737C134.34 218.577 136.238 218.496 138.1 218.235L140.891 217.879L143.637 217.377C157.201 214.842 169.983 209.169 180.961 200.811C189.997 193.91 197.639 185.355 203.481 175.6C205.872 171.609 207.936 167.431 209.65 163.106L210.233 161.625C210.428 161.123 210.619 160.656 210.775 160.164L211.744 157.323C211.819 157.087 211.899 156.856 211.975 156.63C212.05 156.404 212.11 156.168 212.175 155.937C212.306 155.48 212.431 155.023 212.562 154.577C212.803 153.683 213.089 152.82 213.28 151.956C214.033 148.926 214.635 145.86 215.082 142.77C215.248 141.424 215.428 140.184 215.544 139.045C215.659 137.905 215.715 136.866 215.785 135.942C215.855 135.019 215.895 134.2 215.91 133.493C215.925 132.785 215.945 132.197 215.961 131.721C215.991 130.772 216.011 130.285 216.011 130.285C216.011 130.285 216.011 130.787 216.011 131.721C216.011 132.197 215.986 132.79 215.971 133.493C215.956 134.195 215.945 134.999 215.86 135.942C215.775 136.886 215.715 137.905 215.629 139.05C215.544 140.194 215.338 141.429 215.177 142.78C214.724 145.861 214.114 148.917 213.35 151.936C213.159 152.799 212.878 153.663 212.632 154.562C212.507 155.008 212.381 155.465 212.251 155.922L212.055 156.62C211.975 156.846 211.899 157.077 211.819 157.307L210.87 160.139C210.715 160.641 210.524 161.113 210.328 161.6C210.132 162.087 209.942 162.604 209.746 163.106C208.037 167.441 205.977 171.63 203.586 175.63C197.748 185.412 190.1 193.992 181.051 200.911C170.056 209.299 157.25 214.998 143.657 217.552L140.907 218.054L138.11 218.416C136.243 218.697 134.335 218.777 132.423 218.918C131.469 219.003 130.505 218.983 129.536 219.023L128.085 219.064C127.583 219.064 127.117 219.089 126.63 219.064C124.682 218.998 122.714 219.008 120.746 218.818C116.743 218.534 112.763 217.981 108.834 217.161C106.826 216.699 104.848 216.272 102.875 215.655C100.867 215.153 98.9242 214.425 96.9464 213.762C88.8963 210.835 81.3114 206.76 74.4266 201.664C70.8888 199.016 67.5345 196.131 64.3866 193.03C61.2239 189.822 58.2901 186.397 55.6067 182.779C54.944 181.855 54.2864 180.927 53.5987 179.998L51.7413 177.111C51.1037 176.163 50.5716 175.139 49.9843 174.15L49.1208 172.644L48.3277 171.102L47.5395 169.561L47.1881 168.823L46.8267 168.035L45.391 164.858C44.9643 163.773 44.5325 162.689 44.1058 161.6L43.7846 160.786L43.5034 159.953L42.9362 158.286L42.3589 156.625L41.8569 154.923L41.3549 153.226C41.2746 152.94 41.1892 152.659 41.1189 152.373L40.9181 151.509C40.6521 150.355 40.4161 149.2 40.125 148.046C39.8338 146.891 39.7083 145.711 39.4975 144.532C37.9475 135.057 37.9475 125.393 39.4975 115.918C39.7033 114.743 39.9141 113.578 40.125 112.404C40.3358 111.229 40.627 110.094 40.9181 108.945L41.1139 108.081L41.3549 107.228L41.8569 105.526L42.3589 103.829L42.9211 102.163L43.4884 100.496L43.7695 99.6628L44.0908 98.8496C44.5175 97.7602 44.9492 96.6759 45.3759 95.5916C45.8026 94.5073 46.3347 93.4731 46.8116 92.4189C47.0425 91.8818 47.3136 91.3647 47.5696 90.8527L48.3628 89.3116L49.156 87.7704L50.0144 86.2644C50.6017 85.2604 51.1338 84.2564 51.7764 83.3026L53.6288 80.4211L55.6368 77.635C58.319 74.0192 61.2529 70.5971 64.4168 67.3942C67.5656 64.2922 70.9198 61.4058 74.4568 58.7548C81.3355 53.674 88.9097 49.6096 96.9464 46.6867C98.9242 46.0291 100.877 45.3163 102.87 44.7942C104.843 44.1918 106.851 43.7902 108.829 43.2882C112.759 42.4804 116.738 41.9386 120.741 41.6667C122.709 41.476 124.677 41.486 126.625 41.4258C127.127 41.4258 127.598 41.4258 128.08 41.4258L129.536 41.4609C130.5 41.5011 131.464 41.4609 132.423 41.5663C134.33 41.727 136.238 41.8073 138.105 42.0683L140.901 42.4298L143.652 42.9318C157.246 45.4768 170.053 51.1729 181.046 59.563C190.094 66.4821 197.741 75.06 203.581 84.8387C205.975 88.8471 208.036 93.0444 209.746 97.3887C209.942 97.8907 210.132 98.3927 210.328 98.8696C210.524 99.3465 210.715 99.8385 210.865 100.33C211.2 101.304 211.521 102.255 211.829 103.182C211.909 103.413 211.985 103.644 212.06 103.875L212.256 104.567C212.386 105.029 212.517 105.481 212.642 105.928C212.883 106.831 213.169 107.695 213.36 108.553C214.109 111.59 214.702 114.663 215.137 117.76C215.298 119.105 215.479 120.35 215.589 121.49C215.699 122.629 215.75 123.668 215.82 124.597C215.89 125.526 215.92 126.339 215.93 127.047C215.94 127.755 215.961 128.342 215.971 128.819C215.986 129.753 215.991 130.24 215.991 130.24Z" fill="#263238"/>
<path id="Vector_35" d="M177.994 152.367C179.852 152.467 181.247 150.308 180.886 148.481C180.524 146.654 178.918 145.298 177.196 144.586C175.474 143.873 173.597 143.657 171.794 143.195C169.109 142.491 166.596 141.248 164.407 139.541C162.218 137.834 160.4 135.698 159.064 133.265C158.106 131.41 157.32 129.471 156.714 127.472C154.179 116.795 150.69 101.529 149.812 95.5803C147.593 80.2241 143.677 63.3569 121.73 64.9282C121.73 64.9282 107.137 67.6741 101.54 78.1408C96.6149 87.3425 99.4562 115.093 98.8036 135.083L103.588 137.964L104.331 138.009C104.884 140.055 105.777 141.992 106.971 143.742C111.339 149.972 117.287 154.977 123.733 159.023C136.785 167.201 152.347 171.663 167.663 170.127C170.896 169.801 174.189 169.194 177 167.617C179.811 166.041 182.161 163.275 182.587 160.057C183.014 156.839 181.122 153.24 177.994 152.367Z" fill="#263238"/>
<path id="Vector_36" d="M118.809 70.6501L120.184 69.3398L135.038 75.2986C136.075 75.356 137.052 75.8007 137.776 76.5445C138.5 77.2882 138.919 78.2769 138.949 79.3146L138.818 127.657C138.818 130.935 138.181 133.777 136.203 136.387L134.12 139.138C129.366 145.413 119.592 144.896 115.832 137.983C115.61 137.591 115.441 137.17 115.33 136.733C115.234 136.379 115.16 136.018 115.109 135.654C114.667 131.764 114.642 128.39 114.642 128.39C114.376 124.123 114.291 122.366 114.286 122.411C114.281 122.456 105.199 121.362 102.74 109.701C101.515 103.898 101.736 95.9157 102.092 88.0594C102.529 77.2062 110.069 70.64 118.809 70.6501Z" fill="#FFCDB3"/>
<path id="Vector_37" d="M121.851 96.0377C121.866 96.431 122.035 96.8025 122.321 97.0727C122.608 97.3429 122.988 97.4903 123.382 97.4835C123.576 97.4923 123.77 97.4617 123.952 97.3935C124.134 97.3254 124.3 97.2211 124.441 97.087C124.582 96.9529 124.694 96.7916 124.771 96.613C124.847 96.4344 124.887 96.2421 124.888 96.0477C124.873 95.6536 124.705 95.2808 124.419 95.0095C124.132 94.7383 123.751 94.5901 123.357 94.597C123.162 94.5888 122.968 94.6201 122.786 94.6888C122.604 94.7575 122.438 94.8622 122.297 94.9968C122.156 95.1313 122.044 95.2928 121.968 95.4717C121.891 95.6506 121.851 95.8431 121.851 96.0377Z" fill="#263238"/>
<path id="Vector_38" d="M106.515 96.037C106.53 96.4259 106.696 96.7936 106.976 97.0632C107.257 97.3327 107.631 97.4831 108.021 97.4828C108.215 97.4909 108.408 97.4598 108.59 97.3914C108.772 97.323 108.938 97.2187 109.079 97.0847C109.219 96.9507 109.331 96.7897 109.408 96.6115C109.485 96.4332 109.525 96.2412 109.527 96.047C109.512 95.6529 109.344 95.2801 109.058 95.0088C108.771 94.7376 108.39 94.5894 107.996 94.5963C107.803 94.5909 107.611 94.6242 107.432 94.6942C107.252 94.7642 107.089 94.8695 106.951 95.0038C106.813 95.1381 106.703 95.2987 106.628 95.4762C106.553 95.6537 106.515 95.8444 106.515 96.037Z" fill="#263238"/>
<path id="Vector_39" d="M103.608 91.1823C103.804 91.373 104.903 90.4694 106.524 90.3891C108.146 90.3088 109.381 91.0668 109.536 90.856C109.617 90.7656 109.411 90.4192 108.874 90.0678C108.147 89.6163 107.298 89.4006 106.444 89.4504C105.599 89.4892 104.788 89.797 104.13 90.3289C103.663 90.7355 103.512 91.102 103.608 91.1823Z" fill="#263238"/>
<path id="Vector_40" d="M120.073 91.364C120.289 91.5297 121.293 90.5157 122.9 90.2747C124.506 90.0337 125.806 90.6512 125.952 90.4303C126.022 90.3299 125.781 90.0086 125.209 89.7125C124.44 89.3377 123.574 89.2097 122.729 89.346C121.894 89.4724 121.12 89.8609 120.52 90.4554C120.083 90.9022 119.978 91.2787 120.073 91.364Z" fill="#263238"/>
<path id="Vector_41" d="M114.406 103.165C114.406 103.07 113.402 102.949 111.745 102.824C111.329 102.799 110.932 102.739 110.847 102.457C110.792 102.032 110.867 101.6 111.063 101.217L112.132 97.9996C113.608 93.4214 114.642 89.6664 114.471 89.6062C114.301 89.546 112.94 93.2106 111.459 97.7888C111.108 98.9183 110.766 99.9926 110.455 101.022C110.22 101.537 110.174 102.118 110.325 102.663C110.392 102.806 110.491 102.932 110.615 103.03C110.739 103.128 110.883 103.197 111.038 103.23C111.27 103.282 111.508 103.304 111.745 103.296C113.382 103.301 114.406 103.256 114.406 103.165Z" fill="#263238"/>
<path id="Vector_42" d="M114.245 122.428C119.795 122.237 125.182 120.507 129.807 117.434C129.807 117.434 126.253 125.777 114.431 125.265L114.245 122.428Z" fill="#FFBD9F"/>
<path id="Vector_43" d="M115.289 107.041C115.578 106.637 115.965 106.314 116.414 106.101C116.863 105.889 117.359 105.794 117.854 105.826C118.214 105.84 118.567 105.926 118.892 106.08C119.217 106.233 119.508 106.451 119.747 106.72C119.978 106.979 120.123 107.303 120.164 107.648C120.204 107.993 120.137 108.342 119.973 108.648C119.727 108.953 119.397 109.177 119.023 109.292C118.649 109.408 118.249 109.409 117.874 109.295C117.093 109.064 116.366 108.678 115.736 108.161C115.542 108.041 115.371 107.886 115.234 107.704C115.169 107.617 115.132 107.513 115.127 107.405C115.121 107.297 115.148 107.189 115.204 107.097" fill="#FFBD9F"/>
<path id="Vector_44" d="M119.24 104.049C118.974 104.049 119.059 105.806 117.614 107.131C116.168 108.457 114.285 108.361 114.28 108.607C114.28 108.718 114.717 108.929 115.51 108.909C116.543 108.874 117.531 108.473 118.296 107.779C119.033 107.114 119.481 106.189 119.546 105.199C119.576 104.461 119.355 104.034 119.24 104.049Z" fill="#263238"/>
<path id="Vector_45" d="M118.522 85.0276C118.748 85.4393 120.319 84.9824 122.237 84.9222C124.155 84.862 125.751 85.1431 125.952 84.7114C126.032 84.5055 125.706 84.1391 125.023 83.8078C124.124 83.4157 123.147 83.2336 122.166 83.2754C121.186 83.3171 120.228 83.5816 119.365 84.0487C118.718 84.4302 118.422 84.8369 118.522 85.0276Z" fill="#263238"/>
<path id="Vector_46" d="M103.839 84.2103C104.145 84.5667 105.244 84.13 106.585 84.0396C107.925 83.9493 109.095 84.1651 109.326 83.7686C109.431 83.5728 109.23 83.2113 108.718 82.8901C108.029 82.5056 107.242 82.3342 106.455 82.3977C105.669 82.4611 104.919 82.7565 104.301 83.2465C103.844 83.6531 103.703 84.0396 103.839 84.2103Z" fill="#263238"/>
<path id="Vector_47" d="M138.632 99.962C138.632 99.962 130.324 102.547 125.621 82.0356C124.009 75.0076 117.508 69.34 117.508 69.34L120.144 68.5469C120.144 68.5469 136.534 73.1653 136.81 73.3711C137.086 73.5769 140.947 81.8499 140.947 81.8499L138.632 99.962Z" fill="#263238"/>
<path id="Vector_48" d="M136.584 99.1999C136.544 98.3214 137.453 96.1879 138.311 96.0272C140.6 95.5503 144.772 95.5252 145.108 101.394C145.56 109.426 137.423 108.211 137.393 107.98C137.362 107.749 136.73 102.222 136.584 99.1999Z" fill="#FFCDB3"/>
<path id="Vector_49" d="M139.672 104.806C139.702 104.776 139.817 104.897 140.058 104.992C140.398 105.114 140.772 105.099 141.102 104.952C141.931 104.596 142.568 103.21 142.523 101.764C142.506 101.076 142.335 100.4 142.021 99.7865C141.931 99.5421 141.783 99.3232 141.589 99.1484C141.396 98.9736 141.164 98.848 140.912 98.7825C140.748 98.7493 140.579 98.7743 140.432 98.8531C140.285 98.932 140.171 99.0597 140.108 99.2142C140.013 99.4451 140.073 99.6008 140.033 99.6158C139.993 99.6309 139.852 99.4903 139.897 99.159C139.934 98.9643 140.035 98.7875 140.184 98.657C140.396 98.4791 140.67 98.3909 140.947 98.411C141.275 98.4605 141.586 98.5929 141.85 98.7958C142.113 98.9987 142.321 99.2654 142.453 99.5706C142.834 100.244 143.045 101.001 143.065 101.774C143.105 103.391 142.362 104.952 141.223 105.354C141.011 105.428 140.785 105.454 140.562 105.429C140.339 105.405 140.124 105.331 139.933 105.213C139.697 104.997 139.641 104.822 139.672 104.806Z" fill="#FFBD9F"/>
<path id="Vector_50" d="M145.404 129.486C145.282 128.557 145.223 127.622 145.228 126.685C145.264 124.13 145.525 121.584 146.007 119.075C146.293 117.483 146.604 115.741 146.94 113.874C147.304 111.883 147.544 109.871 147.658 107.85C147.794 105.625 147.625 103.392 147.156 101.213C146.895 100.068 146.516 98.9529 146.027 97.8851C145.513 96.7907 144.876 95.7583 144.129 94.8079C142.623 92.9556 140.942 91.2526 139.109 89.7226C137.352 88.2166 135.67 86.7106 134.174 85.1795C131.51 82.4815 129.097 79.546 126.966 76.4096C125.527 74.3002 124.222 72.1021 123.06 69.8283C122.648 69.0251 122.347 68.3926 122.152 67.9559C122.056 67.745 121.981 67.5844 121.931 67.4539C121.902 67.3994 121.878 67.3422 121.86 67.2832C121.895 67.3339 121.926 67.3876 121.951 67.4438C122.011 67.5576 122.091 67.725 122.192 67.9458C122.397 68.3725 122.694 69 123.135 69.7982C124.325 72.05 125.648 74.2291 127.096 76.3242C129.238 79.438 131.656 82.353 134.32 85.0339C135.826 86.5399 137.493 88.0459 139.25 89.5519C141.105 91.0863 142.807 92.7978 144.33 94.6623C145.088 95.6259 145.733 96.6736 146.253 97.7847C146.749 98.8665 147.13 99.9971 147.392 101.158C147.855 103.357 148.015 105.608 147.869 107.85C147.744 109.871 147.496 111.883 147.126 113.874C146.78 115.741 146.458 117.483 146.167 119.07C145.672 121.57 145.388 124.107 145.319 126.655C145.319 127.558 145.319 128.261 145.374 128.733L145.409 129.275C145.417 129.345 145.415 129.416 145.404 129.486Z" fill="#707985"/>
<path id="Vector_51" d="M147.985 130.243C147.859 129.315 147.801 128.379 147.809 127.442C147.846 124.885 148.108 122.337 148.592 119.826C148.878 118.235 149.19 116.493 149.526 114.626C149.888 112.634 150.127 110.623 150.244 108.602C150.38 106.377 150.211 104.144 149.742 101.965C149.48 100.82 149.102 99.7048 148.612 98.6371C148.099 97.5427 147.462 96.5103 146.715 95.5598C145.199 93.7075 143.51 92.0047 141.67 90.4746C139.913 88.9686 138.231 87.4626 136.735 85.9315C134.069 83.2345 131.656 80.2989 129.526 77.1615C128.087 75.0522 126.783 72.8541 125.621 70.5803C125.209 69.7771 124.908 69.1446 124.712 68.7078L124.486 68.2058C124.46 68.1508 124.438 68.0937 124.421 68.0352L124.511 68.1958C124.566 68.3163 124.647 68.4719 124.752 68.6978C124.958 69.1295 125.254 69.752 125.696 70.5502C126.886 72.8019 128.209 74.9811 129.657 77.0762C131.797 80.1898 134.213 83.1047 136.876 85.7859C138.382 87.2919 140.048 88.7979 141.81 90.3039C143.666 91.8382 145.367 93.5498 146.89 95.4142C147.647 96.3791 148.292 97.4266 148.813 98.5367C149.309 99.6185 149.691 100.749 149.953 101.91C150.413 104.109 150.573 106.36 150.43 108.602C150.305 110.623 150.057 112.635 149.687 114.626C149.34 116.493 149.019 118.235 148.728 119.821C148.232 122.323 147.948 124.862 147.879 127.412C147.879 128.31 147.879 129.013 147.93 129.485C147.93 129.716 147.96 129.897 147.965 130.027C147.982 130.098 147.989 130.17 147.985 130.243Z" fill="#707985"/>
<path id="Vector_52" d="M90.6161 141.795C87.1574 144.004 83.292 147.583 81.4597 151.258C78.1465 157.914 54.9089 175.795 54.0003 180.128C51.9119 198.626 72.3735 198.385 80.6565 188.491C84.9435 183.371 94.3912 164.184 94.3912 164.184L90.6161 141.795Z" fill="#707985"/>
<path id="Vector_53" d="M64.291 170.398C64.291 170.398 79.6522 145.669 82.6642 142.21C87.2776 136.919 95.2945 134.801 95.2945 134.801L97.0214 167.225C97.1268 166.778 81.1482 187.2 81.1482 187.2C81.1482 187.2 66.2237 176.11 64.291 170.398Z" fill="#707985"/>
<path id="Vector_54" d="M73.8342 145.379L57.1326 177.271C56.3185 178.797 56.1029 180.572 56.5281 182.249C56.9533 183.926 57.9887 185.383 59.4318 186.337L59.502 186.382C65.9076 190.433 74.3964 186.478 75.807 179.033L81.6854 149.229L73.8342 145.379Z" fill="#FFCDB3"/>
<path id="Vector_55" d="M90.0839 117.629L79.3662 143.221L81.8059 144.245L92.1973 118.367L90.0839 117.629Z" fill="#707985"/>
<path id="Vector_56" d="M107.358 107.325C107.938 100.193 103.057 93.9762 96.4549 93.4392C89.8533 92.9023 84.0314 98.2488 83.4513 105.381C82.8711 112.513 87.7526 118.73 94.3542 119.267C100.956 119.804 106.778 114.458 107.358 107.325Z" fill="#FFCDB3"/>
<path id="Vector_57" d="M107.398 106.358C107.321 106.092 107.28 105.817 107.278 105.54C107.278 105.405 107.278 105.254 107.242 105.093C107.207 104.933 107.187 104.752 107.152 104.556C107.094 104.113 107.007 103.673 106.891 103.241C106.606 102.067 106.16 100.939 105.566 99.8877C104.809 98.5268 103.801 97.3223 102.594 96.3386C101.179 95.1784 99.4993 94.3852 97.7044 94.0294C97.2202 93.9392 96.7305 93.8822 96.2385 93.8587C95.9875 93.8587 95.7365 93.8235 95.4805 93.8286L94.7125 93.8788C94.587 93.8788 94.4564 93.8788 94.3259 93.9039L93.9394 93.9691C93.6834 94.0193 93.4374 94.0545 93.1613 94.1097C92.6349 94.2412 92.1183 94.4089 91.6151 94.6117C91.0965 94.8143 90.5931 95.0542 90.1091 95.3295C89.8631 95.4751 89.6071 95.6408 89.3862 95.7964C89.139 95.9448 88.904 96.1126 88.6834 96.2984C88.2144 96.6689 87.7716 97.0715 87.3582 97.5032C86.9443 97.9586 86.5619 98.4416 86.2136 98.949C85.4789 99.9993 84.9084 101.155 84.5219 102.378C84.1292 103.652 83.913 104.975 83.8793 106.308C83.8778 107.637 84.0603 108.96 84.4215 110.239C84.7757 111.459 85.3159 112.617 86.0228 113.673C86.6709 114.685 87.4816 115.584 88.4224 116.333C88.6408 116.515 88.8705 116.683 89.1101 116.835C89.3511 116.991 89.582 117.162 89.823 117.302C90.3081 117.578 90.8112 117.821 91.329 118.03C91.829 118.232 92.3423 118.4 92.8651 118.532C93.1211 118.592 93.3671 118.627 93.6432 118.673L94.0247 118.743C94.1552 118.743 94.2858 118.743 94.4113 118.773L95.1793 118.823C95.4353 118.823 95.6813 118.823 95.9373 118.793C96.431 118.774 96.9226 118.718 97.4082 118.627C99.218 118.275 100.915 117.487 102.353 116.333C103.586 115.354 104.626 114.154 105.42 112.794C106.042 111.746 106.517 110.618 106.831 109.441C106.959 109.011 107.058 108.574 107.127 108.131C107.162 107.935 107.202 107.759 107.227 107.593L107.278 107.147C107.286 106.869 107.333 106.593 107.418 106.328C107.479 106.602 107.494 106.883 107.463 107.162C107.463 107.297 107.463 107.453 107.463 107.619C107.463 107.784 107.428 107.97 107.408 108.171C107.364 108.63 107.288 109.087 107.182 109.536C106.922 110.776 106.478 111.971 105.867 113.08C105.082 114.54 104.024 115.835 102.749 116.895C101.247 118.176 99.4493 119.063 97.5186 119.476C97.0025 119.585 96.479 119.655 95.9524 119.687C95.6863 119.687 95.4153 119.727 95.1442 119.727L94.3209 119.687C94.1854 119.687 94.0448 119.687 93.9093 119.656L93.4976 119.591C93.2215 119.546 92.9404 119.511 92.6593 119.451C91.5163 119.176 90.4166 118.745 89.3913 118.171C89.1302 118.02 88.8893 117.844 88.6232 117.669C88.3601 117.502 88.1101 117.316 87.8752 117.111C86.8532 116.315 85.9725 115.353 85.2698 114.265C84.5021 113.128 83.9161 111.878 83.5329 110.56C82.7056 107.785 82.7441 104.824 83.6434 102.071C84.0616 100.753 84.6795 99.5073 85.4757 98.3767C85.8563 97.8329 86.2721 97.3148 86.7206 96.8255C87.171 96.3651 87.6506 95.9341 88.1563 95.5354C88.3969 95.3352 88.6501 95.1508 88.9144 94.9832C89.1754 94.8175 89.4163 94.6418 89.6975 94.4812C90.2242 94.1898 90.7711 93.9365 91.334 93.7231C91.8767 93.5157 92.4337 93.3479 93.0006 93.2211C93.2767 93.1609 93.5578 93.1308 93.839 93.0806L94.2506 93.0203C94.3889 93.0045 94.528 92.9961 94.6673 92.9952L95.4855 92.9551C95.7616 92.9551 96.0277 92.9852 96.2938 92.9952C96.8188 93.0281 97.3407 93.1003 97.855 93.2111C99.7558 93.6206 101.523 94.5009 102.995 95.7713C105.2 97.6819 106.696 100.28 107.242 103.146C107.337 103.596 107.399 104.052 107.428 104.511C107.428 104.712 107.468 104.893 107.473 105.063C107.478 105.234 107.473 105.385 107.473 105.52C107.493 105.802 107.468 106.085 107.398 106.358Z" fill="#263238"/>
<path id="Vector_58" d="M99.0949 108.376C99.1237 109.041 98.8968 109.691 98.4607 110.193C98.0246 110.696 97.4126 111.012 96.7505 111.077C96.4305 111.096 96.1098 111.051 95.808 110.943C95.5061 110.835 95.2294 110.666 94.9946 110.448C94.7598 110.23 94.5719 109.966 94.4423 109.673C94.3127 109.379 94.244 109.063 94.2405 108.742C94.2129 108.078 94.4403 107.428 94.8761 106.926C95.312 106.424 95.9233 106.108 96.5849 106.042C96.9049 106.022 97.2256 106.067 97.5274 106.175C97.8293 106.283 98.106 106.452 98.3408 106.67C98.5756 106.888 98.7635 107.152 98.8931 107.446C99.0228 107.739 99.0914 108.055 99.0949 108.376Z" fill="#263238"/>
<path id="Vector_59" d="M99.9385 101.68C99.6373 102.026 97.7849 100.581 95.1544 100.636C92.5239 100.691 90.6063 102.142 90.3201 101.795C90.1796 101.645 90.4908 101.017 91.3241 100.345C92.4321 99.4832 93.7912 99.0072 95.1946 98.9892C96.5692 98.9653 97.911 99.4097 98.9997 100.249C99.813 100.902 100.089 101.519 99.9385 101.68Z" fill="#263238"/>
<path id="Vector_60" d="M88.8793 114.651C88.8191 114.752 87.9958 114.34 87.0018 113.211C85.6961 111.672 84.8552 109.793 84.5772 107.794C84.2893 105.759 84.5672 103.683 85.3804 101.795C86.0129 100.375 86.6755 99.6969 86.7659 99.7873C86.8563 99.8776 86.4245 100.676 85.9878 102.066C85.4125 103.866 85.2411 105.77 85.4858 107.644C85.7567 109.482 86.4435 111.235 87.4938 112.769C88.3121 113.924 88.9697 114.526 88.8793 114.651Z" fill="white"/>
<path id="Vector_61" d="M92.097 116.66C92.0802 116.738 92.0398 116.808 91.9814 116.862C91.923 116.916 91.8495 116.951 91.7707 116.961C91.5274 117.008 91.2753 116.963 91.0629 116.836C90.8385 116.718 90.6614 116.526 90.5609 116.293C90.5221 116.222 90.5048 116.141 90.511 116.06C90.5172 115.979 90.5468 115.901 90.596 115.837C90.7968 115.656 91.1583 115.766 91.4946 115.942C91.8309 116.118 92.1171 116.384 92.097 116.66Z" fill="white"/>
<path id="Vector_62" d="M75.6964 141.392C75.6964 141.392 80.5156 128.621 81.2184 127.958C81.9212 127.296 89.0345 121.322 89.0345 121.322C89.7778 121.202 90.5401 121.306 91.2233 121.623C91.921 122.03 93.6178 124.71 94.2955 125.81C94.3864 125.959 94.447 126.124 94.4737 126.296C94.5005 126.469 94.4928 126.645 94.4511 126.814L93.678 129.324C93.678 129.324 94.6067 130.785 94.3859 131.834C94.2306 132.524 93.9734 133.187 93.6228 133.802C94.0963 134.716 94.2109 135.774 93.9441 136.769C93.5829 137.7 92.8839 138.462 91.9863 138.902C91.9863 138.902 91.4341 141.563 91.3638 142.065C91.2935 142.567 88.6731 143.761 88.402 143.686C88.1309 143.611 86.2233 142.798 86.2233 142.798C86.2233 142.798 85.3398 147.085 84.2354 148.053C83.4978 148.653 82.6206 149.058 81.6853 149.228L80.3198 156.06L71.8511 149.595L75.6964 141.392Z" fill="#FFCDB3"/>
<path id="Vector_63" d="M87.373 137.549C88.1573 137.737 88.9272 137.98 89.6772 138.277C90.4476 138.515 91.205 138.793 91.9463 139.11C91.1488 138.981 90.3677 138.766 89.617 138.467C88.843 138.229 88.092 137.922 87.373 137.549Z" fill="#FFBD9F"/>
<path id="Vector_64" d="M87.4385 132.217C87.7586 132.225 88.0768 132.269 88.3873 132.347C88.9696 132.463 89.7678 132.644 90.6362 132.879C91.5047 133.115 92.2878 133.381 92.845 133.577C93.1526 133.67 93.4489 133.796 93.7285 133.954C93.4143 133.9 93.1053 133.819 92.8049 133.713C92.2376 133.547 91.4545 133.316 90.586 133.075C89.7176 132.834 88.9294 132.633 88.3622 132.488C88.0459 132.429 87.7364 132.338 87.4385 132.217Z" fill="#FFBD9F"/>
<path id="Vector_65" d="M86.5195 128.065C86.8687 128.015 87.2226 128.006 87.5737 128.04C88.4161 128.072 89.255 128.166 90.0837 128.321C90.9175 128.474 91.7394 128.685 92.5435 128.953C92.8846 129.048 93.2133 129.182 93.5224 129.355C93.1815 129.292 92.8458 129.203 92.5184 129.089C91.8959 128.918 91.0124 128.697 90.0586 128.516C89.1048 128.336 88.2062 128.24 87.5486 128.18C87.2033 128.167 86.8593 128.128 86.5195 128.065Z" fill="#FFBD9F"/>
<path id="Vector_66" d="M91.8211 128.723C91.5925 128.127 91.5216 127.482 91.6153 126.85C91.3315 126.879 91.0449 126.844 90.7764 126.748C90.508 126.651 90.2646 126.496 90.0641 126.293C89.6173 126.855 89.0199 127.633 88.5581 128.196L91.8211 128.723Z" fill="#707985"/>
<path id="Vector_67" d="M91.9463 139.434L94.4262 168.826C94.4262 168.826 98.9843 198.299 98.648 200.382C98.3116 202.465 94.2254 212.626 94.2254 212.626C111.866 219.759 138.321 222.545 161.875 211.968L155.926 198.289L162.553 137.09L138.582 128.902C138.582 128.902 137.136 137.637 125.651 136.668C114.165 135.699 114.371 129.359 114.371 129.359L93.9945 135.187L91.9463 139.434Z" fill="#707985"/>
<path id="Vector_68" d="M183.064 199.235C183.064 199.235 168.411 137.549 161.935 137.047L157.076 183.833L166.242 209.937C172.497 206.689 178.24 203.175 183.064 199.235Z" fill="#707985"/>
<path id="Vector_69" d="M160.936 148.822C161.012 148.822 160.369 156.267 159.501 165.433C158.632 174.6 157.879 182.03 157.804 182.025C157.729 182.02 158.376 174.58 159.24 165.408C160.103 156.237 160.866 148.812 160.936 148.822Z" fill="#263238"/>
<path id="Vector_70" d="M92.2624 148.291C92.2945 148.397 92.313 148.507 92.3177 148.617C92.3478 148.858 92.388 149.17 92.4331 149.561C92.5235 150.409 92.654 151.569 92.8096 153.025C93.1209 155.957 93.5375 160.003 94.0496 164.46C94.5616 168.918 95.0937 172.959 95.5154 175.871C95.7313 177.307 95.9019 178.476 96.0174 179.32L96.1529 180.258C96.1764 180.367 96.1865 180.478 96.1831 180.59C96.1456 180.486 96.1187 180.378 96.1027 180.268C96.0525 180.027 95.9923 179.721 95.917 179.34C95.7614 178.531 95.5606 177.357 95.3246 175.901C94.8528 172.989 94.3207 168.958 93.7835 164.491C93.2464 160.023 92.8799 155.957 92.6139 153.045C92.4934 151.599 92.393 150.42 92.3227 149.566C92.2976 149.18 92.2725 148.863 92.2574 148.622C92.2447 148.512 92.2464 148.401 92.2624 148.291Z" fill="#263238"/>
<path id="Vector_71" d="M111.725 130.842L114.069 127.097L126.409 137.067L138.472 125.295L142.317 130.159L127.714 145.807L111.725 130.842Z" fill="#707985"/>
<path id="Vector_72" d="M126.002 137.935C125.982 138.139 125.946 138.34 125.896 138.538C125.811 138.924 125.681 139.492 125.485 140.194C124.941 142.115 124.239 143.987 123.386 145.792L123.301 145.977L123.181 145.812C122.177 144.456 121.112 142.965 119.953 141.404C117.694 138.357 115.6 135.636 114.074 133.668L112.267 131.344L111.765 130.707C111.655 130.556 111.6 130.476 111.61 130.471C111.682 130.53 111.748 130.598 111.805 130.672L112.307 131.279C112.754 131.811 113.397 132.589 114.18 133.558C115.741 135.491 117.859 138.202 120.123 141.249C121.283 142.81 122.367 144.306 123.336 145.671H123.13C123.989 143.886 124.716 142.041 125.304 140.149C125.52 139.451 125.676 138.894 125.806 138.513C125.856 138.315 125.921 138.122 126.002 137.935Z" fill="#263238"/>
<path id="Vector_73" d="M141.725 130.817C141.697 130.895 141.66 130.969 141.614 131.038L141.263 131.645C140.947 132.147 140.48 132.915 139.862 133.819C138.26 136.17 136.488 138.402 134.561 140.495C133.281 141.881 132.006 143.131 130.851 144.19L130.766 144.265L130.686 144.185C129.534 143.003 128.573 141.648 127.839 140.169C127.578 139.627 127.398 139.165 127.287 138.884C127.225 138.729 127.176 138.57 127.142 138.407C127.229 138.548 127.302 138.697 127.357 138.854C127.488 139.15 127.689 139.577 127.965 140.104C128.73 141.551 129.704 142.877 130.856 144.039H130.691C131.835 142.975 133.095 141.72 134.365 140.34C136.284 138.253 138.07 136.049 139.712 133.738C140.344 132.85 140.836 132.122 141.178 131.615L141.564 131.022C141.664 130.877 141.715 130.812 141.725 130.817Z" fill="#263238"/>
<path id="Vector_74" d="M126.559 217.512C126.489 217.512 126.429 200.113 126.429 178.658C126.429 157.202 126.489 139.803 126.559 139.803C126.63 139.803 126.69 157.197 126.69 178.658C126.69 200.118 126.63 217.512 126.559 217.512Z" fill="#263238"/>
<path id="Vector_75" d="M132.699 193.59C132.699 193.66 127.679 192.586 121.534 191.165C115.39 189.745 110.41 188.56 110.43 188.49C110.45 188.419 115.45 189.494 121.595 190.909C127.739 192.325 132.714 193.52 132.699 193.59Z" fill="#263238"/>
<path id="Vector_76" d="M75.3854 188.525C75.3402 188.495 75.8874 187.888 76.4698 186.763C76.8197 186.104 77.1071 185.413 77.3282 184.7C77.8752 182.951 78.0261 181.103 77.7699 179.289C77.6718 178.55 77.5037 177.822 77.2679 177.115C76.8613 175.905 76.4396 175.222 76.4848 175.197C76.6099 175.338 76.7147 175.495 76.796 175.664C76.9127 175.85 77.015 176.045 77.1023 176.246C77.2317 176.509 77.3456 176.779 77.4436 177.055C77.7107 177.766 77.9042 178.503 78.0209 179.253C78.1547 180.176 78.1884 181.11 78.1213 182.04C78.034 182.968 77.8489 183.885 77.5691 184.775C77.3314 185.498 77.0202 186.195 76.6404 186.854C76.4972 187.107 76.3414 187.354 76.1736 187.592C76.0523 187.767 75.9198 187.935 75.777 188.094C75.531 188.39 75.4005 188.54 75.3854 188.525Z" fill="#263238"/>
</g>
<g id="freepik--Markets--inject-4">
<path id="Vector_77" d="M190.895 116.464C190.649 121.209 191.847 125.918 194.331 129.968C196.816 134.019 200.47 137.221 204.811 139.152C209.153 141.084 213.978 141.653 218.65 140.786C223.321 139.92 227.621 137.657 230.98 134.296C234.34 130.936 236.602 126.636 237.468 121.964C238.333 117.292 237.763 112.467 235.83 108.126C233.898 103.785 230.695 100.132 226.644 97.6485C222.593 95.1651 217.884 93.9681 213.139 94.2155C207.337 94.518 201.852 96.9593 197.744 101.068C193.637 105.177 191.197 110.662 190.895 116.464Z" fill="white"/>
<path id="Vector_78" d="M190.76 117.629C190.76 117.629 190.76 117.498 190.76 117.247C190.76 116.996 190.76 116.604 190.795 116.128L190.825 115.304C190.855 114.998 190.91 114.672 190.961 114.3C191.052 113.475 191.205 112.658 191.417 111.856C191.947 109.636 192.814 107.512 193.988 105.555C195.693 102.674 197.991 100.187 200.729 98.2602C203.467 96.333 206.583 95.009 209.871 94.3759C210.866 94.1885 211.872 94.0711 212.883 94.0245C213.385 94.0245 213.887 93.9542 214.424 93.9592L215.99 94.0345C216.256 94.0345 216.523 94.0345 216.784 94.0847L217.572 94.2052C218.099 94.2906 218.636 94.3508 219.168 94.4612C220.24 94.698 221.294 95.0049 222.326 95.3799C223.38 95.7602 224.406 96.2131 225.398 96.7353C225.9 97.0064 226.402 97.3226 226.874 97.6138C227.374 97.9134 227.852 98.2489 228.304 98.6178C229.251 99.3174 230.149 100.079 230.995 100.897C231.83 101.76 232.606 102.677 233.319 103.643C234.795 105.621 235.941 107.825 236.713 110.169C238.346 115.02 238.346 120.272 236.713 125.123C235.943 127.467 234.798 129.671 233.324 131.649C232.611 132.615 231.833 133.53 230.995 134.39C230.152 135.211 229.255 135.974 228.309 136.674C227.855 137.035 227.376 137.363 226.874 137.653C226.372 137.949 225.9 138.266 225.398 138.532C223.422 139.558 221.321 140.322 219.148 140.806C218.616 140.916 218.079 140.977 217.552 141.062L216.763 141.182C216.502 141.218 216.236 141.212 215.97 141.233L214.404 141.308C213.902 141.308 213.375 141.263 212.863 141.243C211.852 141.194 210.845 141.075 209.851 140.886C206.558 140.256 203.437 138.933 200.694 137.004C197.952 135.076 195.65 132.587 193.943 129.702C192.772 127.743 191.907 125.616 191.377 123.397C191.164 122.596 191.012 121.78 190.921 120.957C190.87 120.6 190.815 120.269 190.785 119.953L190.755 119.13C190.755 118.628 190.755 118.276 190.72 118.01C190.685 117.744 190.72 117.629 190.72 117.629C190.72 117.629 190.72 117.759 190.76 118.01C190.8 118.261 190.805 118.648 190.835 119.125C190.835 119.37 190.87 119.626 190.885 119.943C190.9 120.259 190.986 120.57 191.036 120.922C191.146 121.741 191.313 122.551 191.538 123.346C192.089 125.541 192.97 127.64 194.148 129.571C195.855 132.412 198.144 134.861 200.864 136.754C203.584 138.648 206.674 139.945 209.931 140.56C210.906 140.739 211.893 140.852 212.883 140.896C213.385 140.896 213.887 140.967 214.389 140.956L215.93 140.876C216.191 140.876 216.432 140.876 216.708 140.826L217.486 140.705C217.988 140.62 218.536 140.56 219.058 140.449C220.113 140.214 221.151 139.909 222.165 139.536C223.208 139.16 224.224 138.714 225.207 138.2C225.709 137.929 226.171 137.618 226.658 137.332C227.149 137.044 227.619 136.72 228.063 136.363C229.969 134.995 231.635 133.321 232.993 131.408C234.447 129.466 235.576 127.302 236.336 124.998C237.943 120.228 237.943 115.064 236.336 110.294C235.579 107.989 234.455 105.822 233.008 103.874C232.307 102.924 231.544 102.022 230.724 101.173C229.892 100.366 229.009 99.6152 228.079 98.924C227.634 98.5682 227.164 98.2445 226.673 97.9552C226.171 97.664 225.714 97.3528 225.222 97.0867C224.241 96.5695 223.225 96.1233 222.18 95.7514C221.166 95.3781 220.128 95.0729 219.073 94.8377C218.571 94.7273 218.023 94.6671 217.506 94.5817L216.728 94.4612C216.467 94.4261 216.226 94.4261 215.945 94.411L214.404 94.3307C213.902 94.3307 213.4 94.3709 212.898 94.3859C211.908 94.4329 210.921 94.5469 209.946 94.7273C206.691 95.3394 203.602 96.6343 200.884 98.5266C198.165 100.419 195.878 102.866 194.173 105.706C192.995 107.638 192.115 109.736 191.563 111.931C191.339 112.725 191.171 113.533 191.061 114.35C191.011 114.707 190.946 115.033 190.91 115.354C190.875 115.676 190.875 115.927 190.86 116.173C190.83 116.648 190.805 117.019 190.785 117.287C190.76 117.498 190.76 117.629 190.76 117.629Z" fill="#263238"/>
<path id="Vector_79" d="M225.86 110.285H204.7V128.327H225.86V110.285Z" fill="white"/>
<path id="Vector_80" d="M225.86 128.326C225.86 128.326 225.86 128.205 225.86 127.985C225.86 127.764 225.86 127.427 225.86 127.016C225.86 126.157 225.86 124.917 225.83 123.346C225.83 120.189 225.799 115.696 225.774 110.294L225.885 110.405H204.73C204.77 110.359 204.812 110.315 204.856 110.274V115.098C204.856 116.681 204.856 118.231 204.856 119.747C204.856 122.759 204.856 125.645 204.856 128.311L204.74 128.195L220.011 128.256L224.344 128.286H225.493H225.9H225.809H225.523H224.394L220.087 128.316L204.74 128.371H204.625V128.256C204.625 125.59 204.625 122.734 204.625 119.692C204.625 118.175 204.625 116.626 204.625 115.043V110.289C204.51 110.405 204.786 110.128 204.761 110.159H225.915H226.025V110.269C226 115.711 225.98 120.229 225.97 123.401C225.97 124.963 225.97 126.192 225.94 127.046C225.94 127.451 225.94 127.767 225.94 127.995C225.87 128.226 225.86 128.326 225.86 128.326Z" fill="#263238"/>
<path id="Vector_81" d="M206.889 116.463H205.951C205.274 116.463 204.626 116.195 204.147 115.716C203.669 115.238 203.4 114.59 203.4 113.913V109.727H209.424V113.913C209.424 114.587 209.158 115.233 208.683 115.711C208.208 116.189 207.563 116.459 206.889 116.463Z" fill="#FF8E25"/>
<path id="Vector_82" d="M206.889 116.464C206.889 116.439 207.11 116.464 207.487 116.349C208.019 116.204 208.49 115.893 208.832 115.46C209.064 115.153 209.222 114.795 209.294 114.416C209.339 113.959 209.351 113.5 209.329 113.041C209.329 112.037 209.329 110.937 209.329 109.753L209.454 109.878H203.43L203.556 109.753C203.556 111.058 203.556 112.263 203.556 113.387C203.556 113.658 203.556 113.934 203.556 114.175C203.58 114.416 203.637 114.653 203.727 114.878C203.891 115.274 204.155 115.62 204.495 115.882C204.994 116.265 205.613 116.458 206.242 116.429C206.472 116.425 206.702 116.44 206.929 116.475C206.702 116.509 206.472 116.524 206.242 116.52C205.585 116.584 204.928 116.405 204.394 116.018C204.022 115.741 203.729 115.37 203.546 114.943C203.444 114.702 203.378 114.446 203.35 114.185C203.325 113.914 203.35 113.653 203.35 113.377C203.35 112.268 203.35 111.048 203.35 109.743V109.617H209.645V109.743C209.645 110.927 209.645 112.032 209.645 113.031C209.661 113.502 209.641 113.973 209.585 114.441C209.498 114.846 209.318 115.224 209.058 115.546C208.694 116.006 208.181 116.323 207.607 116.444C207.457 116.476 207.304 116.493 207.15 116.495L206.889 116.464Z" fill="#263238"/>
<path id="Vector_83" d="M212.883 116.463H211.939C211.263 116.462 210.616 116.193 210.138 115.715C209.66 115.237 209.39 114.589 209.389 113.913V109.727H215.413V113.913C215.412 114.586 215.146 115.231 214.672 115.708C214.198 116.185 213.556 116.457 212.883 116.463Z" fill="#FF8E25"/>
<path id="Vector_84" d="M212.883 116.464C212.883 116.439 213.099 116.464 213.476 116.349C214.013 116.2 214.488 115.879 214.826 115.435C215.058 115.126 215.217 114.769 215.293 114.391C215.336 113.934 215.347 113.474 215.328 113.015C215.328 112.011 215.328 110.912 215.328 109.727L215.453 109.853H209.429L209.56 109.727C209.56 111.033 209.56 112.237 209.56 113.362C209.56 113.633 209.56 113.909 209.56 114.15C209.582 114.391 209.638 114.627 209.726 114.853C209.893 115.247 210.157 115.592 210.494 115.857C210.994 116.238 211.612 116.432 212.241 116.404C212.472 116.4 212.704 116.415 212.933 116.449C212.704 116.483 212.472 116.498 212.241 116.494C211.584 116.557 210.928 116.379 210.393 115.992C210.021 115.715 209.728 115.345 209.545 114.918C209.447 114.675 209.382 114.42 209.349 114.16C209.349 113.889 209.349 113.628 209.349 113.352C209.349 112.242 209.349 111.022 209.349 109.717V109.592H215.559V109.717C215.559 110.902 215.559 112.006 215.559 113.005C215.576 113.477 215.554 113.948 215.494 114.416C215.415 114.818 215.243 115.196 214.992 115.52C214.627 115.981 214.111 116.299 213.536 116.419C213.386 116.451 213.233 116.468 213.079 116.469C213.014 116.478 212.948 116.477 212.883 116.464Z" fill="#263238"/>
<path id="Vector_85" d="M218.872 116.463H217.933C217.257 116.463 216.608 116.195 216.13 115.716C215.651 115.238 215.383 114.59 215.383 113.913V109.727H221.407V113.913C221.407 114.587 221.14 115.233 220.665 115.711C220.19 116.189 219.545 116.459 218.872 116.463Z" fill="#FF8E25"/>
<path id="Vector_86" d="M218.872 116.464C218.872 116.439 219.088 116.464 219.47 116.348C220.007 116.198 220.481 115.878 220.82 115.435C221.052 115.127 221.21 114.77 221.282 114.391C221.327 113.934 221.339 113.474 221.317 113.015C221.317 112.011 221.317 110.912 221.317 109.727L221.442 109.853H215.418L215.544 109.727C215.544 111.032 215.544 112.237 215.544 113.362C215.544 113.633 215.544 113.909 215.544 114.15C215.566 114.39 215.622 114.627 215.71 114.852C215.877 115.248 216.143 115.593 216.483 115.856C216.981 116.238 217.598 116.432 218.225 116.404C218.442 116.407 218.658 116.427 218.872 116.464C218.643 116.498 218.411 116.513 218.179 116.509C217.62 116.565 217.058 116.442 216.574 116.158C216.089 115.874 215.707 115.443 215.484 114.928C215.386 114.685 215.321 114.43 215.293 114.17C215.268 113.899 215.293 113.638 215.293 113.362C215.293 112.252 215.293 111.032 215.293 109.727V109.602H221.588V109.727C221.588 110.912 221.588 112.016 221.588 113.015C221.604 113.486 221.584 113.958 221.528 114.426C221.441 114.83 221.261 115.209 221.001 115.53C220.637 115.99 220.124 116.308 219.55 116.429C219.4 116.46 219.247 116.477 219.093 116.479L218.872 116.464Z" fill="#263238"/>
<path id="Vector_87" d="M224.866 116.463H223.922C223.246 116.462 222.598 116.193 222.12 115.715C221.642 115.237 221.373 114.589 221.372 113.913V109.727H227.396V113.913C227.395 114.586 227.128 115.231 226.655 115.708C226.181 116.185 225.538 116.457 224.866 116.463Z" fill="#FF8E25"/>
<path id="Vector_88" d="M224.866 116.464C224.866 116.439 225.082 116.464 225.458 116.349C225.915 116.227 226.327 115.978 226.649 115.632C226.97 115.285 227.188 114.855 227.275 114.391C227.319 113.934 227.329 113.474 227.306 113.015C227.306 112.011 227.306 110.912 227.306 109.727L227.431 109.853H221.382L221.512 109.727C221.512 111.033 221.512 112.237 221.512 113.362C221.512 113.633 221.512 113.909 221.512 114.15C221.539 114.391 221.596 114.627 221.683 114.853C221.851 115.247 222.115 115.592 222.451 115.857C222.951 116.238 223.57 116.432 224.198 116.404C224.43 116.4 224.662 116.415 224.891 116.449C224.662 116.483 224.43 116.498 224.198 116.494C223.542 116.557 222.885 116.379 222.351 115.992C221.978 115.715 221.685 115.345 221.502 114.918C221.403 114.676 221.337 114.42 221.307 114.16C221.307 113.889 221.307 113.628 221.307 113.352C221.307 112.242 221.307 111.022 221.307 109.717V109.592H227.602V109.717C227.602 110.902 227.602 112.006 227.602 113.005C227.616 113.477 227.594 113.948 227.536 114.416C227.452 114.821 227.271 115.2 227.009 115.52C226.646 115.98 226.132 116.298 225.559 116.419C225.408 116.451 225.255 116.468 225.102 116.469C225.024 116.483 224.943 116.481 224.866 116.464Z" fill="#263238"/>
<path id="Vector_89" d="M223.304 118.754H217.401V128.332H223.304V118.754Z" fill="white"/>
<path id="Vector_90" d="M223.305 118.755C223.328 118.98 223.339 119.206 223.335 119.432C223.335 119.934 223.335 120.577 223.37 121.395C223.37 123.127 223.405 125.527 223.43 128.328V128.448H223.305H217.406C217.431 128.478 217.155 128.202 217.271 128.318V127.65C217.271 127.429 217.271 127.203 217.271 126.982V125.667C217.271 124.799 217.271 123.96 217.271 123.157C217.271 121.546 217.271 120.065 217.271 118.76V118.654H217.376L221.713 118.71H222.883C223.014 118.706 223.145 118.714 223.274 118.735C223.131 118.743 222.987 118.743 222.843 118.735L221.648 118.76L217.376 118.815L217.476 118.715C217.476 120.02 217.476 121.501 217.476 123.112C217.476 123.92 217.476 124.759 217.476 125.622V127.008C217.476 127.228 217.476 127.454 217.476 127.675V128.343L217.346 128.212H223.244L223.124 128.333C223.149 125.562 223.169 123.192 223.184 121.476C223.184 120.652 223.209 119.97 223.219 119.468C223.219 119.257 223.219 119.081 223.219 118.93C223.219 118.78 223.305 118.76 223.305 118.755Z" fill="#263238"/>
<path id="Vector_91" d="M213.295 118.326H208.009V124.837H213.295V118.326Z" fill="white"/>
<path id="Vector_92" d="M213.295 124.837C213.273 124.671 213.262 124.503 213.264 124.335C213.264 123.989 213.264 123.537 213.234 122.99C213.234 121.845 213.184 120.234 213.174 118.321L213.29 118.437H208.008L208.139 118.306V119.195C208.139 119.491 208.139 119.782 208.139 120.073V121.76C208.139 122.854 208.139 123.878 208.139 124.812L208.034 124.702L211.834 124.762H212.918C213.052 124.761 213.187 124.769 213.32 124.787C213.201 124.799 213.082 124.799 212.963 124.787L211.904 124.817C210.985 124.817 209.65 124.857 208.034 124.872H207.923V124.762C207.923 123.828 207.923 122.804 207.923 121.71C207.923 121.162 207.923 120.6 207.923 120.023V118.256C207.803 118.371 208.079 118.095 208.054 118.125H213.335H213.455V118.241C213.455 120.204 213.415 121.845 213.395 122.985C213.395 123.522 213.395 123.989 213.365 124.305C213.354 124.484 213.33 124.662 213.295 124.837Z" fill="#263238"/>
<path id="Vector_93" d="M222.482 122.232H221.603V124.843H222.482V122.232Z" fill="white"/>
</g>
<g id="freepik--Customers--inject-4">
<path id="Vector_94" d="M74.0706 84.2976C86.9473 82.68 96.0747 70.93 94.4571 58.0533C92.8395 45.1766 81.0896 36.0492 68.2128 37.6668C55.3361 39.2844 46.2088 51.0344 47.8263 63.9111C49.4439 76.7878 61.1939 85.9152 74.0706 84.2976Z" fill="white"/>
<path id="Vector_95" d="M47.645 60.9826C47.645 60.9826 47.645 60.8571 47.645 60.6011C47.645 60.3451 47.645 59.9686 47.6852 59.4867C47.6852 59.2357 47.6852 58.9847 47.7203 58.6584C47.7555 58.3321 47.8107 58.0309 47.8559 57.6544C47.901 57.2779 47.9663 56.9114 48.0265 56.5048C48.1034 56.07 48.2022 55.6394 48.3227 55.2147C48.8601 53.006 49.7302 50.8918 50.903 48.9447C52.4397 46.3439 54.4648 44.0649 56.8668 42.2329L57.8708 41.4699C58.2272 41.234 58.6037 41.0131 58.9752 40.7822C59.3466 40.5512 59.7181 40.2802 60.1247 40.1145L61.3496 39.5221L61.9721 39.226L62.6247 38.985L63.955 38.483C64.4018 38.3324 64.8737 38.232 65.3405 38.1065C65.8099 37.967 66.2878 37.858 66.7712 37.7802C67.7558 37.5937 68.7522 37.4763 69.7531 37.4288C70.2551 37.4288 70.7571 37.3585 71.2942 37.3635L72.8555 37.4439C73.1165 37.4439 73.3826 37.4439 73.6436 37.489L74.4317 37.6095C74.9337 37.6949 75.491 37.7551 76.0231 37.8655C77.0915 38.1016 78.143 38.4085 79.1706 38.7842L79.9588 39.0703L80.3503 39.2159L80.7268 39.4017L82.2328 40.1346C82.7348 40.4057 83.2067 40.7169 83.7037 41.0131C83.9446 41.1637 84.2057 41.2992 84.4316 41.4699L85.1294 41.9719C86.0871 42.6797 86.9961 43.4512 87.8502 44.2811L89.055 45.6014L89.3562 45.9377L89.6273 46.2941L90.1694 47.017L90.7116 47.7449L91.2136 48.523L91.6905 49.3011L91.9264 49.6977C92.0017 49.8332 92.062 49.9738 92.1323 50.1093C92.3983 50.6615 92.6644 51.2187 92.9355 51.776C93.2065 52.3332 93.3622 52.9406 93.578 53.5229C94.3545 55.9347 94.7656 58.4491 94.7979 60.9826C94.7681 63.5147 94.3569 66.0278 93.578 68.4373C93.3622 69.0247 93.1513 69.607 92.9355 70.1893C92.7196 70.7716 92.3983 71.3038 92.1323 71.856L91.9315 72.2676L91.6905 72.6592L91.2186 73.4423L90.7417 74.2204L90.1945 74.9483L89.6524 75.6712L89.3813 76.0326L89.0801 76.3639L87.8502 77.6842C87.0061 78.5006 86.1089 79.2603 85.1645 79.9582L84.4717 80.4602C84.2408 80.6359 83.9697 80.7665 83.7388 80.9221C83.2368 81.2132 82.7649 81.5295 82.268 81.8006L80.762 82.5335L80.3855 82.7142C80.2549 82.7694 80.1244 82.8146 79.9939 82.8598L79.2058 83.1459C78.1779 83.5209 77.1264 83.8278 76.0582 84.0646C75.5261 84.175 74.994 84.2353 74.4669 84.3206L73.6787 84.4411C73.4177 84.4762 73.1767 84.4712 72.8906 84.4913L71.3294 84.5666C70.8274 84.5666 70.2953 84.5264 69.7882 84.5064C68.7875 84.4566 67.7913 84.3392 66.8064 84.155C66.3233 84.073 65.8456 83.9624 65.3757 83.8236C64.9088 83.6981 64.4369 83.6028 63.9851 83.4471L62.6598 82.9451L62.0072 82.7042L61.3848 82.408L60.1599 81.8156C59.7533 81.6299 59.3918 81.3638 59.0103 81.148C58.6288 80.9321 58.2623 80.7012 57.9059 80.4653L56.9019 79.7022C54.4984 77.8699 52.4731 75.5889 50.9381 72.9855C49.7653 71.0335 48.8969 68.9141 48.3629 66.7004C48.2625 66.2436 48.1119 65.8219 48.0667 65.4103C48.0215 64.9986 47.9512 64.6171 47.896 64.2607C47.8408 63.9043 47.7906 63.573 47.7605 63.2567C47.7304 62.9404 47.7605 62.6794 47.7253 62.4334C47.7253 61.9314 47.6952 61.575 47.6852 61.314C47.6751 61.0529 47.6852 60.9324 47.6852 60.9324C47.6852 60.9324 47.6852 61.063 47.7153 61.314C47.7454 61.565 47.7555 61.9465 47.7856 62.4284C47.7856 62.6744 47.8157 62.9304 47.8308 63.2517C47.8458 63.573 47.9261 63.8792 47.9814 64.2557C48.0366 64.6322 48.0968 64.9936 48.1621 65.4002C48.2406 65.8339 48.3429 66.2629 48.4683 66.6854C49.0142 68.8834 49.891 70.9857 51.0687 72.9202C52.606 75.496 54.6258 77.751 57.0174 79.5617L58.0214 80.3197C58.3778 80.5506 58.7493 80.7665 59.1207 80.9924C59.4922 81.2183 59.8587 81.4944 60.2603 81.655L61.4751 82.2373L62.0926 82.5285L62.7452 82.7644L64.0604 83.2664C64.5072 83.412 64.9741 83.5074 65.4359 83.6329C65.901 83.7678 66.3737 83.875 66.8515 83.9542C67.8296 84.1373 68.8193 84.2513 69.8133 84.2955C70.3153 84.2955 70.8173 84.3658 71.3193 84.3558L72.8705 84.2754C73.1265 84.2754 73.3725 84.2754 73.6486 84.2252L74.4317 84.1048C74.9337 84.0194 75.4809 83.9592 76.003 83.8538C77.0615 83.6176 78.103 83.3107 79.1204 82.9351L79.8985 82.654L80.2851 82.5084L80.6616 82.3277L82.1676 81.5948C82.6696 81.3287 83.1314 81.0175 83.6234 80.7263C83.8593 80.5757 84.1254 80.4452 84.3462 80.2695L85.034 79.7675C85.9656 79.0746 86.851 78.3217 87.6845 77.5135C88.0761 77.0751 88.4727 76.6383 88.8743 76.2033L89.1705 75.872L89.4415 75.5155L89.9737 74.8027L90.5108 74.0798L90.9827 73.3118L91.4546 72.5387L91.6905 72.1521L91.8863 71.7405L92.6845 70.0939L93.317 68.362C94.0856 65.9781 94.4917 63.4922 94.5218 60.9877C94.4904 58.4832 94.0843 55.9975 93.317 53.6133L92.6794 51.8814C92.4134 51.3292 92.1774 50.782 91.8863 50.2348C91.821 50.0993 91.7558 49.9587 91.6855 49.8232L91.4495 49.4366L90.9827 48.6636L90.5108 47.8955L89.9636 47.1877L89.4265 46.4748L89.1604 46.1184L88.8592 45.7871L87.6745 44.4819C86.8405 43.6722 85.9534 42.9192 85.0189 42.2279L84.3312 41.7259C84.1053 41.5552 83.8292 41.4247 83.6083 41.2691C83.1063 40.9779 82.6495 40.6667 82.1525 40.4006L80.6465 39.6727L80.27 39.492C80.1445 39.4368 80.009 39.3966 79.8835 39.3464L79.1054 39.0603C78.0871 38.6886 77.0457 38.3834 75.9879 38.1467C75.4859 38.0362 74.9337 37.976 74.4167 37.8906L73.6336 37.7702C73.3775 37.735 73.1316 37.74 72.8555 37.72L71.3093 37.6396C70.8073 37.6396 70.3053 37.6848 69.8033 37.6999C68.8111 37.7463 67.8232 37.8603 66.8465 38.0412C66.3686 38.1198 65.8959 38.2271 65.4309 38.3625C64.969 38.488 64.4972 38.5834 64.0504 38.734L62.7351 39.236L62.0876 39.4719L61.4701 39.7681L60.2402 40.2902C59.8336 40.4709 59.4772 40.737 59.0956 40.9478C58.7141 41.1587 58.3527 41.3896 57.9963 41.6255L56.9923 42.3785C54.5992 44.1891 52.5778 46.4441 51.0385 49.02C49.8599 50.9558 48.983 53.0599 48.4382 55.2598C48.3122 55.6805 48.21 56.1078 48.132 56.5399C48.0684 56.9482 48.0081 57.3298 47.9512 57.6845C47.896 58.0409 47.8358 58.3672 47.8006 58.6885C47.7655 59.0098 47.7705 59.2608 47.7555 59.5068L47.6902 60.6011C47.6601 60.8571 47.645 60.9826 47.645 60.9826Z" fill="#263238"/>
<path id="Vector_96" d="M72.7901 62.0123C73.5671 61.6688 74.2267 61.1056 74.6878 60.3921C75.1489 59.6786 75.3914 58.8458 75.3854 57.9963C75.4216 57.4387 75.3433 56.8795 75.1553 56.3533C74.9674 55.8271 74.6738 55.3448 74.2925 54.9363C73.9113 54.5278 73.4505 54.2016 72.9385 53.9777C72.4265 53.7539 71.8741 53.6372 71.3153 53.6348C70.7565 53.6324 70.2031 53.7444 69.6892 53.9638C69.1753 54.1832 68.7117 54.5054 68.327 54.9107C67.9422 55.3159 67.6445 55.7956 67.452 56.3202C67.2596 56.8448 67.1765 57.4032 67.2078 57.9612C67.1931 58.8209 67.4325 59.6658 67.896 60.39C68.3595 61.1143 69.0264 61.6856 69.8132 62.0324C63.5232 62.9812 63.7892 69.8184 63.7892 69.8184L78.6685 69.8887C78.6685 69.8887 79.0099 62.951 72.7901 62.0123Z" fill="#FF8E25"/>
<path id="Vector_97" d="M82.0016 57.3704C82.4883 57.1566 82.9017 56.805 83.1907 56.3589C83.4798 55.9129 83.6318 55.3919 83.6281 54.8604C83.65 54.5107 83.6001 54.1602 83.4813 53.8306C83.3626 53.5009 83.1775 53.1991 82.9377 52.9437C82.6978 52.6883 82.4081 52.4848 82.0865 52.3457C81.765 52.2065 81.4183 52.1348 81.0679 52.1348C80.7175 52.1348 80.3709 52.2065 80.0493 52.3457C79.7277 52.4848 79.4381 52.6883 79.1982 52.9437C78.9583 53.1991 78.7733 53.5009 78.6545 53.8306C78.5358 54.1602 78.4858 54.5107 78.5077 54.8604C78.4968 55.3985 78.6461 55.9278 78.9366 56.381C79.2271 56.8341 79.6457 57.1907 80.1392 57.4055C76.1985 58.0029 76.3742 62.285 76.3742 62.285L85.6964 62.3251C85.6964 62.3251 85.9072 57.9627 82.0016 57.3704Z" fill="#FF8E25"/>
<path id="Vector_98" d="M62.213 57.3704C62.6997 57.1566 63.113 56.805 63.4021 56.3589C63.6911 55.9129 63.8432 55.3919 63.8395 54.8604C63.8614 54.5107 63.8115 54.1602 63.6927 53.8306C63.574 53.5009 63.3889 53.1991 63.149 52.9437C62.9092 52.6883 62.6195 52.4848 62.2979 52.3457C61.9764 52.2065 61.6297 52.1348 61.2793 52.1348C60.9289 52.1348 60.5823 52.2065 60.2607 52.3457C59.9391 52.4848 59.6495 52.6883 59.4096 52.9437C59.1697 53.1991 58.9847 53.5009 58.8659 53.8306C58.7472 54.1602 58.6972 54.5107 58.7191 54.8604C58.7082 55.3985 58.8575 55.9278 59.148 56.381C59.4385 56.8341 59.8571 57.1907 60.3506 57.4055C56.4099 58.0029 56.5906 62.285 56.5906 62.285L65.9077 62.3251C65.9077 62.3251 66.1186 57.9627 62.213 57.3704Z" fill="#FF8E25"/>
</g>
<g id="freepik--Products--inject-4">
<path id="Vector_99" d="M186.473 51.0603C189.515 38.4441 181.755 25.75 169.139 22.7071C156.522 19.6643 143.828 27.425 140.785 40.0412C137.743 52.6573 145.503 65.3515 158.119 68.3943C170.736 71.4372 183.43 63.6765 186.473 51.0603Z" fill="white"/>
<path id="Vector_100" d="M140.128 45.5448C140.128 45.5448 140.128 45.4193 140.128 45.1633C140.128 44.9073 140.154 44.5258 140.169 44.0438C140.169 43.7979 140.169 43.5418 140.199 43.2206C140.229 42.8993 140.284 42.588 140.334 42.2166C140.425 41.393 140.578 40.5775 140.791 39.7768C141.318 37.5562 142.183 35.4297 143.356 33.4717C145.064 30.5865 147.365 28.0973 150.108 26.169C152.851 24.2408 155.972 22.9176 159.265 22.2872C160.259 22.0981 161.266 21.979 162.277 21.9307C162.779 21.9307 163.281 21.8605 163.818 21.8655L165.384 21.9458C165.645 21.9458 165.911 21.9458 166.177 21.991L166.965 22.1115C167.492 22.1968 168.03 22.2571 168.557 22.3675C170.732 22.8501 172.835 23.6146 174.812 24.6416C175.314 24.9076 175.791 25.2239 176.288 25.5201C176.787 25.8207 177.265 26.1562 177.718 26.5241C178.664 27.2254 179.563 27.9884 180.409 28.8081C181.243 29.6653 182.017 30.5777 182.728 31.539C184.202 33.5181 185.348 35.7217 186.122 38.065C186.903 40.4828 187.316 43.0043 187.347 45.5448C187.315 48.0837 186.902 50.6035 186.122 53.0196C185.35 55.3636 184.204 57.5674 182.728 59.5456C182.015 60.5112 181.238 61.4286 180.404 62.2915C179.558 63.1097 178.659 63.871 177.713 64.5706C177.261 64.9395 176.783 65.275 176.283 65.5746C175.781 65.8658 175.309 66.1821 174.807 66.4531C173.798 66.9638 172.754 67.4033 171.684 67.7684C170.652 68.1457 169.595 68.4543 168.522 68.692C167.994 68.7975 167.457 68.8577 166.93 68.943L166.142 69.0635C165.876 69.0987 165.61 69.0987 165.349 69.1137L163.783 69.189C163.281 69.189 162.749 69.1439 162.242 69.1288C161.231 69.0786 160.224 68.9595 159.23 68.7724C155.936 68.1417 152.815 66.8178 150.072 64.8887C147.329 62.9595 145.028 60.4691 143.321 57.5828C142.149 55.6261 141.284 53.5014 140.756 51.2827C140.543 50.4802 140.391 49.6631 140.299 48.8379C140.249 48.4815 140.189 48.1552 140.164 47.834C140.139 47.5127 140.164 47.2566 140.133 47.0107C140.133 46.5087 140.103 46.1623 140.093 45.8912C140.083 45.6201 140.093 45.5097 140.093 45.5097C140.093 45.5097 140.093 45.6402 140.133 45.8912C140.174 46.1422 140.174 46.5287 140.209 47.0056C140.209 47.2516 140.239 47.5076 140.259 47.8289C140.279 48.1502 140.354 48.4514 140.41 48.8329C140.517 49.6507 140.685 50.4594 140.912 51.2526C141.461 53.447 142.339 55.5457 143.517 57.4774C145.222 60.3184 147.509 62.7657 150.229 64.6581C152.949 66.5505 156.038 67.845 159.295 68.4561C160.268 68.6367 161.253 68.7508 162.242 68.7975C162.744 68.7975 163.246 68.8627 163.748 68.8527L165.294 68.7724C165.55 68.7724 165.796 68.7724 166.072 68.7222L166.85 68.6017C167.352 68.5163 167.899 68.4561 168.421 68.3457C169.477 68.1128 170.515 67.8076 171.529 67.432C172.572 67.0583 173.589 66.6121 174.571 66.0967C175.073 65.8307 175.535 65.5194 176.021 65.2283C176.512 64.9389 176.982 64.6152 177.427 64.2594C178.357 63.5682 179.241 62.817 180.073 62.0104C180.892 61.1612 181.655 60.259 182.357 59.3097C183.822 57.3686 184.964 55.204 185.74 52.8991C186.507 50.5218 186.911 48.0426 186.94 45.5448C186.912 43.047 186.508 40.5677 185.74 38.1905C184.983 35.8846 183.857 33.7164 182.407 31.7699C181.709 30.8182 180.945 29.9158 180.123 29.0692C179.294 28.2615 178.412 27.5102 177.482 26.8202C177.037 26.4644 176.568 26.1407 176.077 25.8514C175.575 25.5652 175.118 25.254 174.626 24.9829C172.68 23.9743 170.614 23.2185 168.476 22.734C167.974 22.6285 167.427 22.5633 166.905 22.4779L166.127 22.3575C165.871 22.3223 165.625 22.3273 165.349 22.3072L163.808 22.2269C163.306 22.2269 162.804 22.2671 162.302 22.2872C161.311 22.3319 160.325 22.4443 159.35 22.6235C155.779 23.2851 152.413 24.7778 149.526 26.9809C147.136 28.7873 145.115 31.035 143.572 33.6023C142.395 35.5339 141.516 37.6326 140.967 39.827C140.74 40.6218 140.572 41.4322 140.465 42.2517C140.41 42.6031 140.344 42.9294 140.314 43.2557C140.284 43.582 140.279 43.828 140.264 44.074C140.229 44.576 140.204 44.9223 140.189 45.1934C140.174 45.4645 140.128 45.5448 140.128 45.5448Z" fill="#263238"/>
<path id="Vector_101" d="M173.777 36.1895H157.939V54.4422H173.777V36.1895Z" fill="#FF8E25"/>
<g id="Group" opacity="0.3">
<path id="Vector_102" d="M173.777 36.1895H157.939V54.4422H173.777V36.1895Z" fill="black"/>
</g>
<path id="Vector_103" d="M164.194 36.1895H150.565V54.4422H164.194V36.1895Z" fill="#FF8E25"/>
<path id="Vector_104" d="M173.777 54.4361C173.696 54.3358 173.627 54.2263 173.572 54.1098L173.024 53.136L171.051 49.5416L164.656 37.6493C164.46 37.2878 164.269 36.9314 164.094 36.5951L164.34 36.5348C164.34 41.5548 164.31 46.0025 164.3 49.2605C164.3 50.8519 164.264 52.147 164.254 53.0757C164.254 53.5024 164.254 53.8488 164.254 54.0797C164.253 54.2006 164.245 54.3213 164.229 54.4412C164.207 54.322 164.199 54.2008 164.204 54.0797C164.204 53.8237 164.204 53.4773 164.204 53.0757C164.204 52.147 164.179 50.8519 164.164 49.2605C164.164 46.0025 164.164 41.5297 164.124 36.5348C164.124 36.5002 164.138 36.467 164.162 36.4425C164.187 36.4181 164.22 36.4043 164.254 36.4043C164.278 36.4058 164.301 36.413 164.321 36.4252C164.341 36.4375 164.358 36.4544 164.37 36.4746L164.932 37.5238L171.277 49.4613C172.066 50.9673 172.713 52.2123 173.175 53.0958C173.386 53.5074 173.551 53.8388 173.677 54.0998C173.721 54.2085 173.755 54.3211 173.777 54.4361Z" fill="#263238"/>
<path id="Vector_105" d="M173.777 36.1895C173.688 36.4468 173.579 36.6969 173.451 36.9374C173.23 37.4093 172.894 38.087 172.472 38.9454C171.629 40.6171 170.419 42.9062 169.039 45.4112C167.658 47.9162 166.393 50.1752 165.469 51.8017L164.365 53.7243C164.237 53.9657 164.091 54.1973 163.928 54.4171C164.024 54.1624 164.14 53.9156 164.275 53.6791L165.309 51.7063C166.192 50.0547 167.437 47.7857 168.823 45.2807L172.337 38.8551C172.768 38.0619 173.12 37.4043 173.391 36.9023C173.501 36.655 173.63 36.4167 173.777 36.1895Z" fill="#263238"/>
<path id="Vector_106" d="M162.331 48.6133H158.923V52.5389H162.331V48.6133Z" fill="white"/>
</g>
<g id="freepik--Technologies--inject-4">
<path id="Vector_107" d="M172.367 195.92C172.116 200.666 173.31 205.376 175.792 209.429C178.273 213.482 181.925 216.687 186.266 218.622C190.607 220.557 195.432 221.13 200.105 220.266C204.778 219.402 209.079 217.141 212.441 213.782C215.803 210.423 218.068 206.124 218.936 201.452C219.804 196.78 219.235 191.954 217.304 187.612C215.374 183.269 212.172 179.614 208.121 177.129C204.07 174.644 199.361 173.446 194.615 173.692C188.816 173.994 183.334 176.432 179.225 180.536C175.117 184.641 172.674 190.121 172.367 195.92Z" fill="white"/>
<path id="Vector_108" d="M172.336 197.141C172.336 197.141 172.336 197.015 172.336 196.759C172.336 196.503 172.336 196.121 172.371 195.64C172.371 195.394 172.371 195.138 172.407 194.816C172.442 194.495 172.492 194.184 172.537 193.812C172.628 192.988 172.782 192.173 172.999 191.373C173.524 189.151 174.389 187.024 175.564 185.067C177.27 182.182 179.57 179.692 182.312 177.764C185.054 175.835 188.175 174.512 191.468 173.883C192.462 173.694 193.468 173.575 194.48 173.526C194.982 173.526 195.484 173.456 196.026 173.461L197.592 173.542C197.853 173.542 198.119 173.542 198.38 173.587L199.173 173.707C199.675 173.793 200.232 173.853 200.765 173.963C201.836 174.2 202.891 174.507 203.922 174.882C204.983 175.263 206.016 175.715 207.015 176.237C207.517 176.503 208.019 176.82 208.49 177.116C208.99 177.407 209.468 177.734 209.921 178.095C210.868 178.795 211.767 179.558 212.612 180.379C213.447 181.239 214.224 182.155 214.936 183.12C216.412 185.098 217.558 187.301 218.33 189.646C219.96 194.497 219.96 199.749 218.33 204.6C217.555 206.943 216.41 209.147 214.936 211.126C214.223 212.092 213.446 213.009 212.612 213.872C211.766 214.69 210.867 215.452 209.921 216.151C209.467 216.518 208.989 216.853 208.49 217.155C207.988 217.446 207.486 217.763 206.984 218.034C205.987 218.556 204.953 219.007 203.892 219.384C202.861 219.761 201.806 220.069 200.734 220.308C200.202 220.413 199.665 220.473 199.138 220.559L198.35 220.679C198.089 220.714 197.823 220.714 197.557 220.73L195.991 220.805C195.489 220.805 194.961 220.76 194.449 220.745C193.439 220.694 192.432 220.575 191.437 220.388C188.145 219.756 185.025 218.432 182.283 216.503C179.541 214.574 177.241 212.084 175.534 209.199C174.359 207.243 173.494 205.118 172.969 202.898C172.752 202.097 172.598 201.279 172.507 200.454C172.462 200.097 172.402 199.771 172.377 199.45C172.351 199.128 172.351 198.872 172.341 198.626C172.341 198.15 172.316 197.778 172.306 197.507C172.296 197.236 172.306 197.125 172.306 197.125C172.306 197.125 172.306 197.256 172.346 197.507C172.387 197.758 172.392 198.145 172.422 198.621C172.422 198.867 172.457 199.123 172.472 199.445C172.487 199.766 172.572 200.067 172.622 200.424C172.731 201.241 172.898 202.05 173.124 202.843C173.672 205.038 174.55 207.137 175.73 209.068C177.434 211.908 179.721 214.355 182.44 216.247C185.159 218.14 188.247 219.435 191.503 220.047C192.478 220.227 193.464 220.341 194.454 220.388C194.956 220.388 195.458 220.453 195.96 220.443L197.502 220.363C197.763 220.363 198.004 220.363 198.285 220.313L199.063 220.192C199.565 220.107 200.107 220.047 200.629 219.936C202.781 219.46 204.863 218.709 206.824 217.702C207.326 217.436 207.788 217.125 208.275 216.834C208.767 216.545 209.238 216.221 209.685 215.865C211.586 214.495 213.249 212.823 214.61 210.915C216.058 208.968 217.183 206.8 217.943 204.495C219.546 199.723 219.546 194.558 217.943 189.786C217.185 187.481 216.061 185.313 214.615 183.366C213.913 182.416 213.15 181.514 212.331 180.665C211.499 179.858 210.615 179.107 209.685 178.416C209.241 178.059 208.771 177.735 208.28 177.447C207.778 177.161 207.321 176.85 206.829 176.579C205.846 176.066 204.83 175.619 203.787 175.243C202.772 174.872 201.734 174.566 200.679 174.33C200.177 174.224 199.63 174.159 199.113 174.074L198.335 173.953C198.074 173.918 197.833 173.923 197.557 173.903L196.011 173.823C195.509 173.823 195.007 173.863 194.505 173.883C193.514 173.928 192.528 174.041 191.553 174.219C188.299 174.834 185.211 176.13 182.493 178.022C179.774 179.914 177.487 182.36 175.78 185.198C174.601 187.129 173.722 189.228 173.175 191.423C172.948 192.218 172.781 193.028 172.673 193.847C172.622 194.199 172.557 194.525 172.522 194.851C172.487 195.178 172.487 195.424 172.472 195.67C172.442 196.147 172.417 196.518 172.397 196.789C172.377 197.06 172.336 197.141 172.336 197.141Z" fill="#263238"/>
<path id="Vector_109" d="M191.086 189.253C191.783 188.833 192.532 188.507 193.315 188.284L193.777 186.075L197.507 186.01L198.044 188.198C198.835 188.395 199.596 188.695 200.308 189.092L202.195 187.857L204.876 190.447L203.711 192.375C204.132 193.072 204.458 193.821 204.68 194.604L206.884 195.066L206.954 198.796L204.761 199.333C204.567 200.124 204.268 200.885 203.872 201.597L205.107 203.484L202.517 206.165L200.589 204.995C199.891 205.418 199.14 205.745 198.355 205.969L197.898 208.173L194.168 208.238L193.631 206.05C192.84 205.857 192.078 205.558 191.367 205.161L189.48 206.396L186.794 203.811L187.964 201.883C187.543 201.185 187.217 200.434 186.995 199.649L184.786 199.192L184.721 195.462L186.914 194.925C187.107 194.134 187.406 193.372 187.803 192.661L186.568 190.774L189.158 188.088L191.086 189.258V189.253ZM193.094 194.222C192.54 194.793 192.168 195.515 192.025 196.298C191.882 197.08 191.975 197.887 192.291 198.617C192.607 199.346 193.133 199.966 193.802 200.396C194.47 200.827 195.252 201.049 196.047 201.035C196.842 201.021 197.615 200.771 198.268 200.317C198.921 199.863 199.425 199.226 199.715 198.485C200.005 197.745 200.069 196.935 199.898 196.158C199.728 195.381 199.33 194.673 198.757 194.122C198.376 193.756 197.927 193.469 197.436 193.277C196.944 193.084 196.419 192.991 195.891 193.002C195.364 193.012 194.843 193.127 194.36 193.339C193.876 193.551 193.439 193.856 193.074 194.238L193.094 194.222Z" fill="#FF8E25"/>
</g>
<g id="freepik--Prices--inject-4">
<path id="Vector_110" d="M67.464 217.639C67.2167 222.384 68.4138 227.093 70.8975 231.144C73.3812 235.195 77.0348 238.398 81.3761 240.33C85.7174 242.262 90.5425 242.833 95.2147 241.967C99.8869 241.1 104.187 238.838 107.547 235.478C110.907 232.118 113.169 227.818 114.036 223.146C114.902 218.474 114.331 213.649 112.399 209.307C110.467 204.966 107.264 201.312 103.213 198.829C99.1619 196.345 94.453 195.148 89.7076 195.395C83.9066 195.699 78.4235 198.14 74.316 202.247C70.2084 206.355 67.7675 211.838 67.464 217.639Z" fill="white"/>
<path id="Vector_111" d="M67.4338 218.872C67.4338 218.872 67.4338 218.741 67.4338 218.49C67.4338 218.239 67.4589 217.848 67.474 217.371C67.474 217.12 67.474 216.869 67.5041 216.543C67.5342 216.216 67.5894 215.915 67.6396 215.539C67.7301 214.713 67.8828 213.896 68.0964 213.094C68.6243 210.885 69.4877 208.771 70.6566 206.824C72.3629 203.937 74.6639 201.447 77.4067 199.517C80.1495 197.588 83.2714 196.265 86.565 195.634C87.5598 195.448 88.5661 195.329 89.577 195.278C90.079 195.278 90.581 195.208 91.1182 195.218L92.6844 195.293C92.9454 195.293 93.1864 195.293 93.4776 195.343L94.2657 195.459C94.7677 195.549 95.3299 195.609 95.857 195.715C98.0303 196.203 100.132 196.968 102.112 197.989C102.614 198.26 103.091 198.576 103.588 198.867C104.089 199.166 104.567 199.502 105.019 199.871C106.958 201.255 108.655 202.952 110.039 204.891C111.514 206.87 112.659 209.074 113.432 211.417C115.065 216.268 115.065 221.521 113.432 226.372C112.66 228.716 111.514 230.92 110.039 232.898C108.655 234.837 106.958 236.534 105.019 237.918C104.568 238.288 104.09 238.624 103.588 238.922C103.086 239.218 102.614 239.529 102.112 239.8C100.135 240.827 98.0321 241.592 95.857 242.074C95.355 242.18 94.7928 242.245 94.2657 242.33L93.4776 242.446C93.2115 242.481 92.9454 242.481 92.6844 242.496L91.1182 242.576C90.6162 242.576 90.084 242.531 89.577 242.511C88.5661 242.461 87.5597 242.342 86.565 242.155C83.2665 241.522 80.141 240.193 77.3975 238.255C74.6541 236.318 72.3559 233.817 70.6566 230.92C69.4831 228.964 68.6179 226.839 68.0914 224.62C67.8778 223.818 67.7251 223 67.6346 222.175C67.5844 221.819 67.5242 221.492 67.4991 221.171C67.474 220.85 67.4991 220.594 67.4689 220.343C67.4689 219.866 67.4388 219.495 67.4288 219.223C67.4187 218.952 67.4288 218.847 67.4288 218.847C67.4288 218.847 67.4288 218.972 67.4689 219.223C67.5091 219.474 67.5091 219.861 67.5442 220.338C67.5442 220.584 67.5744 220.84 67.5944 221.161C67.6145 221.482 67.6898 221.789 67.745 222.165C67.8528 222.985 68.0206 223.795 68.247 224.59C68.7966 226.783 69.6751 228.88 70.8524 230.81C72.5572 233.651 74.8448 236.098 77.5644 237.99C80.284 239.883 83.3739 241.177 86.6303 241.788C87.6033 241.971 88.588 242.085 89.577 242.13C90.079 242.13 90.581 242.195 91.083 242.19L92.6292 242.11C92.8852 242.11 93.1312 242.11 93.4073 242.059L94.1854 241.939C94.6874 241.849 95.2346 241.788 95.7566 241.683C96.8214 241.443 97.8694 241.135 98.8941 240.759C99.9372 240.382 100.954 239.934 101.936 239.419C102.438 239.153 102.9 238.842 103.387 238.555C103.878 238.264 104.348 237.939 104.793 237.582C105.725 236.893 106.609 236.142 107.438 235.333C108.259 234.484 109.022 233.582 109.722 232.632C111.169 230.684 112.293 228.516 113.051 226.211C114.65 221.439 114.65 216.275 113.051 211.503C112.293 209.198 111.167 207.032 109.717 205.087C108.36 203.177 106.696 201.504 104.793 200.137C104.349 199.78 103.879 199.456 103.387 199.169C102.885 198.877 102.428 198.566 101.936 198.3C100.954 197.785 99.9372 197.337 98.8941 196.96C97.879 196.589 96.8411 196.284 95.7868 196.046C95.2848 195.941 94.7376 195.88 94.2155 195.795L93.4374 195.675C93.1814 195.639 92.9354 195.639 92.6593 195.624L91.1182 195.544C90.6162 195.544 90.1142 195.584 89.6122 195.599C88.6216 195.646 87.6354 195.76 86.6604 195.941C83.0786 196.598 79.7023 198.09 76.8061 200.298C74.4167 202.104 72.3956 204.352 70.8524 206.919C69.6758 208.851 68.7974 210.95 68.247 213.144C68.0206 213.939 67.8528 214.749 67.745 215.569C67.6898 215.92 67.6246 216.247 67.5944 216.548C67.5643 216.849 67.5593 217.125 67.5442 217.371C67.5091 217.848 67.484 218.214 67.4689 218.485C67.4539 218.757 67.4338 218.872 67.4338 218.872Z" fill="#263238"/>
<path id="Vector_112" d="M92.5339 228.863V231.764H89.3964V228.968C86.786 228.787 84.3011 228.029 82.79 226.985L84.4868 223.17C86.2894 224.317 88.3747 224.94 90.5108 224.972C92.6543 224.972 93.4927 224.37 93.4927 223.466C93.4927 220.57 83.0912 222.683 83.0912 215.891C83.0912 213.015 85.1545 210.585 89.3863 210.063V207.191H92.5238V210.013C94.3842 210.131 96.1958 210.657 97.83 211.554L96.2336 215.394C94.6853 214.514 92.9438 214.03 91.1634 213.983C88.9948 213.983 88.2116 214.716 88.2116 215.63C88.2116 218.426 98.583 216.333 98.583 223.075C98.593 225.861 96.6101 228.265 92.5339 228.863Z" fill="#FF8E25"/>
</g>
<g id="freepik--Competitors--inject-4">
<path id="Vector_113" d="M57.0956 144.733C62.3804 132.879 57.0557 118.986 45.2026 113.702C33.3494 108.417 19.4563 113.741 14.1715 125.595C8.88672 137.448 14.2114 151.341 26.0646 156.626C37.9177 161.91 51.8108 156.586 57.0956 144.733Z" fill="white"/>
<path id="Vector_114" d="M59.1257 135.174C59.1257 135.174 59.1257 135.043 59.0956 134.792C59.0655 134.541 59.0555 134.159 59.0253 133.678C59.0253 133.432 58.9952 133.176 58.9802 132.854C58.9651 132.533 58.8848 132.227 58.8296 131.85L58.6488 130.706C58.5684 130.274 58.4662 129.847 58.3426 129.426C57.7887 127.232 56.9051 125.135 55.7222 123.206C54.1874 120.633 52.1731 118.378 49.7885 116.564L48.7845 115.811C48.4281 115.58 48.0516 115.365 47.6852 115.139C47.3187 114.913 46.9472 114.637 46.5406 114.476L45.3258 113.894L44.7083 113.603L44.0607 113.367L42.7455 112.865C42.2987 112.714 41.8268 112.624 41.365 112.493C40.9005 112.357 40.4276 112.251 39.9493 112.177C38.9731 111.992 37.9851 111.876 36.9926 111.831C36.4906 111.831 35.9886 111.765 35.4866 111.775L33.9404 111.851C33.6794 111.851 33.4384 111.851 33.1573 111.906L32.3792 112.021C31.8772 112.112 31.33 112.172 30.8079 112.277C29.7501 112.514 28.7088 112.819 27.6905 113.191L26.9124 113.477L26.5259 113.623L26.1494 113.803L24.6434 114.531C24.1414 114.802 23.6795 115.114 23.1876 115.405C22.9516 115.555 22.6856 115.686 22.4697 115.857L21.7769 116.359C20.8268 117.061 19.9245 117.825 19.0762 118.648L17.9115 119.978L17.6103 120.304L17.3443 120.661L16.8071 121.379L16.27 122.096L15.7981 122.864L15.3313 123.638L15.0953 124.029C15.02 124.16 14.9598 124.3 14.8945 124.436C14.6285 124.983 14.3674 125.53 14.1014 126.082C13.8353 126.634 13.6797 127.237 13.4638 127.814C11.8575 132.599 11.8575 137.778 13.4638 142.563L14.0963 144.295C14.3624 144.847 14.6285 145.394 14.8895 145.941L15.0903 146.353L15.3262 146.74L15.7981 147.513L16.27 148.286L16.8071 149.004L17.3393 149.721L17.6103 150.078L17.9065 150.404C18.3081 150.841 18.6997 151.278 19.0963 151.714C19.9298 152.523 20.8152 153.276 21.7468 153.968L22.4346 154.47C22.6655 154.646 22.9366 154.777 23.1574 154.927C23.6594 155.218 24.1213 155.53 24.6132 155.801L26.1192 156.529L26.4957 156.709C26.6212 156.765 26.7568 156.805 26.8823 156.855L27.6604 157.141C28.6787 157.513 29.72 157.818 30.7778 158.055C31.2798 158.16 31.832 158.22 32.3491 158.311L33.1322 158.431C33.3882 158.461 33.6342 158.461 33.9103 158.481L35.4615 158.557C35.9635 158.557 36.4655 158.517 36.9675 158.501C37.96 158.456 38.948 158.34 39.9242 158.155C40.4026 158.081 40.8755 157.975 41.3399 157.839C41.8067 157.708 42.2736 157.618 42.7204 157.467L44.0356 156.965L44.6882 156.729L45.3057 156.438L46.5205 155.856C46.9221 155.67 47.2836 155.409 47.6601 155.193C48.0366 154.977 48.403 154.752 48.7594 154.521L49.7634 153.768C52.1566 151.958 54.1795 149.705 55.7222 147.131C56.9007 145.197 57.7776 143.095 58.3225 140.896C58.428 140.445 58.5786 140.023 58.6288 139.616L58.8095 138.472C58.8647 138.115 58.9249 137.789 58.9601 137.468C58.9952 137.146 58.9902 136.89 59.0053 136.644L59.0755 135.53C59.0755 135.279 59.1057 135.153 59.1057 135.153C59.1057 135.153 59.1057 135.279 59.1057 135.53C59.1057 135.781 59.1057 136.162 59.0655 136.649C59.0655 136.895 59.0655 137.151 59.0303 137.473C58.9952 137.794 58.94 138.105 58.8898 138.477C58.8396 138.848 58.7844 139.215 58.7241 139.626C58.6639 140.038 58.5284 140.46 58.428 140.916C57.8948 143.13 57.0264 145.25 55.8527 147.201C54.3162 149.804 52.2911 152.084 49.8889 153.918L48.8849 154.681C48.5285 154.917 48.152 155.133 47.7805 155.364C47.409 155.595 47.0376 155.866 46.631 156.037L45.4061 156.624L44.7836 156.925L44.131 157.166L42.8057 157.668C42.3539 157.819 41.882 157.914 41.4152 158.045C40.9452 158.182 40.4674 158.291 39.9845 158.371C38.9999 158.557 38.0035 158.675 37.0026 158.722C36.5006 158.722 35.9986 158.793 35.4615 158.788L33.9002 158.707C33.6392 158.707 33.3982 158.707 33.1121 158.657L32.324 158.542C31.822 158.451 31.2647 158.391 30.7326 158.286C29.6628 158.049 28.6096 157.742 27.5801 157.367L26.7969 157.081L26.4054 156.93L26.0239 156.749L24.5179 156.017C24.0159 155.745 23.539 155.429 23.047 155.138C22.806 154.982 22.545 154.852 22.3141 154.676L21.6213 154.174C20.6756 153.476 19.7783 152.715 18.9356 151.895L17.7358 150.575L17.4346 150.244L17.1585 149.882L16.6214 149.159L16.0642 148.406L15.5622 147.633L15.0903 146.85L14.8493 146.458L14.6485 146.042C14.3825 145.49 14.1114 144.932 13.8453 144.375C13.5793 143.818 13.4186 143.211 13.2028 142.623C11.5763 137.786 11.5763 132.551 13.2028 127.714C13.4186 127.126 13.6345 126.544 13.8453 125.962C14.0562 125.379 14.3825 124.847 14.6485 124.295C14.7188 124.16 14.7791 124.019 14.8493 123.884L15.0903 123.492L15.5672 122.709L16.0441 121.931L16.5863 121.203L17.1435 120.48L17.4146 120.124L17.7158 119.792L18.9206 118.467C19.757 117.65 20.6475 116.89 21.5862 116.193L22.284 115.691C22.5099 115.515 22.786 115.385 23.0119 115.229C23.5139 114.938 23.9857 114.622 24.4827 114.351L26.0138 113.618L26.3903 113.437L26.7819 113.286L27.565 113C28.5946 112.625 29.6477 112.318 30.7176 112.082C31.2447 111.976 31.7818 111.916 32.3089 111.825L33.1322 111.695C33.3932 111.66 33.6593 111.66 33.9203 111.645L35.4815 111.564C35.9835 111.564 36.4855 111.61 37.0227 111.63C38.0234 111.68 39.0196 111.797 40.0046 111.981C40.4875 112.061 40.9653 112.17 41.4353 112.307C41.9021 112.438 42.374 112.533 42.8208 112.684L44.1511 113.186L44.8037 113.427L45.4262 113.723L46.651 114.315C47.0364 114.511 47.4117 114.725 47.7755 114.958C48.152 115.189 48.5285 115.405 48.8849 115.641L49.8889 116.404C52.2922 118.236 54.3175 120.517 55.8527 123.12C57.0264 125.072 57.8948 127.192 58.428 129.406C58.5284 129.862 58.679 130.284 58.7241 130.696C58.7693 131.107 58.8396 131.489 58.8898 131.845C58.94 132.202 59.0002 132.528 59.0303 132.849C59.0605 133.171 59.0304 133.427 59.0655 133.673C59.0655 134.175 59.0956 134.531 59.1057 134.792C59.1157 135.053 59.1257 135.174 59.1257 135.174Z" fill="#263238"/>
<path id="Vector_115" d="M39.9094 125.701C39.9094 126.373 39.7101 127.031 39.3366 127.589C38.9632 128.148 38.4324 128.584 37.8114 128.841C37.1904 129.098 36.5071 129.166 35.8478 129.035C35.1886 128.903 34.583 128.58 34.1077 128.104C33.6324 127.629 33.3087 127.024 33.1776 126.364C33.0465 125.705 33.1138 125.022 33.371 124.401C33.6282 123.78 34.0638 123.249 34.6227 122.875C35.1816 122.502 35.8387 122.303 36.5108 122.303C37.4122 122.303 38.2766 122.661 38.914 123.298C39.5513 123.935 39.9094 124.8 39.9094 125.701Z" fill="#FF8E25"/>
<path id="Vector_116" d="M36.5105 122.302C36.9984 122.302 37.394 121.907 37.394 121.419C37.394 120.931 36.9984 120.535 36.5105 120.535C36.0225 120.535 35.627 120.931 35.627 121.419C35.627 121.907 36.0225 122.302 36.5105 122.302Z" fill="#FF8E25"/>
<path id="Vector_117" d="M30.9987 146.775H42.103C42.541 146.775 42.9611 146.949 43.2708 147.259C43.5806 147.569 43.7546 147.989 43.7546 148.427V149.26H29.3472V148.427C29.3472 147.989 29.5212 147.569 29.8309 147.259C30.1406 146.949 30.5607 146.775 30.9987 146.775Z" fill="#FF8E25"/>
<path id="Vector_118" d="M31.4204 146.82L32.2788 148.02H40.9785L41.8972 146.82H31.4204Z" fill="#FF8E25"/>
<path id="Vector_119" d="M39.1914 135.6H33.83C33.4169 135.6 33.082 135.934 33.082 136.348V136.443C33.082 136.856 33.4169 137.191 33.83 137.191H39.1914C39.6045 137.191 39.9393 136.856 39.9393 136.443V136.348C39.9393 135.934 39.6045 135.6 39.1914 135.6Z" fill="#FF8E25"/>
<path id="Vector_120" d="M34.3471 135.816C34.3471 135.816 34.2567 143.462 31.4204 146.82H36.6713V135.816H34.3471Z" fill="#FF8E25"/>
<path id="Vector_121" d="M38.835 135.816C38.835 135.816 39.0609 143.462 41.8972 146.82H36.5107V135.816H38.835Z" fill="#FF8E25"/>
<path id="Vector_122" d="M41.5608 125.062C40.4614 124.018 39.4976 125.138 39.101 125.564C38.7044 125.991 37.8962 125.881 37.4595 125.143C37.098 124.53 36.6814 124.52 36.5107 124.54C36.34 124.56 35.9234 124.54 35.5619 125.143C35.1252 125.881 34.317 125.976 33.9204 125.564C33.5238 125.153 32.56 124.058 31.4556 125.062C31.4556 125.062 33.7397 127.944 34.0911 130.926C34.4425 133.908 34.4073 135.308 34.0911 136.136H38.9303C38.6141 135.308 38.5789 133.908 38.9303 130.926C39.2817 127.944 41.5608 125.062 41.5608 125.062Z" fill="#FF8E25"/>
<path id="Vector_123" d="M41.9871 146.82C41.9871 146.89 39.5976 146.951 36.6458 146.951C33.6941 146.951 31.3096 146.89 31.3096 146.82C31.3096 146.75 33.6991 146.689 36.6458 146.689C39.5926 146.689 41.9871 146.745 41.9871 146.82Z" fill="#263238"/>
<path id="Vector_124" d="M39.0857 137.177C38.2119 137.306 37.3275 137.35 36.4452 137.308C35.5629 137.35 34.6785 137.306 33.8047 137.177C34.6785 137.048 35.5629 137.005 36.4452 137.047C37.3275 137.005 38.2119 137.048 39.0857 137.177Z" fill="#263238"/>
<path id="Vector_125" d="M39.6128 135.896C38.6299 136.03 37.6373 136.079 36.646 136.042C35.6552 136.084 34.6625 136.041 33.6792 135.912C34.6625 135.782 35.6552 135.739 36.646 135.781C37.6364 135.734 38.6291 135.773 39.6128 135.896Z" fill="#263238"/>
<path id="Vector_126" d="M40.7878 124.677C40.6526 124.664 40.5164 124.664 40.3812 124.677C40.0109 124.761 39.6664 124.933 39.3772 125.179C39.1602 125.349 38.9202 125.488 38.6643 125.59C38.5061 125.657 38.3335 125.682 38.163 125.662C37.9925 125.643 37.8298 125.58 37.6905 125.48C37.4379 125.251 37.2014 125.004 36.9826 124.742C36.876 124.629 36.7328 124.558 36.5784 124.54C36.424 124.523 36.2685 124.56 36.1393 124.647C35.8537 124.848 35.5955 125.086 35.3712 125.355C35.2497 125.501 35.0958 125.618 34.9217 125.696C34.7475 125.773 34.5577 125.809 34.3672 125.801C34.0453 125.737 33.7499 125.578 33.5188 125.345C33.3326 125.169 33.1168 125.028 32.8813 124.928C32.5321 124.805 32.1512 124.805 31.802 124.928C31.551 125.008 31.4305 125.104 31.4155 125.083C31.4004 125.063 31.5058 124.948 31.7669 124.832C32.1371 124.666 32.5562 124.645 32.9415 124.772C33.2016 124.871 33.4427 125.014 33.6544 125.194C33.8585 125.391 34.1143 125.527 34.3923 125.585C34.5431 125.583 34.6913 125.546 34.826 125.478C34.9608 125.411 35.0785 125.313 35.1704 125.194C35.4078 124.906 35.683 124.651 35.9887 124.436C36.1709 124.325 36.3843 124.278 36.5961 124.3C36.8003 124.332 36.9888 124.429 37.1332 124.576C37.4093 124.837 37.575 125.134 37.8109 125.304C37.9189 125.385 38.0458 125.436 38.1794 125.454C38.313 125.472 38.4488 125.455 38.574 125.405C38.8147 125.316 39.0426 125.197 39.2517 125.048C39.5615 124.798 39.9355 124.64 40.331 124.592C40.6623 124.556 40.7978 124.672 40.7878 124.677Z" fill="#263238"/>
</g>
</g>
</svg>
