<svg width="13" height="12" viewBox="0 0 13 12" fill="none" xmlns="http://www.w3.org/2000/svg">
<g id="radar">
<path id="Vector" d="M10.37 9.165C11.075 8.3 11.5 7.2 11.5 6C11.5 3.24 9.26 1 6.5 1C3.74 1 1.5 3.24 1.5 6C1.5 8.76 3.74 11 6.5 11C7.7 11 8.8 10.575 9.665 9.87C9.8 9.76 9.93 9.64 10.055 9.515C10.07 9.5 10.08 9.485 10.09 9.475C10.19 9.375 10.285 9.27 10.37 9.165ZM6.5 10C4.295 10 2.5 8.205 2.5 6C2.5 3.795 4.295 2 6.5 2C8.705 2 10.5 3.795 10.5 6C10.5 6.925 10.185 7.77 9.655 8.45L8.94 7.735C9.285 7.245 9.49 6.65 9.49 6.005C9.49 4.35 8.145 3.005 6.49 3.005C4.835 3.005 3.49 4.35 3.49 6.005C3.49 7.66 4.835 9.005 6.49 9.005C7.14 9.005 7.745 8.795 8.235 8.44L8.945 9.15C8.27 9.685 7.425 10 6.5 10ZM7.46 6.255C7.545 5.925 7.47 5.565 7.215 5.305L7.205 5.295C6.82 4.91 6.205 4.905 5.815 5.275C5.81 5.28 5.8 5.285 5.79 5.295C5.4 5.685 5.4 6.32 5.79 6.71L5.8 6.72C6.06 6.975 6.425 7.055 6.755 6.965L7.51 7.72C7.21 7.9 6.865 8.01 6.49 8.01C5.385 8.01 4.49 7.115 4.49 6.01C4.49 4.905 5.385 4.01 6.49 4.01C7.595 4.01 8.49 4.905 8.49 6.01C8.49 6.375 8.385 6.715 8.21 7.01L7.46 6.255Z" fill="#407BFF"/>
</g>
</svg>
