<svg width="13" height="12" viewBox="0 0 13 12" fill="none" xmlns="http://www.w3.org/2000/svg">
<g id="Group 40969">
<path id="Ellipse 6000" d="M6.5 12C9.81371 12 12.5 9.31371 12.5 6C12.5 2.68629 9.81371 0 6.5 0C3.18629 0 0.5 2.68629 0.5 6C0.5 9.31371 3.18629 12 6.5 12Z" fill="black"/>
<path id="logo" d="M7.17553 5.44969L9.61203 2.61719H9.03453L6.91903 5.07669L5.23003 2.61719H3.28003L5.83553 6.33619L3.28003 9.30669H3.85753L6.09203 6.70919L7.87653 9.30619H9.82653L7.17653 5.44919L7.17553 5.44969ZM6.38453 6.36719L6.12553 5.99669L4.06553 3.05169H4.95253L6.61503 5.43019L6.87403 5.80069L9.03503 8.89169H8.14803L6.38453 6.36719Z" fill="white"/>
</g>
</svg>
