<svg width="95" height="84" viewBox="0 0 95 84" fill="none" xmlns="http://www.w3.org/2000/svg">
<g clip-path="url(#clip0_1256_62082)">
<path d="M91.3281 60.7571C89.79 57.2584 86.8358 54.3386 83.2873 52.902C79.5914 51.4054 75.3473 51.9498 71.4543 51.4488C68.073 51.0135 65.6338 49.5042 63.6145 46.8205C61.6801 44.2491 59.9454 41.4015 56.7831 40.2118C54.2838 39.2717 51.4425 39.5328 48.9586 40.5118C44.382 42.3166 40.9248 46.1536 38.0133 49.9764C35.3552 53.4668 33.1871 57.2884 28.2704 57.4129C23.3504 57.5373 18.6666 54.7311 13.7134 55.4746C7.16667 56.4575 1.71379 61.9078 0.571398 68.3958C-0.49952 74.4767 2.18735 80.3751 6.80352 83.8399H86.1471C91.9638 77.669 95.0157 69.1451 91.3281 60.7571Z" fill="#F7F0E3"/>
<path d="M19.602 83.8403H19.8203C21.336 82.174 22.5238 80.1527 23.2781 77.9088C24.4997 74.2767 24.4486 70.4647 23.1332 67.1754C22.4689 65.5128 21.509 63.9639 20.5804 62.4654C19.639 60.9458 18.6658 59.3745 18.0052 57.6909C17.7321 56.9946 17.5304 56.2473 17.4091 55.4846C17.3542 55.4776 17.2994 55.4719 17.2451 55.4648C17.367 56.2549 17.5744 57.0291 17.8572 57.749C18.5228 59.446 19.5006 61.0237 20.4457 62.549C21.3705 64.0411 22.3265 65.5849 22.9858 67.2341C24.2871 70.4883 24.3376 74.2614 23.1275 77.8577C22.3636 80.1298 21.151 82.1701 19.6027 83.8403H19.602Z" fill="white"/>
<path d="M85.7629 76.9207C87.398 77.2692 88.9731 77.5813 90.4965 77.7778C90.5227 77.7274 90.5482 77.677 90.5738 77.6266C89.0376 77.4313 87.4472 77.1166 85.7961 76.7644C83.2816 76.2289 80.5602 75.6488 77.8606 75.6488C76.1891 75.6488 74.5266 75.8709 72.9272 76.4637C72.3216 76.6884 71.7376 76.973 71.1811 77.3126C69.7368 76.6973 68.2849 76.0253 66.847 75.2875C67.8905 74.5013 68.9454 73.7316 70.0113 72.9874C77.9238 67.4624 85.2262 64.3301 92.281 63.4411C92.2669 63.3894 92.2523 63.3377 92.2376 63.286C85.1636 64.182 77.8459 67.3227 69.9206 72.8566C68.8318 73.6167 67.7552 74.4036 66.69 75.2065C65.0728 74.3711 63.4747 73.4527 61.9277 72.4392C59.1221 70.6011 55.7855 67.9775 52.8715 64.4909C64.1646 63.2241 75.662 61.6279 85.0513 55.3524C85.4081 55.1143 85.8031 54.8329 86.2122 54.5144C86.1669 54.4825 86.121 54.4506 86.0756 54.4187C85.6838 54.7225 85.3053 54.9905 84.9633 55.2196C75.5765 61.4932 64.0574 63.0773 52.7502 64.3441C50.6907 61.8532 48.8507 58.9276 47.5724 55.5407C45.5806 50.2646 45.6859 45.0874 47.8609 41.3354C47.9553 41.1726 48.0549 41.0118 48.1577 40.8535C48.067 40.895 47.977 40.9384 47.887 40.9818C47.8309 41.0724 47.776 41.1637 47.723 41.2556C45.5238 45.0491 45.4146 50.2761 47.4231 55.5968C48.695 58.9653 50.5184 61.8794 52.5607 64.3652C51.9059 64.4386 51.2511 64.5107 50.5988 64.5828C48.2444 64.8426 45.809 65.1113 43.4451 65.4157C42.5822 65.5267 41.7047 65.6563 40.831 65.819C38.9591 61.8679 36.9028 58.0137 34.2447 54.7078C34.2064 54.7454 34.1681 54.7825 34.1298 54.8201C36.765 58.1005 38.8085 61.9266 40.6695 65.8497C36.8607 66.576 33.1623 67.9417 31.1876 71.12C29.3432 74.0883 29.3451 78.1914 31.1927 83.3149C31.2566 83.4924 31.3223 83.6666 31.3893 83.8402H31.5603C31.487 83.6506 31.4142 83.4585 31.3434 83.2607C29.513 78.185 29.5066 74.1285 31.3236 71.2036C33.2746 68.063 36.9532 66.7157 40.741 65.9984C41.4022 67.3961 42.0404 68.8059 42.6748 70.2067L42.7437 70.3593C44.9475 75.2237 47.2265 79.9177 50.2101 83.8408H50.4093C47.3982 79.9107 45.1064 75.1886 42.8886 70.2935L42.8197 70.141C42.1904 68.7523 41.5573 67.3546 40.9025 65.9684C41.7589 65.8101 42.6199 65.6831 43.4662 65.5746C45.8288 65.2702 48.263 65.0015 50.6173 64.7417C51.3047 64.6658 51.9939 64.5898 52.6832 64.5126C55.6254 68.0534 59.0047 70.7135 61.8422 72.5726C63.372 73.5752 64.9522 74.4847 66.5509 75.3131C63.8366 77.3662 61.1969 79.5259 58.6192 81.6345C57.7263 82.3646 56.8239 83.1024 55.9138 83.8402H56.1666C57.0249 83.1439 57.877 82.4476 58.72 81.7583C61.3156 79.635 63.9744 77.4594 66.7079 75.3947C68.1381 76.1306 69.5817 76.8014 71.0184 77.416C69.0533 78.6656 67.4514 80.6013 66.4832 82.9512C66.362 83.2454 66.256 83.5428 66.1584 83.8408H66.3262C66.4188 83.5632 66.5177 83.2862 66.6307 83.0118C67.6014 80.6555 69.2167 78.7217 71.197 77.4919C75.2127 79.1978 79.1587 80.4641 82.5502 81.4673L82.6778 81.505C84.1068 81.9275 85.5683 82.3608 86.8613 83.0558C86.8977 83.0143 86.934 82.9735 86.9698 82.932C85.6557 82.2191 84.1731 81.78 82.7231 81.3518L82.5955 81.3141C79.2391 80.3211 75.3378 79.0702 71.3655 77.3898C71.8831 77.0815 72.425 76.8218 72.9853 76.6137C77.1247 75.0795 81.7154 76.0578 85.7655 76.9207H85.7629Z" fill="white"/>
<path d="M7.20334 66.5863C7.90793 69.471 7.59393 72.5861 6.34048 75.1332C5.51974 76.8015 4.33459 78.3121 2.875 79.6089C2.90372 79.6543 2.93372 79.6989 2.96307 79.7436C4.44627 78.4295 5.65058 76.8972 6.48344 75.2034C7.75284 72.6231 8.07131 69.4684 7.35779 66.548C6.80063 64.2664 5.67994 62.3339 4.131 60.9355C4.09653 60.9764 4.06207 61.0172 4.02825 61.0581C5.55102 62.4347 6.65321 64.3385 7.20271 66.5863H7.20334Z" fill="white"/>
<path d="M43.3152 30.0437C44.7053 31.4637 45.3282 33.857 44.5617 36.0626C43.8194 38.1987 42.1926 39.9678 40.2384 41.1058C38.6659 42.021 36.6147 42.5258 35.0683 41.5672C33.9125 40.8511 33.3132 39.4458 33.28 38.087C33.2468 36.7276 33.7038 35.4034 34.2686 34.1665C35.0651 32.4236 36.1366 30.7329 37.7335 29.6729C39.934 28.2114 41.9788 28.6785 43.3152 30.0437Z" fill="#F7F0E3"/>
<path d="M24.8903 5.14142H13.3809V0H24.8903V5.14142ZM13.6202 4.9021H24.651V0.239329H13.6202V4.9021Z" fill="#E9DDCA"/>
<path d="M17.403 10.0594H5.89355V4.91797H17.403V10.0594ZM6.13288 9.82006H17.1637V5.1573H6.13288V9.82006Z" fill="#E9DDCA"/>
<path d="M90.3769 15.5377C89.6315 13.0595 88.3206 10.7843 86.4443 8.70435C84.5641 6.62442 81.9998 4.907 78.7513 3.54889C75.5028 2.19077 71.3755 1.51172 66.3693 1.51172C62.3754 1.51172 58.3056 2.05037 54.1591 3.12767C50.0088 4.2088 46.4087 5.74625 43.3555 7.74448L47.3302 18.6566L45.1999 20.3823L48.2895 21.2905C51.3388 19.6943 54.1176 18.5353 56.6245 17.8135C59.1276 17.0955 61.7876 16.7362 64.6079 16.7362C67.4281 16.7362 69.5572 17.4153 71.0053 18.7734C72.4534 20.1353 73.1759 21.7704 73.1759 23.6908C73.1759 26.0088 72.4304 28.0657 70.9479 29.8649C69.4576 31.664 67.8143 33.4822 66.0139 35.3203C64.7642 36.5967 63.5491 37.9152 62.3754 39.2734C61.2024 40.6353 60.1627 42.0911 59.2648 43.6521C58.363 45.2094 57.6405 46.8872 57.0942 48.6863C56.5441 50.4854 56.2728 52.5028 56.2728 54.7391C56.2728 55.4609 56.2882 56.3193 56.3303 57.3188C56.3373 57.5032 56.3469 57.6825 56.3577 57.86H53.4373L56.6245 60.0152H72.1215C72.0411 59.5353 72.0028 58.9768 72.0028 58.3373V56.8975C72.0028 55.5394 72.2779 54.2011 72.8242 52.8819C73.3705 51.5627 74.0585 50.3061 74.8805 49.1044C75.7019 47.9064 76.6196 46.7666 77.6395 45.6899C78.6562 44.6088 79.6346 43.5902 80.5746 42.6303C81.8243 41.3539 83.116 39.9965 84.446 38.556C85.7761 37.1162 86.9529 35.6017 87.9696 34.0017C88.9863 32.4017 89.8268 30.6652 90.4918 28.7844C91.1568 26.9074 91.4931 24.8504 91.4931 22.6103C91.4931 20.3702 91.1185 18.0171 90.3769 15.5389V15.5377Z" fill="#E49B31"/>
<path d="M61.3271 15.974C58.54 15.974 55.9112 16.3211 53.4375 17.0162C50.96 17.715 48.2144 18.8363 45.2001 20.3814L40.3242 7.27196C43.3417 5.33818 46.8997 3.84988 51.0015 2.80385C55.0994 1.76165 59.1214 1.24023 63.0681 1.24023C68.0155 1.24023 72.095 1.89759 75.3052 3.21167C78.5154 4.52574 81.0497 6.18764 82.9082 8.20056C84.7628 10.2135 86.0577 12.4153 86.7942 14.8137C87.5269 17.2121 87.8971 19.4931 87.8971 21.6572C87.8971 23.8214 87.5646 25.8158 86.9078 27.6322C86.2505 29.4523 85.4195 31.1334 84.415 32.6817C83.4105 34.23 82.247 35.6953 80.9329 37.0892C79.6188 38.483 78.3418 39.7971 77.1068 41.032C76.1776 41.9613 75.2107 42.9467 74.2062 43.9933C73.1978 45.0355 72.2915 46.1383 71.4791 47.298C70.6673 48.4614 69.987 49.6772 69.447 50.9536C68.9071 52.2301 68.6352 53.5256 68.6352 54.8397V56.2336C68.6352 56.8533 68.6729 57.3932 68.752 57.8578H53.4369C53.278 57.0837 53.1842 56.2151 53.1459 55.2482C53.1044 54.2813 53.0891 53.4503 53.0891 52.7515C53.0891 50.5873 53.3571 48.635 53.9009 46.8934C54.4408 45.1523 55.155 43.5281 56.0459 42.0212C56.9336 40.5106 57.9605 39.1021 59.1202 37.7835C60.2798 36.4695 61.4809 35.1924 62.7158 33.9575C64.4945 32.1788 66.1188 30.4186 67.5918 28.6775C69.0571 26.9365 69.7936 24.9459 69.7936 22.7026C69.7936 20.8441 69.0801 19.262 67.6486 17.9441C66.2171 16.63 64.1097 15.9727 61.3264 15.9727L61.3271 15.974Z" fill="#FBC343"/>
<path d="M73.1819 75.056C73.1819 77.8501 72.2776 80.0059 70.4682 81.5268C68.6596 83.0508 66.6147 83.8097 64.3318 83.8097C62.049 83.8097 60.0016 83.0508 58.1929 81.5268C56.3868 80.0059 55.4824 77.8501 55.4824 75.056C55.4824 72.2619 56.3868 70.1092 58.1929 68.5852C60.9774 66.2353 65.0971 65.7119 68.357 67.3611C71.25 68.8245 73.1819 71.7966 73.1819 75.056Z" fill="#E49B31"/>
<path d="M70.1507 75.0564C70.1507 77.8505 69.2463 80.0064 67.437 81.5272C65.6283 83.0513 63.5835 83.8101 61.3006 83.8101C59.0177 83.8101 56.9703 83.0513 55.1617 81.5272C53.3555 80.0064 52.4512 77.8505 52.4512 75.0564C52.4512 72.2623 53.3555 70.1097 55.1617 68.5856C56.9703 67.0648 59.0152 66.3027 61.3006 66.3027C63.586 66.3027 65.6277 67.0648 67.437 68.5856C69.2457 70.1097 70.1507 72.2655 70.1507 75.0564Z" fill="#FBC343"/>
<path d="M24.2738 35.4514C24.4437 34.5454 23.847 33.6733 22.941 33.5035C22.0351 33.3336 21.163 33.9303 20.9931 34.8362C20.8233 35.7422 21.4199 36.6143 22.3259 36.7841C23.2318 36.954 24.1039 36.3573 24.2738 35.4514Z" fill="#D3DFFF"/>
<path d="M25.069 38.5796C25.1645 38.07 24.8259 37.5789 24.3128 37.4828C23.7997 37.3867 23.3064 37.7219 23.2109 38.2315C23.1155 38.7412 23.454 39.2322 23.9671 39.3283C24.4802 39.4244 24.9735 39.0892 25.069 38.5796Z" fill="#D3DFFF"/>
<path d="M23.1609 31.3847C25.727 28.8185 25.7271 24.658 23.1609 22.0919C20.5948 19.5257 16.4342 19.5257 13.8681 22.0919C11.3019 24.658 11.3019 28.8186 13.8681 31.3847C16.4342 33.9508 20.5948 33.9508 23.1609 31.3847Z" fill="#D3DFFF"/>
<path d="M15.9908 27.5657C16.448 27.5657 16.8186 27.1951 16.8186 26.7379C16.8186 26.2808 16.448 25.9102 15.9908 25.9102C15.5337 25.9102 15.1631 26.2808 15.1631 26.7379C15.1631 27.1951 15.5337 27.5657 15.9908 27.5657Z" fill="white"/>
<path d="M18.5133 27.5657C18.9705 27.5657 19.3411 27.1951 19.3411 26.7379C19.3411 26.2808 18.9705 25.9102 18.5133 25.9102C18.0561 25.9102 17.6855 26.2808 17.6855 26.7379C17.6855 27.1951 18.0561 27.5657 18.5133 27.5657Z" fill="white"/>
<path d="M21.0367 27.5657C21.4939 27.5657 21.8645 27.1951 21.8645 26.7379C21.8645 26.2808 21.4939 25.9102 21.0367 25.9102C20.5796 25.9102 20.209 26.2808 20.209 26.7379C20.209 27.1951 20.5796 27.5657 21.0367 27.5657Z" fill="white"/>
<path d="M13.8066 80.5222L14.4206 82.8893C14.5808 83.5064 15.1775 83.9238 15.838 83.8785C17.851 83.7419 22.0338 83.2486 24.4347 81.4788L23.7525 78.0676C20.4517 77.8812 17.3653 78.0651 14.6918 78.9643C14.0223 79.1896 13.6356 79.8603 13.8072 80.5215L13.8066 80.5222Z" fill="#102048"/>
<path d="M17.6542 82.4058C17.6191 82.4058 17.5872 82.3829 17.5776 82.3478L16.7531 79.3961C16.7409 79.3539 16.7658 79.3099 16.8086 79.2978C16.8514 79.2863 16.8954 79.3105 16.9069 79.3533L17.7314 82.305C17.7436 82.3478 17.7187 82.3912 17.6759 82.4033C17.6689 82.4052 17.6612 82.4065 17.6542 82.4065V82.4058Z" fill="white"/>
<path d="M19.4355 82.0076C19.4004 82.0076 19.3685 81.9847 19.3589 81.9496L18.5343 78.9978C18.5222 78.9557 18.5471 78.9117 18.5898 78.8996C18.6326 78.8874 18.6766 78.9123 18.6881 78.9551L19.5127 81.9068C19.5248 81.9496 19.4999 81.993 19.4572 82.0051C19.4502 82.007 19.4425 82.0083 19.4355 82.0083V82.0076Z" fill="white"/>
<path d="M21.5043 67.7265L13.833 70.003L19.5303 77.8096L27.7096 78.4599L38.9906 73.6893L34.7038 67.2383L21.5043 67.7265Z" fill="#FBC343"/>
<path d="M30.9617 68.8108C47.8092 63.8238 50.5165 78.7132 24.2305 81.4237C23.3019 80.379 22.2169 78.5664 21.7861 77.0507L35.6672 70.636L30.9617 68.8108Z" fill="#FBC343"/>
<path d="M31.6782 79.481C30.89 79.2289 30.135 78.7305 30.135 78.7305L27.4277 79.5799L28.0481 82.5253L30.8607 83.0965C31.7178 81.529 31.7676 80.2424 31.6782 79.481Z" fill="#F9B384"/>
<path d="M21.8465 77.1549L21.7266 76.9481C24.6228 75.2652 32.04 71.2221 38.3602 70.0293L38.4049 70.2648C32.1217 71.4506 24.7325 75.4783 21.8472 77.1549H21.8465Z" fill="#E49B31"/>
<path d="M21.5045 67.7265C5.82301 64.7448 1.76144 79.8155 28.0481 82.5259C28.9767 81.4812 29.7042 80.2469 30.135 78.7311C26.097 76.0296 21.5823 73.4614 16.6349 71.0152L21.5051 67.7265H21.5045Z" fill="#FBC343"/>
<path d="M30.0707 78.8312C29.3246 78.3564 28.5473 77.8547 27.7246 77.3231C23.5935 74.656 18.9116 71.6328 14.9336 69.909L15.0287 69.6895C19.0245 71.4209 23.7154 74.4499 27.8542 77.1221C28.6768 77.653 29.4535 78.1547 30.199 78.6295L30.0707 78.8312Z" fill="#E49B31"/>
<path d="M9.99937 75.1989L9.79004 75.0834C10.3785 74.0175 11.3217 73.2989 12.5924 72.9473L12.6562 73.1777C11.4328 73.5165 10.5636 74.1777 9.99937 75.1989Z" fill="#E49B31"/>
<path d="M42.7291 74.2907C42.165 73.2695 41.2957 72.6083 40.0723 72.2695L40.1361 72.0391C41.4068 72.3907 42.35 73.11 42.9385 74.1752L42.7291 74.2907Z" fill="#E49B31"/>
<path d="M26.5792 82.3939L26.4043 82.2305C27.659 80.8871 28.4293 79.469 28.7599 77.8945L28.9942 77.9437C28.6546 79.5615 27.8645 81.0173 26.5798 82.3939H26.5792Z" fill="#E49B31"/>
<path d="M39.4985 78.6041C37.4894 77.3628 33.5944 79.5078 32.6167 79.6163C32.3314 79.6482 32.0021 79.5857 31.6779 79.4817C31.7672 80.2431 31.7175 81.5297 30.8604 83.0971L31.3384 83.1941C31.3384 83.1941 34.6411 84.4048 38.1449 83.7002C41.3787 83.0499 41.0781 79.5806 39.4985 78.6048V78.6041Z" fill="#102048"/>
<path d="M36.7604 82.664C36.7527 82.664 36.7445 82.6627 36.7362 82.6601C36.694 82.6467 36.6711 82.6021 36.6838 82.56C36.9225 81.8043 37.0265 80.3173 36.3354 79.3185C36.3105 79.2821 36.3194 79.2323 36.3558 79.2074C36.3922 79.1825 36.4419 79.1915 36.4668 79.2279C37.1906 80.2739 37.0846 81.8222 36.8364 82.6078C36.8255 82.6416 36.7942 82.6633 36.7604 82.6633V82.664Z" fill="white"/>
<path d="M35.1842 82.9628C35.1766 82.9628 35.1683 82.9615 35.16 82.959C35.1179 82.9456 35.0949 82.9009 35.1076 82.8588C35.3463 82.1031 35.4504 80.6161 34.7592 79.6173C34.7343 79.5809 34.7432 79.5312 34.7796 79.5063C34.816 79.4814 34.8658 79.4903 34.8907 79.5267C35.6144 80.5727 35.5084 82.121 35.2602 82.9066C35.2493 82.9405 35.2181 82.9622 35.1842 82.9622V82.9628Z" fill="white"/>
<path d="M18.7308 48.2952C18.7308 48.2952 22.68 44.937 22.5339 44.2988C22.4292 43.8424 21.3104 44.5113 21.3104 44.5113C21.3104 44.5113 22.8792 42.6496 22.7994 42.4237C22.6571 42.0197 21.5715 42.7728 21.5715 42.7728C21.5715 42.7728 22.3048 41.7172 21.9544 41.5449C21.604 41.3726 20.8394 42.0235 20.8394 42.0235C20.8394 42.0235 21.2862 41.4377 21.0762 41.2839C20.8662 41.1301 19.9613 41.7625 19.9613 41.7625C19.9613 41.7625 20.2861 41.0235 19.5962 41.3036C18.9063 41.5838 14.0674 46.0245 14.0674 46.0245L18.7308 48.2952Z" fill="#F9B384"/>
<path d="M20.3472 44.3099C20.328 44.3099 20.3089 44.3029 20.2936 44.2889C19.6158 43.6698 19.3165 43.5192 18.5691 43.2888C18.527 43.276 18.5034 43.2314 18.5162 43.1892C18.5289 43.1471 18.5736 43.1235 18.6157 43.1363C19.3905 43.3743 19.7 43.5301 20.4014 44.1708C20.434 44.2008 20.4365 44.2512 20.4065 44.2838C20.3906 44.301 20.3695 44.3099 20.3478 44.3099H20.3472Z" fill="#E28B6D"/>
<path d="M19.1575 46.1322C19.1536 46.1322 19.1498 46.1322 19.1466 46.1316C19.1032 46.1252 19.0726 46.085 19.079 46.0416C19.1568 45.4863 19.3317 45.1392 19.6131 44.9809C19.8544 44.8456 20.1678 44.859 20.5456 45.0224C20.5858 45.0396 20.6049 45.0868 20.5871 45.127C20.5698 45.1672 20.5226 45.1864 20.4824 45.1685C20.1531 45.0262 19.8869 45.0096 19.6916 45.12C19.4593 45.2508 19.3062 45.568 19.2372 46.0639C19.2315 46.1035 19.1977 46.1329 19.1581 46.1329L19.1575 46.1322Z" fill="#E28B6D"/>
<path d="M18.9713 42.7751C18.9503 42.7751 18.9292 42.7668 18.9133 42.7502C18.8833 42.7183 18.8845 42.6679 18.9164 42.6372L19.9076 41.7035C19.9395 41.6729 19.9899 41.6748 20.0205 41.7067C20.0505 41.7386 20.0493 41.7891 20.0174 41.8197L19.0262 42.7534C19.0109 42.7681 18.9911 42.7751 18.9713 42.7751Z" fill="#E28B6D"/>
<path d="M19.8886 43.0932C19.8688 43.0932 19.8491 43.0856 19.8331 43.0709C19.8012 43.0403 19.8006 42.9898 19.8305 42.9579L20.7828 41.9662C20.8134 41.9342 20.8638 41.933 20.8957 41.9636C20.9276 41.9942 20.9283 42.0447 20.8983 42.0766L19.9461 43.0683C19.9301 43.0849 19.9097 43.0926 19.8886 43.0926V43.0932Z" fill="#E28B6D"/>
<path d="M20.8255 43.6522C20.8057 43.6522 20.7866 43.6452 20.7713 43.6305C20.7394 43.6005 20.7374 43.5501 20.7674 43.5175L21.5141 42.7166C21.5441 42.6847 21.5946 42.6828 21.6271 42.7128C21.659 42.7428 21.6609 42.7932 21.6309 42.8257L20.8842 43.6267C20.8683 43.6433 20.8472 43.6522 20.8255 43.6522Z" fill="#E28B6D"/>
<path d="M33.6493 70.7579L19.2098 71.3163L17.6143 58.1532C17.6143 58.1532 22.4481 53.5683 24.3078 51.8796L27.4478 51.7188C37.1888 56.1467 35.5939 61.6768 33.6493 70.7579Z" fill="#3A6BEA"/>
<path d="M27.4473 51.7188C27.4473 51.7188 38.5917 52.6716 42.105 60.3071C45.5431 67.7787 31.415 70.4387 31.415 70.4387L27.4473 51.7188Z" fill="#3A6BEA"/>
<path d="M14.7084 53.3544L19.3137 47.7503L15.0071 45.1406C13.2105 46.3896 9.73674 49.2188 6.79268 52.4226C6.14298 53.1297 5.63496 53.9556 5.37968 54.865C5.16141 55.6411 5.12184 56.4076 5.24438 57.1581C5.56412 59.1149 7.10285 60.6243 9.15725 60.8649C10.9117 61.0704 17.6135 60.5458 23.0383 58.9502L24.6339 52.7921C23.8138 52.3269 17.7208 52.2458 14.7084 53.3544Z" fill="#3A6BEA"/>
<g opacity="0.8">
<path d="M36.7484 54.7475C36.7726 54.7417 36.7963 54.7366 36.8205 54.7309C36.7701 54.7009 36.7197 54.6722 36.6693 54.6428C35.8523 54.8311 35.0099 55.0232 34.179 55.1234C33.6799 55.1834 32.0116 55.2938 31.5246 54.1826C31.2821 53.63 31.4659 53.0147 31.7397 52.5833C31.6995 52.5718 31.6599 52.5603 31.6204 52.5488C31.3396 53.0058 31.1589 53.6472 31.4149 54.2305C31.935 55.4176 33.6735 55.3053 34.1936 55.2421C35.0482 55.1393 35.913 54.9402 36.7484 54.7475Z" fill="white"/>
<path d="M41.9492 63.3589C41.4169 63.1534 40.8668 62.9402 40.2885 62.9951C39.2744 63.0908 38.4065 64.0941 38.3535 65.2307C38.3177 66.0062 38.6139 66.8186 39.178 67.5328C39.2119 67.5117 39.2457 67.49 39.2795 67.4689C38.7275 66.7746 38.4377 65.9864 38.4728 65.2365C38.5226 64.1566 39.3421 63.2044 40.2994 63.1144C40.8489 63.0634 41.3626 63.2612 41.9058 63.4705C42.0998 63.5452 42.297 63.6212 42.4974 63.685C42.5076 63.6467 42.5178 63.6078 42.5267 63.5688C42.3314 63.5063 42.1387 63.4323 41.9485 63.3589H41.9492Z" fill="white"/>
<path d="M13.8209 59.5537C13.1252 58.9781 12.0441 58.8243 10.8551 59.1319C9.79568 59.4057 8.88687 59.9488 8.2627 60.6668C8.30354 60.6802 8.34375 60.6948 8.38523 60.707C8.99281 60.0254 9.86779 59.5103 10.8851 59.2474C12.0358 58.9493 13.0786 59.0949 13.7443 59.6456C14.0608 59.9073 14.2849 60.2475 14.4476 60.6138C14.4884 60.6093 14.5299 60.6042 14.5714 60.5998C14.401 60.2053 14.1636 59.8371 13.8209 59.5531V59.5537Z" fill="white"/>
<path d="M7.53027 51.6397C8.83414 51.3155 10.1061 50.8604 11.2798 50.1846C11.7233 49.9293 12.2237 49.6038 12.576 49.1258C12.9506 48.6171 13.075 48.0114 12.9091 47.506C12.844 47.3075 12.7285 47.1333 12.5843 46.9941C12.5536 47.019 12.523 47.0446 12.4924 47.0694C12.627 47.1977 12.7349 47.3592 12.7955 47.5436C12.9493 48.0127 12.8319 48.5775 12.4802 49.0549C12.1413 49.5151 11.6531 49.8323 11.2204 50.0812C10.1137 50.7187 8.91647 51.1597 7.68663 51.4782C7.6343 51.5318 7.58261 51.5861 7.53091 51.6397H7.53027Z" fill="white"/>
</g>
<path d="M28.4681 48.7922L28.4662 48.9964L28.4337 52.1702L28.4298 52.5142C28.4241 53.0522 28.2033 53.5398 27.8472 53.894C27.493 54.2457 27.0054 54.4665 26.4654 54.4703C25.3773 54.4761 24.487 53.6023 24.4768 52.5123L24.4385 48.5898L28.4681 48.7922Z" fill="#F9B384"/>
<path d="M28.4662 48.9961L28.4337 52.1699C26.6696 51.4519 25.9434 49.5424 25.9434 49.5424L28.4656 48.9961H28.4662Z" fill="#102048"/>
<path d="M29.1634 43.4579C29.7952 44.2168 31.6416 48.5151 29.7703 49.9817C27.6649 51.6321 24.4604 48.9198 24.4604 48.9198L24.0303 43.913L26.8116 43.1797L29.1634 43.4579Z" fill="#F9B384"/>
<path d="M22.6135 43.1816C22.6135 43.1816 16.4439 46.3995 21.4743 55.6746C22.1202 56.8662 23.5517 57.3857 24.7758 56.8049C26.0892 56.1814 26.5864 54.5769 25.8729 53.31C25.0502 51.8485 24.2556 49.9658 24.5952 48.5656L22.6135 43.1823V43.1816Z" fill="#102048"/>
<path d="M24.3763 45.8852C25.028 45.2334 25.028 44.1767 24.3763 43.525C23.7245 42.8732 22.6678 42.8732 22.016 43.525C21.3643 44.1767 21.3643 45.2334 22.016 45.8852C22.6678 46.5369 23.7245 46.5369 24.3763 45.8852Z" fill="#FBC343"/>
<path d="M25.2497 46.7105C25.0691 45.6696 24.9593 44.9554 26.0117 44.4187C26.0117 44.4187 29.7204 45.0933 30.4282 43.6937C31.1359 42.2947 30.0573 40.0865 27.7987 41.6201C22.0165 40.4905 21.2411 45.9019 22.9943 47.7055L24.7245 47.44C25.0729 47.3864 25.3097 47.0571 25.2497 46.7099V46.7105Z" fill="#102048"/>
<path d="M28.1213 46.9614C28.2574 46.9614 28.3677 46.8512 28.3677 46.7151C28.3677 46.579 28.2574 46.4688 28.1213 46.4688C27.9853 46.4688 27.875 46.579 27.875 46.7151C27.875 46.8512 27.9853 46.9614 28.1213 46.9614Z" fill="#102048"/>
<path d="M29.7903 46.1392C29.9264 46.1392 30.0366 46.0289 30.0366 45.8928C30.0366 45.7568 29.9264 45.6465 29.7903 45.6465C29.6542 45.6465 29.5439 45.7568 29.5439 45.8928C29.5439 46.0289 29.6542 46.1392 29.7903 46.1392Z" fill="#102048"/>
<path d="M29.6191 47.4728C29.6018 47.4728 29.5846 47.4664 29.5712 47.4536C29.5431 47.4268 29.5419 47.3828 29.5687 47.3547C29.6676 47.2507 29.7761 47.1045 29.7301 46.9979C29.6829 46.8875 29.4831 46.8403 29.3912 46.8403C29.1947 46.8403 29.1002 46.4906 29.083 46.4204C29.074 46.3827 29.097 46.3451 29.1347 46.3361C29.1723 46.3265 29.21 46.3502 29.2189 46.3878C29.2547 46.5359 29.3364 46.7012 29.3912 46.7012C29.4857 46.7012 29.7735 46.7458 29.8584 46.9437C29.919 47.0847 29.8559 47.2558 29.6695 47.4517C29.6561 47.4664 29.6376 47.4734 29.6191 47.4734V47.4728Z" fill="#102048"/>
<path d="M29.6316 48.4081C29.6182 48.4081 29.6048 48.4042 29.5927 48.3959C29.1287 48.0826 28.6596 48.3455 28.6551 48.3481C28.622 48.3672 28.5792 48.3557 28.56 48.3226C28.5409 48.2894 28.5524 48.2466 28.5856 48.2275C28.6079 48.2147 29.1351 47.9192 29.6712 48.2804C29.7031 48.3021 29.7114 48.3455 29.6897 48.3774C29.6763 48.3972 29.6539 48.4081 29.6316 48.4081Z" fill="#102048"/>
<path d="M28.0131 45.6452C28.1535 45.9095 27.9091 45.9624 27.6225 46.1143C27.336 46.2662 27.043 46.3224 26.976 46.196C26.909 46.0703 27.0871 45.845 27.3736 45.6925C27.6602 45.5399 27.9046 45.4404 28.0131 45.6446V45.6452Z" fill="#102048"/>
<path d="M29.0575 45.1701C29.1194 45.4056 29.2949 45.3029 29.5502 45.2359C29.8055 45.1688 30.0123 45.0406 29.9829 44.9282C29.9536 44.8159 29.7225 44.7789 29.4666 44.8459C29.2107 44.9129 29.009 44.9882 29.0569 45.1708L29.0575 45.1701Z" fill="#102048"/>
<path opacity="0.4" d="M27.4771 48.3941C27.7722 48.1219 27.7907 47.662 27.5185 47.3669C27.2463 47.0718 26.7864 47.0533 26.4913 47.3255C26.1962 47.5977 26.1777 48.0576 26.4499 48.3527C26.7221 48.6478 27.182 48.6663 27.4771 48.3941Z" fill="#EB5D60"/>
<path d="M25.1074 48.5524C25.4397 48.1218 25.3125 47.4667 24.8234 47.0892C24.3342 46.7117 23.6683 46.7547 23.336 47.1853C23.0037 47.6158 23.1309 48.2709 23.6201 48.6484C24.1092 49.0259 24.7751 48.9829 25.1074 48.5524Z" fill="#F9B384"/>
<path d="M24.6544 48.2305C24.6161 48.2305 24.5848 48.1992 24.5848 48.161C24.5848 47.9548 24.4846 47.7646 24.3161 47.651C24.1725 47.554 24.0008 47.5317 23.8572 47.5898C23.8215 47.6038 23.7807 47.5872 23.766 47.5515C23.7513 47.5157 23.7685 47.4749 23.8043 47.4602C23.9906 47.3843 24.2108 47.4117 24.3933 47.5349C24.6001 47.674 24.7239 47.9076 24.7239 48.1603C24.7239 48.1986 24.6927 48.2299 24.6544 48.2299V48.2305Z" fill="#102048"/>
<path d="M14.6496 53.2987L12.1309 56.0234L12.248 56.1317L14.7668 53.407L14.6496 53.2987Z" fill="#102048"/>
<path d="M32.3952 65.0098L32.3486 64.8573C34.1822 64.2982 35.9622 63.63 37.5749 61.6133L37.6994 61.7128C36.0579 63.7653 34.2537 64.4437 32.3952 65.0105V65.0098Z" fill="#102048"/>
<path d="M33.5107 58.832H17.9115C17.3506 58.832 16.8955 59.3241 16.8955 59.931V71.0684C16.8955 71.6754 17.3506 72.1674 17.9115 72.1674H33.5107C34.0717 72.1674 34.5267 71.6754 34.5267 71.0684V59.931C34.5267 59.3241 34.0717 58.832 33.5107 58.832Z" fill="#D3DFFF"/>
<path d="M26.5355 64.7957C26.5948 64.7957 26.6427 64.8474 26.6427 64.9118V66.0874C26.6427 66.1512 26.5948 66.2036 26.5355 66.2036H24.8882C24.8289 66.2036 24.781 66.1519 24.781 66.0874V64.9118C24.781 64.848 24.8289 64.7957 24.8882 64.7957H26.5355ZM26.5355 64.4766H24.8882C24.6534 64.4766 24.4619 64.6719 24.4619 64.9118V66.0874C24.4619 66.3274 24.6534 66.5227 24.8882 66.5227H26.5355C26.7703 66.5227 26.9618 66.3274 26.9618 66.0874V64.9118C26.9618 64.6719 26.7703 64.4766 26.5355 64.4766Z" fill="#1F3C88"/>
<path d="M94.0518 83.6816H0V84.0007H94.0518V83.6816Z" fill="#102048"/>
</g>
<defs>
<clipPath id="clip0_1256_62082">
<rect width="94.0518" height="84" fill="white"/>
</clipPath>
</defs>
</svg>
