<svg width="103" height="84" viewBox="0 0 103 84" fill="none" xmlns="http://www.w3.org/2000/svg">
<g clip-path="url(#clip0_1256_61388)">
<path d="M2.66946 84.0006C2.66946 84.0006 -2.65338 77.3284 1.73076 72.0242C6.11224 66.7201 10.3257 68.7868 12.8591 63.576C15.3925 58.3651 4.86153 50.4422 5.80023 44.4954C6.73892 38.5485 20.27 34.0844 22.5314 28.5429C24.7928 23.0013 15.3712 12.913 24.8302 5.33145C34.2891 -2.25012 46.5349 7.52352 53.8364 3.55806C65.8768 -2.98081 79.9119 -0.135388 84.1574 9.16891C89.5175 20.9106 78.0212 30.8469 80.1199 38.4898C82.2187 46.1327 96.4111 49.0182 99.6112 56.2024C102.811 63.3866 98.0725 65.2747 98.4992 69.4988C99.0565 75.011 104.761 78.3284 102.395 84.006H2.66946V84.0006Z" fill="url(#paint0_linear_1256_61388)"/>
<path d="M48.9544 70.2344H55.9359C56.7173 70.2344 57.3493 70.8691 57.3493 71.6478V82.5868C57.3493 83.3681 56.7146 84.0001 55.9359 84.0001H48.9544C48.173 84.0001 47.541 83.3655 47.541 82.5868V71.6478C47.541 70.8664 48.1757 70.2344 48.9544 70.2344Z" fill="url(#paint1_linear_1256_61388)"/>
<path d="M76.0988 33.7566C76.0988 20.4815 65.1812 9.75848 51.8341 10.0732C39.1297 10.3745 28.828 20.8388 28.7187 33.5459C28.652 41.3222 32.3321 48.237 38.063 52.6052C41.1244 54.9359 42.9058 58.5734 42.9058 62.4215V68.7737H61.9091V62.4215C61.9091 58.5627 63.7118 54.9306 66.7759 52.5892C72.4401 48.261 76.0962 41.4395 76.0962 33.7592L76.0988 33.7566Z" fill="url(#paint2_radial_1256_61388)"/>
<path d="M42.1514 67.4355H62.744V80.436C62.744 81.6227 61.7813 82.5854 60.5946 82.5854H44.3008C43.1141 82.5854 42.1514 81.6227 42.1514 80.436V67.4355Z" fill="url(#paint3_linear_1256_61388)"/>
<path d="M8.06198 83.8617C8.00864 83.8617 7.95797 83.8297 7.93664 83.7737C7.80597 83.4217 7.7073 83.0697 7.64063 82.7283C7.6273 82.6563 7.67263 82.587 7.74463 82.571C7.81664 82.5577 7.88597 82.603 7.90197 82.6777C7.96597 83.0057 8.06198 83.3444 8.18731 83.6804C8.21398 83.7497 8.17665 83.827 8.10998 83.851C8.09398 83.8564 8.07798 83.859 8.06464 83.859L8.06198 83.8617ZM7.69663 81.2456C7.69663 81.2456 7.68597 81.2456 7.68063 81.2456C7.60863 81.2376 7.55529 81.1709 7.56329 81.0989C7.6033 80.7336 7.68597 80.3763 7.80597 80.0322C7.82997 79.9629 7.90731 79.9256 7.97664 79.9496C8.04598 79.9736 8.08331 80.0509 8.05931 80.1202C7.94731 80.4456 7.86997 80.7843 7.82997 81.1283C7.82197 81.1976 7.7633 81.2483 7.69663 81.2483V81.2456ZM8.69933 78.8109C8.67 78.8109 8.64066 78.8002 8.61666 78.7815C8.55799 78.7362 8.54999 78.6509 8.59533 78.5949C8.70466 78.4562 8.822 78.3229 8.942 78.1975C9.07268 78.0642 9.20601 77.9335 9.34468 77.8082C9.39802 77.7575 9.48336 77.7602 9.53402 77.8162C9.58469 77.8695 9.57936 77.9548 9.52602 78.0055C9.39269 78.1282 9.26202 78.2562 9.13401 78.3869C9.01934 78.5042 8.90734 78.6322 8.806 78.7629C8.77933 78.7949 8.73933 78.8135 8.702 78.8135L8.69933 78.8109ZM10.6514 77.0028C10.6141 77.0028 10.5741 76.9868 10.5474 76.9548C10.4994 76.8988 10.5074 76.8135 10.5661 76.7681C10.8274 76.5521 11.1047 76.3175 11.3687 76.0748C11.4221 76.0241 11.5074 76.0294 11.5581 76.0828C11.6088 76.1361 11.6034 76.2215 11.5501 76.2721C11.2807 76.5175 11.0007 76.7548 10.7367 76.9735C10.7127 76.9948 10.6807 77.0055 10.6514 77.0055V77.0028ZM12.5395 75.1281C12.5128 75.1281 12.4835 75.1201 12.4595 75.1014C12.4008 75.0588 12.3874 74.9734 12.4328 74.9148C12.6221 74.6614 12.8141 74.3734 13.0168 74.0374C13.0541 73.9734 13.1368 73.9547 13.2008 73.9921C13.2648 74.0294 13.2835 74.1121 13.2461 74.1761C13.0381 74.5201 12.8435 74.8134 12.6488 75.0748C12.6221 75.1094 12.5821 75.1281 12.5421 75.1281H12.5395ZM13.9208 72.8507C13.8995 72.8507 13.8755 72.8453 13.8568 72.8347C13.7928 72.8 13.7688 72.7173 13.8062 72.6533C13.9608 72.376 14.1475 72.048 14.3502 71.728C14.3902 71.6666 14.4728 71.648 14.5342 71.6853C14.5955 71.7253 14.6142 71.808 14.5769 71.8693C14.3768 72.1867 14.1928 72.5093 14.0408 72.784C14.0168 72.8267 13.9715 72.8534 13.9235 72.8534L13.9208 72.8507ZM15.4222 70.6559C15.3902 70.6559 15.3555 70.6453 15.3315 70.6186C15.2782 70.5679 15.2755 70.4826 15.3262 70.4293C15.4435 70.3039 15.5662 70.1839 15.6916 70.0746C15.8356 69.9466 15.9876 69.8266 16.1449 69.7119C16.2036 69.6692 16.2889 69.6826 16.3316 69.7412C16.3742 69.7999 16.3609 69.8853 16.3022 69.9279C16.1529 70.0373 16.0062 70.1519 15.8702 70.2746C15.7529 70.3786 15.6356 70.4933 15.5209 70.6133C15.4942 70.6399 15.4595 70.6559 15.4249 70.6559H15.4222ZM17.6276 69.2026C17.5743 69.2026 17.5236 69.1706 17.5023 69.1172C17.4756 69.0479 17.5103 68.9706 17.5769 68.9439C17.897 68.8186 18.233 68.7092 18.6063 68.6105C18.6783 68.5919 18.7503 68.6346 18.769 68.7066C18.7876 68.7786 18.745 68.8506 18.673 68.8692C18.3103 68.9652 17.9823 69.0692 17.6729 69.1919C17.6569 69.1972 17.6409 69.2026 17.6249 69.2026H17.6276ZM20.209 68.5625C20.145 68.5625 20.0864 68.5145 20.0784 68.4479C20.0677 68.3759 20.1184 68.3065 20.1904 68.2959C20.4997 68.2505 20.8384 68.2052 21.2517 68.1572C21.3264 68.1519 21.3904 68.2025 21.3984 68.2745C21.4064 68.3465 21.3557 68.4132 21.2811 68.4212C20.8704 68.4692 20.5344 68.5119 20.2277 68.5572C20.2197 68.5572 20.2144 68.5572 20.209 68.5572V68.5625ZM22.8598 68.2479C22.7931 68.2479 22.7344 68.1972 22.7264 68.1305C22.7184 68.0585 22.7691 67.9919 22.8438 67.9839C23.2571 67.9359 23.5905 67.8932 23.8971 67.8452C23.9691 67.8345 24.0385 67.8852 24.0492 67.9572C24.0598 68.0292 24.0091 68.0985 23.9371 68.1092C23.6278 68.1572 23.2918 68.1999 22.8731 68.2505C22.8678 68.2505 22.8624 68.2505 22.8571 68.2505L22.8598 68.2479ZM25.4865 67.7919C25.4279 67.7919 25.3745 67.7519 25.3585 67.6932C25.3399 67.6212 25.3825 67.5492 25.4519 67.5305C25.8145 67.4318 26.1399 67.3252 26.4466 67.1998C26.5132 67.1705 26.5932 67.2052 26.6199 67.2718C26.6466 67.3412 26.6146 67.4185 26.5479 67.4452C26.2306 67.5758 25.8945 67.6879 25.5212 67.7865C25.5105 67.7892 25.4972 67.7919 25.4865 67.7919ZM27.8866 66.6745C27.8466 66.6745 27.8066 66.6558 27.7799 66.6212C27.7346 66.5625 27.7479 66.4798 27.8066 66.4345C28.0173 66.2745 28.2146 66.1011 28.3933 65.9118C28.452 65.8505 28.508 65.7891 28.564 65.7278C28.612 65.6718 28.6973 65.6665 28.7533 65.7145C28.8093 65.7625 28.8146 65.8478 28.7666 65.9011C28.708 65.9678 28.6493 66.0318 28.588 66.0958C28.3986 66.2931 28.1906 66.4771 27.9693 66.6452C27.9453 66.6638 27.9159 66.6718 27.8893 66.6718L27.8866 66.6745ZM29.5613 64.6291C29.54 64.6291 29.516 64.6238 29.4973 64.6131C29.4333 64.5784 29.4093 64.4958 29.4467 64.4318C29.612 64.1357 29.7613 63.8424 29.9373 63.4904C29.9693 63.4237 30.052 63.3997 30.116 63.4317C30.1827 63.4637 30.2093 63.5437 30.1747 63.6104C30.0333 63.8904 29.8573 64.2371 29.6787 64.5598C29.6547 64.6024 29.6093 64.6291 29.5613 64.6291ZM30.812 62.2743C30.788 62.2743 30.764 62.269 30.7427 62.2557C30.6787 62.2183 30.66 62.1357 30.6974 62.0717C30.748 61.989 30.7987 61.9063 30.852 61.8237C30.9934 61.605 31.1507 61.389 31.3134 61.181C31.3587 61.125 31.4441 61.1143 31.5001 61.1596C31.5587 61.205 31.5667 61.2903 31.5214 61.3463C31.3614 61.5463 31.212 61.757 31.0734 61.9677C31.0227 62.0477 30.972 62.125 30.924 62.2077C30.9 62.2503 30.8547 62.2717 30.8094 62.2717L30.812 62.2743ZM32.5188 60.2396C32.4814 60.2396 32.4468 60.2236 32.4201 60.1943C32.3721 60.1409 32.3747 60.0556 32.4307 60.0049C32.6894 59.7729 32.9694 59.5436 33.2681 59.3249C33.3268 59.2796 33.4094 59.2929 33.4548 59.3516C33.4974 59.4103 33.4868 59.4956 33.4281 59.5383C33.1374 59.7543 32.8628 59.9783 32.6121 60.2023C32.5854 60.2263 32.5561 60.237 32.5241 60.237L32.5188 60.2396ZM34.6815 58.6902C34.6362 58.6902 34.5908 58.6662 34.5668 58.6236C34.5295 58.5596 34.5508 58.4796 34.6148 58.4422C34.9082 58.2716 35.2255 58.0982 35.5588 57.9302C35.6255 57.8955 35.7055 57.9222 35.7375 57.9889C35.7695 58.0555 35.7455 58.1355 35.6789 58.1675C35.3508 58.3356 35.0388 58.5036 34.7482 58.6742C34.7268 58.6876 34.7055 58.6929 34.6815 58.6929V58.6902ZM37.0656 57.5009C37.0149 57.5009 36.9642 57.4715 36.9429 57.4209C36.9136 57.3542 36.9429 57.2742 37.0122 57.2449C37.3376 57.1009 37.6682 56.9622 37.9963 56.8262C38.0656 56.7968 38.1429 56.8315 38.1696 56.8982C38.1989 56.9675 38.1643 57.0448 38.0976 57.0715C37.7696 57.2075 37.4442 57.3462 37.1189 57.4875C37.1002 57.4955 37.0842 57.4982 37.0656 57.4982V57.5009ZM39.5323 56.4822C39.479 56.4822 39.4283 56.4502 39.4096 56.3995C39.383 56.3302 39.415 56.2528 39.4843 56.2262L40.4737 55.8261C40.5403 55.7995 40.6203 55.8315 40.647 55.8981C40.6737 55.9675 40.6417 56.0448 40.575 56.0715L39.5856 56.4715C39.5696 56.4768 39.5536 56.4822 39.535 56.4822H39.5323ZM41.9964 55.4635C41.9457 55.4635 41.895 55.4341 41.8737 55.3835C41.8444 55.3168 41.8737 55.2368 41.943 55.2075C42.2684 55.0661 42.5937 54.9248 42.9191 54.7808C42.9857 54.7514 43.0658 54.7808 43.0951 54.8474C43.1244 54.9141 43.0951 54.9941 43.0284 55.0235C42.7031 55.1675 42.3777 55.3115 42.0497 55.4528C42.0337 55.4608 42.0151 55.4635 41.9964 55.4635ZM44.4285 54.3701C44.3778 54.3701 44.3298 54.3408 44.3085 54.2928C44.2765 54.2261 44.3085 54.1461 44.3725 54.1141C44.6951 53.9648 45.0151 53.8101 45.3352 53.6554C45.4018 53.6234 45.4818 53.6501 45.5138 53.7167C45.5458 53.7834 45.5192 53.8634 45.4525 53.8954C45.1325 54.0501 44.8098 54.2048 44.4871 54.3541C44.4685 54.3621 44.4498 54.3674 44.4311 54.3674L44.4285 54.3701ZM46.8259 53.2021C46.7779 53.2021 46.7299 53.1754 46.7059 53.1301C46.6739 53.0634 46.6979 52.9834 46.7645 52.9514C47.0819 52.7914 47.3966 52.6287 47.7112 52.4634C47.7752 52.4287 47.8579 52.4554 47.8899 52.5194C47.9246 52.586 47.8979 52.666 47.8339 52.698C47.5192 52.8634 47.2019 53.0261 46.8845 53.1861C46.8659 53.1967 46.8445 53.1994 46.8232 53.1994L46.8259 53.2021ZM49.1859 51.962C49.1379 51.962 49.0926 51.938 49.0686 51.8927C49.0339 51.8287 49.0579 51.746 49.1219 51.7113L49.2846 51.6233C49.5406 51.482 49.7966 51.3407 50.0526 51.1967C50.1166 51.1593 50.1993 51.1833 50.234 51.2473C50.2713 51.3113 50.2473 51.394 50.1833 51.4287C49.9273 51.5727 49.6686 51.7167 49.4126 51.858L49.2499 51.946C49.2286 51.9567 49.2073 51.962 49.1859 51.962ZM51.5007 50.634C51.4553 50.634 51.4127 50.6126 51.386 50.57C51.3487 50.506 51.3673 50.426 51.4313 50.386C51.7327 50.202 52.034 50.0126 52.33 49.8206C52.3914 49.7806 52.474 49.7966 52.5141 49.8606C52.5541 49.922 52.5381 50.0046 52.4741 50.0446C52.1754 50.2393 51.874 50.4286 51.5674 50.6153C51.546 50.6286 51.522 50.634 51.498 50.634H51.5007ZM53.7194 49.1566C53.6794 49.1566 53.6394 49.1379 53.6128 49.1033C53.5701 49.0446 53.5807 48.9593 53.6421 48.9166C53.9354 48.7006 54.2181 48.4846 54.4821 48.2712C54.5381 48.2259 54.6235 48.2339 54.6688 48.2899C54.7141 48.3459 54.7061 48.4312 54.6501 48.4766C54.3834 48.6926 54.0954 48.9139 53.7994 49.1299C53.7754 49.1486 53.7488 49.1566 53.7194 49.1566ZM55.7702 47.4552C55.7355 47.4552 55.7008 47.4419 55.6742 47.4125C55.6235 47.3592 55.6261 47.2739 55.6795 47.2232C55.9382 46.9779 56.1888 46.7245 56.4235 46.4712C56.4742 46.4178 56.5568 46.4152 56.6128 46.4632C56.6662 46.5138 56.6689 46.5965 56.6208 46.6525C56.3808 46.9085 56.1275 47.1645 55.8635 47.4152C55.8368 47.4392 55.8048 47.4525 55.7728 47.4525L55.7702 47.4552ZM76.0161 46.7245C75.9788 46.7245 75.9415 46.7085 75.9148 46.6792C75.6881 46.4152 75.4454 46.1618 75.1868 45.9192C75.1334 45.8685 75.1308 45.7832 75.1814 45.7298C75.2321 45.6765 75.3174 45.6738 75.3708 45.7245C75.6348 45.9725 75.8855 46.2338 76.1175 46.5058C76.1655 46.5618 76.1601 46.6445 76.1041 46.6952C76.0801 46.7165 76.0481 46.7272 76.0161 46.7272V46.7245ZM57.5515 45.4738C57.5249 45.4738 57.4955 45.4658 57.4715 45.4471C57.4129 45.4018 57.3995 45.3191 57.4449 45.2605C57.6555 44.9778 57.8582 44.6871 58.0449 44.3911C58.0849 44.3298 58.1676 44.3111 58.2289 44.3484C58.2902 44.3884 58.3089 44.4711 58.2716 44.5325C58.0822 44.8338 57.8769 45.1325 57.6609 45.4205C57.6342 45.4551 57.5942 45.4738 57.5542 45.4738H57.5515ZM74.0347 44.9538C74.0081 44.9538 73.9814 44.9458 73.9601 44.9298C73.6774 44.7351 73.376 44.5458 73.0667 44.3698C73.0027 44.3324 72.9787 44.2524 73.016 44.1884C73.0534 44.1244 73.1334 44.1031 73.1974 44.1378C73.5147 44.3164 73.8214 44.5085 74.1121 44.7111C74.1734 44.7538 74.1867 44.8365 74.1467 44.8978C74.1201 44.9351 74.0801 44.9565 74.0374 44.9565L74.0347 44.9538ZM71.696 43.6844C71.6773 43.6844 71.6613 43.6818 71.6453 43.6738C71.328 43.5404 70.9973 43.4124 70.656 43.2951C70.5866 43.2711 70.5493 43.1937 70.5733 43.1244C70.5973 43.0551 70.672 43.0177 70.744 43.0417C71.088 43.1617 71.4266 43.2897 71.7493 43.4257C71.816 43.4551 71.848 43.5324 71.8213 43.6018C71.8 43.6524 71.7493 43.6844 71.6987 43.6844H71.696ZM58.9223 43.1911C58.9036 43.1911 58.8849 43.1884 58.8663 43.1777C58.7996 43.1457 58.7702 43.0657 58.8022 42.9991C58.9516 42.6791 59.0876 42.351 59.2076 42.0257C59.2316 41.9564 59.3089 41.9217 59.3783 41.9457C59.4476 41.9697 59.4823 42.047 59.4583 42.1164C59.3383 42.4497 59.1996 42.7857 59.0449 43.1111C59.0236 43.1591 58.9729 43.1884 58.9249 43.1884L58.9223 43.1911ZM69.1652 42.8444C69.1652 42.8444 69.1439 42.8444 69.1332 42.8391C68.7999 42.7537 68.4506 42.6737 68.0985 42.6044C68.0265 42.5911 67.9785 42.5191 67.9945 42.4471C68.0079 42.375 68.0799 42.327 68.1519 42.343C68.5066 42.4151 68.8612 42.4951 69.1999 42.5804C69.2719 42.5991 69.3146 42.6711 69.2959 42.7431C69.2799 42.8044 69.2266 42.8444 69.1679 42.8444H69.1652ZM66.5465 42.343C66.5465 42.343 66.5332 42.343 66.5278 42.343C66.1838 42.295 65.8291 42.255 65.4745 42.2177C65.4025 42.2097 65.3491 42.1457 65.3545 42.071C65.3625 41.999 65.4238 41.9457 65.5011 41.951C65.8585 41.9857 66.2158 42.0284 66.5652 42.0764C66.6372 42.087 66.6905 42.1537 66.6798 42.2257C66.6718 42.2924 66.6132 42.3404 66.5492 42.3404L66.5465 42.343ZM63.8904 42.095C63.8904 42.095 63.8851 42.095 63.8824 42.095C63.5277 42.0737 63.1731 42.0577 62.8184 42.0417C62.7437 42.039 62.6877 41.9777 62.6904 41.903C62.693 41.8284 62.7437 41.767 62.829 41.775C63.1864 41.791 63.5411 41.807 63.8957 41.8284C63.9704 41.8337 64.0264 41.895 64.0211 41.9697C64.0184 42.0417 63.9571 42.095 63.8877 42.095H63.8904ZM61.2263 41.9857C61.2263 41.9857 61.2237 41.9857 61.221 41.9857L60.1543 41.951C60.0796 41.951 60.0236 41.887 60.0263 41.8124C60.029 41.7377 60.093 41.679 60.165 41.6844L61.2317 41.719C61.3063 41.719 61.3623 41.783 61.3597 41.8577C61.3597 41.9297 61.2983 41.9857 61.2263 41.9857ZM58.5622 41.8844C58.5622 41.8844 58.5569 41.8844 58.5542 41.8844C58.1969 41.8657 57.8422 41.8444 57.4875 41.8204C57.4129 41.815 57.3595 41.751 57.3649 41.679C57.3702 41.6044 57.4422 41.551 57.5062 41.5564C57.8609 41.5804 58.2129 41.6017 58.5676 41.6204C58.6422 41.623 58.6982 41.687 58.6929 41.759C58.6902 41.831 58.6316 41.8844 58.5596 41.8844H58.5622ZM55.9062 41.6764C55.9062 41.6764 55.8955 41.6764 55.8902 41.6764C55.5248 41.6337 55.1675 41.5857 54.8288 41.535C54.7568 41.5244 54.7061 41.455 54.7168 41.383C54.7275 41.311 54.7968 41.2603 54.8688 41.271C55.2048 41.3217 55.5595 41.3697 55.9222 41.4097C55.9942 41.4177 56.0475 41.4844 56.0395 41.5564C56.0315 41.6257 55.9728 41.6737 55.9062 41.6737V41.6764ZM53.2767 41.239C53.2767 41.239 53.2581 41.239 53.2474 41.2363C52.8927 41.1563 52.5407 41.0657 52.2074 40.9697C52.1354 40.9483 52.0954 40.8763 52.1167 40.8043C52.138 40.7323 52.21 40.6923 52.282 40.7137C52.6127 40.807 52.9567 40.8977 53.3087 40.9777C53.3807 40.9937 53.4261 41.0657 53.4101 41.1377C53.3967 41.199 53.3407 41.2417 53.2794 41.2417L53.2767 41.239ZM59.7676 40.6683C59.7676 40.6683 59.7489 40.6683 59.7409 40.6657C59.6689 40.6497 59.6236 40.5803 59.6369 40.5083C59.7089 40.1616 59.7623 39.8123 59.7969 39.4683C59.8049 39.3963 59.8716 39.343 59.9436 39.3483C60.0183 39.3563 60.0716 39.4203 60.0636 39.495C60.029 39.847 59.973 40.207 59.8983 40.5617C59.885 40.6257 59.8289 40.6683 59.7676 40.6683ZM50.73 40.4577C50.714 40.4577 50.6953 40.455 50.6793 40.447C50.33 40.303 50.002 40.1483 49.7033 39.9856C49.6393 39.951 49.6153 39.8683 49.65 39.8043C49.6846 39.7403 49.7673 39.7163 49.8313 39.751C50.122 39.911 50.442 40.0603 50.7807 40.2016C50.85 40.2283 50.882 40.3083 50.8527 40.375C50.8313 40.4257 50.7807 40.4577 50.73 40.4577ZM48.4553 39.0869C48.4233 39.0869 48.3913 39.0763 48.3673 39.0523C48.2499 38.9456 48.1352 38.8363 48.0286 38.7216C47.8872 38.5723 47.7539 38.4123 47.6312 38.2443C47.5886 38.1856 47.6019 38.1002 47.6606 38.0576C47.7192 38.0149 47.8046 38.0256 47.8472 38.0869C47.9619 38.2443 48.0899 38.3963 48.2232 38.5376C48.3246 38.6469 48.4339 38.7509 48.5459 38.8523C48.6019 38.9003 48.6046 38.9856 48.5566 39.0416C48.5299 39.0709 48.4926 39.0869 48.4579 39.0869H48.4553ZM59.9516 38.0176C59.8823 38.0176 59.8236 37.9642 59.8183 37.8949C59.7916 37.5429 59.7436 37.1936 59.6716 36.8575C59.6556 36.7855 59.7036 36.7135 59.7756 36.7002C59.8476 36.6869 59.9196 36.7322 59.933 36.8042C60.005 37.1535 60.0556 37.5136 60.085 37.8762C60.0903 37.9509 60.0343 38.0149 59.9623 38.0202C59.9596 38.0202 59.9543 38.0202 59.9516 38.0202V38.0176ZM47.0285 36.8762C46.9699 36.8762 46.9165 36.8389 46.9005 36.7802C46.7939 36.4149 46.7405 36.0495 46.7379 35.6922C46.7379 35.6175 46.7965 35.5588 46.8712 35.5588C46.9432 35.5588 47.0045 35.6175 47.0045 35.6922C47.0045 36.0255 47.0579 36.3669 47.1565 36.7055C47.1779 36.7775 47.1379 36.8495 47.0659 36.8709C47.0525 36.8735 47.0419 36.8762 47.0285 36.8762ZM59.3223 35.4388C59.2716 35.4388 59.2209 35.4095 59.1996 35.3588C59.0583 35.0335 58.8903 34.7241 58.7062 34.4388C58.6662 34.3775 58.6849 34.2948 58.7462 34.2548C58.8076 34.2148 58.8903 34.2335 58.9303 34.2948C59.1223 34.5908 59.2956 34.9135 59.4423 35.2522C59.4716 35.3188 59.4423 35.3988 59.3729 35.4282C59.3543 35.4362 59.3383 35.4388 59.3196 35.4388H59.3223ZM47.2392 34.2868C47.2179 34.2868 47.1965 34.2815 47.1779 34.2708C47.1112 34.2361 47.0872 34.1561 47.1219 34.0921C47.2872 33.7721 47.5059 33.4734 47.7726 33.2014C47.8232 33.1481 47.9086 33.1481 47.9619 33.2014C48.0152 33.2521 48.0152 33.3374 47.9619 33.3908C47.7139 33.6441 47.5112 33.9214 47.3592 34.2148C47.3352 34.2601 47.2899 34.2868 47.2419 34.2868H47.2392ZM57.7729 33.2974C57.7435 33.2974 57.7116 33.2868 57.6875 33.2654C57.4289 33.0468 57.1409 32.8467 56.8342 32.6734C56.7702 32.6361 56.7462 32.5561 56.7835 32.4921C56.8209 32.4281 56.9009 32.4041 56.9649 32.4414C57.2875 32.6227 57.5889 32.8334 57.8609 33.0628C57.9169 33.1108 57.9249 33.1934 57.8769 33.2494C57.8502 33.2814 57.8129 33.2974 57.7755 33.2974H57.7729ZM49.1646 32.5081C49.1166 32.5081 49.0686 32.4814 49.0446 32.4334C49.0126 32.3667 49.0393 32.2867 49.1059 32.2547C49.418 32.1001 49.7566 31.9641 50.1166 31.852C50.186 31.8307 50.2606 31.868 50.2846 31.94C50.306 32.0094 50.2686 32.0841 50.1966 32.1081C49.8526 32.2147 49.5246 32.3454 49.2259 32.4947C49.2073 32.5054 49.1859 32.5081 49.1673 32.5081H49.1646ZM55.4235 32.0841C55.4235 32.0841 55.3995 32.0841 55.3861 32.0787C55.0608 31.9854 54.7168 31.9107 54.3594 31.8574C54.2874 31.8467 54.2368 31.7774 54.2474 31.7054C54.2581 31.6334 54.3274 31.5827 54.3994 31.5934C54.7675 31.6494 55.1221 31.7267 55.4581 31.8227C55.5301 31.844 55.5701 31.916 55.5488 31.9881C55.5328 32.0467 55.4795 32.0841 55.4208 32.0841H55.4235ZM51.722 31.7907C51.6554 31.7907 51.5967 31.74 51.5887 31.6707C51.5807 31.5987 51.634 31.532 51.706 31.524C51.9807 31.4947 52.258 31.476 52.5327 31.4707C52.5994 31.4707 52.6687 31.4707 52.7381 31.4707H52.7861C52.8607 31.4707 52.9194 31.5294 52.9194 31.604C52.9194 31.6787 52.8607 31.7374 52.7861 31.7374H52.7381C52.6714 31.7374 52.6047 31.7374 52.538 31.7374C52.2714 31.7427 52.002 31.7587 51.7354 31.788C51.73 31.788 51.7247 31.788 51.7194 31.788L51.722 31.7907Z" fill="#50448C"/>
<path d="M88.7946 54.5745C88.6079 54.5745 88.4186 54.5692 88.2319 54.5612C88.1573 54.5585 88.1013 54.4945 88.1039 54.4225C88.1066 54.3478 88.1679 54.2945 88.2426 54.2945C88.4319 54.3025 88.6186 54.3078 88.8106 54.3078C88.9733 54.3078 89.136 54.3051 89.2986 54.2998H89.304C89.376 54.2998 89.4346 54.3558 89.4373 54.4278C89.4373 54.5025 89.3813 54.5638 89.3093 54.5665C89.1386 54.5718 88.976 54.5771 88.7946 54.5745ZM90.896 54.4038C90.832 54.4038 90.776 54.3585 90.7653 54.2918C90.752 54.2198 90.8027 54.1505 90.8747 54.1371C91.2214 54.0785 91.568 54.0065 91.9067 53.9185C91.9787 53.8998 92.0507 53.9425 92.0694 54.0145C92.088 54.0865 92.0454 54.1585 91.9734 54.1771C91.6294 54.2651 91.2747 54.3425 90.9173 54.4011C90.9093 54.4011 90.9013 54.4011 90.896 54.4011V54.4038ZM86.6479 54.3985C86.6479 54.3985 86.6345 54.3985 86.6265 54.3985C86.2772 54.3425 85.9225 54.2705 85.5705 54.1878C85.4985 54.1718 85.4558 54.0998 85.4718 54.0278C85.4878 53.9558 85.5598 53.9105 85.6318 53.9291C85.9759 54.0118 86.3252 54.0811 86.6692 54.1371C86.7412 54.1478 86.7919 54.2171 86.7785 54.2891C86.7679 54.3558 86.7119 54.4011 86.6479 54.4011V54.3985ZM84.0691 53.7318C84.0531 53.7318 84.0398 53.7318 84.0238 53.7238C83.6904 53.6038 83.3544 53.4704 83.0238 53.3264C82.9571 53.2971 82.9251 53.2171 82.9571 53.1504C82.9864 53.0838 83.0664 53.0518 83.1331 53.0838C83.4558 53.2278 83.7865 53.3584 84.1145 53.4758C84.1838 53.4998 84.2211 53.5771 84.1945 53.6465C84.1758 53.7025 84.1225 53.7345 84.0691 53.7345V53.7318ZM93.4561 53.6758C93.4028 53.6758 93.3548 53.6438 93.3334 53.5931C93.3041 53.5264 93.3388 53.4464 93.4054 53.4198C93.7388 53.2838 94.0588 53.1318 94.3575 52.9718C94.4215 52.9371 94.5041 52.9611 94.5388 53.0251C94.5735 53.0891 94.5495 53.1718 94.4855 53.2064C94.1788 53.3718 93.8481 53.5264 93.5094 53.6678C93.4934 53.6758 93.4748 53.6785 93.4588 53.6785L93.4561 53.6758ZM81.6504 52.6144C81.629 52.6144 81.605 52.6091 81.5837 52.5958C81.2744 52.4171 80.965 52.2251 80.6717 52.0277C80.6104 51.9877 80.5943 51.9024 80.6344 51.8437C80.677 51.7824 80.7597 51.7664 80.8184 51.8064C81.109 52.0011 81.4104 52.1904 81.7144 52.3664C81.7784 52.4037 81.7997 52.4838 81.7624 52.5478C81.7384 52.5904 81.6931 52.6144 81.6477 52.6144H81.6504ZM95.7495 52.3397C95.7122 52.3397 95.6722 52.3237 95.6455 52.2917C95.6002 52.2357 95.6082 52.1504 95.6642 52.1051C95.9415 51.8784 96.1948 51.6357 96.4162 51.3824C96.4642 51.3264 96.5495 51.321 96.6055 51.3717C96.6615 51.4197 96.6669 51.5051 96.6162 51.5611C96.3842 51.8251 96.1202 52.0784 95.8322 52.3131C95.8082 52.3344 95.7762 52.3424 95.7468 52.3424L95.7495 52.3397ZM79.469 51.0864C79.4396 51.0864 79.4076 51.0757 79.3836 51.0544C79.109 50.8224 78.8423 50.577 78.589 50.329C78.5356 50.2783 78.5356 50.193 78.589 50.1397C78.6396 50.0863 78.725 50.0863 78.7783 50.1397C79.0263 50.3824 79.2876 50.6224 79.5597 50.8517C79.6157 50.8997 79.6237 50.9824 79.5757 51.041C79.549 51.073 79.5116 51.089 79.4743 51.089L79.469 51.0864ZM97.4029 50.273C97.3842 50.273 97.3629 50.2677 97.3442 50.2597C97.2775 50.2277 97.2509 50.1477 97.2829 50.081C97.4295 49.7823 97.5602 49.465 97.6776 49.1103C97.7016 49.041 97.7762 49.001 97.8456 49.0276C97.9149 49.0516 97.9522 49.1263 97.9282 49.1956C97.8056 49.561 97.6722 49.889 97.5202 50.1983C97.4962 50.2463 97.4509 50.273 97.4002 50.273H97.4029ZM77.6076 49.1823C77.5676 49.1823 77.5303 49.1663 77.5036 49.1316C77.2769 48.8516 77.0609 48.561 76.8636 48.2676C76.8209 48.2063 76.8369 48.1236 76.8982 48.0836C76.9596 48.0436 77.0422 48.0569 77.0822 48.1183C77.2796 48.4063 77.4903 48.6916 77.7116 48.9663C77.7569 49.0223 77.7489 49.1076 77.6903 49.153C77.6663 49.1716 77.6369 49.1823 77.6076 49.1823ZM98.2082 47.7396C98.2082 47.7396 98.1896 47.7396 98.1816 47.7396C98.1096 47.7236 98.0642 47.6543 98.0776 47.5823C98.1442 47.2596 98.2029 46.9369 98.2562 46.6142L98.2696 46.5396C98.2802 46.4676 98.3523 46.4169 98.4216 46.4302C98.4936 46.4409 98.5443 46.5102 98.5309 46.5822L98.5176 46.6596C98.4616 46.9849 98.4029 47.3103 98.3362 47.6356C98.3229 47.6996 98.2669 47.7423 98.2056 47.7423L98.2082 47.7396ZM21.4965 47.3236C21.4725 47.3236 21.4511 47.3183 21.4298 47.3049C21.1365 47.1316 20.8778 46.9102 20.6618 46.6436C20.6164 46.5876 20.6244 46.5022 20.6831 46.4569C20.7391 46.4116 20.8245 46.4196 20.8698 46.4782C21.0645 46.7209 21.2991 46.9209 21.5631 47.0782C21.6271 47.1156 21.6485 47.1982 21.6111 47.2596C21.5871 47.3023 21.5418 47.3263 21.4965 47.3263V47.3236ZM20.1124 45.2489C20.0511 45.2489 19.9951 45.2062 19.9818 45.1422C19.9151 44.8168 19.8804 44.4675 19.8804 44.1075V44.0541C19.8804 43.9821 19.9418 43.9208 20.0138 43.9208C20.0884 43.9208 20.1471 43.9821 20.1471 44.0541V44.1048C20.1471 44.4488 20.1791 44.7768 20.2431 45.0862C20.2591 45.1582 20.2111 45.2302 20.1391 45.2435C20.1311 45.2435 20.1204 45.2462 20.1124 45.2462V45.2489ZM98.6483 45.1075C98.6483 45.1075 98.6349 45.1075 98.6296 45.1075C98.5576 45.0968 98.5069 45.0302 98.5149 44.9582C98.5629 44.6088 98.6083 44.2568 98.6483 43.9021C98.6563 43.8301 98.7229 43.7768 98.7949 43.7848C98.8669 43.7928 98.9203 43.8595 98.9123 43.9315C98.8723 44.2862 98.8269 44.6408 98.7763 44.9928C98.7683 45.0595 98.7096 45.1075 98.6456 45.1075H98.6483ZM20.2404 42.6088C20.2404 42.6088 20.2164 42.6088 20.2058 42.6034C20.1338 42.5848 20.0938 42.5101 20.1124 42.4381C20.1524 42.2941 20.1978 42.1501 20.2458 42.0114C20.3151 41.8194 20.3898 41.6247 20.4778 41.4167C20.5071 41.3501 20.5844 41.3181 20.6538 41.3447C20.7204 41.3741 20.7524 41.4514 20.7258 41.5207C20.6404 41.7234 20.5658 41.9127 20.4991 42.0994C20.4511 42.2328 20.4084 42.3688 20.3711 42.5074C20.3551 42.5661 20.3018 42.6061 20.2431 42.6061L20.2404 42.6088ZM98.9363 42.4568C98.9363 42.4568 98.9283 42.4568 98.9256 42.4568C98.8509 42.4514 98.7976 42.3874 98.8029 42.3128C98.8296 41.9607 98.8536 41.6061 98.8696 41.2514C98.8723 41.1794 98.9389 41.1207 99.0083 41.1234C99.0829 41.1261 99.1389 41.1901 99.1363 41.2621C99.1203 41.6194 99.0963 41.9741 99.0696 42.3314C99.0643 42.4008 99.0056 42.4541 98.9363 42.4541V42.4568ZM21.2831 40.15C21.2645 40.15 21.2458 40.1447 21.2271 40.1367C21.1605 40.1047 21.1311 40.03 21.1631 39.9634C21.3258 39.638 21.4805 39.3233 21.6298 39.006C21.6618 38.9393 21.7391 38.91 21.8058 38.942C21.8725 38.974 21.9018 39.0513 21.8698 39.118C21.7205 39.4353 21.5658 39.7527 21.4085 40.0674C21.3845 40.1154 21.3338 40.1474 21.2831 40.1474V40.15ZM99.0429 39.7927C98.9683 39.7927 98.9096 39.734 98.9096 39.6593C98.9096 39.3047 98.9043 38.9473 98.8909 38.598C98.8909 38.5233 98.9469 38.462 99.0189 38.4593C99.0883 38.454 99.1549 38.5153 99.1576 38.5873C99.1709 38.9393 99.1763 39.2993 99.1763 39.6593C99.1763 39.734 99.1176 39.7927 99.0429 39.7927ZM22.3365 37.7126C22.3365 37.7126 22.3098 37.7126 22.2965 37.7073C22.2272 37.6859 22.1872 37.6113 22.2085 37.5419C22.2885 37.2753 22.3498 37.0246 22.3952 36.7713C22.4112 36.6886 22.4218 36.6059 22.4352 36.5232C22.4458 36.4512 22.5125 36.4006 22.5845 36.4086C22.6565 36.4192 22.7072 36.4859 22.6992 36.5579C22.6885 36.6432 22.6725 36.7312 22.6592 36.8166C22.6112 37.0806 22.5498 37.3419 22.4645 37.6166C22.4458 37.6753 22.3952 37.7099 22.3365 37.7099V37.7126ZM98.9176 37.1313C98.8509 37.1313 98.7923 37.0806 98.7843 37.0113C98.7496 36.6566 98.7069 36.3019 98.6589 35.9579C98.6483 35.8859 98.6989 35.8166 98.7709 35.8059C98.8429 35.7952 98.9123 35.8459 98.9229 35.9179C98.9736 36.2672 99.0163 36.6246 99.0509 36.9846C99.0589 37.0566 99.0056 37.1233 98.9309 37.1313C98.9256 37.1313 98.9229 37.1313 98.9176 37.1313ZM22.5872 35.0779C22.5205 35.0779 22.4618 35.0272 22.4538 34.9579C22.4192 34.6218 22.3578 34.2752 22.2725 33.9258C22.2538 33.8538 22.2992 33.7818 22.3712 33.7658C22.4432 33.7472 22.5152 33.7925 22.5312 33.8645C22.6192 34.2245 22.6832 34.5845 22.7178 34.9312C22.7258 35.0032 22.6725 35.0699 22.6005 35.0779C22.5952 35.0779 22.5898 35.0779 22.5872 35.0779ZM98.5096 34.4965C98.4483 34.4965 98.3923 34.4538 98.3789 34.3925C98.3016 34.0432 98.2162 33.6965 98.1229 33.3658C98.1042 33.2938 98.1442 33.2218 98.2162 33.2005C98.2882 33.1791 98.3603 33.2218 98.3816 33.2938C98.4749 33.6325 98.5629 33.9818 98.6403 34.3365C98.6563 34.4085 98.6109 34.4805 98.5389 34.4965C98.5283 34.4965 98.5203 34.4992 98.5096 34.4992V34.4965ZM21.8938 32.5098C21.8431 32.5098 21.7925 32.4804 21.7711 32.4271C21.6405 32.1151 21.4885 31.7924 21.3205 31.4724C21.2858 31.4057 21.3125 31.3257 21.3765 31.2937C21.4431 31.2591 21.5231 31.2857 21.5551 31.3497C21.7258 31.6778 21.8805 32.0058 22.0138 32.3258C22.0432 32.3924 22.0112 32.4724 21.9418 32.4991C21.9258 32.5071 21.9071 32.5098 21.8911 32.5098H21.8938ZM97.7522 31.9418C97.6989 31.9418 97.6482 31.9098 97.6269 31.8564C97.5016 31.5258 97.3629 31.1977 97.2162 30.8831C97.1842 30.8164 97.2162 30.7364 97.2829 30.7071C97.3495 30.6777 97.4296 30.7071 97.4589 30.7711C97.6082 31.0937 97.7469 31.4271 97.8749 31.7631C97.9016 31.8324 97.8669 31.9098 97.7976 31.9364C97.7816 31.9418 97.7656 31.9444 97.7496 31.9444L97.7522 31.9418ZM20.6351 30.163C20.5924 30.163 20.5471 30.1417 20.5231 30.1017C20.3818 29.883 20.2351 29.667 20.0884 29.4537L19.9284 29.2243C19.8858 29.163 19.8991 29.0803 19.9604 29.0377C20.0218 28.995 20.1044 29.0083 20.1471 29.0697L20.3098 29.3017C20.4591 29.5177 20.6058 29.7364 20.7498 29.9577C20.7898 30.019 20.7711 30.1017 20.7098 30.1417C20.6884 30.155 20.6618 30.163 20.6378 30.163H20.6351ZM96.5922 29.5444C96.5469 29.5444 96.5042 29.5204 96.4775 29.4804C96.2962 29.179 96.1015 28.883 95.9015 28.5977C95.8588 28.5363 95.8722 28.4537 95.9335 28.411C95.9922 28.3683 96.0775 28.3817 96.1202 28.443C96.3255 28.7337 96.5229 29.0377 96.7069 29.3443C96.7442 29.4084 96.7255 29.4884 96.6615 29.5284C96.6402 29.5417 96.6162 29.547 96.5922 29.547V29.5444ZM19.0911 27.9896C19.0511 27.9896 19.0111 27.971 18.9844 27.9363L18.9577 27.9016C18.755 27.627 18.5497 27.3523 18.3497 27.0776C18.307 27.0189 18.3204 26.9336 18.379 26.8909C18.4377 26.8483 18.523 26.8616 18.5657 26.9203C18.7657 27.1949 18.9684 27.4696 19.1711 27.7443L19.1977 27.779C19.2404 27.8376 19.2297 27.923 19.1711 27.9656C19.1471 27.9843 19.1204 27.9923 19.0911 27.9923V27.9896ZM95.0108 27.403C94.9735 27.403 94.9388 27.387 94.9121 27.3576C94.6935 27.1123 94.4535 26.8616 94.1815 26.5896C94.1281 26.5389 94.1281 26.4536 94.1815 26.4003C94.2348 26.3469 94.3175 26.3469 94.3708 26.4003C94.6455 26.6749 94.8881 26.9309 95.1121 27.1789C95.1601 27.2349 95.1575 27.3176 95.1015 27.3683C95.0748 27.3923 95.0455 27.403 95.0135 27.403H95.0108ZM17.5443 25.8189C17.5017 25.8189 17.459 25.7976 17.4323 25.7576C17.2217 25.4376 17.0377 25.1389 16.8643 24.8455C16.827 24.7815 16.8483 24.7015 16.9123 24.6642C16.9763 24.6269 17.0563 24.6482 17.0937 24.7122C17.2617 25.0029 17.4457 25.2962 17.6537 25.6109C17.6937 25.6722 17.6777 25.7549 17.6163 25.7949C17.595 25.8109 17.5683 25.8162 17.5443 25.8162V25.8189ZM93.1174 25.5256C93.0854 25.5256 93.0534 25.5149 93.0267 25.4909L92.8801 25.3549C92.6694 25.1576 92.4561 24.9602 92.2481 24.7629C92.1947 24.7122 92.1921 24.6269 92.2427 24.5735C92.2934 24.5202 92.3787 24.5175 92.4321 24.5682C92.6401 24.7655 92.8534 24.9629 93.0641 25.1575L93.2108 25.2962C93.2641 25.3469 93.2668 25.4296 93.2188 25.4856C93.1921 25.5149 93.1574 25.5282 93.1201 25.5282L93.1174 25.5256ZM91.2054 23.6695C91.1707 23.6695 91.1334 23.6562 91.1067 23.6268C90.8427 23.3442 90.6107 23.0802 90.3973 22.8161C90.352 22.7601 90.36 22.6748 90.4187 22.6295C90.4747 22.5841 90.56 22.5921 90.6053 22.6508C90.8133 22.9095 91.04 23.1708 91.3014 23.4455C91.352 23.4988 91.3494 23.5842 91.296 23.6348C91.2694 23.6588 91.2374 23.6722 91.2054 23.6722V23.6695ZM16.2563 23.4882C16.2056 23.4882 16.155 23.4588 16.1336 23.4082C16.0296 23.1655 15.9363 22.9228 15.8536 22.6855C15.819 22.5895 15.7896 22.4935 15.7576 22.3948C15.7363 22.3255 15.7763 22.2508 15.8456 22.2268C15.9176 22.2055 15.9896 22.2455 16.0136 22.3148C16.043 22.4081 16.0723 22.5015 16.1043 22.5948C16.1843 22.8268 16.2776 23.0642 16.379 23.2988C16.4083 23.3655 16.379 23.4455 16.3096 23.4748C16.2936 23.4828 16.275 23.4855 16.2563 23.4855V23.4882ZM89.5946 21.5521C89.5493 21.5521 89.504 21.5281 89.48 21.4854C89.312 21.1948 89.1493 20.8801 88.9839 20.5281C88.9519 20.4614 88.984 20.3814 89.048 20.3521C89.1146 20.3201 89.1946 20.3521 89.224 20.4161C89.3866 20.7601 89.544 21.0668 89.7093 21.3521C89.7466 21.4161 89.7253 21.4961 89.6613 21.5334C89.64 21.5468 89.616 21.5521 89.5946 21.5521ZM15.5523 20.9254C15.4856 20.9254 15.4296 20.8747 15.4189 20.8081C15.3763 20.4534 15.3523 20.0907 15.3496 19.728C15.3496 19.6534 15.4083 19.5947 15.4829 19.5947C15.5549 19.5947 15.6163 19.6534 15.6163 19.728C15.619 20.0801 15.643 20.4321 15.6856 20.7761C15.6936 20.8481 15.643 20.9147 15.5683 20.9254C15.5629 20.9254 15.5576 20.9254 15.5523 20.9254ZM46.3346 19.4294C46.1106 19.4267 45.8759 19.416 45.6439 19.392C45.5719 19.384 45.5186 19.3174 45.5266 19.2454C45.5346 19.1734 45.6012 19.12 45.6732 19.128C45.8972 19.152 46.1213 19.1707 46.3346 19.1654C46.4626 19.1654 46.5879 19.16 46.7159 19.152C46.7906 19.144 46.8519 19.2027 46.8573 19.2747C46.8626 19.3494 46.8066 19.4107 46.7346 19.416C46.6013 19.4267 46.4679 19.4294 46.3346 19.4294ZM88.4799 19.1334C88.4266 19.1334 88.3759 19.1014 88.3573 19.048L88.2293 18.7253C88.1413 18.5013 88.0533 18.28 87.9626 18.0587C87.9359 17.9893 87.9679 17.912 88.0373 17.8853C88.1039 17.8587 88.1839 17.8907 88.2106 17.96C88.3013 18.1813 88.3893 18.4053 88.4773 18.6293L88.6053 18.952C88.6319 19.0214 88.5999 19.0987 88.5306 19.1254C88.5146 19.1307 88.4986 19.136 88.4826 19.136L88.4799 19.1334ZM48.276 19.0507C48.2253 19.0507 48.1747 19.0214 48.1533 18.968C48.124 18.9014 48.156 18.8214 48.2253 18.7947L48.2947 18.7653C48.5827 18.6373 48.86 18.4773 49.124 18.2853C49.1854 18.2427 49.268 18.256 49.3107 18.3147C49.3534 18.3733 49.34 18.4587 49.2814 18.5013C49.004 18.7013 48.708 18.872 48.404 19.008L48.3293 19.04C48.3133 19.048 48.2947 19.0507 48.2787 19.0507H48.276ZM44.1025 19.0347C44.0892 19.0347 44.0732 19.0347 44.0599 19.0267C43.7292 18.912 43.4012 18.776 43.0812 18.616L43.1212 18.4853L43.1825 18.3653C43.5105 18.528 43.8278 18.6613 44.1479 18.7707C44.2172 18.7947 44.2545 18.8694 44.2305 18.9414C44.2119 18.9974 44.1585 19.032 44.1052 19.032L44.1025 19.0347ZM15.5976 18.2667C15.5976 18.2667 15.5843 18.2667 15.5763 18.2667C15.5043 18.256 15.4536 18.1867 15.4643 18.1147C15.5176 17.7626 15.5896 17.4053 15.6803 17.056C15.699 16.984 15.7736 16.9413 15.843 16.96C15.915 16.9786 15.9576 17.0506 15.939 17.1226C15.851 17.464 15.7816 17.8107 15.7283 18.1547C15.7176 18.2213 15.6616 18.2693 15.5976 18.2693V18.2667ZM41.7451 17.808C41.7184 17.808 41.6944 17.8 41.6704 17.784C41.3931 17.5946 41.1104 17.3893 40.8038 17.1493C40.7451 17.104 40.7344 17.0213 40.7798 16.9626C40.8251 16.904 40.9078 16.8933 40.9664 16.9386C41.2704 17.1733 41.5504 17.376 41.8225 17.5626C41.8838 17.6053 41.8998 17.688 41.8571 17.7466C41.8305 17.784 41.7905 17.8053 41.7478 17.8053L41.7451 17.808ZM50.3507 17.4213C50.3214 17.4213 50.2921 17.4106 50.2681 17.392C50.2121 17.3466 50.2014 17.2613 50.2494 17.2053C50.4547 16.9493 50.6601 16.6613 50.8574 16.3493C50.8974 16.2879 50.9801 16.2693 51.0414 16.3066C51.1027 16.3466 51.1214 16.4293 51.0841 16.4906C50.8814 16.8133 50.6707 17.1093 50.4574 17.3733C50.4307 17.4053 50.3934 17.4213 50.3534 17.4213H50.3507ZM87.4399 16.6773C87.3919 16.6773 87.3439 16.6506 87.3199 16.6026C87.2639 16.4906 87.2079 16.3786 87.1466 16.2666C87.0399 16.0693 86.9252 15.8719 86.8079 15.6799C86.7679 15.6186 86.7865 15.5359 86.8505 15.4959C86.9119 15.4586 86.9946 15.4772 87.0346 15.5386C87.1572 15.7333 87.2746 15.9359 87.3812 16.1386C87.4426 16.2506 87.5012 16.3653 87.5572 16.4799C87.5892 16.5466 87.5626 16.6266 87.4959 16.6586C87.4772 16.6693 87.4559 16.6719 87.4372 16.6719L87.4399 16.6773ZM39.6437 16.1679C39.6144 16.1679 39.5824 16.1573 39.5584 16.1359L39.2277 15.8559C39.065 15.7199 38.905 15.5839 38.7424 15.4479C38.6864 15.3999 38.6784 15.3172 38.7264 15.2612C38.7744 15.2052 38.857 15.1972 38.913 15.2452C39.0757 15.3812 39.2357 15.5172 39.3984 15.6559L39.7291 15.9359C39.7851 15.9839 39.7931 16.0666 39.7451 16.1226C39.7184 16.1546 39.6811 16.1706 39.6437 16.1706V16.1679ZM16.323 15.7066C16.3043 15.7066 16.2883 15.7039 16.2723 15.6959C16.2056 15.6666 16.1736 15.5892 16.2003 15.5199C16.3416 15.1892 16.499 14.8612 16.6697 14.5465C16.7043 14.4825 16.7843 14.4585 16.851 14.4932C16.915 14.5279 16.939 14.6105 16.9043 14.6746C16.739 14.9812 16.5843 15.3012 16.4483 15.6239C16.427 15.6746 16.3763 15.7066 16.3256 15.7066H16.323ZM51.7348 15.1492C51.7161 15.1492 51.6948 15.1439 51.6761 15.1359C51.6094 15.1039 51.5828 15.0239 51.6148 14.9572C51.7508 14.6746 51.8921 14.3679 52.0574 13.9919C52.0868 13.9252 52.1668 13.8932 52.2334 13.9225C52.3001 13.9519 52.3321 14.0319 52.3028 14.0985C52.1374 14.4772 51.9934 14.7866 51.8548 15.0719C51.8308 15.1199 51.7854 15.1466 51.7348 15.1466V15.1492ZM37.5876 14.4692C37.5583 14.4692 37.529 14.4585 37.505 14.4399C37.2276 14.2212 36.945 14.0052 36.6623 13.7919C36.6036 13.7465 36.5903 13.6639 36.6356 13.6052C36.681 13.5465 36.7636 13.5332 36.8223 13.5785C37.1076 13.7919 37.3903 14.0105 37.6703 14.2292C37.729 14.2745 37.737 14.3599 37.6917 14.4159C37.665 14.4479 37.625 14.4665 37.5876 14.4665V14.4692ZM85.9759 14.4559C85.9385 14.4559 85.9012 14.4399 85.8745 14.4079C85.6478 14.1439 85.4052 13.8852 85.1518 13.6399C85.0985 13.5892 85.0985 13.5038 85.1492 13.4505C85.1998 13.3972 85.2852 13.3972 85.3385 13.4478C85.5972 13.6985 85.8479 13.9625 86.0772 14.2345C86.1252 14.2905 86.1199 14.3759 86.0639 14.4212C86.0399 14.4425 86.0079 14.4532 85.9759 14.4532V14.4559ZM17.6537 13.4025C17.627 13.4025 17.5977 13.3945 17.5737 13.3758C17.515 13.3305 17.5043 13.2478 17.547 13.1892C17.7657 12.9012 18.0004 12.6238 18.243 12.3625C18.2937 12.3091 18.379 12.3065 18.4324 12.3571C18.4857 12.4078 18.4884 12.4931 18.4377 12.5465C18.2004 12.7998 17.971 13.0718 17.7604 13.3518C17.7337 13.3865 17.6937 13.4052 17.6537 13.4052V13.4025ZM35.4382 12.8905C35.4116 12.8905 35.3876 12.8825 35.3636 12.8665C35.0649 12.6638 34.7662 12.4718 34.4729 12.2905C34.4116 12.2505 34.3902 12.1705 34.4302 12.1065C34.4702 12.0425 34.5502 12.0238 34.6142 12.0638C34.9102 12.2478 35.2116 12.4425 35.5129 12.6452C35.5743 12.6852 35.5903 12.7705 35.5503 12.8292C35.5236 12.8665 35.4836 12.8878 35.4382 12.8878V12.8905ZM52.8175 12.7118C52.7988 12.7118 52.7828 12.7092 52.7641 12.7012C52.6975 12.6718 52.6655 12.5945 52.6948 12.5252L53.1188 11.5465C53.1481 11.4798 53.2255 11.4478 53.2948 11.4771C53.3615 11.5065 53.3935 11.5838 53.3642 11.6531L52.9401 12.6318C52.9188 12.6825 52.8681 12.7118 52.8175 12.7118ZM84.0211 12.6505C83.9945 12.6505 83.9651 12.6425 83.9411 12.6238C83.6611 12.4185 83.3651 12.2211 83.0638 12.0371C82.9998 11.9998 82.9811 11.9171 83.0184 11.8531C83.0558 11.7891 83.1384 11.7705 83.2024 11.8078C83.5091 11.9945 83.8104 12.1971 84.0985 12.4051C84.1571 12.4478 84.1705 12.5332 84.1278 12.5918C84.1011 12.6265 84.0611 12.6452 84.0211 12.6452V12.6505ZM70.3354 11.6265L70.314 11.4931V11.3598C70.642 11.3544 70.97 11.3064 71.3354 11.2131C71.4074 11.1944 71.4794 11.2371 71.4981 11.3091C71.5167 11.3811 71.4741 11.4531 71.4021 11.4718C71.018 11.5705 70.6687 11.6211 70.3354 11.6265ZM33.1555 11.5145C33.1342 11.5145 33.1128 11.5091 33.0942 11.4985C32.7768 11.3304 32.4568 11.1731 32.1448 11.0264C32.0781 10.9944 32.0488 10.9171 32.0808 10.8504C32.1128 10.7838 32.1901 10.7544 32.2568 10.7864C32.5742 10.9331 32.8968 11.0931 33.2168 11.2638C33.2808 11.2984 33.3075 11.3784 33.2728 11.4451C33.2488 11.4905 33.2035 11.5171 33.1555 11.5171V11.5145ZM19.5231 11.5145C19.4831 11.5145 19.4431 11.4958 19.4164 11.4611C19.3711 11.4024 19.3817 11.3198 19.4404 11.2744C19.7284 11.0531 20.0298 10.8504 20.3338 10.6664C20.3978 10.6291 20.4778 10.6504 20.5178 10.7118C20.5551 10.7758 20.5338 10.8558 20.4724 10.8958C20.1764 11.0744 19.8831 11.2718 19.6031 11.4851C19.5791 11.5038 19.5497 11.5118 19.5231 11.5118V11.5145ZM81.7171 11.3198C81.6984 11.3198 81.6797 11.3171 81.6637 11.3091C81.3437 11.1678 81.013 11.0371 80.6824 10.9224C80.613 10.8984 80.5757 10.8238 80.5997 10.7518C80.6237 10.6824 80.701 10.6451 80.7704 10.6691C81.109 10.7864 81.445 10.9171 81.7731 11.0638C81.8397 11.0931 81.8717 11.1731 81.8397 11.2398C81.8184 11.2904 81.7677 11.3198 81.7171 11.3198ZM68.7593 11.3171C68.7406 11.3171 68.7246 11.3144 68.706 11.3064C68.386 11.1704 68.066 10.9891 67.7539 10.7678C67.6953 10.7251 67.6793 10.6424 67.7219 10.5811C67.7646 10.5198 67.8473 10.5064 67.9086 10.5491C68.2046 10.7598 68.5086 10.9304 68.81 11.0584C68.8766 11.0878 68.9086 11.1651 68.8793 11.2344C68.858 11.2851 68.8073 11.3144 68.7566 11.3144L68.7593 11.3171ZM72.8848 10.9651C72.8314 10.9651 72.7781 10.9304 72.7594 10.8771C72.7354 10.8078 72.7701 10.7304 72.8394 10.7064C72.9914 10.6504 73.1434 10.5971 73.2955 10.5464C73.4848 10.4824 73.6741 10.4264 73.8635 10.3731C73.9355 10.3544 74.0075 10.3971 74.0261 10.4664C74.0448 10.5384 74.0048 10.6104 73.9328 10.6291C73.7461 10.6798 73.5621 10.7358 73.3781 10.7971C73.2288 10.8478 73.0794 10.9011 72.9301 10.9544C72.9141 10.9598 72.9008 10.9624 72.8848 10.9624V10.9651ZM79.1836 10.5064C79.1836 10.5064 79.165 10.5064 79.157 10.5038C78.813 10.4318 78.461 10.3757 78.1143 10.3357C78.0423 10.3277 77.9889 10.2611 77.9969 10.1891C78.0049 10.1171 78.0743 10.0637 78.1436 10.0717C78.4983 10.1117 78.8556 10.1704 79.2076 10.2424C79.2796 10.2584 79.3276 10.3277 79.3116 10.3998C79.2983 10.4638 79.2423 10.5064 79.181 10.5064H79.1836ZM30.7234 10.4291C30.7074 10.4291 30.6941 10.4291 30.6781 10.4211C30.3474 10.3011 30.0087 10.1917 29.6727 10.0957C29.6007 10.0744 29.5607 10.0024 29.5821 9.9304C29.6034 9.8584 29.6754 9.8184 29.7474 9.83973C30.0887 9.9384 30.4328 10.0504 30.7714 10.1704C30.8408 10.1944 30.8754 10.2717 30.8514 10.3411C30.8328 10.3944 30.7794 10.4291 30.7261 10.4291H30.7234ZM75.4689 10.3331C75.4022 10.3331 75.3435 10.2824 75.3355 10.2157C75.3275 10.1437 75.3809 10.0771 75.4529 10.0691C75.8075 10.0264 76.1702 10.0024 76.5302 9.9944H76.5329C76.6049 9.9944 76.6636 10.0531 76.6662 10.1251C76.6662 10.1997 76.6102 10.2584 76.5356 10.2611C76.1835 10.2691 75.8315 10.2931 75.4849 10.3331C75.4795 10.3331 75.4742 10.3331 75.4689 10.3331ZM53.8788 10.2637C53.8602 10.2637 53.8442 10.2611 53.8255 10.2531C53.7588 10.2237 53.7268 10.1464 53.7562 10.0771L54.1802 9.09838C54.2095 9.03171 54.2868 8.99971 54.3562 9.02904C54.4229 9.05837 54.4549 9.13571 54.4255 9.20505L54.0015 10.1837C53.9802 10.2344 53.9295 10.2637 53.8788 10.2637ZM21.8431 10.2211C21.7898 10.2211 21.7391 10.1891 21.7178 10.1357C21.6911 10.0664 21.7258 9.98907 21.7951 9.96507C22.1285 9.83973 22.4752 9.72773 22.8245 9.63706C22.8965 9.61839 22.9685 9.66106 22.9872 9.73306C23.0059 9.80506 22.9632 9.87707 22.8912 9.89573C22.5498 9.9864 22.2138 10.0931 21.8885 10.2157C21.8725 10.2211 21.8565 10.2237 21.8405 10.2237L21.8431 10.2211ZM28.15 9.7384C28.15 9.7384 28.134 9.7384 28.126 9.7384C27.7793 9.67706 27.4273 9.62906 27.0806 9.59439C27.0086 9.58639 26.9526 9.52239 26.9606 9.44772C26.9686 9.37572 27.0353 9.32238 27.1073 9.32772C27.4593 9.36238 27.8193 9.41305 28.174 9.47439C28.246 9.48772 28.294 9.55706 28.2834 9.62906C28.2727 9.69306 28.2167 9.7384 28.1527 9.7384H28.15ZM66.6499 9.7224C66.6126 9.7224 66.5779 9.70906 66.5512 9.67973C66.3246 9.43172 66.0979 9.15971 65.8605 8.85303C65.8152 8.79437 65.8259 8.7117 65.8845 8.66636C65.9432 8.62103 66.0259 8.63169 66.0712 8.69036C66.3032 8.99171 66.5246 9.25571 66.7486 9.50106C66.7992 9.55439 66.7939 9.63973 66.7406 9.69039C66.7139 9.7144 66.6819 9.72506 66.6499 9.72506V9.7224ZM24.4326 9.60506C24.3659 9.60506 24.3072 9.55439 24.2992 9.48772C24.2912 9.41572 24.3446 9.34905 24.4166 9.34105C24.7686 9.30105 25.1313 9.27705 25.4913 9.26905C25.5606 9.26371 25.6246 9.32505 25.6273 9.39972C25.6273 9.47439 25.5713 9.53306 25.4966 9.53572C25.1419 9.54372 24.7899 9.56772 24.4459 9.60772C24.4406 9.60772 24.4352 9.60772 24.4299 9.60772L24.4326 9.60506ZM54.9375 7.81833C54.9189 7.81833 54.9029 7.81567 54.8842 7.80767C54.8175 7.77833 54.7855 7.701 54.8149 7.63166L55.0629 7.05831C55.1215 6.92497 55.1802 6.78897 55.2415 6.65296C55.2709 6.5863 55.3509 6.55696 55.4175 6.5863C55.4842 6.61563 55.5136 6.69563 55.4842 6.7623C55.4229 6.89831 55.3642 7.03164 55.3055 7.16498L55.0575 7.73833C55.0362 7.789 54.9855 7.81833 54.9349 7.81833H54.9375ZM65.0392 7.59966C64.9965 7.59966 64.9539 7.57833 64.9272 7.54099C64.7832 7.32499 64.6418 7.10898 64.5058 6.89831C64.4525 6.81564 64.3965 6.73297 64.3405 6.6503C64.2978 6.58896 64.3138 6.50629 64.3752 6.46629C64.4365 6.42629 64.5192 6.43962 64.5592 6.50096C64.6152 6.5863 64.6712 6.66897 64.7272 6.7543C64.8632 6.96497 65.0045 7.17831 65.1485 7.39432C65.1885 7.45566 65.1725 7.53833 65.1112 7.57833C65.0899 7.59433 65.0632 7.59966 65.0365 7.59966H65.0392ZM63.4791 5.43693C63.4418 5.43693 63.4045 5.42093 63.3778 5.39159C63.1378 5.11692 62.8925 4.86091 62.6471 4.63157C62.5938 4.5809 62.5911 4.49823 62.6418 4.44223C62.6924 4.38889 62.7751 4.38623 62.8311 4.43689C63.0818 4.67157 63.3351 4.93558 63.5805 5.21559C63.6285 5.27159 63.6231 5.35426 63.5671 5.40493C63.5431 5.42626 63.5111 5.43693 63.4791 5.43693ZM56.0922 5.41293C56.0682 5.41293 56.0442 5.40759 56.0229 5.39426C55.9589 5.35692 55.9402 5.27425 55.9776 5.21025C56.1802 4.87158 56.3829 4.57823 56.5989 4.31956C56.6469 4.26356 56.7296 4.25556 56.7856 4.30089C56.8416 4.34889 56.8496 4.43156 56.8043 4.48756C56.5989 4.73824 56.4016 5.01825 56.2069 5.34626C56.1829 5.38892 56.1376 5.41026 56.0922 5.41026V5.41293ZM61.4657 3.70354C61.4417 3.70354 61.4204 3.6982 61.3991 3.68487C61.0817 3.50086 60.7644 3.35953 60.455 3.26352C60.3857 3.24219 60.3457 3.16752 60.367 3.09819C60.3884 3.02885 60.463 2.98885 60.5324 3.01018C60.8631 3.11152 61.1991 3.26086 61.5324 3.45553C61.5964 3.49286 61.6177 3.57287 61.5804 3.63687C61.5564 3.67954 61.5111 3.70354 61.4657 3.70354ZM57.911 3.50887C57.863 3.50887 57.8176 3.48486 57.7936 3.43953C57.759 3.37553 57.783 3.29286 57.847 3.25819C58.0336 3.15685 58.2256 3.07418 58.4256 3.01018C58.5776 2.95951 58.735 2.92218 58.8923 2.89285C58.9617 2.87951 59.0337 2.92751 59.047 3.00218C59.0603 3.07418 59.0123 3.14352 58.9377 3.15685C58.7937 3.18085 58.6497 3.21819 58.5083 3.26352C58.327 3.32219 58.1456 3.39953 57.975 3.49286C57.9536 3.50353 57.9323 3.50887 57.911 3.50887Z" fill="#50448C"/>
<path d="M75.2935 20.5159C75.7442 20.0653 77.2429 19.6679 77.6589 19.4466C78.0722 19.2252 78.3656 18.7746 78.6589 18.4812C78.9523 18.1879 79.1949 17.8945 79.1949 17.6865C79.1949 17.4785 79.0296 17.3745 79.0296 17.3745C79.3603 17.0438 80.363 16.4145 80.0696 16.1211C79.7763 15.8278 78.2483 17.2812 78.2483 17.2812C78.3363 16.8385 77.6589 17.0998 77.6589 17.0998C77.7336 16.7212 77.0162 16.9425 77.0162 16.9425C77.0162 16.6038 76.3042 17.0785 76.0242 17.3612C75.7442 17.6412 75.6055 17.8305 75.6055 18.1052C75.6055 18.3799 74.3281 19.4866 74.3281 19.4866C74.5495 20.2039 75.2935 20.5159 75.2935 20.5159Z" fill="#FCA475"/>
<path d="M77.8829 18.3861C77.8669 18.3861 77.8509 18.3808 77.8403 18.3701C77.8136 18.3461 77.8082 18.3035 77.8349 18.2768C78.1069 17.9648 78.4163 17.6874 78.7576 17.4528C78.8429 17.3941 78.9336 17.3434 79.0376 17.3674C79.1176 17.3861 79.1843 17.4501 79.2163 17.5381C79.243 17.6101 79.2456 17.6874 79.2456 17.7514C79.2456 17.7888 79.2163 17.8181 79.179 17.8181C79.1416 17.8181 79.1123 17.7888 79.1123 17.7514C79.1123 17.6954 79.1123 17.6341 79.091 17.5834C79.0776 17.5461 79.0483 17.5061 79.0056 17.4954C78.9523 17.4848 78.8909 17.5194 78.8323 17.5594C78.5016 17.7888 78.2003 18.0581 77.9363 18.3621C77.9229 18.3781 77.9042 18.3861 77.8856 18.3861H77.8829Z" fill="#E07E58"/>
<path d="M77.2593 18.5507C77.2193 18.5507 77.1793 18.5427 77.1446 18.5267C77.0406 18.4787 76.9873 18.356 77.0246 18.2574C77.0379 18.2227 77.0753 18.204 77.1099 18.2174C77.1446 18.2307 77.1633 18.268 77.1499 18.3027C77.1366 18.3374 77.1633 18.3854 77.2033 18.404C77.2459 18.4254 77.3073 18.42 77.3606 18.3907C77.4166 18.3614 77.4646 18.308 77.5073 18.2574C77.6273 18.1134 77.7313 17.948 77.83 17.788C77.8993 17.676 77.9713 17.5587 78.0513 17.4493L78.0646 17.4307C78.1073 17.372 78.1446 17.3187 78.1633 17.26C78.1793 17.2093 78.1766 17.14 78.1366 17.1027C78.102 17.0733 78.0433 17.0653 77.958 17.0787C77.8673 17.0947 77.7766 17.1213 77.694 17.1613C77.662 17.1773 77.622 17.1613 77.606 17.1293C77.59 17.0973 77.606 17.0573 77.638 17.0413C77.734 16.996 77.8353 16.964 77.9366 16.948C78.0646 16.9267 78.1606 16.9453 78.2246 17.004C78.2993 17.0707 78.326 17.188 78.2913 17.3C78.2673 17.38 78.2193 17.4467 78.174 17.5107L78.1606 17.5293C78.0833 17.636 78.014 17.7507 77.9446 17.86C77.8433 18.0227 77.7366 18.1934 77.6113 18.3454C77.5606 18.4067 77.5019 18.468 77.4246 18.5107C77.3739 18.5374 77.3179 18.5534 77.2646 18.5534L77.2593 18.5507Z" fill="#E07E58"/>
<path d="M76.7975 18.4874C76.7975 18.4874 76.7895 18.4874 76.7868 18.4874C76.6562 18.4847 76.5148 18.3967 76.5068 18.258C76.5068 18.2207 76.5335 18.1887 76.5708 18.1887C76.6055 18.1834 76.6375 18.2154 76.6402 18.2527C76.6428 18.3114 76.7202 18.3541 76.7895 18.3567C76.8188 18.3567 76.8615 18.3541 76.8988 18.3301C76.9388 18.3034 76.9682 18.2554 77.0002 18.2047L77.0082 18.1914C77.0668 18.0954 77.1335 18.002 77.1975 17.9114C77.2615 17.8234 77.3255 17.7327 77.3815 17.642C77.5122 17.4287 77.5682 17.2314 77.5522 17.0553C77.5495 17.018 77.5415 16.994 77.5309 16.9833C77.5122 16.9673 77.4722 16.9647 77.4402 16.9673C77.3069 16.97 77.1762 16.9887 77.0482 17.018C77.0109 17.0287 76.9762 17.0047 76.9682 16.9673C76.9602 16.9327 76.9815 16.8953 77.0188 16.8873C77.1575 16.8553 77.2962 16.8367 77.4375 16.834C77.4802 16.834 77.5655 16.8313 77.6242 16.8873C77.6722 16.9327 77.6829 16.9993 77.6882 17.042C77.7069 17.2474 77.6455 17.4714 77.4989 17.7114C77.4402 17.8074 77.3735 17.9007 77.3095 17.9887C77.2455 18.0767 77.1815 18.1674 77.1255 18.258C77.0802 18.3327 77.0402 18.3994 76.9735 18.4421C76.9255 18.4741 76.8642 18.4901 76.8002 18.4901L76.7975 18.4874Z" fill="#E07E58"/>
<path d="M76.3333 18.3563C76.3333 18.3563 76.3067 18.3563 76.2933 18.3536C76.272 18.3509 76.2427 18.3456 76.216 18.3189C76.1973 18.3003 76.1867 18.2763 76.1813 18.2549C76.144 18.1109 76.168 17.9643 76.1947 17.8256C76.2267 17.6683 76.2667 17.5109 76.3067 17.3536C76.3147 17.3189 76.352 17.2976 76.3867 17.3056C76.4213 17.3136 76.4427 17.3509 76.4347 17.3856C76.3947 17.5403 76.3573 17.6949 76.3253 17.8496C76.3013 17.9723 76.2773 18.1003 76.3093 18.2176C76.3787 18.2256 76.4533 18.1936 76.5173 18.1296C76.5787 18.0683 76.6213 17.9856 76.6613 17.9003C76.8 17.6123 76.9254 17.3029 76.9067 16.9882C76.9067 16.9402 76.8933 16.9136 76.8827 16.9109C76.8747 16.9082 76.856 16.9109 76.848 16.9109C76.7174 16.9216 76.592 16.9776 76.496 17.0656C76.4693 17.0896 76.4267 17.0869 76.4027 17.0602C76.3787 17.0336 76.3813 16.9909 76.408 16.9669C76.5253 16.8602 76.68 16.7936 76.84 16.7776C76.872 16.7776 76.904 16.7749 76.9387 16.7882C77.0027 16.8149 77.0374 16.8816 77.0427 16.9802C77.0614 17.3269 76.9307 17.6549 76.784 17.9589C76.7387 18.0549 76.6907 18.1483 76.616 18.2256C76.536 18.3083 76.432 18.3536 76.336 18.3536L76.3333 18.3563Z" fill="#E07E58"/>
<path d="M71.6025 77.9355V80.6103C72.6452 81.0396 73.6773 80.6636 73.6773 80.6636L73.8853 78.1462L71.6025 77.9382V77.9355Z" fill="#FCA676"/>
<path d="M67.1041 83.7935C66.5681 83.7935 66.112 83.2201 67.0267 82.6574C67.9388 82.0974 71.6056 80.6094 71.6056 80.6094C72.1522 80.9081 73.6803 80.6627 73.6803 80.6627C73.6803 80.6627 74.4376 82.6334 74.5923 83.0628C74.7497 83.4921 74.2136 83.6495 73.3016 83.6495C72.3896 83.6495 67.1067 83.7935 67.1067 83.7935H67.1041Z" fill="url(#paint4_linear_1256_61388)"/>
<path d="M78.7627 78.157L78.968 80.8184C80.0454 81.2477 81.0454 80.869 81.0454 80.869L81.0614 78.3623L78.7627 78.1543V78.157Z" fill="#FCA676"/>
<path d="M74.4849 84.0005C73.9489 84.0005 73.4929 83.4272 74.4076 82.8645C75.3196 82.3045 78.9864 80.8164 78.9864 80.8164C79.5331 81.1151 81.0611 80.8697 81.0611 80.8697C81.0611 80.8697 81.8185 82.8405 81.9732 83.2698C82.1305 83.6992 81.5945 83.8565 80.6825 83.8565C79.7704 83.8565 74.4876 84.0005 74.4876 84.0005H74.4849Z" fill="url(#paint5_linear_1256_61388)"/>
<path d="M74.0265 47.6214C72.9838 49.7094 70.6104 62.8965 70.6104 65.1819C70.6104 67.4673 71.2504 79.9051 71.2504 79.9051L74.1838 80.1371C74.1838 80.1371 74.8558 65.5873 75.2372 64.5792C75.6185 63.5712 76.4185 61.8565 76.4185 61.8565C76.4185 61.8565 77.8266 75.3449 78.0719 76.7343C78.3146 78.1263 78.7626 80.3637 78.7626 80.3637L81.3707 80.0864C81.3707 80.0864 81.184 66.2806 81.3227 64.1259C81.4614 61.9685 83.2374 50.3041 83.2374 47.9307C82.1041 46.7947 75.2425 46.9227 74.0265 47.6187V47.6214Z" fill="url(#paint6_linear_1256_61388)"/>
<path d="M78.6188 29.6174C77.4935 28.78 72.8373 27.236 71.656 26.724C70.4746 26.2119 70.1252 25.8653 70.1252 25.8653L75.4827 20.5078C74.16 19.7771 74.4747 19.2891 74.4747 19.2891C70.0932 22.3158 66.1971 24.9586 65.9864 25.7586C65.7784 26.5586 65.6744 27.1853 67.6212 28.2973C69.5679 29.4094 75.1681 33.2015 76.4214 33.2015C77.6748 33.2015 80.1629 30.7614 78.6188 29.6147V29.6174Z" fill="url(#paint7_linear_1256_61388)"/>
<path d="M84.1579 24.834C83.4993 25.9994 82.5259 29.1355 82.5259 29.1355C80.2912 29.3995 79.0004 28.8288 78.7178 28.3221L80.0138 25.106L84.1553 24.8366L84.1579 24.834Z" fill="url(#paint8_linear_1256_61388)"/>
<path d="M81.4642 18.4301C80.0241 18.9341 79.4428 19.8275 78.5681 22.3982C77.9947 24.0809 77.2347 26.3477 77.9494 26.5797C79.1761 26.9797 82.2775 26.529 83.7256 25.321C85.171 24.1156 86.0003 21.8702 85.7603 20.6888C85.5203 19.5101 83.6296 17.6701 81.4669 18.4274L81.4642 18.4301Z" fill="url(#paint9_linear_1256_61388)"/>
<path d="M82.102 22.9436C82.3367 22.5756 82.7634 22.3543 83.1927 22.4209C83.6007 22.4849 83.9074 22.7729 83.6167 23.397C83.086 24.533 82.5127 24.5517 82.4194 24.8343C82.326 25.117 82.142 25.997 82.366 26.4397C82.59 26.8824 83.1234 27.4638 83.1847 27.4824C83.2434 27.5011 83.9047 24.9543 85.0914 24.1436C85.9555 24.0423 86.4168 23.4796 86.3848 22.3996C87.0435 21.8369 86.9128 20.4795 85.8888 20.1462C85.7608 18.1888 83.9741 17.3994 83.2087 17.9328C81.814 15.9487 77.8832 17.5408 79.3499 19.9195C80.038 21.0315 81.5713 20.0688 81.5713 20.0688C81.79 20.9702 82.7527 20.8529 82.7527 20.8529C81.71 22.0476 81.646 22.9836 81.8353 23.1089C81.9233 23.1676 82.022 23.0689 82.0993 22.9463L82.102 22.9436Z" fill="url(#paint10_linear_1256_61388)"/>
<path d="M82.5737 28.9916C80.155 29.4423 78.7203 28.3223 78.7203 28.3223C78.7203 28.3223 76.0029 29.341 75.0935 31.949C73.3228 37.0319 74.0268 43.3094 74.0268 47.6216C74.0268 47.6216 80.8724 47.3282 83.2378 48.6482C83.2378 48.6482 84.6965 34.4211 84.1578 32.4051C83.6191 30.389 83.4058 29.8263 82.5711 28.9916H82.5737Z" fill="url(#paint11_linear_1256_61388)"/>
<path d="M78.7759 28.3691C78.4106 28.6438 78.0052 29.2092 78.3199 29.3932C78.6346 29.5745 82.1734 29.4838 82.7841 29.1398C82.6987 28.8385 82.5627 28.8252 82.5627 28.8252C81.696 28.7772 79.1119 28.5398 78.7733 28.3718L78.7759 28.3691Z" fill="white"/>
<path d="M84.1584 47.5705C83.7584 47.4319 83.6197 46.9785 82.9424 46.9785C82.265 46.9785 81.353 47.3945 81.1583 47.3945C80.9636 47.3945 80.7476 47.8505 81.073 47.9332C81.0277 47.9332 79.0436 48.4906 79.0436 48.4906C79.0436 48.4906 78.6142 48.6399 78.6729 48.9012C78.7316 49.1626 79.0703 49.1413 79.0703 49.1413C78.7316 49.1599 78.5182 49.5786 78.6676 49.7279C78.8169 49.8773 79.1823 49.7866 79.1823 49.7866C78.8943 49.8906 78.9342 50.224 79.1769 50.3333C79.4169 50.4453 80.0436 50.2693 80.0436 50.2693C79.7636 50.3733 79.8489 50.824 80.273 50.7786C80.697 50.7333 82.137 50.2826 82.545 50.2213C82.953 50.16 84.3584 49.2346 84.5878 49.0026C84.8171 48.7732 85.0304 48.4106 85.0304 48.4106C85.0304 48.4106 84.7318 47.4292 84.1611 47.5679L84.1584 47.5705Z" fill="#FCA475"/>
<path d="M81.1662 48.0059C81.1422 48.0059 81.1209 48.0059 81.0969 48.0033C81.0516 48.0006 80.9902 47.9899 80.9422 47.9553C80.8756 47.9073 80.8409 47.8219 80.8462 47.7206C80.8542 47.5793 80.9342 47.4459 81.0542 47.3712C81.0862 47.3526 81.1262 47.3606 81.1449 47.3926C81.1636 47.4246 81.1556 47.4646 81.1236 47.4832C81.0409 47.5339 80.9822 47.6299 80.9769 47.7259C80.9769 47.7686 80.9849 47.8219 81.0169 47.8459C81.0382 47.8619 81.0729 47.8673 81.1022 47.8699C81.2809 47.8833 81.4569 47.8299 81.6436 47.7739C81.7876 47.7286 81.9396 47.6833 82.0943 47.6726C82.1343 47.6673 82.1636 47.6966 82.1663 47.7339C82.1689 47.7713 82.1423 47.8033 82.1049 47.8059C81.9636 47.8166 81.8276 47.8593 81.6836 47.9019C81.5156 47.9526 81.3423 48.0059 81.1636 48.0059H81.1662Z" fill="#E07E58"/>
<path d="M79.1608 49.1857C79.0914 49.1857 79.0221 49.1804 78.9528 49.1644C78.8994 49.1537 78.8434 49.1377 78.7928 49.1084C78.6621 49.0284 78.6061 48.8471 78.6728 48.7057C78.6888 48.6737 78.7288 48.6577 78.7608 48.6737C78.7928 48.6897 78.8088 48.7297 78.7928 48.7617C78.7554 48.8391 78.7901 48.9484 78.8621 48.9937C78.8968 49.0151 78.9394 49.0257 78.9794 49.0337C79.1421 49.0657 79.3128 49.0444 79.4594 49.0204C79.5288 49.0071 79.5821 49.0017 79.6354 48.9937C79.7048 48.9857 79.7661 48.9777 79.8435 48.9591C80.1235 48.8897 80.4568 48.7884 80.7822 48.6684C80.8168 48.6551 80.8542 48.6737 80.8675 48.7084C80.8808 48.7431 80.8622 48.7804 80.8275 48.7937C80.4995 48.9137 80.1608 49.0204 79.8755 49.0897C79.7901 49.1111 79.7235 49.1191 79.6541 49.1271C79.6035 49.1324 79.5501 49.1404 79.4861 49.1511C79.3874 49.1697 79.2754 49.1857 79.1608 49.1857Z" fill="#E07E58"/>
<path d="M78.9738 49.8474C78.9525 49.8474 78.9285 49.8474 78.9071 49.8447C78.7898 49.8314 78.6911 49.7727 78.6378 49.6874C78.5765 49.5887 78.5765 49.4527 78.6378 49.3407C78.6885 49.2527 78.7738 49.178 78.8885 49.1274C78.9205 49.1114 78.9605 49.1274 78.9765 49.1594C78.9925 49.1914 78.9765 49.2314 78.9445 49.2474C78.8831 49.274 78.8005 49.3247 78.7551 49.4047C78.7151 49.474 78.7125 49.5594 78.7498 49.6154C78.7818 49.6661 78.8458 49.7007 78.9231 49.7114C78.9978 49.7194 79.0778 49.7061 79.1631 49.6901C79.3232 49.6581 79.4938 49.6287 79.6645 49.6021C79.7578 49.5861 79.8485 49.5727 79.9338 49.5567C80.3952 49.4767 80.7579 49.3994 81.1339 49.266C81.1685 49.2527 81.2059 49.2714 81.2192 49.306C81.2325 49.3407 81.2139 49.378 81.1792 49.3914C80.7925 49.5274 80.4245 49.6047 79.9578 49.6874C79.8698 49.7034 79.7792 49.7167 79.6858 49.7327C79.5178 49.7594 79.3472 49.7887 79.1898 49.8207C79.1178 49.8341 79.0458 49.8474 78.9738 49.8474Z" fill="#E07E58"/>
<path d="M79.4939 50.4324C79.4325 50.4324 79.3712 50.4271 79.3099 50.4164C79.1498 50.3897 79.0405 50.3337 78.9738 50.2431C78.9178 50.1684 78.9018 50.067 78.9258 49.971C78.9498 49.8724 79.0112 49.7924 79.0965 49.7524C79.1285 49.7364 79.1685 49.7524 79.1845 49.7844C79.2005 49.8164 79.1845 49.8564 79.1525 49.8724C79.1045 49.8964 79.0672 49.9444 79.0538 50.003C79.0405 50.0617 79.0485 50.1231 79.0805 50.1657C79.1258 50.2271 79.2059 50.2671 79.3312 50.2884C79.5765 50.3284 79.8192 50.2671 80.0752 50.2031C80.1445 50.1844 80.2139 50.1684 80.2832 50.1524C80.6566 50.0697 81.0086 49.9737 81.2992 49.8777C81.3366 49.867 81.3712 49.8857 81.3846 49.9204C81.3953 49.955 81.3766 49.9924 81.3419 50.0057C81.0486 50.1017 80.6912 50.1977 80.3126 50.2831C80.2432 50.2991 80.1766 50.3151 80.1072 50.3337C79.9072 50.3844 79.7019 50.4377 79.4939 50.4377V50.4324Z" fill="#E07E58"/>
<path d="M80.2939 50.8294C80.2406 50.8294 80.1873 50.8241 80.1313 50.8108C80.0033 50.7814 79.9019 50.7148 79.8459 50.6214C79.7739 50.5041 79.7899 50.3494 79.8806 50.2641C79.9073 50.2401 79.9499 50.2401 79.9739 50.2641C80.0006 50.2908 79.9979 50.3334 79.9739 50.3574C79.9286 50.4001 79.9233 50.4854 79.9606 50.5494C79.9979 50.6108 80.0699 50.6561 80.1606 50.6774C80.3259 50.7148 80.5046 50.6694 80.6646 50.6268L81.71 50.3574C81.7446 50.3494 81.782 50.3708 81.79 50.4054C81.798 50.4401 81.7766 50.4774 81.742 50.4854L80.6966 50.7548C80.5713 50.7868 80.4326 50.8241 80.2913 50.8241L80.2939 50.8294Z" fill="#E07E58"/>
<path d="M82.9095 29.6172C80.8694 29.2012 79.4827 32.5773 81.7281 34.5693C83.3335 35.9907 88.3843 40.5082 88.3843 40.5082L84.1575 47.5697C85.0455 47.9511 84.9415 48.6471 84.9415 48.6471C84.9415 48.6471 91.8298 41.2389 92.0031 40.7162C92.1764 40.1935 91.4804 38.6628 90.2297 37.4121C88.9763 36.1587 85.1522 30.0732 82.9095 29.6172Z" fill="url(#paint12_linear_1256_61388)"/>
<path d="M76.995 66.5952C76.963 66.5952 76.9363 66.5739 76.9283 66.5419C76.3229 63.3044 75.6616 53.1388 75.6562 53.0374C75.6562 53.0001 75.6802 52.9681 75.7176 52.9654C75.7602 52.9601 75.7869 52.9921 75.7896 53.0268C75.7976 53.1281 76.4563 63.2858 77.0616 66.5179C77.0696 66.5552 77.0456 66.5899 77.0083 66.5952C77.003 66.5952 77.0003 66.5952 76.995 66.5952Z" fill="#3C4FA0"/>
<path d="M78.2108 23.0571C78.6748 22.9158 79.1869 23.4278 79.4562 23.8198C79.7256 24.2118 80.5896 24.1558 81.8563 22.3984L82.1523 22.8518C81.4296 23.9372 80.9656 26.3399 80.5122 26.5239C80.0589 26.7079 78.5895 26.9479 77.8962 26.6919C77.2028 26.4359 77.1495 25.9559 77.2855 25.2119C77.4241 24.4678 77.9868 23.3478 78.2108 23.0598V23.0571Z" fill="url(#paint13_linear_1256_61388)"/>
<path d="M78.1099 23.6074C78.4166 23.7834 79.1393 24.0208 79.0699 24.1781C78.8859 24.5995 77.9579 24.4528 77.8806 24.1781C77.8059 23.9008 78.0059 23.6608 78.1099 23.6101V23.6074Z" fill="url(#paint14_linear_1256_61388)"/>
<path d="M88.2965 40.6313C88.2698 40.6313 88.2431 40.6206 88.2245 40.602C86.5684 38.8899 84.7657 37.2925 82.8696 35.8551L82.803 35.8045C81.8883 35.1111 80.9416 34.3911 80.5896 33.3057C80.5736 33.2524 80.6002 33.1964 80.6536 33.1804C80.7069 33.1644 80.7629 33.1911 80.7789 33.2444C81.1123 34.2711 82.035 34.9698 82.923 35.6445L82.9896 35.6951C84.8937 37.1405 86.7018 38.7459 88.3658 40.4633C88.4031 40.5033 88.4031 40.5673 88.3658 40.6046C88.3471 40.6233 88.3205 40.634 88.2965 40.634V40.6313Z" fill="#50448C"/>
<path d="M35.9935 28.5398C41.8774 28.5398 46.6472 23.77 46.6472 17.8861C46.6472 12.0022 41.8774 7.23242 35.9935 7.23242C30.1097 7.23242 25.3398 12.0022 25.3398 17.8861C25.3398 23.77 30.1097 28.5398 35.9935 28.5398Z" fill="url(#paint15_linear_1256_61388)"/>
<path d="M35.9939 27.0601C41.0604 27.0601 45.1676 22.953 45.1676 17.8865C45.1676 12.8201 41.0604 8.71289 35.9939 8.71289C30.9275 8.71289 26.8203 12.8201 26.8203 17.8865C26.8203 22.953 30.9275 27.0601 35.9939 27.0601Z" fill="url(#paint16_linear_1256_61388)"/>
<path d="M35.1059 13.3125H36.8847C37.8234 13.3125 38.5861 14.0752 38.5861 15.0139V17.6806H33.4072V15.0139C33.4072 14.0752 34.1699 13.3125 35.1086 13.3125H35.1059Z" fill="url(#paint17_linear_1256_61388)"/>
<path d="M37.5111 12.7518C37.5111 13.1064 37.3884 13.4318 37.183 13.6931C36.9057 14.0425 36.4737 14.2691 35.991 14.2691C35.5083 14.2691 35.079 14.0425 34.8016 13.6931C34.5963 13.4344 34.4736 13.1064 34.4736 12.7518C34.4736 12.5758 34.503 12.4104 34.5563 12.2531C34.6123 12.0904 34.695 11.9411 34.799 11.8104C35.0763 11.461 35.5057 11.2344 35.9883 11.2344C36.471 11.2344 36.9004 11.461 37.1804 11.8104C37.2844 11.9437 37.3671 12.0931 37.4231 12.2531C37.4764 12.4077 37.5057 12.5758 37.5057 12.7518H37.5111Z" fill="url(#paint18_linear_1256_61388)"/>
<path d="M30.3218 15.0176H32.1005C33.0392 15.0176 33.8019 15.7803 33.8019 16.719V19.3857H28.623V16.719C28.623 15.7803 29.3857 15.0176 30.3244 15.0176H30.3218Z" fill="url(#paint19_linear_1256_61388)"/>
<path d="M32.7269 14.4549C32.7269 14.8096 32.6042 15.1349 32.3989 15.3962C32.1215 15.7456 31.6895 15.9723 31.2068 15.9723C30.7242 15.9723 30.2948 15.7456 30.0175 15.3962C29.8121 15.1376 29.6895 14.8096 29.6895 14.4549C29.6895 14.2789 29.7188 14.1135 29.7721 13.9562C29.8281 13.7935 29.9108 13.6442 30.0148 13.5135C30.2921 13.1642 30.7215 12.9375 31.2042 12.9375C31.6869 12.9375 32.1162 13.1642 32.3962 13.5135C32.5002 13.6469 32.5829 13.7962 32.6389 13.9562C32.6922 14.1109 32.7215 14.2789 32.7215 14.4549H32.7269Z" fill="url(#paint20_linear_1256_61388)"/>
<path d="M39.8931 15.0176H41.6718C42.6105 15.0176 43.3732 15.7803 43.3732 16.719V19.3857H38.1943V16.719C38.1943 15.7803 38.957 15.0176 39.8957 15.0176H39.8931Z" fill="url(#paint21_linear_1256_61388)"/>
<path d="M42.2982 14.4549C42.2982 14.8096 42.1755 15.1349 41.9702 15.3962C41.6928 15.7456 41.2608 15.9723 40.7781 15.9723C40.2954 15.9723 39.8661 15.7456 39.5888 15.3962C39.3834 15.1376 39.2607 14.8096 39.2607 14.4549C39.2607 14.2789 39.2901 14.1135 39.3434 13.9562C39.3994 13.7935 39.4821 13.6442 39.5861 13.5135C39.8634 13.1642 40.2928 12.9375 40.7755 12.9375C41.2581 12.9375 41.6875 13.1642 41.9675 13.5135C42.0715 13.6469 42.1542 13.7962 42.2102 13.9562C42.2635 14.1109 42.2928 14.2789 42.2928 14.4549H42.2982Z" fill="url(#paint22_linear_1256_61388)"/>
<path d="M35.1059 16.5762H36.8847C37.8234 16.5762 38.5861 17.3389 38.5861 18.2776V20.9443H33.4072V18.2776C33.4072 17.3389 34.1699 16.5762 35.1086 16.5762H35.1059Z" fill="url(#paint23_linear_1256_61388)"/>
<path d="M37.5111 16.0154C37.5111 16.3701 37.3884 16.6955 37.183 16.9568C36.9057 17.3061 36.4737 17.5328 35.991 17.5328C35.5083 17.5328 35.079 17.3061 34.8016 16.9568C34.5963 16.6981 34.4736 16.3701 34.4736 16.0154C34.4736 15.8394 34.503 15.6741 34.5563 15.5167C34.6123 15.3541 34.695 15.2047 34.799 15.0741C35.0763 14.7247 35.5057 14.498 35.9883 14.498C36.471 14.498 36.9004 14.7247 37.1804 15.0741C37.2844 15.2074 37.3671 15.3567 37.4231 15.5167C37.4764 15.6714 37.5057 15.8394 37.5057 16.0154H37.5111Z" fill="url(#paint24_linear_1256_61388)"/>
<path d="M30.3218 18.2832H32.1005C33.0392 18.2832 33.8019 19.0459 33.8019 19.9846V22.6513H28.623V19.9846C28.623 19.0459 29.3857 18.2832 30.3244 18.2832H30.3218Z" fill="url(#paint25_linear_1256_61388)"/>
<path d="M32.7269 17.7225C32.7269 18.0771 32.6042 18.4025 32.3989 18.6638C32.1215 19.0132 31.6895 19.2398 31.2068 19.2398C30.7242 19.2398 30.2948 19.0132 30.0175 18.6638C29.8121 18.4051 29.6895 18.0771 29.6895 17.7225C29.6895 17.5465 29.7188 17.3811 29.7721 17.2238C29.8281 17.0611 29.9108 16.9118 30.0148 16.7811C30.2921 16.4318 30.7215 16.2051 31.2042 16.2051C31.6869 16.2051 32.1162 16.4318 32.3962 16.7811C32.5002 16.9144 32.5829 17.0638 32.6389 17.2238C32.6922 17.3784 32.7215 17.5465 32.7215 17.7225H32.7269Z" fill="url(#paint26_linear_1256_61388)"/>
<path d="M39.8931 18.2832H41.6718C42.6105 18.2832 43.3732 19.0459 43.3732 19.9846V22.6513H38.1943V19.9846C38.1943 19.0459 38.957 18.2832 39.8957 18.2832H39.8931Z" fill="url(#paint27_linear_1256_61388)"/>
<path d="M42.2982 17.7225C42.2982 18.0771 42.1755 18.4025 41.9702 18.6638C41.6928 19.0132 41.2608 19.2398 40.7781 19.2398C40.2954 19.2398 39.8661 19.0132 39.5888 18.6638C39.3834 18.4051 39.2607 18.0771 39.2607 17.7225C39.2607 17.5465 39.2901 17.3811 39.3434 17.2238C39.3994 17.0611 39.4821 16.9118 39.5861 16.7811C39.8634 16.4318 40.2928 16.2051 40.7755 16.2051C41.2581 16.2051 41.6875 16.4318 41.9675 16.7811C42.0715 16.9144 42.1542 17.0638 42.2102 17.2238C42.2635 17.3784 42.2928 17.5465 42.2928 17.7225H42.2982Z" fill="url(#paint28_linear_1256_61388)"/>
<path d="M35.1059 19.8379H36.8847C37.8234 19.8379 38.5861 20.6006 38.5861 21.5393V24.206H33.4072V21.5393C33.4072 20.6006 34.1699 19.8379 35.1086 19.8379H35.1059Z" fill="url(#paint29_linear_1256_61388)"/>
<path d="M37.5111 19.2771C37.5111 19.6318 37.3884 19.9572 37.183 20.2185C36.9057 20.5679 36.4737 20.7945 35.991 20.7945C35.5083 20.7945 35.079 20.5679 34.8016 20.2185C34.5963 19.9598 34.4736 19.6318 34.4736 19.2771C34.4736 19.1011 34.503 18.9358 34.5563 18.7785C34.6123 18.6158 34.695 18.4665 34.799 18.3358C35.0763 17.9864 35.5057 17.7598 35.9883 17.7598C36.471 17.7598 36.9004 17.9864 37.1804 18.3358C37.2844 18.4691 37.3671 18.6185 37.4231 18.7785C37.4764 18.9331 37.5057 19.1011 37.5057 19.2771H37.5111Z" fill="url(#paint30_linear_1256_61388)"/>
<path d="M17.3151 77.4395H13.627V83.9997H17.3151V77.4395Z" fill="url(#paint31_linear_1256_61388)"/>
<path d="M22.5338 72.5469H18.8457V84.0006H22.5338V72.5469Z" fill="url(#paint32_linear_1256_61388)"/>
<path d="M22.5338 71.5H18.8457V72.5427H22.5338V71.5Z" fill="url(#paint33_linear_1256_61388)"/>
<path d="M27.7496 73.6953H24.0615V83.9996H27.7496V73.6953Z" fill="url(#paint34_linear_1256_61388)"/>
<path d="M32.9694 72.0586H29.2812V84.0003H32.9694V72.0586Z" fill="url(#paint35_linear_1256_61388)"/>
<path d="M38.1852 62.3887H34.4971V84H38.1852V62.3887Z" fill="url(#paint36_linear_1256_61388)"/>
<path d="M38.1852 62.3887H34.4971V66.8075H38.1852V62.3887Z" fill="url(#paint37_linear_1256_61388)"/>
<path d="M17.3151 77.4395H13.627V79.6475H17.3151V77.4395Z" fill="url(#paint38_linear_1256_61388)"/>
<path d="M61.2072 14.1844C60.1885 15.9525 58.2791 17.1418 56.0924 17.1418C52.831 17.1418 50.1855 14.4964 50.1855 11.235C50.1855 7.97354 52.831 5.32812 56.0924 5.32812C57.5724 5.32812 58.9245 5.87214 59.9592 6.77084L56.0924 11.235L61.2072 14.1844Z" fill="url(#paint39_linear_1256_61388)"/>
<path d="M61.997 11.2317C61.997 12.3064 61.7116 13.3118 61.2076 14.1811L56.0928 11.2317L59.9596 6.76758C61.2076 7.85028 61.997 9.44766 61.997 11.2317Z" fill="url(#paint40_linear_1256_61388)"/>
<path d="M31.59 49.7533V49.2947C31.59 48.8573 31.2833 48.4786 30.854 48.3906C30.5286 48.324 30.2726 48.084 30.1633 47.7719C30.0966 47.5853 30.0219 47.4013 29.9366 47.2226C29.7926 46.9239 29.8059 46.5746 29.9873 46.2972C30.2273 45.9319 30.1766 45.4465 29.8673 45.1372L29.5446 44.8145C29.2353 44.5052 28.7499 44.4545 28.3846 44.6945C28.1072 44.8759 27.7579 44.8892 27.4592 44.7452C27.2805 44.6598 27.0992 44.5825 26.9098 44.5185C26.5978 44.4092 26.3578 44.1532 26.2912 43.8278C26.2032 43.3985 25.8245 43.0918 25.3871 43.0918H24.9285C24.4911 43.0918 24.1124 43.3985 24.0244 43.8278C23.9578 44.1532 23.7177 44.4092 23.4057 44.5185C23.2164 44.5852 23.0351 44.6598 22.8564 44.7452C22.5577 44.8892 22.2084 44.8759 21.931 44.6945C21.5657 44.4545 21.0803 44.5052 20.771 44.8145L20.4483 45.1372C20.139 45.4465 20.0883 45.9319 20.3283 46.2972C20.5096 46.5746 20.523 46.9239 20.379 47.2226C20.2936 47.4013 20.2163 47.5826 20.1523 47.7719C20.043 48.084 19.787 48.324 19.4616 48.3906C19.0323 48.4786 18.7256 48.8573 18.7256 49.2947V49.7533C18.7256 50.1907 19.0323 50.5694 19.4616 50.6574C19.787 50.724 20.043 50.964 20.1523 51.2761C20.219 51.4654 20.2936 51.6467 20.379 51.8254C20.523 52.1241 20.5096 52.4734 20.3283 52.7508C20.0883 53.1161 20.139 53.6015 20.4483 53.9108L20.771 54.2335C21.0803 54.5428 21.5657 54.5935 21.931 54.3535C22.2084 54.1722 22.5577 54.1588 22.8564 54.3028C23.0351 54.3882 23.2164 54.4655 23.4057 54.5295C23.7177 54.6388 23.9578 54.8948 24.0244 55.2202C24.1124 55.6495 24.4911 55.9562 24.9285 55.9562H25.3871C25.8245 55.9562 26.2032 55.6495 26.2912 55.2202C26.3578 54.8948 26.5978 54.6388 26.9098 54.5295C27.0992 54.4628 27.2805 54.3882 27.4592 54.3028C27.7579 54.1588 28.1072 54.1722 28.3846 54.3535C28.7499 54.5935 29.2353 54.5428 29.5446 54.2335L29.8673 53.9108C30.1766 53.6015 30.2273 53.1161 29.9873 52.7508C29.8059 52.4734 29.7926 52.1241 29.9366 51.8254C30.0219 51.6467 30.0966 51.4654 30.1633 51.2761C30.2726 50.964 30.5286 50.724 30.854 50.6574C31.2833 50.5667 31.59 50.1907 31.59 49.7533ZM24.7684 51.7641C23.8271 51.6067 23.0697 50.8494 22.9177 49.908C22.6644 48.356 23.9871 47.0306 25.5445 47.2866C26.4858 47.4413 27.2459 48.2013 27.4005 49.1427C27.6539 50.6974 26.3232 52.0227 24.7711 51.7641H24.7684Z" fill="url(#paint41_linear_1256_61388)"/>
<path d="M41.3349 47.4442V47.0655C41.3349 46.7028 41.0789 46.3882 40.7242 46.3162C40.4549 46.2602 40.2415 46.0628 40.1509 45.8015C40.0975 45.6441 40.0335 45.4921 39.9615 45.3455C39.8415 45.0975 39.8522 44.8068 40.0042 44.5774C40.2042 44.2734 40.1615 43.8707 39.9055 43.6147L39.6362 43.3454C39.3802 43.0894 38.9775 43.0467 38.6735 43.2467C38.4441 43.3987 38.1535 43.4067 37.9055 43.2894C37.7588 43.2174 37.6068 43.1561 37.4494 43.1001C37.1908 43.0094 36.9908 42.796 36.9348 42.5267C36.8601 42.1694 36.5481 41.916 36.1854 41.916H35.8067C35.444 41.916 35.1294 42.172 35.0574 42.5267C35.0014 42.796 34.804 43.0094 34.5427 43.1001C34.3853 43.1534 34.2333 43.2174 34.0867 43.2894C33.8387 43.4094 33.548 43.3987 33.3186 43.2467C33.0146 43.0467 32.612 43.0894 32.3559 43.3454L32.0866 43.6147C31.8306 43.8707 31.7879 44.2734 31.9879 44.5774C32.1399 44.8068 32.1479 45.0975 32.0306 45.3455C31.9586 45.4921 31.8973 45.6441 31.8413 45.8015C31.7506 46.0601 31.5373 46.2602 31.2679 46.3162C30.9132 46.3908 30.6572 46.7028 30.6572 47.0682V47.4469C30.6572 47.8095 30.9132 48.1242 31.2679 48.1962C31.5373 48.2522 31.7506 48.4496 31.8413 48.7109C31.8946 48.8682 31.9586 49.0202 32.0306 49.1669C32.1506 49.4149 32.1399 49.7056 31.9879 49.9349C31.7879 50.2389 31.8306 50.6416 32.0866 50.8976L32.3559 51.167C32.612 51.423 33.0146 51.4657 33.3186 51.2656C33.548 51.1136 33.8387 51.1056 34.0867 51.223C34.2333 51.295 34.3853 51.3563 34.5427 51.4123C34.8014 51.503 35.0014 51.7163 35.0574 51.9857C35.132 52.343 35.444 52.5964 35.8067 52.5964H36.1854C36.5481 52.5964 36.8628 52.3403 36.9348 51.9857C36.9908 51.7163 37.1881 51.503 37.4494 51.4123C37.6068 51.359 37.7588 51.295 37.9055 51.223C38.1535 51.103 38.4441 51.1136 38.6735 51.2656C38.9775 51.4657 39.3802 51.423 39.6362 51.167L39.9055 50.8976C40.1615 50.6416 40.2042 50.2389 40.0042 49.9349C39.8522 49.7056 39.8442 49.4149 39.9615 49.1669C40.0335 49.0202 40.0949 48.8682 40.1509 48.7109C40.2415 48.4522 40.4549 48.2522 40.7242 48.1962C41.0789 48.1215 41.3349 47.8095 41.3349 47.4442ZM35.6734 49.1109C34.892 48.9802 34.2653 48.3509 34.1373 47.5695C33.9267 46.2815 35.0254 45.1801 36.3187 45.3935C37.1001 45.5215 37.7321 46.1535 37.8575 46.9348C38.0681 48.2256 36.9641 49.3243 35.6734 49.1109Z" fill="url(#paint42_linear_1256_61388)"/>
<path d="M24.6647 32.6675C25.4312 29.4527 23.4463 26.2251 20.2315 25.4587C17.0166 24.6922 13.7891 26.677 13.0226 29.8919C12.2561 33.1067 14.2409 36.3342 17.4558 37.1007C20.6707 37.8672 23.8982 35.8824 24.6647 32.6675Z" fill="url(#paint43_linear_1256_61388)"/>
<path d="M18.8456 36.3163C21.6248 36.3163 23.8778 34.0633 23.8778 31.2841C23.8778 28.5049 21.6248 26.252 18.8456 26.252C16.0665 26.252 13.8135 28.5049 13.8135 31.2841C13.8135 34.0633 16.0665 36.3163 18.8456 36.3163Z" fill="url(#paint44_linear_1256_61388)"/>
<path d="M19.5156 30.0187C19.5156 29.6454 19.1903 29.4107 18.6942 29.4107C18.1982 29.4107 17.8356 29.6241 17.5929 29.9734L16.6729 29.4347C17.0835 28.8107 17.7982 28.416 18.8223 28.416C19.961 28.416 20.753 28.9254 20.753 29.8214C20.753 31.0374 19.4756 31.1734 19.4756 31.9788H18.3289C18.3289 30.9148 19.5129 30.6801 19.5129 30.0187H19.5156ZM18.1796 33.1948C18.1796 32.8082 18.4836 32.5175 18.9076 32.5175C19.3316 32.5175 19.6383 32.8055 19.6383 33.1948C19.6383 33.5842 19.3343 33.8855 18.9076 33.8855C18.4809 33.8855 18.1796 33.5735 18.1796 33.1948Z" fill="#FFC431"/>
<path d="M74.5849 14.4069C76.4209 13.7328 77.3629 11.698 76.6888 9.86192C76.0147 8.02586 73.9799 7.0839 72.1438 7.75798C70.3078 8.43206 69.3658 10.4669 70.0399 12.303C70.714 14.139 72.7488 15.081 74.5849 14.4069Z" fill="url(#paint45_linear_1256_61388)"/>
<path d="M74.3891 13.8829C75.9337 13.3167 76.7269 11.6056 76.1607 10.061C75.5946 8.51634 73.8834 7.72314 72.3388 8.28931C70.7942 8.85548 70.001 10.5666 70.5671 12.1113C71.1333 13.6559 72.8444 14.4491 74.3891 13.8829Z" fill="url(#paint46_linear_1256_61388)"/>
<path d="M73.0372 11.9142C72.9386 11.9142 72.8399 11.9036 72.7412 11.8822C72.3812 11.8049 72.0745 11.5889 71.8772 11.2796C71.4665 10.6395 71.6532 9.78884 72.2932 9.37816C72.9332 8.96748 73.7839 9.15415 74.1946 9.79417C74.6053 10.4342 74.4186 11.2849 73.7786 11.6956C73.5546 11.8396 73.2986 11.9142 73.0372 11.9142ZM73.0319 9.63417C72.8639 9.63417 72.6959 9.6795 72.5465 9.77817C72.1279 10.0475 72.0052 10.6075 72.2745 11.0262C72.4052 11.2289 72.6052 11.3702 72.8425 11.4209C73.0772 11.4716 73.3199 11.4289 73.5226 11.2982C73.9413 11.0289 74.0639 10.4689 73.7946 10.0502C73.6212 9.78084 73.3306 9.63417 73.0346 9.63417H73.0319Z" fill="#FFC431"/>
<path d="M74.5704 13.1711C74.4931 13.1711 74.4158 13.1338 74.3704 13.0618L73.4477 11.6244C73.3784 11.515 73.4104 11.3684 73.5197 11.2964C73.6291 11.227 73.7757 11.259 73.8478 11.3684L74.7704 12.8058C74.8398 12.9151 74.8078 13.0618 74.6984 13.1338C74.6584 13.1604 74.6158 13.1711 74.5704 13.1711Z" fill="#FFC431"/>
<path d="M18.7228 57.916C18.9335 59.0467 19.8189 59.9347 20.9496 60.1428C19.8189 60.3534 18.9308 61.2388 18.7228 62.3695C18.5122 61.2388 17.6268 60.3508 16.4961 60.1428C17.6268 59.9321 18.5148 59.0467 18.7228 57.916Z" fill="url(#paint47_linear_1256_61388)"/>
<path d="M90.5226 67.3867C90.7333 68.5174 91.6187 69.4055 92.7494 69.6135C91.6187 69.8241 90.7306 70.7095 90.5226 71.8402C90.312 70.7095 89.4266 69.8215 88.2959 69.6135C89.4266 69.4028 90.3146 68.5174 90.5226 67.3867Z" fill="url(#paint48_linear_1256_61388)"/>
<path d="M92.0295 28.9609C92.2401 30.0916 93.1255 30.9797 94.2562 31.1877C93.1255 31.3983 92.2375 32.2837 92.0295 33.4144C91.8188 32.2837 90.9334 31.3957 89.8027 31.1877C90.9334 30.977 91.8215 30.0916 92.0295 28.9609Z" fill="url(#paint49_linear_1256_61388)"/>
<path d="M46.6486 0.751953C46.8593 1.88266 47.7446 2.77068 48.8753 2.97869C47.7446 3.18936 46.8566 4.07473 46.6486 5.20543C46.4379 4.07473 45.5526 3.1867 44.4219 2.97869C45.5526 2.76802 46.4406 1.88266 46.6486 0.751953Z" fill="url(#paint50_linear_1256_61388)"/>
<path d="M61.2713 20.7695C61.4126 21.5242 62.0019 22.1162 62.7593 22.2576C62.0046 22.3989 61.4126 22.9883 61.2713 23.7456C61.1299 22.9909 60.5406 22.3989 59.7832 22.2576C60.5379 22.1162 61.1299 21.5269 61.2713 20.7695Z" fill="url(#paint51_linear_1256_61388)"/>
<path d="M13.6267 42.8457C13.7681 43.6004 14.3574 44.1924 15.1148 44.3338C14.3601 44.4751 13.7681 45.0644 13.6267 45.8218C13.4854 45.0671 12.896 44.4751 12.1387 44.3338C12.8934 44.1924 13.4854 43.6031 13.6267 42.8457Z" fill="url(#paint52_linear_1256_61388)"/>
</g>
<defs>
<linearGradient id="paint0_linear_1256_61388" x1="50.911" y1="-4.25019" x2="51.4843" y2="79.1205" gradientUnits="userSpaceOnUse">
<stop stop-color="#F5F0FF"/>
<stop offset="1" stop-color="#D2C1F7"/>
</linearGradient>
<linearGradient id="paint1_linear_1256_61388" x1="47.3277" y1="77.3093" x2="57.2693" y2="76.9359" gradientUnits="userSpaceOnUse">
<stop stop-color="#263681"/>
<stop offset="1" stop-color="#1A1248"/>
</linearGradient>
<radialGradient id="paint2_radial_1256_61388" cx="0" cy="0" r="1" gradientUnits="userSpaceOnUse" gradientTransform="translate(50.5674 16.6307) scale(48.8549 48.8549)">
<stop stop-color="#FFD042"/>
<stop offset="1" stop-color="#F2830B"/>
</radialGradient>
<linearGradient id="paint3_linear_1256_61388" x1="41.9247" y1="75.3638" x2="62.4293" y2="74.5958" gradientUnits="userSpaceOnUse">
<stop stop-color="#5A32B0"/>
<stop offset="0.28" stop-color="#8968BB"/>
<stop offset="0.75" stop-color="#623CB2"/>
<stop offset="1" stop-color="#7855B7"/>
</linearGradient>
<linearGradient id="paint4_linear_1256_61388" x1="67.1707" y1="81.1987" x2="74.507" y2="83.5881" gradientUnits="userSpaceOnUse">
<stop stop-color="#263681"/>
<stop offset="1" stop-color="#1A1248"/>
</linearGradient>
<linearGradient id="paint5_linear_1256_61388" x1="74.5543" y1="81.4058" x2="81.8878" y2="83.7952" gradientUnits="userSpaceOnUse">
<stop stop-color="#263681"/>
<stop offset="1" stop-color="#1A1248"/>
</linearGradient>
<linearGradient id="paint6_linear_1256_61388" x1="69.5196" y1="61.3285" x2="85.7575" y2="66.6166" gradientUnits="userSpaceOnUse">
<stop stop-color="#263681"/>
<stop offset="1" stop-color="#1A1248"/>
</linearGradient>
<linearGradient id="paint7_linear_1256_61388" x1="68.4372" y1="19.3797" x2="76.7121" y2="34.9589" gradientUnits="userSpaceOnUse">
<stop stop-color="#9571CB"/>
<stop offset="1" stop-color="#6237C0"/>
</linearGradient>
<linearGradient id="paint8_linear_1256_61388" x1="80.9571" y1="28.9412" x2="81.4537" y2="26.5065" gradientUnits="userSpaceOnUse">
<stop stop-color="#FFC085"/>
<stop offset="1" stop-color="#FA976E"/>
</linearGradient>
<linearGradient id="paint9_linear_1256_61388" x1="78.7489" y1="21.8454" x2="85.1062" y2="23.9147" gradientUnits="userSpaceOnUse">
<stop stop-color="#FFC085"/>
<stop offset="1" stop-color="#FA976E"/>
</linearGradient>
<linearGradient id="paint10_linear_1256_61388" x1="78.3108" y1="20.8851" x2="86.22" y2="23.4596" gradientUnits="userSpaceOnUse">
<stop stop-color="#263681"/>
<stop offset="1" stop-color="#1A1248"/>
</linearGradient>
<linearGradient id="paint11_linear_1256_61388" x1="79.2643" y1="29.149" x2="79.003" y2="41.2" gradientUnits="userSpaceOnUse">
<stop stop-color="#9571CB"/>
<stop offset="1" stop-color="#6237C0"/>
</linearGradient>
<linearGradient id="paint12_linear_1256_61388" x1="86.5896" y1="27.8091" x2="85.9096" y2="47.8951" gradientUnits="userSpaceOnUse">
<stop stop-color="#9571CB"/>
<stop offset="1" stop-color="#6237C0"/>
</linearGradient>
<linearGradient id="paint13_linear_1256_61388" x1="83.8142" y1="17.2574" x2="78.7333" y2="25.924" gradientUnits="userSpaceOnUse">
<stop stop-color="#263681"/>
<stop offset="1" stop-color="#1A1248"/>
</linearGradient>
<linearGradient id="paint14_linear_1256_61388" x1="77.8646" y1="24.0261" x2="79.0753" y2="24.0261" gradientUnits="userSpaceOnUse">
<stop stop-color="#FFC085"/>
<stop offset="1" stop-color="#FA976E"/>
</linearGradient>
<linearGradient id="paint15_linear_1256_61388" x1="35.9322" y1="6.25906" x2="36.0495" y2="28.1718" gradientUnits="userSpaceOnUse">
<stop stop-color="#9571CB"/>
<stop offset="1" stop-color="#6237C0"/>
</linearGradient>
<linearGradient id="paint16_linear_1256_61388" x1="35.9433" y1="7.87553" x2="36.0419" y2="26.7428" gradientUnits="userSpaceOnUse">
<stop stop-color="#F5F0FF"/>
<stop offset="1" stop-color="#D2C1F7"/>
</linearGradient>
<linearGradient id="paint17_linear_1256_61388" x1="36.2527" y1="17.9686" x2="35.6073" y2="13.7418" gradientUnits="userSpaceOnUse">
<stop stop-color="#263681"/>
<stop offset="1" stop-color="#1A1248"/>
</linearGradient>
<linearGradient id="paint18_linear_1256_61388" x1="35.9937" y1="11.309" x2="35.9937" y2="15.1118" gradientUnits="userSpaceOnUse">
<stop stop-color="#FFC085"/>
<stop offset="1" stop-color="#FA976E"/>
</linearGradient>
<linearGradient id="paint19_linear_1256_61388" x1="32.1378" y1="14.7216" x2="30.5271" y2="20.2817" gradientUnits="userSpaceOnUse">
<stop stop-color="#9571CB"/>
<stop offset="1" stop-color="#6237C0"/>
</linearGradient>
<linearGradient id="paint20_linear_1256_61388" x1="31.2095" y1="13.0148" x2="31.2095" y2="16.8176" gradientUnits="userSpaceOnUse">
<stop stop-color="#FFC085"/>
<stop offset="1" stop-color="#FA976E"/>
</linearGradient>
<linearGradient id="paint21_linear_1256_61388" x1="40.4904" y1="15.0122" x2="40.9518" y2="19.7537" gradientUnits="userSpaceOnUse">
<stop stop-color="#F2830B"/>
<stop offset="1" stop-color="#FAAD1E"/>
</linearGradient>
<linearGradient id="paint22_linear_1256_61388" x1="40.7808" y1="13.0148" x2="40.7808" y2="16.8176" gradientUnits="userSpaceOnUse">
<stop stop-color="#FFC085"/>
<stop offset="1" stop-color="#FA976E"/>
</linearGradient>
<linearGradient id="paint23_linear_1256_61388" x1="36.2527" y1="21.235" x2="35.6073" y2="17.0055" gradientUnits="userSpaceOnUse">
<stop stop-color="#9571CB"/>
<stop offset="1" stop-color="#6237C0"/>
</linearGradient>
<linearGradient id="paint24_linear_1256_61388" x1="35.9937" y1="14.5727" x2="35.9937" y2="18.3755" gradientUnits="userSpaceOnUse">
<stop stop-color="#FFC085"/>
<stop offset="1" stop-color="#FA976E"/>
</linearGradient>
<linearGradient id="paint25_linear_1256_61388" x1="32.1378" y1="17.9899" x2="30.5271" y2="23.55" gradientUnits="userSpaceOnUse">
<stop stop-color="#F2830B"/>
<stop offset="1" stop-color="#FAAD1E"/>
</linearGradient>
<linearGradient id="paint26_linear_1256_61388" x1="31.2095" y1="16.2797" x2="31.2095" y2="20.0825" gradientUnits="userSpaceOnUse">
<stop stop-color="#FFC085"/>
<stop offset="1" stop-color="#FA976E"/>
</linearGradient>
<linearGradient id="paint27_linear_1256_61388" x1="40.4904" y1="18.2779" x2="40.9518" y2="23.0194" gradientUnits="userSpaceOnUse">
<stop stop-color="#9571CB"/>
<stop offset="1" stop-color="#6237C0"/>
</linearGradient>
<linearGradient id="paint28_linear_1256_61388" x1="40.7808" y1="16.2797" x2="40.7808" y2="20.0825" gradientUnits="userSpaceOnUse">
<stop stop-color="#FFC085"/>
<stop offset="1" stop-color="#FA976E"/>
</linearGradient>
<linearGradient id="paint29_linear_1256_61388" x1="36.2527" y1="24.494" x2="35.6073" y2="20.2672" gradientUnits="userSpaceOnUse">
<stop stop-color="#263681"/>
<stop offset="1" stop-color="#1A1248"/>
</linearGradient>
<linearGradient id="paint30_linear_1256_61388" x1="35.9937" y1="17.8344" x2="35.9937" y2="21.6372" gradientUnits="userSpaceOnUse">
<stop stop-color="#FFC085"/>
<stop offset="1" stop-color="#FA976E"/>
</linearGradient>
<linearGradient id="paint31_linear_1256_61388" x1="15.4697" y1="83.9997" x2="15.4697" y2="77.4395" gradientUnits="userSpaceOnUse">
<stop stop-color="#6237C0"/>
<stop offset="1" stop-color="#9571CB"/>
</linearGradient>
<linearGradient id="paint32_linear_1256_61388" x1="20.6884" y1="84.3379" x2="20.6884" y2="72.8576" gradientUnits="userSpaceOnUse">
<stop stop-color="#6237C0"/>
<stop offset="1" stop-color="#9571CB"/>
</linearGradient>
<linearGradient id="paint33_linear_1256_61388" x1="20.7338" y1="72.804" x2="20.6538" y2="71.4467" gradientUnits="userSpaceOnUse">
<stop stop-color="#F2830B"/>
<stop offset="1" stop-color="#FAAD1E"/>
</linearGradient>
<linearGradient id="paint34_linear_1256_61388" x1="25.9042" y1="83.9589" x2="25.9042" y2="73.6594" gradientUnits="userSpaceOnUse">
<stop stop-color="#6237C0"/>
<stop offset="1" stop-color="#9571CB"/>
</linearGradient>
<linearGradient id="paint35_linear_1256_61388" x1="31.124" y1="84.0019" x2="31.124" y2="72.0574" gradientUnits="userSpaceOnUse">
<stop stop-color="#6237C0"/>
<stop offset="1" stop-color="#9571CB"/>
</linearGradient>
<linearGradient id="paint36_linear_1256_61388" x1="36.3398" y1="83.7068" x2="36.3398" y2="62.115" gradientUnits="userSpaceOnUse">
<stop stop-color="#6237C0"/>
<stop offset="1" stop-color="#9571CB"/>
</linearGradient>
<linearGradient id="paint37_linear_1256_61388" x1="36.5078" y1="67.4742" x2="36.2171" y2="62.474" gradientUnits="userSpaceOnUse">
<stop stop-color="#F2830B"/>
<stop offset="1" stop-color="#FAAD1E"/>
</linearGradient>
<linearGradient id="paint38_linear_1256_61388" x1="15.5577" y1="80.0475" x2="15.4057" y2="77.4315" gradientUnits="userSpaceOnUse">
<stop stop-color="#F2830B"/>
<stop offset="1" stop-color="#FAAD1E"/>
</linearGradient>
<linearGradient id="paint39_linear_1256_61388" x1="55.9484" y1="17.1578" x2="55.2684" y2="5.36546" gradientUnits="userSpaceOnUse">
<stop stop-color="#F2830B"/>
<stop offset="1" stop-color="#FAAD1E"/>
</linearGradient>
<linearGradient id="paint40_linear_1256_61388" x1="59.7542" y1="3.57814" x2="58.8929" y2="13.0318" gradientUnits="userSpaceOnUse">
<stop stop-color="#9571CB"/>
<stop offset="1" stop-color="#6237C0"/>
</linearGradient>
<linearGradient id="paint41_linear_1256_61388" x1="25.8351" y1="54.7188" x2="24.3924" y2="43.6758" gradientUnits="userSpaceOnUse">
<stop stop-color="#F2830B"/>
<stop offset="1" stop-color="#FAAD1E"/>
</linearGradient>
<linearGradient id="paint42_linear_1256_61388" x1="36.4041" y1="42.6387" x2="35.6574" y2="51.047" gradientUnits="userSpaceOnUse">
<stop stop-color="#9571CB"/>
<stop offset="1" stop-color="#6237C0"/>
</linearGradient>
<linearGradient id="paint43_linear_1256_61388" x1="22.0002" y1="20.4584" x2="17.7841" y2="34.9042" gradientUnits="userSpaceOnUse">
<stop stop-color="#FFE14D"/>
<stop offset="1" stop-color="#F7A523"/>
</linearGradient>
<linearGradient id="paint44_linear_1256_61388" x1="21.4991" y1="22.1825" x2="17.9549" y2="34.3295" gradientUnits="userSpaceOnUse">
<stop stop-color="#FAAD1E"/>
<stop offset="1" stop-color="#F2830B"/>
</linearGradient>
<linearGradient id="paint45_linear_1256_61388" x1="75.235" y1="4.68155" x2="72.7389" y2="13.2285" gradientUnits="userSpaceOnUse">
<stop stop-color="#FFE14D"/>
<stop offset="1" stop-color="#F7A523"/>
</linearGradient>
<linearGradient id="paint46_linear_1256_61388" x1="74.9367" y1="5.69855" x2="72.8407" y2="12.8854" gradientUnits="userSpaceOnUse">
<stop stop-color="#FAAD1E"/>
<stop offset="1" stop-color="#F2830B"/>
</linearGradient>
<linearGradient id="paint47_linear_1256_61388" x1="17.9815" y1="58.4947" x2="19.4669" y2="61.7908" gradientUnits="userSpaceOnUse">
<stop stop-color="#9571CB"/>
<stop offset="1" stop-color="#6237C0"/>
</linearGradient>
<linearGradient id="paint48_linear_1256_61388" x1="89.7813" y1="67.9681" x2="91.264" y2="71.2642" gradientUnits="userSpaceOnUse">
<stop stop-color="#9571CB"/>
<stop offset="1" stop-color="#6237C0"/>
</linearGradient>
<linearGradient id="paint49_linear_1256_61388" x1="91.2881" y1="29.5396" x2="92.7708" y2="32.8357" gradientUnits="userSpaceOnUse">
<stop stop-color="#9571CB"/>
<stop offset="1" stop-color="#6237C0"/>
</linearGradient>
<linearGradient id="paint50_linear_1256_61388" x1="45.9073" y1="1.33064" x2="47.39" y2="4.62674" gradientUnits="userSpaceOnUse">
<stop stop-color="#9571CB"/>
<stop offset="1" stop-color="#6237C0"/>
</linearGradient>
<linearGradient id="paint51_linear_1256_61388" x1="60.7779" y1="21.1562" x2="61.7673" y2="23.3589" gradientUnits="userSpaceOnUse">
<stop stop-color="#9571CB"/>
<stop offset="1" stop-color="#6237C0"/>
</linearGradient>
<linearGradient id="paint52_linear_1256_61388" x1="13.1307" y1="43.2324" x2="14.1227" y2="45.4351" gradientUnits="userSpaceOnUse">
<stop stop-color="#9571CB"/>
<stop offset="1" stop-color="#6237C0"/>
</linearGradient>
<clipPath id="clip0_1256_61388">
<rect width="102.966" height="84" fill="white"/>
</clipPath>
</defs>
</svg>
