<svg width="88" height="84" viewBox="0 0 88 84" fill="none" xmlns="http://www.w3.org/2000/svg">
<path d="M59.1686 6.58415C63.1767 6.70518 66.8022 7.71089 69.9182 9.48992C73.1963 11.3614 75.9062 14.0865 77.8742 17.5152C79.9382 21.1116 81.1708 25.4546 81.3717 30.3191C81.5805 35.3689 80.6746 40.9032 78.4807 46.5942C76.2462 52.3919 72.9445 57.656 68.9351 62.1191C64.9534 66.5517 60.3674 70.0885 55.5551 72.5489C50.8768 74.941 46.0723 76.271 41.4707 76.4442C37.0672 76.6101 32.909 75.7143 29.2512 73.7182C25.7855 71.8269 23.1024 69.1262 21.1801 65.9257C19.3493 62.8772 18.1977 59.3575 17.7057 55.6054C17.2331 51.9997 17.3657 48.1446 18.1007 44.2253C18.8158 40.4131 20.1097 36.4901 22.0075 32.6017C23.8812 28.7623 26.1994 25.2509 28.8118 22.1474C31.4363 19.0296 34.3998 16.2716 37.5578 13.9839C40.7796 11.6501 44.2503 9.77126 47.8162 8.49254C51.5069 7.16854 55.3495 6.46912 59.1682 6.58461L59.1686 6.58415Z" fill="url(#paint0_radial_1256_61485)"/>
<path d="M85.1625 35.4127C84.7274 28.8348 82.3344 22.9391 78.7537 17.5794C78.4534 17.1299 77.3354 15.4266 77.0328 14.9785C84.5223 26.0653 81.2603 42.7719 75.1088 53.6313C73.715 56.0913 72.1295 58.4436 70.3699 60.6569C64.3777 68.1962 56.102 74.5381 46.7481 77.1931C41.29 78.742 34.1013 78.3877 27.4443 75.6011C39.892 82.1343 57.5471 80.6957 68.0046 71.7049C77.602 63.4537 84.7131 51.9415 85.2074 39.0193C85.2392 38.191 85.2425 37.3618 85.2166 36.533C85.205 36.1676 85.188 35.8026 85.1639 35.4377C85.1635 35.4294 85.163 35.4206 85.1621 35.4123L85.1625 35.4127Z" fill="url(#paint1_linear_1256_61485)"/>
<path d="M52.5831 28.3888C46.1992 22.5676 36.5274 30.2644 34.0772 36.422C32.3448 40.7751 32.0514 46.9636 36.6554 49.8006C36.7007 49.8283 36.7464 49.856 36.7921 49.8828C36.7944 49.8842 36.7972 49.8856 36.7995 49.8869C36.8018 49.8883 36.8046 49.8897 36.8069 49.8916C36.8092 49.893 36.812 49.8943 36.8143 49.8957C36.8166 49.8971 36.8194 49.8985 36.8217 49.9003C37.0901 50.0556 37.358 50.2112 37.6264 50.366C33.4299 47.9416 33.3228 42.8036 34.6893 38.6732C36.441 33.3781 40.8722 28.3357 46.5946 27.3905C48.9058 27.0089 51.3778 27.5194 53.27 29.0157C53.0405 28.8074 52.8118 28.5981 52.5826 28.3893L52.5831 28.3888Z" fill="url(#paint2_linear_1256_61485)"/>
<path d="M49.5515 37.164C49.4701 35.9906 48.4376 34.3516 47.3955 33.666C48.4012 34.5618 48.7241 36.108 48.6063 37.3705C48.4215 39.3565 47.1691 41.3652 45.6035 42.5727C44.1136 43.7217 41.9299 44.173 40.2451 43.3359C42.2353 44.3245 43.9358 44.981 46.0243 43.6755C47.7969 42.5677 49.1117 40.572 49.478 38.5185C49.5556 38.0843 49.5833 37.6232 49.5515 37.1636V37.164Z" fill="url(#paint3_linear_1256_61485)"/>
<path d="M61.8227 21.5853C61.2582 20.9668 60.6405 20.4055 59.9739 19.907C56.3678 17.211 51.6733 16.6779 47.3626 17.6046C40.7256 19.0316 34.9634 23.5108 30.9845 28.8923C28.4691 32.2942 26.545 36.3512 25.5375 40.472C24.5752 44.4084 24.535 48.6358 25.9001 52.4512C27.2652 56.2666 30.1257 59.6205 33.8815 61.1431C30.7327 59.7226 28.3943 56.8256 27.1779 53.5923C25.8082 49.9501 25.6354 45.7448 26.3736 41.9419C26.497 41.3063 26.6453 40.6664 26.8194 40.0234C29.7524 29.175 39.663 18.2901 51.5495 18.0042C55.6162 17.9062 59.8529 19.4266 62.6228 22.4608L61.8232 21.5849L61.8227 21.5853Z" fill="url(#paint4_linear_1256_61485)"/>
<path d="M59.2641 33.6132C58.8806 30.7892 57.6421 28.1292 55.5411 26C57.1413 27.6215 58.1313 29.7969 58.4889 32.0476C60.0005 41.5651 52.1008 52.3927 42.691 54.3315C40.3608 54.8115 37.8117 54.6133 35.6631 53.5194C38.0168 54.6739 40.6995 55.1141 43.2989 54.7542C45.8495 54.4013 48.2545 53.3198 50.3421 51.8328C52.5161 50.2842 54.3732 48.2987 55.8524 46.0813C57.2758 43.9474 58.3679 41.5725 58.9684 39.0751C59.4073 37.2503 59.5066 35.3992 59.2641 33.6132Z" fill="url(#paint5_linear_1256_61485)"/>
<path d="M70.4078 32.1825C70.1565 27.6848 68.437 23.1741 65.4278 19.793C68.1095 23.0309 69.4806 27.1738 69.6266 31.3366C70.0885 44.4994 61.4225 57.5057 50.1348 63.1976C44.7455 65.9153 38.0645 67.0998 32.3477 64.6736C43.7638 69.5182 56.2295 62.7338 63.1969 53.5877C67.8083 47.5346 70.8374 39.8779 70.4073 32.182L70.4078 32.1825Z" fill="url(#paint6_linear_1256_61485)"/>
<path d="M54.295 14.2089C57.2581 14.4426 59.8932 15.3467 62.1138 16.8181C64.42 18.3458 66.2762 20.4833 67.5729 23.1022C68.9158 25.8144 69.6513 29.026 69.6605 32.5684C69.6702 36.2073 68.914 40.1534 67.2897 44.1864C65.6437 48.2725 63.2928 51.9872 60.4752 55.1595C57.6711 58.3166 54.4516 60.8833 51.064 62.7307C47.7439 64.5416 44.3068 65.6374 40.9779 65.9322C37.7538 66.2176 34.6637 65.7492 31.8961 64.4723C29.237 63.2458 27.1318 61.3896 25.5819 59.1195C24.0879 56.9312 23.1044 54.3502 22.6309 51.5529C22.1717 48.8398 22.1888 45.9045 22.6909 42.8915C23.182 39.9428 24.1424 36.8906 25.5958 33.855C27.0343 30.849 28.8402 28.1021 30.8881 25.6828C32.9434 23.2547 35.2689 21.1259 37.7437 19.3843C40.2572 17.6154 42.9533 16.2258 45.7038 15.3255C48.5283 14.4011 51.4401 13.983 54.296 14.2084L54.295 14.2089ZM33.4788 60.9193C35.8916 61.9574 38.5669 62.2997 41.3438 62.0013C44.1974 61.6945 47.1313 60.7133 49.9576 59.1361C52.8329 57.5317 55.5627 55.3291 57.9427 52.6381C60.333 49.9361 62.3365 46.7808 63.7561 43.311C65.1596 39.88 65.8391 36.5154 65.8747 33.4009C65.9094 30.357 65.3291 27.581 64.2273 25.2203C63.1579 22.9295 61.6029 21.0414 59.6492 19.6721C57.7589 18.3472 55.4975 17.5096 52.9378 17.256C50.4589 17.0107 47.918 17.335 45.4433 18.1134C43.0253 18.8738 40.649 20.0736 38.4292 21.617C36.24 23.1392 34.181 25.0111 32.3631 27.1537C30.5508 29.2894 28.9575 31.7179 27.6954 34.3761C26.4222 37.0578 25.5921 39.7501 25.1823 42.3455C24.7647 44.9898 24.7799 47.5565 25.217 49.9176C25.666 52.3425 26.5636 54.565 27.9038 56.4327C29.2878 58.361 31.1486 59.9173 33.4792 60.9203L33.4788 60.9193Z" fill="url(#paint7_linear_1256_61485)"/>
<path d="M72.8891 16.3134C71.9425 15.0466 70.8703 13.9116 69.6858 12.9202C62.7794 7.14053 53.091 7.20983 45.068 10.3563C32.9899 15.0928 23.6406 26.0669 19.396 38.1977C15.1949 50.2033 16.627 66.5957 29.752 72.2299C28.319 71.6566 26.6129 70.0439 25.4742 68.9943C24.2462 67.8629 23.1985 66.4978 22.3092 65.0902C20.4794 62.1937 19.2958 58.8901 18.7668 55.5099C17.8438 49.6115 18.741 43.3297 20.7727 37.7422C24.9434 26.2734 34.0566 15.9539 45.4884 11.3666C49.8457 9.61807 54.6663 8.83734 59.3451 9.3529C64.7996 9.95392 70.2979 12.8458 73.6088 17.2766L72.8886 16.3129L72.8891 16.3134Z" fill="url(#paint8_linear_1256_61485)"/>
<path d="M58.2845 5.25682C62.4796 5.34875 66.2862 6.36231 69.5685 8.18615C73.03 10.1093 75.9039 12.9306 78.0054 16.4979C80.2146 20.2486 81.5515 24.7943 81.7996 29.9005C82.0573 35.2117 81.1334 41.044 78.8388 47.0482C76.4985 53.1712 73.0185 58.7295 68.7818 63.4351C64.576 68.1066 59.7291 71.8212 54.646 74.3879C49.7118 76.8793 44.6518 78.2403 39.816 78.377C35.1986 78.5073 30.8496 77.5191 27.0366 75.3779C23.4332 73.3545 20.6549 70.4926 18.674 67.1193C16.7915 63.9128 15.6176 60.224 15.1289 56.3028C14.66 52.5406 14.8171 48.5265 15.5959 44.4515C16.3526 40.492 17.7057 36.4221 19.6802 32.3895C21.6288 28.4097 24.0338 24.7703 26.7404 21.5509C29.46 18.3162 32.5307 15.4511 35.8029 13.0691C39.1438 10.6369 42.7462 8.67122 46.4512 7.32227C50.2902 5.92436 54.2954 5.16951 58.2845 5.25682ZM28.6742 71.702C32.1418 73.5291 36.0685 74.3191 40.2128 74.1163C44.5322 73.9047 49.0313 72.6177 53.4038 70.3489C57.8937 68.0192 62.1701 64.6968 65.8853 60.5506C69.6244 56.3777 72.7131 51.4637 74.8197 46.0527C76.8902 40.735 77.7698 35.5568 77.6151 30.8207C77.4659 26.2477 76.3534 22.1505 74.4584 18.743C72.6466 15.4852 70.1317 12.8807 67.072 11.0758C64.1556 9.35539 60.7486 8.36309 56.9679 8.21017C53.3567 8.06419 49.7127 8.69801 46.2059 9.93285C42.8118 11.128 39.5032 12.901 36.4297 15.1143C33.414 17.286 30.5831 19.9113 28.0774 22.885C25.5827 25.8458 23.3718 29.1974 21.59 32.8631C19.7864 36.574 18.5641 40.3146 17.8988 43.9452C17.2161 47.6733 17.1121 51.3321 17.5866 54.7465C18.0795 58.2921 19.2011 61.6067 20.9658 64.4644C22.8137 67.457 25.3776 69.966 28.6733 71.7025L28.6742 71.702Z" fill="url(#paint9_linear_1256_61485)"/>
<path d="M83.0206 29.7476C82.5004 24.6914 80.1495 19.0951 77.033 14.9785C82.5923 23.0112 82.1946 32.9772 79.657 42.1177C78.1801 47.4368 75.7774 52.494 72.6841 57.0619C70.4578 60.3493 67.8639 63.3872 64.9604 66.0952C64.6038 66.4274 64.2421 66.7544 63.8762 67.0764C61.2836 69.3553 58.4601 71.3783 55.4365 73.046C52.2429 74.807 48.8304 76.0991 45.3009 77.0046C41.9734 77.8583 38.5082 78.3956 35.0711 78.0232C34.0922 77.917 33.4113 77.8056 32.4407 77.5876C32.2046 77.5345 31.5168 77.3802 31.2881 77.3095C32.7701 77.8223 34.417 78.3826 35.9664 78.6903C39.2884 79.4022 42.8645 79.2816 46.2124 78.7628C49.491 78.2547 52.6767 77.2235 55.6772 75.8164C60.387 73.6073 64.6352 70.4941 68.3296 66.8441C71.8793 63.3373 74.9195 59.3149 77.325 54.9433C79.9647 50.1458 81.8841 44.9025 82.7268 39.4827C83.2266 36.2678 83.3537 32.9865 83.0201 29.7476H83.0206Z" fill="url(#paint10_linear_1256_61485)"/>
<path d="M39.6475 42.8311C39.7695 42.9651 39.9039 43.0894 40.0513 43.2012C41.3291 44.1717 43.1871 43.9445 44.6095 43.2012C46.6426 42.1386 48.138 40.1023 48.5427 37.8442C48.8342 36.2176 48.4512 34.3046 47.0589 33.4144C43.5109 31.1466 39.3971 35.7057 38.7943 38.8882C38.5351 40.2566 38.7337 41.8249 39.6475 42.8311Z" fill="url(#paint11_linear_1256_61485)"/>
<path d="M50.1789 23.444C51.9464 23.693 53.4856 24.3513 54.7519 25.3418C56.0477 26.3553 57.0562 27.7154 57.7265 29.335C58.4107 30.9884 58.7396 32.906 58.6601 34.9858C58.5793 37.0979 58.0785 39.3634 57.1098 41.6636C56.1341 43.9813 54.7865 46.0906 53.1932 47.9057C51.6045 49.7157 49.7862 51.2161 47.8677 52.3332C45.9713 53.4377 43.9913 54.1589 42.0506 54.4379C40.1454 54.7118 38.2897 54.558 36.5943 53.9288C34.9386 53.3144 33.5947 52.3054 32.5756 51.0207C31.5791 49.7642 30.8908 48.2411 30.5222 46.5567C30.1604 44.9038 30.1045 43.0887 30.3683 41.2034C30.6284 39.3436 31.2008 37.4042 32.1049 35.4672C33.0029 33.5422 34.1518 31.7844 35.4657 30.2437C36.7827 28.6994 38.2768 27.3606 39.8636 26.2851C41.4662 25.199 43.1755 24.3735 44.9046 23.876C46.6628 23.3701 48.452 23.2001 50.1798 23.4436L50.1789 23.444ZM38.1262 50.4908C39.4594 50.9482 40.9095 51.0369 42.3906 50.7985C43.8929 50.5564 45.4197 49.9785 46.8786 49.1123C51.4816 46.3793 54.9464 41.1443 55.2208 35.7416C55.3026 34.1279 55.0725 32.6326 54.5676 31.3349C54.0705 30.0576 53.3092 28.9752 52.3196 28.1589C51.3477 27.3569 50.1562 26.8118 48.7791 26.5877C47.4265 26.3674 46.017 26.4773 44.627 26.8584C43.1962 27.2502 41.8468 27.9076 40.6157 28.7308C39.3471 29.579 38.1525 30.6415 37.1001 31.8722C36.0496 33.1005 35.134 34.5045 34.423 36.0428C33.7084 37.5885 33.263 39.1334 33.0708 40.6107C32.8764 42.1043 32.9392 43.5364 33.2459 44.834C33.5578 46.1511 34.1223 47.3333 34.9275 48.2993C35.7475 49.2823 36.8183 50.0432 38.1266 50.4918L38.1262 50.4908Z" fill="url(#paint12_linear_1256_61485)"/>
<path d="M9.93336 6.63621C9.86868 6.11973 9.65987 5.69703 10.1431 5.47852C9.79384 5.47852 8.8579 5.673 9.02836 6.67039L10.1195 13.052L11.0208 13.0183C10.6817 11.0364 10.3431 9.05461 10.004 7.07277C9.98186 6.94295 9.95276 6.79281 9.93336 6.63621Z" fill="url(#paint13_linear_1256_61485)"/>
<path d="M10.0909 5.48089C10.6115 5.44255 11.4606 5.86248 12.7038 7.14859C15.2474 9.77627 21.9297 19.1094 21.0446 20.6168C21.016 20.6625 20.9832 20.706 20.9434 20.7471L10.5519 13.0188L9.46077 6.6372C9.36237 6.06112 9.54762 5.52108 10.0914 5.48135L10.0909 5.48089Z" fill="url(#paint14_linear_1256_61485)"/>
<path d="M43.9808 38.2743L38.804 29.2891L33.1348 36.4131L43.5845 38.8121C43.8949 38.8837 44.1411 38.5497 43.9808 38.2743Z" fill="url(#paint15_linear_1256_61485)"/>
<path d="M33.3621 34.7636C33.2059 35.0666 32.6377 36.058 33.0211 36.3587C33.0562 36.386 33.0946 36.4036 33.1352 36.4133C33.2835 36.4474 33.46 36.3749 33.6009 36.2936C34.3719 35.8497 35.0242 35.2265 35.6262 34.5714C36.6028 33.5089 37.469 32.3447 38.2067 31.1043C38.47 30.6622 38.72 30.2016 38.8271 29.6981C38.8558 29.5623 38.8669 29.4047 38.8045 29.2883C38.7874 29.2565 38.7648 29.2278 38.7361 29.2038C38.6022 29.092 38.4003 29.1345 38.2391 29.2015C37.8034 29.3826 37.4375 29.6916 37.0934 30.0067C35.6179 31.3566 34.2809 32.9794 33.3625 34.7636H33.3621Z" fill="url(#paint16_linear_1256_61485)"/>
<path d="M38.0939 30.3869C38.0241 30.7334 37.6984 31.2088 37.6074 31.3631C37.139 32.1567 36.5952 32.889 36.0007 33.5944C35.6962 33.9552 35.4001 34.3349 35.0536 34.656C34.7247 34.9604 34.3903 35.2893 33.9759 35.4755C33.8225 35.5443 33.7209 35.5411 33.6724 35.4723C33.6239 35.4034 33.6271 35.2709 33.6862 35.0782C33.8802 34.4504 34.2674 33.8942 34.6369 33.3583C35.116 32.664 35.6445 32.0071 36.2146 31.3852C36.6331 30.9284 37.0983 30.4197 37.6481 30.119C37.8153 30.0285 37.9372 30.0049 38.0047 30.0488C38.1063 30.1148 38.1234 30.2396 38.0934 30.3874L38.0939 30.3869Z" fill="url(#paint17_radial_1256_61485)"/>
<mask id="mask0_1256_61485" style="mask-type:luminance" maskUnits="userSpaceOnUse" x="32" y="29" width="13" height="10">
<path d="M43.9809 38.2736L38.804 29.2883C38.787 29.2565 38.7643 29.2278 38.7357 29.2038C38.6017 29.092 38.3998 29.1345 38.2386 29.2015C37.803 29.3826 37.4371 29.6916 37.0929 30.0067C35.6174 31.3566 34.2805 32.9794 33.3621 34.7636C33.2059 35.0666 32.6377 36.058 33.0211 36.3587C33.0562 36.386 33.0946 36.4036 33.1352 36.4133L43.5849 38.8122C43.8954 38.8839 44.1416 38.5499 43.9813 38.2745L43.9809 38.2736Z" fill="white"/>
</mask>
<g mask="url(#mask0_1256_61485)">
<path d="M37.0295 33.8872C39.3832 30.925 40.5862 27.9634 39.7164 27.2723C38.8467 26.5813 36.2336 28.4224 33.8799 31.3845C31.5262 34.3467 30.3232 37.3083 31.193 37.9994C32.0627 38.6904 34.6758 36.8493 37.0295 33.8872Z" fill="url(#paint18_radial_1256_61485)"/>
</g>
<path d="M36.7843 32.5972C36.7594 32.6332 36.7326 32.6674 36.7062 32.7034C36.5797 32.8739 36.4485 33.0457 36.314 33.213C36.211 33.3428 36.1061 33.4694 36.0013 33.5927C35.9731 33.6269 35.9449 33.6602 35.9154 33.693C35.0746 33.0564 34.2333 32.4202 33.3925 31.7841C32.4913 31.1022 31.5895 30.4204 30.6882 29.7385C29.4584 28.8086 28.2291 27.8786 26.9994 26.9487C25.5691 25.8668 24.1384 24.7848 22.7082 23.7029C21.204 22.5651 19.6998 21.4273 18.1952 20.2894C16.7442 19.1918 15.2931 18.0946 13.8421 16.997C12.5717 16.0361 11.3008 15.0752 10.0304 14.1139C9.06719 13.3853 8.10445 12.6573 7.14125 11.9288C6.61276 11.5291 6.08427 11.1295 5.55578 10.7299C5.49387 10.6828 5.43151 10.6362 5.36914 10.589L5.4255 8.86914C5.69945 9.07656 5.97339 9.28399 6.2478 9.49141C6.99249 10.055 7.73719 10.6186 8.48234 11.1822C9.58228 12.0147 10.6827 12.8471 11.7826 13.6796C13.1228 14.6936 14.463 15.7076 15.8027 16.7217C17.2671 17.8299 18.732 18.9382 20.1964 20.0464C21.6701 21.1616 23.1443 22.2768 24.6179 23.392C25.9854 24.4268 27.3533 25.4616 28.7207 26.4969C29.8668 27.364 31.013 28.2311 32.1591 29.0987C32.968 29.7108 33.7774 30.3234 34.5863 30.9355C35.3185 31.4894 36.0512 32.0433 36.7839 32.5972H36.7843Z" fill="url(#paint19_linear_1256_61485)"/>
<path d="M5.60244 9.88558C5.58073 10.3559 5.46708 10.6645 5.34789 10.5744C5.22917 10.4843 5.15017 10.0302 5.17142 9.55989C5.19314 9.08961 5.30678 8.78101 5.42597 8.8711C5.54469 8.96118 5.62369 9.41529 5.60244 9.88558Z" fill="url(#paint20_linear_1256_61485)"/>
<path d="M3.25294 14.9842C3.05845 15.3371 3.16655 15.7801 3.34256 16.1428C4.31823 18.1505 6.66688 19.1678 8.63439 19.9129C8.37985 19.8164 8.11884 19.7083 7.86152 19.5812C6.4576 18.8901 4.7109 17.495 4.14499 16.5151C3.93249 16.1474 3.81284 15.6748 4.0101 15.2983C4.27619 14.7906 4.9405 14.7264 5.44543 14.6104C6.04091 14.4742 6.63639 14.3374 7.23186 14.2011C7.86199 14.0565 8.49211 13.9124 9.12223 13.7678C9.28808 13.7299 9.52276 13.48 9.69276 13.4412L8.9878 13.3262L5.55631 14.1129C4.24062 14.4146 3.55599 14.4349 3.2534 14.9842H3.25294Z" fill="url(#paint21_linear_1256_61485)"/>
<path d="M9.69225 13.4414L20.3036 21.5531C20.0205 21.8317 19.5927 22.0922 18.8637 22.0774C16.1713 22.0229 10.6125 20.7691 7.89566 19.5939C4.30432 18.0398 2.33819 15.1276 4.57365 14.6148L9.69271 13.4414H9.69225Z" fill="url(#paint22_linear_1256_61485)"/>
<defs>
<radialGradient id="paint0_radial_1256_61485" cx="0" cy="0" r="1" gradientUnits="userSpaceOnUse" gradientTransform="translate(10.2523 30.0151) scale(67.2518 67.2518)">
<stop offset="0.04" stop-color="#F3F8FB"/>
<stop offset="0.57" stop-color="#DFEEF0"/>
<stop offset="0.78" stop-color="#ECFCFF"/>
<stop offset="1" stop-color="#A6BBBE"/>
</radialGradient>
<linearGradient id="paint1_linear_1256_61485" x1="82.533" y1="10.7067" x2="43.9514" y2="85.2789" gradientUnits="userSpaceOnUse">
<stop stop-color="#E43E4F"/>
<stop offset="0.53" stop-color="#941919"/>
<stop offset="1" stop-color="#E43E4F"/>
</linearGradient>
<linearGradient id="paint2_linear_1256_61485" x1="60.8375" y1="-0.51739" x2="22.2559" y2="74.0548" gradientUnits="userSpaceOnUse">
<stop stop-color="#C54331"/>
<stop offset="0.53" stop-color="#C40000"/>
<stop offset="1" stop-color="#C54331"/>
</linearGradient>
<linearGradient id="paint3_linear_1256_61485" x1="65.2976" y1="1.78933" x2="26.7155" y2="76.362" gradientUnits="userSpaceOnUse">
<stop stop-color="#C54331"/>
<stop offset="0.53" stop-color="#C40000"/>
<stop offset="1" stop-color="#C54331"/>
</linearGradient>
<linearGradient id="paint4_linear_1256_61485" x1="60.2765" y1="-0.808532" x2="21.6948" y2="73.7636" gradientUnits="userSpaceOnUse">
<stop stop-color="#C54331"/>
<stop offset="0.53" stop-color="#C40000"/>
<stop offset="1" stop-color="#C54331"/>
</linearGradient>
<linearGradient id="paint5_linear_1256_61485" x1="69.5415" y1="3.98864" x2="30.9635" y2="78.5534" gradientUnits="userSpaceOnUse">
<stop stop-color="#C54331"/>
<stop offset="0.53" stop-color="#C40000"/>
<stop offset="1" stop-color="#C54331"/>
</linearGradient>
<linearGradient id="paint6_linear_1256_61485" x1="75.1332" y1="6.87867" x2="36.5516" y2="81.4508" gradientUnits="userSpaceOnUse">
<stop stop-color="#C54331"/>
<stop offset="0.53" stop-color="#C40000"/>
<stop offset="1" stop-color="#C54331"/>
</linearGradient>
<linearGradient id="paint7_linear_1256_61485" x1="21.8598" y1="30.0086" x2="74.1181" y2="51.8186" gradientUnits="userSpaceOnUse">
<stop stop-color="#F58C86"/>
<stop offset="0.23" stop-color="#EB6168"/>
<stop offset="0.44" stop-color="#E43E4F"/>
<stop offset="0.61" stop-color="#E43E4F"/>
<stop offset="0.69" stop-color="#E23A4A"/>
<stop offset="0.78" stop-color="#DC2F3C"/>
<stop offset="0.88" stop-color="#D31E26"/>
<stop offset="0.98" stop-color="#C60507"/>
<stop offset="1" stop-color="#C40000"/>
</linearGradient>
<linearGradient id="paint8_linear_1256_61485" x1="60.8479" y1="-0.513341" x2="22.2663" y2="74.0593" gradientUnits="userSpaceOnUse">
<stop stop-color="#C54331"/>
<stop offset="0.53" stop-color="#C40000"/>
<stop offset="1" stop-color="#C54331"/>
</linearGradient>
<linearGradient id="paint9_linear_1256_61485" x1="21.5955" y1="30.6438" x2="73.8537" y2="52.4542" gradientUnits="userSpaceOnUse">
<stop stop-color="#F58C86"/>
<stop offset="0.23" stop-color="#EB6168"/>
<stop offset="0.44" stop-color="#E43E4F"/>
<stop offset="0.61" stop-color="#E43E4F"/>
<stop offset="0.69" stop-color="#E23A4A"/>
<stop offset="0.78" stop-color="#DC2F3C"/>
<stop offset="0.88" stop-color="#D31E26"/>
<stop offset="0.98" stop-color="#C60507"/>
<stop offset="1" stop-color="#C40000"/>
</linearGradient>
<linearGradient id="paint10_linear_1256_61485" x1="87.9447" y1="19.8999" x2="44.3936" y2="80.1788" gradientUnits="userSpaceOnUse">
<stop stop-color="#E43E4F"/>
<stop offset="0.34" stop-color="#C40000"/>
<stop offset="0.38" stop-color="#C60507"/>
<stop offset="0.55" stop-color="#D31E26"/>
<stop offset="0.71" stop-color="#DC2F3C"/>
<stop offset="0.86" stop-color="#E23A4A"/>
<stop offset="1" stop-color="#E43E4F"/>
</linearGradient>
<linearGradient id="paint11_linear_1256_61485" x1="22.1228" y1="29.3814" x2="74.381" y2="51.1913" gradientUnits="userSpaceOnUse">
<stop stop-color="#F58C86"/>
<stop offset="0.23" stop-color="#EB6168"/>
<stop offset="0.44" stop-color="#E43E4F"/>
<stop offset="0.61" stop-color="#E43E4F"/>
<stop offset="0.69" stop-color="#E23A4A"/>
<stop offset="0.78" stop-color="#DC2F3C"/>
<stop offset="0.88" stop-color="#D31E26"/>
<stop offset="0.98" stop-color="#C60507"/>
<stop offset="1" stop-color="#C40000"/>
</linearGradient>
<linearGradient id="paint12_linear_1256_61485" x1="22.0312" y1="29.597" x2="74.2894" y2="51.4074" gradientUnits="userSpaceOnUse">
<stop stop-color="#F58C86"/>
<stop offset="0.23" stop-color="#EB6168"/>
<stop offset="0.44" stop-color="#E43E4F"/>
<stop offset="0.61" stop-color="#E43E4F"/>
<stop offset="0.69" stop-color="#E23A4A"/>
<stop offset="0.78" stop-color="#DC2F3C"/>
<stop offset="0.88" stop-color="#D31E26"/>
<stop offset="0.98" stop-color="#C60507"/>
<stop offset="1" stop-color="#C40000"/>
</linearGradient>
<linearGradient id="paint13_linear_1256_61485" x1="9.42381" y1="5.12372" x2="10.7543" y2="12.9337" gradientUnits="userSpaceOnUse">
<stop stop-color="#E43E4F"/>
<stop offset="0.14" stop-color="#F58C86"/>
<stop offset="0.38" stop-color="#EB6168"/>
<stop offset="0.61" stop-color="#E43E4F"/>
<stop offset="0.69" stop-color="#E23A4A"/>
<stop offset="0.78" stop-color="#DC2F3C"/>
<stop offset="0.88" stop-color="#D31E26"/>
<stop offset="0.98" stop-color="#C60507"/>
<stop offset="1" stop-color="#C40000"/>
</linearGradient>
<linearGradient id="paint14_linear_1256_61485" x1="9.43536" y1="13.1131" x2="21.125" y2="13.1131" gradientUnits="userSpaceOnUse">
<stop stop-color="#C54331"/>
<stop offset="0.53" stop-color="#C40000"/>
<stop offset="1" stop-color="#C54331"/>
</linearGradient>
<linearGradient id="paint15_linear_1256_61485" x1="37.9933" y1="38.3797" x2="42.2166" y2="32.0091" gradientUnits="userSpaceOnUse">
<stop stop-color="#F6D952"/>
<stop offset="0.06" stop-color="#F2C744"/>
<stop offset="0.16" stop-color="#EDAF32"/>
<stop offset="0.25" stop-color="#EAA127"/>
<stop offset="0.32" stop-color="#E99D24"/>
<stop offset="0.53" stop-color="#E99F25"/>
<stop offset="0.67" stop-color="#ECA82B"/>
<stop offset="0.79" stop-color="#F0B735"/>
<stop offset="0.9" stop-color="#F7CD44"/>
<stop offset="1" stop-color="#FFE856"/>
</linearGradient>
<linearGradient id="paint16_linear_1256_61485" x1="37.4345" y1="29.5406" x2="34.3062" y2="35.9269" gradientUnits="userSpaceOnUse">
<stop stop-color="#F6D952"/>
<stop offset="0.51" stop-color="#F4CC45"/>
<stop offset="1" stop-color="#F4C841"/>
</linearGradient>
<radialGradient id="paint17_radial_1256_61485" cx="0" cy="0" r="1" gradientUnits="userSpaceOnUse" gradientTransform="translate(35.2112 33.3361) scale(3.81724)">
<stop stop-color="#EFAB26"/>
<stop offset="0.52" stop-color="#DF8B26"/>
<stop offset="0.6" stop-color="#D9831D"/>
<stop offset="0.84" stop-color="#C96E07"/>
<stop offset="1" stop-color="#C46700"/>
</radialGradient>
<radialGradient id="paint18_radial_1256_61485" cx="0" cy="0" r="1" gradientUnits="userSpaceOnUse" gradientTransform="translate(35.5896 32.5827) rotate(-51.53) scale(6.87111 1.98901)">
<stop offset="0.21" stop-color="#F4C841"/>
<stop offset="0.69" stop-color="#F6D246"/>
<stop offset="0.7" stop-color="#F6D44C"/>
<stop offset="0.75" stop-color="#F9E36C"/>
<stop offset="0.81" stop-color="#FBEE85"/>
<stop offset="0.87" stop-color="#FDF697"/>
<stop offset="0.93" stop-color="#FEFBA2"/>
<stop offset="1" stop-color="#FFFDA6"/>
</radialGradient>
<linearGradient id="paint19_linear_1256_61485" x1="21.0936" y1="20.7514" x2="19.753" y2="22.5069" gradientUnits="userSpaceOnUse">
<stop offset="0.06" stop-color="#EFAB26"/>
<stop offset="0.15" stop-color="#ECA525"/>
<stop offset="0.28" stop-color="#E49424"/>
<stop offset="0.36" stop-color="#DD8523"/>
<stop offset="0.45" stop-color="#DE8723"/>
<stop offset="0.51" stop-color="#E29023"/>
<stop offset="0.56" stop-color="#E9A025"/>
<stop offset="0.59" stop-color="#EFAB26"/>
</linearGradient>
<linearGradient id="paint20_linear_1256_61485" x1="5.4001" y1="8.27562" x2="5.37838" y2="10.6317" gradientUnits="userSpaceOnUse">
<stop stop-color="#F6D952"/>
<stop offset="0.12" stop-color="#FCE354"/>
<stop offset="0.25" stop-color="#FFE856"/>
<stop offset="0.29" stop-color="#FCDE4F"/>
<stop offset="0.47" stop-color="#F1BA37"/>
<stop offset="0.62" stop-color="#EBA429"/>
<stop offset="0.71" stop-color="#E99D24"/>
</linearGradient>
<linearGradient id="paint21_linear_1256_61485" x1="6.34211" y1="12.9977" x2="6.71307" y2="19.7826" gradientUnits="userSpaceOnUse">
<stop offset="0.09" stop-color="#E43E4F"/>
<stop offset="0.3" stop-color="#F58C86"/>
<stop offset="0.44" stop-color="#EB6168"/>
<stop offset="0.57" stop-color="#E43E4F"/>
<stop offset="0.64" stop-color="#E23A4A"/>
<stop offset="0.71" stop-color="#DC2F3C"/>
<stop offset="0.79" stop-color="#D31E26"/>
<stop offset="0.87" stop-color="#C60507"/>
<stop offset="0.88" stop-color="#C40000"/>
</linearGradient>
<linearGradient id="paint22_linear_1256_61485" x1="16.5908" y1="12.3271" x2="10.2919" y2="20.6153" gradientUnits="userSpaceOnUse">
<stop stop-color="#E43E4F"/>
<stop offset="0.09" stop-color="#DC303D"/>
<stop offset="0.42" stop-color="#C40000"/>
<stop offset="0.78" stop-color="#D92833"/>
<stop offset="0.95" stop-color="#E43E4F"/>
</linearGradient>
</defs>
</svg>
