<svg width="93" height="84" viewBox="0 0 93 84" fill="none" xmlns="http://www.w3.org/2000/svg">
<g clip-path="url(#clip0_1256_61548)">
<path d="M3.87118 56.163C5.22533 52.1933 8.90839 49.485 13.0899 48.2156C14.1777 47.8847 15.3442 47.7353 16.3229 47.1702C18.6619 45.8201 19.3743 42.8252 19.4409 40.1997C19.8123 25.5179 34.4597 23.5321 37.271 23.7924C48.4251 24.8237 46.9236 33.4874 53.4421 38.3228C57.6539 41.4469 64.2572 36.4884 68.915 38.9222C72.8685 40.9867 72.8544 46.8332 76.4708 49.4063C79.0641 51.2529 81.0681 48.704 85.4858 52.6414C91.1688 57.7068 92.7005 71.6722 84.8279 79.668L11.542 79.9828C8.84381 79.5267 -1.44857 71.7691 3.87319 56.163H3.87118Z" fill="#E8E1FF"/>
<path d="M67.1872 73.1701C69.4414 69.376 72.0468 65.7898 74.9589 62.472C75.3969 63.8787 76.1395 65.1884 77.1244 66.2843C77.5502 64.9563 75.7783 62.9745 76.3858 61.7213C76.64 61.1966 85.659 56.1614 92.5751 54.9707C92.1634 60.0342 91.1584 64.9039 88.8819 69.9835C87.9879 69.4628 86.4461 69.6041 85.552 69.0834C86.1716 70.486 87.3421 71.0934 87.778 71.9229C84.2726 75.8582 79.195 80.0478 77.5442 80.6492C74.0932 81.9065 70.3516 81.0548 66.9894 79.9307C65.1953 79.3314 64.7533 79.2143 65.2942 77.3415C65.716 75.8844 66.4143 74.4677 67.1852 73.168L67.1872 73.1701Z" fill="#D2BFFF"/>
<path d="M69.5993 80.3853C74.6849 72.105 81.266 64.8075 88.9833 58.9025C89.1871 58.7471 88.9853 58.396 88.7794 58.5534C81.0036 64.5028 74.3741 71.8366 69.2501 80.1815C69.1129 80.4035 69.462 80.6073 69.5993 80.3853Z" fill="#F4F0FF"/>
<path d="M69.8127 72.2508C70.7875 73.4132 71.3324 74.7774 71.4313 76.293C71.4373 76.3919 71.5201 76.509 71.6331 76.4948C74.2243 76.1619 76.8257 76.0791 79.4331 76.2446C79.6934 76.2607 79.6914 75.8571 79.4331 75.841C77.0638 75.6896 74.7692 75.8672 72.408 75.9964C71.8773 76.0246 71.8954 76.0731 71.7683 75.5867C71.6411 75.1044 71.5786 74.6301 71.403 74.1579C71.1023 73.3466 70.6523 72.6281 70.0973 71.9662C69.9298 71.7664 69.6452 72.053 69.8127 72.2508Z" fill="#F4F0FF"/>
<path d="M73.9498 67.1724C74.749 68.5427 75.2495 70.0119 75.4412 71.588C75.4533 71.695 75.5239 71.7919 75.643 71.7898C77.7681 71.7454 79.8851 71.8403 81.9981 72.0724C82.2564 72.1006 82.2544 71.697 81.9981 71.6688C80.9426 71.5537 79.8851 71.4649 78.8256 71.4185C78.2948 71.3943 77.7661 71.3802 77.2353 71.3761C76.9104 71.3721 76.1879 71.5134 75.9235 71.3136C75.5522 71.0351 75.4937 69.687 75.3282 69.1945C75.0658 68.4155 74.7147 67.681 74.301 66.9706C74.1698 66.7466 73.8207 66.9484 73.9518 67.1744L73.9498 67.1724Z" fill="#F4F0FF"/>
<path d="M79.2678 62.3049C79.7945 63.4976 80.1235 64.7287 80.2607 66.0243C80.2749 66.1514 80.3798 66.2584 80.517 66.218C82.8863 65.5298 85.2899 64.991 87.7278 64.5995C87.9841 64.5591 87.8751 64.1696 87.6208 64.21C85.1829 64.5995 82.7793 65.1404 80.4101 65.8285C80.4948 65.8931 80.5796 65.9577 80.6664 66.0223C80.5211 64.652 80.176 63.3584 79.619 62.0991C79.514 61.8629 79.1669 62.0668 79.2698 62.3029L79.2678 62.3049Z" fill="#F4F0FF"/>
<path d="M60.0659 46.8207C60.3202 44.0276 60.7117 41.174 62.0174 38.6917C63.3231 36.2074 65.7186 34.1308 68.5158 33.9249C71.2644 33.7211 74.3743 35.4042 75.8294 37.7452C77.2845 40.0862 77.2118 42.9741 76.9111 45.7127C76.5923 48.6188 75.5812 51.3978 74.5802 54.1444C71.6257 62.2391 68.8972 68.1077 63.9225 75.1449C58.8026 82.3859 52.9258 81.391 55.7875 77.7039C61.4786 68.0109 59.0811 57.6135 60.0659 46.8227V46.8207Z" fill="#B7A5EF"/>
<path d="M57.6426 81.0769C60.6012 76.6794 62.6051 71.5817 64.3912 66.6212C66.6515 60.3468 68.4839 53.8768 69.6302 47.3017C70.1791 44.1474 70.5727 40.9528 70.5828 37.748C70.5828 37.4877 70.1791 37.4877 70.1791 37.748C70.1589 43.8508 68.8795 49.9535 67.3296 55.8323C65.7211 61.9311 63.6969 67.9632 61.1138 73.7229C60.0099 76.187 58.803 78.631 57.2935 80.8751C57.1482 81.091 57.4973 81.2929 57.6426 81.0789V81.0769Z" fill="#F4F0FF"/>
<path d="M64.5298 38.9355C66.0172 41.6054 67.4036 44.3622 69.5004 46.6204C69.561 46.687 69.67 46.6951 69.7446 46.6527C71.8495 45.46 74.1683 44.7154 76.1562 43.2986C76.3661 43.1493 76.1643 42.7981 75.9524 42.9495C74.9332 43.676 73.8132 44.2492 72.6911 44.7981C71.8172 45.2239 70.8384 45.8576 69.9 46.1139C69.5529 46.2088 69.8132 46.2431 69.5489 46.0836C69.3309 45.9525 69.0383 45.4964 68.8809 45.2986C68.3118 44.5882 67.8052 43.8294 67.3249 43.0565C66.4511 41.6478 65.6822 40.1786 64.8749 38.7316C64.7478 38.5056 64.4007 38.7074 64.5258 38.9355H64.5298Z" fill="#F4F0FF"/>
<path d="M61.6619 47.2837C63.8354 48.9688 65.5811 51.1948 67.4983 53.1523C67.6315 53.2896 67.8434 53.5943 68.0432 53.6468C68.5215 53.7719 69.5406 52.9667 69.9463 52.7406C71.8029 51.7033 73.5143 50.4703 75.0279 48.9728C75.2135 48.7892 74.927 48.5046 74.7433 48.6883C73.3347 50.0808 71.7545 51.2432 70.0371 52.226C69.6234 52.4642 68.4327 53.3158 68.0856 53.1705C67.801 53.0494 67.4579 52.5287 67.248 52.3068C65.5488 50.5066 63.9101 48.5208 61.9465 46.9991C61.7426 46.8417 61.4561 47.1263 61.6619 47.2837Z" fill="#F4F0FF"/>
<path d="M15.9374 77.7287C13.1968 76.6712 7.41088 74.199 9.06977 72.4352C9.82858 71.9427 10.771 71.7429 11.663 71.8882C12.1474 71.2909 11.2191 70.5825 10.4925 70.3262C8.55717 69.6421 1.13454 67.2991 3.12642 65.1921C3.77827 64.4091 6.44016 64.6594 6.31504 64.5443C4.13548 62.5666 2.91452 61.3517 1.20719 58.7281C0.125483 57.0652 -0.800832 53.7615 1.08409 53.1763C2.29294 53.1501 3.26163 54.151 3.94376 55.15C4.6279 56.147 5.75804 57.9451 6.97698 59.0934C6.92048 58.1994 6.4664 53.4649 9.02941 54.5446C10.6318 55.2206 11.3543 59.945 12.7125 61.6826C12.8941 61.9147 13.1887 62.167 13.445 62.0237C13.6045 61.9349 13.6549 61.7371 13.7336 61.5716C14.1998 60.5808 15.8062 60.8007 16.4601 61.6786C17.114 62.5565 17.1342 63.731 17.2714 64.8168C17.4086 65.9025 17.8022 67.1134 18.8072 67.5493C18.9505 66.9217 19.1099 66.2638 19.5438 65.7875C19.9777 65.3132 20.7849 65.1114 21.2693 65.5352C21.5034 65.7391 21.6184 66.0438 21.7233 66.3364C23.4206 71.1093 26.8756 77.1353 28.8453 81.6156C28.4598 81.3169 18.0807 78.5561 15.9374 77.7307V77.7287Z" fill="#B7A5EF"/>
<path d="M2.15343 56.9815C9.67091 66.5494 19.2247 74.2343 28.7037 81.7559C28.9056 81.9153 29.1921 81.6328 28.9883 81.4713C19.5092 73.9498 9.95546 66.2648 2.43798 56.6969C2.27855 56.4931 1.994 56.7797 2.15343 56.9815Z" fill="#F4F0FF"/>
<path d="M5.20742 66.5261C7.32039 67.0185 9.52013 67.2667 11.6896 67.2728C11.8107 67.2728 11.9318 67.1416 11.8833 67.0165C10.8904 64.4595 9.78047 61.7633 9.37685 59.0389C9.3385 58.7826 8.95102 58.8916 8.98735 59.1458C9.39097 61.8703 10.4989 64.5665 11.4938 67.1235C11.5584 67.0387 11.623 66.9539 11.6876 66.8671C9.55242 66.8611 7.39102 66.6189 5.31236 66.1346C5.0601 66.0761 4.95112 66.4655 5.2054 66.5241L5.20742 66.5261Z" fill="#F4F0FF"/>
<path d="M11.3034 73.8242C12.6737 73.9715 14.0379 74.1693 15.4163 74.2359C16.6191 74.2944 17.9995 74.355 19.1054 73.7959C19.2043 73.7455 19.2285 73.6103 19.1781 73.5195C17.5212 70.5387 16.7119 67.1301 15.3558 64.0101C15.2528 63.772 14.9037 63.9778 15.0066 64.2139C16.3648 67.336 17.1701 70.7385 18.829 73.7233C18.8532 73.6305 18.8774 73.5396 18.9016 73.4468C17.725 74.0401 16.165 73.8868 14.8936 73.8C13.6908 73.7172 12.5001 73.5477 11.3014 73.4186C11.0431 73.3903 11.0451 73.7939 11.3014 73.8222L11.3034 73.8242Z" fill="#F4F0FF"/>
<path d="M33.5376 72.4422C31.3136 71.0335 29.1239 70.0103 26.9 68.6037C23.9394 66.7289 5.48374 56.1641 6.88432 40.5923C7.13254 37.8355 8.68851 34.544 11.3706 33.8598C19.3078 31.8357 19.2917 41.8697 19.7094 44.0372C20.666 48.9977 23.2593 53.5244 26.46 57.4335C29.6608 61.3425 33.473 64.6966 37.2448 68.0588C38.0682 68.7914 38.9643 69.7036 38.8553 70.7994C38.8149 71.199 38.6414 71.5724 38.4698 71.9356C37.481 74.0264 35.0713 73.4169 33.5355 72.4442L33.5376 72.4422Z" fill="#D2BFFF"/>
<path d="M11.6716 36.4242C11.4334 39.4695 11.7967 42.2364 12.8562 45.09C13.7179 47.4128 14.7754 49.661 16.0085 51.8103C18.8682 56.8011 22.6521 61.2389 27.0335 64.9563C29.8568 67.3518 32.9223 69.4446 36.1432 71.269C36.3693 71.3981 36.5731 71.049 36.3471 70.9199C26.3715 65.2711 17.958 56.7729 13.6493 46.0325C13.1448 44.7752 12.6302 43.4775 12.3375 42.1516C11.9238 40.2828 11.9258 38.3233 12.0732 36.4242C12.0934 36.1659 11.6897 36.1659 11.6695 36.4242H11.6716Z" fill="#F4F0FF"/>
<path d="M8.04259 40.2962C9.43912 41.6847 10.87 42.9621 12.5571 43.9874C12.6721 44.058 12.8154 43.9874 12.8538 43.8663C13.4532 41.9309 14.4017 40.0137 15.7114 38.4597C15.8769 38.262 15.5944 37.9754 15.4269 38.1752C14.0687 39.7856 13.0879 41.7513 12.4643 43.7593C12.5632 43.7189 12.6621 43.6786 12.7609 43.6382C11.1041 42.6312 9.69744 41.3719 8.32714 40.0096C8.14349 39.826 7.85692 40.1126 8.04259 40.2942V40.2962Z" fill="#F4F0FF"/>
<path d="M9.03185 47.3919C10.2831 47.9993 11.5182 48.6431 12.7674 49.2586C13.3547 49.5472 13.9419 49.8398 14.5413 50.1022C14.7673 50.2011 15.0862 50.4049 15.3425 50.3746C15.4293 50.3645 15.514 50.3202 15.5362 50.2273C16.0387 48.1386 16.5735 46.0317 17.3303 44.0216C17.4212 43.7774 17.0317 43.6725 16.9408 43.9147C16.4343 45.2628 16.0468 46.6553 15.6755 48.0478C15.5322 48.5846 15.3929 49.1234 15.2598 49.6643C15.2275 49.7914 15.1972 49.9206 15.1649 50.0477C15.1568 50.078 15.3788 50.0739 15.1932 49.9387C14.8824 49.7147 14.3839 49.5936 14.0348 49.4281C13.4697 49.1597 12.9066 48.8812 12.3476 48.6027C11.3103 48.0861 10.2811 47.5533 9.2377 47.0468C9.00562 46.9338 8.79977 47.2809 9.03387 47.3959L9.03185 47.3919Z" fill="#F4F0FF"/>
<path d="M11.8606 53.9331C14.1007 54.9018 16.4095 55.7858 18.7868 56.3569C18.8917 56.3831 19.0068 56.3246 19.035 56.2156C19.5698 54.2157 19.7979 52.1633 19.9331 50.1007C19.9492 49.8404 19.5456 49.8424 19.5295 50.1007C19.3983 52.1269 19.1723 54.143 18.6475 56.1067C18.7303 56.0602 18.813 56.0118 18.8958 55.9654C16.5548 55.4023 14.2743 54.5366 12.0665 53.582C11.8304 53.4791 11.6245 53.8282 11.8626 53.9311L11.8606 53.9331Z" fill="#F4F0FF"/>
<path d="M10.8211 63.1335C10.4417 61.0105 10.3488 58.6513 11.5779 56.8794C12.599 55.4062 14.377 54.6131 16.1469 54.3346C17.497 54.1206 33.7771 52.7988 34.3745 53.3921C34.9254 53.941 36.6348 54.9521 37.3189 57.7956C38.1403 61.2083 40.6286 75.769 39.9263 78.8163C37.9829 79.3007 19.4122 79.3935 16.5222 79.4197C16.4032 78.338 11.4366 66.5926 10.819 63.1335H10.8211Z" fill="#363C89"/>
<path d="M42.4369 48.7698C46.9434 49.795 48.7173 59.2337 49.4015 61.5263C50.1522 64.0328 51.2238 66.4424 52.586 68.6764C53.2702 69.8005 54.0451 71.2031 53.3792 72.3373C52.9574 73.0537 52.0734 73.3726 51.244 73.4109C49.5912 73.4876 47.9969 72.6562 46.8163 71.4957C45.6357 70.3353 44.8143 68.8682 44.0514 67.399C41.7972 63.0499 40.4733 59.7584 39.4441 54.9694C39.3876 54.707 38.9618 47.9766 42.4369 48.7677V48.7698Z" fill="#D8702A"/>
<path d="M52.2412 74.3982C52.8164 74.9855 55.2744 75.2842 55.4763 75.1449C55.2623 73.8654 54.005 74.592 53.8496 73.6051C54.2311 73.3387 54.6851 73.4194 55.0605 73.4194C55.3874 73.4194 55.6922 73.7101 55.8314 74.0612C56.0413 74.592 55.9626 74.7575 56.0454 75.3225C56.1261 75.8795 56.6912 76.2872 56.6932 75.932C56.6932 75.2801 56.6932 74.2711 56.6952 73.6172C56.8566 74.1984 56.9697 76.0329 57.7527 75.8593C57.9424 74.9815 57.5367 74.2085 57.5327 73.3105C57.7547 74.0733 57.7527 75.8593 58.5337 75.6071C58.566 74.7877 58.2612 73.9603 58.2935 73.1409C58.4691 73.8634 58.7476 75.4295 59.1795 75.1772C59.3107 74.3881 59.0947 73.5547 58.9252 72.7736C58.8223 72.2994 58.8465 71.8393 58.5014 71.4962C58.2895 71.2863 55.2946 70.7051 54.0535 70.7777C53.2704 70.8241 52.2735 70.7031 51.7791 71.0966C49.8598 72.6203 51.5954 73.7403 52.2412 74.3982Z" fill="#FFBB8E"/>
<path d="M21.9886 57.9377C23.0138 62.9244 26.3982 63.5622 27.0299 68.6135C27.4497 71.9838 26.041 76.1613 25.0824 79.4205C32.8723 79.695 40.7591 79.5517 46.5168 79.3035C46.3069 74.5831 44.42 68.3128 44.8579 63.6086C45.1082 60.9104 45.7035 58.4079 45.3221 55.7258C44.9407 53.0438 43.7823 49.1589 42.4382 48.7734C39.8268 48.0227 37.631 47.3466 34.622 47.0197C33.3082 46.8764 29.4496 46.4748 26.1217 46.943C24.031 47.2376 22.2591 47.6292 21.5083 47.9339C16.5438 49.948 21.1027 53.627 21.9886 57.9397V57.9377Z" fill="#ED7C2A"/>
<path d="M34.8685 52.5338C35.3609 52.4975 37.4719 48.7236 37.3104 48.2574C36.7433 46.9598 35.6959 48.2695 35.3569 47.3089C35.0865 46.54 36.4204 43.0426 35.6717 42.1466C35.2237 41.6118 30.7556 39.9549 29.9625 41.4665C29.5891 42.1789 28.1865 45.3756 28.1865 46.207C28.1865 46.6914 33.4921 52.6367 34.8705 52.5338H34.8685Z" fill="#EAA27A"/>
<path d="M38.8747 71.096C39.1613 71.433 39.6759 72.5813 39.9968 73.552C40.1037 73.8729 40.2551 74.8961 40.2551 74.8961C39.4438 75.2876 39.1552 73.3179 38.8767 72.7629C38.794 73.3724 38.913 75.6428 38.6991 75.6226C37.9181 75.4288 38.0009 73.7215 38.0594 72.9042C37.9887 73.4471 37.8374 73.9395 37.678 74.4622C37.5145 74.997 37.3228 75.4995 37.0685 75.7598C36.566 75.6771 36.903 74.107 36.9938 73.4067C36.7072 74.6115 35.9706 75.8607 35.9706 75.8607C35.4641 75.8607 35.5085 75.1322 35.6719 74.7185C35.8354 74.3027 36.235 73.7962 35.9989 73.4188C36.0493 73.7821 35.3107 74.3068 34.9575 74.4037C34.6044 74.5025 33.6155 74.1595 33.2623 74.0585C31.5772 73.5782 27.6762 73.7498 28.1969 71.8729C28.5541 70.5874 30.1948 69.5238 31.3774 69.7035C32.4167 69.8609 33.8678 71.0939 35.0383 71.0939C37.1351 71.0939 38.0372 70.7731 38.8767 71.0939L38.8747 71.096Z" fill="#FFBB8E"/>
<path d="M33.3994 70.1205C31.2864 68.9237 22.4915 65.0651 22.4148 64.8693C22.1202 64.1267 26.3037 57.1117 26.5681 55.0411C26.8304 52.9705 26.7921 51.1603 25.3108 49.6891C23.3411 47.7335 21.5087 47.9293 21.5087 47.9293C20.1404 48.4076 19.7792 48.8596 19.0809 49.5377C18.09 50.4983 17.5189 51.8 16.9699 53.0654C15.3534 56.8029 13.7288 60.5627 12.7723 64.5222C12.5099 65.6039 12.3061 66.7704 12.7036 67.8097C12.9721 68.508 13.4927 69.0852 14.0699 69.5614C16.3988 71.4887 19.5733 71.9529 22.5702 72.3424C25.6801 72.746 28.9051 73.6501 32.015 74.0538C32.6547 74.1365 34.0714 70.4958 33.4014 70.1164L33.3994 70.1205Z" fill="#D8702A"/>
<path d="M26.1056 47.1673C26.1036 47.9948 26.7595 48.7798 27.1046 49.5306C27.6878 50.7999 28.271 52.0714 28.8543 53.3408C29.601 52.364 30.3477 51.3852 31.0944 50.4084C32.1519 51.5769 33.4798 52.5012 34.9429 53.0845C35.6372 52.1864 36.3314 51.2883 37.0276 50.3903C37.3102 51.2359 37.6855 52.0512 38.1437 52.816C38.5493 50.8322 38.8964 48.572 37.6815 46.9534C37.1063 46.1865 36.2103 45.6659 35.2578 45.5448C34.8925 46.7556 35.7138 48.0069 35.7058 49.2702C35.6977 50.2974 35.1468 51.2318 34.614 52.1097C33.9177 51.6698 33.2477 51.1894 32.608 50.6708C32.2871 50.4125 31.9662 50.1299 31.8007 49.7525C31.6595 49.4297 31.6433 49.0563 31.4576 48.7576C31.2659 48.4509 30.9269 48.2733 30.6484 48.0412C29.5102 47.0806 28.7857 45.2098 28.7857 44.1543C27.9037 44.1543 26.1056 45.5831 26.1016 47.1673H26.1056Z" fill="#D8702A"/>
<path d="M34.9457 54.0376C36.0658 59.2887 37.1111 64.6286 36.7963 70.0251C36.7822 70.2854 37.1858 70.2834 37.1999 70.0251C37.5148 64.5943 36.4613 59.216 35.3332 53.9306C35.2787 53.6763 34.8892 53.7833 34.9437 54.0376H34.9457Z" fill="#D8702A"/>
<path d="M37.0639 38.6065C36.9287 39.442 36.9731 40.3481 37.4372 41.0565C37.9014 41.7628 38.8741 42.1765 39.6329 41.8032C40.6097 41.3249 40.7025 39.9849 40.5835 38.9052C40.5088 38.223 40.3897 37.5127 39.978 36.9658C38.5997 35.1373 37.2839 37.2281 37.0619 38.6065H37.0639Z" fill="#4B4DF6"/>
<path d="M30.5257 42.2306C31.3672 43.9501 33.008 45.3204 34.903 45.5948C35.6537 45.7038 36.465 45.6291 37.0906 45.2013C37.5084 44.9147 37.8151 44.4909 38.0856 44.0631C39.2944 42.1499 39.9947 39.9199 40.0976 37.6576C40.1783 35.8736 39.7646 33.8655 38.2833 32.8686C37.1572 32.1118 35.7001 32.1239 34.344 32.1663C33.6457 32.1865 32.9212 32.2147 32.2976 32.5336C31.6518 32.8645 31.1957 33.47 30.7679 34.0573C29.2139 36.1884 29.3693 39.8714 30.5237 42.2306H30.5257Z" fill="#FFBB8E"/>
<path d="M34.7187 42.958C35.3 43.5029 36.1334 43.6764 36.8761 43.3737C37.1142 43.2768 37.0093 42.8873 36.7691 42.9842C36.1577 43.2324 35.4897 43.1275 35.0053 42.6714C34.8156 42.4938 34.5311 42.7784 34.7208 42.956L34.7187 42.958Z" fill="#E28E60"/>
<path d="M33.8226 34.9811C33.9376 35.2011 33.9416 35.4614 34.0082 35.7016C34.1556 36.2162 34.6298 36.6219 35.1626 36.6844C35.6934 36.747 36.2504 36.4644 36.5127 35.9983C36.6055 35.8348 36.6681 35.6451 36.8114 35.524C37.1343 35.2516 37.6388 35.4836 37.9193 35.7985C38.1999 36.1153 38.3774 36.6118 38.7912 36.7026C39.9798 36.9649 40.2543 36.1335 40.4379 35.3646C40.6176 35.9054 41.8668 35.7056 42.2482 35.2818C42.6276 34.858 42.5691 34.1658 42.2401 33.6996C41.9132 33.2334 41.3804 32.957 40.8476 32.7572C40.6519 32.6845 40.448 32.6159 40.2926 32.4766C39.7377 31.9701 40.2079 31.0418 40.0404 30.3092C39.8527 29.4918 38.7589 29.0943 38.0223 29.4959C37.4733 29.7966 37.1222 30.4182 36.5268 30.6119C36.5087 30.4747 34.5935 29.73 34.5713 30.2426C34.5713 30.2426 33.7539 29.6735 32.4664 29.9984C31.8408 30.1558 31.2616 30.7269 31.2555 31.3727C30.6723 31.2496 30.5552 31.2617 29.9841 31.4313C29.413 31.6008 28.8943 32.071 28.8338 32.6663C28.8116 32.8782 28.8479 33.0982 28.7995 33.3061C28.6723 33.8429 28.0104 34.0326 27.8489 34.5069C27.6169 35.1991 27.9216 35.8307 28.0185 36.5633C28.1779 37.7621 27.9297 38.8095 29.4655 38.7146C30.4846 38.6521 31.2939 39.1526 31.639 38.3171C31.8024 37.9215 32.753 32.9166 33.8205 34.9791L33.8226 34.9811Z" fill="#241F3F"/>
<path d="M27.4033 38.031C27.2681 38.8665 27.379 39.9745 27.8432 40.6808C28.3074 41.3872 29.2801 41.8009 30.0389 41.4275C31.0157 40.9492 31.1085 39.6092 30.9895 38.5295C30.9148 37.8474 30.7957 37.137 30.384 36.5901C29.0056 34.7617 27.6253 36.6507 27.4033 38.031Z" fill="#4B4DF6"/>
<path d="M29.6438 36.5965C29.672 34.8771 30.0676 32.9256 31.5428 31.8499C32.5822 31.0911 34.6084 30.3525 36.5276 30.6148C36.5276 30.6148 36.0029 30.1285 35.46 30.0397C33.8899 29.7834 32.2936 30.2354 31.0201 31.1739C29.333 32.415 28.8244 34.6087 28.7901 36.5965C28.78 37.1455 29.6337 37.1455 29.6438 36.5965Z" fill="#4B4DF6"/>
<path d="M29.1875 39.9681C29.5265 42.0952 31.3328 43.9721 33.5083 44.1698C33.7666 44.194 33.7646 43.7904 33.5083 43.7662C31.5023 43.5826 29.8858 41.7965 29.577 39.8612C29.5366 39.6048 29.1471 39.7138 29.1875 39.9681Z" fill="#4B4DF6"/>
<path d="M35.1363 43.8138C35.1363 44.3385 34.7125 44.7623 34.1878 44.7623C33.6631 44.7623 33.2393 44.3385 33.2393 43.8138C33.2393 43.289 33.6631 42.8652 34.1878 42.8652C34.7125 42.8652 35.1363 43.289 35.1363 43.8138Z" fill="#4B4DF6"/>
<path d="M37.1189 40.6947C37.1673 41.0842 37.355 41.4576 37.6456 41.7462C37.7324 41.8329 37.8373 41.9298 37.8252 42.0469C37.805 42.2487 37.4983 42.285 37.2803 42.2487C36.8363 42.174 36.4065 42.0327 36.0129 41.835C35.9786 41.8168 35.9423 41.7986 35.9161 41.7724C35.8717 41.728 35.8515 41.6674 35.8414 41.6069C35.7829 41.2578 35.9645 40.9167 36.0795 40.5797C36.2067 40.1983 36.1683 38.3154 36.8182 38.4546C37.5487 38.612 37.0664 40.2608 37.1209 40.6927L37.1189 40.6947Z" fill="#E28E60"/>
<path d="M27.7909 39.3727C27.799 39.8026 27.8434 40.2829 28.1643 40.5695C28.5315 40.8984 29.1955 40.7854 29.4336 40.3535C29.5487 40.1457 29.5668 39.8995 29.583 39.6633C29.6213 39.0458 29.6435 38.4182 29.5103 37.8127C29.3993 37.3082 29.0946 36.7613 28.582 36.6967C27.7667 36.5938 27.7828 38.8924 27.7909 39.3727Z" fill="#737AFF"/>
<path d="M35.3727 38.9298C35.3727 39.2669 35.2052 39.5413 34.9993 39.5413C34.7935 39.5413 34.626 39.2669 34.626 38.9298C34.626 38.5928 34.7935 38.3184 34.9993 38.3184C35.2052 38.3184 35.3727 38.5928 35.3727 38.9298Z" fill="#241F3F"/>
<path d="M38.5247 39.7074C38.7309 39.7074 38.8981 39.4336 38.8981 39.0959C38.8981 38.7581 38.7309 38.4844 38.5247 38.4844C38.3185 38.4844 38.1514 38.7581 38.1514 39.0959C38.1514 39.4336 38.3185 39.7074 38.5247 39.7074Z" fill="#241F3F"/>
<path d="M34.0069 37.6984C34.3157 37.3836 34.7475 37.2928 35.1613 37.4401C35.4055 37.5289 35.5124 37.1374 35.2682 37.0506C34.7253 36.8548 34.1239 37.0022 33.7223 37.4118C33.5407 37.5975 33.8253 37.8841 34.0069 37.6964V37.6984Z" fill="#241F3F"/>
<path d="M38.3052 37.5961C38.616 37.6264 38.8965 37.7414 39.1508 37.919C39.3627 38.0684 39.5645 37.7192 39.3546 37.5699C39.0418 37.3479 38.6866 37.2288 38.3072 37.1905C38.0489 37.1663 38.0509 37.5699 38.3072 37.5941L38.3052 37.5961Z" fill="#241F3F"/>
<path d="M87.7277 77.7051H7.47334C6.507 77.7051 5.72363 78.4885 5.72363 79.4548V79.6526C5.72363 80.6189 6.507 81.4023 7.47334 81.4023H87.7277C88.694 81.4023 89.4774 80.6189 89.4774 79.6526V79.4548C89.4774 78.4885 88.694 77.7051 87.7277 77.7051Z" fill="#B7A5EF"/>
<path d="M9.92773 81.4023H85.2741V81.5416C85.2741 82.8998 84.1722 84.0017 82.814 84.0017H12.3878C11.0296 84.0017 9.92773 82.8998 9.92773 81.5416V81.4023Z" fill="#D2BFFF"/>
<path d="M73.4355 70.0262H45.1637C44.0639 70.0262 43.2062 69.0716 43.3232 67.9778L45.0608 51.7017C45.1617 50.7613 45.9548 50.0469 46.9013 50.0469H75.1731C76.273 50.0469 77.1307 51.0014 77.0136 52.0953L75.276 68.3714C75.1751 69.3118 74.382 70.0262 73.4355 70.0262Z" fill="#4B4DF6"/>
<path d="M74.5009 70.0262H46.2292C45.1293 70.0262 44.2716 69.0716 44.3886 67.9778L46.1262 51.7017C46.2271 50.7613 47.0203 50.0469 47.9668 50.0469H76.2385C77.3384 50.0469 78.1961 51.0014 78.079 52.0953L76.3414 68.3714C76.2405 69.3118 75.4474 70.0262 74.5009 70.0262Z" fill="#363C89"/>
<path d="M61.6703 61.7246H59.8056C59.1033 61.7246 58.5342 62.2937 58.5342 62.996V76.5678H62.9417V62.996C62.9417 62.2937 62.3726 61.7246 61.6703 61.7246Z" fill="#4B4DF6"/>
<path d="M67.6337 76.5664H53.4141V77.7046H67.6337V76.5664Z" fill="#363C89"/>
<path d="M55.2646 76.5664H38.5264V77.7046H55.2646V76.5664Z" fill="#4B4DF6"/>
<path d="M31.721 75.1445H30.1388C29.0632 75.1445 28.1934 76.0164 28.1934 77.09C28.1934 77.429 28.4678 77.7035 28.8069 77.7035H33.055C33.394 77.7035 33.6685 77.429 33.6685 77.09C33.6685 76.0143 32.7967 75.1445 31.723 75.1445H31.721Z" fill="#4B4DF6"/>
<path d="M58.7253 14.2921C58.5578 13.1801 57.8656 12.2114 57.6073 11.1156C57.0988 8.96428 58.3318 6.73628 58.0634 4.54058C57.6941 1.51946 54.2371 -0.555165 51.2704 0.128976C50.0374 0.41353 49.2664 0.677903 48.0858 0.421603C44.6147 -0.327118 42.0638 1.31563 41.3696 3.19853C39.7006 7.73323 42.2313 8.45572 42.8831 12.2538C43.1576 13.8562 40.6632 16.4818 43.8296 20.2193C44.8972 21.4806 46.5521 22.2172 48.1989 22.5079C47.8457 23.303 47.3492 24.2152 46.7821 24.6652C46.7821 24.6652 49.0404 24.0376 50.4208 22.6996C54.3783 22.7581 59.7909 21.3999 58.7233 14.2901L58.7253 14.2921Z" fill="#D2BFFF"/>
<path d="M53.1436 15.1732L52.0781 13.8494C51.7753 13.474 51.2264 13.4135 50.849 13.7162L50.5281 13.9745C50.3405 14.1258 50.064 14.0956 49.9126 13.9079L48.5908 12.2651L48.4333 12.0694L47.1115 10.4266C46.9601 10.239 46.9904 9.96247 47.1781 9.81111L47.499 9.5528C47.8743 9.25008 47.9349 8.70115 47.6322 8.32376L46.5666 6.99988C46.2639 6.62451 45.7149 6.56397 45.3376 6.86668L44.9864 7.14922C44.0722 7.88381 43.9289 9.22182 44.6635 10.136L45.493 11.1673L47.0893 13.1511L47.2467 13.3469L48.843 15.3307L49.6725 16.3619C50.4071 17.2761 51.7451 17.4194 52.6593 16.6848L53.0104 16.4023C53.3858 16.0996 53.4463 15.5506 53.1436 15.1732Z" fill="#4B4DF6"/>
<path d="M51.9041 12.1549C51.892 12.1549 51.8799 12.1549 51.8678 12.1509C51.7588 12.1307 51.6841 12.0258 51.7043 11.9168C51.8537 11.0813 51.7265 10.4093 51.3289 9.91686C50.6509 9.07934 49.3895 9.02485 49.3774 9.02485C49.2664 9.02081 49.1797 8.92798 49.1817 8.81698C49.1857 8.70599 49.2886 8.61719 49.3895 8.62123C49.4481 8.62123 50.8426 8.67975 51.6397 9.66055C52.116 10.2478 52.2694 11.0288 52.0999 11.9874C52.0817 12.0843 51.9969 12.1549 51.9021 12.1549H51.9041Z" fill="white"/>
<path d="M53.1735 12.0878C53.1735 12.0878 53.1614 12.0878 53.1553 12.0878C53.0443 12.0777 52.9636 11.9788 52.9737 11.8678C53.3127 8.26348 49.8476 7.81748 49.7003 7.79932C49.5893 7.78721 49.5106 7.6863 49.5227 7.57531C49.5348 7.46431 49.6377 7.3856 49.7467 7.39771C49.7871 7.40175 53.7527 7.90224 53.3753 11.9042C53.3652 12.0091 53.2784 12.0878 53.1755 12.0878H53.1735Z" fill="white"/>
<path d="M54.4315 11.8724C54.3205 11.8724 54.2297 11.7836 54.2297 11.6726C54.2035 7.5516 50.3246 6.65152 50.1612 6.61519C50.0522 6.59097 49.9836 6.48401 50.0078 6.37504C50.032 6.26606 50.141 6.19744 50.2479 6.22166C50.2923 6.23175 54.6051 7.22264 54.6353 11.6706C54.6353 11.7816 54.5465 11.8724 54.4355 11.8744L54.4315 11.8724Z" fill="white"/>
<path d="M90.0606 14.9467C88.9203 13.7338 87.1706 13.3766 85.6691 12.6581C83.4754 11.6067 81.7822 9.75405 80.2243 7.88528C78.529 5.849 76.3919 3.26178 73.514 3.22142C70.5091 3.17903 67.4718 5.03368 65.5727 7.2415C63.4255 9.73791 62.2751 12.9729 61.8332 16.2362C61.5062 18.6479 61.5627 21.2008 62.6283 23.3884C62.8987 23.9454 63.2479 24.4701 63.6555 24.9444C63.1853 25.786 62.483 26.8051 61.6576 27.2652C61.6576 27.2652 63.8654 27.2027 65.2781 26.3369C66.2125 26.9141 67.2781 27.243 68.3799 27.1906C70.2063 27.1038 72.0206 26.0302 73.7703 26.5589C74.6442 26.8233 75.3505 27.4529 76.0851 27.9938C78.8681 30.0422 82.7005 30.9322 85.8548 29.5235C89.554 27.8707 91.4026 23.5237 91.4308 19.4733C91.443 17.8568 91.1685 16.1252 90.0626 14.9467H90.0606Z" fill="#FFC278"/>
<path d="M83.2614 13.1699H68.0469V24.2252H83.2614V13.1699Z" fill="white"/>
<path d="M69.3144 14.3383C69.1469 14.3383 69.0117 14.2031 69.0117 14.0356V12.5664C69.0117 12.3989 69.1469 12.2637 69.3144 12.2637C69.4819 12.2637 69.6172 12.3989 69.6172 12.5664V14.0356C69.6172 14.2031 69.4819 14.3383 69.3144 14.3383Z" fill="#4B4DF6"/>
<path d="M71.1269 14.3383C70.9594 14.3383 70.8242 14.2031 70.8242 14.0356V12.5664C70.8242 12.3989 70.9594 12.2637 71.1269 12.2637C71.2944 12.2637 71.4297 12.3989 71.4297 12.5664V14.0356C71.4297 14.2031 71.2944 14.3383 71.1269 14.3383Z" fill="#4B4DF6"/>
<path d="M72.9365 14.3383C72.769 14.3383 72.6338 14.2031 72.6338 14.0356V12.5664C72.6338 12.3989 72.769 12.2637 72.9365 12.2637C73.104 12.2637 73.2392 12.3989 73.2392 12.5664V14.0356C73.2392 14.2031 73.104 14.3383 72.9365 14.3383Z" fill="#4B4DF6"/>
<path d="M74.749 14.3383C74.5815 14.3383 74.4463 14.2031 74.4463 14.0356V12.5664C74.4463 12.3989 74.5815 12.2637 74.749 12.2637C74.9165 12.2637 75.0517 12.3989 75.0517 12.5664V14.0356C75.0517 14.2031 74.9165 14.3383 74.749 14.3383Z" fill="#4B4DF6"/>
<path d="M76.5596 14.3383C76.392 14.3383 76.2568 14.2031 76.2568 14.0356V12.5664C76.2568 12.3989 76.392 12.2637 76.5596 12.2637C76.7271 12.2637 76.8623 12.3989 76.8623 12.5664V14.0356C76.8623 14.2031 76.7271 14.3383 76.5596 14.3383Z" fill="#4B4DF6"/>
<path d="M78.3721 14.3383C78.2045 14.3383 78.0693 14.2031 78.0693 14.0356V12.5664C78.0693 12.3989 78.2045 12.2637 78.3721 12.2637C78.5396 12.2637 78.6748 12.3989 78.6748 12.5664V14.0356C78.6748 14.2031 78.5396 14.3383 78.3721 14.3383Z" fill="#4B4DF6"/>
<path d="M80.1816 14.3383C80.0141 14.3383 79.8789 14.2031 79.8789 14.0356V12.5664C79.8789 12.3989 80.0141 12.2637 80.1816 12.2637C80.3491 12.2637 80.4843 12.3989 80.4843 12.5664V14.0356C80.4843 14.2031 80.3491 14.3383 80.1816 14.3383Z" fill="#4B4DF6"/>
<path d="M81.9941 14.3383C81.8266 14.3383 81.6914 14.2031 81.6914 14.0356V12.5664C81.6914 12.3989 81.8266 12.2637 81.9941 12.2637C82.1616 12.2637 82.2968 12.3989 82.2968 12.5664V14.0356C82.2968 14.2031 82.1616 14.3383 81.9941 14.3383Z" fill="#4B4DF6"/>
<path d="M73.9277 15.6973H72.3818V17.2431H73.9277V15.6973Z" fill="#D2BFFF"/>
<path d="M76.3496 15.6973H74.8037V17.2431H76.3496V15.6973Z" fill="#D2BFFF"/>
<path d="M78.7734 15.6973H77.2275V17.2431H78.7734V15.6973Z" fill="#D2BFFF"/>
<path d="M81.1972 15.6973H79.6514V17.2431H81.1972V15.6973Z" fill="#FFC278"/>
<path d="M71.5039 17.9258H69.958V19.4717H71.5039V17.9258Z" fill="#FFC278"/>
<path d="M73.9277 17.9258H72.3818V19.4717H73.9277V17.9258Z" fill="#D2BFFF"/>
<path d="M76.3496 17.9258H74.8037V19.4717H76.3496V17.9258Z" fill="#D2BFFF"/>
<path d="M78.7734 17.9258H77.2275V19.4717H78.7734V17.9258Z" fill="#D2BFFF"/>
<path d="M81.1972 17.9258H79.6514V19.4717H81.1972V17.9258Z" fill="#FFC278"/>
<path d="M71.5039 20.1543H69.958V21.7002H71.5039V20.1543Z" fill="#FFC278"/>
<path d="M73.9277 20.1543H72.3818V21.7002H73.9277V20.1543Z" fill="#D2BFFF"/>
<path d="M76.3496 20.1543H74.8037V21.7002H76.3496V20.1543Z" fill="#D2BFFF"/>
<path d="M78.7734 20.1543H77.2275V21.7002H78.7734V20.1543Z" fill="#D2BFFF"/>
<path d="M13.025 12.1974C8.97267 15.1479 4.01012 12.1772 1.34419 17.8986C0.244322 20.2597 0.680235 22.5564 1.78616 25.081C3.0717 28.0133 4.89608 29.1677 7.53577 29.3009C9.05945 29.3776 10.341 28.7156 11.8222 27.8075C12.8999 28.4654 14.355 29.1616 15.7031 29.1697C15.7031 29.1697 14.5245 28.3161 14.1491 26.3807C14.7102 26.0558 15.3116 25.7288 15.9695 25.416C20.0884 23.4605 21.5576 25.2243 24.0439 22.2153C28.1084 17.2951 21.4709 6.0502 13.025 12.1994V12.1974Z" fill="#FFB583"/>
<path d="M17.4411 14.9585L19.0213 20.577C19.0899 20.8211 19.0374 21.0694 18.9022 21.2631C18.7993 21.4084 18.6459 21.5234 18.4622 21.5739L8.30103 24.4336C8.11739 24.486 7.92768 24.4699 7.7622 24.3972C7.54626 24.3044 7.37068 24.1187 7.30207 23.8725L5.72188 18.2541C5.65327 18.0099 5.70372 17.7597 5.84095 17.5679C5.94388 17.4226 6.09725 17.3116 6.28292 17.2592L16.4441 14.3995C16.6278 14.347 16.8175 14.3652 16.983 14.4338C17.2009 14.5287 17.3745 14.7123 17.4431 14.9585H17.4411Z" fill="white"/>
<path d="M14.0848 18.9342L18.9041 21.2631C18.8012 21.4084 18.6478 21.5234 18.4641 21.5739L17.9556 21.7172L13.6368 19.6305L12.9971 20.6254C12.9385 20.7122 12.8558 20.7727 12.7609 20.7989C12.6681 20.8252 12.5652 20.8171 12.4723 20.7727L11.4048 20.2581L8.81149 24.2903L7.76408 24.3972L10.6601 19.8968L5.84082 17.5679C5.94374 17.4226 6.09712 17.3116 6.28279 17.2592L6.79135 17.1159L12.5006 19.8767L15.9354 14.5428L16.444 14.3995C16.6276 14.347 16.8173 14.3652 16.9828 14.4338L14.0868 18.9342H14.0848Z" fill="#A4ADFF"/>
<path d="M38.0374 11.0929C37.6116 10.3845 36.9012 9.79927 36.7943 8.98194C36.7418 8.58639 36.7438 8.16056 36.9012 7.79327C37.882 5.50876 37.1817 2.92759 35.1394 1.39786C33.5148 0.182957 31.3292 -0.103615 29.5351 0.719775C26.8207 1.96697 25.2648 4.37054 26.6108 8.22514C26.9882 9.30282 27.4907 10.3785 27.4948 11.5207C27.4968 12.4026 26.8712 14.5661 28.7379 16.5438C29.864 17.7345 31.2828 18.2289 32.76 18.1422C32.9417 18.6871 33.1213 19.6335 32.9195 21.024C32.9195 21.024 34.7196 19.5165 34.8609 17.6578C39.2523 16.1442 38.6913 12.1827 38.0374 11.0929Z" fill="#A4ADFF"/>
<path d="M31.5496 12.5586C31.152 12.5586 30.8291 12.8815 30.8291 13.2791C30.8291 13.6766 31.152 13.9995 31.5496 13.9995C31.9471 13.9995 32.27 13.6766 32.27 13.2791C32.27 12.8815 31.9471 12.5586 31.5496 12.5586Z" fill="white"/>
<path d="M33.491 6.0178C33.0026 5.52739 32.3447 5.2832 31.5173 5.2832C30.6898 5.2832 30.0965 5.52538 29.6122 6.00972C29.3821 6.23979 29.2025 6.49407 29.0733 6.77055C28.8534 7.24077 29.1339 7.81594 29.6001 7.88254C29.8927 7.9229 30.1772 7.7453 30.3003 7.44057C30.3932 7.20848 30.5122 7.02282 30.6616 6.87953C30.9078 6.64341 31.2145 6.52636 31.5798 6.52636C31.9451 6.52636 32.2619 6.63938 32.486 6.86541C32.71 7.09143 32.821 7.36388 32.821 7.68072C32.821 7.90877 32.7584 8.11865 32.6313 8.30836C32.5485 8.42743 32.2983 8.68171 31.8765 9.06919C31.4567 9.45666 31.1762 9.80378 31.0349 10.1146C30.9744 10.2498 30.928 10.5666 30.8937 10.8794C30.8473 11.3093 31.1479 11.6867 31.5294 11.6867C31.8442 11.6867 32.1166 11.4243 32.161 11.0712C32.1772 10.9359 32.2034 10.831 32.2357 10.7523C32.3084 10.5787 32.4981 10.3487 32.8028 10.0621C33.3901 9.50914 33.7755 9.0712 33.9551 8.75032C34.1348 8.42944 34.2236 8.08838 34.2236 7.72916C34.2236 7.07933 33.9794 6.51022 33.491 6.01981V6.0178Z" fill="white"/>
</g>
<defs>
<clipPath id="clip0_1256_61548">
<rect width="92.575" height="84" fill="white"/>
</clipPath>
</defs>
</svg>
