<svg width="81" height="84" viewBox="0 0 81 84" fill="none" xmlns="http://www.w3.org/2000/svg">
<g clip-path="url(#clip0_1256_61524)">
<path d="M49.9872 60.7054C50.9344 62.1154 51.9376 63.4901 52.9665 64.8462C51.5928 65.3745 50.1631 65.9058 48.7193 66.4251C45.5373 67.5699 42.2984 68.6533 39.4945 69.5007C39.3841 69.5234 39.2732 69.5551 39.1638 69.5919C38.6219 69.728 38.5448 69.6741 38.2968 69.9362C37.3107 70.3229 36.3368 70.7478 35.3749 71.2031C34.7725 71.4879 34.1736 71.7818 33.5818 72.0928C33.4174 72.1372 33.2581 72.2289 33.0958 72.3066C32.506 72.5894 31.9298 72.9095 31.3728 73.2649C31.2296 73.3561 31.0834 73.4539 30.9846 73.592C30.8853 73.7317 30.8455 73.8975 30.8112 74.0574C30.6887 74.6255 30.601 75.1961 30.549 75.7648C30.5117 76.1726 30.3469 76.8552 30.9291 76.7851C31.0713 76.768 31.2129 76.7508 31.3551 76.7337C31.6132 76.7029 31.952 76.5285 32.1229 76.7241C32.5776 77.2449 33.0323 77.7656 33.487 78.2869L34.1867 79.0879C34.3511 79.2759 34.4947 79.5789 34.7801 79.5799C35.0881 79.5814 35.3966 79.5829 35.7046 79.584C35.7439 79.584 35.7858 79.584 35.8226 79.5633C35.8659 79.5396 35.8931 79.4937 35.9173 79.4504C36.1588 79.0214 36.4003 78.5929 36.6418 78.1639C36.7083 78.0454 36.7779 77.9108 36.7451 77.7928C36.7138 77.6794 36.5908 77.6194 36.4673 77.627C36.3438 77.6345 36.2223 77.6976 36.1145 77.7732C35.7908 77.9995 35.5519 78.3564 35.4762 78.7254C35.3104 78.4421 35.3003 78.0943 35.265 77.7611C35.262 77.7318 36.4991 77.1904 36.5903 77.1425C37.039 76.9066 37.4675 76.6248 37.8708 76.3082C38.6905 75.7734 39.4824 75.1851 40.2391 74.5438C40.5073 74.317 40.7795 74.0689 40.9595 73.7564C43.7094 73.6833 51.9643 73.3299 54.7142 73.2568C57.0024 73.1958 59.521 72.8001 61.2269 71.2021C61.4184 71.0226 61.6019 70.8325 61.7713 70.6213C62.6409 69.538 63.0215 68.2883 63.0104 66.9877C63.0059 66.4785 62.9419 65.9618 62.8234 65.4441C62.7705 65.2122 62.6984 65.0045 62.6117 64.8139C62.3697 63.1786 61.7804 61.5442 61.2279 60.0712C60.3608 57.7599 59.3163 55.5201 58.1775 53.3262C56.8376 54.4579 52.7305 56.8958 50.27 58.3345C50.207 59.1285 50.1122 59.9195 49.9877 60.7044L49.9872 60.7054Z" fill="#923A3B"/>
<path d="M46.8783 38.6682C46.5315 38.949 45.8716 39.0619 45.4577 39.1799C44.8669 39.3487 44.2519 39.4818 43.6732 39.6885C43.536 39.7374 43.2331 39.9199 42.9482 40.0726C43.1766 40.2037 43.4004 40.3408 43.6197 40.4845C43.6716 40.5077 43.719 40.5369 43.7594 40.5768C44.5886 41.1373 45.3423 41.7937 45.9785 42.5564C48.2157 45.2398 49.5572 48.6295 50.0764 52.1043C50.3844 54.1626 50.4338 56.2592 50.2695 58.3357C52.7301 56.8969 56.8371 54.459 58.177 53.3273C58.4941 53.0596 58.6569 52.8645 58.606 52.7733C57.991 51.6859 57.3775 50.5562 56.7484 49.4179C55.0187 46.2874 53.1555 43.0893 50.8527 40.5425C50.0729 39.6799 48.5464 38.9076 46.9917 38.5527C46.9585 38.5936 46.9222 38.6329 46.8783 38.6682Z" fill="#E3760A"/>
<path d="M39.1638 69.591C39.2732 69.5542 39.3836 69.5224 39.4945 69.4997C42.2983 68.6523 45.5373 67.569 48.7192 66.4241C49.2692 64.6915 49.6095 62.8096 49.8464 61.5428C49.8984 61.2645 49.9422 60.9847 49.9866 60.7049C50.1116 59.92 50.2059 59.1296 50.2689 58.3351C50.4332 56.2587 50.3838 54.162 50.0758 52.1037C49.5566 48.6289 48.2146 45.2392 45.9779 42.5558C45.3417 41.7926 44.588 41.1367 43.7588 40.5762C43.7638 40.5812 43.7704 40.5842 43.7749 40.5898C43.8848 40.7118 43.9029 40.8887 43.91 41.0526C43.9276 41.4513 43.7971 41.9801 43.7845 42.4298C43.9246 42.7716 44.0587 43.0927 44.1787 43.3982C44.3153 43.5656 44.4363 43.7501 44.4323 44.0294C44.4323 44.047 44.4277 44.0641 44.4267 44.0818C44.8809 45.4893 44.8265 46.6568 43.2531 48.3662C42.071 49.6623 39.2721 50.0565 36.7667 49.7137C36.1129 53.9155 35.2634 58.1052 34.5436 62.3075C34.1745 64.4616 33.801 66.6323 33.0085 68.6689C32.6652 69.5516 32.2352 70.4122 31.7109 71.2036H35.3743C36.3362 70.7484 37.3101 70.3239 38.2962 69.9368C38.5442 69.6741 38.6213 69.7286 39.1633 69.5925L39.1638 69.591Z" fill="#E89300"/>
<path d="M42.9424 40.0748C42.9711 40.1751 43.0004 40.2744 43.0301 40.3717C43.1334 40.3813 43.2363 40.3919 43.3376 40.408C43.4334 40.4231 43.5317 40.4448 43.6199 40.4841C43.4006 40.3405 43.1768 40.2028 42.9484 40.0723C42.9464 40.0733 42.9444 40.0743 42.9424 40.0753V40.0748Z" fill="#E89300"/>
<path d="M61.2256 71.2031C59.5202 72.8012 57.0012 73.1969 54.713 73.2579C51.963 73.331 43.7082 73.6844 40.9582 73.7575C40.7783 74.07 40.5056 74.318 40.2379 74.5449C39.4812 75.1856 38.6892 75.7744 37.8695 76.3093C37.4668 76.6264 37.0378 76.9077 36.5891 77.1436C36.4978 77.1915 35.2602 77.7329 35.2638 77.7622C35.2996 78.0954 35.3096 78.4432 35.475 78.7265C35.5506 78.3575 35.7896 78.0011 36.1132 77.7742C36.2211 77.6986 36.3431 77.6356 36.4661 77.6281C36.5896 77.6205 36.7126 77.681 36.7439 77.7939C36.7766 77.9119 36.7071 78.0465 36.6405 78.1649C36.399 78.5939 36.1576 79.0229 35.9161 79.4514C35.8919 79.4948 35.8647 79.5402 35.8213 79.5644C35.7845 79.5845 35.7427 79.585 35.7034 79.585C35.3953 79.5835 35.0868 79.582 34.7788 79.581C34.4935 79.5795 34.3498 79.277 34.1855 79.089L33.4858 78.2879C33.0311 77.7672 32.5763 77.2464 32.1216 76.7252C31.9507 76.5296 31.612 76.704 31.3539 76.7348C31.2117 76.7519 31.0701 76.769 30.9279 76.7862C30.3456 76.8563 30.5105 76.1737 30.5478 75.7659C30.6002 75.1972 30.6874 74.6266 30.8099 74.0584C30.8447 73.8981 30.8845 73.7328 30.9833 73.5931C31.0821 73.4545 31.2283 73.3567 31.3715 73.266C31.9286 72.9111 32.5048 72.5904 33.0946 72.3076C33.2569 72.23 33.4162 72.1377 33.5805 72.0939C34.1724 71.7829 34.7713 71.4895 35.3737 71.2041H31.7103C31.0257 72.2386 30.1798 73.1551 29.1549 73.8492C28.3559 74.3901 27.4213 74.7884 26.4624 74.7854C26.0269 74.9285 25.5818 75.0278 25.1392 75.0611C23.9399 75.1518 23.1091 74.5726 22.1487 73.9344C20.958 73.1424 19.8581 72.2214 18.8544 71.2041H11.157L0 84.0006H80.1949L69.229 71.2031H61.2256Z" fill="#B17F4A"/>
<path d="M24.6298 38.804C24.6923 38.9537 24.7009 39.106 24.6838 39.2592C26.9684 43.0093 27.9479 44.8393 31.6763 47.4728C32.0181 46.956 32.4244 46.4111 32.8968 45.9766C33.046 45.7542 33.2239 45.5198 33.4135 45.2602C34.9349 43.1767 36.2632 40.7953 38.5318 39.4856C38.4355 39.4775 38.3387 39.47 38.2424 39.4619C36.841 39.3459 35.4249 39.2265 34.089 38.7874C33.1544 38.4804 32.3417 37.9722 31.6103 37.3562C31.6002 37.3658 31.5916 37.3759 31.581 37.3849C30.9151 37.9707 30.0198 37.8921 29.2414 37.6158L29.2046 37.6027C28.6063 37.389 28.0401 37.091 27.5204 36.7266L27.1716 37.7539L24.9076 38.5404L24.4609 38.6956C24.5497 38.7218 24.6102 38.7561 24.6298 38.8035V38.804Z" fill="#923A3B"/>
<path d="M43.2535 48.3665C44.8263 46.657 44.8813 45.4895 44.4271 44.082C44.4094 44.3759 44.289 44.6547 44.2083 44.9395C44.1226 45.241 44.0918 45.5903 44.2728 45.8464C44.3414 45.9437 44.4402 46.0274 44.4654 46.1439C44.4967 46.2885 44.4049 46.4287 44.3172 46.5482C43.7738 47.2927 43.2298 48.0373 42.6864 48.7819C42.4207 48.8368 42.1908 48.9981 41.9413 49.1035C41.6913 49.2094 41.3792 49.2507 41.167 49.0818C40.9053 48.8736 40.9411 48.4401 41.1519 48.18C41.3626 47.9198 41.6903 47.7908 42.0033 47.6718C42.0063 47.4727 42.0184 47.2877 41.9786 47.0946C40.3901 47.6139 39.0966 48.8147 37.3952 49.1937C37.2127 49.2346 37.0247 49.2658 36.8341 49.2885C36.8124 49.4302 36.7898 49.5718 36.7676 49.7135C39.273 50.0563 42.0724 49.6621 43.254 48.366L43.2535 48.3665Z" fill="#923A3B"/>
<path d="M42.3696 40.294C42.5824 40.3369 42.8067 40.3505 43.0295 40.3711C42.9998 40.2744 42.9705 40.1745 42.9418 40.0742C42.6968 40.2053 42.4669 40.3137 42.3691 40.294H42.3696Z" fill="#923A3B"/>
<path d="M43.8246 42.8562C43.8835 43.0739 44.0398 43.2272 44.1795 43.3981C44.0595 43.0926 43.9254 42.7715 43.7852 42.4297C43.7807 42.5839 43.7903 42.7291 43.8246 42.8562Z" fill="#923A3B"/>
<path d="M34.149 20.0003C33.3278 20.1324 32.4763 20.2448 31.764 20.6743C30.5612 21.3997 30.0137 22.908 30.0571 24.3125C30.1105 26.0456 30.9176 27.567 31.4756 29.1681C31.7685 30.0085 31.8749 30.9103 31.8013 31.796C31.7711 32.163 31.7045 32.7609 31.5588 33.3084C31.461 33.6759 31.3269 34.0192 31.1449 34.2561C31.3078 34.5298 31.4696 34.8273 31.6057 35.1308C32.4672 33.9864 32.9572 32.5764 32.863 31.1644C32.5277 28.484 29.8474 25.971 31.5225 23.2906C33.5329 20.275 37.5537 21.1129 40.4015 19.1024C41.1254 18.499 41.6729 17.8064 42.0494 16.9665C41.9935 16.8788 41.9385 16.7906 41.8801 16.7054C41.7631 16.536 41.634 16.3581 41.4944 16.1756C41.441 16.106 41.3855 16.0354 41.3291 15.9648C41.2237 16.3308 41.0059 16.656 40.7614 16.9489C39.1715 18.8544 36.6 19.6061 34.1495 20.0008L34.149 20.0003Z" fill="#923A3B"/>
<path d="M26.6034 30.3185C27.0959 30.3785 27.5416 30.5267 27.9514 30.7415C28.9788 31.2809 29.7793 32.2417 30.5194 33.2983C30.6832 33.5322 30.9151 33.8695 31.145 34.2551C31.327 34.0182 31.461 33.6749 31.5588 33.3074C31.7045 32.7599 31.7711 32.1621 31.8013 31.7951C31.8749 30.9093 31.7681 30.007 31.4757 29.1671C30.9181 27.5661 30.111 26.0451 30.0571 24.3115C30.0137 22.9075 30.5612 21.3987 31.764 20.6733C32.4763 20.2438 33.3278 20.1314 34.149 19.9993C36.599 19.6051 39.1705 18.853 40.7609 16.9474C41.0054 16.6545 41.2232 16.3294 41.3286 15.9634C41.3326 15.9498 41.3387 15.9372 41.3422 15.9235C41.5963 14.9526 40.8567 14.4238 40.1348 13.9696C35.9714 11.3487 30.0168 12.7476 26.2964 15.5364C23.4754 17.6511 21.777 21.1391 22.2136 24.6719C22.508 27.0544 23.4955 29.3637 25.0502 31.1967C25.3638 30.6417 25.938 30.2369 26.6029 30.318L26.6034 30.3185Z" fill="#230D0D"/>
<path d="M39.1123 34.2974L43.1044 32.773C41.8658 30.9426 39.1123 34.2974 39.1123 34.2974Z" fill="#923A3B"/>
<path d="M29.0196 34.0263C29.4385 34.2173 29.4607 34.6484 29.3811 35.0416C29.3705 35.0925 29.3594 35.1469 29.377 35.1958C29.3906 35.2331 29.4199 35.2624 29.4486 35.2896C29.6306 35.462 29.8333 35.6127 30.051 35.7373C30.1267 35.7806 30.2255 35.8194 30.296 35.7685L30.3172 35.7488C30.3349 35.7287 30.3475 35.7035 30.3585 35.6783C30.532 35.28 30.3994 34.8152 30.2068 34.4261C29.7496 33.5005 28.9924 32.6163 28.1309 32.0552C27.8042 31.8425 27.4276 31.665 27.0405 31.7048C26.5177 31.7583 26.1401 32.34 26.2183 32.8457C26.248 33.0387 26.3413 33.2167 26.4552 33.375C26.4431 33.1582 26.4421 32.9339 26.5248 32.7327C26.6871 32.338 27.109 32.2866 27.4327 32.516C27.7876 32.767 28.08 33.068 28.1651 33.5116C28.1783 33.5812 28.1873 33.6537 28.2236 33.7142C28.2624 33.7788 28.3295 33.8221 28.398 33.8529C28.5952 33.9396 28.823 33.9366 29.0191 34.0263H29.0196Z" fill="#923A3B"/>
<path d="M41.1624 26.9256C41.1306 26.8782 41.0983 26.8283 41.0464 26.801C40.9945 26.7733 40.9163 26.7758 40.874 26.8232C40.8533 26.8464 40.8443 26.8762 40.8382 26.9044C40.7641 27.2482 40.9799 27.6374 41.1629 27.898C41.4542 28.3124 41.8782 28.6259 42.3243 28.8941C42.5678 29.0408 42.8234 29.1779 43.016 29.3791C43.2398 29.613 43.3169 29.8676 43.2141 30.1806C43.1188 30.47 43.0059 30.9071 43.201 31.1556C43.4601 30.8304 43.6809 30.4811 43.8589 30.1166C43.9511 29.9271 44.0338 29.7244 44.0177 29.5258C43.9889 29.1583 43.6542 28.8936 43.2862 28.6774C42.4549 28.1884 41.6932 27.7231 41.1619 26.9256H41.1624Z" fill="#923A3B"/>
<path d="M42.892 25.5581C43.2983 25.4442 43.206 25.0081 43.1087 24.7021C43.0069 24.382 42.7685 23.4484 42.2901 23.5417C42.162 23.5664 42.0677 23.6853 42.0355 23.8119C42.0032 23.9384 42.0224 24.072 42.0491 24.2C42.1176 24.5348 42.2356 24.8589 42.3969 25.1599C42.4907 25.3348 42.6596 25.6232 42.8915 25.5581H42.892Z" fill="#230D0D"/>
<path d="M40.2392 21.5673C40.2992 21.5562 40.3446 21.5103 40.3859 21.4659C40.7786 21.05 41.2142 20.6412 41.7248 20.3786C42.0233 20.2248 42.3403 20.1094 42.663 20.0131C42.7875 19.9763 43.222 19.9516 43.2155 19.7731C43.2094 19.6158 42.9594 19.5009 42.8429 19.4757C42.3192 19.3618 41.6865 19.3804 41.201 19.5589C40.766 19.7187 40.4116 20.0282 40.0749 20.3387C39.8188 20.5747 39.785 21.0526 39.973 21.3868C40.0305 21.4886 40.1323 21.5874 40.2392 21.5678V21.5673Z" fill="#230D0D"/>
<path d="M34.5102 27.1038C34.8646 26.8779 35.2326 26.6708 35.6208 26.5049C35.9086 26.3819 36.2101 26.2912 36.5171 26.2201C36.5201 26.2907 36.5312 26.3617 36.5458 26.4313C36.6144 26.766 36.7323 27.0902 36.8936 27.3911C36.9874 27.5661 37.1563 27.8544 37.3882 27.7894C37.7945 27.6755 37.7022 27.2394 37.605 26.9334C37.546 26.7489 37.4416 26.3602 37.2717 26.082C37.425 26.0603 37.5782 26.0416 37.73 26.0255C37.8051 26.0174 37.8852 26.0073 37.9447 25.961C38.0506 25.8783 38.043 25.721 37.9956 25.602C37.8404 25.2119 37.3695 24.925 36.9405 24.9976C36.3759 25.0934 35.7972 25.2063 35.2916 25.4901C34.7265 25.8072 34.1891 26.3622 33.8639 26.9072C33.7913 27.0287 33.692 27.3291 33.8332 27.439C33.993 27.5635 34.3736 27.19 34.5097 27.1028L34.5102 27.1038Z" fill="#230D0D"/>
<path d="M23.2294 66.8779C23.3837 66.1912 23.5732 65.5107 23.7744 64.8377C24.1333 63.6384 24.5255 62.4487 24.9485 61.2706C24.7907 60.7786 24.6354 60.285 24.4832 59.791C23.3953 62.0192 22.5463 64.4959 23.2299 66.8779H23.2294Z" fill="#923A3B"/>
<path d="M25.1404 75.0599C25.583 75.0262 26.0281 74.9269 26.4637 74.7842C27.4225 74.7872 28.3571 74.389 29.1561 73.8481C30.181 73.1539 31.0269 72.2374 31.7115 71.203C32.2353 70.4115 32.6653 69.5515 33.0091 68.6683C33.8015 66.6317 34.1751 64.4609 34.5441 62.3069C35.264 58.1046 36.1129 53.9154 36.7672 49.7131C36.7894 49.5714 36.8121 49.4298 36.8338 49.2881C37.0243 49.2654 37.2124 49.2342 37.3949 49.1934C39.0968 48.8143 40.3898 47.6135 41.9783 47.0942C42.0181 47.2873 42.006 47.4723 42.003 47.6714C41.6904 47.7904 41.3622 47.92 41.1515 48.1796C40.9408 48.4392 40.905 48.8727 41.1666 49.0814C41.3789 49.2503 41.6909 49.209 41.941 49.1031C42.1905 48.9973 42.4204 48.8359 42.686 48.7815C43.2295 48.0369 43.7734 47.2923 44.3169 46.5478C44.4041 46.4283 44.4963 46.2881 44.4651 46.1435C44.4399 46.027 44.3416 45.9433 44.2725 45.846C44.092 45.5899 44.1223 45.2406 44.208 44.9391C44.2886 44.6548 44.4091 44.3755 44.4268 44.0816C44.4278 44.064 44.4323 44.0469 44.4323 44.0292C44.4363 43.7499 44.3153 43.5654 44.1787 43.3981C44.0391 43.2272 43.8828 43.0739 43.8238 42.8561C43.7896 42.7291 43.78 42.5839 43.7845 42.4297C43.7971 41.98 43.9277 41.4512 43.91 41.0524C43.903 40.8886 43.8848 40.7111 43.7749 40.5896C43.7699 40.5841 43.7638 40.5811 43.7588 40.576C43.7185 40.5362 43.6711 40.507 43.6192 40.4838C43.5309 40.445 43.4326 40.4228 43.3369 40.4077C43.2355 40.3915 43.1327 40.3809 43.0294 40.3714C42.8065 40.3507 42.5822 40.3371 42.3695 40.2942C42.4668 40.3139 42.6971 40.2055 42.9421 40.0744C42.9442 40.0734 42.9462 40.0724 42.9482 40.0714C43.233 39.9187 43.536 39.7362 43.6731 39.6873C44.2518 39.4806 44.8668 39.3475 45.4577 39.1786C45.8715 39.0602 46.5314 38.9477 46.8783 38.6669C46.9216 38.6317 46.9584 38.5923 46.9917 38.5515C47.152 38.3539 47.1822 38.1028 46.9947 37.8921C46.7502 37.6169 46.3822 37.7293 46.0571 37.7606C46.0238 37.7636 45.9905 37.7686 45.9572 37.7716C46.0303 37.6033 46.0858 37.4238 46.116 37.2287C46.3686 35.6034 46.3167 33.8703 46.4125 32.2279C46.4911 30.8804 46.5632 29.489 46.1014 28.2207C45.8105 27.4222 45.2328 26.7875 44.7958 26.0717C44.1283 24.9782 44.5916 23.7754 44.4091 22.5776C44.2186 21.3249 43.7155 20.1382 43.1685 19.0045C42.9638 18.581 42.7521 18.1601 42.5232 17.7492C42.4002 17.5284 42.2697 17.3117 42.1351 17.0974C42.1068 17.0531 42.0771 17.0092 42.0488 16.9648C41.6723 17.8047 41.1253 18.4974 40.4009 19.1008C37.5527 21.1112 33.5323 20.2733 31.5219 23.289C29.8468 25.9693 32.5271 28.4823 32.8624 31.1627C32.9567 32.5747 32.4667 33.9847 31.6051 35.1291C31.469 34.8256 31.3077 34.5282 31.1444 34.2544C30.9145 33.8688 30.6826 33.532 30.5188 33.2976C29.7787 32.241 28.9782 31.2802 27.9508 30.7408C27.541 30.5255 27.0953 30.3778 26.6028 30.3178C25.9379 30.2367 25.3637 30.6415 25.0501 31.1965C24.9609 31.3543 24.8918 31.5232 24.849 31.6971C24.5173 33.0471 25.221 34.3553 26.0579 35.3731C26.4808 35.8878 26.9748 36.3435 27.5203 36.7261C28.04 37.0906 28.6067 37.3885 29.2045 37.6023L29.2413 37.6154C30.0197 37.8916 30.9155 37.9703 31.5809 37.3845C31.5915 37.3754 31.6001 37.3653 31.6102 37.3557C32.3416 37.9718 33.1548 38.4799 34.0889 38.7869C35.4248 39.226 36.8414 39.3455 38.2423 39.4614C38.3386 39.4695 38.4354 39.4771 38.5316 39.4851C36.2631 40.7948 34.9348 43.1768 33.4134 45.2598C33.2238 45.5194 33.0454 45.7538 32.8967 45.9761C32.4243 46.4106 32.018 46.9556 31.6762 47.4723C31.5265 47.6987 31.3889 47.92 31.2638 48.1231C29.4914 51.0016 27.9276 54.0086 26.5877 57.112C25.9969 58.4801 25.4509 59.8675 24.9478 61.2704C24.5253 62.449 24.1326 63.6382 23.7737 64.8375C23.5726 65.5105 23.383 66.1911 23.2288 66.8777C22.5452 64.4957 23.3941 62.019 24.482 59.7908C24.1427 58.6914 23.812 57.5884 23.4803 56.4869C19.7111 57.3328 16.1374 58.6994 12.54 59.9869C12.7951 60.8772 13.0885 61.7564 13.4227 62.6199C14.1159 64.4085 14.985 66.1316 16.0446 67.7316C16.6632 68.6653 17.3493 69.556 18.0959 70.3923C18.2648 70.5819 18.4392 70.7659 18.6146 70.9494C18.6948 71.0336 18.7739 71.1188 18.8556 71.2015C19.8593 72.2188 20.9592 73.1398 22.15 73.9317C23.1098 74.5699 23.9406 75.1497 25.1404 75.0584V75.0599ZM44.0184 29.5269C44.034 29.7255 43.9519 29.9276 43.8596 30.1177C43.6817 30.4822 43.4604 30.8315 43.2018 31.1567C43.0067 30.9081 43.1201 30.4706 43.2149 30.1817C43.3177 29.8686 43.2406 29.6136 43.0167 29.3802C42.8242 29.179 42.5686 29.0414 42.3251 28.8952C41.8785 28.627 41.455 28.3135 41.1636 27.8991C40.9806 27.639 40.7649 27.2493 40.839 26.9055C40.845 26.8767 40.8541 26.847 40.8748 26.8243C40.9171 26.7774 40.9947 26.7749 41.0472 26.8021C41.0991 26.8298 41.1319 26.8798 41.1631 26.9266C41.695 27.7247 42.4562 28.1894 43.2875 28.6784C43.6555 28.8952 43.9897 29.1594 44.0189 29.5269H44.0184ZM42.0357 23.8127C42.068 23.6862 42.1618 23.5677 42.2903 23.5425C42.7687 23.4493 43.0072 24.3829 43.109 24.703C43.2063 25.009 43.298 25.445 42.8922 25.559C42.6598 25.624 42.4915 25.3357 42.3977 25.1607C42.2359 24.8598 42.1184 24.5351 42.0499 24.2009C42.0236 24.0729 42.0045 23.9393 42.0362 23.8127H42.0357ZM40.0752 20.3394C40.412 20.0288 40.7669 19.7198 41.2014 19.5595C41.6869 19.3811 42.3196 19.3624 42.8433 19.4763C42.9598 19.5015 43.2098 19.6165 43.2159 19.7738C43.2224 19.9522 42.7879 19.9769 42.6634 20.0137C42.3407 20.11 42.0236 20.2255 41.7252 20.3792C41.2145 20.6424 40.779 21.0512 40.3863 21.4666C40.3444 21.5109 40.2996 21.5568 40.2396 21.5679C40.1327 21.5876 40.0309 21.4888 39.9734 21.3869C39.7854 21.0527 39.8197 20.5753 40.0752 20.3389V20.3394ZM43.105 32.7739L39.1129 34.2983C39.1129 34.2983 41.8664 30.9434 43.105 32.7739ZM33.8641 26.909C34.1892 26.364 34.7266 25.809 35.2917 25.4919C35.7978 25.2081 36.3761 25.0952 36.9407 24.9994C37.3702 24.9268 37.841 25.2132 37.9958 25.6038C38.0432 25.7228 38.0507 25.8801 37.9449 25.9628C37.8854 26.0092 37.8052 26.0192 37.7301 26.0273C37.5784 26.0434 37.4251 26.0626 37.2719 26.0838C37.4418 26.362 37.5461 26.7502 37.6051 26.9352C37.7024 27.2412 37.7946 27.6773 37.3883 27.7912C37.1559 27.8562 36.9875 27.5679 36.8938 27.3929C36.732 27.092 36.6145 26.7673 36.5459 26.4331C36.5318 26.3635 36.5202 26.2925 36.5172 26.2219C36.2102 26.293 35.9087 26.3837 35.6209 26.5067C35.2327 26.6721 34.8647 26.8798 34.5103 27.1056C34.3737 27.1928 33.9936 27.5664 33.8338 27.4418C33.6927 27.3319 33.792 27.0315 33.8646 26.91L33.8641 26.909ZM28.399 33.8532C28.3299 33.8229 28.2634 33.7791 28.2245 33.7145C28.1877 33.654 28.1792 33.5814 28.1661 33.5119C28.0809 33.0678 27.7885 32.7673 27.4336 32.5163C27.1099 32.2874 26.688 32.3383 26.5257 32.733C26.4435 32.9342 26.4445 33.1585 26.4561 33.3753C26.3422 33.217 26.2489 33.0385 26.2192 32.8459C26.141 32.3403 26.5191 31.7586 27.0414 31.7051C27.429 31.6658 27.8056 31.8433 28.1318 32.0555C28.9928 32.6166 29.7505 33.5008 30.2077 34.4263C30.3998 34.8155 30.5324 35.2803 30.3595 35.6786C30.3489 35.7033 30.3363 35.7285 30.3181 35.7491L30.2969 35.7688C30.2264 35.8202 30.1276 35.7809 30.0519 35.7375C29.8342 35.613 29.6315 35.4623 29.4495 35.2899C29.4208 35.2627 29.3916 35.2334 29.3779 35.1961C29.3598 35.1472 29.3714 35.0933 29.382 35.0419C29.4616 34.6487 29.4394 34.2176 29.0205 34.0266C28.8244 33.9374 28.5966 33.9404 28.3995 33.8532H28.399Z" fill="#A75737"/>
<path d="M23.4805 56.4872C23.3666 56.1096 23.2502 55.7331 23.1357 55.3555C20.0304 56.284 16.9256 57.2121 13.8202 58.1407C13.2596 58.3086 12.6769 58.4613 12.0977 58.5763C12.2156 59.0869 12.4349 59.6208 12.5282 59.9459L12.5403 59.9873C16.1376 58.6998 19.7113 57.3331 23.4805 56.4872Z" fill="#923A3B"/>
<path d="M23.1357 55.3557C23.2506 55.7328 23.3666 56.1094 23.4805 56.4875C23.8127 57.589 24.1429 58.6915 24.4822 59.7914C24.6349 60.2855 24.7897 60.779 24.9475 61.271C25.4506 59.8681 25.9965 58.4807 26.5874 57.1126C27.9278 54.0092 29.4911 51.0022 31.2635 48.1237C31.3885 47.9201 31.5262 47.6993 31.6759 47.4729C27.9475 44.8394 26.968 43.0095 24.6833 39.2594C24.7 39.1061 24.6919 38.9539 24.6294 38.8042C24.6097 38.7568 24.5492 38.722 24.4605 38.6963L24.9072 38.541C24.7393 38.5854 24.5714 38.6318 24.4046 38.6807C23.2698 38.4346 18.3184 39.3884 17.5209 39.4867C15.2458 39.7665 13.0045 40.7349 11.4539 42.4595C9.57302 44.5516 8.88843 47.5208 9.10066 50.3262C9.32852 53.3352 10.6014 55.9017 11.6313 58.6617C11.7861 58.637 11.9413 58.6078 12.0971 58.577C12.6763 58.4621 13.2591 58.3088 13.8197 58.1415C16.925 57.2129 20.0299 56.2848 23.1352 55.3562L23.1357 55.3557Z" fill="#E89300"/>
<path d="M43.924 8.81101C44.4574 8.34773 45.1248 8.11533 45.6193 7.61576C46.1189 7.11164 46.5308 6.54149 46.798 5.91941C47.3202 4.70349 47.1085 3.30558 46.437 2.16427C45.7318 0.965989 44.6046 0.250651 43.0211 0.0485012C41.3424 -0.165747 39.638 0.33635 38.5194 1.42524C37.9376 1.99136 37.4965 2.79542 37.3458 3.53899C37.2415 4.05369 37.2047 5.10728 37.7809 5.41429C37.9255 5.49142 38.0964 5.52318 38.2653 5.54233C38.654 5.5867 39.0522 5.57258 39.4354 5.501C39.5826 5.47327 39.7414 5.4284 39.8175 5.317C39.8689 5.24138 39.8714 5.14913 39.8734 5.06141C39.875 4.98579 39.8775 4.91018 39.881 4.83456C39.8971 4.47311 39.941 4.11116 40.0781 3.77037C40.5142 2.68754 41.9075 1.91876 43.1986 2.41784C43.4058 2.49799 43.5983 2.60436 43.7798 2.72232C44.5834 3.24408 44.8748 4.19585 44.6862 5.02108C44.477 5.93554 43.3876 6.63576 42.6007 7.21045C41.9232 7.70498 41.2351 8.22472 40.8348 8.90679C40.3312 9.76479 39.9566 11.7233 41.5733 11.816C42.1057 11.8468 42.7857 11.7571 43.0045 11.2635C43.0912 11.0674 43.0292 10.8496 43.01 10.6409C42.9521 10.0063 43.4118 9.25513 43.924 8.81051V8.81101Z" fill="#9F2727"/>
<path d="M41.6695 12.3399C41.1482 12.3797 40.751 12.6953 40.7298 13.2408C40.7152 13.6193 40.8256 14.1628 41.1205 14.432C41.4103 14.6966 42.1831 14.6498 42.5385 14.5363C42.6409 14.5036 42.7412 14.4582 42.8203 14.3856C42.9015 14.311 42.957 14.2122 43.0033 14.1119C43.2206 13.6456 43.2504 13.0935 42.96 12.6509C42.6943 12.2461 42.0838 12.3081 41.6695 12.3399Z" fill="#9F2727"/>
</g>
<defs>
<clipPath id="clip0_1256_61524">
<rect width="80.1949" height="84" fill="white"/>
</clipPath>
</defs>
</svg>
