<svg xmlns="http://www.w3.org/2000/svg" viewBox="0 0 24 24"><g data-name="Layer 2"><g data-name="Layer 1"><path d="M12 0a12 12 0 1 0 12 12A12 12 0 0 0 12 0zM7.45 17.24a.81.81 0 0 1-.72.41.92.92 0 0 1-.43-.11.83.83 0 0 1-.3-1.13L6.82 15a.48.48 0 0 1 .4-.23h.12a1.2 1.2 0 0 1 1.14.7zm6.93-2.68H5.45a.83.83 0 0 1-.83-.82.84.84 0 0 1 .86-.79h2.58l3.07-5.25-.99-1.7a.83.83 0 1 1 1.38-.93.25.25 0 0 1 0 .07l.54.91.53-.91a.83.83 0 1 1 1.46.86l-1 1.69-1 1.64L10 12.92h3.09a1.33 1.33 0 0 1 1.07.54 1.39 1.39 0 0 1 .27.79.71.71 0 0 1-.06.28zm4.17 0h-1.46l1.07 1.8a.86.86 0 0 1-.28 1.16.82.82 0 0 1-.43.12.84.84 0 0 1-.72-.41l-1.57-2.67-1-1.66-1.26-2.15a2.09 2.09 0 0 1 0-2 1.81 1.81 0 0 1 .44-.55l2.8 4.73h2.41a.83.83 0 1 1 0 1.66z" style="fill:#0074df" data-name="Group 21120"/></g></g></svg>