<svg xmlns="http://www.w3.org/2000/svg" viewBox="0 0 24 24"><g data-name="Layer 2"><g data-name="Layer 1"><g data-name="Layer 2"><g data-name="Layer 1-2"><circle cx="12" cy="12" r="12" style="fill:#ff5622"/><path d="M18.19 10.22h-.8a1 1 0 0 1-.94-.89A4.45 4.45 0 0 0 12 4.88H9.51a4.59 4.59 0 0 0-4.62 4.59v5a4.59 4.59 0 0 0 4.61 4.64h5a4.59 4.59 0 0 0 4.62-4.58v-3.26a1 1 0 0 0-.93-1.05zM9.3 8.44H12a.89.89 0 0 1 0 1.78H9.33a.89.89 0 0 1 0-1.78zm5.33 7.12h-5.3a.89.89 0 0 1 0-1.78h5.34a.89.89 0 0 1 0 1.78z" style="fill:#fff"/></g></g></g></g></svg>