<svg xmlns="http://www.w3.org/2000/svg" viewBox="0 0 30 30"><defs><style>.cls-2{fill:#2c73db}.cls-3{fill:#fff}</style></defs><g id="Layer_2" data-name="Layer 2"><g id="Layer_1-2" data-name="Layer 1"><circle cx="15" cy="15" r="15" style="fill:#bddbff"/><circle class="cls-2" cx="15" cy="15" r="12.78"/><path class="cls-3" d="M11.56 9.86v7.32h5.51L19.62 20v-2.82h1.75V9.86z"/><path class="cls-3" d="M16.37 17.88h-5.5v-4.34H8.22v6.27h1.5v2.45l2.18-2.45h4.71v-1.66zm-1.05-2.61-.26-1.13-.26 1.13h-.89l-.63-2.98h.91l.22 1.2.27-1.2h.76l.27 1.21.22-1.21h.91l-.64 2.98h-.88z"/><path class="cls-2" d="m16.68 12.41-.58 2.73h-.68l-.36-1.55-.36 1.55H14l-.58-2.73h.65l.31 1.72.38-1.72h.56l.38 1.72.3-1.72h.65m.31-.25h-1.14v.21l-.09.5-.11-.51v-.2h-1l-.05.2-.11.5-.08-.49v-.21h-1.25l.06.31.58 2.73v.19h1.13v-.19l.12-.51.12.51v.19h1.09v-.19l.58-2.73.06-.31z"/><path class="cls-3" d="m18.66 15.27-.27-1.13-.26 1.13h-.88l-.63-2.98h.91l.22 1.2.26-1.2h.76l.27 1.21.22-1.21h.91l-.63 2.98h-.88z"/><path class="cls-2" d="m20 12.41-.58 2.73h-.68l-.37-1.55-.37 1.55h-.68l-.58-2.73h.66l.31 1.72.37-1.72h.56l.38 1.72.32-1.72H20m.31-.25h-1.15v.21l-.09.5-.11-.51-.05-.2h-1v.2l-.11.5-.09-.49v-.21h-1.25l.07.31.58 2.73v.19h1.08l.05-.19.11-.51.12.51v.19h1.08l.05-.19.57-2.73.07-.31z"/><path class="cls-3" d="m22 15.27-.27-1.13-.26 1.13h-.88l-.64-2.98h.92l.22 1.2.26-1.2h.76l.27 1.21.22-1.21h.91l-.63 2.98H22z"/><path class="cls-2" d="m23.36 12.41-.58 2.73h-.68l-.37-1.55-.36 1.55h-.68l-.58-2.73h.65l.32 1.72.37-1.72H22l.38 1.72.31-1.72h.66m.31-.25H22.5v.21l-.09.5-.12-.51v-.2h-1v.2l-.11.5-.18-.49v-.21h-1.2l.07.31.58 2.73v.19h1.08l.05-.19.11-.51.12.51v.19H23v-.19l.58-2.73.07-.31z"/></g></g></svg>