<svg xmlns="http://www.w3.org/2000/svg" viewBox="0 0 24 24.01"><defs><style>.cls-1{fill:#072f54}</style></defs><g id="Layer_2" data-name="Layer 2"><g id="Layer_1-2" data-name="Layer 1"><path id="path4398" class="cls-1" d="m14 9.22-.47-1.37-4.08-5.48.73-.18 7.07 6.11 4.16-1.19A6.49 6.49 0 0 1 22.88 7 12 12 0 0 0 .7 8a11.75 11.75 0 0 0-.56 5.8l10-3.45z"/><path id="path4402" class="cls-1" d="M23.32 8a6.57 6.57 0 0 1-1.43.72L17.72 10l-2.78 8.93-.72.24.59-6.82-.33-1.42L10.57 12 .24 14.42A12 12 0 0 0 23.3 16a11.88 11.88 0 0 0 0-8"/><path id="path4406" d="m14.47 10.87.33 1.42-.59 6.82.72-.24 2.78-8.93 4.17-1.19A6.15 6.15 0 0 0 23.31 8c-.13-.34-.31-.7-.43-1a5.92 5.92 0 0 0-1.47.15l-4.16 1.14-7.07-6.11-.73.18 4.1 5.48.45 1.37-3.93 1.13-10 3.45c0 .21.07.42.11.63L10.56 12l3.91-1.11z" style="fill:#fbc108"/></g></g></svg>