<svg width="22" height="23" viewBox="0 0 22 23" fill="none" xmlns="http://www.w3.org/2000/svg">
<path d="M17.875 2.33301H4.12499C2.86114 2.33301 1.83333 3.36082 1.83333 4.62467V18.3747C1.83333 19.6385 2.86114 20.6663 4.12499 20.6663H17.875C19.1388 20.6663 20.1667 19.6385 20.1667 18.3747V4.62467C20.1667 3.36082 19.1388 2.33301 17.875 2.33301Z" fill="#1976D2"/>
<path fill-rule="evenodd" clip-rule="evenodd" d="M16.5 10.0542H13.4444V7.5157C13.4444 6.81508 13.992 6.88108 14.6667 6.88108H15.8889V3.70801H13.4444C12.472 3.70801 11.5393 4.10917 10.8517 4.82326C10.1641 5.53734 9.77777 6.50584 9.77777 7.5157V10.0542H7.33333V13.2272H9.77777V20.208H13.4444V13.2272H15.2778L16.5 10.0542Z" fill="#FAFAFA"/>
</svg>
