<svg xmlns="http://www.w3.org/2000/svg" viewBox="0 0 24 24"><g data-name="Layer 2"><g data-name="Layer 1"><path d="M24 12a12 12 0 1 0-13.88 11.85v-8.38h-3V12h3V9.36c0-3 1.8-4.67 4.54-4.67a18.71 18.71 0 0 1 2.68.23v3h-1.51a1.73 1.73 0 0 0-1.95 1.87V12h3.32l-.53 3.47h-2.79v8.38A12 12 0 0 0 24 12z" style="fill:#1877f2"/><path d="M16.67 15.47 17.2 12h-3.32V9.75a1.73 1.73 0 0 1 1.95-1.87h1.51v-3a18.71 18.71 0 0 0-2.68-.23c-2.74 0-4.54 1.66-4.54 4.67V12h-3v3.47h3v8.38a11.86 11.86 0 0 0 3.76 0v-8.38z" style="fill:#fff"/></g></g></svg>