<svg width="22" height="23" viewBox="0 0 22 23" fill="none" xmlns="http://www.w3.org/2000/svg">
<path d="M15.895 5.50467C15.6774 5.50467 15.4648 5.56919 15.2839 5.69006C15.103 5.81093 14.962 5.98272 14.8787 6.18372C14.7955 6.38472 14.7737 6.60589 14.8161 6.81927C14.8586 7.03265 14.9633 7.22865 15.1172 7.38249C15.271 7.53633 15.467 7.64109 15.6804 7.68354C15.8938 7.72598 16.115 7.7042 16.316 7.62094C16.517 7.53769 16.6887 7.3967 16.8096 7.2158C16.9305 7.03491 16.995 6.82223 16.995 6.60467C16.995 6.31294 16.8791 6.03315 16.6728 5.82686C16.4665 5.62057 16.1867 5.50467 15.895 5.50467ZM20.1117 7.72301C20.0938 6.96245 19.9514 6.20996 19.69 5.49551C19.4569 4.88421 19.0942 4.33068 18.6267 3.87301C18.1728 3.40315 17.6179 3.04267 17.0042 2.81884C16.2916 2.54949 15.5383 2.40378 14.7767 2.38801C13.805 2.33301 13.4933 2.33301 11 2.33301C8.50667 2.33301 8.195 2.33301 7.22334 2.38801C6.46173 2.40378 5.7084 2.54949 4.99584 2.81884C4.38321 3.04494 3.82886 3.4051 3.37334 3.87301C2.90348 4.32692 2.543 4.88174 2.31917 5.49551C2.04982 6.20807 1.90411 6.9614 1.88834 7.72301C1.83334 8.69467 1.83334 9.00634 1.83334 11.4997C1.83334 13.993 1.83334 14.3047 1.88834 15.2763C1.90411 16.038 2.04982 16.7913 2.31917 17.5038C2.543 18.1176 2.90348 18.6724 3.37334 19.1263C3.82886 19.5942 4.38321 19.9544 4.99584 20.1805C5.7084 20.4499 6.46173 20.5956 7.22334 20.6113C8.195 20.6663 8.50667 20.6663 11 20.6663C13.4933 20.6663 13.805 20.6663 14.7767 20.6113C15.5383 20.5956 16.2916 20.4499 17.0042 20.1805C17.6179 19.9567 18.1728 19.5962 18.6267 19.1263C19.0962 18.6704 19.4593 18.1164 19.69 17.5038C19.9514 16.7894 20.0938 16.0369 20.1117 15.2763C20.1117 14.3047 20.1667 13.993 20.1667 11.4997C20.1667 9.00634 20.1667 8.69467 20.1117 7.72301ZM18.4617 15.1663C18.455 15.7482 18.3496 16.3247 18.15 16.8713C18.0036 17.2703 17.7686 17.6307 17.4625 17.9255C17.1652 18.2285 16.8055 18.4631 16.4083 18.613C15.8617 18.8126 15.2852 18.918 14.7033 18.9247C13.7867 18.9705 13.4475 18.9797 11.0367 18.9797C8.62584 18.9797 8.28667 18.9797 7.37 18.9247C6.76582 18.936 6.16421 18.843 5.59167 18.6497C5.21197 18.4921 4.86875 18.2581 4.58334 17.9622C4.27908 17.6677 4.04694 17.3069 3.905 16.908C3.6812 16.3536 3.55708 15.764 3.53834 15.1663C3.53834 14.2497 3.48334 13.9105 3.48334 11.4997C3.48334 9.08884 3.48334 8.74967 3.53834 7.83301C3.54244 7.23814 3.65104 6.64862 3.85917 6.09134C4.02055 5.70443 4.26825 5.35953 4.58334 5.08301C4.86183 4.76783 5.20602 4.51751 5.59167 4.34967C6.15042 4.14805 6.73933 4.04266 7.33334 4.03801C8.25 4.03801 8.58917 3.98301 11 3.98301C13.4108 3.98301 13.75 3.98301 14.6667 4.03801C15.2485 4.04468 15.8251 4.15007 16.3717 4.34967C16.7882 4.50427 17.1621 4.75562 17.4625 5.08301C17.7629 5.36459 17.9976 5.70885 18.15 6.09134C18.3537 6.64953 18.4592 7.23881 18.4617 7.83301C18.5075 8.74967 18.5167 9.08884 18.5167 11.4997C18.5167 13.9105 18.5075 14.2497 18.4617 15.1663ZM11 6.79717C10.0703 6.79899 9.16205 7.07632 8.38994 7.59414C7.61782 8.11196 7.01652 8.84702 6.662 9.70645C6.30748 10.5659 6.21567 11.5111 6.39815 12.4227C6.58063 13.3343 7.02922 14.1713 7.68724 14.8281C8.34526 15.4848 9.18318 15.9318 10.0951 16.1125C11.0071 16.2932 11.9521 16.1995 12.8108 15.8433C13.6696 15.4871 14.4035 14.8844 14.9198 14.1113C15.4361 13.3382 15.7117 12.4293 15.7117 11.4997C15.7129 10.881 15.5918 10.2682 15.3553 9.69655C15.1188 9.12487 14.7717 8.60558 14.3338 8.16855C13.8959 7.73152 13.376 7.38538 12.8038 7.15003C12.2317 6.91467 11.6187 6.79476 11 6.79717ZM11 14.5522C10.3963 14.5522 9.80611 14.3731 9.30412 14.0377C8.80214 13.7023 8.4109 13.2256 8.17986 12.6678C7.94882 12.11 7.88837 11.4963 8.00616 10.9042C8.12394 10.312 8.41466 9.76813 8.84156 9.34123C9.26846 8.91433 9.81236 8.62361 10.4045 8.50583C10.9966 8.38805 11.6104 8.4485 12.1681 8.67953C12.7259 8.91057 13.2027 9.30182 13.5381 9.8038C13.8735 10.3058 14.0525 10.8959 14.0525 11.4997C14.0525 11.9005 13.9735 12.2975 13.8201 12.6678C13.6667 13.0382 13.4419 13.3747 13.1584 13.6581C12.875 13.9416 12.5385 14.1664 12.1681 14.3198C11.7978 14.4732 11.4009 14.5522 11 14.5522Z" fill="#FF2C85"/>
</svg>
