<svg width="20" height="19" viewBox="0 0 20 19" fill="none" xmlns="http://www.w3.org/2000/svg">
<path d="M15.0517 0.333008H4.94833C2.67568 0.333008 0.833332 2.17536 0.833332 4.44801V14.5513C0.833332 16.824 2.67568 18.6663 4.94833 18.6663H15.0517C17.3243 18.6663 19.1667 16.824 19.1667 14.5513V4.44801C19.1667 2.17536 17.3243 0.333008 15.0517 0.333008Z" fill="#0B86CA"/>
<path d="M5.09629 7.64391H7.3824V15.0204H5.09629V7.64391ZM6.26221 3.97852C6.52413 3.97852 6.78018 4.0561 6.99806 4.20146C7.21595 4.34682 7.3859 4.55346 7.48647 4.7953C7.58705 5.03714 7.61375 5.30335 7.5632 5.56035C7.51266 5.81735 7.38713 6.05362 7.20245 6.23935C7.01778 6.42509 6.78223 6.55197 6.52553 6.60399C6.26882 6.65601 6.00246 6.63084 5.76005 6.53164C5.51763 6.43245 5.31003 6.26369 5.16342 6.04665C5.01681 5.8296 4.93777 5.574 4.93626 5.31208C4.93526 5.13731 4.96881 4.96407 5.035 4.80232C5.10118 4.64057 5.19869 4.4935 5.32192 4.36957C5.44514 4.24563 5.59165 4.14728 5.75302 4.08017C5.91439 4.01306 6.08744 3.97851 6.26221 3.97852Z" fill="white"/>
<path d="M8.84551 7.64372H11.0478V8.6496C11.2682 8.27338 11.5867 7.96409 11.9692 7.75472C12.3517 7.54535 12.7839 7.44377 13.2196 7.46083C15.5057 7.46083 15.9706 8.9849 15.9706 10.9738V15.0202H13.6844V11.4539C13.6844 10.6004 13.6844 9.49547 12.4957 9.49547C11.3069 9.49547 11.124 10.4251 11.124 11.3853V15.0355H8.83789L8.84551 7.64372Z" fill="white"/>
</svg>
