<svg xmlns="http://www.w3.org/2000/svg" viewBox="0 0 30 30"><defs><style>.cls-3{fill:#fff}</style></defs><g id="Layer_2" data-name="Layer 2"><g id="Linkedin"><circle cx="15" cy="15" r="15" style="fill:#d9fff9"/><circle cx="15" cy="15" r="12.78" style="fill:#56e2cf"/><path class="cls-3" d="M10.41 11.03h3.84v.81h-3.84zm9.01.91a.51.51 0 0 0 .36-.15.5.5 0 0 0 .14-.35.5.5 0 0 0-.5-.51.51.51 0 0 0-.51.51.47.47 0 0 0 .15.35.48.48 0 0 0 .36.15zm-1.83 0a.48.48 0 0 0 .36-.15.47.47 0 0 0 .15-.35.51.51 0 0 0-.51-.51.5.5 0 0 0-.5.51.5.5 0 0 0 .14.35.51.51 0 0 0 .36.15zm-1.82 0a.51.51 0 0 0 .36-.15.5.5 0 0 0 .14-.35.5.5 0 0 0-.5-.51.48.48 0 0 0-.36.15.51.51 0 0 0-.15.36.51.51 0 0 0 .15.35.48.48 0 0 0 .36.15z"/><path class="cls-3" d="M7.8 9.36v10.7h3.35v2.58L16 20.06h6.2V9.36zm13.38 1v2.14H8.82v-2.13zm-5.44 8.68L12.16 21v-1.95H8.82v-5.53h12.36v5.53z"/><path class="cls-3" d="M10.69 14.91h8.63v.81h-8.63zm0 1.79h8.63v.81h-8.63z"/></g></g></svg>