<svg xmlns="http://www.w3.org/2000/svg" viewBox="0 0 24 24"><defs><linearGradient id="a" x1="13.75" y1="-268.72" x2="3.66" y2="-278.81" gradientTransform="matrix(1 0 0 -1 0 -263.27)" gradientUnits="userSpaceOnUse"><stop offset="0" stop-color="#00a0ff"/><stop offset=".01" stop-color="#00a1ff"/><stop offset=".26" stop-color="#00beff"/><stop offset=".51" stop-color="#00d2ff"/><stop offset=".76" stop-color="#00dfff"/><stop offset="1" stop-color="#00e3ff"/></linearGradient><linearGradient id="b" x1="20.98" y1="-275.51" x2="6.44" y2="-275.51" gradientTransform="matrix(1 0 0 -1 0 -263.27)" gradientUnits="userSpaceOnUse"><stop offset="0" stop-color="#ffe000"/><stop offset=".41" stop-color="#ffbd00"/><stop offset=".78" stop-color="orange"/><stop offset="1" stop-color="#ff9c00"/></linearGradient><linearGradient id="c" x1="15.57" y1="-276.89" x2="1.89" y2="-290.56" gradientTransform="matrix(1 0 0 -1 0 -263.27)" gradientUnits="userSpaceOnUse"><stop offset="0" stop-color="#ff3a44"/><stop offset="1" stop-color="#c31162"/></linearGradient><linearGradient id="d" x1="5.04" y1="-263.59" x2="11.14" y2="-269.7" gradientTransform="matrix(1 0 0 -1 0 -263.27)" gradientUnits="userSpaceOnUse"><stop offset="0" stop-color="#32a071"/><stop offset=".07" stop-color="#2da771"/><stop offset=".48" stop-color="#15cf74"/><stop offset=".8" stop-color="#06e775"/><stop offset="1" stop-color="#00f076"/></linearGradient></defs><g data-name="Layer 2"><g data-name="Layer 1"><circle cx="12" cy="12" r="12" style="fill:#fff"/><path d="M6.92 4.75a1.21 1.21 0 0 0-.28.84v13.29a1.24 1.24 0 0 0 .28.85l7.44-7.44v-.18L7 4.7z" style="fill:url(#a)"/><path d="m16.89 14.81-2.48-2.48v-.18l2.48-2.48h.06l2.94 1.67a.92.92 0 0 1 0 1.74L17 14.78z" style="fill:url(#b)"/><path d="m17 14.78-2.54-2.54-7.54 7.49a1 1 0 0 0 1.25 0l8.78-5" style="fill:url(#c)"/><path d="m17 9.7-8.78-5a1 1 0 0 0-1.25 0l7.49 7.49z" style="fill:url(#d)"/></g></g></svg>