<svg data-name="Group 37766" xmlns="http://www.w3.org/2000/svg" width="22" height="22"><defs><clipPath id="a"><rect data-name="Rectangle 140602" width="22" height="22" rx="11" fill="none"/></clipPath></defs><g data-name="Group 37766" clip-path="url(#a)"><path data-name="Path 48195" d="M17.749 22.172H4.423A4.423 4.423 0 0 1 0 17.749V4.423A4.423 4.423 0 0 1 4.423 0h13.326a4.423 4.423 0 0 1 4.423 4.423v13.326a4.423 4.423 0 0 1-4.423 4.423" fill="#ba2b26"/><path data-name="Path 48196" d="M16.249 15.302c.428.42.856.824 1.265 1.247a.667.667 0 0 1-.04 1.039.852.852 0 0 1-.459.145c-2.054.009-4.109.022-6.163 0a6.627 6.627 0 1 1 5.4-2.434m-9.126-4.224a3.954 3.954 0 1 0 3.962-3.949 3.978 3.978 0 0 0-3.962 3.949" fill="#fff"/></g></svg>