<svg xmlns="http://www.w3.org/2000/svg" width="300" height="300"><path d="M300 150a150 150 0 1 1-300 0 150 150 0 1 1 300 0z" style="fill:#eb4823;stroke:none"/><path d="M149 83c-20.987 0-38 17.013-38 38v54a9 9 0 0 1-9 9 9 9 0 0 1-9-9v-24H64v25c0 20.987 17.013 38 38 38s38-17.013 38-38v-55a9 9 0 0 1 9-9 9 9 0 0 1 9 9v11l12 5.5 17-5.5v-11c0-20.987-17.013-38-38-38zm9 68.5V176c0 20.987 17.013 38 38 38s38-17.013 38-38v-24h-29v24a9 9 0 0 1-9 9 9 9 0 0 1-9-9v-24.5l-17 5.5-12-5.5z" style="fill:#fff;stroke:none"/></svg>