<svg xmlns="http://www.w3.org/2000/svg" viewBox="0 0 24 24"><g data-name="Layer 2"><g data-name="Layer 1"><circle cx="12" cy="12" r="12" style="fill:#1da1f2" data-name="Dark Blue"/><path d="M9.8 18.33A8.18 8.18 0 0 0 18 10.1v-.37a6.08 6.08 0 0 0 1.45-1.5 6.15 6.15 0 0 1-1.67.45 2.91 2.91 0 0 0 1.28-1.6 5.85 5.85 0 0 1-1.84.7 2.89 2.89 0 0 0-5 2 2.84 2.84 0 0 0 .07.66 8.22 8.22 0 0 1-6-3A2.83 2.83 0 0 0 6 8.85a2.9 2.9 0 0 0 1.29 2.41A3 3 0 0 1 6 10.9a2.9 2.9 0 0 0 2.32 2.84 2.68 2.68 0 0 1-.76.1 3.29 3.29 0 0 1-.54 0 2.89 2.89 0 0 0 2.7 2 5.84 5.84 0 0 1-3.6 1.23 5.32 5.32 0 0 1-.69 0 8.05 8.05 0 0 0 4.37 1.26" style="fill:#fff" data-name="Logo — FIXED"/></g></g></svg>