<svg width="20" height="14" viewBox="0 0 20 14" fill="none" xmlns="http://www.w3.org/2000/svg">
<path fill-rule="evenodd" clip-rule="evenodd" d="M18.845 1.82283C18.3206 0.889992 17.7515 0.718409 16.5927 0.653159C15.4351 0.574617 12.5242 0.541992 10.0024 0.541992C7.47579 0.541992 4.56371 0.574617 3.40733 0.651951C2.25096 0.718409 1.68063 0.888784 1.15138 1.82283C0.61125 2.75445 0.333333 4.35912 0.333333 7.1842V7.19387C0.333333 10.0069 0.61125 11.6236 1.15138 12.5456C1.68063 13.4784 2.24975 13.6476 3.40613 13.7261C4.56371 13.7938 7.47579 13.8337 10.0024 13.8337C12.5242 13.8337 15.4351 13.7938 16.5939 13.7273C17.7527 13.6488 18.3218 13.4796 18.8462 12.5468C19.3912 11.6248 19.6667 10.0081 19.6667 7.19507V7.18541C19.6667 4.35912 19.3912 2.75445 18.845 1.82283Z" fill="#F44336"/>
<path fill-rule="evenodd" clip-rule="evenodd" d="M7.58333 10.8125V3.5625L13.625 7.1875L7.58333 10.8125Z" fill="#FAFAFA"/>
</svg>
