<svg xmlns="http://www.w3.org/2000/svg" viewBox="0 0 192 192"><defs><style>.cls-1{fill:#fff}</style></defs><g id="Layer_2" data-name="Layer 2"><g id="Layer_1-2" data-name="Layer 1"><circle class="cls-1" cx="96" cy="96" r="96"/><path d="M157.33 65A16.1 16.1 0 0 0 146 53.6c-10-2.69-50-2.69-50-2.69s-40 0-50 2.69A16.1 16.1 0 0 0 34.67 65C32 75 32 96 32 96s0 21 2.67 31A16.1 16.1 0 0 0 46 138.4c10 2.69 50 2.69 50 2.69s40 0 50-2.69a16.1 16.1 0 0 0 11.33-11.4C160 117 160 96 160 96s0-21-2.67-31z" style="fill:red"/><path class="cls-1" d="M82.91 115.03 116.36 96 82.91 76.97v38.06z"/></g></g></svg>